/* XPM */
static char *clear_highlight[]={
"32 32 19 1",
"i c #000000",
"a c #00ff00",
"f c #00ffff",
". c #303030",
"p c #585858",
"c c #808080",
"m c #a0a0a0",
"q c #c05800",
"h c #c0c000",
"k c #c3c3c3",
"j c #dcdcdc",
"e c #ff0000",
"g c #ff00ff",
"o c #ff8000",
"n c #ffa858",
"l c #ffdca8",
"d c #ffff00",
"b c #ffffc0",
"# c #ffffff",
"...#................a.bbbbbcdddd",
"..###.a.e..#e.f.e..g.bbbbbcddddd",
".#####....a#........bbbbbcdddddd",
"#########..#..e.f..bbbbbcddddddd",
".#####....###.....bbbbbcdddddddc",
"..###....#####...bbbbbcdddddddch",
"...#..##########bbbbbcdddddddchh",
"...#...a.#####.bbbbbcdddddddchhh",
".a.#a.a...###.ibbbbcdddddddchhhh",
"...........#.jiibbcdddddddchhhhh",
"..a.....e...jkkiicdddddddchhhhh.",
".....f.....likkmiiddddddchhhhh..",
"...a...g..lliimmmiiddddchhhhh...",
"a........lllniimmmiiddchhhhh..a.",
".......#llnnlniimcciichhhhh.....",
"..a.a..llnllnnniccccihhhhh......",
".......llnnnnnniiccciihhh....e..",
"...f..#lllnnonooiiccciih..e.....",
".f...##lnnnnonoooiicppi....f..e.",
"..######nnonnoooooiipp..f.......",
".....###nnnoooooooqip.....###...",
".f....###nooooooooqq..e..#####..",
"....f..#..oooooooqq#..##########",
"....#..#...oooooqq###..e.#####..",
".f..#..#....oooqq#######..###...",
"....#....f...qqq#####......#..a.",
"...###...........###..a....#g...",
"..#####.d.......d.#.....e..#....",
"##########.d...a..#..a....a.....",
"..#####.d.d.......#..........a..",
"...###........f...a......a......",
"....#..........................."};
