/* XPM */
static char *clear_polygon_cursor[]={
"32 32 4 1",
"b c None",
"# c None",
"a c #000000",
". c #ffffff",
"...#############################",
".aa..###########################",
".aaaa..#########################",
"#.a..aa..#######################",
"#.a....aa.######################",
"##.a.....a.#####################",
"##.a...a..a.####################",
"###.a.aaa..a.###################",
"###.aaaaaa..a.##################",
"####.aaaaaa..a.#################",
"#####.aaaaaa..a.################",
"######.aaaaaa..a.###############",
"#######.aaaaaa..a.##############",
"########.aaaaaa..a.bbbaa.aabbbbb",
"#########.aaaaaa..a.ba..a..abbbb",
"##########.........ba.aaaaa.abbb",
"##################ba.aaaa.aa.abb",
"##################a.aaaaa..aa.ab",
"##################a.aaaaaa..a.ab",
"##################a.aaaaaa..a.ab",
"##################a.aaaaa..aa.ab",
"##################a.aaaaa..aa.ab",
"##################ba.aaaaaaa.abb",
"##################bba.aaaaa.abbb",
"##################bbba.a...abbbb",
"##################bbba..aa.abbbb",
"##################bbba.aa..abbbb",
"##################bbba...a.abbbb",
"##################bbba.aaa.abbbb",
"##################bbba.....abbbb",
"##################bbbbaaaaabbbbb",
"##################bbbbbbbbbbbbbb"};
