/* XPM */
static char *delete_poly[]={
"32 32 19 1",
". c None",
"# c #000000",
"n c #010101",
"o c #020202",
"d c #030303",
"p c #040404",
"q c #060606",
"m c #0d0d0d",
"h c #121212",
"j c #161616",
"i c #a0a0a0",
"a c #c3c3c3",
"g c #f1f1f1",
"f c #f2f2f2",
"l c #f6f6f6",
"c c #fcfcfc",
"k c #fefefe",
"e c #ff0000",
"b c #ffffff",
".....#.....................#....",
"....#a#...................#a#...",
"....#ba#.................#ab#...",
"....#bba#...............#abb#...",
".....#bba#.............#abb#....",
".....#acba#...........#abba#....",
"......#bbba#.........#abbb#.....",
".......dbbba#eeeeeee#abcb#......",
".......##bbba#eeeee#abfb##......",
".......e#abbba#...#abbga#.......",
"......ee.#bbbba#.#abbbb#........",
".....ee...#bbbbahiabbb#ee.......",
"....ee....##bbbbb#iab##.ee......",
"...ee......#jbkblb#i##...ee.....",
"..ee........#mbb#b###.....ee....",
".ee..........#nbb###.......ee...",
".ee..........a#n###.........ee..",
".ee.........##a####o.........ee.",
".ee.......#####..###d#.......ee.",
".ee....#######....#######....ee.",
".ee...########....####p###...ee.",
".eeee##eee###eeeeee###eee##eeee.",
".eee##eeeee##eeeeee##eeeee##eee.",
"...##......##......##......##...",
"...##.....##........##.....##...",
"..##......##........##......##..",
"..##.....##..........##.....##..",
"..##....#q#..........#n#....##..",
"..###..###............###..###..",
"...######..............######...",
"....####................####....",
"................................"};
