/* XPM */
static char *delete_rect[]={
"32 32 19 1",
". c None",
"# c #000000",
"n c #010101",
"o c #020202",
"e c #030303",
"p c #040404",
"q c #060606",
"m c #0d0d0d",
"h c #121212",
"j c #161616",
"i c #a0a0a0",
"a c #c3c3c3",
"g c #f1f1f1",
"f c #f2f2f2",
"l c #f6f6f6",
"c c #fcfcfc",
"k c #fefefe",
"d c #ff0000",
"b c #ffffff",
".....#.....................#....",
"....#a#...................#a#...",
"....#ba#.................#ab#...",
"....#bba#...............#abb#...",
".....#bba#.............#abb#....",
".....#acba#...........#abba#....",
"......#bbba#.........#abbb#.....",
".ddddddebbba#ddddddd#abcb#ddddd.",
".dddddd##bbba#ddddd#abfb##ddddd.",
".dd.....#abbba#...#abbga#....dd.",
".dd......#bbbba#.#abbbb#.....dd.",
".dd.......#bbbbahiabbb#......dd.",
".dd.......##bbbbb#iab##......dd.",
".dd........#jbkblb#i##.......dd.",
".dd.........#mbb#b###........dd.",
".dd..........#nbb###.........dd.",
".dd..........a#n###..........dd.",
".dd.........##a####o.........dd.",
".dd.......#####..###e#.......dd.",
".dd....#######....#######....dd.",
".dd...########....####p###...dd.",
".dddd##ddd###dddddd###ddd##dddd.",
".ddd##ddddd##dddddd##ddddd##ddd.",
"...##......##......##......##...",
"...##.....##........##.....##...",
"..##......##........##......##..",
"..##.....##..........##.....##..",
"..##....#q#..........#n#....##..",
"..###..###............###..###..",
"...######..............######...",
"....####................####....",
"................................"};
