/* XPM */
static char *designated[]={
"32 32 308 2",
"Qt c None",
"bD c #68311d",
"bE c #6b3923",
"cj c #6d3c18",
"bC c #6e301c",
"bm c #6e3421",
"bn c #6e3824",
"bB c #74331e",
"bl c #753926",
"a4 c #763c1f",
"a3 c #783b27",
"ct c #793712",
"a8 c #793c26",
"a5 c #794023",
"cu c #79492d",
"bU c #7a442c",
"bA c #7b3620",
"bk c #7e4029",
"a2 c #7f3e29",
"a7 c #7f442c",
"a6 c #7f452a",
"bo c #7f5437",
"b6 c #81401d",
"b8 c #824925",
"bj c #834328",
"a9 c #834730",
"aI c #844028",
"ad c #863f22",
"ac c #86411e",
"bT c #864728",
"a1 c #88472c",
"bf c #884c22",
"cE c #885641",
"aH c #894227",
"bi c #894629",
"aN c #8b3f25",
"bh c #8d4725",
"aJ c #8d482a",
"aM c #8e4628",
"aL c #8e4629",
"aK c #8e4827",
"cq c #8e4d26",
"a0 c #8f4c2c",
"aG c #8f4e2b",
"aO c #904630",
"#I c #904d23",
"bv c #91451c",
"cH c #91471d",
"b7 c #93542f",
"ao c #935830",
"bg c #944f2d",
"b3 c #945629",
"cy c #95471d",
"bz c #964c31",
"cd c #974318",
"by c #974d33",
"ap c #975e3c",
"cA c #985c36",
"au c #985f41",
"b9 c #986742",
"co c #99461d",
"aX c #99552a",
"bN c #99562a",
"b0 c #9a481c",
"be c #9a5f31",
"b4 c #9b572c",
"bL c #9b582d",
"cO c #9b5c2c",
"aR c #9b5e3a",
"at c #9c6c4f",
"cf c #9d5830",
"#5 c #9d5c30",
"aq c #9d6844",
"cg c #9e5e35",
"#X c #9e6038",
"aZ c #a0613e",
"ab c #a15d2f",
"cQ c #a1643f",
"#J c #a25a35",
"bS c #a25e39",
"cn c #a35525",
"ae c #a35932",
"cP c #a35e33",
"b5 c #a65a32",
"cz c #a65f38",
"bQ c #a75935",
"bM c #a7663a",
"cJ c #a8724b",
"cU c #a88568",
"b1 c #a95c32",
"ah c #a95c37",
"ci c #a9633e",
"bF c #a97b67",
"ar c #aa7a5b",
"#H c #ab6c39",
"bw c #ac6541",
"an c #ac7146",
"aj c #ad603b",
"ag c #ad603c",
"bK c #ad6335",
"aW c #ad693c",
"aF c #ad693d",
"cM c #ad7e6c",
"af c #ae623a",
"ai c #af6340",
"#h c #b0652d",
"cx c #b06535",
"cD c #b0714b",
"aY c #b26e45",
"cs c #b27148",
"aQ c #b2775d",
"#0 c #b27842",
"bG c #b28a6b",
"cI c #b36e46",
"cG c #b46e40",
"aS c #b47548",
"av c #b47756",
"ay c #b57648",
"cC c #b57a52",
"as c #b58566",
"bR c #b66a45",
"#Y c #b67a53",
"ck c #b68968",
"bu c #b76a38",
"#g c #b76c32",
"am c #b77b52",
"cc c #b86a38",
"#6 c #b8794e",
".Q c #b87a3c",
"#Z c #b87b54",
"#M c #bb6f3d",
"bZ c #bb703e",
"aV c #bb8453",
".R c #bc7840",
"#i c #bd7038",
"c. c #bd9272",
"#L c #be713e",
"#K c #be7242",
"#W c #be8158",
"#O c #bf7142",
"bY c #bf8049",
"#4 c #c07f50",
"#N c #c17441",
"bx c #c1775d",
"ce c #c2744c",
".T c #c47a45",
"b2 c #c48159",
"bP c #c5734e",
"#j c #c57641",
"aC c #c58551",
"ba c #c58b68",
"cL c #c58e67",
"bV c #c59683",
"#P c #c67648",
".S c #c77c46",
"#f c #c77d42",
"#d c #c78258",
"cp c #c97a52",
".P c #c98a4b",
"#r c #ca926e",
"aw c #cb8b65",
"#u c #cb9c6d",
"ax c #cc8c5e",
"cw c #cc8f5a",
"cV c #cca276",
"cm c #cd8a57",
"bd c #cd8a5e",
"ak c #cd9062",
"br c #cd9868",
"#e c #ce854e",
"aa c #ce8e5b",
"bt c #cf8754",
"bO c #d0835b",
"bb c #d08d65",
"cb c #d1905b",
"bH c #d19961",
"#b c #d2925c",
"al c #d29668",
"cK c #d2a47d",
"bq c #d2a67a",
"ch c #d38d63",
"#V c #d39366",
"#v c #d3a370",
"#A c #d49569",
"#t c #d49b73",
"#y c #d59c6f",
"cR c #d5a67d",
".G c #d5ae8b",
".F c #d5b897",
"#G c #d6985f",
"#Q c #d6a075",
"#R c #d6a172",
"aE c #d79468",
"cr c #d79c73",
"#s c #d79c77",
".L c #d7a170",
"bX c #d7ad8d",
"#c c #d89567",
"#B c #d8996f",
"#U c #d89a6c",
".s c #d8aa7f",
".r c #d8af88",
"cS c #d8b48b",
"cF c #d99d6a",
"aU c #d9a270",
".K c #d9a87b",
".8 c #d9a883",
"aB c #da9867",
".d c #dab992",
"bs c #db9d69",
"#z c #dba072",
"#a c #dba266",
".A c #dd9c69",
".O c #dda065",
"#x c #dda778",
".i c #ddb28a",
".h c #ddb28e",
".q c #ddb690",
".f c #ddb898",
"bJ c #de9061",
"#S c #de9e71",
"#9 c #dea26c",
".x c #dea773",
".7 c #dea975",
"cN c #dea97a",
".t c #deae82",
".c c #debc98",
".b c #debc9d",
".a c #dec0a5",
"#1 c #dfa46d",
".5 c #dfb281",
".H c #dfb68f",
".g c #dfb692",
"bp c #dfbc9a",
"#l c #e0ba95",
"aT c #e1a676",
".w c #e1ab76",
".J c #e1b184",
".4 c #e1b78f",
".p c #e1bc98",
"cl c #e1bd9b",
"bI c #e29b66",
"b# c #e2af96",
"#. c #e2b07d",
"#w c #e2b080",
"cT c #e2b693",
"#k c #e2bb98",
".3 c #e2bc97",
".E c #e2c4a6",
".# c #e2c5ae",
".B c #e2cfb0",
"#2 c #e3a671",
".y c #e3aa75",
"#q c #e3ad86",
".l c #e3b082",
".X c #e3ba9c",
".2 c #e3c09f",
".e c #e3c2a5",
".C c #e3caad",
".m c #e3cca1",
"#T c #e4a378",
"#D c #e4ad80",
".6 c #e4b37f",
".k c #e4b489",
".j c #e4b68d",
"ca c #e4be98",
".o c #e4c4a6",
"aD c #e5a170",
"## c #e5af74",
"#n c #e5b58f",
".I c #e5b78e",
"cv c #e5c8ab",
"#3 c #e6a473",
"#C c #e6ad82",
"#E c #e6af78",
"#p c #e6b28b",
".9 c #e6b488",
"#o c #e6b68e",
".U c #e6be7e",
"a# c #e7a770",
"#F c #e7ad71",
".v c #e7b582",
".u c #e7b78d",
".n c #e7caa7",
".z c #e8a977",
".0 c #e8c3a8",
".1 c #e8c6aa",
"#8 c #e9ad7e",
".M c #e9b081",
".N c #e9b17f",
".D c #e9cdb1",
"#7 c #eaa983",
".Y c #eabd9f",
"#m c #eac29f",
".W c #eac3a5",
".Z c #ebbe9e",
"cW c #ebc294",
"bc c #eca877",
".V c #edd1b9",
"az c #eeb385",
"bW c #eed5bd",
"aA c #efb686",
"cB c #f0c09c",
"a. c #f1b57e",
"aP c #f2bdae",
"c# c #f2cb8a",
"cX c #f2d2a9",
"b. c #f5cca1",
"QtQtQtQtQtQtQtQtQtQtQtQtQtQtQtQtQtQtQtQtQtQtQtQtQtQtQtQtQtQtQtQt",
"QtQtQtQtQtQtQtQtQtQtQtQtQtQtQtQtQtQtQtQtQtQtQtQtQtQtQtQtQtQtQtQt",
"QtQtQtQtQtQtQtQtQtQtQtQtQtQtQtQtQtQtQtQtQtQtQtQtQtQtQtQtQtQtQtQt",
"QtQtQtQtQtQtQtQtQtQtQtQtQtQtQtQtQtQtQtQtQtQtQtQtQtQtQtQtQtQtQtQt",
"QtQtQtQtQtQtQtQtQtQtQtQtQtQtQtQtQtQtQtQtQtQtQtQtQtQtQtQtQtQtQtQt",
"QtQtQtQtQtQtQtQtQtQtQtQtQtQtQtQtQtQtQtQtQtQtQtQtQtQtQtQtQtQtQtQt",
"QtQtQtQtQtQtQtQtQtQtQtQtQtQtQtQtQtQtQtQtQtQtQtQtQtQtQtQtQtQtQtQt",
"QtQtQtQtQtQtQtQtQtQtQtQtQtQtQtQtQtQtQtQtQtQtQtQtQtQtQt.#.a.b.c.d",
"QtQtQtQtQtQtQtQtQtQtQtQtQtQtQtQtQtQtQtQtQtQtQtQt.e.f.g.h.i.j.k.l",
"QtQtQtQtQtQtQtQtQtQtQtQtQtQtQtQtQt.m.n.o.p.q.r.s.t.u.v.w.x.y.z.A",
"QtQtQtQtQtQtQtQtQtQtQtQtQt.B.C.D.E.F.G.H.I.J.K.L.M.N.O.P.Q.R.S.T",
"QtQtQtQt.U.V.W.X.Y.Z.0.1.2.3.4.5.6.7.8.9#.###a#b#c#d#e#f#g#h#i#j",
"#k#l#m#n#o#p#q#r#s#t#u#v#w#x#y#z#A#B#C#D#E#F#G#H#I#J#K#L#M#N#O#P",
"#Q#R#S#T#U#V#W#X#Y#Z#0#1#2#3#4#5#6#7#8#9a.a#aaabacadaeafagahaiaj",
"akalamanaoapaqarasatauavaw#6axayazaAaBaCaDaEaFaGaHaIaJaKaLaMaNaO",
"QtQtQtQtQtQtQtQtQtQtQtaPaQaRaSaTaUaVaWaXaYaZa0a1a2a3a4a5a6a7a8a9",
"QtQtQtQtQtQtQtQtQtQtb.b#babbbcbdbebfbgbhbibjbkblbmbnboQtQtQtQtQt",
"QtQtQtQtQtQtQtQtQtbpbqbrbsbtbubvbwbxbybzbAbBbCbDbEbFQtQtQtQtQtQt",
"QtQtQtQtQtQtQtQtQtbGbHbIbJbKbLbMbNbObPbQbRbSbTbUbVQtQtQtQtQtQtQt",
"QtQtQtQtQtQtQtQtbWbXbYbZb0b1b2b3b4b5b6b7b8b9c.QtQtQtQtQtQtQtQtQt",
"QtQtQtQtQtQtQtQtc#cacbcccdcecfcgchcicjckQtQtQtQtQtQtQtQtQtQtQtQt",
"QtQtQtQtQtQtQtQtQtclcmcncocpcqcrcsctcuQtQtQtQtQtQtQtQtQtQtQtQtQt",
"QtQtQtQtQtQtQtQtQtcvcwcxcyczcAcBcCcDcEQtQtQtQtQtQtQtQtQtQtQtQtQt",
"QtQtQtQtQtQtQtQtQtQtcFcGcHcIcJQtcKcLcMQtQtQtQtQtQtQtQtQtQtQtQtQt",
"QtQtQtQtQtQtQtQtQtQtcNcOcPcQcRQtcScTcUQtQtQtQtQtQtQtQtQtQtQtQtQt",
"QtQtQtQtQtQtQtQtQtQtQtcVcWcXQtQtQtQtQtQtQtQtQtQtQtQtQtQtQtQtQtQt",
"QtQtQtQtQtQtQtQtQtQtQtQtQtQtQtQtQtQtQtQtQtQtQtQtQtQtQtQtQtQtQtQt",
"QtQtQtQtQtQtQtQtQtQtQtQtQtQtQtQtQtQtQtQtQtQtQtQtQtQtQtQtQtQtQtQt",
"QtQtQtQtQtQtQtQtQtQtQtQtQtQtQtQtQtQtQtQtQtQtQtQtQtQtQtQtQtQtQtQt",
"QtQtQtQtQtQtQtQtQtQtQtQtQtQtQtQtQtQtQtQtQtQtQtQtQtQtQtQtQtQtQtQt",
"QtQtQtQtQtQtQtQtQtQtQtQtQtQtQtQtQtQtQtQtQtQtQtQtQtQtQtQtQtQtQtQt",
"QtQtQtQtQtQtQtQtQtQtQtQtQtQtQtQtQtQtQtQtQtQtQtQtQtQtQtQtQtQtQtQt"};
