/* XPM */
static char *displayinvalid[]={
"34 34 238 2",
"Qt c None",
"af c #000000",
"bD c #fefefe",
"bR c #000000",
"bA c #000000",
"am c #000000",
"aw c #000000",
"bt c #000000",
"bB c #fefefe",
"bL c #000000",
"bK c #000000",
"bz c #000000",
"bQ c #000000",
"bM c #000000",
"av c #000000",
"bg c #000000",
"bP c #000000",
"bN c #000000",
"bO c #000000",
"aE c #000000",
"bn c #000000",
"aO c #000000",
"by c #000000",
"au c #000000",
"bE c #000000",
"ba c #000000",
"bF c #000000",
"aD c #000000",
"bs c #000000",
"bf c #000000",
"bx c #000000",
"a5 c #000000",
"bG c #000000",
"bm c #000000",
"aN c #000000",
"a0 c #000000",
"bH c #000000",
"bJ c #000000",
"bI c #000000",
"br c #000000",
"b# c #000000",
"aT c #000000",
"aM c #000000",
"bq c #000000",
"a4 c #000000",
"aZ c #000000",
"be c #000000",
"aS c #000000",
"aR c #000000",
".# c #000000",
"aC c #010101",
"bu c #020202",
"#W c #030303",
"as c #070707",
"a3 c #080808",
"aj c #111111",
"ad c #1e1e1e",
".d c #215e00",
".j c #269f00",
"bd c #272727",
"#o c #282828",
"#9 c #2f2f2f",
"bl c #353535",
"#M c #373737",
".7 c #3d3d3d",
"#5 c #404040",
"#f c #40413e",
".0 c #414141",
"#d c #444145",
"#e c #444442",
"bw c #444444",
"#c c #464242",
"al c #464646",
"#g c #474744",
"aK c #494949",
"aQ c #4a4a4a",
"bC c #4d4d4d",
"aB c #4e4e4e",
"aY c #525252",
"#B c #545454",
"#V c #555555",
"#m c #565656",
"a2 c #595959",
"ar c #5a5a5a",
"bp c #5c5c5c",
"#b c #5d5955",
"#n c #5e5e5e",
"#T c #606060",
"a6 c #636363",
"a1 c #646464",
"#A c #656565",
".E c #675a44",
"ai c #676767",
"bj c #686868",
"#l c #696969",
".8 c #6a6a6a",
".k c #6ac255",
"#2 c #6b6b6b",
"aJ c #6c6c6c",
".1 c #6f5231",
".F c #6f5430",
"#E c #6f6f6f",
"aA c #707070",
"#S c #717171",
".l c #71ce5b",
"aU c #727272",
"ac c #747474",
"#L c #757575",
"#8 c #767676",
"ab c #777777",
".m c #77d960",
"#3 c #787878",
"aF c #797979",
"aP c #7b7b7b",
"#N c #7c7c7c",
"ax c #7d7d7d",
"bv c #7e7e7e",
"#Q c #7f7f7f",
"aH c #808080",
"an c #818181",
"aq c #828282",
".Q c #836f1f",
".3 c #838383",
"ag c #848484",
"#z c #858585",
"#G c #868686",
"#0 c #878787",
"#P c #888888",
"a# c #898989",
"#4 c #8b8b8b",
"#Y c #8c8c8c",
"#H c #8d8d8d",
"#7 c #8e8e8e",
".4 c #8f6c40",
"#K c #8f8f8f",
".V c #906d40",
".W c #906e3f",
".2 c #909090",
".9 c #919191",
".D c #929292",
"#. c #93928e",
"#a c #939387",
"aX c #949494",
"## c #95958c",
"aL c #969696",
"#Z c #979797",
"#y c #989898",
"a8 c #9b9b9b",
"b. c #9d9d9d",
".Y c #9e7b4b",
"bc c #9e9e9e",
"#U c #9f9f9f",
"#6 c #a0a0a0",
".P c #a17945",
"ae c #a1a1a1",
".C c #a2a2a2",
"#x c #a3a3a3",
"#F c #a4a4a4",
"#1 c #a5a5a5",
"bo c #a6a6a6",
"ap c #a8a8a8",
"aa c #a9a9a9",
".G c #ab844c",
".B c #ababab",
".5 c #ad8752",
"bi c #adadad",
"ak c #b0b0b0",
"az c #b1b1b1",
"ah c #b2b2b2",
"aI c #b3b3b3",
"#w c #b4b4b4",
"#p c #b5b5b5",
"aW c #b6b6b6",
"#q c #b7b7b7",
"#J c #b8b8b8",
"#O c #b9b9b9",
".A c #bababa",
"ao c #bbbbbb",
"ay c #bcbcbc",
".X c #be955b",
".e c #beedb4",
"aG c #bfbfbf",
".J c #c09962",
"#C c #c0c0c0",
"#k c #c2c2c2",
"aV c #c3c3c3",
"#v c #c4c4c4",
"at c #c6c6c6",
".v c #c7c7c7",
"a7 c #c8c8c8",
".O c #caa167",
".R c #cea855",
"#D c #d0d0d0",
".y c #d2aa71",
".I c #d2aa77",
"#u c #d2d2d2",
".o c #d8d8d8",
"bb c #dbdbdb",
".z c #dcb889",
"bk c #dcdcdc",
".S c #ddbc56",
"#R c #dddddd",
".a c #dec9ab",
"a. c #dedede",
"#t c #dfdfdf",
"#X c #e0e0e0",
".w c #e2c08f",
".K c #e2ce36",
".M c #e3c190",
".u c #e3c7a2",
".6 c #e3e3e3",
".T c #e7ce30",
".i c #e9e9e9",
".Z c #edd0a6",
".N c #edd0a8",
"bh c #ededed",
".x c #eed8bb",
"#h c #eeeeee",
".p c #efd7b4",
".U c #efd8b6",
".c c #f1e0c8",
".n c #f2e2cc",
".q c #f2e6d8",
"#s c #f2f2f2",
".t c #f5ede2",
".H c #f5ede3",
".s c #f6f0ed",
".g c #f7ecdd",
"#i c #f7f7f7",
".r c #f8f2ef",
"#r c #f8f8f8",
"a9 c #f9f9f9",
".L c #faedbb",
"#I c #fafafa",
".f c #fbf5ee",
".h c #fbfbfb",
"#j c #fefefe",
".b c #ffffff",
"QtQtQtQtQt.#QtQtQtQtQtQtQtQtQtQtQtQtQtQtQtQtQtQtQtQtQtQtQtQtQtQtQtQt",
"QtQtQtQt.#.a.#QtQtQtQtQt.#.#.#QtQtQtQtQtQtQtQtQtQtQtQtQtQtQtQtQtQtQt",
"QtQtQt.#.a.b.c.#.#.#.#.d.e.e.e.#QtQtQtQtQtQtQtQtQtQtQtQtQtQtQtQtQtQt",
"QtQt.#.a.b.f.g.#.b.h.i.j.k.l.m.#.#.#.#.#.#Qt.#QtQtQtQtQtQtQtQtQtQtQt",
"Qt.#.a.b.f.g.n.#.o.o.o.i.j.j.j.#.p.q.r.s.#.#.t.#QtQtQtQtQtQtQtQtQtQt",
".#.a.b.f.g.n.u.#.v.v.v.v.i.i.b.#.w.w.x.x.#.c.b.t.#QtQtQtQtQtQtQtQtQt",
"Qt.#.y.g.n.u.z.#.A.B.C.D.D.D.D.E.F.F.G.#.p.c.H.b.t.#QtQtQtQtQtQtQtQt",
"QtQt.#.I.u.z.J.#.B.C.D.#.#.#.E.K.L.L.F.M.N.p.M.H.b.t.#QtQtQtQtQtQtQt",
"QtQtQt.#.z.O.P.#.B.D.#.b.h.i.Q.R.S.T.#.y.M.y.p.c.U.#QtQtQtQtQtQtQtQt",
"QtQtQt.#.V.P.W.#.C.D.#.o.o.o.i.Q.Q.Q.#.X.Y.y.Z.y.#QtQtQtQtQtQtQtQtQt",
"QtQtQt.#.0.V.1.#.2.3.#.v.v.v.v.i.i.b.#.4.X.X.5.#.#QtQtQtQtQtQtQtQtQt",
"QtQtQt.#.6.0.0.0.7.8.#.9.9.9.9#.###a#b#c#d#e#f#g.#QtQtQtQtQtQtQtQtQt",
"QtQtQt.#.6#h#i#j#k#l.0.0.0.0.0.0.0.0#m#n#o.#.#.#.#.#QtQtQtQtQtQtQtQt",
"QtQtQt.#.6#p#q#j#r#s.i#t#u#v#w#x#y#z#A#o#B#C#D#E#F#F.#QtQtQtQtQtQtQt",
"QtQtQt.#.6#G#G#H#I#J.3#t#u#v#l#x#K#L#M#B#C#D#N#D#D#F.#QtQtQtQtQtQtQt",
"QtQtQt.#.6#G#K#O#I#P#Q#Q#R#S#A#T#U#V#W#D#D#F#C#D#X#D#F.#QtQtQtQtQtQt",
"QtQtQt.#.6#Y#Z#O#I#P#0#1#R#S#2#3#4#5#2#D#C#N#D#X#X#X#D.#QtQtQtQtQtQt",
"QtQtQt.#.6#Y#6#O#I#7#K#1#R#8#S#S#Q#9#Pa.#D#N#D#X#X#X#D#N.#QtQtQtQtQt",
"QtQtQt.#.6a#aa#O#I#7#y#1#R#8ab.8acadae#X#F#D#X#X#X#X#X#D.#afQtQtQtQt",
"QtQtQt.#.6agah#O#I#4#6#1#R#8#N.8aiajak#D#N#D#X#X#X#Xalalal.#amafQtQt",
"QtQtQt.#.6anao#O#I#0ap#1#Racaq.8arasat#D#N#D#X#X#X#D#o#Fal.#auavawaf",
"QtQtQt.#.6axay#O#Iaqaz#1#RaA#P.8aBaC#F#F#N#C#D#D#Xahal.##o#N.#aDaEaw",
"QtQtQt.#.6aFaG#O#IaHaI#1#RaJ#7.8aK.#aL#F#B#D#D#D#X#F#F.#al#D.#aMaNaO",
"QtQtQt.#.6#8#C#O#IaP#p#1#R#l.9.8aQ.#aLaL#B#F#C#Nalalal#o#X.#aRaSaTaD",
"QtQtQt.#.6aUaVaW#I#3#q#1#RaiaX.8aYaC#N#N#B#F#D#N.##B#N#E#D.#aRaRaZa0",
"QtQtQt.#.6#E#k.B#Iac.A#6#Ra1#Z.8a2a3#N#N#Bah#D#Eal.##N#C.##oaRaRa4a5",
"QtQtQt.#.6a6a7a8a9#Saob.#R#Ta8#Aaiajal#E#B#N#C#Eal#o.#.#.#aRaRaSb#ba",
"QtQtQt.#bba7#3aG.ha1aV#4#R#nbc#labbd#o#B#B#B#D#E#Ealalal.#aRbeaTbfbg",
"QtQtQt#Paobh#i#j.bbibj#ybk#Vaa#T#4bl.##B#B#B#F#C#Nalalal.#beaTbmbnam",
"QtQtQtQt.##k#i#ja9bh#kbk#ubo#B#Yaxbp.#al#B#B#N#D#F#Nal.#bqbrbsbnbtaf",
"QtQtQtQtQta6.#buaXa7.i#t#uaV#w.Cbv#nbw#o#B#Bal#N#F#N#N.#bxbybzbAQtQt",
"QtQtQtQtQtQtQtbB#P#2.#.#.#.#.#.#.#.#bC.#alalal#B#E#B.#aubgbtafQtQtQt",
"QtQtQtQtQtQtQtQtbDafawavbEbFbGbHbIbIbJbI#o.#.#.#.#.#bKamafQtQtQtQtQt",
"QtQtQtQtQtQtQtQtQtQtQtafawbLbMbNaEbObOaEbObPbQbLbtbRafQtQtQtQtQtQtQt"};
