/* XPM */
static char *filter_mask_rect_cursor[]={
"32 32 4 1",
"a c None",
"# c None",
"b c #000000",
". c #ffffff",
"...###########aaaaaaaaaa.....aaa",
".bb..#########aaaa......bbbbb.aa",
".bbbb..#######aa..bbbbbbbbbbbb.a",
"#.b..bb..#####a.bbbbbbbbb..bbbb.",
"#.b....bb.####.bbb..bbbbb...bbb.",
"##.b....bb.###.bb.a..bbbbbbbbb.a",
"##.b...b..b.##.bbb.bbb..bbbbb.aa",
"###.b.bbb..b.#.bbbbbb.aa.....aaa",
"###.bbbbbb..b.a.bbb..aaaaaaaaaaa",
"####.bbbbbb..b.aa..aaaaaaaaaaaaa",
"#####.bbbbbb..b.################",
"######.bbbbbb..b.###############",
"#######.bbbbbb..b.##############",
"########.bbbbbb............#####",
"#########.bbbbb...bbbbbbbbb...##",
"##########.bbb..bb.b.b.b.b.bbb.#",
"###########.b..bb.b.b.b...b..bb.",
"############..bb.b.b.b......b.bb",
"#############.b.b.b.b.b....b.b.b",
"##############.b.b.b.b....b.b.b.",
"###############.bbb.b.b..b.bbb.#",
"#................bbbbbbbbbbbb.##",
"#.bbbbbbbbbbbbb.#.b.b.b.b.bb.###",
"#.b...........b.##.b...b.bb.####",
"#.b.#########.b.###.b...bb.#####",
"#.b.#########.b.####.b.bb.######",
"#.b.#########.b.####.b..b.######",
"#.b.#########.b.####.b.bb.######",
"#.b...........b.####.b..b.######",
"#.bbbbbbbbbbbbb.####.b.bb.######",
"#...............#####.bb.#######",
"######################..########"};
