/* XPM */
static char *freeze_all[]={
"34 34 10 1",
". c #000000",
"# c #0000ff",
"f c #00ff00",
"g c #00ffff",
"b c #800080",
"a c #ff0000",
"h c #ff00ff",
"d c #ffc0c0",
"e c #ffff00",
"c c #ffffff",
"..................................",
"..............###############.....",
"..aaaaaaaaaaaa#aa....#......#.....",
"..a......a....#.a....#......#.....",
"..a......a....#.a...........#.....",
"..a...........######...######.....",
"..aaaaaa...aaa#aa...........#.....",
"..a...........#.a....#......#.....",
"..a......a....#.a....#......#.....",
"..a......a....###############.....",
"..aaaaaaaaaaaaaaa.................",
".................bbbbbbbbbbbbbbb..",
".........cccccccccccccccb......b..",
".........c......cb.....cb......b..",
"dddddddddcddddd.cb.....c.......b..",
"d......d.c....d..bbbbbbc..bbbbbb..",
"d......d.cccccc..bcccccc.......b..",
"d........c..eedeebeeeeecbee....b..",
"ddddddfffcdddddfcb.e...cb.e....b..",
"df......fc..e.dfcbbbbbbcbbbbbbbb..",
"df.....dfccccccccccccccc..e.......",
"df.....d....eedeee...eeeeee.......",
"dddddddddddddddf..........e.......",
".fggggggggggggggghhehhhhhhehhhhh..",
".fg.....fg..e..fgh.e....h.e....h..",
".fg.....fg..eeeegeeeeeeeeee....h..",
".fgfffffffffffffgh.............h..",
"..gggggg...gggggghhhhhh...hhhhhh..",
"..g.............gh.............h..",
"..g......g......gh......h......h..",
"..g......g......gh......h......h..",
"..ggggggggggggggghhhhhhhhhhhhhhh..",
"..................................",
".................................."};
