/* XPM */
static char *mask_cursor[]={
"32 32 4 1",
"b c None",
"# c None",
"a c #000000",
". c #ffffff",
"...#############################",
".aa..###########################",
".aaaa..#########################",
"#.a..aa..#######################",
"#.a....aa.######################",
"##.a.....a.#####################",
"##.a...a..a.####################",
"###.a.aaa..a.###################",
"###.aaaaaa..a.##################",
"####.aaaaaa..a.#################",
"#####.aaaaaa..a.################",
"######.aaaaaa..a.###############",
"#######.aaaaaa..a.##############",
"########.aaaaaa..a.#############",
"#########.aaaaaa..a.############",
"##########.........#############",
"##########bbbbbbbbbbbb#########b",
"bbbbbbbbbbbbbbbbbbbbbbb..bbbbbbb",
"bbbbbbbbbbbbbbbbbbb....aa...bbbb",
"bbbbbbbbbbb........aaaaaaaaa.bbb",
"bbbbbbbbb..aaaaaaaaaaaaaaaaaa.bb",
"bbbbbbbb.aaaaaaaaaaaaaaaaaaaa.bb",
"bbbbbbb.aaaaaaaaaaaaa....aaaaa.b",
"bbbbbbb.aaaaa.aaaaaaa....aaaaa.b",
"bbbbbb.aaaa..b..aaaaaaaaaaaaa.bb",
"bbbbbb.aaaaa...aaaaaaaaaaaaaa.bb",
"bbbbbb.aaaaaaaaaaa..aaaaaaaa.bbb",
"bbbbbb.aaaaaaaaaa.bb...aaaa.bbbb",
"bbbbbbb.aaaaaaa..bbbbbb....bbbbb",
"bbbbbbbb.aaaa..bbbbbbbbbbbbbbbbb",
"#########....###########bbbbbb##",
"################################"};
