/* XPM */
static char *measure[]={
"32 32 51 1",
". c None",
"# c #000000",
"e c #54450a",
"b c #62500c",
"o c #675614",
"I c #7a6619",
"n c #7a681f",
"C c #8d7823",
"y c #8d7825",
"m c #8d7929",
"J c #a08829",
"u c #a08a31",
"q c #a08b34",
"v c #b39b3b",
"c c #c49d00",
"L c #c6a934",
"H c #c6aa38",
"D c #c6ab3d",
"z c #c6ac41",
"t c #c6ad45",
"p c #c6ad49",
"M c #d9ba3b",
"E c #d9bd46",
"A c #d9bd4a",
"w c #d9be4f",
"l c #d9bf54",
"F c #ecce4e",
"s c #eccf59",
"W c #ffd20c",
"V c #ffd312",
"U c #ffd418",
"T c #ffd51f",
"S c #ffd625",
"R c #ffd72b",
"Q c #ffd831",
"P c #ffd937",
"O c #ffda3e",
"N c #ffdb44",
"K c #ffdc4a",
"G c #ffdd50",
"B c #ffdf57",
"x c #ffe05d",
"r c #ffe163",
"k c #ffe269",
"j c #ffe36f",
"i c #ffe476",
"h c #ffe57c",
"g c #ffe682",
"f c #ffe788",
"d c #ffe88f",
"a c #ffe995",
"................................",
"................................",
"................................",
"################################",
"#abaabaabaabaabaabaabaabaabaabc#",
"#deddeddeddeddeddeddeddeddeddec#",
"#feffeffeffeffeffeffeffeffeffec#",
"#geggeggeggeggeggeggeggeggeggec#",
"#hhhhhhhehhhhhhhhehhhhhhhhehhhc#",
"#iiiiiiieiiiiiiiieiiiiiiiieiiic#",
"#jjjjjjjejjjjjjjjejjjjjjjjejjjc#",
"#kkklmeklnolkkkkkkkkkkpmmqlnolc#",
"#rrrsteruvwurrrrrrrrrrvwwuuvwuc#",
"#xxxxxexyzxyxxxxxxxxxxxzeAyzxyc#",
"#BBBBBeBCDBCBBBBBBBBBBEFECCDBCc#",
"#GGGGGeGHIIHGGGGGGGGGGJJIJHIIHc#",
"#KKKKKLKKMLKKKKKKKKKKKKMLKKMLKc#",
"#NNNNNNNNNNNNNNNNNNNNNNNNNNNNNc#",
"#OOOOOOOOOOOOOOOOOOOOOOOOOOOOOc#",
"#PeePPPeePPPPePPPPPPPPPPPPPPPPc#",
"#QQQeQeQQeQQeeQQQQQQQQQQQQQQQQc#",
"#ReeRReRReRRReRRRRRRRRRRRRRRRRc#",
"#SSSeSSeeeSSSeSSSSSSSSSSSSSSSSc#",
"#TTTeTTTTeTTTeTTTTTTTTTTTTTTTTc#",
"#UeeUUUeeUUUUeUUUUUUUUUUUUUUUUc#",
"#VVVVVVVVVVVVVVVVVVVVVVVVVVVVVc#",
"#WWWWWWWWWWWWWWWWWWWWWWWWWWWWWc#",
"#cccccccccccccccccccccccccccccc#",
"################################",
"................................",
"................................",
"................................"};
