/* XPM */
static char *measure_cursor[]={
"32 32 4 1",
"b c None",
"# c None",
"a c #000000",
". c #ffffff",
"...#############################",
".aa..###########################",
".aaaa..#########################",
"#.a..aa..#######################",
"#.a....aa.######################",
"##.a.....a.#####################",
"##.a...a..a.####################",
"###.a.aaa..a.############bb#####",
"###.aaaaaa..a.#######b##bbb#####",
"####.aaaaaa..a.##bb##bbbbbb#####",
"#####.aaaaaa..a.bbb#bbbbbb#bb#b#",
"######.aaaaaa..a.bbbbbbbbbbbb#b#",
"#######.aaaaaa..a.bbbbbbbbbbbbb#",
"########.aaaaaa..a.bbbbbbbbbbbb#",
"#########.aaaaaa..a.bbbbbbbbbbb#",
"##########.........bbbbbbbbbbbb#",
"##########bbbbbbbbbbbbbbbbbbbbb#",
"................................",
".aaaaaaaaaaaaaaaaaaaaaaaaaaaaaa.",
".a...a..a..a..a..a..a..a..a...a.",
".a...a..a..a..a..a..a..a..a...a.",
".a...a..a..a..a..a..a..a..a...a.",
".a...a..a..a..a..a..a..a..a...a.",
".a......a........a........a...a.",
".a......a........a........a...a.",
".a......a........a........a...a.",
".a............................a.",
".a............................a.",
".aaaaaaaaaaaaaaaaaaaaaaaaaaaaaa.",
"................................",
"#########bbbbbbbbbbbbbbbbbbbb#b#",
"##########bb####bbbbbbbb#bbb##b#"};
