/* XPM */
static char *restore_rect_cursor[]={
"32 32 3 1",
". c None",
"a c #000000",
"# c #ffffff",
"..........#a##..................",
".........#a#aa#.................",
".........#a##a#.................",
".........#a##a#.................",
".........#a##a#.................",
".........#aaaa#.................",
".........#aa#aa#................",
"........#aa##aaa#...............",
"################################",
"#aaaaaaaaaaaaaaaaaaaaaaaaaaaaaa#",
"#a############################a#",
"#a#.#aaaaaaaaaaaaaaaaaaaaaa#.#a#",
"#a##aa#a#a#a#a#a#a#aaa#a#aaa##a#",
"#a#aa########a#####aaaa#a#a#a#a#",
"#a#a#########a######aaaa#a#aa#a#",
"#a##########a#a##a#a#aaaa#a#a#a#",
"#a#a#########a####a#a##aaaaa##a#",
"#a#############a#a#a#a##aaa#a#a#",
"#a#a############a#a#aaaaaaaa##a#",
"#a###########a#a#a#aaa####a#a#a#",
"#a#a##########a#a#aaa#...#aa##a#",
"#a#a#######a#a#a#aaa#....#a#a#a#",
"#a##a#######a#a#aaa#.....#aa##a#",
"#a############################a#",
"#aaaaaaaaaaaaaaaaaaaaaaaaaaaaaa#",
"################################",
".......#aaaaaaa#.........#aa#aa#",
"........#a#aaa#..........#a#a#a#",
".........#aaa#...........#aa#aa#",
"..........###............#a#a#a#",
"..........................#a#aa#",
"..........................#aaa#."};
