/* XPM */
static char *rotate_cursor[]={
"32 32 3 1",
". c None",
"# c #000000",
"a c #ffffff",
"................................",
"................................",
"...............#####............",
"............####aaa####.........",
"...........#aaaaaaaaaaa##.......",
".........##aaaaaaaaaaaaaa#......",
"........#aaaaaaaaaaaaaaaaa##....",
".......#aaaaaa#########aaaaa#...",
"......#aaaaaa##.aaa....#aaaaa#..",
".....#aaaaaa#...a#a.....#aaaa#..",
".....#aaaaa##...a#a......#aaaa#.",
"....#aaaaaa#....a#a.......#aaa#.",
"....#aaaaa#.....a#a........#aaa#",
"....#aaaaa#.....a#a........#aaa#",
"####aaaaaaa####.a#a........#aaa#",
".#aaaaaaaaaaa#..a#a.........#aa#",
"..#aaaaaaaaa#aaaa#aaaaaaaaa.#aa#",
"...#aaaaaaa######.########a.#aa#",
"....#aaaaa#aaaaaa#aaaaaaaaa.#aa#",
".....#aaa#......a#a........#aaa#",
"......#a#.......a#a........#aaa#",
".......#........a#a........#aa#.",
"................a#a.......#aaa#.",
"................a#a......#aaa#..",
"................a#a.....#aaaa#..",
"................a#a....#aaaa#...",
"................aaa...#aaa##....",
"...................###aa###.....",
"................###aaa###.......",
"..............#########.........",
"................................",
"................................"};
