/* XPM */
static char *waveform_monitor[]={
"32 32 6 1",
". c None",
"a c #000000",
"d c #00ffff",
"c c #ff0000",
"b c #ffff00",
"# c #ffffff",
"......#####################.....",
"......#aaabaa###aaaaaaaaaa#.....",
"......#acdbbbba########aaa#.....",
"......#acdaaabbbbbbbbb###a#.....",
"......#acdddaaaaaaaaabba###.....",
"......#acaadddddaaaaabba#a#.....",
"......#acaaaaaaddabbbb###a#.....",
"......#accadddddaabaaa#aaa#.....",
"......#aacddaaabbbba###aaa#.....",
"......#aaddbbbbbaa###aaaaa#.....",
"......#addabccaa###aaaaaaa#.....",
"......#adabbcaa##aaaaaaaaa#.....",
"......#adcbcaaa#aaaaaaaaaa#.....",
"......#aacbaaa##aaaaaaaaaa#.....",
"......#accbaaa#aaaaaaaaaaa#.....",
"......#acabba##aaaaaaaaaaa#.....",
"......#acabaa#aaaaaaaaaaaa#.....",
"......#acaba##aaaaaaaaaaaa#.....",
"......#acaaa#aaaaaaaaaaaaa#.....",
"......#acaaa##aaaaaaaaaaaa#.....",
"......#acaaaa####aaaaaaaaa#.....",
"......#acaaaaaaa#aaaaaaaaa#.....",
"......#acaaaaaa##aaaaaaaaa#.....",
"......#acaaa###aaaaaaaaaaa#.....",
"......#aaaaa#aaaaaaaaaaaaa#.....",
"......#aaaaa#aaaaaaaaaaaaa#.....",
"......#aaaa#aaaaaaaaaaaaaa#.....",
"......#aaa##aaaaaaaaaaaaaa#.....",
"......#aaa#aaaaaaaaaaaaaaa#.....",
"......#aaa#aaaaaaaaaaaaaaa#.....",
"......#aaaaaaaaaaaaaaaaaaa#.....",
"......#####################....."};
