/* XPM */
static char *addfeature[]={
"32 32 7 1",
". c None",
"# c #000000",
"c c #303030",
"e c #c00000",
"d c #c3c3c3",
"a c #ff0000",
"b c #ffffff",
"...............#................",
"...............#................",
"...............#................",
"............aaabaaa.............",
"..........aabbbabbbaa...........",
"........aabbbbbabbbbbaa.........",
".......aabccbbbabbbbbbaa........",
"......aabbccdaabaabbbbbaa.......",
".....aabbbcceaabaaaabbbbaa......",
".....abbbbcceaabaaaaabbbba......",
"....abbbbaccebbabbaaaabbbba.....",
"....accccccccccccbbaaaabbba.....",
"...abccccccccccccdbbaaabbbba....",
"...abddeeeccdeedeebbbaaabbba....",
"...abbdeeecceeedeeabbaaabbba....",
"###baaabbbccdbbabbbaabbbaaab###.",
"...abbbaaacceaabaaabbaaabbba....",
"...abbbaaaccdaabaabbbaaabbba....",
"...abbbbaaeddbababbbaaabbbba....",
"....abbbaaaedbbabbbaaaabbba.....",
"....abbbbaaaabbabbaaaabbbba.....",
".....abbbbaaaaabaaaaabbbba......",
".....aabbbbaaaabaaaabbbbaa......",
"......aabbbbbaabaabbbbbaa.......",
".......aabbbbbbabbbbbbaa........",
"........aabbbbbabbbbbaa.........",
"..........aabbbabbbaa...........",
"............aaabaaa.............",
"...............#................",
"...............#................",
"...............#................",
"................................"};
