/* XPM */
static char * attr09[] = {
"32 32 303 2",
"  	c None",
". 	c #868686",
"+ 	c #7D7D7D",
"@ 	c #777777",
"# 	c #6F6F6F",
"$ 	c #6A6A6A",
"% 	c #676767",
"& 	c #656565",
"* 	c #626262",
"= 	c #606060",
"- 	c #585858",
"; 	c #515151",
"> 	c #4A4A4A",
", 	c #484848",
"' 	c #3D3D3D",
") 	c #2E2E2E",
"! 	c #020202",
"~ 	c #C9C9C9",
"{ 	c #C1C1C1",
"] 	c #BABABA",
"^ 	c #ACACAC",
"/ 	c #9D9D9D",
"( 	c #464646",
"_ 	c #000000",
": 	c #7A7A7A",
"< 	c #FFFFFF",
"[ 	c #FEFEFE",
"} 	c #F5F5F5",
"| 	c #E3E3E3",
"1 	c #D8D8D8",
"2 	c #898989",
"3 	c #707070",
"4 	c #4D4D4D",
"5 	c #6E6E6E",
"6 	c #545454",
"7 	c #6D6D6D",
"8 	c #5C5C5C",
"9 	c #E0E0E0",
"0 	c #6C6C6C",
"a 	c #616161",
"b 	c #C6C6C6",
"c 	c #202020",
"d 	c #080808",
"e 	c #0B0B0B",
"f 	c #4F4F4F",
"g 	c #D7D7D7",
"h 	c #F6F6F6",
"i 	c #818181",
"j 	c #242424",
"k 	c #030303",
"l 	c #121212",
"m 	c #232323",
"n 	c #434343",
"o 	c #4C4C4C",
"p 	c #444444",
"q 	c #3E3E3E",
"r 	c #3A3A3A",
"s 	c #333333",
"t 	c #0F0F0F",
"u 	c #5B5B5B",
"v 	c #FAFAFA",
"w 	c #404040",
"x 	c #A1A19D",
"y 	c #BCBAB3",
"z 	c #A4A197",
"A 	c #87837E",
"B 	c #797674",
"C 	c #5C5957",
"D 	c #070707",
"E 	c #A3A3A3",
"F 	c #D0D0D0",
"G 	c #101010",
"H 	c #141414",
"I 	c #FDFDFD",
"J 	c #959595",
"K 	c #474747",
"L 	c #E7E7E7",
"M 	c #2B2B2B",
"N 	c #1B1B1B",
"O 	c #D5D4D3",
"P 	c #C8C7C5",
"Q 	c #B8B3AB",
"R 	c #7C7875",
"S 	c #313131",
"T 	c #BBBBBB",
"U 	c #393939",
"V 	c #CECECE",
"W 	c #B6B6B6",
"X 	c #92918F",
"Y 	c #DEDCD9",
"Z 	c #D3CDC0",
"` 	c #968F85",
" .	c #4B4B4B",
"..	c #BCBCBC",
"+.	c #F8F8F8",
"@.	c #FCFCFB",
"#.	c #EFEDEA",
"$.	c #4F4E4C",
"%.	c #E4DFD9",
"&.	c #DBD7CE",
"*.	c #D2CCC1",
"=.	c #A7A194",
"-.	c #595959",
";.	c #E1E1E1",
">.	c #010101",
",.	c #F9F9F9",
"'.	c #FBF9F6",
").	c #F0ECE7",
"!.	c #222120",
"~.	c #EDE6DE",
"{.	c #E1DBD2",
"].	c #DFDACE",
"^.	c #B2A89B",
"/.	c #F4F4F4",
"(.	c #191919",
"_.	c #CFCDCD",
":.	c #FAF6F1",
"<.	c #080807",
"[.	c #EAE3D9",
"}.	c #E9E1D6",
"|.	c #E0D8C9",
"1.	c #B6AB97",
"2.	c #282828",
"3.	c #4E4D4D",
"4.	c #EBE8E2",
"5.	c #5D5D5D",
"6.	c #2D2C2A",
"7.	c #EEE6DB",
"8.	c #E8E0D1",
"9.	c #E7DDCC",
"0.	c #B5A894",
"a.	c #DBDBDB",
"b.	c #050505",
"c.	c #EDE4D6",
"d.	c #ECE1D1",
"e.	c #E6DBC9",
"f.	c #BCAE97",
"g.	c #5E5E5E",
"h.	c #F1F1F1",
"i.	c #1D1D1D",
"j.	c #504E4B",
"k.	c #1F1E1B",
"l.	c #EBDFCC",
"m.	c #E5DAC4",
"n.	c #BCAB93",
"o.	c #DCDCDC",
"p.	c #343434",
"q.	c #FBF9F8",
"r.	c #FAF8F3",
"s.	c #F9F6F0",
"t.	c #F8F3EB",
"u.	c #F7F1E8",
"v.	c #F5EEE4",
"w.	c #F4EDE1",
"x.	c #CAC2B6",
"y.	c #4A4640",
"z.	c #EADEC9",
"A.	c #E9DBC4",
"B.	c #BBAA90",
"C.	c #B5B5B5",
"D.	c #FBFAF8",
"E.	c #FAF7F3",
"F.	c #F6F1E7",
"G.	c #F4ECDF",
"H.	c #F3EADC",
"I.	c #3B3B3B",
"J.	c #8A8275",
"K.	c #E8D8BF",
"L.	c #BFAB90",
"M.	c #2C2C2C",
"N.	c #727272",
"O.	c #B7B6B4",
"P.	c #F9F5EE",
"Q.	c #686868",
"R.	c #F4EBDF",
"S.	c #0A0908",
"T.	c #DDCEB8",
"U.	c #EDDAC2",
"V.	c #E6D6BB",
"W.	c #BFA98C",
"X.	c #060606",
"Y.	c #A4A4A4",
"Z.	c #CCCCCC",
"`.	c #0D0D0D",
" +	c #F8F6F1",
".+	c #6E6B65",
"++	c #E9DFD1",
"@+	c #C9C0B2",
"#+	c #44413C",
"$+	c #80786B",
"%+	c #ECDBC1",
"&+	c #EAD9BF",
"*+	c #E5D4B6",
"=+	c #BEA989",
"-+	c #6B6B6B",
";+	c #F8F2E9",
">+	c #F6F0E7",
",+	c #C3BDB3",
"'+	c #262626",
")+	c #E9D6BA",
"!+	c #E8D5B5",
"~+	c #E6D2B2",
"{+	c #BDA784",
"]+	c #1A1A1A",
"^+	c #4C4C4B",
"/+	c #D2CFCB",
"(+	c #F9F4EE",
"_+	c #F5EDE2",
":+	c #D8D1C5",
"<+	c #4A4743",
"[+	c #191816",
"}+	c #3B3832",
"|+	c #A09584",
"1+	c #EBDBC0",
"2+	c #EAD9BD",
"3+	c #E8D4B5",
"4+	c #E7D2B2",
"5+	c #BCA481",
"6+	c #FCFAF9",
"7+	c #F8F1E9",
"8+	c #F5F0E6",
"9+	c #F3EADE",
"0+	c #F2E8D9",
"a+	c #F0E3D1",
"b+	c #EFE1CC",
"c+	c #EEE0C9",
"d+	c #EDDCC4",
"e+	c #E6CFAD",
"f+	c #E6CEAA",
"g+	c #BEA481",
"h+	c #2E261E",
"i+	c #FBF8F6",
"j+	c #F8F4ED",
"k+	c #F5EFE6",
"l+	c #646464",
"m+	c #ECDABF",
"n+	c #E9D7B8",
"o+	c #E5CDA8",
"p+	c #E2CAA6",
"q+	c #BFA37C",
"r+	c #2E2A1E",
"s+	c #F9F5F0",
"t+	c #F3EBDC",
"u+	c #F1E6D4",
"v+	c #F0E5D1",
"w+	c #636363",
"x+	c #EEDEC7",
"y+	c #E9D5B8",
"z+	c #E7D0B0",
"A+	c #E6CFAB",
"B+	c #E4C9A3",
"C+	c #E2C69E",
"D+	c #BEA279",
"E+	c #2E261A",
"F+	c #555555",
"G+	c #F0E2CF",
"H+	c #EAD8BB",
"I+	c #E8D3B3",
"J+	c #BE9E75",
"K+	c #F2E8D7",
"L+	c #EDDBC2",
"M+	c #E5CEAA",
"N+	c #E4CCA7",
"O+	c #E3C8A2",
"P+	c #BC9F71",
"Q+	c #F2EEE6",
"R+	c #F2EADE",
"S+	c #EEEADE",
"T+	c #EEE6DA",
"U+	c #F2E2CE",
"V+	c #EEE2CE",
"W+	c #EAE2D2",
"X+	c #EEDECA",
"Y+	c #EADAC2",
"Z+	c #EADABE",
"`+	c #EAD6BA",
" @	c #E6CEAE",
".@	c #E2CAA2",
"+@	c #BC9C6D",
"@@	c #3F3F3F",
"#@	c #C6C2B6",
"$@	c #C8C1B7",
"%@	c #C7BFB4",
"&@	c #C6BBAB",
"*@	c #C6B9A9",
"=@	c #C6B8A3",
"-@	c #C5B7A0",
";@	c #C4B49D",
">@	c #C4B299",
",@	c #C3B296",
"'@	c #C3AE92",
")@	c #C4AD8F",
"!@	c #C2AB8B",
"~@	c #C1AA86",
"{@	c #C0A583",
"]@	c #161612",
"^@	c #322A22",
"/@	c #322E2A",
"(@	c #2E2A26",
"_@	c #2E2A22",
":@	c #322A1E",
"<@	c #2A2622",
"[@	c #0A0A06",
"                . + @ # $ % & * = - ; > , ' ) !                 ",
"                @ ~ ~ ~ ~ ~ ~ ~ ~ ~ { ] ^ / / ( _               ",
"                : ~ < < < < < < < < [ < } | 1 ( 2 _             ",
"                3 ~ < < < < < < < < [ < < } | 4 ~ 2 _           ",
"                5 ~ < < < # < < < < [ < < < } 4 < ~ 2 _         ",
"                5 ~ < < # < # < < < [ < < < < 6 < < ~ 2 _       ",
"                7 ~ < < # < # < < < [ < < < < 8 9 < < ~ 2 _     ",
"                0 ~ < < < # < < < < [ < < < < a b 9 < < ~ 2 _   ",
"                c d e f g < < < < < h i j k l m n o , p q r s _ ",
"              _ _ _ _ _ t u < < < v w _ _ _ _ _ d x y z A B C _ ",
"            _ _ D E F G _ H I < < J _ _ K L g M _ N O P Q z R _ ",
"            _ _ S ~ < : _ _ T < < U _ _ V < < W _ _ X Y Z Q ` _ ",
"          _ _ _  .~ < .._ _ ) < < e _ _ +.< @.#._ _ $.%.&.*.=._ ",
"          _ _ _ -.~ < ;._ _ s < < >._ _ ,.@.'.)._ _ !.~.{.].^._ ",
"          _ _ _ = ~ < /._ _ l < < (._ _ _.'.:.f _ _ <.[.}.|.1._ ",
"          _ _ _ a ~ < I _ _ _ < < 2._ _ 3.4.5.6._ _ _ 7.8.9.0._ ",
"          _ _ _ a ~ < v _ _ >.< < a.b._ _ _ _ !._ _ <.c.d.e.f._ ",
"          _ _ _ g.~ < h._ _ l < [ 7 - i.d D j.-._ _ k.d.l.m.n._ ",
"          _ _ _ 6 ~ < o._ _ p.[ q.r.s.t.u.v.w.x._ _ y.z.z.A.B._ ",
"          _ _ _ ( ~ < C._ _ % D.E.s.$ F.v.G.H.I._ _ J.A.A.K.L._ ",
"            _ _ M.~ < N._ _ O.E.P.$ F.Q.R.H.* t _ S.T.U.V.V.W._ ",
"            _ _ X.Y.Z.`._ H  +P.t.- .+; ++@+#+_ _ $+%+&+*+*+=+_ ",
"              _ _ _ _ _ b.- -+;+>+,+_ _ _ _ _ _ '+&+&+)+!+~+{+_ ",
"                ]+D e ^+/+(+;+>+_+:+<+[+_ S.}+|+1+2+)+3+4+~+5+_ ",
"                -.~ 6+:.(+7+8+w.9+0+& a+b+c+d+%+2+)+3+8 e+f+g+h+",
"                -.~ i+j+u.k+w.9+0+& l+b+c+d+m+2+n+3+8 8 o+p+q+r+",
"                - ~ s+u.k+w.t+0+u+v+w+x+d+m+2+y+3+z+A+u B+C+D+E+",
"                F+~ t.v.w.t+0+u+G+w+* a m+H+y+I+z+A+u -.-.C+J+E+",
"                6 ~ u.w.H.K+u+G+b+x+L+m+H+y+I+z+M+N+O+O+O+C+P+E+",
"                > ~ Q+R+S+T+U+V+W+X+Y+Z+`+~+~+ @f+p+.@C+C+C++@h+",
"                @@#@$@%@&@*@=@-@;@>@,@'@)@!@~@{@g+q+D+J+P++@+@E+",
"                ]@^@/@^@/@(@^@/@(@_@_@(@h+^@h+:@E+<@r+r+E+r+E+[@"};
