/* XPM */
static char * attr02[] = {
"32 32 295 2",
"  	c None",
". 	c #868686",
"+ 	c #7D7D7D",
"@ 	c #777777",
"# 	c #6F6F6F",
"$ 	c #6A6A6A",
"% 	c #676767",
"& 	c #656565",
"* 	c #626262",
"= 	c #606060",
"- 	c #585858",
"; 	c #515151",
"> 	c #4A4A4A",
", 	c #484848",
"' 	c #3D3D3D",
") 	c #2E2E2E",
"! 	c #020202",
"~ 	c #C9C9C9",
"{ 	c #C1C1C1",
"] 	c #BABABA",
"^ 	c #ACACAC",
"/ 	c #9D9D9D",
"( 	c #464646",
"_ 	c #000000",
": 	c #7A7A7A",
"< 	c #FFFFFF",
"[ 	c #FEFEFE",
"} 	c #F5F5F5",
"| 	c #E3E3E3",
"1 	c #D8D8D8",
"2 	c #898989",
"3 	c #707070",
"4 	c #4D4D4D",
"5 	c #6E6E6E",
"6 	c #545454",
"7 	c #6D6D6D",
"8 	c #5C5C5C",
"9 	c #E0E0E0",
"0 	c #6C6C6C",
"a 	c #616161",
"b 	c #C6C6C6",
"c 	c #202020",
"d 	c #080808",
"e 	c #0B0B0B",
"f 	c #4F4F4F",
"g 	c #D7D7D7",
"h 	c #F9F9F9",
"i 	c #A9A9A9",
"j 	c #595959",
"k 	c #222222",
"l 	c #050505",
"m 	c #272727",
"n 	c #303030",
"o 	c #4C4C4C",
"p 	c #444444",
"q 	c #3E3E3E",
"r 	c #3A3A3A",
"s 	c #333333",
"t 	c #0F0F0F",
"u 	c #5B5B5B",
"v 	c #CBCBCB",
"w 	c #1A1A1A",
"x 	c #BCBCB8",
"y 	c #BCBAB3",
"z 	c #A4A197",
"A 	c #87837E",
"B 	c #797674",
"C 	c #5C5957",
"D 	c #070707",
"E 	c #A3A3A3",
"F 	c #D0D0D0",
"G 	c #101010",
"H 	c #141414",
"I 	c #FDFDFD",
"J 	c #797979",
"K 	c #C4C4C4",
"L 	c #E6E6E6",
"M 	c #565656",
"N 	c #DCDBD9",
"O 	c #C8C7C5",
"P 	c #B8B3AB",
"Q 	c #7C7875",
"R 	c #313131",
"S 	c #BBBBBB",
"T 	c #D6D6D6",
"U 	c #131313",
"V 	c #E7E5E2",
"W 	c #DEDCD9",
"X 	c #D3CDC0",
"Y 	c #968F85",
"Z 	c #4B4B4B",
"` 	c #BCBCBC",
" .	c #F8F8F7",
"..	c #010101",
"+.	c #EFEBE4",
"@.	c #E4DFD9",
"#.	c #DBD7CE",
"$.	c #D2CCC1",
"%.	c #A7A194",
"&.	c #E1E1E1",
"*.	c #FCFCFB",
"=.	c #DBD9D7",
"-.	c #1F1E1E",
";.	c #F3EDE4",
">.	c #EDE6DE",
",.	c #E1DBD2",
"'.	c #DFDACE",
").	c #B2A89B",
"!.	c #F4F4F4",
"~.	c #121212",
"{.	c #FCFAF9",
"].	c #FBF9F6",
"^.	c #72706E",
"/.	c #74726D",
"(.	c #F0EBE1",
"_.	c #EAE3D9",
":.	c #E9E1D6",
"<.	c #E0D8C9",
"[.	c #B6AB97",
"}.	c #FBF8F6",
"|.	c #ABA9A5",
"1.	c #E4DDD2",
"2.	c #F0E8DD",
"3.	c #EEE6DB",
"4.	c #E8E0D1",
"5.	c #E7DDCC",
"6.	c #B5A894",
"7.	c #FAFAFA",
"8.	c #FAF8F5",
"9.	c #B1AEAB",
"0.	c #1D1D1B",
"a.	c #5A5A5A",
"b.	c #F3EBDC",
"c.	c #EDE4D6",
"d.	c #ECE1D1",
"e.	c #E6DBC9",
"f.	c #BCAE97",
"g.	c #5E5E5E",
"h.	c #F1F1F1",
"i.	c #2C2A29",
"j.	c #5D5D5D",
"k.	c #F2E8D9",
"l.	c #EBDFCC",
"m.	c #E5DAC4",
"n.	c #BCAB93",
"o.	c #DCDCDC",
"p.	c #343434",
"q.	c #FBF9F8",
"r.	c #FAF8F3",
"s.	c #AFADA9",
"t.	c #3A3836",
"u.	c #E5DFD3",
"v.	c #F3EADC",
"w.	c #F2E8D7",
"x.	c #F1E6D4",
"y.	c #F0E2CF",
"z.	c #EADEC9",
"A.	c #E9DBC4",
"B.	c #BBAA90",
"C.	c #B5B5B5",
"D.	c #FBFAF8",
"E.	c #FAF7F3",
"F.	c #BDBBB6",
"G.	c #262523",
"H.	c #E6DFD2",
"I.	c #666666",
"J.	c #F0E3CF",
"K.	c #EFE1CA",
"L.	c #E8D8BF",
"M.	c #BFAB90",
"N.	c #2C2C2C",
"O.	c #727272",
"P.	c #B7B6B4",
"Q.	c #E3DFD9",
"R.	c #090909",
"S.	c #AFA8A0",
"T.	c #646464",
"U.	c #EEDEC7",
"V.	c #EDDAC2",
"W.	c #E6D6BB",
"X.	c #BFA98C",
"Y.	c #060606",
"Z.	c #A4A4A4",
"`.	c #CCCCCC",
" +	c #0D0D0D",
".+	c #F8F6F1",
"++	c #F9F5EE",
"@+	c #6B6966",
"#+	c #69655E",
"$+	c #6D6860",
"%+	c #6C665E",
"&+	c #2D2D2D",
"*+	c #6B655A",
"=+	c #6A6459",
"-+	c #ECDBC1",
";+	c #EAD9BF",
">+	c #E5D4B6",
",+	c #BEA989",
"'+	c #6B6B6B",
")+	c #F8F2E9",
"!+	c #5B5956",
"~+	c #E9D6BA",
"{+	c #E8D5B5",
"]+	c #E6D2B2",
"^+	c #BDA784",
"/+	c #4C4C4B",
"(+	c #D2CFCB",
"_+	c #F9F4EE",
":+	c #F6F0E7",
"<+	c #5B5854",
"[+	c #E8D4B5",
"}+	c #E7D2B2",
"|+	c #BCA481",
"1+	c #FAF6F1",
"2+	c #F8F1E9",
"3+	c #F5F0E6",
"4+	c #F4EDE1",
"5+	c #F3EADE",
"6+	c #F0E3D1",
"7+	c #EFE1CC",
"8+	c #EEE0C9",
"9+	c #EDDCC4",
"0+	c #EAD9BD",
"a+	c #E6CFAD",
"b+	c #E6CEAA",
"c+	c #BEA481",
"d+	c #2E261E",
"e+	c #F8F4ED",
"f+	c #F7F1E8",
"g+	c #F5EFE6",
"h+	c #ECDABF",
"i+	c #E9D7B8",
"j+	c #E5CDA8",
"k+	c #E2CAA6",
"l+	c #BFA37C",
"m+	c #2E2A1E",
"n+	c #F9F5F0",
"o+	c #F0E5D1",
"p+	c #636363",
"q+	c #E9D5B8",
"r+	c #E7D0B0",
"s+	c #E6CFAB",
"t+	c #E4C9A3",
"u+	c #E2C69E",
"v+	c #BEA279",
"w+	c #2E261A",
"x+	c #555555",
"y+	c #F8F3EB",
"z+	c #F5EEE4",
"A+	c #EAD8BB",
"B+	c #E8D3B3",
"C+	c #BE9E75",
"D+	c #EDDBC2",
"E+	c #E5CEAA",
"F+	c #E4CCA7",
"G+	c #E3C8A2",
"H+	c #BC9F71",
"I+	c #F2EEE6",
"J+	c #F2EADE",
"K+	c #EEEADE",
"L+	c #EEE6DA",
"M+	c #F2E2CE",
"N+	c #EEE2CE",
"O+	c #EAE2D2",
"P+	c #EEDECA",
"Q+	c #EADAC2",
"R+	c #EADABE",
"S+	c #EAD6BA",
"T+	c #E6CEAE",
"U+	c #E2CAA2",
"V+	c #BC9C6D",
"W+	c #3F3F3F",
"X+	c #C6C2B6",
"Y+	c #C8C1B7",
"Z+	c #C7BFB4",
"`+	c #C6BBAB",
" @	c #C6B9A9",
".@	c #C6B8A3",
"+@	c #C5B7A0",
"@@	c #C4B49D",
"#@	c #C4B299",
"$@	c #C3B296",
"%@	c #C3AE92",
"&@	c #C4AD8F",
"*@	c #C2AB8B",
"=@	c #C1AA86",
"-@	c #C0A583",
";@	c #161612",
">@	c #322A22",
",@	c #322E2A",
"'@	c #2E2A26",
")@	c #2E2A22",
"!@	c #322A1E",
"~@	c #2A2622",
"{@	c #0A0A06",
"                . + @ # $ % & * = - ; > , ' ) !                 ",
"                @ ~ ~ ~ ~ ~ ~ ~ ~ ~ { ] ^ / / ( _               ",
"                : ~ < < < < < < < < [ < } | 1 ( 2 _             ",
"                3 ~ < < < < < < < < [ < < } | 4 ~ 2 _           ",
"                5 ~ < < < # < < < < [ < < < } 4 < ~ 2 _         ",
"                5 ~ < < # < # < < < [ < < < < 6 < < ~ 2 _       ",
"                7 ~ < < # < # < < < [ < < < < 8 9 < < ~ 2 _     ",
"                0 ~ < < < # < < < < [ < < < < a b 9 < < ~ 2 _   ",
"                c d e f g < < < h i j k l l m n > o , p q r s _ ",
"              _ _ _ _ _ t u < < v _ _ _ _ _ _ _ w x y z A B C _ ",
"            _ _ D E F G _ H I < v w J K L v r _ _ M N O P z Q _ ",
"            _ _ R ~ < : _ _ S < } h < < < < T _ _ U V W X P Y _ ",
"          _ _ _ Z ~ < ` _ _ ) < < < < < < <  ._ _ ..+.@.#.$.%._ ",
"          _ _ _ j ~ < &._ _ s < < < < < < *.=._ _ -.;.>.,.'.)._ ",
"          _ _ _ = ~ < !._ _ ~.< < < # < {.].^._ _ /.(._.:.<.[._ ",
"          _ _ _ a ~ < I _ _ _ < < # # {.}.|._ _ G 1.2.3.4.5.6._ ",
"          _ _ _ a ~ < 7._ _ ..< < < 7 8.9.l _ 0.a.b.c.c.d.e.f._ ",
"          _ _ _ g.~ < h._ _ ~.< [ 7 0 o l _ i.j.b.k.d.d.l.m.n._ ",
"          _ _ _ 6 ~ < o._ _ p.[ q.r.s.l _ t.u.v.w.x.y.z.z.A.B._ ",
"          _ _ _ ( ~ < C._ _ % D.E.F.! _ G.H.v.I.x.J.K.A.A.L.M._ ",
"            _ _ N.~ < O._ _ P.E.Q.R._ _ S.v.I.T.J.K.U.V.W.W.X._ ",
"            _ _ Y.Z.`. +_ H .+++@+_ _ _ #+$+%+&+*+=+-+;+>+>+,+_ ",
"              _ _ _ _ _ l - '+)+!+_ _ _ _ _ _ _ _ _ ;+~+{+]+^+_ ",
"                w D e /+(+_+)+:+<+_ _ _ _ _ _ _ _ _ ~+[+}+]+|+_ ",
"                j ~ {.1+_+2+3+4+5+k.& 6+7+8+9+-+0+~+[+8 a+b+c+d+",
"                j ~ }.e+f+g+4+5+k.& T.7+8+9+h+0+i+[+8 8 j+k+l+m+",
"                - ~ n+f+g+4+b.k.x.o+p+U.9+h+0+q+[+r+s+u t+u+v+w+",
"                x+~ y+z+4+b.k.x.y.p+* a h+A+q+B+r+s+u j j u+C+w+",
"                6 ~ f+4+v.w.x.y.7+U.D+h+A+q+B+r+E+F+G+G+G+u+H+w+",
"                > ~ I+J+K+L+M+N+O+P+Q+R+S+]+]+T+b+k+U+u+u+u+V+d+",
"                W+X+Y+Z+`+ @.@+@@@#@$@%@&@*@=@-@c+l+v+C+H+V+V+w+",
"                ;@>@,@>@,@'@>@,@'@)@)@'@d+>@d+!@w+~@m+m+w+m+w+{@"};
