/* XPM */
static char * attr07[] = {
"32 32 285 2",
"  	c None",
". 	c #868686",
"+ 	c #7D7D7D",
"@ 	c #777777",
"# 	c #6F6F6F",
"$ 	c #6A6A6A",
"% 	c #676767",
"& 	c #656565",
"* 	c #626262",
"= 	c #606060",
"- 	c #585858",
"; 	c #515151",
"> 	c #4A4A4A",
", 	c #484848",
"' 	c #3D3D3D",
") 	c #2E2E2E",
"! 	c #020202",
"~ 	c #C9C9C9",
"{ 	c #C1C1C1",
"] 	c #BABABA",
"^ 	c #ACACAC",
"/ 	c #9D9D9D",
"( 	c #464646",
"_ 	c #000000",
": 	c #7A7A7A",
"< 	c #FFFFFF",
"[ 	c #FEFEFE",
"} 	c #F5F5F5",
"| 	c #E3E3E3",
"1 	c #D8D8D8",
"2 	c #898989",
"3 	c #707070",
"4 	c #4D4D4D",
"5 	c #6E6E6E",
"6 	c #545454",
"7 	c #6D6D6D",
"8 	c #5C5C5C",
"9 	c #E0E0E0",
"0 	c #6C6C6C",
"a 	c #616161",
"b 	c #C6C6C6",
"c 	c #202020",
"d 	c #080808",
"e 	c #0B0B0B",
"f 	c #4F4F4F",
"g 	c #D7D7D7",
"h 	c #333333",
"i 	c #303030",
"j 	c #3E3E3E",
"k 	c #3A3A3A",
"l 	c #0F0F0F",
"m 	c #5B5B5B",
"n 	c #75736C",
"o 	c #87837E",
"p 	c #797674",
"q 	c #5C5957",
"r 	c #070707",
"s 	c #A3A3A3",
"t 	c #D0D0D0",
"u 	c #101010",
"v 	c #141414",
"w 	c #FDFDFD",
"x 	c #7F7F7F",
"y 	c #5F5F5F",
"z 	c #989896",
"A 	c #B8B3AB",
"B 	c #A4A197",
"C 	c #7C7875",
"D 	c #313131",
"E 	c #BBBBBB",
"F 	c #F4F4F4",
"G 	c #292929",
"H 	c #494847",
"I 	c #DDDBD8",
"J 	c #D3CDC0",
"K 	c #968F85",
"L 	c #4B4B4B",
"M 	c #BCBCBC",
"N 	c #FCFCFB",
"O 	c #858483",
"P 	c #111110",
"Q 	c #D9D5CF",
"R 	c #E4DFD9",
"S 	c #DBD7CE",
"T 	c #D2CCC1",
"U 	c #A7A194",
"V 	c #595959",
"W 	c #E1E1E1",
"X 	c #DCDAD8",
"Y 	c #090909",
"Z 	c #989591",
"` 	c #F3EDE4",
" .	c #EDE6DE",
"..	c #E1DBD2",
"+.	c #DFDACE",
"@.	c #B2A89B",
"#.	c #121212",
"$.	c #FCFAF9",
"%.	c #FBF9F6",
"&.	c #4C4B49",
"*.	c #373534",
"=.	c #EEE9DF",
"-.	c #F0EBE1",
";.	c #EAE3D9",
">.	c #E9E1D6",
",.	c #E0D8C9",
"'.	c #B6AB97",
").	c #FBF8F6",
"!.	c #ADABA7",
"~.	c #F0E8DD",
"{.	c #EEE6DB",
"].	c #E8E0D1",
"^.	c #E7DDCC",
"/.	c #B5A894",
"(.	c #FAFAFA",
"_.	c #010101",
":.	c #FAF8F5",
"<.	c #F0ECE7",
"[.	c #1F1E1D",
"}.	c #4A4946",
"|.	c #686868",
"1.	c #F3EBDC",
"2.	c #EDE4D6",
"3.	c #ECE1D1",
"4.	c #E6DBC9",
"5.	c #BCAE97",
"6.	c #5E5E5E",
"7.	c #F1F1F1",
"8.	c #7D7A76",
"9.	c #F2E8D9",
"0.	c #EBDFCC",
"a.	c #E5DAC4",
"b.	c #BCAB93",
"c.	c #DCDCDC",
"d.	c #343434",
"e.	c #FBF9F8",
"f.	c #FAF8F3",
"g.	c #F9F6F0",
"h.	c #DDD9D2",
"i.	c #363432",
"j.	c #F3EADC",
"k.	c #F2E8D7",
"l.	c #F1E6D4",
"m.	c #F0E2CF",
"n.	c #EADEC9",
"o.	c #E9DBC4",
"p.	c #BBAA90",
"q.	c #B5B5B5",
"r.	c #FBFAF8",
"s.	c #FAF7F3",
"t.	c #63615D",
"u.	c #948F86",
"v.	c #666666",
"w.	c #F0E3CF",
"x.	c #EFE1CA",
"y.	c #E8D8BF",
"z.	c #BFAB90",
"A.	c #2C2C2C",
"B.	c #727272",
"C.	c #B7B6B4",
"D.	c #F9F5EE",
"E.	c #DCD8CF",
"F.	c #646464",
"G.	c #EEDEC7",
"H.	c #EDDAC2",
"I.	c #E6D6BB",
"J.	c #BFA98C",
"K.	c #060606",
"L.	c #A4A4A4",
"M.	c #CCCCCC",
"N.	c #0D0D0D",
"O.	c #F8F6F1",
"P.	c #F8F3EB",
"Q.	c #696969",
"R.	c #7B7872",
"S.	c #32302C",
"T.	c #F1E4D2",
"U.	c #EEE0C9",
"V.	c #EDDEC6",
"W.	c #ECDBC1",
"X.	c #EAD9BF",
"Y.	c #E5D4B6",
"Z.	c #BEA989",
"`.	c #050505",
" +	c #6B6B6B",
".+	c #F8F2E9",
"++	c #F6F0E7",
"@+	c #F5EEE2",
"#+	c #131313",
"$+	c #635F56",
"%+	c #636363",
"&+	c #E9D6BA",
"*+	c #E8D5B5",
"=+	c #E6D2B2",
"-+	c #BDA784",
";+	c #1A1A1A",
">+	c #4C4C4B",
",+	c #D2CFCB",
"'+	c #F9F4EE",
")+	c #F5EDE2",
"!+	c #E9E1D5",
"~+	c #837C71",
"{+	c #EDDCC4",
"]+	c #ECDCC1",
"^+	c #EAD9BD",
"/+	c #E8D4B5",
"(+	c #E7D2B2",
"_+	c #BCA481",
":+	c #FAF6F1",
"<+	c #F8F1E9",
"[+	c #F5F0E6",
"}+	c #F4EDE1",
"|+	c #F3EADE",
"1+	c #F0E3D1",
"2+	c #EFE1CC",
"3+	c #E6CFAD",
"4+	c #E6CEAA",
"5+	c #BEA481",
"6+	c #2E261E",
"7+	c #F8F4ED",
"8+	c #F7F1E8",
"9+	c #F5EFE6",
"0+	c #ECDABF",
"a+	c #E9D7B8",
"b+	c #E5CDA8",
"c+	c #E2CAA6",
"d+	c #BFA37C",
"e+	c #2E2A1E",
"f+	c #F9F5F0",
"g+	c #F0E5D1",
"h+	c #E9D5B8",
"i+	c #E7D0B0",
"j+	c #E6CFAB",
"k+	c #E4C9A3",
"l+	c #E2C69E",
"m+	c #BEA279",
"n+	c #2E261A",
"o+	c #555555",
"p+	c #F5EEE4",
"q+	c #EAD8BB",
"r+	c #E8D3B3",
"s+	c #BE9E75",
"t+	c #EDDBC2",
"u+	c #E5CEAA",
"v+	c #E4CCA7",
"w+	c #E3C8A2",
"x+	c #BC9F71",
"y+	c #F2EEE6",
"z+	c #F2EADE",
"A+	c #EEEADE",
"B+	c #EEE6DA",
"C+	c #F2E2CE",
"D+	c #EEE2CE",
"E+	c #EAE2D2",
"F+	c #EEDECA",
"G+	c #EADAC2",
"H+	c #EADABE",
"I+	c #EAD6BA",
"J+	c #E6CEAE",
"K+	c #E2CAA2",
"L+	c #BC9C6D",
"M+	c #3F3F3F",
"N+	c #C6C2B6",
"O+	c #C8C1B7",
"P+	c #C7BFB4",
"Q+	c #C6BBAB",
"R+	c #C6B9A9",
"S+	c #C6B8A3",
"T+	c #C5B7A0",
"U+	c #C4B49D",
"V+	c #C4B299",
"W+	c #C3B296",
"X+	c #C3AE92",
"Y+	c #C4AD8F",
"Z+	c #C2AB8B",
"`+	c #C1AA86",
" @	c #C0A583",
".@	c #161612",
"+@	c #322A22",
"@@	c #322E2A",
"#@	c #2E2A26",
"$@	c #2E2A22",
"%@	c #322A1E",
"&@	c #2A2622",
"*@	c #0A0A06",
"                . + @ # $ % & * = - ; > , ' ) !                 ",
"                @ ~ ~ ~ ~ ~ ~ ~ ~ ~ { ] ^ / / ( _               ",
"                : ~ < < < < < < < < [ < } | 1 ( 2 _             ",
"                3 ~ < < < < < < < < [ < < } | 4 ~ 2 _           ",
"                5 ~ < < < # < < < < [ < < < } 4 < ~ 2 _         ",
"                5 ~ < < # < # < < < [ < < < < 6 < < ~ 2 _       ",
"                7 ~ < < # < # < < < [ < < < < 8 9 < < ~ 2 _     ",
"                0 ~ < < < # < < < < [ < < < < a b 9 < < ~ 2 _   ",
"                c d e f g < < < < h _ _ _ _ _ _ _ _ _ i j k h _ ",
"              _ _ _ _ _ l m < < < h _ _ _ _ _ _ _ _ _ n o p q _ ",
"            _ _ r s t u _ v w < < x y y y y y y h _ _ z A B C _ ",
"            _ _ D ~ < : _ _ E < < < < < < < < F G _ H I J A K _ ",
"          _ _ _ L ~ < M _ _ ) < < < < < < < N O _ P Q R S T U _ ",
"          _ _ _ V ~ < W _ _ h < < < < < < N X Y _ Z `  ...+.@._ ",
"          _ _ _ = ~ < F _ _ #.< < < # < $.%.&._ *.=.-.;.>.,.'._ ",
"          _ _ _ a ~ < w _ _ _ < < # # $.).!._ _ ; ~.~.{.].^./._ ",
"          _ _ _ a ~ < (._ _ _.< < < 7 :.<.[._ }.|.1.2.2.3.4.5._ ",
"          _ _ _ 6.~ < 7._ _ #.< [ 7 0 0 8._ _ ; 1.9.3.3.0.a.b._ ",
"          _ _ _ 6 ~ < c._ _ d.[ e.f.g.h.d _ i.j.k.l.m.n.n.o.p._ ",
"          _ _ _ ( ~ < q._ _ % r.s.g.$ t._ _ u.v.l.w.x.o.o.y.z._ ",
"            _ _ A.~ < B._ _ C.s.D.$ E.! _ _.6.F.w.x.G.H.I.I.J._ ",
"            _ _ K.L.M.N._ v O.D.P.Q.R._ _ S.T.F.U.V.W.X.Y.Y.Z._ ",
"              _ _ _ _ _ `.-  +.+++@+#+_ _ $+%+* * W.X.&+*+=+-+_ ",
"                ;+r e >+,+'+.+++)+!+_ _ _ ~+U.{+]+^+&+/+(+=+_+_ ",
"                V ~ $.:+'+<+[+}+|+9.& 1+2+U.{+W.^+&+/+8 3+4+5+6+",
"                V ~ ).7+8+9+}+|+9.& F.2+U.{+0+^+a+/+8 8 b+c+d+e+",
"                - ~ f+8+9+}+1.9.l.g+%+G.{+0+^+h+/+i+j+m k+l+m+n+",
"                o+~ P.p+}+1.9.l.m.%+* a 0+q+h+r+i+j+m V V l+s+n+",
"                6 ~ 8+}+j.k.l.m.2+G.t+0+q+h+r+i+u+v+w+w+w+l+x+n+",
"                > ~ y+z+A+B+C+D+E+F+G+H+I+=+=+J+4+c+K+l+l+l+L+6+",
"                M+N+O+P+Q+R+S+T+U+V+W+X+Y+Z+`+ @5+d+m+s+x+L+L+n+",
"                .@+@@@+@@@#@+@@@#@$@$@#@6++@6+%@n+&@e+e+n+e+n+*@"};
