/* XPM */
static char * attr04[] = {
"32 32 275 2",
"  	c None",
". 	c #868686",
"+ 	c #7D7D7D",
"@ 	c #777777",
"# 	c #6F6F6F",
"$ 	c #6A6A6A",
"% 	c #676767",
"& 	c #656565",
"* 	c #626262",
"= 	c #606060",
"- 	c #585858",
"; 	c #515151",
"> 	c #4A4A4A",
", 	c #484848",
"' 	c #3D3D3D",
") 	c #2E2E2E",
"! 	c #020202",
"~ 	c #C9C9C9",
"{ 	c #C1C1C1",
"] 	c #BABABA",
"^ 	c #ACACAC",
"/ 	c #9D9D9D",
"( 	c #464646",
"_ 	c #000000",
": 	c #7A7A7A",
"< 	c #FFFFFF",
"[ 	c #FEFEFE",
"} 	c #F5F5F5",
"| 	c #E3E3E3",
"1 	c #D8D8D8",
"2 	c #898989",
"3 	c #707070",
"4 	c #4D4D4D",
"5 	c #6E6E6E",
"6 	c #545454",
"7 	c #6D6D6D",
"8 	c #5C5C5C",
"9 	c #E0E0E0",
"0 	c #6C6C6C",
"a 	c #616161",
"b 	c #C6C6C6",
"c 	c #202020",
"d 	c #080808",
"e 	c #0B0B0B",
"f 	c #4F4F4F",
"g 	c #D7D7D7",
"h 	c #888888",
"i 	c #444444",
"j 	c #3E3E3E",
"k 	c #3A3A3A",
"l 	c #333333",
"m 	c #0F0F0F",
"n 	c #5B5B5B",
"o 	c #D2D2D2",
"p 	c #060606",
"q 	c #BCBAB3",
"r 	c #A4A197",
"s 	c #87837E",
"t 	c #797674",
"u 	c #5C5957",
"v 	c #070707",
"w 	c #A3A3A3",
"x 	c #D0D0D0",
"y 	c #101010",
"z 	c #141414",
"A 	c #FDFDFD",
"B 	c #FAFAFA",
"C 	c #313131",
"D 	c #DCDBD9",
"E 	c #C8C7C5",
"F 	c #B8B3AB",
"G 	c #7C7875",
"H 	c #BBBBBB",
"I 	c #7F7F7F",
"J 	c #2B2B2B",
"K 	c #E7E5E2",
"L 	c #DEDCD9",
"M 	c #D3CDC0",
"N 	c #968F85",
"O 	c #4B4B4B",
"P 	c #BCBCBC",
"Q 	c #CCCCCC",
"R 	c #030303",
"S 	c #C5C5C4",
"T 	c #EFEBE4",
"U 	c #E4DFD9",
"V 	c #DBD7CE",
"W 	c #D2CCC1",
"X 	c #A7A194",
"Y 	c #595959",
"Z 	c #E1E1E1",
"` 	c #F7F7F7",
" .	c #FBF9F6",
"..	c #F3EDE4",
"+.	c #EDE6DE",
"@.	c #E1DBD2",
"#.	c #DFDACE",
"$.	c #B2A89B",
"%.	c #F4F4F4",
"&.	c #121212",
"*.	c #F0EEEB",
"=.	c #FAF6F1",
"-.	c #F0EBE1",
";.	c #EAE3D9",
">.	c #E9E1D6",
",.	c #E0D8C9",
"'.	c #B6AB97",
").	c #555555",
"!.	c #B9B6B5",
"~.	c #F9F6F0",
"{.	c #6B6B6B",
"].	c #F0E8DD",
"^.	c #EEE6DB",
"/.	c #E8E0D1",
"(.	c #E7DDCC",
"_.	c #B5A894",
":.	c #010101",
"<.	c #252525",
"[.	c #61605F",
"}.	c #F9F5F0",
"|.	c #F8F4ED",
"1.	c #696969",
"2.	c #EDE4D6",
"3.	c #ECE1D1",
"4.	c #E6DBC9",
"5.	c #BCAE97",
"6.	c #5E5E5E",
"7.	c #F1F1F1",
"8.	c #0A0A0A",
"9.	c #646464",
"0.	c #F8F3EB",
"a.	c #F7F2E8",
"b.	c #F5EEE4",
"c.	c #EBDFCC",
"d.	c #E5DAC4",
"e.	c #BCAB93",
"f.	c #DCDCDC",
"g.	c #343434",
"h.	c #161616",
"i.	c #7F796D",
"j.	c #EADEC9",
"k.	c #E9DBC4",
"l.	c #BBAA90",
"m.	c #B5B5B5",
"n.	c #FBFAF8",
"o.	c #191918",
"p.	c #7F786B",
"q.	c #E8D8BF",
"r.	c #BFAB90",
"s.	c #2C2C2C",
"t.	c #727272",
"u.	c #B7B6B4",
"v.	c #FAF7F3",
"w.	c #F9F5EE",
"x.	c #F6F1E7",
"y.	c #686868",
"z.	c #F4EBDF",
"A.	c #F3EADC",
"B.	c #666666",
"C.	c #EEDEC7",
"D.	c #EDDAC2",
"E.	c #E6D6BB",
"F.	c #BFA98C",
"G.	c #A4A4A4",
"H.	c #0D0D0D",
"I.	c #F8F6F1",
"J.	c #F5EEE2",
"K.	c #F3E9DA",
"L.	c #F2E8D7",
"M.	c #F1E4D2",
"N.	c #ECDBC1",
"O.	c #EAD9BF",
"P.	c #E5D4B6",
"Q.	c #BEA989",
"R.	c #050505",
"S.	c #F8F2E9",
"T.	c #F6F0E7",
"U.	c #F2E6D7",
"V.	c #F0E5D1",
"W.	c #636363",
"X.	c #E9D6BA",
"Y.	c #E8D5B5",
"Z.	c #E6D2B2",
"`.	c #BDA784",
" +	c #1A1A1A",
".+	c #4C4C4B",
"++	c #D2CFCB",
"@+	c #F9F4EE",
"#+	c #F5EDE2",
"$+	c #F3EBDE",
"%+	c #F2E8D9",
"&+	c #F1E7D6",
"*+	c #F0E3D1",
"=+	c #EFE2CE",
"-+	c #EEE0C9",
";+	c #E8D4B5",
">+	c #E7D2B2",
",+	c #BCA481",
"'+	c #FCFAF9",
")+	c #F8F1E9",
"!+	c #F5F0E6",
"~+	c #F4EDE1",
"{+	c #F3EADE",
"]+	c #EFE1CC",
"^+	c #EDDCC4",
"/+	c #EAD9BD",
"(+	c #E6CFAD",
"_+	c #E6CEAA",
":+	c #BEA481",
"<+	c #2E261E",
"[+	c #FBF8F6",
"}+	c #F7F1E8",
"|+	c #F5EFE6",
"1+	c #ECDABF",
"2+	c #E9D7B8",
"3+	c #E5CDA8",
"4+	c #E2CAA6",
"5+	c #BFA37C",
"6+	c #2E2A1E",
"7+	c #F3EBDC",
"8+	c #F1E6D4",
"9+	c #E9D5B8",
"0+	c #E7D0B0",
"a+	c #E6CFAB",
"b+	c #E4C9A3",
"c+	c #E2C69E",
"d+	c #BEA279",
"e+	c #2E261A",
"f+	c #F0E2CF",
"g+	c #EAD8BB",
"h+	c #E8D3B3",
"i+	c #BE9E75",
"j+	c #EDDBC2",
"k+	c #E5CEAA",
"l+	c #E4CCA7",
"m+	c #E3C8A2",
"n+	c #BC9F71",
"o+	c #F2EEE6",
"p+	c #F2EADE",
"q+	c #EEEADE",
"r+	c #EEE6DA",
"s+	c #F2E2CE",
"t+	c #EEE2CE",
"u+	c #EAE2D2",
"v+	c #EEDECA",
"w+	c #EADAC2",
"x+	c #EADABE",
"y+	c #EAD6BA",
"z+	c #E6CEAE",
"A+	c #E2CAA2",
"B+	c #BC9C6D",
"C+	c #3F3F3F",
"D+	c #C6C2B6",
"E+	c #C8C1B7",
"F+	c #C7BFB4",
"G+	c #C6BBAB",
"H+	c #C6B9A9",
"I+	c #C6B8A3",
"J+	c #C5B7A0",
"K+	c #C4B49D",
"L+	c #C4B299",
"M+	c #C3B296",
"N+	c #C3AE92",
"O+	c #C4AD8F",
"P+	c #C2AB8B",
"Q+	c #C1AA86",
"R+	c #C0A583",
"S+	c #161612",
"T+	c #322A22",
"U+	c #322E2A",
"V+	c #2E2A26",
"W+	c #2E2A22",
"X+	c #322A1E",
"Y+	c #2A2622",
"Z+	c #0A0A06",
"                . + @ # $ % & * = - ; > , ' ) !                 ",
"                @ ~ ~ ~ ~ ~ ~ ~ ~ ~ { ] ^ / / ( _               ",
"                : ~ < < < < < < < < [ < } | 1 ( 2 _             ",
"                3 ~ < < < < < < < < [ < < } | 4 ~ 2 _           ",
"                5 ~ < < < # < < < < [ < < < } 4 < ~ 2 _         ",
"                5 ~ < < # < # < < < [ < < < < 6 < < ~ 2 _       ",
"                7 ~ < < # < # < < < [ < < < < 8 9 < < ~ 2 _     ",
"                0 ~ < < < # < < < < [ < < < < a b 9 < < ~ 2 _   ",
"                c d e f g < < < < < [ < < < h _ _ _ , i j k l _ ",
"              _ _ _ _ _ m n < < < < [ < < o p _ _ _ q r s t u _ ",
"            _ _ v w x y _ z A < < < < < B C _ _ _ _ D E F r G _ ",
"            _ _ C ~ < : _ _ H < < < < < I _ J _ _ _ K L M F N _ ",
"          _ _ _ O ~ < P _ _ ) < < < < Q R ! S _ _ _ T U V W X _ ",
"          _ _ _ Y ~ < Z _ _ l < < < ` J _ 3  ._ _ _ ..+.@.#.$._ ",
"          _ _ _ = ~ < %._ _ &.< < < l _ c *.=._ _ _ -.;.>.,.'._ ",
"          _ _ _ a ~ < A _ _ _ < < )._ _ !.~.{._ _ _ ].^./.(._._ ",
"          _ _ _ a ~ < B _ _ :.< } <._ [.}.|.1._ _ _ 2.2.3.4.5._ ",
"          _ _ _ 6.~ < 7._ _ &.< 0 _ 8.9.0.a.b._ _ _ 3.3.c.d.e._ ",
"          _ _ _ 6 ~ < f._ _ g.[ h._ _ _ _ _ _ _ _ _ _ i.j.k.l._ ",
"          _ _ _ ( ~ < m._ _ % n.o.! :.! ! ! ! _ _ _ ! p.k.q.r._ ",
"            _ _ s.~ < t._ _ u.v.w.$ x.y.z.A.B._ _ _ C.D.E.E.F._ ",
"            _ _ p G.Q H._ z I.w.0.1.J.y.K.L.M._ _ _ N.O.P.P.Q._ ",
"              _ _ _ _ _ R.- {.S.T.J.y.K.U.V.W._ _ _ O.X.Y.Z.`._ ",
"                 +v e .+++@+S.T.#+$+%+&+*+=+-+_ _ _ X.;+>+Z.,+_ ",
"                Y ~ '+=.@+)+!+~+{+%+& *+]+-+^+N./+X.;+8 (+_+:+<+",
"                Y ~ [+|.}+|+~+{+%+& 9.]+-+^+1+/+2+;+8 8 3+4+5+6+",
"                - ~ }.}+|+~+7+%+8+V.W.C.^+1+/+9+;+0+a+n b+c+d+e+",
"                ).~ 0.b.~+7+%+8+f+W.* a 1+g+9+h+0+a+n Y Y c+i+e+",
"                6 ~ }+~+A.L.8+f+]+C.j+1+g+9+h+0+k+l+m+m+m+c+n+e+",
"                > ~ o+p+q+r+s+t+u+v+w+x+y+Z.Z.z+_+4+A+c+c+c+B+<+",
"                C+D+E+F+G+H+I+J+K+L+M+N+O+P+Q+R+:+5+d+i+n+B+B+e+",
"                S+T+U+T+U+V+T+U+V+W+W+V+<+T+<+X+e+Y+6+6+e+6+e+Z+"};
