/* XPM */
static char * attr05[] = {
"32 32 299 2",
"  	c None",
". 	c #868686",
"+ 	c #7D7D7D",
"@ 	c #777777",
"# 	c #6F6F6F",
"$ 	c #6A6A6A",
"% 	c #676767",
"& 	c #656565",
"* 	c #626262",
"= 	c #606060",
"- 	c #585858",
"; 	c #515151",
"> 	c #4A4A4A",
", 	c #484848",
"' 	c #3D3D3D",
") 	c #2E2E2E",
"! 	c #020202",
"~ 	c #C9C9C9",
"{ 	c #C1C1C1",
"] 	c #BABABA",
"^ 	c #ACACAC",
"/ 	c #9D9D9D",
"( 	c #464646",
"_ 	c #000000",
": 	c #7A7A7A",
"< 	c #FFFFFF",
"[ 	c #FEFEFE",
"} 	c #F5F5F5",
"| 	c #E3E3E3",
"1 	c #D8D8D8",
"2 	c #898989",
"3 	c #707070",
"4 	c #4D4D4D",
"5 	c #6E6E6E",
"6 	c #545454",
"7 	c #6D6D6D",
"8 	c #5C5C5C",
"9 	c #E0E0E0",
"0 	c #6C6C6C",
"a 	c #616161",
"b 	c #C6C6C6",
"c 	c #202020",
"d 	c #080808",
"e 	c #0B0B0B",
"f 	c #4F4F4F",
"g 	c #D7D7D7",
"h 	c #B6B6B6",
"i 	c #444444",
"j 	c #3E3E3E",
"k 	c #3A3A3A",
"l 	c #333333",
"m 	c #0F0F0F",
"n 	c #5B5B5B",
"o 	c #A4A197",
"p 	c #87837E",
"q 	c #797674",
"r 	c #5C5957",
"s 	c #070707",
"t 	c #A3A3A3",
"u 	c #D0D0D0",
"v 	c #101010",
"w 	c #141414",
"x 	c #FDFDFD",
"y 	c #B7B7B7",
"z 	c #737373",
"A 	c #666666",
"B 	c #636261",
"C 	c #C8C7C5",
"D 	c #B8B3AB",
"E 	c #7C7875",
"F 	c #313131",
"G 	c #BBBBBB",
"H 	c #030303",
"I 	c #FAFAFA",
"J 	c #F2F2F1",
"K 	c #E7E5E2",
"L 	c #DEDCD9",
"M 	c #D3CDC0",
"N 	c #968F85",
"O 	c #4B4B4B",
"P 	c #BCBCBC",
"Q 	c #FCFCFB",
"R 	c #FBF9F6",
"S 	c #F5F2EE",
"T 	c #EFEBE4",
"U 	c #E4DFD9",
"V 	c #DBD7CE",
"W 	c #D2CCC1",
"X 	c #A7A194",
"Y 	c #595959",
"Z 	c #E1E1E1",
"` 	c #151515",
" .	c #DDDDDC",
"..	c #F5F3F0",
"+.	c #FAF6F1",
"@.	c #F4EFE9",
"#.	c #F3EDE4",
"$.	c #EDE6DE",
"%.	c #E1DBD2",
"&.	c #DFDACE",
"*.	c #B2A89B",
"=.	c #F4F4F4",
"-.	c #121212",
";.	c #181818",
">.	c #A49F9A",
",.	c #EFEAE0",
"'.	c #F0EBE1",
").	c #EAE3D9",
"!.	c #E9E1D6",
"~.	c #E0D8C9",
"{.	c #B6AB97",
"].	c #393838",
"^.	c #343333",
"/.	c #5A5753",
"(.	c #EEE6DB",
"_.	c #E8E0D1",
":.	c #E7DDCC",
"<.	c #B5A894",
"[.	c #010101",
"}.	c #FAF8F5",
"|.	c #F9F5F0",
"1.	c #F5F1EA",
"2.	c #0C0C0B",
"3.	c #8E8880",
"4.	c #EDE4D6",
"5.	c #ECE1D1",
"6.	c #E6DBC9",
"7.	c #BCAE97",
"8.	c #5E5E5E",
"9.	c #F1F1F1",
"0.	c #F8F3EB",
"a.	c #F7F2E8",
"b.	c #F5EEE4",
"c.	c #404040",
"d.	c #2E2C28",
"e.	c #EBDFCC",
"f.	c #E5DAC4",
"g.	c #BCAB93",
"h.	c #DCDCDC",
"i.	c #343434",
"j.	c #FBF9F8",
"k.	c #FAF8F3",
"l.	c #F9F6F0",
"m.	c #F7F1E8",
"n.	c #F4EDE1",
"o.	c #E1D9CC",
"p.	c #050504",
"q.	c #EADEC9",
"r.	c #E9DBC4",
"s.	c #BBAA90",
"t.	c #B5B5B5",
"u.	c #FBFAF8",
"v.	c #FAF7F3",
"w.	c #F6F1E7",
"x.	c #F4ECDF",
"y.	c #F3EADC",
"z.	c #080707",
"A.	c #E8D8BF",
"B.	c #BFAB90",
"C.	c #2C2C2C",
"D.	c #727272",
"E.	c #B7B6B4",
"F.	c #F9F5EE",
"G.	c #686868",
"H.	c #F4EBDF",
"I.	c #454545",
"J.	c #36322D",
"K.	c #EDDAC2",
"L.	c #E6D6BB",
"M.	c #BFA98C",
"N.	c #060606",
"O.	c #A4A4A4",
"P.	c #CCCCCC",
"Q.	c #0D0D0D",
"R.	c #F8F6F1",
"S.	c #696969",
"T.	c #99958D",
"U.	c #424242",
"V.	c #DBD2C4",
"W.	c #E8DECE",
"X.	c #AAA094",
"Y.	c #090909",
"Z.	c #9B907F",
"`.	c #EAD9BF",
" +	c #E5D4B6",
".+	c #BEA989",
"++	c #050505",
"@+	c #6B6B6B",
"#+	c #F8F2E9",
"$+	c #F6F0E7",
"%+	c #F5EEE2",
"&+	c #2D2D2D",
"*+	c #696156",
"=+	c #E9D8BE",
"-+	c #E9D6BA",
";+	c #E8D5B5",
">+	c #E6D2B2",
",+	c #BDA784",
"'+	c #1A1A1A",
")+	c #4C4C4B",
"!+	c #D2CFCB",
"~+	c #F9F4EE",
"{+	c #F5EDE2",
"]+	c #F3EBDE",
"^+	c #A0998F",
"/+	c #3B3934",
"(+	c #121110",
"_+	c #0E0E0C",
":+	c #433E38",
"<+	c #A89D89",
"[+	c #EAD9BD",
"}+	c #E8D4B5",
"|+	c #E7D2B2",
"1+	c #BCA481",
"2+	c #FCFAF9",
"3+	c #F8F1E9",
"4+	c #F5F0E6",
"5+	c #F3EADE",
"6+	c #F2E8D9",
"7+	c #F0E3D1",
"8+	c #EFE1CC",
"9+	c #EEE0C9",
"0+	c #EDDCC4",
"a+	c #ECDBC1",
"b+	c #E6CFAD",
"c+	c #E6CEAA",
"d+	c #BEA481",
"e+	c #2E261E",
"f+	c #FBF8F6",
"g+	c #F8F4ED",
"h+	c #F5EFE6",
"i+	c #646464",
"j+	c #ECDABF",
"k+	c #E9D7B8",
"l+	c #E5CDA8",
"m+	c #E2CAA6",
"n+	c #BFA37C",
"o+	c #2E2A1E",
"p+	c #F3EBDC",
"q+	c #F1E6D4",
"r+	c #F0E5D1",
"s+	c #636363",
"t+	c #EEDEC7",
"u+	c #E9D5B8",
"v+	c #E7D0B0",
"w+	c #E6CFAB",
"x+	c #E4C9A3",
"y+	c #E2C69E",
"z+	c #BEA279",
"A+	c #2E261A",
"B+	c #555555",
"C+	c #F0E2CF",
"D+	c #EAD8BB",
"E+	c #E8D3B3",
"F+	c #BE9E75",
"G+	c #F2E8D7",
"H+	c #EDDBC2",
"I+	c #E5CEAA",
"J+	c #E4CCA7",
"K+	c #E3C8A2",
"L+	c #BC9F71",
"M+	c #F2EEE6",
"N+	c #F2EADE",
"O+	c #EEEADE",
"P+	c #EEE6DA",
"Q+	c #F2E2CE",
"R+	c #EEE2CE",
"S+	c #EAE2D2",
"T+	c #EEDECA",
"U+	c #EADAC2",
"V+	c #EADABE",
"W+	c #EAD6BA",
"X+	c #E6CEAE",
"Y+	c #E2CAA2",
"Z+	c #BC9C6D",
"`+	c #3F3F3F",
" @	c #C6C2B6",
".@	c #C8C1B7",
"+@	c #C7BFB4",
"@@	c #C6BBAB",
"#@	c #C6B9A9",
"$@	c #C6B8A3",
"%@	c #C5B7A0",
"&@	c #C4B49D",
"*@	c #C4B299",
"=@	c #C3B296",
"-@	c #C3AE92",
";@	c #C4AD8F",
">@	c #C2AB8B",
",@	c #C1AA86",
"'@	c #C0A583",
")@	c #161612",
"!@	c #322A22",
"~@	c #322E2A",
"{@	c #2E2A26",
"]@	c #2E2A22",
"^@	c #322A1E",
"/@	c #2A2622",
"(@	c #0A0A06",
"                . + @ # $ % & * = - ; > , ' ) !                 ",
"                @ ~ ~ ~ ~ ~ ~ ~ ~ ~ { ] ^ / / ( _               ",
"                : ~ < < < < < < < < [ < } | 1 ( 2 _             ",
"                3 ~ < < < < < < < < [ < < } | 4 ~ 2 _           ",
"                5 ~ < < < # < < < < [ < < < } 4 < ~ 2 _         ",
"                5 ~ < < # < # < < < [ < < < < 6 < < ~ 2 _       ",
"                7 ~ < < # < # < < < [ < < < < 8 9 < < ~ 2 _     ",
"                0 ~ < < < # < < < < [ < < < < a b 9 < < ~ 2 _   ",
"                c d e f g < < < < < h _ _ _ _ _ _ _ _ i j k l _ ",
"              _ _ _ _ _ m n < < < < h _ _ _ _ _ _ _ _ o p q r _ ",
"            _ _ s t u v _ w x < < < y _ _ 3 z z 3 A B C D o E _ ",
"            _ _ F ~ < : _ _ G < < < y _ H [ < I I J K L M D N _ ",
"          _ _ _ O ~ < P _ _ ) < < < y _ m < Q R S S T U V W X _ ",
"          _ _ _ Y ~ < Z _ _ l < < < y _ `  ...+.@.@.#.$.%.&.*._ ",
"          _ _ _ = ~ < =._ _ -.< < < f _ _ _ ! ;.>.,.'.).!.~.{._ ",
"          _ _ _ a ~ < x _ _ _ < < # 6 ].^.v _ _ _ /.(.(._.:.<._ ",
"          _ _ _ a ~ < I _ _ [.< < < 7 }.|.1.( 2._ _ 3.4.5.6.7._ ",
"          _ _ _ 8.~ < 9._ _ -.< [ 7 0 0 0.a.b.c._ _ d.5.e.f.g._ ",
"          _ _ _ 6 ~ < h._ _ i.[ j.k.l.0.m.b.n.o._ _ p.q.q.r.s._ ",
"          _ _ _ ( ~ < t._ _ % u.v.l.$ w.b.x.y.a _ _ z.r.r.A.B._ ",
"            _ _ C.~ < D._ _ E.v.F.$ w.G.H.y.A I._ _ J.K.L.L.M._ ",
"            _ _ N.O.P.Q._ w R.F.0.S.T.U.V.W.X.Y._ _ Z.`. + +.+_ ",
"              _ _ _ _ _ ++- @+#+$+%+&+_ _ _ _ _ _ *+=+-+;+>+,+_ ",
"                '+s e )+!+~+#+$+{+]+^+/+(+_ _+:+<+[+-+}+|+>+1+_ ",
"                Y ~ 2++.~+3+4+n.5+6+& 7+8+9+0+a+[+-+}+8 b+c+d+e+",
"                Y ~ f+g+m.h+n.5+6+& i+8+9+0+j+[+k+}+8 8 l+m+n+o+",
"                - ~ |.m.h+n.p+6+q+r+s+t+0+j+[+u+}+v+w+n x+y+z+A+",
"                B+~ 0.b.n.p+6+q+C+s+* a j+D+u+E+v+w+n Y Y y+F+A+",
"                6 ~ m.n.y.G+q+C+8+t+H+j+D+u+E+v+I+J+K+K+K+y+L+A+",
"                > ~ M+N+O+P+Q+R+S+T+U+V+W+>+>+X+c+m+Y+y+y+y+Z+e+",
"                `+ @.@+@@@#@$@%@&@*@=@-@;@>@,@'@d+n+z+F+L+Z+Z+A+",
"                )@!@~@!@~@{@!@~@{@]@]@{@e+!@e+^@A+/@o+o+A+o+A+(@"};
