/* XPM */
static char * attr03[] = {
"32 32 305 2",
"  	c None",
". 	c #868686",
"+ 	c #7D7D7D",
"@ 	c #777777",
"# 	c #6F6F6F",
"$ 	c #6A6A6A",
"% 	c #676767",
"& 	c #656565",
"* 	c #626262",
"= 	c #606060",
"- 	c #585858",
"; 	c #515151",
"> 	c #4A4A4A",
", 	c #484848",
"' 	c #3D3D3D",
") 	c #2E2E2E",
"! 	c #020202",
"~ 	c #C9C9C9",
"{ 	c #C1C1C1",
"] 	c #BABABA",
"^ 	c #ACACAC",
"/ 	c #9D9D9D",
"( 	c #464646",
"_ 	c #000000",
": 	c #7A7A7A",
"< 	c #FFFFFF",
"[ 	c #FEFEFE",
"} 	c #F5F5F5",
"| 	c #E3E3E3",
"1 	c #D8D8D8",
"2 	c #898989",
"3 	c #707070",
"4 	c #4D4D4D",
"5 	c #6E6E6E",
"6 	c #545454",
"7 	c #6D6D6D",
"8 	c #5C5C5C",
"9 	c #E0E0E0",
"0 	c #6C6C6C",
"a 	c #616161",
"b 	c #C6C6C6",
"c 	c #6B6B6B",
"d 	c #696969",
"e 	c #505050",
"f 	c #4C4C4C",
"g 	c #444444",
"h 	c #3E3E3E",
"i 	c #3A3A3A",
"j 	c #333333",
"k 	c #202020",
"l 	c #080808",
"m 	c #0B0B0B",
"n 	c #4F4F4F",
"o 	c #D7D7D7",
"p 	c #232323",
"q 	c #060606",
"r 	c #1A1A1A",
"s 	c #AEADAB",
"t 	c #D1D1CC",
"u 	c #BCBAB3",
"v 	c #A4A197",
"w 	c #87837E",
"x 	c #797674",
"y 	c #5C5957",
"z 	c #5B5B5B",
"A 	c #737373",
"B 	c #A3A3A3",
"C 	c #DCDBD9",
"D 	c #C8C7C5",
"E 	c #B8B3AB",
"F 	c #7C7875",
"G 	c #D0D0D0",
"H 	c #101010",
"I 	c #141414",
"J 	c #FDFDFD",
"K 	c #999999",
"L 	c #989898",
"M 	c #DEDEDE",
"N 	c #F7F7F7",
"O 	c #535353",
"P 	c #2C2C2C",
"Q 	c #E7E5E2",
"R 	c #DEDCD9",
"S 	c #D3CDC0",
"T 	c #968F85",
"U 	c #303030",
"V 	c #E4E4E3",
"W 	c #EFEBE4",
"X 	c #E4DFD9",
"Y 	c #DBD7CE",
"Z 	c #D2CCC1",
"` 	c #A7A194",
" .	c #4B4B4B",
"..	c #BCBCBC",
"+.	c #FCFCFB",
"@.	c #F3F1EE",
"#.	c #161615",
"$.	c #F3EDE4",
"%.	c #EDE6DE",
"&.	c #E1DBD2",
"*.	c #DFDACE",
"=.	c #B2A89B",
"-.	c #E1E1E1",
";.	c #FCFAF9",
">.	c #FBF9F6",
",.	c #A4A29E",
"'.	c #777570",
").	c #F0EBE1",
"!.	c #EAE3D9",
"~.	c #E9E1D6",
"{.	c #E0D8C9",
"].	c #B6AB97",
"^.	c #5E5E5E",
"/.	c #F4F4F4",
"(.	c #070707",
"_.	c #646464",
":.	c #ABAAA9",
"<.	c #959392",
"[.	c #5B5A58",
"}.	c #010101",
"|.	c #2F2F2F",
"1.	c #EDE5DA",
"2.	c #F0E8DD",
"3.	c #EEE6DB",
"4.	c #E8E0D1",
"5.	c #E7DDCC",
"6.	c #B5A894",
"7.	c #807D78",
"8.	c #636363",
"9.	c #F3EBDC",
"0.	c #EDE4D6",
"a.	c #ECE1D1",
"b.	c #E6DBC9",
"c.	c #BCAE97",
"d.	c #FAFAFA",
"e.	c #030303",
"f.	c #343434",
"g.	c #6C6A67",
"h.	c #4B4A46",
"i.	c #0D0D0C",
"j.	c #0D0C0C",
"k.	c #8B857D",
"l.	c #EBDFCC",
"m.	c #E5DAC4",
"n.	c #BCAB93",
"o.	c #F1F1F1",
"p.	c #121212",
"q.	c #FBF9F8",
"r.	c #FAF8F3",
"s.	c #F9F6F0",
"t.	c #F8F3EB",
"u.	c #F7F1E8",
"v.	c #F5EEE4",
"w.	c #E7E0D5",
"x.	c #46433F",
"y.	c #91897D",
"z.	c #EADEC9",
"A.	c #E9DBC4",
"B.	c #BBAA90",
"C.	c #DCDCDC",
"D.	c #FBFAF8",
"E.	c #FAF7F3",
"F.	c #F6F1E7",
"G.	c #F4ECDF",
"H.	c #F3EADC",
"I.	c #565656",
"J.	c #22201D",
"K.	c #E8D8BF",
"L.	c #BFAB90",
"M.	c #454545",
"N.	c #B5B5B5",
"O.	c #676666",
"P.	c #F9F5EE",
"Q.	c #686868",
"R.	c #F4EBDF",
"S.	c #666666",
"T.	c #EDDAC2",
"U.	c #E6D6BB",
"V.	c #BFA98C",
"W.	c #727272",
"X.	c #B6B4B1",
"Y.	c #F5EEE2",
"Z.	c #F3E9DA",
"`.	c #F2E8D7",
" +	c #F1E4D2",
".+	c #1B1916",
"++	c #EAD9BF",
"@+	c #E5D4B6",
"#+	c #BEA989",
"$+	c #A4A4A4",
"%+	c #CCCCCC",
"&+	c #0C0C0C",
"*+	c #F8F2E9",
"=+	c #F6F0E7",
"-+	c #63615C",
";+	c #B9B2A6",
">+	c #E3D8CA",
",+	c #E6DCC8",
"'+	c #756C5F",
")+	c #E9D6BA",
"!+	c #E8D5B5",
"~+	c #E6D2B2",
"{+	c #BDA784",
"]+	c #0D0D0D",
"^+	c #CCC7C3",
"/+	c #F5EDE2",
"(+	c #383633",
"_+	c #4C463D",
":+	c #E3D0B5",
"<+	c #E8D4B5",
"[+	c #E7D2B2",
"}+	c #BCA481",
"|+	c #191919",
"1+	c #0A0A0A",
"2+	c #4C4B49",
"3+	c #D1CDC8",
"4+	c #F8F1E9",
"5+	c #F5F0E6",
"6+	c #F4EDE1",
"7+	c #F3EADE",
"8+	c #868178",
"9+	c #171717",
"0+	c #141312",
"a+	c #181613",
"b+	c #4A443C",
"c+	c #A29683",
"d+	c #E8D5B9",
"e+	c #E6CFAD",
"f+	c #E6CEAA",
"g+	c #BEA481",
"h+	c #2E261E",
"i+	c #595959",
"j+	c #FBF8F6",
"k+	c #F8F4ED",
"l+	c #F5EFE6",
"m+	c #F2E8D9",
"n+	c #EFE1CC",
"o+	c #EEE0C9",
"p+	c #EDDCC4",
"q+	c #ECDABF",
"r+	c #EAD9BD",
"s+	c #E9D7B8",
"t+	c #E5CDA8",
"u+	c #E2CAA6",
"v+	c #BFA37C",
"w+	c #2E2A1E",
"x+	c #F9F5F0",
"y+	c #F1E6D4",
"z+	c #F0E5D1",
"A+	c #EEDEC7",
"B+	c #E9D5B8",
"C+	c #E7D0B0",
"D+	c #E6CFAB",
"E+	c #E4C9A3",
"F+	c #E2C69E",
"G+	c #BEA279",
"H+	c #2E261A",
"I+	c #555555",
"J+	c #F0E2CF",
"K+	c #EAD8BB",
"L+	c #E8D3B3",
"M+	c #BE9E75",
"N+	c #EDDBC2",
"O+	c #E5CEAA",
"P+	c #E4CCA7",
"Q+	c #E3C8A2",
"R+	c #BC9F71",
"S+	c #F2EEE6",
"T+	c #F2EADE",
"U+	c #EEEADE",
"V+	c #EEE6DA",
"W+	c #F2E2CE",
"X+	c #EEE2CE",
"Y+	c #EAE2D2",
"Z+	c #EEDECA",
"`+	c #EADAC2",
" @	c #EADABE",
".@	c #EAD6BA",
"+@	c #E6CEAE",
"@@	c #E2CAA2",
"#@	c #BC9C6D",
"$@	c #3F3F3F",
"%@	c #C6C2B6",
"&@	c #C8C1B7",
"*@	c #C7BFB4",
"=@	c #C6BBAB",
"-@	c #C6B9A9",
";@	c #C6B8A3",
">@	c #C5B7A0",
",@	c #C4B49D",
"'@	c #C4B299",
")@	c #C3B296",
"!@	c #C3AE92",
"~@	c #C4AD8F",
"{@	c #C2AB8B",
"]@	c #C1AA86",
"^@	c #C0A583",
"/@	c #161612",
"(@	c #322A22",
"_@	c #322E2A",
":@	c #2E2A26",
"<@	c #2E2A22",
"[@	c #322A1E",
"}@	c #2A2622",
"|@	c #0A0A06",
"                . + @ # $ % & * = - ; > , ' ) !                 ",
"                @ ~ ~ ~ ~ ~ ~ ~ ~ ~ { ] ^ / / ( _               ",
"                : ~ < < < < < < < < [ < } | 1 ( 2 _             ",
"                3 ~ < < < < < < < < [ < < } | 4 ~ 2 _           ",
"                5 ~ < < < # < < < < [ < < < } 4 < ~ 2 _         ",
"                5 ~ < < # < # < < < [ < < < < 6 < < ~ 2 _       ",
"                7 ~ < < # < # < < < [ < < < < 8 9 < < ~ 2 _     ",
"                0 ~ < < < # < < < < [ < < < < a b 9 < < ~ 2 _   ",
"                c ~ < < < < < < < < [ < < < < d e f , g h i j _ ",
"                k l m n o # < < < ~ 8 p q ! r 6 s t u v w x y _ ",
"              _ _ _ _ _ q z < < < A _ _ _ _ _ _ ! B C D E v F _ ",
"            _ _ q B G H _ I J < < K L M N M O _ _ P Q R S E T _ ",
"            _ _ U ~ < : _ _ ; < < < < < < < V _ _ ! W X Y Z ` _ ",
"          _ _ _  .~ < .._ _ $ < < < < < < +.@._ _ #.$.%.&.*.=._ ",
"          _ _ _ - ~ < -._ _ j < < < # < ;.>.,._ _ '.).!.~.{.]._ ",
"          _ _ _ ^.~ < /._ _ (.< < # _.:.<.[.}.}.|.1.2.3.4.5.6._ ",
"          _ _ _ = ~ < J _ _ _ < < < f _ _ _ ! 7.8.9.0.0.a.b.c._ ",
"          _ _ _ a ~ < d._ _ e.< [ 7 z f.g.h.i._ j.k.a.a.l.m.n._ ",
"          _ _ _ 8 ~ < o._ _ p.[ q.r.s.t.u.v.w.x._ _ y.z.z.A.B._ ",
"          _ _ _ O ~ < C._ _ j D.E.s.$ F.v.G.H.I._ _ J.A.A.K.L._ ",
"          _ _ _ M.~ < N._ _ O.E.P.$ F.Q.R.H.S.a _ _ }.T.U.U.V._ ",
"            _ _ P ~ < W._ _ X.P.t.d Y.Q.Z.`. +; _ _ .+++@+@+#+_ ",
"            _ _ q $+%+&+_ I $ *+=+-+j ;+>+,+ .p._ _ '+)+!+~+{+_ ",
"              _ _ _ _ _ ]+^+*+=+/+(+_ _ _ _ _ _ _ _+:+<+[+~+}+_ ",
"                |+(.1+2+3+4+5+6+7+8+9+0+}.}.a+b+c+d+<+8 e+f+g+h+",
"                i+~ j+k+u.l+6+7+m+& _.n+o+p+q+r+s+<+8 8 t+u+v+w+",
"                - ~ x+u.l+6+9.m+y+z+8.A+p+q+r+B+<+C+D+z E+F+G+H+",
"                I+~ t.v.6+9.m+y+J+8.* a q+K+B+L+C+D+z i+i+F+M+H+",
"                6 ~ u.6+H.`.y+J+n+A+N+q+K+B+L+C+O+P+Q+Q+Q+F+R+H+",
"                > ~ S+T+U+V+W+X+Y+Z+`+ @.@~+~++@f+u+@@F+F+F+#@h+",
"                $@%@&@*@=@-@;@>@,@'@)@!@~@{@]@^@g+v+G+M+R+#@#@H+",
"                /@(@_@(@_@:@(@_@:@<@<@:@h+(@h+[@H+}@w+w+H+w+H+|@"};
