/* XPM */
static char *autoredrawcoverage[]={
"34 34 851 2",
"Qt c None",
"ck c None",
"kR c None",
"bW c None",
".J c #000000",
"#W c #000128",
"cI c #00022a",
"am c #00022c",
"aM c #00032c",
"be c #00032e",
"#w c #010028",
".7 c #030022",
".I c #030026",
".m c #628c89",
".b c #000000",
"cj c #00022a",
"ip c #00022c",
"gy c #0079be",
".H c #191137",
"bX c #a2f7fe",
".c c #ffffff",
"lo c #000000",
"du c #00022a",
"bA c #00032c",
".t c #ffffff",
".s c #000000",
"dU c #00022a",
".l c #6ac8c5",
"bd c #000028",
"ef c #00022a",
"hX c #00032c",
"#v c #000a3c",
"cH c #00012a",
"lp c #00022a",
"kQ c #00032c",
"aL c #010026",
".d c #f1fafb",
"jj c #00010c",
"bV c #00012a",
"ks c #000224",
"lq c #00022a",
"#V c #000c3a",
"al c #020028",
".6 c #052e73",
".G c #2778c3",
"ht c #00022a",
"c7 c #00012a",
"f5 c #35c8ff",
".k c #7ff1ed",
"jH c #000000",
"lc c #00011e",
"ln c #00022a",
"iq c #000000",
"j5 c #000113",
"g1 c #00022a",
"bz c #020024",
"kS c #000000",
"jG c #00010c",
"cl c #a2f7fe",
"ci c #000126",
"dt c #00012a",
"kP c #00022a",
"kT c #000000",
"iQ c #000110",
"io c #000220",
"lm c #00022a",
"#u c #0f5285",
".e c #ccfefe",
"gx c #00022a",
"bc c #000732",
"dT c #00012a",
"ld c #00022a",
"aK c #001142",
".u c #ffffff",
"j6 c #000000",
"ee c #00012a",
"hW c #00022a",
".j c #8ffffb",
"cG c #00022a",
"kt c #000000",
"eG c #00012a",
"ll c #00022a",
"kr c #00011f",
"bU c #000b38",
"lb c #000004",
"kO c #000229",
"le c #00022a",
"l. c #00022a",
"fA c #3fbdff",
"bB c #abf6ff",
"lk c #00022a",
"hs c #00012a",
"ak c #034685",
"cJ c #6edefe",
"#U c #11699b",
".f c #93dfff",
"lf c #00022a",
"c6 c #000630",
"bf c #151e1f",
"lj c #00022a",
"#x c #000000",
".i c #97efff",
"lg c #00022a",
".5 c #3293ee",
"li c #00022a",
".n c #000000",
"g0 c #000028",
"k9 c #00012a",
"lh c #00022a",
"by c #002e62",
".F c #70dbfe",
"ds c #000630",
".g c #89d4ff",
"j4 c #00010f",
".h c #95e2ff",
"e8 c #27abff",
"ch c #001d4c",
"c8 c #53ccff",
"aN c #000000",
"gw c #000024",
"kN c #000126",
"k8 c #000028",
"dS c #00062c",
"kY c #00000e",
"f4 c #00032c",
"kq c #000119",
"ed c #00042c",
"eH c #219eff",
"kZ c #010015",
"dv c #2dadff",
"k7 c #000126",
"fz c #00042a",
"e7 c #00042c",
"eF c #00052c",
"hr c #000128",
"dV c #1da7ff",
"eg c #1fa3ff",
"k6 c #000023",
".a c #000000",
"l# c #000000",
"ji c #000006",
".r c #000000",
"k0 c #020017",
"jF c #000007",
"an c #010101",
"kM c #00021f",
"k5 c #020022",
"ku c #000000",
"k2 c #03001d",
"la c #000000",
"k3 c #03001e",
"cF c #003a66",
"k1 c #020018",
"k4 c #02001f",
".# c #000000",
"bb c #005fb8",
"kv c #000000",
".v c #cef2ed",
"kX c #000004",
"bT c #076089",
"kL c #00011d",
".Q c #252525",
"#t c #3293bc",
"bY c #45bbff",
".R c #cde7de",
"kp c #000011",
"gZ c #000724",
".8 c #000000",
"hV c #00010f",
"kW c #000001",
"il c #001b52",
".E c #58c2fe",
"c5 c #02577e",
"aJ c #006d96",
"iN c #020316",
"j3 c #01010a",
"f3 c #044171",
"gv c #00102f",
"#T c #1585a1",
".4 c #2caafa",
"kK c #000824",
"aj c #0077a8",
"iM c #0b356d",
".w c #b8eae3",
"dr c #005b72",
"hq c #022053",
"f6 c #0071f0",
"jf c #02061a",
"fy c #0d576d",
".D c #51bfff",
"dR c #005160",
"cm c #1d9dff",
"ko c #01010d",
"je c #0b3769",
"e6 c #13616d",
"ec c #005a6a",
"eE c #096275",
"kJ c #001432",
"iP c #020204",
".x c #a8e2d2",
"cg c #00668c",
"bx c #0066ae",
"jB c #04172e",
".C c #51c8ff",
".K c #1b1b1b",
".q c #000000",
"#X c #050505",
".S c #b3f3e5",
"jE c #050508",
"in c #070709",
"fB c #0063ea",
"kI c #001730",
".P c #010101",
"cK c #0b89ff",
"bC c #1891e6",
"j2 c #040407",
"kz c #000206",
"gY c #002a54",
".y c #59c7e3",
"kn c #02040c",
"iR c #413d43",
".3 c #29b6ff",
"cE c #005451",
"jh c #0b0b0c",
"#s c #128afa",
"jC c #09090e",
"ik c #125aa4",
"jk c #4a4a4d",
"aO c #070707",
"kA c #00050c",
"g2 c #2b202b",
".B c #43baff",
"bg c #0e1d26",
"kH c #001c36",
"hT c #091c32",
"e9 c #0060e2",
"kB c #000913",
"ba c #005fa8",
".z c #3bb7ff",
"ao c #060606",
"bS c #005a40",
"c4 c #02582f",
"c9 c #1382ff",
"iL c #155393",
".A c #4fbfff",
"jA c #124c7d",
"gz c #2b2839",
"km c #050a12",
"aI c #0a7e51",
"#y c #484848",
"im c #19191a",
".T c #baecd7",
"kC c #000c15",
"f2 c #022e41",
"jZ c #08151f",
"ai c #109461",
"hY c #57575b",
"j1 c #080809",
"kG c #05243e",
"jd c #1b558b",
".o c #343434",
"bZ c #0586ff",
"j0 c #06070b",
"#S c #0b8976",
"fx c #087463",
"hU c #0a0a0c",
"jg c #171717",
"kD c #03131f",
"eI c #005de8",
".2 c #1594ff",
"hp c #011e3b",
"kF c #042239",
"dq c #075f2a",
"kE c #041e30",
"kU c #1a131a",
"kl c #070d12",
"jY c #122f4e",
"gX c #00244a",
"jD c #0f0f0f",
"dw c #0374ff",
"#r c #198bff",
"cf c #074d0a",
"iO c #212121",
"e5 c #0e8260",
"jz c #2461a0",
"dQ c #0a5421",
".O c #0c0c0c",
"gu c #121315",
"ij c #1756a3",
"#e c #283230",
"iu c #023575",
"kk c #040c13",
"kb c #08070c",
"hS c #185498",
"aH c #1ea62b",
"jX c #264672",
"#f c #66919c",
"fZ c #00050a",
"f0 c #00050c",
"ft c #000912",
"ke c #001020",
"kf c #00131f",
"gs c #00162d",
"d9 c #001732",
"ho c #001837",
"eA c #001936",
"gW c #001a3d",
"gV c #002453",
"dp c #002e1e",
"c3 c #003614",
"bw c #003b84",
"bR c #003c40",
"e. c #003d89",
"fw c #004279",
"bv c #00478a",
"dN c #004ba8",
"bQ c #004dac",
"dn c #004f98",
"gT c #00509a",
"c1 c #00557c",
"dM c #0055be",
"e4 c #005692",
"fV c #005fa1",
"dm c #0061f2",
"dX c #0062e8",
"bP c #0065ee",
"c0 c #0065fc",
"eh c #0067f4",
"dx c #006aee",
"eK c #006bf0",
"cn c #006cf2",
"cc c #006df4",
"d. c #0072f2",
"cB c #007462",
"eL c #0074f6",
"dW c #0075f8",
"cd c #007664",
"cL c #0076ee",
"cA c #0078f2",
"dZ c #007af6",
"#R c #00a681",
"kh c #010f1e",
"ki c #010f22",
"kg c #011012",
"eC c #014d28",
"hy c #02080e",
"kj c #02101d",
"h2 c #021a32",
"cD c #025000",
"eD c #027254",
"b# c #027845",
"f1 c #030c11",
"gr c #032d62",
"bD c #033457",
"fv c #040c14",
"fY c #040e16",
"d6 c #04192d",
"gF c #05070a",
"dL c #05101a",
"ew c #051726",
"dH c #051b29",
"cY c #05396a",
"bu c #059f92",
"cx c #06243b",
"e3 c #06376e",
"fu c #071019",
"dh c #07151b",
"e0 c #071c2d",
"#q c #0782ff",
"d5 c #08131b",
"c. c #08141b",
"dP c #085821",
"eb c #086234",
"ex c #091c2e",
"a4 c #09303d",
"gq c #0a56a3",
"e# c #0a5ea6",
"ce c #0a6a2c",
"eZ c #0b151d",
"di c #0b1f2d",
"eB c #0b4486",
"hl c #0b55b1",
"jR c #0c344e",
"c2 c #0c6c32",
"cy c #0c7aea",
"iz c #0d090d",
"dk c #0d0e0e",
"gt c #0d1416",
"ea c #0d7534",
"cZ c #0d84fd",
"b. c #0db10d",
"dI c #0e222d",
"fX c #0e2241",
"dl c #0e5b9b",
"ei c #0e78fa",
"bK c #0f0f10",
"dO c #0f507d",
"gU c #0f5da6",
"ca c #0f80ff",
"bM c #0f96ff",
"b0 c #0f9df7",
"ah c #0fbf41",
"kd c #110b11",
"cC c #117532",
"bs c #11b9f7",
"gm c #11d552",
"e2 c #121212",
"hn c #124680",
"jT c #124b59",
"do c #12544d",
"gS c #1255c4",
"gO c #12a816",
"i. c #130d13",
"#d c #131313",
"h3 c #132a3d",
"cz c #1388ff",
"d0 c #138dff",
".p c #141414",
"c# c #147ec9",
"fs c #151515",
"id c #15232a",
"fW c #154376",
"jS c #15472e",
"bN c #1594ff",
"#Q c #15efc8",
"ka c #160f16",
"cU c #16333b",
"fq c #172226",
"fp c #17382a",
"jU c #17448e",
"bp c #174b6d",
"dA c #17c0ff",
"fC c #181118",
"cV c #182d2d",
"cS c #191e1f",
".1 c #19a0ff",
"d1 c #19db90",
"dG c #1a1e20",
"#8 c #1a2219",
"f# c #1b141d",
"e1 c #1b212a",
"eX c #1b2323",
"j# c #1b2d46",
"dz c #1b9cff",
".N c #1c1c1c",
"aB c #1c261a",
"gl c #1ca630",
"aF c #1cd8cd",
"ev c #1d2022",
"#F c #1d2925",
"eW c #1d302b",
"iK c #1d5ea7",
"cb c #1d8dff",
"ek c #1d92ff",
"fU c #1d9c41",
"gp c #1e55a0",
"iG c #1f2d3f",
"jv c #1f3152",
"h4 c #1f496d",
"hA c #1f588e",
"ag c #1feb5d",
"el c #201721",
"bo c #202020",
"jw c #203555",
"a8 c #20d9e0",
"h1 c #211721",
"co c #21aeff",
"gN c #21d74b",
"aG c #21dd3c",
"az c #222422",
"b4 c #222623",
"g9 c #2267a8",
"go c #227bf4",
"bt c #22e4d4",
"er c #232323",
"ez c #242424",
"d7 c #242d35",
"ie c #243751",
"hI c #243819",
"jc c #245aa4",
"f. c #2481ea",
"ju c #253560",
"br c #25a5ff",
"ap c #262626",
"hP c #2665ac",
"hR c #2666ae",
"bL c #26709e",
"eJ c #268af0",
"gk c #26ac14",
"eV c #274635",
"hO c #2763ad",
"bO c #279cff",
"gj c #27df52",
"kV c #281d28",
"cr c #282a29",
"dj c #283236",
"ja c #284d7c",
"hz c #285c88",
"#c c #292929",
"fr c #29292a",
"cu c #29363b",
"hk c #296ab3",
"bq c #29a1fe",
".Z c #29b1ff",
"a9 c #29f34b",
"hH c #2a1f2a",
"aP c #2a2a2a",
"hm c #2a64a6",
"eM c #2b202b",
"bh c #2b2b2b",
"cQ c #2b2e2a",
"jV c #2b538b",
".0 c #2bb2ff",
"#L c #2bcfff",
"f7 c #2c202c",
"fa c #2d212d",
"eY c #2d2d2d",
"aA c #2d342c",
"ii c #2d6bb1",
"g7 c #2e222e",
"jq c #2e2331",
"jx c #2e5186",
"hM c #2e5fa2",
"jb c #2e63a3",
"gR c #2e93e0",
"gE c #2f232f",
"gL c #2f282c",
"dy c #2fa9ff",
"he c #312531",
"iJ c #316bad",
"hL c #31816d",
"fn c #318446",
"a5 c #31a3ec",
"gn c #31afff",
"fE c #322331",
"#A c #323232",
"ic c #325337",
"fo c #325d3e",
"hB c #325d85",
"hN c #3261a2",
"dd c #333330",
".M c #333333",
"jW c #335382",
"jy c #3361a0",
"em c #342834",
"cT c #344e52",
"iH c #34527a",
"ga c #352835",
"gP c #35cb4e",
"## c #363636",
"hQ c #366fb0",
"b1 c #36733e",
"hu c #372a37",
"#E c #373737",
"hJ c #375b2a",
"kc c #382b38",
"cw c #383838",
"j. c #385477",
"g8 c #38719b",
"ae c #38dfee",
"af c #38f689",
"d8 c #393939",
"fj c #3a2e3b",
"#b c #3a3a3a",
"hK c #3a7a33",
"#Z c #3b3b3b",
"fT c #3bbd3b",
"ay c #3c3c3c",
"ey c #3c3e41",
"#9 c #3d6952",
"ej c #3db4ff",
"dE c #3e3e3a",
"#a c #3f3f3f",
"jt c #3f5945",
"iI c #3f74af",
"eP c #403541",
"eq c #403a42",
"ih c #4175b5",
"#P c #41d4ff",
"gQ c #41ef5a",
"#0 c #424242",
"#B c #434343",
"cM c #43c8ff",
"fR c #43e265",
"dg c #444444",
"if c #4472a7",
"aq c #454545",
"dJ c #45474a",
"#p c #45aeff",
"hj c #45af83",
"j7 c #463b47",
"aQ c #464646",
"#1 c #474747",
"cs c #47504d",
"i9 c #4768a5",
"a7 c #47bcff",
"ep c #483e4a",
"#7 c #484848",
"h. c #4887b7",
"#C c #494949",
"ig c #4978b9",
"aa c #49ac80",
"fm c #49c051",
"fD c #4a3649",
"ar c #4a4a4a",
"a. c #4ac5a4",
"fS c #4ad13f",
"a# c #4ae7c4",
"fb c #4b374b",
"eQ c #4b434d",
"#2 c #4b4b4b",
"#G c #4b8060",
"b5 c #4c4c4c",
"f8 c #4d394d",
"#D c #4d4d4d",
"cW c #4d4f4e",
"a6 c #4dc2ff",
"aR c #4e4e4e",
"gb c #4f4852",
"as c #4f4f4f",
"fN c #504a53",
"b9 c #505050",
"iv c #506172",
"#3 c #515151",
"eU c #516f42",
"i4 c #517a79",
"i8 c #517e89",
"dY c #51c4ff",
"ir c #524d55",
"i6 c #528546",
"aS c #535353",
"dF c #545454",
"iF c #547aa0",
"gG c #547f9d",
"gA c #554155",
"at c #555555",
"dB c #55f7e2",
"#. c #565656",
"jr c #56706c",
"aC c #56b6c8",
"fc c #574257",
"#4 c #575757",
"aT c #585858",
"d2 c #58cdfe",
"eN c #594459",
"#6 c #595959",
"i# c #597549",
"#Y c #5a5a5a",
"iE c #5a859e",
"#O c #5ac2fe",
"bi c #5b5b5b",
"i5 c #5b8543",
"#5 c #5c5c5c",
"#o c #5cbffe",
"aE c #5ccefe",
"g4 c #5d485e",
"de c #5d5d5d",
"aU c #5e5e5e",
"js c #5e7b47",
"ad c #5ebcfe",
"#K c #5ec0fe",
"au c #5f5f5f",
"i7 c #5f9445",
"es c #606060",
"cP c #609ba2",
"bj c #616161",
"i3 c #626567",
"g3 c #634e64",
"aV c #636363",
"eO c #655066",
"av c #656565",
"ia c #658450",
"ib c #65924b",
"k# c #665167",
"bk c #666666",
"#n c #66bcfe",
"h9 c #675268",
"df c #676767",
"aW c #686868",
"kw c #686c6d",
"fd c #69556a",
"ax c #696969",
"gH c #698ca7",
"aw c #6a6a6a",
"aD c #6ac1fe",
"hi c #6aee6d",
"h# c #6b7070",
"aX c #6c6c6c",
"gI c #6c7070",
"hx c #6d5b6f",
"et c #6d6d6d",
"iW c #6d7070",
"hf c #6dad4f",
"bE c #6e6e6e",
"hC c #6e7373",
"#N c #6edefe",
"hv c #6f5d71",
"a1 c #6f6f6f",
"iw c #6f7473",
".9 c #707070",
"d4 c #707e74",
"iD c #70aa6d",
".Y c #70cafe",
"#M c #70fee1",
"jQ c #715f73",
"aY c #717171",
"g# c #726176",
"bF c #727272",
"hg c #72d861",
"b2 c #737373",
"a2 c #747474",
"aZ c #757575",
"dc c #75b2b9",
"a0 c #767676",
"#z c #777777",
"fO c #77b452",
"eu c #787878",
"dK c #797979",
"fe c #7a6a7d",
"bl c #7a7a7a",
"cq c #7a8c60",
"ky c #7b6c7f",
"cR c #7b7b7b",
"eT c #7b7f7e",
"hG c #7c6d80",
"iy c #7d6f81",
"bH c #7d7d7d",
"gg c #7d8280",
"a3 c #7e7e7e",
"iB c #7e9e72",
"ct c #7eafb1",
"#m c #7ec0fe",
"bn c #7f7f7f",
"en c #7fcdda",
"ac c #7ff1ef",
"bm c #808080",
"jI c #808383",
"gD c #817686",
"bI c #818181",
"hh c #81f167",
"fQ c #81fbac",
"hZ c #827787",
"cv c #828282",
".L c #838383",
"b7 c #848484",
"bJ c #858585",
"iC c #85c35c",
".X c #85d8f3",
"dC c #85e3ff",
"eR c #867d8c",
"b8 c #868686",
"ff c #877e8c",
"g6 c #877f8d",
"b6 c #878787",
"d# c #87dcff",
"cX c #888888",
".W c #88ddea",
"cp c #88efd3",
"jO c #89828f",
".U c #89e1e9",
"g. c #8b8491",
"eS c #8b8592",
"iA c #8b9b6b",
"db c #8be5ff",
"bG c #8c8c8c",
"fg c #8d8793",
"h8 c #8e8995",
"k. c #8f8a96",
"j8 c #8f9190",
"gM c #8fe66d",
"is c #908c97",
"fJ c #918d98",
"iS c #918e99",
"eo c #91b5c8",
"gi c #92fb84",
"hw c #95949d",
"jP c #97969e",
"fK c #9898a0",
".V c #98dfe6",
"ab c #9ac27a",
"b3 c #9b9b9b",
"iT c #9b9ca3",
"dD c #9bc6b3",
"#J c #9edbfe",
"fk c #9fd86d",
"fF c #a0a3a8",
"fL c #a1a4a9",
"fl c #a1d965",
"gh c #a1e25b",
"it c #a2a6ab",
"iU c #a3a7ab",
"fh c #a4a9ad",
"#H c #a5d9a0",
"fi c #a6abae",
"d3 c #a6ebfe",
"fM c #a7acaf",
"gB c #a8adb0",
"gc c #a8aeb1",
"gd c #abb1b3",
"fI c #acb2b4",
"cN c #ace3fa",
"kx c #adb3b5",
"hd c #adb4b6",
"jl c #aeb5b6",
"jm c #afb6b6",
"#I c #aff1e4",
"jJ c #b0b6b7",
"fP c #b0f077",
"hF c #b1b7b8",
"gC c #b2b8b9",
"da c #b3ffb1",
"jK c #b4baba",
"h0 c #b5bbbb",
"f9 c #b6bdbd",
"ge c #b6bebe",
"ha c #b7bfbf",
"iV c #bbc3c2",
"#l c #bcd9fe",
"iX c #bdc5c4",
"gJ c #c0c8c7",
"jn c #c2cac8",
"hb c #c3cbc9",
"hD c #c4ccca",
"jL c #c6cdcc",
"h5 c #c7cecc",
"#j c #c9ecf3",
"iY c #ccd2d0",
"jM c #cdd4d2",
"jo c #cfd6d4",
"h7 c #d0d7d5",
"#h c #d0e9f4",
"#i c #d0ebf4",
"fH c #d1d8d6",
"h6 c #d3dad8",
"gf c #d4dbd9",
"hE c #d8dddb",
"hc c #d9dedc",
"iZ c #dbe0de",
"jp c #dbe1df",
"#g c #dce4e8",
"cO c #dcfea0",
"fG c #dee3e1",
"gK c #dfe4e2",
"jN c #e0e5e3",
"g5 c #e1e6e4",
"i0 c #e2e6e5",
"#k c #e6eef2",
"i1 c #f4f6f5",
"j9 c #f8f9f8",
"ix c #f9fafa",
"i2 c #ffffff",
"QtQtQt.#.a.bQtQtQtQtQt.c.d.e.f.g.h.i.j.k.l.mQtQtQtQtQtQtQtQtQtQtQtQt",
"QtQt.n.o.p.q.r.sQt.t.u.v.w.x.y.z.A.B.C.D.E.F.G.H.IQtQtQtQtQtQtQtQtQt",
"Qt.J.K.L.M.N.O.P.Q.R.S.T.U.V.W.X.Y.Z.0.1.2.3.4.5.6.7QtQtQtQtQtQtQtQt",
"Qt.8.9#.###a#b#c#d#e#f#g#h#i#j#k#l#m#n#o#p#q#r#s#t#u#v#wQtQtQtQtQtQt",
"#x#y#z#A#a#B#C#D#C#E.N#F#G#H#I#J#K#L#M#N#O#P#Q#R#S#T#U#V#WQtQtQtQtQt",
"#X#Y#a#Z#0#1#2#3#4#5#6#7#c#8#9a.a#aaabacadaeafagahaiajakalamQtQtQtQt",
"anaoap#aaqarasat#Yauavawax#6ayazaA#BaBaCaDaE.0aFaGaHaIaJaKaLaMQtQtQt",
"QtaNaOaPaQaRaSaTaUaVaWaXaYaZa0a1a2a3##a4a5a6a7a8a9b.b#babbbcbdbeQtQt",
"QtQtbfbgbh#D#4bibjbkaX.9a2a0blbmbnbma2bobpbqbrbsbtbubvbwbxbybzbAQtQt",
"QtQtbBbCbDbhaSauaVaWbEbFaZbmbGa0bHbIbJbkbKbLbMbNbObPbQbRbSbTbUbVbWQt",
"QtbXbYbZb0b1#caTbkawa1b2#zb3aUb4b5b6b7b8b9c.c#cacbcccdcecfcgchcicjck",
"QtclcmcncocpcqcrbiaXa1b2bHaWcsctcub2b6b8cvcwcxcyczcAcBcCcDcEcFcGcHcI",
"QtcJcKcLcMcNcOcPcQbi.9b2cRb9cScTcUcVcWbHcX#zbocYcZc0c1c2c3c4c5c6c7cI",
"Qtc8c9d.cod#dadbdcdd#4bFaZb2dedfdgdhdidjdfbJavdkdldmdndodpdqdrdsdtdu",
"QtdvdwdxdydzdAdBdCdDdE.9aZa0blbHcRdFdGdHdIdJdKb9dLdMdNdOdPdQdRdSdTdU",
"QtdVdWdXdYdZd0d1d2d3d4#3av.9#zdKcRbHaX#Ed5d6d7aud8d9e.e#eaebecedeeef",
"Qtegeheiejcnekelemeneoepeqer#b#3eseteudKaTevewexeyezeAeBeCeDeEeFeGef",
"QteHeIeJeKeLeMeNeOePeQeReSeTeUeVeWeXeYdgbiaU#ZeZe0e1e2e3e4e5e6e7eGef",
"Qte8e9f.f#fafbfcfdfefffgfhfifjfkflfmfnfofpfqfreYfsftfufvfwfxfyfzeGef",
"QtfAfBfCfDfEfFfGfHfIfJfKfLfMfNfOfPfQfRfSfTfUfVfWfXfYfZf0f1f2f3f4eeef",
"Qtf5f6f7f8fGf9g.g#gagbgcgdgegfggghgigjgkglgmgngogpgqgrgsgtgugvgwgxdU",
"QtgygzgAgBgCgDgEgFgGgHgIgegJgKgegLgMgNgOgPgQgRgSgTgUgVgWgXgYgZg0g1cj",
"Qtg2g3g4g5g6g7g8g9h.h#hahbhchbhdhehfhghhhihjhkhlgThmhnhohphqhrhshtcI",
"QthuhvhwgChxhyhzhAhBhChDhEhFfJhGhHhIhJhKhLhMhNhOhPhQhRhShThUhVhWhXcI",
"QthYfehZh0h1h2h3h4hCh5h6h7h8h9i.i#iaibicidieifigihiiijikiliminioipQt",
"Qtiqirisith1iuiviwh5h7g5ixiyiziAiBiCiDiEiFiGiHiIiJiKiLiMiNiOiPiQbWQt",
"QtiRiSiTiUiViWiXiYiZi0i1i2i3i4i5i6i7i8i9j.j#jajbjcjdjejfjgjhjijjQtQt",
"QtjkfKjljmgejnjojpgfi2i2hdiTjqjrjsjtjujvjwjxjyjzjAjBjCjDjEjFjGQtQtQt",
"QtjHjIjJjKjLjMjNhdfJjOjmjPjQi.jRjSjTjUjVjWjXjYjZj0j1j2j3j4j5amQtbWck",
"Qt.bj6j7fNj8j9jnk.k#kakbkckdkekfkgkhkikjkkklkmknkokpkqkrksaMQtQtbWck",
"QtQt.bktkukvkwkxkyi.kzkAkBkCkDkEkFkGkHkIkJkKkLkMkNkOkPkQamQtQtQtkRck",
"QtQtQt.bkSkTkUgEkVkWkXkYkZk0k1k2k3k4k5k6k7k8k9l.gxhtbAQtQtQtQtQtQtQt",
"QtQtQtQtQtQtiql#kvlalblckPldlelflglhliljlklllmlnefcjamQtQtQtQtQtQtQt",
"QtQtQtQtQtQt.biqkTkSlocIcjdudUlplqlqlqlpefdUcjcIcIckckQtQtQtQtQtQtQt"};
