/* XPM */
static char *avgfilt[]={
"32 32 245 2",
"#4 c None",
"Qt c None",
".k c #000000",
"bE c #000002",
"ba c #000101",
".Y c #010001",
"a6 c #010304",
"#d c #03060c",
"#w c #050b12",
".I c #05151e",
"#n c #060f19",
"aX c #06101d",
".w c #06141d",
".B c #06141f",
".q c #071620",
"al c #071728",
"aM c #07182a",
"bW c #071c2c",
"bV c #081c2d",
"#9 c #081e31",
"#5 c #0a121f",
"bU c #0a1929",
"bm c #0a263b",
"bx c #0a273b",
".X c #0b293e",
".j c #0d324c",
".P c #0d3652",
".U c #0e5775",
"#. c #0e8fb6",
".R c #0e94b9",
".F c #0e97bf",
"#l c #0e9ec3",
"aJ c #0ea0c5",
".y c #0eadcb",
"b# c #0f5d7e",
"#m c #0fa0c4",
"aW c #105375",
"#c c #106589",
"#L c #10698f",
".V c #114560",
"a7 c #114760",
"bj c #1197b9",
"aU c #124c6d",
".g c #124d6f",
"aK c #1290b5",
".T c #1299bb",
"bM c #131516",
"aL c #135476",
"aj c #1390b4",
".W c #144059",
"bP c #14839f",
"#v c #14a5c9",
"#6 c #155474",
"ak c #155678",
"ay c #155a7a",
"b. c #159abc",
"## c #15c1da",
"#8 c #17587a",
"bG c #178eac",
".i c #18425f",
"ah c #194a6a",
"aI c #19b3ce",
"au c #1b4b6a",
"aG c #1b4f6f",
".S c #1bbad1",
"#b c #1ca2c3",
"bS c #1f1a17",
".H c #1f95b2",
"a5 c #20374f",
"bl c #2294b1",
"a9 c #22bad1",
".h c #254a64",
"bu c #26251f",
".A c #2695b1",
"bw c #2a98b3",
"bT c #2b211c",
".v c #2b91ae",
"bF c #2cc7d5",
"bX c #2e2e2f",
".6 c #337f9e",
"bI c #342b1d",
"bL c #382f24",
"ax c #3cd7e1",
".z c #40d1db",
"bk c #43d5de",
"bD c #443e37",
".G c #46dbe6",
"#a c #48dfe9",
"bR c #4a4533",
"bY c #4f4a37",
".9 c #54bdd7",
"bO c #58acc5",
"aw c #59c3da",
"bh c #5c4c36",
".t c #5fc0d8",
"bC c #644533",
".p c #64a3bd",
"bt c #675242",
"bJ c #6e4c36",
"aH c #71d1e0",
".J c #764e2a",
".# c #764f2b",
"#e c #7b5128",
"bK c #7b5848",
".5 c #803a04",
"bg c #804f2f",
".Z c #805430",
"bB c #805a42",
"bH c #807255",
"bN c #80c2db",
"#7 c #819eba",
"bs c #834f31",
"a4 c #83542f",
"#o c #835829",
"#x c #885a2f",
".u c #8fcce2",
"aT c #94511c",
"br c #965534",
"bf c #9c5630",
"a8 c #9ddeee",
".m c #a0cbdf",
"a3 c #a15e3a",
"#M c #a35e28",
".8 c #a7dcec",
".O c #a84f04",
"#3 c #aa5004",
"aS c #ab6539",
"#E c #af723a",
"by c #b48e6c",
"bQ c #b79f7c",
"#2 c #b85904",
"#U c #b8824c",
"aF c #bb602e",
".Q c #bfdfee",
"aD c #c18064",
".E c #c35f04",
"aR c #c57e5d",
"aE c #c76227",
"be c #c77e5c",
"bA c #c7825b",
"a2 c #cc8062",
"bi c #cdebf6",
"bq c #d18260",
".o c #d3e5f0",
"bz c #db9770",
"aC c #dc946e",
"ai c #ddeff8",
".7 c #dfeff8",
"aq c #e07950",
".s c #e0f1fb",
"a1 c #e29a7e",
"aV c #e2f0f9",
"ad c #e37630",
"ar c #e56430",
"aQ c #e69e7c",
"at c #e76d24",
"#V c #e99d53",
"#N c #e99d54",
"ag c #ea7a00",
".a c #ea9d53",
"#p c #ea9d54",
"bp c #eaa282",
".0 c #eb9d53",
".K c #eb9d54",
"bd c #eb9e77",
"#T c #ec7804",
"#1 c #ee7a04",
".n c #eff3fc",
"ae c #f1780a",
"#K c #f17b04",
"ap c #f1ad8c",
"as c #f3712f",
".2 c #f6ddae",
".M c #f6eab7",
"ac c #f7ac84",
"#g c #f7deb0",
"bc c #f8d1be",
"aB c #f9b99a",
".D c #f9efbc",
"a. c #fab28f",
".x c #fb8104",
".C c #fbb168",
"#y c #fbb169",
"aY c #fbb490",
".L c #fcb269",
"#F c #fcb26a",
"#i c #fd7d00",
"#B c #fd7e00",
"#Z c #fd7f00",
"#t c #fd8300",
"#j c #fd8400",
".f c #fd8401",
"#R c #fd8500",
"#C c #fd8504",
"#Q c #fd932e",
"#Y c #fd9524",
"#H c #fd982e",
"#A c #fda141",
".d c #fda732",
"#O c #fdb36a",
".b c #fdb46a",
"#W c #fdb47e",
"bn c #fdb492",
"#X c #fdbe7a",
"#P c #fdd49c",
"#z c #fddcb1",
"bv c #fdfafd",
"av c #fdfcfd",
"#s c #fe7f00",
"#S c #fe8604",
".e c #fe8800",
"#I c #fe8804",
"#f c #feb369",
".1 c #feb36a",
"#G c #fecd9f",
"#q c #fed7b7",
"af c #ff7b16",
".l c #ff8601",
"#u c #ff8701",
".4 c #ff8900",
"#0 c #ff8b04",
"#D c #ff8c01",
"#J c #ff8e04",
".r c #ff9101",
"#r c #ffa030",
"#h c #ffa036",
".3 c #ffa13a",
".N c #ffa630",
"ab c #ffc0a0",
"aP c #ffc9ad",
"a0 c #ffc9b0",
"am c #ffd0a8",
"aA c #ffd1b1",
"bb c #ffd2aa",
"aN c #ffd3aa",
"ao c #ffd7b5",
"bo c #ffe1c9",
"aO c #ffeace",
"aa c #ffeed8",
"aZ c #fff5dc",
"an c #fff7df",
".c c #fffecc",
"a# c #fffff4",
"az c #fffff5",
"#k c #ffffff",
"QtQtQtQtQtQtQtQtQtQtQtQtQtQtQtQtQtQtQtQtQtQtQtQtQtQt.#.a.b.c.d.e",
"QtQtQtQtQtQtQtQtQtQtQtQtQtQtQtQtQtQtQtQtQtQtQtQtQt.#.a.b.c.d.e.f",
"QtQtQtQt.g.g.g.h.i.j.k.kQtQtQtQtQtQtQtQtQtQtQtQt.#.a.b.c.d.e.f.l",
"QtQtQtQt.g.m.n.o.p.q.k.kQtQtQtQtQtQtQtQtQtQtQt.#.a.b.c.d.e.f.l.r",
"QtQtQtQt.g.s.t.u.v.w.k.kQtQtQtQtQtQtQtQtQtQt.#.a.b.c.d.e.f.l.r.x",
"QtQtQtQt.g.n.y.z.A.B.k.kQtQtQtQtQtQtQtQtQt.#.a.C.D.d.e.f.l.r.x.E",
"QtQtQtQt.h.s.F.G.H.I.k.kQtQtQtQtQtQtQtQt.J.K.L.M.N.e.f.l.r.x.E.O",
".P.g.g.h.h.Q.R.S.T.U.V.W.X.Y.k.kQtQtQt.Z.0.1.2.3.4.f.l.r.x.E.O.5",
".k.P.6.7.8.9#..F###a#b#c#d.k.k.kQtQt#e.a#f#g#h#i#j.l.r.x.E.O.5.k",
".k.k.P.6#k#l.F#m#a#b#c#n.k.k.k.kQt#o#p#f#q#r#s#t#u.r.x.E.O.5.kQt",
"Qt.k.k.P.6#k#v#a#b#c#w.k.k.k.kQt#x#p#y#z#A#B#j#C#D.x.E.O.5.kQtQt",
"QtQt.k.k.P.6.7#b#c#w.k.k.k.kQt#E.a#F#G#H#B#j#I#J#K.E.O.5.kQtQtQt",
"QtQtQt.k.k.P#L#c#n.k.k.k.kQt#M#N#O#P#Q#i#R#S#J#T.E.O.5.kQtQtQtQt",
"QtQtQtQt.k.k.P#d.k.k.k.kQt#U#V#W#X#Y#Z#R#S#0#1#2#3.5.kQtQtQtQtQt",
"#4#4.k.k.k.k.k.k.k.k.k.k.k.k.k.k.k.k.k.k.k.k.k.k.k.k.k.k.k.k#4#4",
"#4#4.k.k.k.k.k.k.k.k.k.k.k.k.k.k.k.k.k.k.k.g#5.k.k.k.k.k.k.k#4#4",
"#4#4.k.k.k.k.k.k.k.k.k.k.k.k.k.k.k.k.k.k#6#7#8#9.k.k.k.k.k.k#4#4",
"#4#4QtQtQtQtQtQtQtQta.a#aaabacadaeafagah#7aiajakal.k.kQtQtQt#4Qt",
"QtQtQtQtQtQtQtQtQtQtamanaoapaqarasatau#7avawaxajayal.k.kQtQtQtQt",
"QtQtQtQtQtQtQtQtQta.azaAaBaCaDaEaFaG#7avaHaIaJ#aaKaLaM.k.kQtQtQt",
"QtQtQtQtQtQtQtQtQtaNaOaPaQaRaSaTaU#7aVawaI.F.FaJax#baWaX.k.kQtQt",
"QtQtQtQtQtQtQtQtaYaZa0a1a2a3a4aWa5a6.ka7a8.Fa9b.b#ba.k.k.k.k.kQt",
"QtQtQtQtQtQtQtQtbbbcbdbebfbgbh.k.k.k.kaWbibjbkblbm.k.k.k.k.k.kQt",
"QtQtQtQtQtQtQtbnbobpbqbrbsbtbu.k.k.k.kaWbvbjbkbwbx.k.k.k.k.k.kQt",
"QtQtQtQtQtQtQtbybzbAbBbCbDbEQtQtQtQtQtaWbibjbFbGbx.k.kQtQtQtQtQt",
"QtQtQtQtQtQtbHbIbJbKbLbMQtQtQtQtQtQtQtaWbNbOa9bP.k.k.kQtQtQtQtQt",
"QtQtQtQtQtbQbRbSbT.kQtQtQtQtQtQtQtQtQtaWbUbVbW.k.k.k.kQtQtQtQtQt",
"QtQtQtQtQtbX.k.kQtQtQtQtQtQtQtQtQtQtQt.k.k.k.k.k.k.k.kQtQtQtQtQt",
"QtQtQtQtQtbYQtQtQtQtQtQtQtQtQtQtQtQtQt.k.k.k.k.k.k.k.kQtQtQtQtQt",
"QtQtQtQtQtQtQtQtQtQtQtQtQtQtQtQtQtQtQtQtQtQtQtQtQtQtQtQtQtQtQtQt",
"QtQtQtQtQtQtQtQtQtQtQtQtQtQtQtQtQtQtQtQtQtQtQtQtQtQtQtQtQtQtQtQt",
"QtQtQtQtQtQtQtQtQtQtQtQtQtQtQtQtQtQtQtQtQtQtQtQtQtQtQtQtQtQtQtQt"};
