/* XPM */
static char *avgfilt_otf[]={
"32 32 246 2",
"#5 c None",
"Qt c None",
".l c #000000",
"bF c #000002",
"bb c #000101",
".Z c #010001",
"a7 c #010304",
"#e c #03060c",
"#x c #050b12",
".J c #05151e",
"#o c #060f19",
"aY c #06101d",
".x c #06141d",
".C c #06141f",
".r c #071620",
"am c #071728",
"aN c #07182a",
"bX c #071c2c",
"bW c #081c2d",
"a. c #081e31",
"#6 c #0a121f",
"bV c #0a1929",
"bn c #0a263b",
"by c #0a273b",
".Y c #0b293e",
".k c #0d324c",
".Q c #0d3652",
".V c #0e5775",
"## c #0e8fb6",
".S c #0e94b9",
".G c #0e97bf",
"#m c #0e9ec3",
"aK c #0ea0c5",
".z c #0eadcb",
"ba c #0f5d7e",
"#n c #0fa0c4",
"aX c #105375",
"#d c #106589",
"#M c #10698f",
".W c #114560",
"a8 c #114760",
"bk c #1197b9",
"aV c #124c6d",
".h c #124d6f",
"aL c #1290b5",
".U c #1299bb",
"bN c #131516",
"aM c #135476",
"ak c #1390b4",
".X c #144059",
"bQ c #14839f",
"#w c #14a5c9",
"#7 c #155474",
"al c #155678",
"az c #155a7a",
"b# c #159abc",
"#a c #15c1da",
"#9 c #17587a",
"bH c #178eac",
".j c #18425f",
"ai c #194a6a",
"aJ c #19b3ce",
"av c #1b4b6a",
"aH c #1b4f6f",
".T c #1bbad1",
"#c c #1ca2c3",
"bT c #1f1a17",
".I c #1f95b2",
"a6 c #20374f",
"bm c #2294b1",
"b. c #22bad1",
".i c #254a64",
"bv c #26251f",
".B c #2695b1",
"bx c #2a98b3",
"bU c #2b211c",
".w c #2b91ae",
"bG c #2cc7d5",
"bY c #2e2e2f",
".7 c #337f9e",
"bJ c #342b1d",
"bM c #382f24",
"ay c #3cd7e1",
".A c #40d1db",
"bl c #43d5de",
"bE c #443e37",
".H c #46dbe6",
"#b c #48dfe9",
"bS c #4a4533",
"bZ c #4f4a37",
"#. c #54bdd7",
"bP c #58acc5",
"ax c #59c3da",
"bi c #5c4c36",
".u c #5fc0d8",
"bD c #644533",
".q c #64a3bd",
"bu c #675242",
"bK c #6e4c36",
"aI c #71d1e0",
".K c #764e2a",
".a c #764f2b",
"#f c #7b5128",
"bL c #7b5848",
".# c #800000",
".6 c #803a04",
"bh c #804f2f",
".0 c #805430",
"bC c #805a42",
"bI c #807255",
"bO c #80c2db",
"#8 c #819eba",
"bt c #834f31",
"a5 c #83542f",
"#p c #835829",
"#y c #885a2f",
".v c #8fcce2",
"aU c #94511c",
"bs c #965534",
"bg c #9c5630",
"a9 c #9ddeee",
".n c #a0cbdf",
"a4 c #a15e3a",
"#N c #a35e28",
".9 c #a7dcec",
".P c #a84f04",
"#4 c #aa5004",
"aT c #ab6539",
"#F c #af723a",
"bz c #b48e6c",
"bR c #b79f7c",
"#3 c #b85904",
"#V c #b8824c",
"aG c #bb602e",
".R c #bfdfee",
"aE c #c18064",
".F c #c35f04",
"aS c #c57e5d",
"aF c #c76227",
"bf c #c77e5c",
"bB c #c7825b",
"a3 c #cc8062",
"bj c #cdebf6",
"br c #d18260",
".p c #d3e5f0",
"bA c #db9770",
"aD c #dc946e",
"aj c #ddeff8",
".8 c #dfeff8",
"ar c #e07950",
".t c #e0f1fb",
"a2 c #e29a7e",
"aW c #e2f0f9",
"ae c #e37630",
"as c #e56430",
"aR c #e69e7c",
"au c #e76d24",
"#W c #e99d53",
"#O c #e99d54",
"ah c #ea7a00",
".b c #ea9d53",
"#q c #ea9d54",
"bq c #eaa282",
".1 c #eb9d53",
".L c #eb9d54",
"be c #eb9e77",
"#U c #ec7804",
"#2 c #ee7a04",
".o c #eff3fc",
"af c #f1780a",
"#L c #f17b04",
"aq c #f1ad8c",
"at c #f3712f",
".3 c #f6ddae",
".N c #f6eab7",
"ad c #f7ac84",
"#h c #f7deb0",
"bd c #f8d1be",
"aC c #f9b99a",
".E c #f9efbc",
"a# c #fab28f",
".y c #fb8104",
".D c #fbb168",
"#z c #fbb169",
"aZ c #fbb490",
".M c #fcb269",
"#G c #fcb26a",
"#j c #fd7d00",
"#C c #fd7e00",
"#0 c #fd7f00",
"#u c #fd8300",
"#k c #fd8400",
".g c #fd8401",
"#S c #fd8500",
"#D c #fd8504",
"#R c #fd932e",
"#Z c #fd9524",
"#I c #fd982e",
"#B c #fda141",
".e c #fda732",
"#P c #fdb36a",
".c c #fdb46a",
"#X c #fdb47e",
"bo c #fdb492",
"#Y c #fdbe7a",
"#Q c #fdd49c",
"#A c #fddcb1",
"bw c #fdfafd",
"aw c #fdfcfd",
"#t c #fe7f00",
"#T c #fe8604",
".f c #fe8800",
"#J c #fe8804",
"#g c #feb369",
".2 c #feb36a",
"#H c #fecd9f",
"#r c #fed7b7",
"ag c #ff7b16",
".m c #ff8601",
"#v c #ff8701",
".5 c #ff8900",
"#1 c #ff8b04",
"#E c #ff8c01",
"#K c #ff8e04",
".s c #ff9101",
"#s c #ffa030",
"#i c #ffa036",
".4 c #ffa13a",
".O c #ffa630",
"ac c #ffc0a0",
"aQ c #ffc9ad",
"a1 c #ffc9b0",
"an c #ffd0a8",
"aB c #ffd1b1",
"bc c #ffd2aa",
"aO c #ffd3aa",
"ap c #ffd7b5",
"bp c #ffe1c9",
"aP c #ffeace",
"ab c #ffeed8",
"a0 c #fff5dc",
"ao c #fff7df",
".d c #fffecc",
"aa c #fffff4",
"aA c #fffff5",
"#l c #ffffff",
"QtQt.#QtQtQtQtQtQtQtQt.#QtQtQtQtQtQtQtQt.#QtQtQtQtQt.a.b.c.d.e.f",
"QtQt.#QtQtQtQtQtQtQtQt.#QtQtQtQtQtQtQtQt.#QtQtQtQt.a.b.c.d.e.f.g",
".#.#.#.#.h.h.h.i.j.k.l.l.#.#.#.#.#.#.#.#.#.#.#.#.a.b.c.d.e.f.g.m",
"QtQt.#Qt.h.n.o.p.q.r.l.lQtQtQtQtQtQtQtQt.#QtQt.a.b.c.d.e.f.g.m.s",
"QtQt.#Qt.h.t.u.v.w.x.l.lQtQtQtQtQtQtQtQt.#Qt.a.b.c.d.e.f.g.m.s.y",
"QtQt.#Qt.h.o.z.A.B.C.l.lQtQtQtQtQtQtQtQt.#.a.b.D.E.e.f.g.m.s.y.F",
"QtQt.#Qt.i.t.G.H.I.J.l.lQtQtQtQtQtQtQtQt.K.L.M.N.O.f.g.m.s.y.F.P",
".Q.h.h.i.i.R.S.T.U.V.W.X.Y.Z.l.lQtQtQt.0.1.2.3.4.5.g.m.s.y.F.P.6",
".l.Q.7.8.9#.##.G#a#b#c#d#e.l.l.lQtQt#f.b#g#h#i#j#k.m.s.y.F.P.6.l",
".l.l.Q.7#l#m.G#n#b#c#d#o.l.l.l.lQt#p#q#g#r#s#t#u#v.s.y.F.P.6.lQt",
".#.l.l.Q.7#l#w#b#c#d#x.l.l.l.l.##y#q#z#A#B#C#k#D#E.y.F.P.6.l.#.#",
"QtQt.l.l.Q.7.8#c#d#x.l.l.l.lQt#F.b#G#H#I#C#k#J#K#L.F.P.6.l.#QtQt",
"QtQt.#.l.l.Q#M#d#o.l.l.l.lQt#N#O#P#Q#R#j#S#T#K#U.F.P.6.lQt.#QtQt",
"QtQt.#Qt.l.l.Q#e.l.l.l.lQt#V#W#X#Y#Z#0#S#T#1#2#3#4.6.lQtQt.#Qt#5",
"#5#5.l.l.l.l.l.l.l.l.l.l.l.l.l.l.l.l.l.l.l.l.l.l.l.l.l.l.l.l#5#5",
"#5#5.l.l.l.l.l.l.l.l.l.l.l.l.l.l.l.l.l.l.l.h#6.l.l.l.l.l.l.l#5#5",
"#5#5.l.l.l.l.l.l.l.l.l.l.l.l.l.l.l.l.l.l#7#8#9a..l.l.l.l.l.l#5#5",
"#5Qt.#QtQtQtQtQtQtQta#aaabacadaeafagahai#8ajakalam.l.lQtQt.#Qt#5",
"QtQt.#QtQtQtQtQtQtQtanaoapaqarasatauav#8awaxayakazam.l.lQt.#Qt#5",
"QtQt.#QtQtQtQtQtQta#aAaBaCaDaEaFaGaH#8awaIaJaK#baLaMaN.l.l.#QtQt",
".#.#.#.#.#.#.#.#.#aOaPaQaRaSaTaUaV#8aWaxaJ.G.GaKay#caXaY.l.l.#.#",
"QtQt.#QtQtQtQtQtaZa0a1a2a3a4a5aXa6a7.la8a9.Gb.b#babb.l.l.l.l.lQt",
"QtQt.#QtQtQtQtQtbcbdbebfbgbhbi.l.l.l.laXbjbkblbmbn.l.l.l.l.l.lQt",
"QtQt.#QtQtQtQtbobpbqbrbsbtbubv.l.l.l.laXbwbkblbxby.l.l.l.l.l.lQt",
"QtQt.#QtQtQtQtbzbAbBbCbDbEbFQtQtQtQtQtaXbjbkbGbHby.l.lQtQt.#QtQt",
"QtQt.#QtQtQtbIbJbKbLbMbNQtQtQtQtQtQtQtaXbObPb.bQ.l.l.lQtQt.#QtQt",
"QtQt.#QtQtbRbSbTbU.lQt.#QtQtQtQtQtQtQtaXbVbWbX.l.l.l.lQtQt.#QtQt",
"QtQt.#QtQtbY.l.lQtQtQt.#QtQtQtQtQtQtQt.l.l.l.l.l.l.l.lQtQt.#QtQt",
"QtQt.#QtQtbZQtQtQtQtQt.#QtQtQtQtQtQtQt.l.l.l.l.l.l.l.lQtQt.#QtQt",
".#.#.#.#.#.#.#.#.#.#.#.#.#.#.#.#.#.#.#.#.#.#.#.#.#.#.#.#.#.#.#.#",
"QtQt.#QtQtQtQtQtQtQtQt.#QtQtQtQtQtQtQtQt.#QtQtQtQtQtQtQtQt.#QtQt",
"QtQt.#QtQtQtQtQtQtQtQt.#QtQtQtQtQtQtQtQt.#QtQtQtQtQtQtQtQt.#QtQt"};
