/* XPM */
static char *clear_filter_contours[]={
"32 32 79 2",
"Qt c None",
".y c #010101",
".m c #ff0101",
".x c #000000",
".S c #050505",
"#j c #070707",
".o c #ff0000",
".7 c #000000",
".0 c #050505",
"#f c #2d2d2d",
"#c c #313131",
"#i c #3b3b3b",
".w c #464646",
"#g c #484848",
".8 c #494949",
".l c #ff0000",
".e c #000000",
".r c #0b0b0b",
".6 c #242424",
".z c #2f2f2f",
".T c #321802",
".J c #343434",
".q c #383838",
".p c #424242",
".L c #494949",
".2 c #4c4c4c",
"#m c #4f4f4f",
".A c #505050",
".1 c #595959",
"#a c #5c5c5c",
"#l c #626262",
".t c #646464",
"## c #656565",
"#. c #676767",
".u c #686868",
".v c #696969",
".U c #727272",
".b c #808080",
".I c #9b9b9b",
"#b c #9c9c9c",
".B c #9d9d9d",
".Z c #9e9e9e",
".i c #a0a0a0",
".M c #a3a3a3",
".V c #a6a6a6",
".C c #a9a9a9",
".s c #aa2a2a",
"#e c #aaaaaa",
".N c #ababab",
".O c #b4b4b4",
"#h c #bababa",
".K c #c05800",
".d c #c0c000",
".9 c #c1c1c1",
".3 c #c28282",
".g c #c3c3c3",
"#k c #c5c5c5",
".R c #c8c8c8",
"#d c #cacaca",
".Y c #cecece",
".H c #d3d3d3",
".W c #da5b5b",
".f c #dcdcdc",
".D c #df5f5f",
".P c #df6060",
".k c #e06000",
".E c #e36363",
".Q c #e46565",
".4 c #e56565",
".F c #e66767",
".5 c #e96969",
".X c #ef3030",
".G c #f43434",
".# c #ff0000",
".n c #ff8000",
".j c #ffa858",
".h c #ffdca8",
".c c #ffff00",
".a c #ffffc0",
"QtQtQtQtQtQtQtQtQtQtQtQtQt.#QtQtQtQtQtQt.#Qt.a.a.a.a.a.b.c.c.c.c",
"QtQtQtQtQtQtQtQtQtQtQtQt.#.#QtQtQtQtQtQt.#.a.a.a.a.a.b.c.c.c.c.c",
"QtQtQtQtQtQtQtQtQtQtQt.#.#QtQtQtQtQtQtQt.a.a.a.a.a.b.c.c.c.c.c.c",
".#QtQtQtQtQtQtQtQtQt.#.#QtQtQtQtQtQtQt.a.a.a.a.a.b.c.c.c.c.c.c.c",
".#QtQtQtQtQtQtQtQtQt.#QtQtQtQtQtQtQt.a.a.a.a.a.b.c.c.c.c.c.c.c.b",
".#.#QtQtQtQtQtQtQtQt.#.#QtQtQtQtQt.a.a.a.a.a.b.c.c.c.c.c.c.c.b.d",
"Qt.#.#QtQtQtQtQtQtQtQt.#QtQtQtQt.a.a.a.a.a.b.c.c.c.c.c.c.c.b.d.d",
"QtQt.#.#QtQtQtQtQtQtQt.#.#QtQt.a.a.a.a.a.b.c.c.c.c.c.c.c.b.d.d.d",
"QtQtQt.#.#QtQtQtQtQtQtQt.#.#.e.a.a.a.a.b.c.c.c.c.c.c.c.b.d.d.d.d",
"QtQtQtQtQt.#QtQtQtQtQtQtQt.f.e.e.a.a.b.c.c.c.c.c.c.c.b.d.d.d.d.d",
"QtQtQtQtQt.#.#QtQtQtQtQt.f.g.g.e.e.b.c.c.c.c.c.c.c.b.d.d.d.d.dQt",
"QtQtQtQtQtQt.#QtQtQtQt.h.e.g.g.i.e.e.c.c.c.c.c.c.b.d.d.d.d.dQtQt",
"QtQtQtQtQtQtQt.#QtQt.h.h.e.e.i.i.i.e.e.c.c.c.c.b.d.d.d.d.d.#QtQt",
"QtQtQtQtQtQtQt.#.#.h.h.h.j.e.e.i.i.i.e.e.c.c.b.d.d.d.d.dQt.#.#Qt",
"QtQtQtQtQtQtQtQt.h.h.j.j.h.j.e.e.i.b.b.e.e.b.d.d.d.d.dQtQtQt.#.#",
"QtQtQtQtQtQtQt.h.h.j.h.h.j.j.j.e.b.b.b.b.e.d.d.d.d.dQtQtQtQtQt.#",
"QtQtQtQtQtQtQt.h.h.j.j.j.j.j.j.e.e.b.b.b.e.e.d.k.k.l.mQtQtQtQtQt",
"QtQtQtQtQtQtQt.h.h.h.j.j.n.j.n.n.e.e.b.b.b.e.e.k.o.l.mQtQtQtQtQt",
"QtQtQtQtQtQtQt.h.j.j.j.j.n.j.n.n.n.e.e.b.p.q.r.s.t.u.v.w.x.yQtQt",
".#.#QtQtQtQtQtQt.j.j.n.j.j.n.n.n.n.n.e.z.A.B.C.D.E.F.G.H.H.I.JQt",
"Qt.#.#.#QtQtQtQt.j.j.j.n.n.n.n.n.n.n.K.L.M.N.O.P.Q.F.G.H.H.H.R.S",
"QtQtQtQt.#.#QtQtQt.j.n.n.n.n.n.n.n.n.K.T.U.V.W.X.R.Y.H.H.H.Z.J.y",
"QtQtQtQtQt.#.#QtQtQt.n.n.n.n.n.n.n.K.KQt.0.1.2.3.4.G.5.t.6.7QtQt",
"QtQtQtQtQtQt.#QtQtQtQt.n.n.n.n.n.K.KQtQtQt.8.9.u#.###a#b#cQtQtQt",
"QtQtQtQtQtQtQt.#QtQtQtQt.n.n.n.K.KQtQtQtQtQt.w.H.H#d#e#fQtQtQtQt",
"QtQtQtQtQtQtQt.#.#QtQtQtQt.K.K.K.#QtQtQtQtQtQt#g.Y#h#iQtQtQtQtQt",
"QtQtQtQtQtQtQtQt.#QtQtQtQtQtQtQt.#QtQtQtQtQtQt#j#k.V.xQtQtQtQtQt",
"QtQtQtQtQtQtQtQt.#QtQtQtQtQtQtQt.#.#QtQtQtQtQt.y#l#m.yQtQtQtQtQt",
".#.#QtQtQtQtQtQt.#QtQtQtQtQtQtQtQt.#QtQtQtQtQtQt.o.oQtQtQtQtQtQt",
"Qt.#.#QtQtQtQtQt.#.#QtQtQtQtQtQtQt.#QtQtQtQtQtQt.o.oQtQtQtQtQtQt",
"QtQt.#QtQtQtQtQt.#.#QtQtQtQtQtQtQt.#QtQtQtQtQtQt.o.oQtQtQtQtQtQt",
"QtQt.#QtQtQtQtQt.#.#QtQtQtQtQtQtQt.#QtQtQtQtQtQt.o.oQtQtQtQtQtQt"};
