/* XPM */
static char *displayfeaturepoly[]={
"32 32 11 1",
"h c None",
". c None",
"# c #000000",
"c c #0000ff",
"f c #800000",
"i c #a0a0a0",
"e c #c000c0",
"d c #c0ffff",
"g c #c3c3c3",
"a c #ff0000",
"b c #ffffff",
"...............#................",
"...............#................",
"...............#................",
"............aaabaaa.............",
"..........aabbbabbbaa...........",
"........aabbbbbabbbbbaa.........",
".......accccccccccccbbaa........",
"......aacddddeedeeddcbbaa.......",
".....aabcddeeeedeeeedcbbaa......",
".....abbcdeeeeedeeeeedccba......",
"....abbbceeeeddeddeeeeddcba.....",
"....abbbceeedddedddeeeeddcc.....",
".cccccccceedddededddeeeddddc....",
".cbedddeeedddeedeedddeeedddfcc..",
".cbedddeeeddeeedeeeddeeedddebcg.",
"#c#deeedddeedddedddeedddeeed#c#.",
".cbedddeeeddeeedeeeddeeedddebcg.",
".cbedddeeedddeedeedddeeedddebcg.",
".cccccccccccccccccccccccccccccg.",
".hggfiiiffffiiifiiiffffiiifgggg.",
"....abbbbaaaabbabbaaaabbbba.....",
".....abbbbaaaaabaaaaabbbba......",
".....aabbbbaaaabaaaabbbbaa......",
"......aabbbbbaabaabbbbbaa.......",
".......aabbbbbbabbbbbbaa........",
"........aabbbbbabbbbbaa.........",
"..........aabbbabbbaa...........",
"............aaabaaa.............",
"...............#................",
"...............#................",
"...............#................",
"................................"};
