/* XPM */
static char *displayfeaturechildren[]={
"32 32 101 2",
"Qt c None",
"#s c #ff1212",
".d c #ff1616",
".t c #ff0808",
".a c #ff0a0a",
"#G c #ff0505",
".c c #ff0808",
"#B c #ff0303",
"#y c #ff0404",
".B c #ff0606",
".g c #ff0202",
"#t c #ff0303",
".m c #ff2e2e",
"## c #ff0404",
".8 c #040404",
"#o c #380303",
".Z c #ff0101",
".n c #ff0202",
"#g c #ff4141",
"#r c #ff4242",
"#d c #ff0202",
".h c #ff3434",
".C c #ff0101",
".Y c #ff5555",
".u c #ff0101",
"#u c #ff2525",
".b c #471c1c",
"#c c #ff7676",
"#q c #ff7777",
".1 c #ff0000",
".l c #ff7f7f",
".T c #ff0000",
".H c #ff0000",
".o c #ff3333",
"#l c #ff3939",
"#i c #ff3a3a",
".i c #ff9999",
"#E c #ff3535",
".7 c #b95c5c",
"#p c #b95d5d",
".k c #ffa6a6",
".# c #000000",
".e c #ff0000",
"#. c #ff5555",
"#j c #ff6a6a",
".O c #ff6b6b",
"#x c #ff0000",
".s c #ff3b3b",
".A c #ff6767",
".j c #e27a7a",
"#w c #ff6d6d",
"#k c #ffc7c7",
"#f c #ffc8c8",
".v c #ffb3b3",
".I c #ffb4b4",
".f c #cb9999",
"#m c #cc9999",
".P c #ff0000",
".X c #ffdcdc",
"#z c #ff5555",
".z c #ffe5e5",
"#e c #ffe6e6",
"#b c #ffdede",
"#F c #402222",
"#H c #402424",
"#I c #d03434",
".0 c #ff0000",
"#v c #ff1010",
".D c #ff2020",
"#C c #ff2a2a",
".K c #ff2f2f",
".S c #ff3030",
".M c #ff3434",
".G c #ff3f3f",
".p c #ff4040",
".N c #ff4f4f",
"#a c #ff5454",
".V c #ff5f5f",
"#n c #ff6060",
".W c #ff6767",
"#A c #ff6969",
".L c #ff6b6b",
"#D c #ff6c6c",
".5 c #ff6f6f",
".r c #ff7070",
".3 c #ff7b7b",
".9 c #ff7f7f",
".2 c #ff8383",
".4 c #ff8787",
".U c #ff8f8f",
".x c #ff9393",
".6 c #ff9797",
".R c #ff9f9f",
".J c #ffa7a7",
".y c #ffb3b3",
".E c #ffbfbf",
".Q c #ffcfcf",
".w c #ffd7d7",
".F c #ffdfdf",
"#h c #ffefef",
".q c #ffffff",
"QtQtQtQtQtQtQtQtQtQtQt.#QtQtQtQtQtQtQtQtQtQtQtQtQtQtQtQtQtQtQtQt",
"QtQtQtQtQtQtQtQtQtQtQt.#QtQtQtQtQtQtQtQtQtQtQtQt.a.b.c.dQtQtQtQt",
"QtQtQtQtQtQtQtQtQt.e.e.f.e.e.gQtQtQtQtQtQtQtQt.h.i.j.k.l.mQtQtQt",
"QtQtQtQtQtQt.n.o.p.q.q.p.q.q.r.s.n.tQtQtQtQt.u.v.w.x.y.z.A.BQtQt",
"QtQtQtQtQt.C.D.E.q.q.q.p.q.q.q.F.G.HQtQtQt.h.I.J.K.L.M.N.w.O.aQt",
"QtQtQtQt.C.P.Q.q.q.Q.p.R.p.R.q.q.F.S.TQt.t.i.w.K.U.U.R.V.W.X.YQt",
"QtQtQt.Z.D.Q.q.F.S.0.0.E.0.0.0.Q.q.q.S.1.b.j.x.L.U.2.3.4.5.6.7.8",
"QtQtQt.o.E.q.F.G.0.D.9.9.9.G.0.D.E.q.F#.##.k.y.M.R.3#a.U.S#b#cQt",
"QtQtQt.p.q.q.S.0.0.Q.q.p.q.F.S.0.D.Q.q.9#d.l#e.N.V.4.U.G.6#f#gQt",
"QtQt.e.q.q.Q.0.D.Q#h.V.E.S.F.q.S.0.U.q.q.p.m.A.w.W.5.S.6.Q#i.dQt",
"QtQt.e.q.q.p.0.9.q.V.0.E.0.G.F.E.0.0.q.q.pQt.B#j.X.6#b#k#lQtQtQt",
".#.##m.p.p.R.E.9.p.E.E#n.E.E#n#n.E.E.p.p.R.#.##o.Y#p#q#r#sQtQtQt",
"QtQt.e.q.q.p.0.9.q.S.0.E.0.D.Q.E.0.0.q.q.pQtQtQtQt.8QtQtQtQtQtQt",
"QtQt.e.q.q.R.0.G.F.F.G.E.D.E.q.V.0.V.q.q.pQtQtQtQtQtQtQtQtQtQtQt",
"QtQt#t.r.q.q.0.0.S.q.F#n.Q.q.r.0.0.E.q.R#uQtQtQtQtQtQtQtQtQtQtQt",
"QtQtQt.s.F.q.Q.D.0.S.E#n.E.V.0#v.R.q#h#w.gQtQtQtQtQtQtQtQtQtQtQt",
"QtQtQt.Z.G.F.q.E.D.0.0.E.0.0.0.R.q.q.V.1QtQtQtQtQtQtQtQtQtQtQtQt",
"QtQtQt.t.H.S.q.q.Q.U.0.E.0.V.E.q.q.r#x#yQtQtQtQtQtQtQtQtQtQtQtQt",
"QtQtQtQtQt.T.S.F.q.q.q.p.q.q.q#h.V#xQtQtQtQtQtQtQtQtQtQtQtQtQtQt",
"QtQtQtQtQt.h#z#A.9.q.q.p.q.q.R#w.1#BQtQtQtQtQtQtQtQtQtQtQtQtQtQt",
"QtQtQtQt.t.i.w#C#D.p.p.R.p.p#E#tQtQtQtQtQtQtQtQt.a.b.c.dQtQtQtQt",
"QtQtQtQt.b.j.x.L.U.2.3#F.5.6.7.8QtQtQtQtQtQtQt.h.i.j.k.l.mQtQtQt",
"QtQtQtQt#G.k.y.M.R.3#a#H.S#b#cQtQtQtQtQtQtQt.u.v.w.x.y.z.A.BQtQt",
"QtQtQtQt#s.l#e.N.V.4.U#I.6#f#gQtQtQtQtQtQt.h.I.J.K.L.M.N.w.O.aQt",
"QtQtQtQtQt.m.A.w.W.5.S.6.Q#i.dQtQtQtQtQt.t.i.w.K.U.U.R.V.W.X.YQt",
"QtQtQtQtQtQt.B#j.X.6#b#k#lQtQtQtQtQtQtQt.b.j.x.L.U.2.3.4.5.6.7.8",
"QtQtQtQtQtQtQt.t.Y#p#q#r#sQtQtQtQtQtQtQt#G.k.y.M.R.3#a.U.S#b#cQt",
"QtQtQtQtQtQtQtQtQt.8QtQtQtQtQtQtQtQtQtQt#s.l#e.N.V.4.U.G.6#f#gQt",
"QtQtQtQtQtQtQtQtQtQtQtQtQtQtQtQtQtQtQtQtQt.m.A.w.W.5.S.6.Q#i.dQt",
"QtQtQtQtQtQtQtQtQtQtQtQtQtQtQtQtQtQtQtQtQtQt.B#j.X.6#b#k#lQtQtQt",
"QtQtQtQtQtQtQtQtQtQtQtQtQtQtQtQtQtQtQtQtQtQtQt.t.Y#p#q#r#sQtQtQt",
"QtQtQtQtQtQtQtQtQtQtQtQtQtQtQtQtQtQtQtQtQtQtQtQtQt.8QtQtQtQtQtQt"};
