/* XPM */
static char *draw_contour_cursor[]={
"32 32 3 1",
"# c None",
"a c #000000",
". c #ffffff",
"...#############################",
".aa..###########################",
".aaaa..#########################",
"#.a..aa..#######################",
"#.a....aa.######################",
"##.a....aa.#####################",
"##.a...a..a.####################",
"###.a.aaa..a.##.....############",
"###.aaaaaa..a..aaaaa.###########",
"##.a.aaaaa..aaa....a.###########",
"##.a..aa..aaa.a.##.a.###########",
"##.a.#..aa.....a.#.a.###########",
"##.a..aaa.aaaa..a.a.############",
"##.aaaa..aaaaaa...a.############",
"###....##.aaaa..aaa.############",
"##########.aa..aa..a.###########",
"###########...a..a..a.####..####",
"###########.aa..aaa..a.#..aa.###",
"##########.aa.aaaaaa..a.aaaaa.##",
"#########.aa.#.aaaaaa..aa...aa.#",
"########.aa.###.aaaa.aaa..##.a.#",
"########.a.#####.aa.aa...##.aa.#",
"########.a.######..aa.#####.a.##",
"########.a..###..aaa.#####.aa.##",
"#########.aa...aaa..######.a.###",
"##########.aaaaa..#######.aa.###",
"###########.....#########.a.####",
"#########################.a.####",
"#########################.aa.###",
"##########################.aa..#",
"###########################.aaa.",
"############################...."};
