/* XPM */
static char *draw_contour[]={
"32 32 160 2",
".# c None",
".4 c #000000",
"at c #000002",
"#Z c #0d0703",
"ai c #120502",
"az c #131516",
"#O c #180a01",
"aB c #1f1a17",
"#r c #210f01",
"#e c #211001",
"a. c #21100e",
"ao c #26251f",
"an c #2b211c",
"aC c #2e2e2f",
"av c #342b1d",
"ay c #382f24",
"as c #443e37",
"aA c #4a4533",
"aD c #4f4a37",
"ag c #5b4728",
"ah c #5e4836",
"#8 c #624f30",
"aw c #6e4c36",
"#7 c #734629",
".i c #764e2a",
".c c #764f2b",
".v c #7b5128",
"ax c #7b5848",
"#Y c #7d3d15",
"#D c #7f3903",
".1 c #803a04",
".o c #805430",
"au c #807255",
".3 c #833b04",
"af c #83542f",
".C c #835829",
"#9 c #843c1c",
".a c #885a2f",
"#q c #8d4004",
"#N c #944504",
"#6 c #94511c",
"am c #965534",
"ae c #a15e3a",
"#X c #a24d0f",
"#p c #a44a04",
"#C c #a54b04",
"#W c #a6550d",
"#d c #a74c04",
"#M c #a84d03",
".Y c #a84f04",
".0 c #aa5004",
"#5 c #ab6539",
"ap c #b48e6c",
".2 c #b75604",
"#c c #b85804",
"#L c #b95600",
"#o c #b95804",
"#B c #ba5904",
"#V c #bb602e",
"#T c #c18064",
".X c #c35f04",
"#4 c #c57e5d",
"#U c #c76227",
"ar c #c7825b",
"ad c #cc8062",
"al c #d18260",
"aq c #db9770",
"#S c #dc946e",
"#j c #e07733",
"#H c #e07950",
"ac c #e29a7e",
"#x c #e37630",
"#I c #e56430",
".9 c #e5884c",
"#3 c #e69e7c",
"#K c #e76d24",
".Z c #e77604",
"#A c #ea7a00",
".d c #ea9d53",
".D c #ea9d54",
"ak c #eaa282",
"#n c #eb7a04",
".p c #eb9d53",
".j c #eb9d54",
".8 c #efc1ae",
"#y c #f1780a",
".W c #f17b04",
"#b c #f17c03",
"#G c #f1ad8c",
"#i c #f2af97",
"#J c #f3712f",
".r c #f6ddae",
".l c #f6eab7",
"#k c #f78403",
"#w c #f7ac84",
".x c #f7deb0",
"#R c #f9b99a",
".g c #f9efbc",
"#s c #fab28f",
".6 c #fadcbb",
".Q c #fb8104",
".f c #fbb168",
".K c #fbb169",
".5 c #fbb390",
"a# c #fbb490",
".k c #fcb269",
".R c #fcb26a",
".z c #fd7d00",
".N c #fd7e00",
"#. c #fd8000",
".H c #fd8300",
".A c #fd8400",
".u c #fd8401",
"## c #fd8502",
".O c #fd8504",
".T c #fd982e",
".M c #fda141",
".h c #fda732",
".b c #fdb46a",
"aj c #fdb492",
".L c #fddcb1",
".G c #fe7f00",
".n c #fe8800",
".U c #fe8804",
".w c #feb369",
".q c #feb36a",
".S c #fecd9f",
".E c #fed7b7",
"#h c #fee2cd",
"Qt c #ff0000",
"#z c #ff7b16",
".B c #ff8601",
"#a c #ff8604",
".I c #ff8701",
"#l c #ff8703",
".t c #ff8900",
".P c #ff8c01",
".V c #ff8e04",
"#m c #ff9002",
".J c #ff9101",
".F c #ffa030",
".y c #ffa036",
".s c #ffa13a",
".m c #ffa630",
"#v c #ffc0a0",
"#2 c #ffc9ad",
"ab c #ffc9b0",
"#f c #ffd0a8",
"#Q c #ffd1b1",
"#0 c #ffd3aa",
"#F c #ffd7b5",
"#1 c #ffeace",
"#u c #ffeed8",
"aa c #fff5dc",
"#E c #fff7df",
"#g c #fff9f0",
".7 c #fffbdf",
".e c #fffecc",
"#t c #fffff4",
"#P c #fffff5",
"QtQtQt.#.#.#.#.#.#.#.#.#.#.#.#.#.#.#.#.#.#.#.#.#.#.#.#.#.#.#.a.b",
".#.#QtQt.#.#.#.#.#.#.#.#.#.#.#.#.#.#.#.#.#.#.#.#.#.#.#.#.#.a.b.b",
".#.#.#Qt.#.#.#.#.#.#.#.#.#.#.#.#.#.#.#.#.#.#.#.#.#.#.#.#.c.d.b.e",
".#.#.#Qt.#.#.#.#.#.#.#.#.#.#.#.#.#.#.#.#.#.#.#.#.#.#.#.c.d.f.g.h",
".#.#.#Qt.#.#.#.#.#.#.#.#.#.#.#.#.#.#.#.#.#.#.#.#.#.#.i.j.k.l.m.n",
".#.#.#Qt.#.#.#.#.#.#.#.#.#.#.#.#.#.#.#.#.#.#.#.#.#.o.p.q.r.s.t.u",
".#.#.#Qt.#.#.#.#.#.#.#.#.#.#.#.#.#.#.#.#.#.#.#.#.v.d.w.x.y.z.A.B",
".#.#.#Qt.#.#.#.#.#.#.#.#.#.#.#.#.#.#.#.#.#.#.#.C.D.w.E.F.G.H.I.J",
".#.#.#Qt.#.#.#.#.#.#.#.#.#.#.#.#.#.#.#.#.#.#.a.D.K.L.M.N.A.O.P.Q",
".#.#.#QtQt.#.#.#.#.#.#.#.#.#.#.#.#.#.#.#.#.a.d.R.S.T.N.A.U.V.W.X",
".#.#.#.#QtQt.#.#.#.#.#.#.#.#.#.#.#.#.#.#.a.R.R.S.U.U.U.U.U.U.X.Y",
".#.#.#.#.#QtQt.#.#.#.#.#.#.#.#.#.#.#.#.a.R.R.S.U.U.U.U.U.Z.X.0.1",
".#.#.#.#.#.#QtQt.#.#.#.#.#.#.#.#.#.#.a.D.D.S.U.U.U.U.U.U.2.0.3.4",
".#.#.#.#.#.#.#Qt.#.#.#.#.#.#.#.#.#.5.6.7.8.9#.###a.V#b#c#d.3#e.#",
".#.#.#.#.#.#.#Qt.#.#.#.#.#.#.#.#.##f#g#h#i#j#k#l#m#n#o#p#q#r.#.#",
".#.#.#.#.#.#.#Qt.#.#.#.#.#.#.#.##s#t#u#v#w#x#y#z#A#B#C#D#r.#.#.#",
".#.#.#.#.#.#.#Qt.#.#.#.#.#.#.#.##f#E#F#G#H#I#J#K#L#M#N#O.#.#.#.#",
".#.#.#.#.#.#.#Qt.#.#.#.#.#.#.##s#P#Q#R#S#T#U#V#W#X#Y#Z.#.#.#.#.#",
".#.#.#.#.#.#QtQt.#.#.#.#.#.#.##0#1#2#3#4#5#6#7#8#9a..#.#.#.#.#.#",
".#.#.#.#.#.#Qt.#.#.#.#.#.#.#a#aaabacadaeafagah.4ai.#.#.#.#.#.#.#",
".#.#.#.#.#.#Qt.#.#.#.#.#.#.#a#aaacadaeafahah.4.#.#.#.#.#.#.#.#.#",
".#.#.#.#.#.#Qt.#.#.#.#.#.#ajaaakalamananao.4.#.#.#.#.#.#.#.#.#.#",
".#.#.#.#.#.#Qt.#.#.#.#.#.#apaqarananasat.#.#.#.#.#.#.#.#.#.#.#.#",
".#.#.#.#.#.#QtQt.#.#.#.#auavawaxayaz.#.#.#.#.#.#.#.#.#.#.#.#.#.#",
".#.#.#.#.#.#.#Qt.#.#.#.#aAaBan.4.#.#.#.#.#.#.#.#.#.#.#.#.#.#.#.#",
".#.#.#.#.#.#.#.#QtQt.#aC.4.4.#.#.#.#.#.#.#.#.#.#.#.#.#.#.#.#.#.#",
".#.#.#.#.#.#.#.#.#QtQtaD.#.#.#.#.#.#.#.#.#.#.#.#.#.#.#.#.#.#.#.#",
".#.#.#.#.#.#.#.#.#.#.#.#.#.#.#.#.#.#.#.#.#.#.#.#.#.#.#.#.#.#.#.#",
".#.#.#.#.#.#.#.#.#.#.#.#.#.#.#.#.#.#.#.#.#.#.#.#.#.#.#.#.#.#.#.#",
".#.#.#.#.#.#.#.#.#.#.#.#.#.#.#.#.#.#.#.#.#.#.#.#.#.#.#.#.#.#.#.#",
".#.#.#.#.#.#.#.#.#.#.#.#.#.#.#.#.#.#.#.#.#.#.#.#.#.#.#.#.#.#.#.#",
".#.#.#.#.#.#.#.#.#.#.#.#.#.#.#.#.#.#.#.#.#.#.#.#.#.#.#.#.#.#.#.#"};
