/* XPM */
static char *draw_contour_filter[]={
"32 32 157 2",
".c c None",
".# c None",
".6 c #000000",
"aq c #000002",
"#1 c #0d0703",
"ak c #120502",
"aw c #131516",
"#Q c #180a01",
"ay c #1f1a17",
"#t c #210f01",
"#g c #211001",
"aa c #21100e",
"ao c #2b211c",
"az c #2e2e2f",
"as c #342b1d",
"av c #382f24",
"ap c #443e37",
"ax c #4a4533",
"aA c #4f4a37",
"ai c #5b4728",
"aj c #5e4836",
"a. c #624f30",
"at c #6e4c36",
"#9 c #734629",
".j c #764e2a",
".d c #764f2b",
".x c #7b5128",
"au c #7b5848",
"#0 c #7d3d15",
"#F c #7f3903",
".3 c #803a04",
".p c #805430",
"ar c #807255",
".5 c #833b04",
"ah c #83542f",
".E c #835829",
"a# c #843c1c",
".a c #885a2f",
"#s c #8d4004",
"#P c #944504",
"#8 c #94511c",
"ag c #a15e3a",
"#Z c #a24d0f",
"#r c #a44a04",
"#E c #a54b04",
"#Y c #a6550d",
"#f c #a74c04",
"#O c #a84d03",
".0 c #a84f04",
".2 c #aa5004",
"#7 c #ab6539",
"al c #b48e6c",
".4 c #b75604",
"#e c #b85804",
"#N c #b95600",
"#q c #b95804",
"#D c #ba5904",
"#X c #bb602e",
"#V c #c18064",
".Z c #c35f04",
"#6 c #c57e5d",
"#W c #c76227",
"an c #c7825b",
"af c #cc8062",
"am c #db9770",
"#U c #dc946e",
"#l c #e07733",
"#J c #e07950",
"ae c #e29a7e",
"#z c #e37630",
"#K c #e56430",
"## c #e5884c",
"#5 c #e69e7c",
"#M c #e76d24",
".1 c #e77604",
"#C c #ea7a00",
".e c #ea9d53",
".F c #ea9d54",
"#p c #eb7a04",
".q c #eb9d53",
".k c #eb9d54",
"#. c #efc1ae",
"#A c #f1780a",
".Y c #f17b04",
"#d c #f17c03",
"#I c #f1ad8c",
"#k c #f2af97",
"#L c #f3712f",
".s c #f6ddae",
".m c #f6eab7",
"#m c #f78403",
"#y c #f7ac84",
".z c #f7deb0",
"#T c #f9b99a",
".h c #f9efbc",
"#u c #fab28f",
".8 c #fadcbb",
".S c #fb8104",
".g c #fbb168",
".M c #fbb169",
".7 c #fbb390",
"ab c #fbb490",
".l c #fcb269",
".T c #fcb26a",
".B c #fd7d00",
".P c #fd7e00",
"#a c #fd8000",
".J c #fd8300",
".C c #fd8400",
".v c #fd8401",
"#b c #fd8502",
".Q c #fd8504",
".V c #fd982e",
".O c #fda141",
".i c #fda732",
".b c #fdb46a",
".N c #fddcb1",
".I c #fe7f00",
".o c #fe8800",
".W c #fe8804",
".y c #feb369",
".r c #feb36a",
".U c #fecd9f",
".G c #fed7b7",
"#j c #fee2cd",
"Qt c #ff0000",
".w c #ff00ff",
"#B c #ff7b16",
".D c #ff8601",
"#c c #ff8604",
".K c #ff8701",
"#n c #ff8703",
".u c #ff8900",
".R c #ff8c01",
".X c #ff8e04",
"#o c #ff9002",
".L c #ff9101",
".H c #ffa030",
".A c #ffa036",
".t c #ffa13a",
".n c #ffa630",
"#x c #ffc0a0",
"#4 c #ffc9ad",
"ad c #ffc9b0",
"#h c #ffd0a8",
"#S c #ffd1b1",
"#2 c #ffd3aa",
"#H c #ffd7b5",
"#3 c #ffeace",
"#w c #ffeed8",
"ac c #fff5dc",
"#G c #fff7df",
"#i c #fff9f0",
".9 c #fffbdf",
".f c #fffecc",
"#v c #fffff4",
"#R c #fffff5",
"QtQtQt.#.#.#.#.#.#.#.#.#.#.#.#.#.#.#.#.#.#.#.#.#.#.#.#.#.#.#.a.b",
".#.#QtQt.#.#.#.#.#.#.c.#.#.#.#.#.#.#.c.c.c.#.#.#.#.#.#.#.#.a.b.b",
".#.#.#Qt.#.#.#.#.#.c.c.c.c.c.c.c.c.c.c.c.c.c.#.#.#.#.#.#.d.e.b.f",
".#.#.#Qt.#.#.#.#.#.c.c.c.c.c.c.c.c.c.c.c.c.c.c.#.#.#.#.d.e.g.h.i",
".#.#.#Qt.#.#.#.#.#.c.c.c.c.#.#.#.#.#.#.#.c.c.c.c.#.#.j.k.l.m.n.o",
".#.#.#Qt.#.#.#.#.c.c.c.c.c.#.#.#.#.#.#.#.c.c.c.c.#.p.q.r.s.t.u.v",
".#.w.w.w.w.w.w.w.w.w.w.w.w.w.w.w.w.w.w.w.w.w.w.w.x.e.y.z.A.B.C.D",
".#.w.w.w.w.w.w.w.w.w.w.w.w.w.w.w.w.w.w.w.w.w.w.E.F.y.G.H.I.J.K.L",
".#.w.wQt.#.#.#.#.#.#.#.#.#.#.#.#.#.#.#.#.#.#.a.F.M.N.O.P.C.Q.R.S",
".#.w.wQtQt.#.#.#.#.#.#.#.#.#.#.#.#.#.#.#.#.a.e.T.U.V.P.C.W.X.Y.Z",
".#.w.w.#QtQt.#.#.#.#.#.#.#.#.#.#.#.#.#.#.a.T.T.U.W.W.W.W.W.W.Z.0",
".#.w.w.#.#QtQt.#.#.#.#.#.#.#.#.#.#.#.#.a.T.T.U.W.W.W.W.W.1.Z.2.3",
".#.w.w.#.#.#QtQt.#.#.#.#.#.#.#.#.#.#.a.F.F.U.W.W.W.W.W.W.4.2.5.6",
".#.w.w.#.#.#.#Qt.#.#.#.#.#.#.#.#.#.7.8.9#.###a#b#c.X#d#e#f.5#g.#",
".#.w.w.#.#.#.#Qt.#.#.#.#.#.#.#.#.##h#i#j#k#l#m#n#o#p#q#r#s#t.w.#",
".#.w.w.#.#.#.#Qt.#.#.#.#.#.#.#.##u#v#w#x#y#z#A#B#C#D#E#F#t.w.w.#",
".#.w.w.#.#.#.#Qt.#.#.#.#.#.#.#.##h#G#H#I#J#K#L#M#N#O#P#Q.#.w.w.#",
".#.w.w.#.#.#.#Qt.#.#.#.#.#.#.##u#R#S#T#U#V#W#X#Y#Z#0#1.#.#.w.w.#",
".#.w.w.#.#.#QtQt.#.#.#.#.#.#.##2#3#4#5#6#7#8#9a.a#aa.#.#.#.w.w.#",
".#.w.w.#.#.#Qt.#.#.#.#.#.#.#abacadaeafagahaiaj.6ak.#.#.#.#.w.w.#",
".#.w.w.w.w.w.w.w.w.w.w.w.w.w.w.w.w.w.w.w.w.w.w.w.w.w.w.w.w.w.w.#",
".#.w.w.w.w.w.w.w.w.w.w.w.w.w.w.w.w.w.w.w.w.w.w.w.w.w.w.w.w.w.w.#",
".#.#.#.#.#.#Qt.#.#.#.#.#.#alamanaoaoapaq.#.#.#.#.#.#.#.#.#.#.#.#",
".#.#.#.#.#.#QtQt.#.#.#.#arasatauavaw.#.#.#.#.#.#.#.#.#.#.#.#.#.#",
".#.#.#.#.#.#.#Qt.#.#.#.#axayao.6.#.#.#.#.#.#.#.#.#.#.#.#.#.#.#.#",
".#.#.#.#.#.#.#.#QtQt.#az.6.6.#.#.#.#.#.#.#.#.#.#.#.#.#.#.#.#.#.#",
".#.#.#.#.#.#.#.#.#QtQtaA.#.#.#.#.#.#.#.#.#.#.#.#.#.#.#.#.#.#.#.#",
".#.#.#.#.#.#.#.#.#.#.#.#.#.#.#.#.#.#.#.#.#.#.#.#.#.#.#.#.#.#.#.#",
".#.#.#.#.#.#.#.#.#.#.#.#.#.#.#.#.#.#.#.#.#.#.#.#.#.#.#.#.#.#.#.#",
".#.#.#.#.#.#.#.#.#.#.#.#.#.#.#.#.#.#.#.#.#.#.#.#.#.#.#.#.#.#.#.#",
".#.#.#.#.#.#.#.#.#.#.#.#.#.#.#.#.#.#.#.#.#.#.#.#.#.#.#.#.#.#.#.#",
".#.#.#.#.#.#.#.#.#.#.#.#.#.#.#.#.#.#.#.#.#.#.#.#.#.#.#.#.#.#.#.#"};
