/* XPM */
static char *edit_icon[]={
"32 32 363 2",
"Qt c None",
"#t c #000000",
"bi c #000002",
"dO c #0a0a06",
"aC c #0d0703",
"a4 c #120502",
"bt c #131516",
"dF c #161612",
"ap c #180a01",
"bJ c #1f1a17",
"aa c #210f01",
"#H c #211001",
"aR c #21100e",
"bb c #26251f",
"dN c #2a2622",
"ba c #2b211c",
"bU c #2d251d",
"dK c #2d2921",
"dL c #2d2925",
"cw c #2e261a",
"dl c #2e261e",
"cb c #2e2a1e",
"dJ c #2e2a22",
"dI c #2e2a26",
"b0 c #2e2e2f",
"dM c #322a1e",
"dG c #322a22",
"dH c #322e2a",
"bp c #342b1d",
"bs c #382f24",
"a3 c #3e3e3e",
"dm c #3f3f3f",
"bh c #443e37",
".l c #484848",
"bI c #4a4533",
".k c #4a4a4a",
"#W c #4b4b4b",
"#I c #4c4c4c",
"#X c #4e4e4e",
"cg c #4f4a37",
".j c #515151",
"ab c #545454",
"a6 c #554c40",
"cx c #555555",
".i c #585858",
"bD c #595959",
"a1 c #5b4728",
"a2 c #5e4836",
"aq c #5f5f5f",
".h c #606060",
"aP c #624f30",
".g c #626262",
"#Y c #636363",
"a5 c #645d52",
".f c #656565",
"#u c #666666",
".e c #676767",
".d c #6a6a6a",
"b3 c #6b6359",
"b2 c #6b645b",
".6 c #6b6b6b",
".W c #6c6c6c",
".O c #6d6d6d",
"bq c #6e4c36",
"aS c #6e6454",
".A c #6e6e6e",
".c c #6f6f6f",
"b4 c #70685b",
"ck c #70685d",
".w c #707070",
"bc c #716a60",
"aO c #734629",
".B c #764e2a",
".m c #764f2b",
"aT c #767676",
".b c #777777",
"b5 c #786e60",
"cF c #7a7163",
".r c #7a7a7a",
".P c #7b5128",
"br c #7b5848",
"aB c #7d3d15",
".a c #7d7d7d",
"a# c #7f3903",
"#r c #803a04",
".H c #805430",
"bo c #807255",
"bd c #808080",
"b6 c #817765",
"#s c #833b04",
"a0 c #83542f",
".Y c #835829",
"aQ c #843c1c",
".# c #868686",
".7 c #885a2f",
"bu c #8a8b8b",
"ca c #8b775a",
"b7 c #8b7f6c",
"ch c #8b8b8b",
"dy c #8c7c66",
"bv c #8c8274",
"b1 c #8c8c8c",
"#G c #8d4004",
"cW c #8d8270",
"bw c #8d8473",
"bK c #8d8577",
"bL c #8e8475",
"bx c #918775",
"bM c #928777",
".p c #939393",
"ao c #944504",
"aN c #94511c",
"b8 c #948670",
"b# c #965534",
"bN c #998e7b",
"by c #9b8e7c",
"b9 c #9d8d76",
"cl c #9d9181",
"dc c #9f917e",
"aZ c #a15e3a",
"aA c #a24d0f",
"c. c #a29177",
"c# c #a39178",
"bO c #a39682",
"#V c #a44a04",
"cj c #a49989",
"a. c #a54b04",
"cm c #a59986",
"az c #a6550d",
"#F c #a74c04",
"cE c #a79b8a",
"an c #a84d03",
"#m c #a84f04",
"#q c #aa5004",
"bz c #aa9b84",
"aM c #ab6539",
"#e c #af723a",
"bC c #b09978",
"bZ c #b1aba2",
"bP c #b2a28b",
"cn c #b2a58f",
"bY c #b2ada4",
"cG c #b3a591",
"bX c #b3aea8",
"be c #b48e6c",
"bW c #b4b0a9",
"bV c #b5b2ad",
"ae c #b6b3af",
"#p c #b75604",
"bH c #b79f7c",
"cD c #b7ab99",
"#Z c #b7b5b3",
"#E c #b85804",
"#n c #b8824c",
"#J c #b8b6b6",
"am c #b95600",
"#U c #b95804",
".X c #b9b9b9",
"#9 c #ba5904",
".u c #bababa",
"ay c #bb602e",
"bT c #bba17e",
"ci c #bbb0a0",
"dk c #bc9c6d",
"c3 c #bc9f71",
"bA c #bcab91",
"cV c #bcae98",
"cN c #be9e75",
"cv c #bea279",
"dD c #bea481",
"dx c #bea98e",
"dw c #bead92",
"dE c #bfa37c",
"co c #bfaf97",
"dC c #c0a583",
"cH c #c0b19a",
"aw c #c18064",
"dB c #c1aa86",
"dv c #c1af97",
"dA c #c2ab8b",
"dz c #c2ab8d",
"#l c #c35f04",
"bQ c #c3b095",
"du c #c3b39c",
"aL c #c57e5d",
"cU c #c5b6a1",
"dt c #c5b7a0",
"ds c #c6b8a3",
"dr c #c6b9a9",
"dq c #c6bbab",
"dn c #c6c2b6",
"ax c #c76227",
"bg c #c7825b",
"dp c #c7bfb4",
"do c #c8c1b7",
".o c #c9c9c9",
"bB c #cab99d",
"cp c #cbba9e",
"aY c #cc8062",
"cI c #ccbba1",
"cX c #cebea5",
"b. c #d18260",
"bR c #d3bd9e",
"cC c #d3c8b4",
"db c #d4c6ac",
"cq c #d6c1a3",
"da c #d6c8b2",
"cJ c #d7c4a6",
"cY c #d8c5ab",
"cT c #d8c9b5",
"bf c #db9770",
"av c #dc946e",
"bS c #dcc5a3",
"cr c #dcc6a4",
"cK c #ddc7a9",
"cZ c #decaab",
"#P c #e07733",
"ai c #e07950",
"dd c #e0cdb2",
"cs c #e1c9a5",
"cL c #e1caa7",
"de c #e1cdae",
"aX c #e29a7e",
"cu c #e2c69e",
"dj c #e2caa2",
"di c #e2caa6",
"c0 c #e2cbac",
"#5 c #e37630",
"ct c #e3c8a2",
"cM c #e3cba6",
"c1 c #e3cca8",
"d# c #e3d4c1",
"c2 c #e4cca7",
"df c #e4d0b0",
"aj c #e56430",
"#z c #e5884c",
"aK c #e69e7c",
"dh c #e6ceaa",
"dg c #e6ceae",
"al c #e76d24",
"#o c #e77604",
"d. c #e7dfcf",
"cS c #e8dac6",
"cB c #e8dac8",
"#8 c #ea7a00",
".n c #ea9d53",
".Z c #ea9d54",
"a9 c #eaa282",
"#T c #eb7a04",
".I c #eb9d53",
".C c #eb9d54",
"c9 c #eee2ce",
"c7 c #eee6da",
"c6 c #eeeade",
"#y c #efc1ae",
"cR c #efe1ce",
"cA c #f0e5d3",
"#6 c #f1780a",
"#k c #f17b04",
"#D c #f17c03",
"ah c #f1ad8c",
"cQ c #f1e6d4",
"cf c #f1e7d8",
"#O c #f2af97",
"c8 c #f2e2ce",
"cP c #f2e8d7",
"cz c #f2e8d9",
"c5 c #f2eade",
"c4 c #f2eee6",
"ak c #f3712f",
"cO c #f3eadc",
"ce c #f3ebdc",
"bG c #f4ede1",
"bn c #f5ede2",
"cy c #f5eee4",
"cd c #f5efe6",
"bF c #f5f0e6",
".K c #f6ddae",
".E c #f6eab7",
"bm c #f6f0e7",
"#Q c #f78403",
"#4 c #f7ac84",
".R c #f7deb0",
"cc c #f7f1e8",
"bE c #f8f1e9",
"bl c #f8f2e9",
"aG c #f8f3eb",
"au c #f9b99a",
".y c #f9efbc",
"bk c #f9f4ee",
"ar c #f9f5f0",
"aF c #f9f6f0",
"#0 c #fab28f",
"#w c #fadcbb",
"bj c #faf6f1",
"aE c #faf8f3",
"ad c #faf8f5",
"#d c #fafafa",
"#c c #fb8104",
".x c #fbb168",
".8 c #fbb169",
"#v c #fbb390",
"aU c #fbb490",
"aD c #fbf9f8",
"ac c #fbfaf8",
".D c #fcb269",
"#f c #fcb26a",
"#K c #fcfaf9",
".T c #fd7d00",
"## c #fd7e00",
"#A c #fd8000",
".3 c #fd8300",
".U c #fd8400",
".N c #fd8401",
"#B c #fd8502",
"#a c #fd8504",
"#h c #fd982e",
"#. c #fda141",
".z c #fda732",
".q c #fdb46a",
"a7 c #fdb492",
".9 c #fddcb1",
".2 c #fe7f00",
".G c #fe8800",
"#i c #fe8804",
".Q c #feb369",
".J c #feb36a",
"#g c #fecd9f",
".0 c #fed7b7",
"#N c #fee2cd",
".t c #fefefe",
"#7 c #ff7b16",
".V c #ff8601",
"#C c #ff8604",
".4 c #ff8701",
"#R c #ff8703",
".M c #ff8900",
"#b c #ff8c01",
"#j c #ff8e04",
"#S c #ff9002",
".5 c #ff9101",
".1 c #ffa030",
".S c #ffa036",
".L c #ffa13a",
".F c #ffa630",
"#3 c #ffc0a0",
"aJ c #ffc9ad",
"aW c #ffc9b0",
"#L c #ffd0a8",
"at c #ffd1b1",
"aH c #ffd3aa",
"ag c #ffd7b5",
"a8 c #ffe1c9",
"aI c #ffeace",
"#2 c #ffeed8",
"aV c #fff5dc",
"af c #fff7df",
"#M c #fff9f0",
"#x c #fffbdf",
".v c #fffecc",
"#1 c #fffff4",
"as c #fffff5",
".s c #ffffff",
"QtQtQt.#.a.b.c.d.e.f.g.h.i.j.k.l.l.j.j.j.j.j.j.j.j.j.j.jQtQt.m.n",
"QtQtQt.b.o.o.o.o.o.o.o.o.o.o.o.p.o.o.o.o.o.o.o.o.o.o.o.jQt.m.n.q",
"QtQtQt.r.o.s.s.s.s.s.s.s.s.t.s.u.s.s.s.s.s.s.s.s.s.s.o.j.m.n.q.v",
"QtQtQt.w.o.s.s.s.s.s.s.s.s.t.s.u.s.s.s.s.s.s.s.s.s.s.o.m.n.x.y.z",
"QtQtQt.A.o.s.s.s.s.s.s.s.s.t.s.u.s.s.s.s.s.s.s.s.s.s.B.C.D.E.F.G",
"QtQtQt.A.o.s.s.s.s.s.s.s.s.t.s.u.s.s.s.s.s.s.s.s.s.H.I.J.K.L.M.N",
"QtQtQt.O.o.s.s.s.s.s.s.s.s.t.s.u.s.s.s.s.s.s.s.s.P.n.Q.R.S.T.U.V",
"QtQtQt.W.p.u.u.u.u.u.u.u.u.X.u.u.u.u.u.u.u.u.u.Y.Z.Q.0.1.2.3.4.5",
"QtQtQt.6.o.s.s.s.s.s.s.s.s.t.s.u.s.s.s.s.s.s.7.Z.8.9#.##.U#a#b#c",
"QtQtQt.W.o.s.s.s.s.s.s.s.s.t.s.u.s.s.s#d.s#e.n#f#g#h##.U#i#j#k#l",
"QtQtQt.W.o.s.s.s.s.s.s.s.s.s.s.u.s.s.s.s#e.n#f#g#h#h#h#i#i#k#l#m",
"QtQtQt.W.o.s.s.s.s.s.s.s.s.s.s.u.s.s.s.7#n.Z.Z#h#h#h#h#h#o#p#q#r",
"QtQtQt.W.o.s.s.s.s.s.s.s.s.s.s.u.s.s.7.Z.Z.Z#h#h#h#h#h#k#p#p#s#t",
"QtQtQt#u.o.s.s.s.s.s.s.s.s.s.s.u.s#v#w#x#y#z#A#B#C#j#D#E#F#G#H#I",
"QtQtQt.f.o.s.s.s.s.s.s.s.s.s.s#J#K#L#M#N#O#P#Q#R#S#T#U#V#G#H#W#X",
"QtQtQt#Y.o.s.s.s.s.s.s.s.s.s#K#Z#0#1#2#3#4#5#6#7#8#9a.a#aa#X#Xab",
"QtQtQt.g.o.s.s.s.s.s.s.s.sacadae#Lafagahaiajakalamanaoap#X#Xabaq",
"QtQtQt.g.o.s.s.s.s.s.s.tacadar#0asatauavawaxayazaAaBaC#t#X#Xaq.6",
"QtQtQt.h.o.s.s.s.s.s.taDaEaFaGaHaIaJaKaLaMaNaOaPaQaRaS#t#X.6.6aT",
"QtQtQt.W.o.s.s.s.s.s.s.s.s.saUaVaWaXaYaZa0a1a2a3a4a5a6#t.6.6aTQt",
"QtQtQt.W.o.s.s.s.s.s.s.s.s.saUaVaWaYaZa0a2a3a4#X#X#X.6#t.6.6QtQt",
"QtQtQt.W.o.s.s.s.s.s.s.s.sa7a8a9b.b#bababb#tbcbcbcbcbd#taTQtQtQt",
"QtQtQt.W.o.s.s.s.s.s.s.s.sbebfbgbababhbibcbcbcbcbcbcbd#tQtQtQtQt",
"QtQtQt.W.o.s.sbjbkblbmbnbobpbqbrbsbtbubvbwbxbybzbAbBbC#tQtQtQtQt",
"QtQtQtbD.o#KbjbkbEbFbGbHbIbJba#tbubKbLbMbNbObPbQbRbSbTbUQtQtQtQt",
"QtQtQtbD.p#ZbVbWbXbYbZb0#t#tb1bcb2b3b4b5b6b7b8b9c.c#cacbQtQtQtQt",
"QtQtQt.i.oarcccdbGcecfcgchcicjckclcmcncocpcqcrcsctcucvcwQtQtQtQt",
"QtQtQtcx.oaGcybGceczcAcBcCcDcEcFcGcHcIcJcKcLcMctctcucNcwQtQtQtQt",
"QtQtQtab.occbGcOcPcQcRcScTcUcVcWcXcYcZc0c1c2ctctctcuc3cwQtQtQtQt",
"QtQtQt.k.oc4c5c6c7c8c9d.d#dadbdcdddedfdgdhdidjcucucudkdlQtQtQtQt",
"QtQtQtdmdndodpdqdrdsdtdudvdwdxdydzdAdBdCdDdEcvcNc3dkdkcwQtQtQtQt",
"QtQtQtdFdGdHdGdHdIdGdHdIdJdKdLdldldGdldMcwdNcbcbcwcbcwdOQtQtQtQt"};
