/* XPM */
static char *edit_rect_cursor[]={
"32 32 3 1",
"# c None",
"a c #000000",
". c #ffffff",
"...#############################",
".aa..###########################",
".aaaa..#########################",
"#.a..aa..#######################",
"#.a....aa.######################",
"##.a....aa.#####################",
"##.a...a..a.####################",
"###.a.aaa..a.###################",
"###.aaaaaa..a.##################",
"####.aaaaaa..a.#################",
"#####.aaaaaa..a.################",
"######.aaaaaa..a.###############",
"#######.aaaaaa..a.##############",
"########.aaaaaa..a.#############",
"#########.aaaaaa..a.############",
"##########.aaaaaa..a.###########",
"###########.aaaaaa..a.##########",
"############.aaaaaa..a.#########",
"#############.aaaaaa..a.########",
"##############.aaaaaa..a.#######",
"###############.aaaaaaaaa.######",
"################.........#######",
"################################",
"#################...............",
"#################.aaaaaaaaaaaaa.",
"#################.a...........a.",
"#################.a.#########.a.",
"#################.a.#########.a.",
"#################.a.#########.a.",
"#################.a...........a.",
"#################.aaaaaaaaaaaaa.",
"#################..............."};
