/* XPM */
static char *edit_poly3D[]={
"32 32 329 2",
"Qt c None",
".o c #000000",
".Z c #010101",
"be c #020101",
"aL c #020202",
"a4 c #030303",
"a5 c #040404",
"#e c #050300",
".5 c #050301",
".Y c #050505",
"bf c #060605",
"a3 c #060606",
".0 c #080808",
"dg c #0a0a06",
"aW c #0a0a0a",
"ay c #0d0703",
".X c #0d0d0d",
"a6 c #101010",
"aT c #120502",
"bg c #13110e",
"#c c #131313",
".6 c #160e07",
"c9 c #161612",
".1 c #161616",
"am c #180a01",
"bj c #191410",
"az c #1b1b1a",
"#t c #1c0f00",
"#J c #1d0d00",
"bb c #1f1a17",
"ab c #1f1f1f",
"#O c #202020",
"aI c #21100e",
"bh c #29251e",
"df c #2a2622",
"#p c #2a2a2a",
"bc c #2b211c",
"#u c #2d1501",
"dc c #2d2921",
"dd c #2d2925",
"bZ c #2e261a",
"cP c #2e261e",
"bD c #2e2a1e",
"db c #2e2a22",
"da c #2e2a26",
"a7 c #2e2d2c",
"bp c #2e2e2f",
".7 c #2f2113",
"#j c #321900",
"de c #322a1e",
"d. c #322a22",
"d# c #322e2a",
"#P c #323232",
"a0 c #342b1d",
".2 c #343434",
"aQ c #382c18",
"bi c #3e352a",
"aS c #3e3e3e",
"cQ c #3f3f3f",
"ap c #474747",
".l c #484848",
"ba c #4a4533",
".k c #4a4a4a",
"bJ c #4f4a37",
".j c #515151",
"#l c #525252",
"#C c #532d01",
"cf c #545454",
".8 c #55483d",
"aV c #554c40",
"b0 c #555555",
".i c #585858",
"#K c #595959",
"aE c #5c3211",
"a8 c #5d5a57",
"aR c #5e4836",
"aK c #5f5f5f",
".h c #606060",
"#3 c #616161",
"aG c #624f30",
".g c #626262",
"aU c #645d52",
"#U c #652e02",
".f c #656565",
"aq c #666565",
"#y c #666666",
".e c #676767",
"#v c #686868",
".d c #6a6a6a",
"bt c #6b6359",
"bs c #6b645b",
".P c #6d6d6d",
"aJ c #6e6454",
".B c #6e6e6e",
".c c #6f6f6f",
"#f c #703a01",
"bu c #70685b",
"bN c #70685d",
".x c #707070",
"br c #716a60",
"aF c #734629",
".C c #764e2a",
".t c #764f2b",
"#N c #767676",
".b c #777777",
"bv c #786e60",
"#x c #787878",
"#2 c #793603",
"b8 c #7a7163",
".p c #7a7a7a",
".Q c #7b5128",
"at c #7c3d18",
"ax c #7d3d15",
".a c #7d7d7d",
"#s c #803f00",
".I c #805430",
"a2 c #807255",
"#L c #808080",
"bw c #817765",
"aH c #843c1c",
".# c #868686",
"bd c #8a8b8b",
"#Y c #8b4a1f",
"bC c #8b775a",
"bx c #8b7f6c",
"bK c #8b8b8b",
"c2 c #8c7c66",
"bq c #8c8c8c",
"#7 c #8d491d",
"co c #8d8270",
"ag c #8e3e1d",
"#Q c #8e542f",
".9 c #915a1b",
"ao c #919191",
".n c #939393",
"al c #944504",
"by c #948670",
"#M c #999999",
"#F c #9d6a4f",
"bz c #9d8d76",
"bO c #9d9181",
"cG c #9f917e",
"a1 c #a0a0a0",
"aZ c #a15e3a",
"aw c #a24d0f",
"bA c #a29177",
"bB c #a39178",
"bM c #a49989",
"aa c #a54b04",
"bP c #a59986",
"#o c #a5a5a5",
"av c #a6550d",
"b7 c #a79b8a",
"a9 c #a7a39c",
"ak c #a84d03",
"aX c #ababab",
"#m c #acacac",
".3 c #aeaeae",
"an c #afafaf",
"bo c #b1aba2",
"bQ c #b2a58f",
"bn c #b2ada4",
"b9 c #b3a591",
"bm c #b3aea8",
"aY c #b48e6c",
"bl c #b4b0a9",
"aM c #b5b1ab",
"bk c #b5b2ad",
"#k c #b65803",
"ae c #b6b3af",
"b# c #b79f7c",
"b6 c #b7ab99",
"#5 c #b7b5b3",
"#T c #b85804",
"#W c #b8b6b6",
"aj c #b95600",
".4 c #b9b9b9",
"a# c #ba5904",
".s c #bababa",
"au c #bb602e",
"bL c #bbb0a0",
"cO c #bc9c6d",
"cv c #bc9f71",
"cn c #bcae98",
"#r c #bd6e22",
"ce c #be9e75",
"bY c #bea279",
"c7 c #bea481",
"c1 c #bea98e",
"c0 c #bead92",
"c8 c #bfa37c",
"bR c #bfaf97",
"c6 c #c0a583",
"c. c #c0b19a",
"c5 c #c1aa86",
"cZ c #c1af97",
"c4 c #c2ab8b",
"c3 c #c2ab8d",
"#d c #c2c2c2",
"cY c #c3b39c",
"cm c #c5b6a1",
"cX c #c5b7a0",
"cW c #c6b8a3",
"cV c #c6b9a9",
"cU c #c6bbab",
"cR c #c6c2b6",
"cT c #c7bfb4",
"cS c #c8c1b7",
".m c #c9c9c9",
"bS c #cbba9e",
"c# c #ccbba1",
"#E c #cdcdcd",
"cp c #cebea5",
"b5 c #d3c8b4",
"cF c #d4c6ac",
"#n c #d5d5d5",
"#q c #d6b384",
"bT c #d6c1a3",
"cE c #d6c8b2",
"ca c #d7c4a6",
"cq c #d8c5ab",
"cl c #d8c9b5",
"bU c #dcc6a4",
"cb c #ddc7a9",
"cr c #decaab",
"#I c #e07203",
"cH c #e0cdb2",
"bV c #e1c9a5",
"cc c #e1caa7",
"cI c #e1cdae",
"#D c #e1e1e1",
"bX c #e2c69e",
"cN c #e2caa2",
"cM c #e2caa6",
"cs c #e2cbac",
"#w c #e2e2e2",
"bW c #e3c8a2",
"cd c #e3cba6",
"ct c #e3cca8",
"cD c #e3d4c1",
"cu c #e4cca7",
"cJ c #e4d0b0",
"#. c #e67300",
"cL c #e6ceaa",
"cK c #e6ceae",
"ai c #e76d24",
"cC c #e7dfcf",
"ck c #e8dac6",
"b4 c #e8dac8",
"#4 c #e9e9e9",
"a. c #ea7a00",
".u c #ea9d53",
".J c #eb9d53",
".D c #eb9d54",
"cB c #eee2ce",
"cz c #eee6da",
"cy c #eeeade",
"cj c #efe1ce",
"b3 c #f0e5d3",
"#8 c #f1780a",
"ci c #f1e6d4",
"bI c #f1e7d8",
"b. c #f1eade",
"cA c #f2e2ce",
"ch c #f2e8d7",
"b2 c #f2e8d9",
"cx c #f2eade",
"cw c #f2eee6",
"ah c #f3712f",
"cg c #f3eadc",
"bH c #f3ebdc",
"#B c #f48003",
"bG c #f4ede1",
"#V c #f4f4f4",
"b1 c #f5eee4",
"bF c #f5efe6",
"#g c #f68700",
".L c #f6ddae",
".F c #f6eab7",
"#Z c #f78403",
".S c #f7deb0",
"bE c #f7f1e8",
"aB c #f8f3eb",
".z c #f9efbc",
"ar c #f9f5f0",
"aA c #f9f6f0",
"#6 c #fab28f",
"ad c #faf8f5",
"#h c #fb8104",
".y c #fbb168",
"aN c #fbb490",
"ac c #fbfaf8",
".E c #fcb269",
"#X c #fcfaf9",
".U c #fd7d00",
"#z c #fd7f00",
"#R c #fd8000",
"## c #fd8300",
".V c #fd8400",
".O c #fd8401",
"#A c #fd8500",
"#S c #fd8502",
"#G c #fd8704",
".A c #fda732",
".v c #fdb46a",
".H c #fe8800",
".R c #feb369",
".K c #feb36a",
".r c #fefefe",
"#i c #ff0000",
"#9 c #ff7b16",
".W c #ff8601",
"#a c #ff8701",
"#0 c #ff8703",
".N c #ff8900",
"#H c #ff8d03",
"#1 c #ff9002",
"#b c #ff9101",
".T c #ffa036",
".M c #ffa13a",
".G c #ffa630",
"aP c #ffc9b0",
"af c #ffd0a8",
"aC c #ffd3aa",
"aD c #ffeace",
"aO c #fff5dc",
".w c #fffecc",
"as c #fffff5",
".q c #ffffff",
"QtQtQt.#.a.b.c.d.e.f.g.h.i.j.k.l.l.j.j.j.j.j.j.j.j.j.j.jQtQtQtQt",
"QtQtQt.b.m.m.m.m.m.m.m.m.m.m.m.n.m.m.m.m.m.m.m.m.m.m.m.jQtQt.o.o",
"QtQtQt.p.m.q.q.q.q.q.q.q.q.r.q.s.q.q.q.q.q.q.q.q.q.q.m.j.t.u.v.w",
"QtQtQt.x.m.q.q.q.q.q.q.q.q.r.q.s.q.q.q.q.q.q.q.q.q.q.m.t.u.y.z.A",
"QtQtQt.B.m.q.q.q.q.q.q.q.q.r.q.s.q.q.q.q.q.q.q.q.q.q.C.D.E.F.G.H",
"QtQtQt.B.m.q.q.q.q.q.q.q.q.r.q.s.q.q.q.q.q.q.q.q.q.I.J.K.L.M.N.O",
"QtQtQt.P.m.q.q.q.q.q.q.q.q.r.q.s.q.q.q.q.q.q.q.q.Q.u.R.S.T.U.V.W",
"Qt.o.o.X.Y.Z.0.1.2.e.3.s.s.4.s.s.s.o.o.o.o.o.Z.5.6.7.8.9#.###a#b",
".o.o.o.o.o.o.o.o.o.o#c#d.q.r.q.s.q.o.o.o.o.o.o.o.o.o.o.o#e#f#g#h",
".o.o.o.o.o.o.o.o#i#i#i#i#i#i#i#i#i#i#i#i#i.o.o.o.o.o.o.o.o.o#j#k",
".o.oQt#l#m#n#o#p#i#i#i#i#i#i#i#i#i#i#i#i#i#i#i#q#r#s#t.o.o.o.o#u",
"QtQtQt#v.m.q.q#w#i#i.o.o#x.s.s#y.s.o.o.o.o#i#i#i#z#A#B#C.o.o.o.o",
"QtQtQt#y.m.q.q#D#i#i.o.o#E.q.q.s.q.o.o.o.o#F#i#i#i#G#H#I#J.o.o.o",
"QtQtQt#K#L#M#N#O#i#i.o#P.s.s.s.s.s.o.o.o.o#Q#R#S#i#i#i#T#U.o.o.o",
"QtQtQt.o.o.o.o.o#i#i.c#V.q.q.q#W#X.o.o.o.o#Y#Z#0#1#i#i#i#2.o.o.o",
"Qt#i#i#i#i#i#i#i#i#i#3#4.q.q#X#5#6.o.o.o.o#7#8#9a.a#aa#i#i.o.o.o",
"Qt#i#i#i#i#i#i#i#i#i.oab#4acadaeaf.o.o.o.oagahaiajakalam#i#i.o.o",
"Qt#i#i.o.fanaoap.o.o.o.oaqadar#6as.o.o.o.oatauavawaxay.o#i#i.o.o",
"Qt#i#i.h.m.q.q.q.h.o.o.oazaAaBaCaD.o.o.o.oaEaFaGaHaIaJ.o#i#i.o.o",
"Qt#i#iaK.n.s.s.s.B.o.o.oaLaMaNaOaP.o.o.o.oaQaRaSaTaUaV.o#i#i.o.o",
"Qt#i#i#i#i#i#i#i#i#i#i#i#i#i#i#i#i#i#i#i#i#i#i#i#i#i#i#i#i#i.o.o",
".o#i#i#i#i#i#i#i#i#i#i#i#i#i#i#i#i#i#i#i#i#i#i#i#i#i#i#i#i#i.o.o",
".o.o.o.o.o.o.o.o.o.o.oaWaXaYaZaZa0.o.o.o.o.o.o.o.o.o.o.o.o.o.oQt",
".o.o.o.o.o.o.o.o.o.o#Oa1a2a0a0a0.o.o.o.o.o.o.o.o.o.o.o.o.o.oQtQt",
"Qt.o.oa3a4a5a6a7a8a9b.b#babbbc.obd.o.o.o.o.obebfbgbhbibjQtQtQtQt",
"QtQtQt#K.n#5bkblbmbnbobp.o.obqbrbsbtbubvbwbxbybzbAbBbCbDQtQtQtQt",
"QtQtQt.i.marbEbFbGbHbIbJbKbLbMbNbObPbQbRbSbTbUbVbWbXbYbZQtQtQtQt",
"QtQtQtb0.maBb1bGbHb2b3b4b5b6b7b8b9c.c#cacbcccdbWbWbXcebZQtQtQtQt",
"QtQtQtcf.mbEbGcgchcicjckclcmcncocpcqcrcsctcubWbWbWbXcvbZQtQtQtQt",
"QtQtQt.k.mcwcxcyczcAcBcCcDcEcFcGcHcIcJcKcLcMcNbXbXbXcOcPQtQtQtQt",
"QtQtQtcQcRcScTcUcVcWcXcYcZc0c1c2c3c4c5c6c7c8bYcecvcOcObZQtQtQtQt",
"QtQtQtc9d.d#d.d#dad.d#dadbdcddcPcPd.cPdebZdfbDbDbZbDbZdgQtQtQtQt"};
