/* XPM */
static char *edit_rect[]={
"32 32 372 2",
"bc c None",
"Qt c None",
"#p c #000000",
"bp c #000002",
"dX c #0a0a06",
"aE c #0d0703",
"b. c #120502",
"bC c #131516",
"dO c #161612",
"ar c #180a01",
"bS c #1f1a17",
"ac c #210f01",
"#I c #211001",
"aT c #21100e",
"bj c #26251f",
"dW c #2a2622",
"bd c #2b211c",
"b3 c #2d251d",
"dT c #2d2921",
"dU c #2d2925",
"cF c #2e261a",
"du c #2e261e",
"ck c #2e2a1e",
"dS c #2e2a22",
"dR c #2e2a26",
"b9 c #2e2e2f",
"dV c #322a1e",
"dP c #322a22",
"dQ c #322e2a",
"by c #342b1d",
"bB c #382f24",
"a9 c #3e3e3e",
"dv c #3f3f3f",
"bo c #443e37",
".l c #484848",
"bR c #4a4533",
".k c #4a4a4a",
"#Y c #4b4b4b",
"#J c #4c4c4c",
"#Z c #4e4e4e",
"cp c #4f4a37",
".j c #515151",
"ad c #545454",
"ba c #554c40",
"cG c #555555",
".i c #585858",
"bM c #595959",
"a7 c #5b4728",
"bq c #5b5b5b",
"a8 c #5e4836",
"as c #5f5f5f",
".h c #606060",
"aR c #624f30",
".g c #626262",
"#0 c #636363",
"b# c #645d52",
".f c #656565",
"#w c #666666",
".e c #676767",
".d c #6a6a6a",
"ca c #6b6359",
"c# c #6b645b",
".6 c #6b6b6b",
".W c #6c6c6c",
".O c #6d6d6d",
"bz c #6e4c36",
"aU c #6e6454",
".A c #6e6e6e",
".c c #6f6f6f",
"cb c #70685b",
"ct c #70685d",
".w c #707070",
"bk c #716a60",
"aQ c #734629",
".B c #764e2a",
".m c #764f2b",
"aV c #767676",
".b c #777777",
"cc c #786e60",
"cO c #7a7163",
".q c #7a7a7a",
".P c #7b5128",
"bA c #7b5848",
"bb c #7c7c7c",
"aD c #7d3d15",
".a c #7d7d7d",
"ab c #7f3903",
"#t c #803a04",
".H c #805430",
"bx c #807255",
"#o c #808080",
"cd c #817765",
"#v c #833b04",
"a6 c #83542f",
".Y c #835829",
"aS c #843c1c",
".# c #868686",
".7 c #885a2f",
"bD c #8a8b8b",
"cj c #8b775a",
"ce c #8b7f6c",
"cq c #8b8b8b",
"dH c #8c7c66",
"bE c #8c8274",
"c. c #8c8c8c",
"#X c #8d4004",
"c5 c #8d8270",
"bF c #8d8473",
"bT c #8d8577",
"bU c #8e8475",
"bG c #918775",
"bV c #928777",
".p c #939393",
"aq c #944504",
"aP c #94511c",
"cf c #948670",
"bi c #965534",
"bW c #998e7b",
"bH c #9b8e7c",
"cg c #9d8d76",
"cu c #9d9181",
"dl c #9f917e",
"a5 c #a15e3a",
"aC c #a24d0f",
"ch c #a29177",
"ci c #a39178",
"bX c #a39682",
"#W c #a44a04",
"cs c #a49989",
"aa c #a54b04",
"cv c #a59986",
"aB c #a6550d",
"#H c #a74c04",
"cN c #a79b8a",
"ap c #a84d03",
"#n c #a84f04",
"#s c #aa5004",
"bI c #aa9b84",
"aO c #ab6539",
"#e c #af723a",
"bL c #b09978",
"b8 c #b1aba2",
"bY c #b2a28b",
"cw c #b2a58f",
"b7 c #b2ada4",
"cP c #b3a591",
"b6 c #b3aea8",
"bl c #b48e6c",
"b5 c #b4b0a9",
"aZ c #b5b1ab",
"b4 c #b5b2ad",
"ag c #b6b3af",
"aY c #b6b4b1",
"#u c #b75604",
"bQ c #b79f7c",
"cM c #b7ab99",
"#1 c #b7b5b3",
"aX c #b7b6b5",
"#G c #b85804",
"#q c #b8824c",
"#K c #b8b6b6",
"aW c #b8b8b7",
"ao c #b95600",
"#V c #b95804",
".X c #b9b9b9",
"a# c #ba5904",
".t c #bababa",
"aA c #bb602e",
"b2 c #bba17e",
"cr c #bbb0a0",
"dt c #bc9c6d",
"da c #bc9f71",
"bJ c #bcab91",
"c4 c #bcae98",
"cW c #be9e75",
"cE c #bea279",
"dM c #bea481",
"dG c #bea98e",
"dF c #bead92",
"dN c #bfa37c",
"cx c #bfaf97",
"dL c #c0a583",
"cQ c #c0b19a",
"ay c #c18064",
"dK c #c1aa86",
"dE c #c1af97",
"dJ c #c2ab8b",
"dI c #c2ab8d",
"#l c #c35f04",
"bZ c #c3b095",
"dD c #c3b39c",
"aN c #c57e5d",
"c3 c #c5b6a1",
"dC c #c5b7a0",
"dB c #c6b8a3",
"dA c #c6b9a9",
"dz c #c6bbab",
"dw c #c6c2b6",
"az c #c76227",
"bn c #c7825b",
"dy c #c7bfb4",
"dx c #c8c1b7",
".o c #c9c9c9",
"bK c #cab99d",
"cy c #cbba9e",
"a4 c #cc8062",
"cR c #ccbba1",
"c6 c #cebea5",
"bh c #d18260",
"b0 c #d3bd9e",
"cL c #d3c8b4",
"dk c #d4c6ac",
"cz c #d6c1a3",
"dj c #d6c8b2",
"cS c #d7c4a6",
"c7 c #d8c5ab",
"c2 c #d8c9b5",
"bm c #db9770",
"ax c #dc946e",
"b1 c #dcc5a3",
"cA c #dcc6a4",
"cT c #ddc7a9",
"c8 c #decaab",
"#Q c #e07733",
"ak c #e07950",
"dm c #e0cdb2",
"cB c #e1c9a5",
"cU c #e1caa7",
"dn c #e1cdae",
"a3 c #e29a7e",
"cD c #e2c69e",
"ds c #e2caa2",
"dr c #e2caa6",
"c9 c #e2cbac",
"#7 c #e37630",
"cC c #e3c8a2",
"cV c #e3cba6",
"d. c #e3cca8",
"di c #e3d4c1",
"d# c #e4cca7",
"do c #e4d0b0",
"al c #e56430",
"#B c #e5884c",
"aM c #e69e7c",
"dq c #e6ceaa",
"dp c #e6ceae",
"an c #e76d24",
"#r c #e77604",
"dh c #e7dfcf",
"c1 c #e8dac6",
"cK c #e8dac8",
"a. c #ea7a00",
".u c #ea9d53",
".Z c #ea9d54",
"bg c #eaa282",
"#U c #eb7a04",
".I c #eb9d53",
".C c #eb9d54",
"dg c #eee2ce",
"de c #eee6da",
"dd c #eeeade",
"#A c #efc1ae",
"c0 c #efe1ce",
"cJ c #f0e5d3",
"#8 c #f1780a",
"#k c #f17b04",
"#F c #f17c03",
"aj c #f1ad8c",
"cZ c #f1e6d4",
"co c #f1e7d8",
"#P c #f2af97",
"df c #f2e2ce",
"cY c #f2e8d7",
"cI c #f2e8d9",
"dc c #f2eade",
"db c #f2eee6",
"am c #f3712f",
"cX c #f3eadc",
"cn c #f3ebdc",
"bP c #f4ede1",
"bw c #f5ede2",
"cH c #f5eee4",
"cm c #f5efe6",
"bO c #f5f0e6",
".K c #f6ddae",
".E c #f6eab7",
"bv c #f6f0e7",
"#R c #f78403",
"#6 c #f7ac84",
".R c #f7deb0",
"cl c #f7f1e8",
"bN c #f8f1e9",
"bu c #f8f2e9",
"aI c #f8f3eb",
"aw c #f9b99a",
".y c #f9efbc",
"bt c #f9f4ee",
"at c #f9f5f0",
"aH c #f9f6f0",
"#2 c #fab28f",
"#y c #fadcbb",
"bs c #faf6f1",
"aG c #faf8f3",
"af c #faf8f5",
"#d c #fafafa",
"#c c #fb8104",
".x c #fbb168",
".8 c #fbb169",
"#x c #fbb390",
"a0 c #fbb490",
"br c #fbf9f6",
"aF c #fbf9f8",
"ae c #fbfaf8",
".D c #fcb269",
"#f c #fcb26a",
"#L c #fcfaf9",
".T c #fd7d00",
"## c #fd7e00",
"#C c #fd8000",
".3 c #fd8300",
".U c #fd8400",
".N c #fd8401",
"#D c #fd8502",
"#a c #fd8504",
"#h c #fd982e",
"#. c #fda141",
".z c #fda732",
".n c #fdb46a",
"be c #fdb492",
".9 c #fddcb1",
".2 c #fe7f00",
".G c #fe8800",
"#i c #fe8804",
".Q c #feb369",
".J c #feb36a",
"#g c #fecd9f",
".0 c #fed7b7",
"#O c #fee2cd",
".s c #fefefe",
"#m c #ff0000",
"#9 c #ff7b16",
".V c #ff8601",
"#E c #ff8604",
".4 c #ff8701",
"#S c #ff8703",
".M c #ff8900",
"#b c #ff8c01",
"#j c #ff8e04",
"#T c #ff9002",
".5 c #ff9101",
".1 c #ffa030",
".S c #ffa036",
".L c #ffa13a",
".F c #ffa630",
"#5 c #ffc0a0",
"aL c #ffc9ad",
"a2 c #ffc9b0",
"#M c #ffd0a8",
"av c #ffd1b1",
"aJ c #ffd3aa",
"ai c #ffd7b5",
"bf c #ffe1c9",
"aK c #ffeace",
"#4 c #ffeed8",
"a1 c #fff5dc",
"ah c #fff7df",
"#N c #fff9f0",
"#z c #fffbdf",
".v c #fffecc",
"#3 c #fffff4",
"au c #fffff5",
".r c #ffffff",
"QtQtQt.#.a.b.c.d.e.f.g.h.i.j.k.l.l.j.j.j.j.j.j.j.j.j.j.jQtQt.m.n",
"QtQtQt.b.o.o.o.o.o.o.o.o.o.o.o.p.o.o.o.o.o.o.o.o.o.o.o.jQt.m.n.n",
"QtQtQt.q.o.r.r.r.r.r.r.r.r.s.r.t.r.r.r.r.r.r.r.r.r.r.o.j.m.u.n.v",
"QtQtQt.w.o.r.r.r.r.r.r.r.r.s.r.t.r.r.r.r.r.r.r.r.r.r.o.m.u.x.y.z",
"QtQtQt.A.o.r.r.r.r.r.r.r.r.s.r.t.r.r.r.r.r.r.r.r.r.r.B.C.D.E.F.G",
"QtQtQt.A.o.r.r.r.r.r.r.r.r.s.r.t.r.r.r.r.r.r.r.r.r.H.I.J.K.L.M.N",
"QtQtQt.O.o.r.r.r.r.r.r.r.r.s.r.t.r.r.r.r.r.r.r.r.P.u.Q.R.S.T.U.V",
"QtQtQt.W.p.t.t.t.t.t.t.t.t.X.t.t.t.t.t.t.t.t.t.Y.Z.Q.0.1.2.3.4.5",
"QtQtQt.6.o.r.r.r.r.r.r.r.r.s.r.t.r.r.r.r.r.r.7.Z.8.9#.##.U#a#b#c",
"QtQtQt.d.o.r.r.r.r.r.r.r.r.s.r.t.r.r.r#d.r#e.u#f#g#h##.U#i#j#k#l",
"Qt#m#m#m#m#m#m#m#m#m#m#m#m#m#m#m#m#m#m#m#m#m#m#m#m#m#m#m#m#m#l#n",
"Qt#m#o#p#o.o.o.o.o.o.o.o.o.o.o#o.o.o.o.7#q.Z.Z#r#r#r#r#r#r#m#s#t",
"Qt#m#o#p#o.o.o.o.o.o.o.o.o.o.o#o.o.o.7.Z.Z.Z#r#r#r#r#r#u#u#m#v#p",
"Qt#m#o#w.p.t.t.t.t.t.t.t.t.t.t.t.t#x#y#z#A#B#C#D#E#j#F#G#H#m#I#J",
"Qt#m#o.f.o.r.r.r.r.r.r.r.r.r.r#K#L#M#N#O#P#Q#R#S#T#U#V#W#X#m#Y#Z",
"Qt#m#o#0.o.r.r.r.r.r.r.r.r.r#L#1#2#3#4#5#6#7#8#9a.a#aaabac#m#Zad",
"Qt#m#o.g.o.r.r.r.r.r.r.r.raeafag#Mahaiajakalamanaoapaqar#Z#madas",
"Qt#m#o.g.o.r.r.r.r.r.r.saeafat#2auavawaxayazaAaBaCaDaE#p#Z#mas.6",
"Qt#m#o.h.o.r.r.r.r.r.saFaGaHaIaJaKaLaMaNaOaPaQaRaSaTaU#p#Z#m.6aV",
"Qt#m#oas.p.t.t.t.taWaXaYagaZa0a1a2a3a4a5a6a7a8a9b.b#ba#p#Z#maVbb",
"Qt#m#m#m#m#m#m#m#m#m#m#m#m#m#m#m#m#m#m#m#m#m#m#m#m#m#m#m#m#mbbbc",
"Qt#o#obd#o.o.o.o.o.o.o.o.obebfbgbhbibdbdbj#pbkbkbkbk#o#paVbbbcbc",
"QtQt#obd#o.o.o.o.o.o.o.o.oblbmbnbdbdbobpbkbkbkbkbkbk#o#pbbbcbcbc",
"QtQtQtbq.o.rbrbsbtbubvbwbxbybzbAbBbCbDbEbFbGbHbIbJbKbL#pbcQtQtQt",
"QtQtQtbM.o#LbsbtbNbObPbQbRbSbd#pbDbTbUbVbWbXbYbZb0b1b2b3bcQtQtQt",
"QtQtQtbM.p#1b4b5b6b7b8b9#p#pc.bkc#cacbcccdcecfcgchcicjckQtQtQtQt",
"QtQtQt.i.oatclcmbPcncocpcqcrcsctcucvcwcxcyczcAcBcCcDcEcFQtQtQtQt",
"QtQtQtcG.oaIcHbPcncIcJcKcLcMcNcOcPcQcRcScTcUcVcCcCcDcWcFQtQtQtQt",
"QtQtQtad.oclbPcXcYcZc0c1c2c3c4c5c6c7c8c9d.d#cCcCcCcDdacFQtQtQtQt",
"QtQtQt.k.odbdcdddedfdgdhdidjdkdldmdndodpdqdrdscDcDcDdtduQtQtQtQt",
"QtQtQtdvdwdxdydzdAdBdCdDdEdFdGdHdIdJdKdLdMdNcEcWdadtdtcFQtQtQtQt",
"QtQtQtdOdPdQdPdQdRdPdQdRdSdTdUdududPdudVcFdWckckcFckcFdXQtQtQtQt"};
