/* XPM */
static char *filter_poly_cursor[]={
"32 32 4 1",
"b c None",
"# c None",
"a c #000000",
". c #ffffff",
"...#############################",
".aa..###########################",
".aaaa..#########################",
"#.a..aa..#######################",
"#.a....aa.######################",
"##.a....aa.#####################",
"##.a...a..a.####################",
"###.a.aaa..a.###################",
"###.aaaaaa..a.##################",
"####.aaaaaa..a.#################",
"#####.aaaaaa..a.################",
"######.aaaaaa..a.###############",
"#######.aaaaaa..a.##############",
"########.aaaaaa............#####",
"#########.aaaaa...aaaaaaaaa...##",
"##########.aaa..aa.a.a.a.a.aaa.#",
"###########.a..aa.a.a.a...a..aa.",
"############..aa.a.a.a......a.aa",
"#############.a.a.a.a.a....a.a.a",
"##############.a.a.a.a....a.a.a.",
"#####......####.aaa.a.a..a.aaa.#",
"#bbb.aaaaaa.bbbb.aaaaaaaaaaaa.##",
"#bbb.a.....a.bbb#.a.a.a.a.aa.###",
"#bbb.a.bbbb.a.bb##.a...a.aa.####",
"#bbb.a.#####.a.bbb#.a...aa.#####",
"#b...a.#####b.a.#b##.a.aa.######",
"#.aaaa.#####b.a.#bb#.a..a.######",
"#.a...######b.a.##b#.a.aa.######",
"#.a...........a.##b#.a..a.######",
"#.aaaaaaaaaaaaa.#bb#.a.aa.######",
"#...............bb###.aa.#######",
"######################..########"};
