/* XPM */
static char *geo[]={
"34 34 864 2",
"Qt c None",
".T c None",
"ci c None",
"ke c None",
"lf c None",
"#e c None",
"bP c None",
"iX c None",
"h1 c None",
"#3 c None",
".# c None",
"#C c #000128",
"cP c #00022a",
"#2 c #00022c",
"ar c #00032c",
"aU c #00032e",
"#d c #010028",
"jn c #020024",
"iu c #03001e",
".S c #030022",
".A c #030026",
"hw c #1f4065",
".k c #628c89",
"jP c #000128",
"ch c #00022a",
"iW c #00022c",
"g3 c #0079be",
".z c #191137",
"bQ c #a2f7fe",
".a c #ffffff",
"kf c #000024",
"kY c #000128",
"dK c #00022a",
"bl c #00032c",
"iY c #02001a",
".l c #ffffff",
"kD c #000126",
"eb c #00022a",
"kd c #00032c",
".j c #6ac8c5",
"aT c #000028",
"eH c #00022a",
"it c #00032c",
"#c c #000a3c",
"aV c #aff8ff",
".U c #ffffff",
"lg c #000028",
"cO c #00012a",
"kC c #00022a",
"jm c #00032c",
"aq c #010026",
"h2 c #1a779e",
".b c #f1fafb",
"#D c #f3feff",
"bO c #00012a",
"lD c #00022a",
"#B c #000c3a",
"#1 c #020028",
".R c #052e73",
"lv c #00022a",
".y c #2778c3",
"h0 c #00022a",
"df c #00012a",
"gx c #35c8ff",
".i c #7ff1ed",
"lC c #00022a",
"jo c #053577",
"#f c #fefefe",
"kZ c #00012a",
"jO c #00022a",
"hv c #00022a",
"bk c #020024",
"lh c #000126",
"kE c #00042e",
"kg c #000b36",
"jQ c #042766",
"cj c #a2f7fe",
"cg c #000126",
"dJ c #00012a",
"kc c #00022a",
"iv c #1585af",
"kB c #00022a",
"#b c #0f5285",
".c c #ccfefe",
"g2 c #00022a",
"aS c #000732",
"ea c #00012a",
"kX c #00022a",
".B c #ffffff",
"lw c #00022a",
"ap c #001142",
"as c #b1f5ff",
".m c #ffffff",
"eG c #00012a",
"is c #00022a",
".h c #8ffffb",
"cN c #00022a",
"e9 c #00012a",
"lB c #00022a",
"li c #000024",
"k0 c #000634",
"bN c #000b38",
"le c #00022a",
"hx c #1fb2ff",
"lx c #00022a",
"lu c #00022a",
"f6 c #3fbdff",
"bm c #abf6ff",
"jN c #00022a",
"hZ c #00012a",
"#0 c #034685",
"cQ c #6edefe",
"#A c #11699b",
".d c #93dfff",
"ly c #00022a",
"de c #000630",
"kb c #00012a",
"iV c #00012a",
"kW c #00022a",
"lj c #020024",
".g c #97efff",
"kA c #00022a",
".Q c #3293ee",
"lA c #00022a",
"hu c #000028",
"lt c #00012a",
"lz c #00022a",
"bj c #002e62",
".x c #70dbfe",
"dI c #000630",
".e c #89d4ff",
"ld c #00012a",
"kF c #052965",
".f c #95e2ff",
"fB c #27abff",
"cf c #001d4c",
"jl c #000128",
"iZ c #0270d6",
"lk c #030024",
"dg c #53ccff",
"g1 c #000024",
"k1 c #00174c",
"#4 c #8ffde2",
".V c #fefefe",
"ls c #000028",
"ir c #000226",
"e# c #00062c",
"kV c #000128",
"kh c #083778",
"gw c #00032c",
"jM c #000226",
"ll c #030022",
"eF c #00042c",
"f. c #219eff",
"dL c #2dadff",
"kz c #000028",
"lr c #000126",
"f5 c #00042a",
"lc c #000226",
"fA c #00042c",
"e8 c #00052c",
"ka c #000226",
"iU c #000024",
"hY c #000128",
"ec c #1da7ff",
"eI c #1fa3ff",
"lm c #030022",
"lq c #000024",
"ln c #030022",
"lp c #020024",
"jR c #0e57aa",
"lo c #020022",
"jk c #000126",
"kU c #00012a",
"lb c #00022a",
"ht c #000b3a",
"cM c #003a66",
"aR c #005fb8",
"ky c #010026",
"iq c #000b3c",
"jp c #166fc2",
"g4 c #0b89ff",
"k# c #00052c",
"#E c #c1f1dc",
"jL c #000836",
"#g c #d1f3d7",
"h3 c #21aeff",
".n c #cef2ed",
"g0 c #001b52",
"bM c #076089",
"k2 c #002e68",
"la c #000d3c",
"#a c #3293bc",
".C c #ddf9ef",
"bR c #45bbff",
"iT c #001e5a",
"kT c #000f3a",
"aW c #45bfff",
"kG c #0c4484",
".w c #58c2fe",
"hX c #02307c",
"dd c #02577e",
"ao c #006d96",
"gv c #044578",
"l# c #002358",
"kx c #041a46",
"#z c #1585a1",
".P c #2caafa",
"#Z c #0077a8",
"jj c #0b356d",
".o c #b8eae3",
"k3 c #003974",
"dH c #005b72",
"k. c #062954",
"gy c #0071f0",
"f4 c #0d576d",
".v c #51bfff",
"kS c #092d5d",
"e. c #005160",
"ck c #1d9dff",
"jK c #0b3769",
"fz c #13616d",
"l. c #002a5a",
"eE c #005a6a",
"iw c #138dff",
"e7 c #096275",
"hs c #0054aa",
".p c #a8e2d2",
"ki c #155999",
"ce c #00668c",
"ip c #15549b",
"bi c #0066ae",
"kH c #034e8d",
"k4 c #003d6c",
".u c #51c8ff",
".W c #d3f7ef",
"hy c #037aff",
".D c #b3f3e5",
"at c #23c3ff",
"k9 c #003a70",
"f7 c #0063ea",
"bn c #1ba1ff",
"jS c #0c5bac",
"cR c #0b89ff",
"i0 c #0067da",
"kw c #133e63",
"gZ c #00488c",
".q c #59c7e3",
".O c #29b6ff",
"cL c #005451",
"kR c #1c486e",
"## c #128afa",
"k5 c #0c5186",
"iS c #125aa4",
"jq c #1767b9",
".t c #43baff",
"#5 c #77ed98",
"#h c #baecfe",
"k8 c #0a4d86",
"#F c #aceebc",
"fC c #0060e2",
"gu c #004866",
"aQ c #005fa8",
".r c #3bb7ff",
"hW c #0051a4",
"bL c #005a40",
"dc c #02582f",
"j9 c #135185",
"dh c #1382ff",
"ji c #155393",
".s c #4fbfff",
"g5 c #006cfe",
"k6 c #0e558c",
"kj c #175fa9",
"k7 c #085088",
"an c #0a7e51",
".E c #baecd7",
"#Y c #109461",
"kI c #004280",
"jJ c #1b558b",
"bS c #0586ff",
"#y c #0b8976",
"f3 c #087463",
"kv c #205790",
"h4 c #005eea",
"f# c #005de8",
".N c #1594ff",
"dG c #075f2a",
".X c #c1f1e5",
"hr c #002c5a",
"aX c #0090da",
"kQ c #10548e",
"dM c #0374ff",
"#. c #198bff",
"jT c #23609f",
"cd c #074d0a",
"ix c #0059de",
"fy c #0e8260",
"j8 c #2461a0",
"kk c #1d67b3",
"hz c #0046d6",
"i1 c #046df0",
"d9 c #0a5421",
"gz c #156ee7",
"iR c #1756a3",
"gY c #002832",
"bo c #008cee",
"io c #1a5aa2",
"jr c #1e5cba",
"am c #1ea62b",
"ku c #3563a1",
"#G c #5ad6fe",
"#6 c #98fac4",
".Y c #a4e9fa",
"hq c #001d44",
"gX c #00264c",
"kN c #00292e",
"kO c #002958",
"gt c #002b44",
"dF c #002e1e",
"hp c #002e6c",
"gs c #00316e",
"kK c #00325c",
"db c #003614",
"kL c #003770",
"kP c #00377c",
"kM c #003b64",
"bh c #003b84",
"bK c #003c40",
"e3 c #003f86",
"kl c #00428c",
"hV c #004294",
"eA c #004396",
"kJ c #00458c",
"bg c #00478a",
"f0 c #004892",
"fv c #004994",
"km c #00499c",
"d6 c #004ba8",
"bJ c #004dac",
"gq c #004e96",
"dD c #004f98",
"fZ c #004fa8",
"hn c #00509a",
"g7 c #0054de",
"d# c #00557c",
"fx c #005692",
"f2 c #00569e",
"kn c #0056c0",
"h5 c #005ae2",
"f1 c #005bc2",
"gB c #005bd6",
"g. c #005eea",
"dC c #0061f2",
"ee c #0062e8",
"hA c #0063ea",
"fE c #0064ec",
"bI c #0065ee",
"d. c #0065fc",
"eJ c #0067f4",
"ez c #0069e0",
"e2 c #006ae2",
"dN c #006aee",
"fb c #006bf0",
"cl c #006cf2",
"ca c #006df4",
"di c #0072f2",
"cI c #007462",
"fc c #0074f6",
"ed c #0075f8",
"cb c #007664",
"cS c #0076ee",
"gC c #0077f0",
"cH c #0078f2",
"eg c #007af6",
"gn c #0093fa",
"fe c #0099fa",
"eM c #00a0fc",
"#x c #00a681",
"e5 c #014d28",
"cK c #025000",
"e6 c #027254",
"fG c #0276f8",
"fH c #0277fa",
"aP c #027845",
"gr c #033d7f",
"fs c #036eff",
"gW c #043e86",
"f9 c #056ceb",
"fF c #0577f7",
"bf c #059f92",
"e1 c #0681fe",
"ey c #0776ff",
".9 c #0782ff",
"d8 c #085821",
"eD c #086234",
"fw c #0a5dba",
"eB c #0a5ea6",
"cc c #0a6a2c",
"e4 c #0b4587",
"hS c #0b55b1",
"fu c #0b5ecf",
"fd c #0b7eff",
"dz c #0b89ff",
"gV c #0c65c0",
"da c #0c6c32",
"eC c #0d7534",
"fW c #0d7fff",
"cF c #0d85ff",
"c9 c #0d8aff",
"aO c #0db10d",
"eK c #0e78fa",
"d7 c #0f507d",
"c. c #0f80ff",
"bF c #0f96ff",
"bT c #0fa2ff",
"#X c #0fbf41",
"eN c #0fccf5",
"ho c #116abd",
"cJ c #117532",
"ft c #118cff",
"fI c #1192ff",
"bd c #11b9f7",
"gR c #11d552",
"dE c #12544d",
"hm c #1255c4",
"hi c #12a816",
"gA c #136ae1",
"cG c #1388ff",
"eh c #138dff",
"d5 c #1393ff",
"ev c #158eff",
"bG c #1594ff",
"#w c #15efc8",
"ex c #178bf7",
"d4 c #178fff",
"dB c #1795ff",
"d3 c #17aaff",
"dP c #17c0ff",
"ko c #186a9e",
"hU c #195fad",
"kq c #196679",
".M c #19a0ff",
"ei c #19db90",
"dy c #1b96ff",
"cE c #1b9cff",
"gQ c #1ca630",
"ak c #1cd8cd",
"kr c #1d57b7",
"jh c #1d5ea7",
"fY c #1d84f7",
"c# c #1d8dff",
"eL c #1d92ff",
"g# c #1d97ff",
"eu c #1d9dff",
"g6 c #1e6bd4",
"kp c #1f6b46",
"f8 c #1f77e3",
"h6 c #1f98ff",
"dA c #1f9dff",
"d2 c #1fa8ff",
"#W c #1feb5d",
"gU c #205aaa",
"aM c #20d9e0",
"ew c #2194ff",
"cm c #21aeff",
"hh c #21d94c",
"al c #21dd3c",
"gp c #2268d0",
"gT c #227bf4",
"be c #22e4d4",
"eZ c #2390ff",
"e0 c #239aff",
"jI c #245aa4",
"fD c #2481ea",
"gm c #24c251",
"bc c #25a5ff",
"d0 c #25afff",
"il c #2665ac",
"in c #2666ae",
"fa c #268af0",
"gP c #26ac14",
"ik c #2763ad",
"fX c #2797ff",
"bH c #279cff",
"fV c #27a3d7",
"aI c #27c9ff",
"gO c #27df52",
"hR c #296ab3",
"bb c #29a2ff",
".K c #29b1ff",
"dw c #29c5ff",
"aN c #29f34b",
"d1 c #2badff",
".L c #2bb2ff",
"#r c #2bcfff",
"hT c #2c68ac",
"iQ c #2d6bb1",
"go c #2d90ff",
"eY c #2d95ff",
"aY c #2de94c",
"ii c #2e5fa2",
"jH c #2e63a4",
"hl c #2e93e0",
"i2 c #2f90fd",
"eX c #2f9bff",
"dO c #2fa9ff",
"c8 c #2faeff",
"jv c #307be2",
"jg c #316bad",
"fr c #3192ff",
"gD c #31a5ff",
"gS c #31afff",
"et c #31b9ff",
"dZ c #31bdff",
"ij c #3261a2",
"j7 c #3362a1",
"ks c #3363a5",
"hD c #339dff",
"iA c #359eff",
"hB c #35a7ff",
"aJ c #35b0ff",
"cD c #35b5ff",
"hj c #35cb4e",
"jG c #3668a6",
"im c #366fb0",
"au c #36ec76",
"j6 c #3761a1",
"h8 c #379fff",
"eW c #37adff",
"dt c #37d2ff",
"c6 c #37d7ff",
"dx c #37ebdc",
"jX c #38629a",
"#U c #38dfee",
"#V c #38f689",
"jW c #396299",
"gE c #39adff",
"b9 c #39bbff",
"c7 c #39c0ff",
"du c #39c5ff",
"h9 c #3ba0ff",
"g9 c #3baaff",
"cC c #3baeff",
"j5 c #3c639e",
"ju c #3c85e0",
"kt c #3d639b",
"ih c #3da188",
"bE c #3db4ff",
"fq c #3db8ff",
"j4 c #3f64a7",
"jf c #3f74af",
"iE c #3f9eff",
"i4 c #3fa7ff",
"dv c #3fb0ff",
"j3 c #405da8",
"gl c #40ce40",
"jU c #4169a5",
"jF c #4171b3",
"iP c #4175b5",
"iB c #41a8ff",
"#v c #41d4ff",
"hk c #41ef5a",
"bp c #42ee5b",
"i3 c #43a4ff",
"iz c #43a9ff",
"b7 c #43c3ff",
"cT c #43c8ff",
"gj c #43e365",
".8 c #45aeff",
"hQ c #45af83",
"es c #45c4ff",
"iN c #4676ac",
"jw c #468ade",
"fo c #46ccd8",
"b8 c #47b3ff",
"aL c #47bcff",
"js c #4886d2",
"iM c #4970a5",
"iO c #4978b9",
"i# c #49a3ff",
"jY c #4a64a0",
"jD c #4a6dac",
"h7 c #4bacff",
"gk c #4bd440",
"iL c #4c819c",
"fn c #4cf0ea",
"jE c #4d74a5",
"je c #4d7ab7",
"aK c #4dc2ff",
"dY c #4dcfff",
"#7 c #4ee6f0",
"iy c #4faeff",
"fp c #4fccdb",
"c4 c #4ff5f7",
"#P c #4ff7d2",
"fU c #50dea4",
"cB c #50eeec",
"jC c #517e89",
"jt c #5190e5",
"ba c #51bbff",
"ef c #51c4ff",
"fS c #53df77",
"aH c #54f4ae",
"jd c #557db3",
"dQ c #55f7e2",
"ff c #56ddfa",
"hG c #58aefe",
"ej c #58cdfe",
"jZ c #5979b5",
"jc c #5981a9",
"jb c #5a859e",
"ha c #5ab3fe",
"#u c #5ac2fe",
"jA c #5b944e",
"i5 c #5cb4fe",
"hC c #5cb8fe",
".7 c #5cbffe",
"b# c #5cc7fe",
"aj c #5ccefe",
"jV c #5e7baa",
"j2 c #5e8466",
"#T c #5ebcfe",
"#q c #5ec0fe",
"fR c #5ef869",
"#O c #5ffdd2",
"jB c #609646",
"c3 c #60dbfe",
"hE c #64bbfe",
"g8 c #64c2fe",
"b6 c #65eef7",
"jx c #6692ea",
".6 c #66bcfe",
"bD c #66c7fe",
"cz c #67ecf7",
"#Q c #67f3b6",
"iK c #68ae72",
"bB c #68c4fe",
"ai c #6ac1fe",
"hP c #6aee6d",
"ig c #6be15f",
"ah c #6be1f7",
"bC c #6cc5fe",
"c5 c #6cf0ad",
"iD c #6eb9fe",
"gc c #6ec3fe",
"#t c #6edefe",
"gH c #70c0fe",
".J c #70cafe",
"#s c #70fee1",
"ja c #71ac6e",
"eV c #72c1fe",
"b5 c #74ccfe",
"hH c #74cffe",
"j0 c #769a94",
"b. c #76f8f6",
"bU c #76fe89",
"gb c #78cafe",
"hN c #78e466",
"#H c #78f1f6",
"#8 c #79fdbd",
"fL c #7ac5fe",
"cy c #7ad7fe",
"j1 c #7ba15d",
"#L c #7bf993",
"dX c #7cdefe",
"fm c #7cecce",
"fT c #7deb9c",
".5 c #7ec0fe",
"gG c #7eccfe",
"#S c #7ff1ef",
"fl c #80e8af",
"fK c #81ceff",
"hO c #81f167",
"gi c #81fbac",
"jz c #82bd5f",
"eO c #83e8f7",
"jy c #84c8c6",
"iC c #85c7ff",
".I c #85d8f3",
"fJ c #85deff",
"dR c #85e3ff",
"ia c #86dae4",
"dj c #87dcff",
".H c #88ddea",
"i. c #89c6ff",
"h. c #89ceff",
".F c #89e1e9",
"cn c #89f1d5",
"#m c #8aecb1",
"i7 c #8bbfff",
"i8 c #8bd7c6",
"dl c #8be5ff",
"fh c #8dd3ff",
"er c #8dddff",
"eU c #8fd1ff",
"fg c #8fd6ff",
"#N c #91f9c2",
"if c #93f670",
"#K c #93fbb5",
"j# c #94d866",
"gN c #94fe86",
"b4 c #95e5ff",
"bA c #95f7ea",
"cW c #96f3fe",
"i6 c #97d4ff",
".G c #98dfe6",
"c2 c #99f2ff",
"hM c #99f470",
"ae c #9afa84",
"gF c #9be1ff",
"ad c #9dfc8e",
"#p c #9edbfe",
"eq c #9ee2fe",
"hg c #9efe78",
"#i c #9fe0f1",
"ie c #9ff86e",
"h# c #a0d5fe",
"ds c #a0e7fe",
"dm c #a0f4fe",
"#l c #a2f2d7",
"#M c #a3fd97",
"ep c #a4ddfe",
"#j c #a4e8fe",
"ga c #a4eafe",
"ag c #a4fc9a",
"#I c #a4fedb",
"ek c #a6ebfe",
"iF c #a7ebdd",
"gg c #a8fe74",
"iJ c #a9f37d",
"hF c #aaddfe",
"hf c #aafe66",
"#9 c #aafeb4",
"cU c #ace3fa",
"eQ c #acf4e2",
"a9 c #acfac4",
"#J c #adfbe9",
"#o c #aff1e4",
"eo c #b1eaff",
"av c #b2f8e0",
"j. c #b3e1a3",
"fM c #b3e1ff",
"eT c #b3ecfd",
"hb c #b3f7e6",
"dk c #b3ffb1",
"eP c #b5e7ff",
"aw c #b5f0ff",
"cx c #b5fcff",
"gM c #b5fe66",
"id c #b6f799",
"fi c #b6faf7",
"fk c #b6fd97",
"#k c #b7ebff",
"a. c #b7ffc8",
"#n c #b8f3b3",
"gL c #b8fc8e",
"af c #b9ff93",
"gh c #bafe7e",
".4 c #bcd9fe",
"dr c #bcf1fe",
"fQ c #bcfe76",
"fP c #bcff81",
"iH c #bdfb9b",
"gf c #bdfda1",
"dW c #beeafe",
"he c #bef9a7",
"hL c #befd9b",
"aF c #bfff81",
"cA c #c1fe80",
"fN c #c3f9d7",
"dS c #c3f9e1",
"iI c #c3ff9b",
"gd c #c4f1fc",
"cp c #c4feea",
"aE c #c4ff8f",
"aZ c #c7fde4",
"ax c #c8faf8",
"fj c #c8fdc1",
".2 c #c9ecf3",
"en c #cafcdf",
"#R c #cafea0",
"aG c #ccff8b",
"c0 c #cdf5ff",
".0 c #d0e9f4",
".1 c #d0ebf4",
"gI c #d0faf0",
"cX c #d0fcc2",
"c1 c #d4f7fe",
"cv c #d7f4ff",
"dq c #d7f5ff",
"aa c #d8febe",
"a7 c #d9fec0",
"fO c #daffab",
"hK c #dbf9d1",
"ge c #dbfbdc",
"eS c #dbfbf1",
"a# c #dbffc5",
"cV c #dcfea0",
"em c #dcfed4",
"b3 c #dcfee0",
"dV c #ddf6ff",
"a8 c #ddfeaa",
"co c #deffaf",
"a0 c #e0f7fe",
"a6 c #e0fecc",
"el c #e0fee8",
"cu c #e1f5ff",
"ic c #e1fad8",
"eR c #e1ffc3",
"hI c #e2ffcf",
"by c #e3ffd5",
"cw c #e3fff8",
"i9 c #e4fdaf",
"gK c #e5fce4",
"ib c #e5ffc7",
".3 c #e6eef2",
"aD c #e8fec0",
".Z c #eaf2f6",
"aC c #eafeca",
"bz c #eaffb1",
"b2 c #ebfdeb",
"ac c #ebfebc",
"bq c #ebffe9",
"dU c #ebfffa",
"ay c #ecfaf6",
"b1 c #edf9ff",
"bW c #edfbed",
"a5 c #edffd9",
"az c #effde9",
"cZ c #f1fbfd",
"ab c #f1ffc7",
"hc c #f1ffd7",
"hd c #f2fcf4",
"gJ c #f2fede",
"aB c #f2ffcf",
"dp c #f3faff",
"cq c #f4ffe5",
"bx c #f4ffe7",
"hJ c #f7ffe5",
"ct c #f8fbfc",
"bs c #f8fcfa",
"bt c #f8fcfb",
"bY c #f8fcfc",
"bV c #f8ffd7",
"bw c #f8ffed",
"bX c #f9fbf7",
"a1 c #f9fbfd",
"bv c #f9fcf6",
"cs c #f9fdfb",
"a4 c #f9fef0",
"bZ c #fafcf8",
"bu c #fafcfb",
"aA c #faffe1",
"dn c #faffe5",
"a3 c #fcfcfc",
"br c #fdfafe",
"dT c #fdfee0",
"cr c #fdfefc",
"a2 c #fefbff",
"b0 c #fefcfc",
"iG c #feffe9",
"cY c #fffdef",
"do c #fffdf3",
"QtQtQtQtQtQtQtQtQtQt.#.a.b.c.d.e.f.g.h.i.j.kQtQtQtQtQtQtQtQtQtQtQtQt",
"QtQtQtQtQtQtQtQt.#.l.m.n.o.p.q.r.s.t.u.v.w.x.y.z.AQtQtQtQtQtQtQtQtQt",
"QtQtQtQtQtQtQt.#.B.C.D.E.F.G.H.I.J.K.L.M.N.O.P.Q.R.S.TQtQtQtQtQtQtQt",
"QtQtQtQtQt.#.U.V.W.X.Y.Z.0.1.2.3.4.5.6.7.8.9#.###a#b#c#d#eQtQtQtQtQt",
"QtQtQtQt.##f#g#h#i#j#k#l#m#n#o#p#q#r#s#t#u#v#w#x#y#z#A#B#CQtQtQtQtQt",
"QtQtQtQt#D#E#F#G#H#I#J#K#L#M#N#O#P#Q#R#S#T#U#V#W#X#Y#Z#0#1#2QtQtQtQt",
"QtQtQt#3#4#5#6#7#8#9a.a#aaabacadaeafagahaiaj.Lakalamanaoapaqar#eQtQt",
"QtQt.#asatauavawaxayazaAaBaCaDaEaFaGaHaIaJaKaLaMaNaOaPaQaRaSaTaUQtQt",
"QtQtaVaWaXaYaZa0a1a2a3a4a5a6a7a8a9b.b#baaJbbbcbdbebfbgbhbibjbkblQtQt",
"Qt.#bmbnbobpbqbrbsbtbubvbwbxbybzbAb#bBbCbDbEbFbGbHbIbJbKbLbMbNbObPQt",
"QtbQbRbSbTbUbVbWbXbYbsbZb0b1b2b3b4b5b6b7b8b9.Mc.c#cacbcccdcecfcgchci",
"QtcjckclcmcncocpcqcrcsctcucvcwcxcyczcAcBcCcDcEcFcGcHcIcJcKcLcMcNcOcP",
"QtcQcRcScTcUcVcWcXcYa3cZc0c1c0c2c3c4c5c6c7c8bFc9cFd.d#dadbdcdddedfcP",
"Qtdgdhdicmdjdkdldmdndodpdqdrdsc3dtdudvdwdxdydzdAdBdCdDdEdFdGdHdIdJdK",
"QtdLdMdNdOcEdPdQdRdSdTdUdVdWdXdYdZd0d1d2d3d4d5cEdBcad6d7d8d9e.e#eaeb",
"Qtecedeeefegeheiejekelemeneoepeqereset.KeuevewexeyezeAeBeCeDeEeFeGeH",
"QteIeJeKbEcleLeMeNeOePeQeReSeTeUeVeWeXeYeZe0dAe1c.e2e3e4e5e6e7e8e9eH",
"Qtf.f#fafbfc.9fdfefffgfhfifjfkflfmfnfofpfqfrfsftbHfufvfwfxfyfzfAe9eH",
"QtfBfCfDfEfFfGfHfIfJfKfLfMfNfOfPfQfRfSfTfUfVfWfXfYfZf0f1f2f3f4f5e9eH",
"Qtf6f7f8fEf9g.fbg#gagbgcgdgegfggghgigjgkglgmgngogpgqgrgsgtgugvgweGeH",
"QtgxgygzgAgBgCgDgEgFgGgHgIgJgKgLgMgNgOgPgQgRgSgTgUgVgWgXgYgZg0g1g2eb",
"Qtg3g4g5g6g7ewg8g9h.h#hahbhchdhehfhghhhihjhkhlhmhnhohphqhrhshthuhvch",
"QthwhxhyhzhAhBhChDhEhFhGhHhIhJhKhLhMhNhOhPhQhRhShnhThUhVhWhXhYhZh0cP",
"Qth1h2h3h4h5h6h7h8h9gGi.i#iaibicidieifigihiiijikiliminioipiqirisitcP",
"QtQtiuiviwix.9iyiziAiBiCiDiEiFiGiHiIiJiKiLiMiNiOiPiQiRiSiTiUiVhviWQt",
"QtQtiXiYiZi0i1i2iyi3i4i5i6i7i8i9j.j#jajbjcjdjejfjgjhjijjjkjlisjmbPQt",
"QtQtQtjnjojpjqjrjsjtjujvjwjxjyjzjAjBjCjDjEjFjGjHjIjJjKjLjMjNjOiWQtQt",
"QtQtQt.TjPjQjRjSjTjUjVjWjXjYjZj0j1j2j3j4j5j6j7j8j9k.k#kakbkckdbPQtQt",
"QtQtQtQtkekfkgkhkikjkkklklkmknkokpkqkrksktkukvkwkxkykzkAkBkC#2QtbPci",
"QtQtQtQtQtarkDkEkFkGkHkIkJkKkLkMkNkOkPf0kQkRkSkTkUkVkWkXkCarbPQtbPci",
"QtQtQtQtQt#ekekYkZk0k1k2k3k4k5k6k7k8k9l.l#lalblcldlekcjm#2bPQtQt#eci",
"QtQtQtQtQtQtQtlfchlglhliljlklllmlnlolplqlrlsltlug2h0blbPQtQtQtQtQtQt",
"QtQtQtQtQtQtQtQtbP#2bllvkclwlxlykAlzlAkWjNlBkBlCeHch#2QtQtQtQtQtQtQt",
"QtQtQtQtQtQtQtQtQtQtcicPchdKebkClDlDlDkCeHebchcPcPciciQtQtQtQtQtQtQt"};
