/* XPM */
static char *geo_under[]={
"34 34 468 2",
"Qt c None",
"cv c #00ff89",
"bx c #0143fe",
"bW c #01f6f9",
"bt c #01f6fb",
"dl c #01fe2f",
"dQ c #01fe3b",
"dR c #01fe42",
"cY c #01fe73",
"bp c #01fe87",
"cV c #01ff41",
"dm c #01ff42",
"bb c #02f9ef",
"dd c #02fb45",
"bB c #02fcb7",
"bS c #02fd84",
"bz c #02fd88",
"bZ c #034bf6",
"br c #03fabd",
"cP c #03facc",
"bV c #03faeb",
"ed c #03fc18",
"cx c #03fd85",
"b. c #03fdbd",
"cw c #03fe90",
"e4 c #040404",
"dP c #04f32b",
"b2 c #04f56c",
"bC c #04f6c5",
"ch c #04f747",
"dg c #04f7ad",
"cO c #04f886",
"cX c #04f970",
"eE c #050505",
"ee c #05ec1b",
"ba c #05f4e5",
"eA c #05f552",
"ci c #05f569",
"e# c #05f66e",
"ea c #05f688",
"ck c #05f6ad",
"cu c #05f76e",
"bo c #05f872",
".u c #060606",
"cp c #0663ee",
"bw c #0675ea",
"bv c #06b0ea",
"di c #06e6ec",
"cn c #06e8f1",
"dG c #06ec36",
"e. c #06f04a",
"cQ c #06f0e6",
"bD c #06f2c5",
"cW c #06f358",
"eB c #06f36a",
"b5 c #06f3a6",
"ct c #06f453",
"dn c #06f454",
"bE c #06f4bd",
"bs c #06f4de",
"df c #06f587",
"dJ c #06f5ac",
"#n c #070707",
"cR c #07caf0",
"dp c #07e837",
"cM c #07f049",
"do c #07f057",
"dH c #07f068",
"b4 c #07f1a5",
"bQ c #07f24a",
"cN c #07f269",
"bR c #07f367",
"cj c #07f388",
"eC c #07f38c",
"bT c #07f3a3",
"bU c #07f3c8",
"dI c #07f48f",
"bc c #07f4de",
"#D c #080808",
"cS c #087adc",
"dj c #089ee4",
"bu c #08d7f0",
"dF c #08dd1c",
"ef c #08df23",
"eg c #08e028",
"ez c #08e32d",
"d9 c #08e516",
"bn c #08e948",
"de c #08ee58",
"b3 c #08ef94",
"a9 c #08ef9a",
"bq c #08f093",
"cl c #08f3c9",
"b0 c #090909",
"bY c #0981de",
"co c #099fdd",
"bX c #09ccef",
"cZ c #09ee57",
"cy c #09ee60",
"bA c #09ee97",
"b6 c #09ef90",
"bd c #09ef94",
"eb c #09efac",
"b# c #09efcd",
"cm c #09f0de",
"dh c #09f1d0",
"a7 c #0a0a0a",
"dc c #0ae224",
"eD c #0ae6cd",
"dK c #0aedce",
"#U c #0b0b0b",
"dL c #0bb9df",
"dO c #0bcc22",
"ec c #0bd0d9",
"cL c #0bdc24",
"cg c #0bdc27",
"b7 c #0be65c",
"bF c #0be980",
"fa c #0c0c0c",
"c0 c #0cd62b",
"bP c #0ce023",
"fe c #0d0d0d",
".0 c #0e0e0e",
"dS c #0ee51e",
"dE c #0ef309",
"#a c #0f0f0f",
"fp c #101010",
"db c #10f50b",
"#C c #121212",
"bm c #12e11a",
"cz c #13ce29",
"cK c #13f40d",
"eh c #16e50d",
"ey c #16f20b",
"d8 c #16f607",
"fq c #171717",
"cf c #18f20f",
".t c #191919",
"ax c #1a1a1a",
"fm c #1b1b1b",
"e3 c #1d1d1d",
"fr c #1f1f1f",
"dq c #20e00d",
"fn c #222222",
"be c #22d82d",
"fd c #232323",
"eN c #242424",
"bG c #25dd26",
"bO c #25f00d",
"aa c #262626",
"eM c #272727",
"aj c #282828",
".J c #2a2a2a",
"d7 c #2af605",
"aE c #2c2c2c",
"fl c #2d2d2d",
"b8 c #2dd819",
"c1 c #2de60c",
"ex c #2df804",
"e8 c #2e2e2e",
"e7 c #2f2f2f",
"dD c #2ff407",
"ff c #313131",
"a. c #323232",
"da c #34f405",
"fj c #353535",
"aD c #363636",
"ak c #373737",
"cJ c #37f307",
"#m c #383838",
"bl c #38eb0c",
"#9 c #393939",
"eP c #3a3a3a",
"fi c #3c3c3c",
"cq c #3d3d3d",
"fk c #3e3e3e",
"av c #3f3f3f",
"eK c #404040",
"ew c #40fe02",
"ai c #414141",
".Z c #424242",
"ce c #42f207",
"fc c #434343",
"eO c #444444",
"fo c #454545",
"cT c #464646",
"cA c #46e70c",
"#R c #474747",
"aw c #484848",
"#S c #494949",
"au c #4a4a4a",
"fg c #4b4b4b",
"#T c #4c4c4c",
"#B c #4d4d4d",
"d6 c #4df307",
"a# c #4e4e4e",
"#A c #4f4f4f",
"eT c #505050",
"fh c #515151",
"dC c #51f108",
"## c #525252",
"dk c #535353",
"fb c #545454",
"#l c #555555",
"dN c #565656",
"ah c #575757",
"eL c #585858",
"dT c #58e20e",
"cs c #595959",
".9 c #5a5a5a",
"ay c #5b5b5b",
"at c #5c5c5c",
"eF c #5d5d5d",
"bN c #5dee0a",
"#k c #5e5e5e",
"#Q c #5f5f5f",
"eG c #606060",
"d# c #60f307",
"aC c #616161",
"#. c #626262",
"#z c #646464",
"eQ c #656565",
"a6 c #6585e4",
"a0 c #65dec5",
"aX c #66e7a9",
".s c #676767",
"a5 c #679ce0",
"aM c #67d9ac",
"a2 c #67dee4",
"aK c #67e1e6",
"aJ c #67e5e5",
"aI c #67e6dd",
"aG c #67e7bf",
"a1 c #67e7e0",
"#8 c #686868",
"aZ c #68e3b8",
"aL c #68e6e0",
"a4 c #69b1d7",
"a3 c #69cde2",
"aV c #69d87a",
"aW c #69df95",
"aY c #69dfad",
"#X c #6a6a6a",
"cI c #6aed0a",
".V c #6b6b6b",
"aH c #6bdec7",
"ev c #6bf308",
"al c #6c6c6c",
"as c #6d6d6d",
"#j c #6e6e6e",
"a8 c #6f6f6f",
"aF c #707070",
"e9 c #717171",
"bf c #71e90c",
".X c #727272",
"e2 c #737373",
"e0 c #747474",
".W c #757575",
"f# c #767676",
"aN c #76d17e",
"d5 c #76f407",
"e6 c #777777",
"aU c #77df6b",
".Y c #787878",
".F c #797979",
"eZ c #7a7a7a",
"dr c #7ae60e",
"eJ c #7c7c7c",
"bk c #7ceb0a",
".i c #7d7d7d",
"bH c #7dea0b",
"am c #7e7e7e",
".I c #7f7f7f",
"c2 c #7fe80e",
".E c #808080",
"ab c #818181",
"cU c #828282",
"ei c #82e210",
"dB c #82f407",
"#y c #838383",
"cd c #83f00a",
"cr c #848484",
"b1 c #858585",
"#5 c #868686",
"#6 c #878787",
"#7 c #888888",
"e1 c #898989",
"az c #8a8a8a",
".H c #8b8b8b",
"eU c #8c8c8c",
"by c #8d8d8d",
".C c #8e8e8e",
".D c #8f8f8f",
".G c #909090",
"eI c #919191",
"#N c #929292",
"b9 c #92eb0b",
"#P c #939393",
"aB c #949494",
"d. c #94f109",
"#x c #959595",
".U c #969696",
".m c #979797",
"aT c #97db67",
"ar c #989898",
"#M c #999999",
"#O c #9a9a9a",
".o c #9b9b9b",
"dM c #9c9c9c",
"aO c #9cdc6c",
"eu c #9cef0a",
".8 c #9d9d9d",
".5 c #9e9e9e",
"#W c #9f9f9f",
"aq c #a0a0a0",
"#4 c #a1a1a1",
".n c #a2a2a2",
"cB c #a2e50f",
".p c #a3a3a3",
"bM c #a3ed0b",
"eY c #a4a4a4",
".l c #a5a5a5",
"d4 c #a5f10a",
".q c #a6a6a6",
".h c #a7a7a7",
".T c #a8a8a8",
"cH c #a8eb0d",
"#3 c #aaaaaa",
"eH c #ababab",
"#v c #acacac",
"af c #adadad",
"dU c #adcc12",
"#w c #aeaeae",
"ag c #afafaf",
"f. c #b0b0b0",
"#d c #b1b1b1",
"#L c #b2b2b2",
".B c #b3b3b3",
"eS c #b4b4b4",
"ap c #b5b5b5",
"ds c #b6cd13",
"#h c #b7b7b7",
"dA c #b7ee0b",
"#i c #b9b9b9",
"e5 c #bababa",
".r c #bbbbbb",
".7 c #bcbcbc",
"bj c #bcef0b",
"#f c #bdbdbd",
"aS c #bde06a",
"eV c #bebebe",
".A c #bfbfbf",
".d c #c0c0c0",
".z c #c1c1c1",
"eX c #c3c3c3",
".x c #c4c4c4",
"#o c #c5c5c5",
"c3 c #c5df0e",
"#t c #c6c6c6",
".y c #c7c7c7",
".6 c #c8c8c8",
"aP c #c8e26a",
".c c #c9c9c9",
"#s c #cacaca",
".k c #cbcbcb",
"et c #cbef0c",
"cc c #cbf10b",
"bg c #cbf407",
".e c #cccccc",
"c9 c #ccf00b",
"ej c #cdb610",
"ao c #cdcdcd",
"#g c #cecece",
"#c c #cfcfcf",
"eR c #d0d0d0",
"eW c #d1d1d1",
".3 c #d2d2d2",
".f c #d3d3d3",
"cC c #d3d50a",
".S c #d4d4d4",
"#p c #d5d5d5",
"aR c #d5e26a",
"#u c #d6d6d6",
".g c #d7d7d7",
".4 c #d8d8d8",
"bI c #d8f308",
"dV c #d9a00e",
"dt c #d9b50e",
"#e c #d9d9d9",
"es c #dacf0c",
"dz c #dad90c",
".w c #dadada",
"#K c #dbdbdb",
".2 c #dcdcdc",
"c. c #dceb0a",
".1 c #dddddd",
".M c #dedede",
"aQ c #dee768",
"d3 c #def109",
"bL c #def408",
"c8 c #dfcc0d",
"#E c #dfdfdf",
"cG c #dfe50b",
"d2 c #e0bd0c",
"#V c #e0e0e0",
".Q c #e1e1e1",
"c4 c #e2c20c",
"cb c #e2db0d",
".O c #e2e2e2",
"bJ c #e3da0c",
".P c #e3e3e3",
"bK c #e4dc0b",
".j c #e4e4e4",
"#2 c #e5e5e5",
"#q c #e6e6e6",
"#1 c #e7e7e7",
"c# c #e8d008",
"#F c #e8e8e8",
"dW c #e9790b",
".L c #e9e9e9",
"ek c #eb7509",
".R c #ebebeb",
".b c #ececec",
".v c #ededed",
"ae c #eeeeee",
"el c #ef4007",
"eq c #ef6a09",
"d1 c #ef8c0a",
"du c #ef9c08",
"c7 c #efac09",
".N c #efefef",
"em c #f02c06",
"eo c #f02f06",
"dX c #f05f07",
"c6 c #f0a109",
"er c #f0aa08",
"c5 c #f0ab08",
"dy c #f0b50a",
"#Y c #f0f0f0",
"bi c #f0fc01",
"d0 c #f16108",
"cF c #f1d006",
"#r c #f1f1f1",
"en c #f22604",
"dw c #f27406",
"#0 c #f2f2f2",
"dx c #f38606",
"#J c #f3f3f3",
"#G c #f4f4f4",
"bh c #f4fb00",
"dY c #f55006",
"#H c #f5f5f5",
"an c #f6f6f6",
"ca c #f7dc05",
".a c #f7f7f7",
"ep c #f84004",
"#I c #f8f8f8",
"dv c #f98503",
"ad c #f9f9f9",
"#b c #fafafa",
"ac c #fbfbfb",
"#Z c #fcfcfc",
"dZ c #fd5303",
"cD c #fdd202",
"aA c #fdfdfd",
"cE c #fec801",
".K c #fefefe",
".# c #ffffff",
"QtQtQtQtQtQtQtQtQtQtQt.#.a.b.c.d.e.f.g.c.h.iQtQtQtQtQtQtQtQtQtQtQtQt",
"QtQtQtQtQtQtQtQtQt.#.#.j.g.k.l.m.n.o.h.p.q.r.s.t.uQtQtQtQtQtQtQtQtQt",
"QtQtQtQtQtQtQtQt.#.v.w.g.x.y.z.A.B.C.D.E.F.G.H.I.J.uQtQtQtQtQtQtQtQt",
"QtQtQtQtQtQt.#.K.L.M.f.N.O.P.Q.R.S.B.T.q.U.V.W.X.Y.Z.0.uQtQtQtQtQtQt",
"QtQtQtQtQt.K.O.1.e.S.2.3.z.S.4.k.T.5.6.7.h.T.8.s.9#.###a.uQtQtQtQtQt",
"QtQtQtQt#b.1#c#d.6#e.1.e#f#g.e.A#h#i.1.c.q.h.p.C#j#k#l#m.u#nQtQtQtQt",
"QtQtQtQt.3#h#c.B#o#p.1.L#q#r.v#s#t#u#g.r#v#w.D#x#y#z#A#B#C.u#DQtQtQt",
"QtQtQt#E#x.o.2.M#F#G#H#I#J.N.b#e#p#K#L#M#N.p.5#O#P#Q#R#S#T#U.u#DQtQt",
"QtQt#V#W#X.D#q#Y#b#Z#Z#b#0.R#1#2#u.k#3#4#N#5#6#7.5#8#9a.a#aa.u#DQtQt",
"QtQt.1ab.V.o#Gac#b#bac#bad.aae.R.f#3afag#w.U.Y.F#yahaiajak#R.0#nQtQt",
"Qt.w.8alam.7an#Gad#b#b#b#Z#H#G.vaoap.daq#Mar.Eas.Yatauav.Jawax.u#nQt",
"Qt.w.Eayaz.6#1#q.aaAac#b.N.R#G.j#f.d#p#h#PaB.I#j.XaC#SawajaDaE#n#n#n",
"Qt.7aFaGaHaIaJaKaLaMaNaOaPaQaRaSaTaUaVaWaXaYaZa0a1a2a3a4a5a6ava7#n#n",
"Qt#3a8a9b.b#babbbcbdbebfbgbhbibjbkblbmbnbobpbqbrbsbtbubvbwbxava7#n#n",
"Qtby#.bzbAbBbCbDbEbFbGbHbIbJbKbLbMbNbObPbQbRbSbTbUbVbWbXbYbZakb0#n#n",
"Qtb1aCb2bpb3b4b5b6b7b8b9c.c#cacbcccdcecfcgchcicjckclcmcncocpcq#D#n#n",
"QtcrcsctcucvcwcxcyczcAcBcCcDcEcFcGcHcIcJcKcLcMcNcOb4cPcQcRcScTb0#n#n",
"QtcU##cVcWcXcYcZc0c1c2c3c4c5c6c7c8c9d.d#dadbdcdddedfdgdhdidjaw#D#n#n",
"QtazdkdldmdndodpdqdrdsdtdudvdwdxdydzdAdBdCdDdEdFdGdHdIdJdKdLai#D#n#n",
"QtdMdNdOdPdQdRdSdTdUdVdWdXdYdZd0d1d2d3d4d5d6d7d8d9e.e#eaebecaD#D#n#n",
"Qt.5#kedeeefegeheiejekelemeneoepeqereseteuevewexeyezeAeBeCeDaxeE#n#n",
"Qt.9aFeFeG#T.ieHeI#f.caq.2#J.a.g.c.6#yeF#y.oeJ#AeKeLeM.teNeO.0.u#n#n",
"QteP.HeQeOdNby.p#6.heRdM#h.v#I#F.4.deHeS#v#y#Q#SeK#kdk#m.ZaE.u#n#n#n",
"QtQteFazdkeTam.mazeU#i#i#NeV.v.beWeX.AeYeZeLaycs.9eQay#A#S.0.u#n#D#n",
"QtQteEeQe0#A.V#O#Pe1#N#i#3eUeWac#u.w.yeUe2#Xas.XaseG#T#Te3eE#n#n#nQt",
"QtQtQte4.9#leF.I#O.GeI#4#o#he5#F.y#w.CeZ.Fe6e0.VaCdk#Re7.u.u#n#DQtQt",
"QtQtQt.ue8eFeL#leJ#6eZe9.I.Gf.#O.Wf#aF#X#j#XeG.9dk#Se7fa.u#n#n#nQtQt",
"QtQtQtQt.ueNau#Tfb#z.Yatat#ze6eUe1.X#kaC#katay#lfcfdb0.u#n#n#DQtQtQt",
"QtQtQtQtQteEfefffgfhcsaDaDfi#S#lfga###at#kat#Bfj.t.u.u#n#n#n#nQtQtQt",
"QtQtQtQtQt#D.ub0aaePfkfj#meMflflfmfne8ePfofkajfp#n.u#n#n#n#DQtQtQtQt",
"QtQtQtQtQtQtQt.u#n#UfqeMe8e7aifoeKfke8fdfr#a#n.u#n#n#n#D#nQtQtQtQtQt",
"QtQtQtQtQtQtQtQt#n.u.ueE.u.u.u.u.u.u.ueE.u.u#n#n#n#n#DQtQtQtQtQtQtQt",
"QtQtQtQtQtQtQtQtQt#n#D#n#n#n#n#n#n#n#n#n#n#n#n#n#n#n#nQtQtQtQtQtQtQt",
"QtQtQtQtQtQtQtQtQtQtQt#n#n#n#n#n#n#n#n#n#n#n#n#n#nQtQtQtQtQtQtQtQtQt"};
