/* XPM */
static char *geo_off[]={
"34 34 553 2",
".Q c None",
"Qt c None",
"d6 c #000024",
"ak c #000028",
"a9 c #000126",
"#x c #000128",
"aQ c #00012a",
"eX c #000226",
"b. c #00022a",
"#R c #00022c",
"#7 c #00032c",
"al c #00032e",
"du c #00042a",
"cw c #00042c",
"gi c #00042e",
"cS c #00052c",
"cb c #00062c",
"bG c #000630",
"gy c #000634",
"aj c #000732",
"#. c #000a3c",
"f2 c #000b36",
"aP c #000b38",
"em c #000b3a",
"eW c #000b3c",
"#w c #000c3a",
"gK c #000d3c",
"gx c #000f3a",
"gz c #00174c",
"d5 c #001b52",
"ej c #001d44",
"a8 c #001d4c",
"fc c #001e5a",
"gJ c #002358",
"d2 c #00264c",
"d3 c #002832",
"gr c #00292e",
"gs c #002958",
"gI c #002a5a",
"dJ c #002b44",
"ek c #002c5a",
"bU c #002e1e",
"az c #002e62",
"gA c #002e68",
"ei c #002e6c",
"dI c #00316e",
"go c #00325c",
"bD c #003614",
"gp c #003770",
"gt c #00377c",
"gB c #003974",
"bp c #003a66",
"gH c #003a70",
"gq c #003b64",
"aM c #003c40",
"gC c #003d6c",
"cN c #003f86",
"gm c #004280",
"f7 c #00428c",
"eD c #004294",
"cr c #004396",
"gn c #00458c",
"eq c #0046d6",
"dK c #004866",
"d4 c #00488c",
"dp c #004892",
"c8 c #004994",
"f8 c #00499c",
"b8 c #004ba8",
"aL c #004dac",
"dG c #004e96",
"bS c #004f98",
"do c #004fa8",
"eg c #00509a",
"ca c #005160",
"eE c #0051a4",
"bo c #005451",
"el c #0054aa",
"e. c #0054de",
"bB c #00557c",
"d. c #005692",
"dr c #00569e",
"f9 c #0056c0",
"aN c #005a40",
"cv c #005a6a",
"eH c #005ae2",
"bW c #005b72",
"dq c #005bc2",
"dQ c #005bd6",
"cU c #005de8",
"dz c #005eea",
"dc c #0060e2",
"bR c #0061f2",
"ce c #0062e8",
"dw c #0063ea",
"de c #0064ec",
"bA c #0065fc",
"a7 c #00668c",
"ay c #0066ae",
"cy c #0067f4",
"cq c #0069e0",
"cM c #006ae2",
"bZ c #006aee",
"cW c #006bf0",
"ba c #006cf2",
"d8 c #006cfe",
"a3 c #006df4",
"dN c #0071f0",
"bJ c #0072f2",
"bl c #007462",
"cX c #0074f6",
"cd c #0075f8",
"a4 c #007664",
"br c #0076ee",
"dR c #0077f0",
"bk c #0078f2",
"d7 c #0079be",
"cg c #007af6",
"aD c #008cee",
"ao c #0090da",
"dD c #0093fa",
"cZ c #0099fa",
"cC c #00a0fc",
"#s c #00a681",
"#6 c #010026",
"## c #010028",
"cP c #014d28",
"fd c #02001a",
"gM c #020022",
"aA c #020024",
"eF c #02307c",
"bn c #025000",
"bF c #02577e",
"bE c #02582f",
"fe c #0270d6",
"cQ c #027254",
"dg c #0276f8",
"dh c #0277fa",
"eY c #03001e",
".O c #030022",
"gL c #030024",
".x c #030026",
"dH c #033d7f",
"gl c #034e8d",
"c4 c #036eff",
"bY c #0374ff",
"ep c #037aff",
"gh c #041a46",
"d1 c #043e86",
"dL c #044578",
"gj c #052965",
".N c #052e73",
"dy c #056ceb",
"df c #0577f7",
"aT c #0586ff",
"cK c #0681fe",
"a6 c #074d0a",
"bV c #075f2a",
"aO c #076089",
"cp c #0776ff",
".5 c #0782ff",
"f3 c #083778",
"gF c #085088",
"c. c #085821",
"cu c #086234",
"ds c #087463",
"gw c #092d5d",
"cR c #096275",
"gG c #0a4d86",
"c# c #0a5421",
"c9 c #0a5dba",
"cs c #0a5ea6",
"a5 c #0a6a2c",
"cO c #0b4587",
"c7 c #0b5ecf",
"cY c #0b7eff",
"#t c #0b8976",
"bq c #0b89ff",
"gk c #0c4484",
"gD c #0c5186",
"fK c #0c5bac",
"d0 c #0c65c0",
"bC c #0c6c32",
"dt c #0d576d",
"ct c #0d7534",
"dl c #0d7fff",
"bi c #0d85ff",
"bz c #0d8aff",
"gE c #0e558c",
"cz c #0e78fa",
"d# c #0e8260",
"b9 c #0f507d",
".9 c #0f5285",
"cL c #0f80ff",
"by c #0f96ff",
"aU c #0fa2ff",
"#Q c #0fbf41",
"cD c #0fccf5",
"gu c #10548e",
"#v c #11699b",
"eh c #116abd",
"bm c #117532",
"c5 c #118cff",
"di c #1192ff",
"bT c #12544d",
"fb c #125aa4",
".7 c #128afa",
"gg c #133e63",
"f1 c #135185",
"da c #13616d",
"dP c #136ae1",
"bI c #1382ff",
"bj c #1388ff",
"ch c #138dff",
"b7 c #1393ff",
"eV c #15549b",
"f4 c #155999",
"dO c #156ee7",
"#u c #1585a1",
"eZ c #1585af",
"cm c #158eff",
".J c #1594ff",
"#r c #15efc8",
"f5 c #175fa9",
"co c #178bf7",
"b6 c #178fff",
"bQ c #1795ff",
"b5 c #17aaff",
"b1 c #17c0ff",
"g. c #186a9e",
".w c #191137",
"eC c #195fad",
"ga c #196679",
".6 c #198bff",
".I c #19a0ff",
"ci c #19db90",
"eU c #1a5aa2",
"eG c #1a779e",
"bO c #1b96ff",
"bh c #1b9cff",
"aC c #1ba1ff",
"gv c #1c486e",
"gb c #1d57b7",
"f6 c #1d67b3",
"dn c #1d84f7",
"a2 c #1d8dff",
"cB c #1d92ff",
"dA c #1d97ff",
"b# c #1d9dff",
"cc c #1da7ff",
"d9 c #1e6bd4",
"en c #1f4065",
"g# c #1f6b46",
"dx c #1f77e3",
"bP c #1f9dff",
"cx c #1fa3ff",
"eo c #1fb2ff",
"#P c #1feb5d",
"gf c #205790",
"dZ c #205aaa",
"cn c #2194ff",
"cT c #219eff",
"bb c #21aeff",
"ef c #21d94c",
"dF c #2268d0",
"dY c #227bf4",
"fL c #23609f",
"cI c #2390ff",
"cJ c #239aff",
"#9 c #23c3ff",
"f0 c #2461a0",
"dd c #2481ea",
"eT c #2666ae",
"cV c #268af0",
".v c #2778c3",
"dm c #2797ff",
"c6 c #279cff",
"dk c #27a3d7",
"db c #27abff",
"ah c #27c9ff",
".G c #29b1ff",
".K c #29b6ff",
".H c #2bb2ff",
"#m c #2bcfff",
"eB c #2c68ac",
".L c #2caafa",
"dE c #2d90ff",
"cH c #2d95ff",
"bX c #2dadff",
"fJ c #2e63a4",
"b0 c #2fa9ff",
"fx c #307be2",
"c3 c #3192ff",
"dS c #31a5ff",
".8 c #3293bc",
".M c #3293ee",
"fZ c #3362a1",
"gc c #3363a5",
"ge c #3563a1",
"e0 c #359eff",
"er c #35a7ff",
"ai c #35b0ff",
"dM c #35c8ff",
"fI c #3668a6",
"fY c #3761a1",
"fP c #38629a",
"#N c #38dfee",
"#O c #38f689",
"fO c #396299",
".o c #3bb7ff",
"fX c #3c639e",
"fw c #3c85e0",
"gd c #3d639b",
"eS c #3da188",
"cA c #3db4ff",
"c2 c #3db8ff",
"fW c #3f64a7",
"e4 c #3f9eff",
"fh c #3fa7ff",
"dv c #3fbdff",
"fV c #405da8",
"fM c #4169a5",
"fH c #4171b3",
"e1 c #41a8ff",
"#q c #41d4ff",
"aE c #42ee5b",
"fg c #43a4ff",
".q c #43baff",
"bs c #43c8ff",
".4 c #45aeff",
"aS c #45bbff",
"an c #45bfff",
"fy c #468ade",
"fu c #4886d2",
"fa c #4970a5",
"eK c #49a3ff",
"fQ c #4a64a0",
"fF c #4a6dac",
"f# c #4c819c",
"fG c #4d74a5",
"ft c #4d7ab7",
"ff c #4faeff",
".p c #4fbfff",
"#I c #4ff7d2",
"fE c #517e89",
"fv c #5190e5",
"ax c #51bbff",
".s c #51bfff",
"cf c #51c4ff",
".r c #51c8ff",
"bH c #53ccff",
"ag c #54f4ae",
"fs c #557db3",
"b2 c #55f7e2",
"c0 c #56ddfa",
"es c #58aefe",
".t c #58c2fe",
"cj c #58cdfe",
"fR c #5979b5",
"fr c #5981a9",
".n c #59c7e3",
"fq c #5a859e",
"#p c #5ac2fe",
"#z c #5ad6fe",
"fC c #5b944e",
"fi c #5cb4fe",
".3 c #5cbffe",
"aw c #5cc7fe",
"#5 c #5ccefe",
"fN c #5e7baa",
"fU c #5e8466",
"#M c #5ebcfe",
"#l c #5ec0fe",
"#H c #5ffdd2",
"fD c #609646",
".j c #628c89",
"fz c #6692ea",
".2 c #66bcfe",
"#J c #67f3b6",
"f. c #68ae72",
"aK c #68c4fe",
"#4 c #6ac1fe",
".i c #6ac8c5",
"eR c #6be15f",
"#3 c #6be1f7",
"e3 c #6eb9fe",
"#o c #6edefe",
".F c #70cafe",
".u c #70dbfe",
"#n c #70fee1",
"fp c #71ac6e",
"a1 c #74ccfe",
"et c #74cffe",
"fS c #769a94",
"av c #76f8f6",
"aV c #76fe89",
"ez c #78e466",
"#A c #78f1f6",
"#S c #79fdbd",
"bg c #7ad7fe",
"fT c #7ba15d",
"#E c #7bf993",
".1 c #7ec0fe",
"eI c #7eccfe",
".h c #7ff1ed",
"#L c #7ff1ef",
"eA c #81f167",
"fB c #82bd5f",
"cE c #83e8f7",
"fA c #84c8c6",
"e2 c #85c7ff",
".E c #85d8f3",
"dj c #85deff",
"b3 c #85e3ff",
"eL c #86dae4",
"bK c #87dcff",
".D c #88ddea",
"eJ c #89c6ff",
".d c #89d4ff",
".B c #89e1e9",
"bc c #89f1d5",
"#h c #8aecb1",
"fk c #8bbfff",
"fl c #8bd7c6",
"bM c #8be5ff",
"c1 c #8fd6ff",
".g c #8ffffb",
"#G c #91f9c2",
".c c #93dfff",
"eQ c #93f670",
"#D c #93fbb5",
"fo c #94d866",
"dX c #94fe86",
".e c #95e2ff",
"a0 c #95e5ff",
"aJ c #95f7ea",
"bv c #96f3fe",
"fj c #97d4ff",
".f c #97efff",
".C c #98dfe6",
"bx c #99f2ff",
"ey c #99f470",
"#0 c #9afa84",
"#Z c #9dfc8e",
"#k c #9edbfe",
"ee c #9efe78",
"#d c #9fe0f1",
"eP c #9ff86e",
"bN c #a0f4fe",
"#g c #a2f2d7",
"aR c #a2f7fe",
"#F c #a3fd97",
"#e c #a4e8fe",
".U c #a4e9fa",
"#2 c #a4fc9a",
"#B c #a4fedb",
"ck c #a6ebfe",
"e5 c #a7ebdd",
".m c #a8e2d2",
"dB c #a8fe74",
"e9 c #a9f37d",
"ed c #aafe66",
"#T c #aafeb4",
"aB c #abf6ff",
"bt c #ace3fa",
"#y c #aceebc",
"cG c #acf4e2",
"au c #acfac4",
"#C c #adfbe9",
"#j c #aff1e4",
"am c #aff8ff",
"#8 c #b1f5ff",
"fn c #b3e1a3",
".z c #b3f3e5",
"e# c #b3f7e6",
"bL c #b3ffb1",
"cF c #b5e7ff",
"bf c #b5fcff",
"dW c #b5fe66",
"eO c #b6f799",
"#f c #b7ebff",
"#U c #b7ffc8",
".l c #b8eae3",
"#i c #b8f3b3",
"dV c #b8fc8e",
"#1 c #b9ff93",
".A c #baecd7",
"#c c #baecfe",
"dC c #bafe7e",
".0 c #bcd9fe",
"e7 c #bdfb9b",
"ec c #bef9a7",
"ex c #befd9b",
"ae c #bfff81",
"#a c #c00000",
".T c #c1f1e5",
"b4 c #c3f9e1",
"e8 c #c3ff9b",
"ad c #c4ff8f",
".Y c #c9ecf3",
"#K c #cafea0",
".b c #ccfefe",
"af c #ccff8b",
".k c #cef2ed",
".W c #d0e9f4",
".X c #d0ebf4",
"bw c #d0fcc2",
"#b c #d1f3d7",
".S c #d3f7ef",
"#W c #d8febe",
"as c #d9fec0",
"ew c #dbf9d1",
"#V c #dbffc5",
"bu c #dcfea0",
"aZ c #dcfee0",
".y c #ddf9ef",
"at c #ddfeaa",
"bd c #deffaf",
"ar c #e0fecc",
"cl c #e0fee8",
"eN c #e1fad8",
"eu c #e2ffcf",
"aH c #e3ffd5",
"be c #e3fff8",
"fm c #e4fdaf",
"dU c #e5fce4",
"eM c #e5ffc7",
".Z c #e6eef2",
"ac c #e8fec0",
".V c #eaf2f6",
"ab c #eafeca",
"aI c #eaffb1",
"aY c #ebfdeb",
"#Y c #ebfebc",
"aX c #edf9ff",
"aq c #edffd9",
"a. c #effde9",
".a c #f1fafb",
"#X c #f1ffc7",
"ea c #f1ffd7",
"eb c #f2fcf4",
"dT c #f2fede",
"aa c #f2ffcf",
"aG c #f4ffe7",
"ev c #f7ffe5",
"aW c #f8ffd7",
"aF c #f8ffed",
"ap c #f9fef0",
"a# c #faffe1",
".R c #fefefe",
"e6 c #feffe9",
".P c #ff0000",
".# c #ffffff",
"QtQtQtQtQtQtQtQtQtQtQt.#.a.b.c.d.e.f.g.h.i.jQtQtQtQtQtQtQtQtQtQtQtQt",
"QtQtQtQtQtQtQtQtQt.#.#.k.l.m.n.o.p.q.r.s.t.u.v.w.xQtQtQtQtQtQtQtQtQt",
"QtQtQtQtQtQtQtQt.#.y.z.A.B.C.D.E.F.G.H.I.J.K.L.M.N.OQtQtQtQtQtQtQtQt",
"QtQtQt.P.Q.Q.#.R.S.T.U.V.W.X.Y.Z.0.1.2.3.4.5.6.7.8.9#.##.Q.Q.QQtQtQt",
"QtQtQt#a.P.R#b#c#d#e#f#g#h#i#j#k#l#m#n#o#p#q#r#s#t#u#v#w#x.Q.QQtQtQt",
"QtQtQt#a.P.P#y#z#A#B#C#D#E#F#G#H#I#J#K#L#M#N#O#P#Q#a#a#a#a#R.QQtQtQt",
"QtQtQt.Q#a.P.P.P#S#T#U#V#W#X#Y#Z#0#1#2#3#4#5.H#a#a#a.P.P.P#6#7QtQtQt",
"QtQtQt#8#9#a.P.P.P.Pa.a#aaabacadaeafagahai#a#a#a.P.P.P.P.PajakalQtQt",
"QtQtamanao#a#a.P.P.P.Papaqarasatauavawax#a#a.P.P.P.P.P.PayazaA#7QtQt",
"QtQtaBaCaDaE#a#a.P.P.P.PaFaGaHaIaJawaK#a#a.P.P.P.P.PaLaMaNaOaPaQQtQt",
"QtaRaSaTaUaVaW#a.P.P.P.P.PaXaYaZa0a1#a#a#a.P.P.Pa2a3a4a5a6a7a8a9b.Qt",
"QtaRb#babbbcbd#a#a#a.P.P.P.Pbebfbg#a#a#a.P.Pbhbibjbkblbmbnbobpb.aQb.",
"Qt#obqbrbsbtbubvbw#a.P.P.P.P.Pbx#a#a.P.P.P.PbybzbibAbBbCbDbEbFbGaQb.",
"QtbHbIbJbbbKbLbMbN#a#a.P.P.P.P.P#a.P.P.P.PbObqbPbQbRbSbTbUbVbWbGaQb.",
"QtbXbYbZb0bhb1b2b3b4#a#a.P.P.P.P.P.P.P.Pb5b6b7bhbQa3b8b9c.c#cacbaQb.",
"Qtcccdcecfcgchcicjckcl#a#a.P.P.P.P.P.P.Gb#cmcncocpcqcrcsctcucvcwaQb.",
"QtcxcyczcAbacBcCcDcEcFcG#a#a.P.P.P.P.PcHcIcJbPcKcLcMcNcOcPcQcRcSaQb.",
"QtcTcUcVcWcX.5cYcZc0c1#a#a.P.P.P.P.P.P.Pc2c3c4c5c6c7c8c9d.d#dacwaQb.",
"Qtdbdcdddedfdgdhdidj#a#a.P.P.P.P#a#a.P.P.PdkdldmdndodpdqdrdsdtduaQb.",
"QtdvdwdxdedydzcWdA#a#a.P.P.P.PdBdC#a#a.P.P.PdDdEdFdGdHdIdJdKdL#7aQb.",
"QtdMdNdOdPdQdRdS#a#a.P.P.PdTdUdVdWdX#a#a.P.P.PdYdZd0d1d2d3d4d5d6b.b.",
"Qtd7bqd8d9e.cn#a#a.P.P.Pe#eaebecedeeef#a#a.P.P.Pegeheiejekelemakb.b.",
"Qteneoepeqdwer#a.P.P.PeseteuevewexeyezeA#a#a.P.P.PeBeCeDeEeF#xaQb.b.",
"QtQteGbbdzeH#a#a.P.PeIeJeKeLeMeNeOePeQeReS#a#a.P.P.PeTeUeVeWeXb.#7b.",
"QtQteYeZch#a#a.P.Pe0e1e2e3e4e5e6e7e8e9f.f#fa#a#a.P.P.Pfbfcd6aQb.#RQt",
"QtQtQtfdfe#a.P.Pfffgfhfifjfkflfmfnfofpfqfrfsft#a#a.P.P.Pa9#xb.#7QtQt",
"QtQtQtaA#a#a.P.PfufvfwfxfyfzfAfBfCfDfEfFfGfHfIfJ#a#a.P.PeXb.b.#RQtQt",
"QtQtQt.Q#a.P.PfKfLfMfNfOfPfQfRfSfTfUfVfWfXfYfZf0f1#a#a.P.Pb.#7QtQtQt",
"QtQtQt.Q#a.Pf2f3f4f5f6f7f7f8f9g.g#gagbgcgdgegfgggh#6#a#a.P.P#RQtQtQt",
"QtQtQt.Q.Q#7a9gigjgkglgmgngogpgqgrgsgtdpgugvgwgxaQ#xb.#a.P.P.QQtQtQt",
"QtQtQt.Q.Q.Q.Q#xaQgygzgAgBgCgDgEgFgGgHgIgJgKb.eXaQb.b.#7#a#a.PQtQtQt",
"QtQtQtQtQtQtQtQtb.aka9d6aAgL.O.O.OgMaAd6a9akaQb.b.b.#7QtQtQtQtQtQtQt",
"QtQtQtQtQtQtQtQtQt#R#7b.b.b.b.b.b.b.b.b.b.b.b.b.b.b.#RQtQtQtQtQtQtQt",
"QtQtQtQtQtQtQtQtQtQtQtb.b.b.b.b.b.b.b.b.b.b.b.b.b.QtQtQtQtQtQtQtQtQt"};
