/* XPM */
static char *dummy[]={
"34 34 3 1",
". c None",
"a c #000000",
"# c #ffffff",
".....##...........................",
"....#aa#..........................",
"...#a##a#.........................",
"...#a##a#.........................",
"...#a##a#.........................",
"...#a##a#.........................",
"...#a##a##........................",
"...#a##aaa###.....................",
"..##a##a##aaa###..................",
".#aaa##a##a##aaa#.................",
"#aa#a##a##a##a##a#................",
"#a##a##a##a##a##a#................",
"#a##a###########a#................",
"#a##############a#................",
".#a############aa#................",
".#a############a#.................",
"..#a##########a#..................",
"..#a##########a#..................",
"...#a########a#...................",
"...#a########a#...................",
"...#a########a#...................",
"...#a########a#..########.........",
"...#aaaaaaaaaa#.#aaaaaaaa#........",
"....##########..#a#######a#.......",
"................#a##a#...#a#......",
"................#a##a#....#a#.....",
"............#####a##aa#..#a#a#....",
"...........#aaaaaa#.#a#..#a##a#...",
"...........#a#####..#a#..#a#.#a#..",
"...........#a#.#a#..#a#.#aa#..#a#.",
"...........#a#.#a#...#a##a#...#a#.",
"...........#a##################a#.",
"...........#aaaaaaaaaaaaaaaaaaaa#.",
"............####################.."};
