/* XPM */
static char *highlight_checked[]={
"32 32 270 2",
"Qt c None",
"#Q c #000000",
"#1 c #000000",
"aa c #000000",
".# c #000000",
"#k c #000082",
"#j c #000085",
"#i c #000089",
"#h c #00008c",
"#g c #000090",
".9 c #000093",
".y c #000094",
".8 c #000097",
".x c #000098",
"#f c #00009b",
".w c #00009c",
"#e c #00009f",
".S c #0000a0",
".v c #0000a1",
"#d c #0000a2",
".7 c #0000a4",
".u c #0000a5",
"#c c #0000a6",
".6 c #0000a8",
".t c #0000a9",
".F c #0000ad",
".s c #0000ae",
".R c #0000b1",
".r c #0000b2",
".5 c #0000b5",
".q c #0000b6",
"#b c #0000b8",
".4 c #0000b9",
".p c #0000ba",
"#a c #0000bc",
".3 c #0000bd",
".E c #0000be",
".o c #0000bf",
".2 c #0000c1",
".Q c #0000c2",
".n c #0000c3",
".P c #0000c6",
".m c #0000c7",
"## c #0000c8",
".1 c #0000ca",
".l c #0000cb",
".0 c #0000ce",
".D c #0000cf",
".k c #0000d0",
"#. c #0000d1",
".Z c #0000d2",
".O c #0000d3",
".j c #0000d4",
".Y c #0000d6",
".N c #0000d7",
".i c #0000d8",
".X c #0000da",
".M c #0000db",
".h c #0000dc",
".W c #0000de",
".L c #0000df",
".C c #0000e0",
".g c #0000e1",
".V c #0000e2",
".K c #0000e4",
".f c #0000e5",
".U c #0000e6",
".J c #0000e8",
".e c #0000e9",
".I c #0000eb",
".T c #0000ec",
".d c #0000ed",
".H c #0000ef",
".B c #0000f1",
".c c #0000f2",
".A c #0000f5",
".b c #0000f6",
".z c #0000f8",
".a c #0000fa",
"bh c #404040",
"#I c #5d5d5d",
"#H c #6c6c6c",
"ar c #6f6f6f",
"aj c #707070",
"a2 c #747270",
"a# c #777777",
"aP c #787878",
"aB c #800000",
"bi c #808080",
"#0 c #858585",
"a3 c #868481",
"aW c #8a8a8a",
"by c #979594",
"bO c #979694",
"#P c #979797",
"a5 c #999999",
"aU c #9b9995",
"ba c #9c9997",
"aO c #9c9a96",
"bj c #9c9a97",
"a4 c #9e9c98",
"#B c #9e9e9e",
"b5 c #9f9e9b",
"cl c #9f9f9f",
"a8 c #a04040",
".G c #a0a0a0",
"bg c #a1a09f",
"bG c #a4a3a1",
"b6 c #a6a4a1",
"aR c #a9a9a9",
"b0 c #b1afab",
"ca c #b1b0ac",
"aZ c #b1b0b0",
"aV c #b3b1ad",
"bo c #b3b2b1",
"bb c #b4b1ae",
"br c #b4b2ae",
"bY c #b4b2af",
"b7 c #b5b3b0",
"bq c #b5b3b1",
"aJ c #b6b6b6",
"bP c #b7b6b3",
"b# c #b7b7b7",
"bR c #b8b5b1",
"ai c #b8b5b2",
"bN c #b8b6b6",
"bU c #b9b5b1",
"bT c #b9b6b1",
"bS c #b9b6b2",
"ce c #b9b7b2",
"#v c #bab8b5",
"c. c #bab8b6",
"bv c #bab8b7",
"bJ c #bbb9b7",
"bK c #bbbab7",
"#q c #bbbab8",
"aY c #bbbab9",
"at c #bbbbbb",
"bC c #bcbab8",
"#o c #bcbbba",
"aN c #bcbcbc",
"aX c #bdbbba",
"#D c #bdbcba",
"#R c #bdbcbb",
"#3 c #bdbdbc",
"ab c #bdbdbd",
"aT c #bebebe",
"aq c #c00000",
"a9 c #c1c1c1",
"aA c #c4c4c4",
"bQ c #c5c3c0",
"bM c #c5c5c3",
"a1 c #c5c5c5",
"bz c #c7c5c2",
"cc c #c9c6c2",
"ah c #cacaca",
"#K c #cbcac8",
"bL c #cccbc9",
"a0 c #cccccc",
"ac c #cececd",
"ao c #cecece",
"aE c #d04040",
"aI c #d0d0d0",
"bc c #d4d1cd",
"aS c #d4d4d4",
"bk c #d5d2ce",
"bZ c #d5d3ce",
"b. c #d5d5d5",
"bX c #d6d4d1",
"cd c #d7d5d0",
"cb c #d7d5d1",
"az c #d8d8d8",
"aM c #d9d9d9",
"#X c #dadada",
"a7 c #dbdad8",
"aL c #dbdbdb",
"#T c #dcdcdc",
"ag c #dedede",
"aH c #dfdfdf",
"bH c #e0deda",
"#9 c #e0e0e0",
"bF c #e1e0de",
"#W c #e1e1e1",
"bx c #e2e0df",
"bp c #e2e1df",
"aG c #e3e3e3",
"aF c #e4e4e4",
"ay c #e5e5e5",
"#V c #e8e8e8",
"#8 c #e9e9e9",
"ci c #eae7e2",
"av c #eaeaea",
"an c #ececec",
"bd c #ede9e3",
"bl c #ede9e4",
"bs c #edeae4",
"#U c #ededed",
"bA c #eeeae5",
"b4 c #efece8",
"ax c #efefef",
"cj c #f0ece7",
"ch c #f0ede8",
"bW c #f0edea",
"ad c #f0f0f0",
"aw c #f1f1f1",
"bf c #f2f0ef",
"al c #f2f2f2",
"bE c #f4f2f1",
"a6 c #f4f3f1",
"#7 c #f4f4f4",
"bw c #f5f3f2",
"bm c #f6f2ec",
"#N c #f6f2ed",
"bI c #f6f3ed",
"cf c #f7f2eb",
"b8 c #f7f2ec",
"b2 c #f7f3ec",
"#A c #f7f3ed",
"#Y c #f7f3ee",
"a. c #f7f4ef",
"#5 c #f7f7f7",
"bB c #f8f3ed",
"ck c #f8f3ee",
"bt c #f8f4ee",
"#z c #f8f4ef",
"b1 c #f8f5ef",
"c# c #f8f5f1",
"b3 c #f8f6f2",
"#y c #f9f5f0",
"#M c #f9f5f1",
"#x c #f9f6f1",
"#w c #f9f6f2",
"bV c #f9f6f3",
"#6 c #f9f9f9",
"cg c #faf7f2",
"#u c #faf7f3",
"b9 c #faf7f4",
"#t c #faf8f4",
"ap c #faf8f5",
"be c #faf9f7",
"#s c #fbf8f5",
"#L c #fbf9f5",
"#r c #fbf9f6",
"bu c #fbf9f7",
"#J c #fbfaf7",
"bD c #fbfaf8",
"am c #fbfbfb",
"#p c #fcfaf7",
"#l c #fcfaf8",
"bn c #fcfbf8",
"#m c #fcfbf9",
"aK c #fcfbfb",
"aQ c #fcfcfb",
"aC c #fcfcfc",
"#n c #fdfbfa",
"#C c #fdfcfa",
"#G c #fdfcfb",
"#2 c #fdfdfc",
"ae c #fdfdfd",
"#F c #fefcfb",
"#E c #fefdfb",
"#S c #fefdfc",
"ak c #fefdfd",
"#4 c #fefefd",
"af c #fefefe",
"#Z c #ff0000",
"aD c #ff4040",
"#O c #ffc0c0",
"au c #ffd0d0",
"as c #ffffff",
"QtQtQtQtQtQtQtQtQtQtQtQtQtQtQtQtQtQtQtQtQtQtQtQtQtQtQtQtQtQtQtQt",
"QtQt.#.#.#.#.#.#.#.#.#.#.#.#.#.#.#.#.#.#.#.#.#.#.#.#.#.#QtQtQtQt",
"QtQt.#.a.b.c.d.e.f.g.h.i.j.k.l.m.n.o.p.q.r.s.t.u.v.w.x.y.#QtQtQt",
"QtQt.#.z.A.B.d.e.f.C.h.i.j.D.l.m.n.E.p.q.r.F.t.u.v.w.x.y.G.#QtQt",
"QtQt.#.A.c.H.I.J.K.L.M.N.O.D.l.P.Q.E.p.q.R.F.t.u.S.w.x.y.G.#QtQt",
"QtQt.#.B.H.T.e.U.V.W.X.Y.Z.0.1.P.2.3.4.5.R.F.6.7.S.w.8.9.G.#QtQt",
"QtQt.##..D.0.l##.P.Q.o#a#b.5.R.s.t#c#d#e#f.x.y#g#h#i#j#k.G.#QtQt",
"QtQt.##l#m#m#m#m#n#o#m#m#m#l#p#q#r#r#s#t#u#v#w#x#y#y#z#A#B.#QtQt",
"QtQt.##m#m#n#C#C#C#D#E#F#G#G#H#H#H#H#I#l#J#K#L#x#M#y#N#O#P.##QQt",
"QtQt.##m#n#C#G#G#G#R#S#E#F#H#T#U#V#W#X#I#J#K#L#w#x#Y#O#Z#0.##1Qt",
"QtQt.##n#C#G#2#2#S#3#4#S#H#T#5#6#7#8#9#X#I#K#r#wa.#O#Z#Za#.#aaQt",
"QtQt.##D#R#3#3abababacac#Hadaeaf#6#U#9agah.##Kai#O#Z#Z#Zaj.#aaQt",
"QtQt.##C#G#2ak#4afabak#I#Talamae#5an#9agao.#ap#O#Z#Z#Zaqar.#aaQt",
"QtQt.##C#G#Sakafasatau#I#Tavaw#7axayagazaA.#au#Z#Z#ZaqaBar.#aaQt",
"QtQt.##C#G#2ak#4aC#OaDaE#I#TayaFaGaH#XaIaJ.#aD#Z#ZaqaB.#aj.#aaQt",
"QtQt.##C#G#2#SaK#O#ZaDaD#I#TaL#TagaMaIaN.#aDaD#ZaqaB.#aOaP.##1Qt",
"QtQt.##n#C#GaQ#OaBaqaDaD#IaRaSaL#TaoaTaR.#aDaDaqaB.#aUaVaW.##QQt",
"QtQt.##oaX#DaYaZ.#aBaEaDaD#Ia0aMaMa1aR.#aDaDaEaB.#a2a3a4a5.#QtQt",
"QtQt.##m#m#n#ma6a7.#a8aEaD#I#Ba9b.b#aR.#aDaEa8.#babbbcbd#B.#QtQt",
"QtQt.##l#m#m#mbebfbgbha8aE.#bi#B.Gbi.#aDaEa8bhbjbbbkblbm.G.#QtQt",
"QtQt.##p#l#lbn#mbebobpbha8.#.Gas.Gbi.#aEa8bhbqbrbkbs#Nbt.G.#QtQt",
"QtQt.#bu#p#p#l#l#lbvbwbxbh.#.Gas.Gbi.#a8bhbybzbkbA#NbtbB.G.#QtQt",
"QtQt.##r#rbu#J#p#pbCbDbEbF.#.Gas.Gbi.#bhbqbGbHbAbI#zbtbB.G.#QtQt",
"QtQt.#bJbKbKbKbKbKbKbL#KbMbN.#.#.#.#bhbObGbPbQbRbSbTbUbR.G.#QtQt",
"QtQt.##s#s#s#s#L#LbK#s#sbVbWbX.#aB.#bjbYbZb0#Yb1btbtbBb2.G.#QtQt",
"QtQt.##t#t#t#t#s#sbJ#t#t#tb3b4b5.#b6b7bZbAbRb1#zbtbB#Ab8.G.#QtQt",
"QtQt.##u#u#ub9b9#tc.b9#u#u#uc#cacbcccdbA#Yce#zbtbB#Ab2cf.G.#QtQt",
"QtQt.#cgcg#u#u#u#u#v#u#ucgcg#waichcicj#Yb1bSbtck#Ab2b8cf.G.#QtQt",
"QtQtQt.#.G.G.G.G.G.G.G.G.G.G.G.Gcl#Bcl.G.G.G.G.G.G.G.G.G.G.#QtQt",
"QtQtQtQt.#.#.#.#.#.#.#.#.#.#.#.#.#.#.#.#.#.#.#.#.#.#.#.#.#.#QtQt",
"QtQtQtQtQtQtQtQtQtQtQtQtQtQtQtQtQtQtQtQtQtQtQtQtQtQtQtQtQtQtQtQt",
"QtQtQtQtQtQtQtQtQtQtQtQtQtQtQtQtQtQtQtQtQtQtQtQtQtQtQtQtQtQtQtQt"};
