/* XPM */
static char *high_cursor[]={
"32 32 6 1",
". c None",
"a c #000000",
"d c #071c2c",
"c c #081c2d",
"b c #0a1929",
"# c #ffffff",
".#######........................",
"#aaaaaaa#.......................",
"#a######........................",
"#a#.............................",
"#a#..######.....................",
"#a#.#aaaaaa#....................",
"#a#.#a####a#....................",
"#a#.#a#..#a#..#.................",
".#..#a#..#a#.#a#................",
"....#a####a#.#a#................",
"....#aaaaaa#.#a#................",
".....######a##a#................",
"...........#a#a#................",
"........#####aa#................",
".......#aaaaaaa#................",
"........#######.................",
"................................",
"......................#########.",
".....................#aaaaaaaaa#",
"......................#########.",
".........................#a#....",
"........................#aaa#...",
".......................#aaaaa#..",
"......................#aaaaaaa#.",
".....................#aaaaaaaaa#",
"......................###aaa###.",
"........................#aaa#...",
"........................#aaa#...",
"........................#aaa#...",
"........................#aaa#...",
"........................#bcd#...",
".........................###...."};
