/* XPM */
static char *highlight01[]={
"32 32 51 1",
". c None",
"# c #ffffff",
"r c #000000",
"H c #404040",
"b c #5d5d5d",
"a c #6c6c6c",
"U c #808080",
"Q c #9e9e9e",
"V c #a0a0a0",
"L c #a9a9a9",
"G c #b6b6b6",
"T c #b7b7b7",
"K c #bcbcbc",
"N c #bebebe",
"R c #c1c1c1",
"B c #c4c4c4",
"P c #c5c5c5",
"q c #cacaca",
"O c #cccccc",
"v c #cecece",
"F c #d0d0d0",
"M c #d4d4d4",
"S c #d5d5d5",
"A c #d8d8d8",
"J c #d9d9d9",
"g c #dadada",
"I c #dbdbdb",
"c c #dcdcdc",
"p c #dedede",
"E c #dfdfdf",
"l c #e0e0e0",
"f c #e1e1e1",
"D c #e3e3e3",
"C c #e4e4e4",
"z c #e5e5e5",
"e c #e8e8e8",
"k c #e9e9e9",
"w c #eaeaea",
"u c #ececec",
"d c #ededed",
"y c #efefef",
"m c #f0f0f0",
"x c #f1f1f1",
"s c #f2f2f2",
"j c #f4f4f4",
"h c #f7f7f7",
"i c #f9f9f9",
"t c #fbfbfb",
"n c #fdfdfd",
"o c #fefefe",
"W c #ffffff",
"................................",
"........######aaaab#####........",
"........#####acdefgb####........",
"........####achijklgb###........",
"........####amnoidlpqr##........",
"........###bcstnhulpvr##........",
"........###bcwxjyzpABr##........",
"........####bczCDEgFGr##........",
"........HHHHbcIcpJFKr###rr......",
"......rrH##HbLMIcvNLrHHHrr......",
"......rr####HbOJJPLr##HHrr......",
".....rrr####HbQRSTLr##HHrr......",
".....rrr####HrUQVUr###HHrr......",
"....rrrr####HrVWVUr###HHrr......",
"....rrrr####HrVWVUr###HHrr......",
"....rrrr####HrVWVUr###HHrr......",
"....rrrr####HHrrrr####HHrr......",
"....rrrr....rrrr......rrrr......",
"....rrrr....rrrr......rrrr......",
".....rrr....rrr.......rrrr......",
".....rrr....rrr.......rrrr......",
"......rr....rr........rrrr......",
"......rrr..rrr........rrrr......",
"........rrrr.......rrrrrrrrrr...",
"................................",
"................................",
"................................",
"................................",
"................................",
"................................",
"................................",
"................................"};
