/* XPM */
static char * highlight_IHO_2_xpm[] = {
"32 32 134 2",
"  	c None",
". 	c #FFFE10",
"+ 	c #E5E20D",
"@ 	c #B2AC0A",
"# 	c #DDDB0C",
"$ 	c #DAD614",
"% 	c #000000",
"& 	c #BDBA0A",
"* 	c #FDFC0F",
"= 	c #D3CD0C",
"- 	c #CAC615",
"; 	c #CDCA0C",
"> 	c #C4BB08",
", 	c #D4D20C",
"' 	c #DAD50C",
") 	c #AAA609",
"! 	c #A49C09",
"~ 	c #898707",
"{ 	c #4B4007",
"] 	c #282602",
"^ 	c #B8B516",
"/ 	c #F3EE10",
"( 	c #999508",
"_ 	c #C5C20B",
": 	c #F9F60E",
"< 	c #5E5C04",
"[ 	c #131300",
"} 	c #696806",
"| 	c #5A5718",
"1 	c #00CDFF",
"2 	c #2E6894",
"3 	c #2A3336",
"4 	c #0F170E",
"5 	c #137608",
"6 	c #797706",
"7 	c #E2DD0D",
"8 	c #C70401",
"9 	c #02D0FF",
"0 	c #FF0000",
"a 	c #178608",
"b 	c #F40100",
"c 	c #181608",
"d 	c #04C4F6",
"e 	c #009CC7",
"f 	c #500F0B",
"g 	c #D80201",
"h 	c #096608",
"i 	c #B80401",
"j 	c #160905",
"k 	c #08E507",
"l 	c #11A807",
"m 	c #D90000",
"n 	c #120000",
"o 	c #3B4358",
"p 	c #08E608",
"q 	c #206BA5",
"r 	c #08B603",
"s 	c #161F21",
"t 	c #1B0000",
"u 	c #250000",
"v 	c #1D2547",
"w 	c #970601",
"x 	c #0B9106",
"y 	c #08E908",
"z 	c #857A08",
"A 	c #12314D",
"B 	c #07D107",
"C 	c #010206",
"D 	c #050000",
"E 	c #760000",
"F 	c #0C0B04",
"G 	c #4C302C",
"H 	c #370602",
"I 	c #0AD707",
"J 	c #092709",
"K 	c #2B6F07",
"L 	c #086207",
"M 	c #013101",
"N 	c #363737",
"O 	c #770802",
"P 	c #03BAEA",
"Q 	c #938A08",
"R 	c #045602",
"S 	c #0A0A4D",
"T 	c #04ADDC",
"U 	c #766B06",
"V 	c #342C30",
"W 	c #C6C207",
"X 	c #093705",
"Y 	c #312A4D",
"Z 	c #169908",
"` 	c #1196C4",
" .	c #95A129",
"..	c #162508",
"+.	c #353728",
"@.	c #870903",
"#.	c #B8B406",
"$.	c #B3B128",
"%.	c #A90803",
"&.	c #474A38",
"*.	c #314A2F",
"=.	c #EC0200",
"-.	c #BBB50B",
";.	c #ECEA0D",
">.	c #07EA08",
",.	c #88740E",
"'.	c #2B3746",
").	c #0791B9",
"!.	c #0D1516",
"~.	c #115309",
"{.	c #9D9A09",
"].	c #A9A526",
"^.	c #737411",
"/.	c #696815",
"(.	c #151B35",
"_.	c #B3AA08",
":.	c #F2ED0E",
"<.	c #473309",
"[.	c #7A870B",
"}.	c #748C4E",
"|.	c #464506",
"1.	c #F5F30E",
"2.	c #37370E",
"3.	c #F7F410",
"4.	c #081506",
"5.	c #324B0B",
"6.	c #2B3305",
"7.	c #D2CA08",
"8.	c #686724",
"9.	c #CBC50C",
"0.	c #060A08",
"a.	c #11320C",
"b.	c #585706",
"c.	c #171B27",
"                            . +                                 ",
"                          @ #   $             % % % % %         ",
"                          & & * =         % %     % % % % %     ",
"                      $ - ; > + ,       % %           % % %     ",
"                      '     # ,         % % %         % % % %   ",
"            ) + . * . ! . ) ~ ) + * * { % % % ] ~     % % % %   ",
"        ^ ; . / . . * ( . , _ _ : . . < % % % [ } |   % % % %   ",
"                      # :   1 1 2     3 4 % %       % % % %     ",
"                    5 6 7 8 9 1 2 0 0 0 a           % % % %     ",
"                  0 0 b c ; d 1 e   f 0 0 g       % % % %       ",
"                0 0 f h   # 1 1 e       i 0 b   % % %           ",
"              0 0 j k l     d 1 e       k f m n % %         %   ",
"              0 g o p l     q r e       k s t u           % %   ",
"            v 0 w   p l   x p p y > z A B C D E F       % % %   ",
"            G 0 H   p I p p % 9 J , K L M % % % % % % % % % %   ",
"            N 0 O   p k h   9 1 P   Q R % % % % % % % % % % %   ",
"            S 0 g   p p     T 1 d   U % % % % % % % % % % % %   ",
"              0 0 V p p     T 1 d W ~ V p X 0 0 Y               ",
"                0 0 Z I     ` 1  . .$   k 0 0 f                 ",
"                  0 0 ..    q 9 , +.    0 0 @.                  ",
"      #.$.          0 0 0 %.&.; *.w =.0 0 f       ( $ -.        ",
"        . . . ;.    >.>.  ,.'.* ).w H !.>.~.  ) . {.#           ",
"          . 7 :           ].Q ) 7             * . ^.            ",
"              /.. 7       &.* . 7 !     - . . : (.              ",
"                  _.* * :.. . . . . . . . ;.<.                  ",
"        . ^             . :.. . . . ' [.          }.. |.        ",
"    6 . . Q {.+         .     . 1.2.          , 3.3.;.* /.      ",
"        4.+ 1._ z &     *                 & U } {.: 5.          ",
"                6.. |.7.8.            ^ ~ 9.* 0.                ",
"                  2.* ;.. * #.Q 1.( ( . * >                     ",
"                        a.z _ W W #.b.c.                        ",
"                                                                "};
