/* XPM */
static char *high[]={
"32 32 51 1",
"a c None",
". c None",
"# c #000000",
"D c #010304",
"W c #071c2c",
"V c #081c2d",
"U c #0a1929",
"z c #0e97bf",
"t c #0ea0c5",
"I c #0f5d7e",
"B c #105375",
"E c #114760",
"K c #1197b9",
"x c #124c6d",
"b c #124d6f",
"v c #1290b5",
"w c #135476",
"j c #1390b4",
"T c #14839f",
"c c #155474",
"k c #155678",
"p c #155a7a",
"H c #159abc",
"e c #17587a",
"Q c #178eac",
"h c #194a6a",
"s c #19b3ce",
"l c #1b4b6a",
"q c #1b4f6f",
"A c #1ca2c3",
"C c #20374f",
"M c #2294b1",
"G c #22bad1",
"O c #2a98b3",
"P c #2cc7d5",
"o c #3cd7e1",
"L c #43d5de",
"u c #48dfe9",
"S c #58acc5",
"n c #59c3da",
"r c #71d1e0",
"R c #80c2db",
"d c #819eba",
"F c #9ddeee",
"J c #cdebf6",
"i c #ddeff8",
"y c #e2f0f9",
"N c #fdfafd",
"m c #fdfcfd",
"f c #ff0000",
"g c #ffffff",
"...............#...aa#########aa",
"...............#...aaaaaabaaaaaa",
"...............#...aaaaacdeaaaaa",
"............fffgfffaaaahdijkaaaa",
"..........ffgggfgggffaldmnojpaaa",
"........ffgggggfgggggqdmrstuvwaa",
".......ffggggggfggggxdynszztoABa",
"......ffgggggffgffgBCD#EFzGHIIII",
".....ffggggffffgffffgggBJKLMaaaa",
".....fggggfffffgfffffggBNKLOaaaa",
"....fggggffffggfggffffgBJKPQaaaa",
"....fgggffffgggfgggffffBRSGTaaaa",
"...fggggfffgggfgfgggfffBUVW#aaaa",
"...fgggfffgggffgffgggfffgggf....",
"...fgggfffggfffgfffggfffgggf....",
"###gfffgggffgggfgggffgggfffg###.",
"...fgggfffggfffgfffggfffgggf....",
"...fgggfffgggffgffgggfffgggf....",
"...fggggfffgggfgfgggfffggggf....",
"....fgggffffgggfgggffffgggf.....",
"....fggggffffggfggffffggggf.....",
".....fggggfffffgfffffggggf......",
".....ffggggffffgffffggggff......",
"......ffgggggffgffgggggff.......",
".......ffggggggfggggggff........",
"........ffgggggfgggggff.........",
"..........ffgggfgggff...........",
"............fffgfff.............",
"...............#................",
"...............#................",
"...............#................",
"................................"};
