/* XPM */
static char *highlight_mult[]={
"32 32 54 1",
"b c None",
"# c None",
"u c #000000",
"a c #00ff00",
"F c #40ff40",
"e c #5d5d5d",
"d c #6c6c6c",
"X c #808080",
"T c #9e9e9e",
"Y c #a0a0a0",
"O c #a9a9a9",
"K c #b6b6b6",
"W c #b7b7b7",
"N c #bcbcbc",
"Q c #bebebe",
"U c #c1c1c1",
"E c #c4c4c4",
"S c #c5c5c5",
"t c #cacaca",
"R c #cccccc",
"y c #cecece",
"J c #d0d0d0",
"P c #d4d4d4",
"V c #d5d5d5",
"D c #d8d8d8",
"M c #d9d9d9",
"j c #dadada",
"L c #dbdbdb",
"f c #dcdcdc",
"s c #dedede",
"I c #dfdfdf",
"o c #e0e0e0",
"i c #e1e1e1",
"H c #e3e3e3",
"G c #e4e4e4",
"C c #e5e5e5",
"h c #e8e8e8",
"n c #e9e9e9",
"z c #eaeaea",
"x c #ececec",
"g c #ededed",
"B c #efefef",
"p c #f0f0f0",
"A c #f1f1f1",
"v c #f2f2f2",
"m c #f4f4f4",
"k c #f7f7f7",
"l c #f9f9f9",
"w c #fbfbfb",
"q c #fdfdfd",
"r c #fefefe",
". c #ff0000",
"c c #ff4040",
"Z c #ffffff",
".#######....######....##########",
"..#######....######....#########",
"...#######....######....######aa",
"b...########...######....####aaa",
"##...########...######....###aaa",
"###...########...######....#aaa#",
"####...########...#######..aaa##",
"#####....#######....######aaa###",
"######...c###ddddeccc####aaa..##",
".######..cc#dfghijeccc###aaa...#",
"..#######ccdfklmnojecc.#aaa##...",
"...#######cdpqrlgostuc.aaa####..",
"b...######efvwqkxosyu#aaa######a",
"##....####efzAmBCsDEuFaa..#####a",
"###....####efCGHIjJKuFaa...###aa",
"####....###efLfsMJNuFFa##...#aaa",
"#####....##eOPLfyQOuFF####..aaa#",
"#######..c##eRMMSOuFF######.aaa#",
".#######.cc#eTUVWOuFc######aaa..",
"...######cccuXTYXuFFcc####aaa...",
"....######ccuYZYXuF#cc.##aaa##..",
"#....######cuYZYXu###c...aaa####",
"###....#####uYZYXu####..aaa#####",
"####....#####uuuu.#####aaa.#####",
"#####....###aaa....###aaa...####",
"#######...##aaa#....##aaa#...###",
"########...aaa###....aaa###...#a",
"#########.aaa######.aaa#####...a",
"#########aaa..#####aaa.######.aa",
"########aaa....####aaa..######aa",
"########aaa##...##aaa#....###aaa",
"#######aaa####...aaa###....#aaa#"};
