/* XPM */
static char * highlight_IHO_S_xpm[] = {
"32 32 147 2",
"  	c None",
". 	c #FFFE10",
"+ 	c #E5E20D",
"@ 	c #B2AC0A",
"# 	c #DDDB0C",
"$ 	c #DAD614",
"% 	c #000000",
"& 	c #BDBA0A",
"* 	c #FDFC0F",
"= 	c #D3CD0C",
"- 	c #CAC615",
"; 	c #CDCA0C",
"> 	c #C4BB08",
", 	c #D4D20C",
"' 	c #DAD50C",
") 	c #AAA609",
"! 	c #A49C09",
"~ 	c #898707",
"{ 	c #303002",
"] 	c #B9B80B",
"^ 	c #F9F60E",
"/ 	c #938A08",
"( 	c #B8B516",
"_ 	c #F3EE10",
": 	c #999508",
"< 	c #C5C20B",
"[ 	c #2E2D02",
"} 	c #0A0900",
"| 	c #757407",
"1 	c #9B9809",
"2 	c #737105",
"3 	c #696806",
"4 	c #5A5718",
"5 	c #00CDFF",
"6 	c #2E6894",
"7 	c #137608",
"8 	c #797706",
"9 	c #E2DD0D",
"0 	c #C70401",
"a 	c #02D0FF",
"b 	c #D00000",
"c 	c #040000",
"d 	c #FF0000",
"e 	c #F40100",
"f 	c #181608",
"g 	c #04C4F6",
"h 	c #009CC7",
"i 	c #340907",
"j 	c #060000",
"k 	c #500F0B",
"l 	c #096608",
"m 	c #3A0100",
"n 	c #030000",
"o 	c #160905",
"p 	c #08E507",
"q 	c #11A807",
"r 	c #4A0D0A",
"s 	c #AF0000",
"t 	c #610100",
"u 	c #D80201",
"v 	c #3B4358",
"w 	c #08E608",
"x 	c #206BA5",
"y 	c #08B603",
"z 	c #1A2427",
"A 	c #1D2547",
"B 	c #970601",
"C 	c #0B9106",
"D 	c #08E908",
"E 	c #1D1C01",
"F 	c #0B1F30",
"G 	c #0A1132",
"H 	c #B80401",
"I 	c #4C302C",
"J 	c #370602",
"K 	c #0AD707",
"L 	c #092709",
"M 	c #202001",
"N 	c #000500",
"O 	c #06BF06",
"P 	c #171B27",
"Q 	c #650702",
"R 	c #363737",
"S 	c #770802",
"T 	c #03BAEA",
"U 	c #001200",
"V 	c #131B1D",
"W 	c #0A0A4D",
"X 	c #04ADDC",
"Y 	c #012601",
"Z 	c #310100",
"` 	c #A70000",
" .	c #110703",
"..	c #342C30",
"+.	c #1E1D01",
"@.	c #1E1E01",
"#.	c #30292C",
"$.	c #07E107",
"%.	c #052103",
"&.	c #440000",
"*.	c #120000",
"=.	c #169908",
"-.	c #1196C4",
";.	c #95A129",
">.	c #162508",
",.	c #353728",
"'.	c #870903",
").	c #B8B406",
"!.	c #B3B128",
"~.	c #A90803",
"{.	c #474A38",
"].	c #314A2F",
"^.	c #EC0200",
"/.	c #BBB50B",
"(.	c #ECEA0D",
"_.	c #07EA08",
":.	c #88740E",
"<.	c #2B3746",
"[.	c #0791B9",
"}.	c #0D1516",
"|.	c #115309",
"1.	c #9D9A09",
"2.	c #A9A526",
"3.	c #737411",
"4.	c #696815",
"5.	c #151B35",
"6.	c #B3AA08",
"7.	c #F2ED0E",
"8.	c #473309",
"9.	c #7A870B",
"0.	c #748C4E",
"a.	c #464506",
"b.	c #F5F30E",
"c.	c #37370E",
"d.	c #F7F410",
"e.	c #081506",
"f.	c #857A08",
"g.	c #766B06",
"h.	c #324B0B",
"i.	c #2B3305",
"j.	c #D2CA08",
"k.	c #686724",
"l.	c #CBC50C",
"m.	c #060A08",
"n.	c #11320C",
"o.	c #C6C207",
"p.	c #585706",
"                            . +                                 ",
"                          @ #   $       % % % % % %     % %     ",
"                          & & * =     % % %       % % % % %     ",
"                      $ - ; > + ,   % %             % % % %     ",
"                      '     # ,   % % %               % % %     ",
"            ) + . * . ! . ) ~ ) + { % % ] . ^ / ~       % %     ",
"        ( ; . _ . . * : . , < < ^ [ % % } | 1 2 3 4       %     ",
"                      # ^   5 5 6 % % % % % % % % %             ",
"                    7 8 9 0 a 5 6 b c % % % % % % % % %         ",
"                  d d e f ; g 5 h   i j % % % % % % % % % %     ",
"                d d k l   # 5 5 h       m n % % % % % % % %     ",
"              d d o p q     g 5 h       p r s t % % % % % % %   ",
"              d u v w q     x y h % %   p z d d       % % % %   ",
"            A d B   w q   C w w D E % F w G H d f       % % %   ",
"            I d J   w K w w % a L M % N O P   d Q       % %     ",
"            R d S   w p l   a 5 T % % % U V   d Q       % %     ",
"            W d u   w w     X 5 g % % % Y % Z `  .  % % %       ",
"              d d ..w w     X 5 g +.@.#.$.%.&.*.% % %           ",
"                d d =.K     -.5 ;.;.$   p d d k                 ",
"                  d d >.    x a , ,.    d d '.                  ",
"      ).!.          d d d ~.{.; ].B ^.d d k       : $ /.        ",
"        . . . (.    _._.  :.<.* [.B J }._.|.  ) . 1.#           ",
"          . 9 ^           2./ ) 9             * . 3.            ",
"              4.. 9       {.* . 9 !     - . . ^ 5.              ",
"                  6.* * 7.. . . . . . . . (.8.                  ",
"        . (             . 7.. . . . ' 9.          0.. a.        ",
"    8 . . / 1.+         .     . b.c.          , d.d.(.* 4.      ",
"        e.+ b.< f.&     *                 & g.3 1.^ h.          ",
"                i.. a.j.k.            ( ~ l.* m.                ",
"                  c.* (.. * )./ b.: : . * >                     ",
"                        n.f.< o.o.).p.P                         ",
"                                                                "};
