/* XPM */
static char *highlight_all[]={
"32 32 143 2",
"Qt c None",
".g c #ffffff",
".q c #ffffff",
"#A c #000000",
"#J c #010101",
".H c #020202",
"ah c #0e1212",
"am c #121212",
"ae c #161616",
"#1 c #22221e",
"#6 c #352929",
"al c #362a2a",
"ac c #423a36",
"#0 c #453f3e",
"ai c #463e3a",
"ab c #4d4642",
".e c #575757",
".f c #585858",
"#T c #5e562a",
"#7 c #5e5652",
"ag c #5f5753",
"#B c #606060",
"#U c #625a56",
".d c #626262",
"#K c #635b57",
".c c #636363",
".p c #646464",
"aj c #66564e",
".0 c #676767",
"#Z c #68645e",
"aa c #68655e",
"#I c #6b6b6b",
".b c #6c6c6c",
"ak c #6e625a",
".W c #727272",
"#V c #75716a",
"#8 c #76726b",
".a c #787878",
"#C c #7d7d7d",
"af c #7e7b73",
"#G c #7e7e7e",
"a# c #7f7c74",
"#Y c #807c74",
".# c #808080",
"#O c #827e76",
"#9 c #858179",
"#v c #858585",
"#w c #868686",
"#L c #87817e",
"#F c #8c8c8c",
"a. c #8e8a83",
"#X c #8e8b83",
"#W c #939089",
"#z c #939393",
"#n c #949494",
"#s c #969696",
"#M c #97968f",
"#p c #979797",
"#k c #989898",
"#f c #9b9b9b",
"#D c #9c9c9c",
".9 c #a1a1a1",
"#b c #a4a4a4",
".R c #a5a5a5",
"#h c #a7a7a7",
".Z c #a8a8a8",
"#i c #a9a9a9",
"#N c #adaaa4",
".6 c #aeaeae",
"#E c #afafaf",
".3 c #b0b0b0",
"#r c #b1b1b1",
".G c #b2b2b2",
"#H c #b4b4b4",
".y c #b5b5b5",
"#. c #b6b6b6",
".r c #b7b7b7",
".h c #b8b8b8",
".4 c #b9b9b9",
".V c #bababa",
".z c #bcbcbc",
".o c #bebebe",
"#m c #bfbfbf",
"#j c #c0c0c0",
"#S c #c1b9ad",
".Y c #c1c1c1",
"#5 c #c2baae",
"#o c #c2c2c2",
"#u c #c3c3c3",
".2 c #c4c4c4",
"#P c #c5bdb1",
"#q c #c5c5c5",
"#2 c #c6beb2",
".x c #c7c7c7",
".Q c #c9c9c9",
".n c #cacaca",
"#t c #cbcbcb",
".7 c #cccccc",
"#x c #cdcdcd",
".8 c #cecece",
".5 c #cfcfcf",
"#a c #d0d0d0",
".m c #d1d1d1",
".P c #d2d2d2",
".w c #d3d3d3",
"#l c #d4d4d4",
".l c #d6d6d6",
"#e c #d7d7d7",
".F c #d8d8d8",
"#d c #d9d9d9",
".i c #dadada",
"#y c #dbdbdb",
".E c #dcdcdc",
"#4 c #ddd5c9",
".O c #dddddd",
"#3 c #ded6ca",
".k c #dedede",
"ad c #dfd7cb",
"#g c #dfdfdf",
".N c #e0e0e0",
".s c #e1e1e1",
"#Q c #e2dace",
".j c #e2e2e2",
".I c #e3e3e3",
".D c #e4e4e4",
".A c #e5e5e5",
"#c c #e6e6e6",
".v c #e7e7e7",
".u c #e9e9e9",
".t c #eaeaea",
"#R c #eaeeea",
"## c #ededed",
".C c #eeeeee",
".M c #f0f0f0",
".B c #f1f1f1",
".J c #f4f4f4",
".K c #f6f6f6",
".L c #f7f7f7",
".S c #f8f8f8",
".T c #fbfbfb",
".U c #fcfcfc",
".X c #fefefe",
".1 c #ffffff",
"QtQtQtQtQtQtQtQtQtQtQtQtQtQt.#.#.a.b.c.d.e.fQtQtQtQtQtQtQtQtQtQt",
"QtQtQtQtQtQtQtQtQtQtQt.g.#.#.h.i.j.k.l.m.n.o.d.pQtQtQtQtQtQtQtQt",
"QtQtQtQtQtQtQtQtQtQt.q.#.r.s.t.u.v.j.s.k.i.w.x.y.pQtQtQtQtQtQtQt",
"QtQtQtQtQtQtQtQtQtQt.#.z.A.B.B.B.C.t.D.s.k.E.F.m.G.HQtQtQtQtQtQt",
"QtQtQtQtQtQtQtQtQtQt.#.I.J.K.L.K.J.M.t.D.N.k.O.P.Q.R.HQtQtQtQtQt",
"QtQtQtQtQtQtQtQtQt.#.r.J.S.T.U.T.S.J.C.v.j.k.k.i.w.V.HQtQtQtQtQt",
"QtQtQtQtQtQtQtQtQt.W.N.K.T.X.X.X.T.K.B.u.I.k.k.O.w.Y.Z.HQtQtQtQt",
"QtQtQtQtQtQtQtQtQt.0.B.L.U.X.1.X.U.L.B.t.I.k.k.k.P.2.3.HQtQtQtQt",
"QtQtQtQtQtQtQtQt.f.4.B.K.T.X.X.X.T.K.B.u.I.k.k.k.P.5.6.HQtQtQtQt",
"QtQtQtQtQtQtQtQt.f.O.C.J.S.T.U.T.S.J.C.v.j.k.k.E.7.n.3.HQtQtQtQt",
"QtQtQtQtQtQtQtQt.f.w.t.M.J.K.L.K.J.M.t.D.N.k.k.l.8.V.9.HQtQtQtQt",
"QtQtQtQtQtQtQtQt.f#..D.t.C##.B.B.C.t.D.s.k.k.k#a.m.y#b.HQtQtQtQt",
"QtQtQtQtQtQtQtQtQt.f.s.D.v.u#c.u.v.D.s.k.k#d#e.5.Q.6#f.HQtQtQtQt",
"QtQtQtQtQtQtQtQtQt.f.8.O.j.I#g.I.j.N.k.k.i#d.w.x.h#h.HQtQtQtQtQt",
"QtQtQtQtQtQtQtQtQt.f#i.i.k.k.i.k.k.k.k.i.P#a.7#j.3#k.HQtQtQtQtQt",
"QtQtQtQtQtQtQtQtQtQt.f#l.P.k.i.k.k.k.E#a#l.Q#m#b#n.HQtQtQtQtQtQt",
"QtQtQtQtQtQtQtQtQtQt.f.Q.5.l.i.k.k.E#d.n.x#o.Z#p.HQtQtQtQtQtQtQt",
"QtQtQtQtQtQtQtQtQtQt.f#h#l.l#e.k.k.i#a#q.o#r#s.HQtQtQtQtQtQtQtQt",
"QtQtQtQtQtQtQtQtQtQtQt.f#t#a#e.k.k#e.5#u.G#h#v.HQtQtQtQtQtQtQtQt",
"QtQtQtQtQtQtQtQtQtQtQt.f.n.7.P.k.O.m.Q.h.9#w.HQtQtQtQtQtQtQtQtQt",
"QtQtQtQtQtQtQtQtQtQtQt.f#x#a#l.k#y.5#o#r#z.HQtQtQtQtQtQtQtQtQtQt",
"QtQtQtQtQtQtQtQtQtQtQt#A#B#C#D.r.O.7.4#E#F#AQtQtQtQtQtQtQtQtQtQt",
"QtQtQtQtQtQtQtQtQtQtQt.H#G.z#g.1.m#H#n#I#JQtQtQtQtQtQtQtQtQtQtQt",
"QtQtQtQtQtQtQtQtQtQtQt.H#K#L#M#N.1#g.z#C.HQtQtQtQtQtQtQtQtQtQtQt",
"QtQtQtQtQtQtQtQtQtQt.H#O#P#Q.1.1#R#Q#S#O#TQtQtQtQtQtQtQtQtQtQtQt",
"QtQtQtQtQtQtQtQtQtQtQt.H#U#V#O#W#X#Y#Z#0#1QtQtQtQtQtQtQtQtQtQtQt",
"QtQtQtQtQtQtQtQtQtQt.H#O#2#3.1.1#R#4#5#6QtQtQtQtQtQtQtQtQtQtQtQt",
"QtQtQtQtQtQtQtQtQtQtQt#A#7#8#9a.a#aaabac#AQtQtQtQtQtQtQtQtQtQtQt",
"QtQtQtQtQtQtQtQtQtQt.H#O#Pad.1.1#Q#2#YaeQtQtQtQtQtQtQtQtQtQtQtQt",
"QtQtQtQtQtQtQtQtQtQtQt.H#U#O#O#Oafag#AQtQtQtQtQtQtQtQtQtQtQtQtQt",
"QtQtQtQtQtQtQtQtQtQtQtQtahaiajak#A#AalQtQtQtQtQtQtQtQtQtQtQtQtQt",
"QtQtQtQtQtQtQtQtQtQtQtQtQt.H.HamQtQtQtQtQtQtQtQtQtQtQtQtQtQtQtQt"};
