/* XPM */
static char *highlight_count[]={
"32 32 49 1",
". c None",
"# c #000000",
"b c #5d5d5d",
"a c #6c6c6c",
"S c #808080",
"O c #9e9e9e",
"T c #a0a0a0",
"J c #a9a9a9",
"F c #b6b6b6",
"R c #b7b7b7",
"I c #bcbcbc",
"L c #bebebe",
"P c #c1c1c1",
"A c #c4c4c4",
"N c #c5c5c5",
"q c #cacaca",
"M c #cccccc",
"u c #cecece",
"E c #d0d0d0",
"K c #d4d4d4",
"Q c #d5d5d5",
"z c #d8d8d8",
"H c #d9d9d9",
"g c #dadada",
"G c #dbdbdb",
"c c #dcdcdc",
"p c #dedede",
"D c #dfdfdf",
"l c #e0e0e0",
"f c #e1e1e1",
"C c #e3e3e3",
"B c #e4e4e4",
"y c #e5e5e5",
"e c #e8e8e8",
"k c #e9e9e9",
"v c #eaeaea",
"t c #ececec",
"d c #ededed",
"x c #efefef",
"m c #f0f0f0",
"w c #f1f1f1",
"r c #f2f2f2",
"j c #f4f4f4",
"h c #f7f7f7",
"i c #f9f9f9",
"s c #fbfbfb",
"n c #fdfdfd",
"o c #fefefe",
"U c #ffffff",
"................................",
".........###...........###......",
".........###...........###......",
".........###...........###......",
".........###...........###......",
".........###...........###......",
"........###...........###.......",
"........###.aaaab.....###.......",
"..#########acdefgb#############.",
".#########achijklgb###########..",
".#########amnoidlpq###########..",
".......##bcrsnhtlpu#.###........",
".......##bcvwjxypzA#.###........",
".......###bcyBCDgEF#.###........",
".......###bcGcpHEI#..###........",
".......###bJKGcuLJ#..###........",
"......###..bMHHNJ#..###.........",
"......###..bOPQRJ#..###.........",
"......###..#SOTS#...###.........",
"......###..#TUTS#...###.........",
".###########TUTS#############...",
"############TUTS#############...",
"############################....",
".....###...........###..........",
".....###...........###..........",
".....###...........###..........",
"....###...........###...........",
"....###...........###...........",
"....###...........###...........",
"....###...........###...........",
"....###...........###...........",
"................................"};
