/* XPM */
static char *highlight05[]={
"32 32 55 1",
"L c None",
". c None",
"r c #000000",
"X c #050504",
"Y c #080707",
"W c #0c0c0b",
"0 c #0e0e0c",
"Z c #121110",
"H c #404040",
"b c #5d5d5d",
"a c #6c6c6c",
"K c #808080",
"R c #9e9e9e",
"V c #a0a0a0",
"M c #a9a9a9",
"G c #b6b6b6",
"U c #b7b7b7",
"O c #bebebe",
"S c #c1c1c1",
"B c #c4c4c4",
"Q c #c5c5c5",
"q c #cacaca",
"P c #cccccc",
"v c #cecece",
"F c #d0d0d0",
"N c #d4d4d4",
"T c #d5d5d5",
"A c #d8d8d8",
"J c #d9d9d9",
"g c #dadada",
"I c #dbdbdb",
"c c #dcdcdc",
"p c #dedede",
"E c #dfdfdf",
"l c #e0e0e0",
"f c #e1e1e1",
"D c #e3e3e3",
"C c #e4e4e4",
"z c #e5e5e5",
"e c #e8e8e8",
"k c #e9e9e9",
"w c #eaeaea",
"u c #ececec",
"d c #ededed",
"y c #efefef",
"m c #f0f0f0",
"x c #f1f1f1",
"s c #f2f2f2",
"j c #f4f4f4",
"h c #f7f7f7",
"i c #f9f9f9",
"t c #fbfbfb",
"n c #fdfdfd",
"o c #fefefe",
"# c #ffffff",
"................................",
"........######aaaab#####........",
"........#####acdefgb####........",
"........####achijklgb###........",
"........####amnoidlpqr##........",
"........###bcstnhulpvr##........",
"........###bcwxjyzpABr##........",
"........####bczCDEgFGr##........",
"........HHHHbcIcpJFKrrHHrrrL....",
"......rrH##HbMNIcvOKrHHHrrrL....",
"......rr####HbPJJQMrrH##..rL....",
".....rrr####HbRSTUMrHH##LL.L....",
".....rrr####HrKRVKrrHH##LLLL....",
"....rrrr####HrV#VKrHHH##LLLL....",
"....rrrr####HrV#VKrHHHHHrrLL....",
"....rrrr####HrV#VKrHHHHHrrrL....",
"....rrrr####HHrrrr######Wrrr....",
"....rrrr....rrrr..L..LLLLrrr....",
"....rrrr....rrrr...rr..LLrrX....",
".....rrr....rrr...rrrrLLLrrY....",
".....rrr....rrr...rrrrLLLrrr....",
"......rr....rr....rrr.LLrrrr....",
"......rrr..rrr....Lrrr..rrrL....",
"........rrrr......LLrZr0rrLL....",
"................................",
"................................",
"................................",
"................................",
"................................",
"................................",
"................................",
"................................"};
