/* XPM */
static char *highlight_none[]={
"32 32 129 2",
"Qt c None",
".g c #ffffff",
".r c #ffffff",
"#n c #000000",
".J c #020202",
"#5 c #0e1212",
"a. c #121212",
"#2 c #161616",
"#N c #22221e",
"#S c #352929",
"#9 c #362a2a",
"#0 c #423a36",
"#M c #453f3e",
"#6 c #463e3a",
"#Z c #4d4642",
".e c #575757",
".f c #585858",
"#F c #5e562a",
"#T c #5e5652",
"#4 c #5f5753",
"#o c #606060",
"#G c #625a56",
".d c #626262",
"#w c #635b57",
".c c #636363",
".p c #646464",
"#7 c #66564e",
"#L c #68645e",
"#Y c #68655e",
"#v c #6b6b6b",
".b c #6c6c6c",
"#8 c #6e625a",
".V c #727272",
"#H c #75716a",
"#U c #76726b",
".a c #787878",
"#p c #7d7d7d",
"#3 c #7e7b73",
"#s c #7e7e7e",
"#X c #7f7c74",
"#K c #807c74",
".# c #808080",
"#A c #827e76",
"#V c #858179",
"#k c #858585",
"#x c #87817e",
"#W c #8e8a83",
"#J c #8e8b83",
"#I c #939089",
"#e c #949494",
"#j c #969696",
"#y c #97968f",
"#h c #979797",
"#b c #989898",
"#. c #9b9b9b",
"#q c #9c9c9c",
".4 c #a1a1a1",
".6 c #a4a4a4",
"## c #a7a7a7",
"#g c #a8a8a8",
"#z c #adaaa4",
".Z c #aeaeae",
".1 c #b0b0b0",
"#i c #b1b1b1",
".I c #b2b2b2",
"#u c #b4b4b4",
".z c #b5b5b5",
".s c #b7b7b7",
".h c #b8b8b8",
"#r c #b9b9b9",
".3 c #bababa",
".B c #bcbcbc",
".o c #bebebe",
"#d c #bfbfbf",
".A c #c00000",
"#a c #c0c0c0",
"#E c #c1b9ad",
"#R c #c2baae",
"#f c #c2c2c2",
"#B c #c5bdb1",
"#O c #c6beb2",
".y c #c7c7c7",
".9 c #c9c9c9",
".n c #cacaca",
".0 c #cccccc",
"#l c #cdcdcd",
".2 c #cecece",
".Y c #cfcfcf",
".5 c #d0d0d0",
".m c #d1d1d1",
".R c #d2d2d2",
".x c #d3d3d3",
"#c c #d4d4d4",
".l c #d6d6d6",
".8 c #d7d7d7",
".H c #d8d8d8",
".7 c #d9d9d9",
".i c #dadada",
"#m c #dbdbdb",
".G c #dcdcdc",
"#Q c #ddd5c9",
".Q c #dddddd",
"#P c #ded6ca",
".k c #dedede",
"#1 c #dfd7cb",
"#t c #dfdfdf",
".P c #e0e0e0",
".t c #e1e1e1",
"#C c #e2dace",
".j c #e2e2e2",
".K c #e3e3e3",
".F c #e4e4e4",
".C c #e5e5e5",
".w c #e7e7e7",
".v c #e9e9e9",
".u c #eaeaea",
"#D c #eaeeea",
".E c #eeeeee",
".O c #f0f0f0",
".D c #f1f1f1",
".L c #f4f4f4",
".M c #f6f6f6",
".N c #f7f7f7",
".S c #f8f8f8",
".T c #fbfbfb",
".U c #fcfcfc",
".W c #fefefe",
".q c #ff0000",
".X c #ffffff",
"QtQtQtQtQtQtQtQtQtQtQtQtQtQt.#.#.a.b.c.d.e.fQtQtQtQtQtQtQtQtQtQt",
"QtQtQtQtQtQtQtQtQtQtQt.g.#.#.h.i.j.k.l.m.n.o.d.pQtQtQtQtQtQtQtQt",
"QtQt.qQtQtQtQtQtQtQt.r.#.s.t.u.v.w.j.t.k.i.x.y.z.pQtQtQtQtQtQtQt",
"QtQt.A.qQtQtQtQtQtQt.#.B.C.D.D.D.E.u.F.t.k.G.H.m.I.JQtQtQtQtQtQt",
"QtQt.A.q.qQtQtQtQtQt.#.K.L.M.N.M.L.O.u.F.P.k.Q.R.A.A.A.AQtQtQtQt",
"QtQtQt.A.q.q.qQtQt.#.s.L.S.T.U.T.S.L.E.w.j.k.A.A.A.q.q.qQtQtQtQt",
"QtQtQtQt.A.q.q.q.q.V.P.M.T.W.W.W.T.M.D.v.A.A.A.q.q.q.q.qQtQtQtQt",
"QtQtQtQt.A.A.q.q.q.q.D.N.U.W.X.W.U.N.D.A.A.q.q.q.q.q.q.JQtQtQtQt",
"QtQtQtQtQt.A.A.q.q.q.q.M.T.W.W.W.T.M.A.A.q.q.q.q.q.Y.Z.JQtQtQtQt",
"QtQtQtQtQtQt.A.q.q.q.q.q.S.T.U.T.S.A.A.A.q.q.q.G.0.n.1.JQtQtQtQt",
"QtQtQtQtQtQt.A.A.A.q.q.q.q.M.N.M.A.A.A.q.q.k.k.l.2.3.4.JQtQtQtQt",
"QtQtQtQtQtQtQtQt.A.q.q.q.q.q.D.A.A.q.q.q.q.k.k.5.m.z.6.JQtQtQtQt",
"QtQtQtQtQtQtQtQt.A.A.q.q.q.q.q.A.q.q.q.q.k.7.8.Y.9.Z#..JQtQtQtQt",
"QtQtQtQtQtQtQtQtQt.A.A.q.q.q.q.q.q.q.q.k.i.7.x.y.h##.JQtQtQtQtQt",
"QtQtQtQtQtQtQtQtQt.f.A.A.q.q.q.q.q.q.k.i.R.5.0#a.1#b.JQtQtQtQtQt",
"QtQtQtQtQtQtQtQtQtQt.f.A.A.q.q.q.q.q.G.5#c.9#d.6#e.JQtQtQtQtQtQt",
"QtQtQtQtQtQtQtQtQtQt.A.A.q.q.q.q.q.q.q.n.y#f#g#h.JQtQtQtQtQtQtQt",
"QtQtQtQtQtQtQtQtQt.A.A.q.q.q.q.A.A.q.q.q.o#i#j.JQtQtQtQtQtQtQtQt",
"QtQtQtQtQtQtQtQt.A.A.q.q.q.q.8.k.A.A.q.q.q###k.JQtQtQtQtQtQtQtQt",
"QtQtQtQtQtQtQt.A.A.q.q.q.n.0.R.k.Q.A.A.q.q.q.JQtQtQtQtQtQtQtQtQt",
"QtQtQtQtQtQt.A.A.q.q.q.f#l.5#c.k#m.Y.A.A.q.q.qQtQtQtQtQtQtQtQtQt",
"QtQtQtQtQtQt.A.q.q.qQt#n#o#p#q.s.Q.0#r.A.A.q.q.qQtQtQtQtQtQtQtQt",
"QtQtQtQtQt.A.A.q.qQtQt.J#s.B#t.X.m#u#e#v.A.A.q.q.qQtQtQtQtQtQtQt",
"QtQtQtQt.A.A.q.qQtQtQt.J#w#x#y#z.X#t.B#p.J.A.A.q.q.qQtQtQtQtQtQt",
"QtQtQtQt.A.q.qQtQtQt.J#A#B#C.X.X#D#C#E#A#FQt.A.A.q.q.qQtQtQtQtQt",
"QtQtQt.A.A.q.qQtQtQtQt.J#G#H#A#I#J#K#L#M#NQtQt.A.A.q.qQtQtQtQtQt",
"QtQtQt.A.q.qQtQtQtQt.J#A#O#P.X.X#D#Q#R#SQtQtQtQt.A.A.q.qQtQtQtQt",
"QtQtQt.A.qQtQtQtQtQtQt#n#T#U#V#W#X#Y#Z#0#nQtQtQtQt.A.A.q.qQtQtQt",
"QtQtQtQtQtQtQtQtQtQt.J#A#B#1.X.X#C#O#K#2QtQtQtQtQtQt.A.q.qQtQtQt",
"QtQtQtQtQtQtQtQtQtQtQt.J#G#A#A#A#3#4#nQtQtQtQtQtQtQtQt.A.A.qQtQt",
"QtQtQtQtQtQtQtQtQtQtQtQt#5#6#7#8#n#n#9QtQtQtQtQtQtQtQtQtQtQtQtQt",
"QtQtQtQtQtQtQtQtQtQtQtQtQt.J.Ja.QtQtQtQtQtQtQtQtQtQtQtQtQtQtQtQt"};
