/* XPM */
static char *icon_zoomin[]={
"32 32 351 2",
"Qt c None",
"ac c None",
"a5 c None",
"bN c None",
"bO c None",
"dy c None",
"ci c None",
"bP c None",
"bm c None",
"cN c None",
".0 c None",
"b1 c None",
"ay c None",
"bZ c None",
"cx c None",
"cP c None",
".1 c None",
".2 c None",
"c9 c None",
"c8 c None",
"bg c None",
"#z c None",
"#A c None",
"#l c None",
"bh c None",
"ad c None",
".K c None",
"ae c None",
"cj c None",
".u c None",
"b3 c None",
"cB c None",
".L c None",
"bj c None",
".a c None",
".m c None",
"c0 c None",
"bi c None",
".N c None",
"cz c None",
"aT c None",
"cl c None",
"#i c None",
".i c None",
"do c None",
"bl c None",
"dc c None",
"aK c None",
"dj c None",
"#k c None",
"af c None",
".4 c None",
"c2 c None",
"c7 c None",
".J c None",
"a4 c None",
"ax c None",
".v c None",
"a3 c None",
".w c None",
"aw c None",
"b2 c None",
"bk c None",
"cY c None",
"cy c None",
"cA c None",
"b4 c None",
"cM c None",
".j c None",
".5 c None",
"bA c None",
"c1 c None",
"cR c None",
"bB c None",
"d. c None",
"d# c None",
"#h c None",
"c3 c None",
".6 c None",
".k c None",
"dk c None",
"bC c None",
".c c None",
"dA c None",
"dv c None",
"dg c None",
"cZ c None",
".I c None",
".M c None",
"av c None",
"dt c None",
"c5 c None",
"du c None",
"c4 c None",
"de c None",
"df c None",
"di c None",
".3 c None",
"b0 c None",
"#N c None",
"#j c None",
"c6 c None",
"dh c None",
"dq c None",
"#O c None",
".l c None",
".y c None",
"ds c None",
".x c None",
"cQ c None",
"cS c None",
"dm c None",
".d c None",
".h c None",
"#B c None",
".# c None",
".g c None",
"ca c None",
"bQ c None",
"dz c None",
"cT c None",
"cX c None",
"ck c None",
"cW c None",
"cb c None",
"ag c None",
"au c None",
"dB c None",
".b c None",
"dd c None",
"dp c None",
".f c #000000",
"cL c #010101",
"cC c #040404",
"cG c #060606",
"cH c #06afb1",
"#Z c #080808",
"at c #090909",
"aJ c #0a0a0a",
"dC c #0a0a0b",
"cv c #0ae1df",
"ab c #0c0c0c",
"ch c #0cfdfa",
"dx c #0d0d0c",
"dr c #121213",
".t c #131313",
"bn c #161616",
"bY c #2e2e2d",
".n c #2f2f2f",
"#y c #30302f",
"cO c #333333",
"dl c #343434",
"cm c #373736",
"da c #3d3d3c",
"bv c #3e9ea6",
"cU c #404041",
"bV c #419fa7",
"dn c #424243",
"bJ c #42a2aa",
"bU c #43a4ad",
"aY c #44a5ae",
"bI c #44a7b0",
"bb c #44abb3",
"bu c #46aab3",
"dw c #4a4a4b",
"bT c #4aaab3",
"ba c #4ab6c2",
".H c #4b4b4a",
"bc c #4ba5b1",
"#1 c #4c4c4b",
"aX c #4cb7be",
"bH c #4db8c0",
"b8 c #4eaab6",
"aP c #4eb2ba",
"aW c #4ec2ce",
"bt c #4ec6d2",
"aa c #505050",
"cD c #515151",
"bw c #52aeb6",
"aZ c #52b2ba",
"b# c #52c2ce",
"cI c #535352",
".z c #545552",
"cV c #555554",
"db c #555653",
"b7 c #56aeb8",
"aE c #56b6c2",
"aO c #56bac8",
"bf c #575757",
"c# c #585858",
"aQ c #5ab6be",
"bK c #5abac6",
".o c #5d5d5d",
"bd c #5eb6c0",
"ap c #5ebeca",
"bG c #5ebece",
"aF c #62bec6",
"aN c #62cad6",
"b. c #62ceda",
".s c #666666",
"bs c #66cad8",
"aq c #6ac2cc",
"ao c #6ac2d2",
"bF c #6ac6d2",
"#8 c #6ec6ce",
"#9 c #72c6d2",
"#7 c #76cad6",
"aD c #76ced6",
"br c #76cede",
"aM c #76d2df",
".Z c #797979",
"bx c #7acad6",
"an c #7ad2e2",
"#V c #7ecad6",
"bS c #7eced6",
"bq c #7ed6de",
"cg c #7f7f80",
".p c #818181",
"#K c #82ced6",
"aC c #82d6e2",
"bz c #848484",
"#0 c #858585",
"#6 c #86d2dc",
"a0 c #86d6de",
"aL c #86dae2",
".e c #878787",
"cn c #898989",
"a9 c #8adae2",
"cu c #8b8b8b",
"cJ c #8c8c8c",
".r c #8e8e8e",
"#W c #8ed6df",
"am c #8edae5",
"aB c #8edee6",
"bM c #929292",
"bp c #92d2dc",
"#J c #92d6de",
"b6 c #96d6de",
"aR c #96dae2",
"ar c #96dee8",
"cE c #989898",
".q c #9a9a9a",
"#u c #9ad6e2",
"#v c #9adae2",
"a8 c #9adee6",
"#U c #9adeea",
"#I c #9edae2",
"aG c #9edee6",
".A c #9fa0a0",
"#t c #a2dee6",
"a. c #a2e2ee",
"a2 c #a6a6a6",
"al c #a6e2ea",
"#5 c #a6e6ee",
"cr c #a7dfe7",
".G c #a9a9a9",
"#T c #aae6ee",
"co c #aeb7b9",
"a7 c #aedee6",
"#H c #aee6ee",
"a1 c #b1e6ee",
".O c #b2b8b9",
"#d c #b2e2ea",
"#c c #b2e6ee",
"#4 c #b2eaf0",
"#m c #b3b7b8",
"bo c #b3b8b8",
"cc c #b4b9ba",
".7 c #b4bab9",
"bR c #b5babc",
"b5 c #bac1c2",
"#S c #bae6ee",
"aA c #baeaee",
"as c #bce6ee",
"cq c #bde4eb",
"aH c #bdedf1",
"aV c #bee6ec",
"#s c #beeaf2",
"b9 c #beedf1",
"bE c #beeef2",
"#b c #beeef6",
"#M c #c1c1c1",
"cF c #c2c2c2",
"#3 c #c2eaf2",
"#e c #c2eef3",
"bW c #c2f1f7",
"#X c #c2f2f8",
"aI c #c3c3c3",
"be c #c4e6ec",
"a6 c #c6d4d4",
"cs c #c6e2e8",
"#R c #c6eef2",
"#2 c #c8d0d0",
".F c #c9d5d5",
"cp c #c9e0e0",
"ak c #caeaf0",
"#a c #caeef2",
"#r c #caf2f6",
".B c #cbd7d7",
".E c #cbd8d9",
"a# c #cce2e8",
".C c #cedade",
"#q c #cef2f2",
"bD c #d0e9ed",
".D c #d1e1e5",
"#f c #d1eef2",
".W c #d2eef2",
".V c #d2f2f6",
".U c #d2f6f8",
"aS c #d3d3d3",
".Y c #d4dada",
"ah c #d5e2e5",
"#w c #d5f1f5",
"#Y c #d6e2e4",
"#G c #d6f2f6",
"ce c #d6f9f9",
"by c #d7e3e5",
"cd c #d7f3f4",
".P c #d8e4e4",
"aU c #d8e4e5",
"ct c #d9e4e6",
"#C c #d9e5e4",
".8 c #d9e5e5",
"bL c #d9f9f9",
"ai c #daf2f2",
"aj c #daf2f6",
".T c #daf6fa",
"#g c #deebec",
".Q c #deeeee",
".R c #def2f2",
"## c #def6f9",
"#L c #dff9fa",
"cw c #e0e0e0",
"az c #e1e9ed",
"#x c #e2eff0",
"#p c #e2f6fa",
"cf c #e3eeee",
".X c #e4fbfb",
"c. c #e6eff0",
".S c #e6f2f6",
"bX c #e6f4f6",
".9 c #e6f6fa",
"#. c #e6fafa",
"cK c #e8e8e8",
"#D c #eaf6fa",
"#n c #eafafa",
"#F c #eafefe",
"#P c #eefafa",
"#o c #eefafe",
"#E c #eefefa",
"#Q c #ffffff",
"Qt.#Qt.a.b.c.d.e.f.f.f.f.f.f.e.cQt.g.h.i.c.c.j.jQtQt.k.k.l.lQtQt",
"QtQt.m.mQt.f.f.n.o.p.q.q.r.s.t.f.f.mQtQt.u.u.v.w.c.c.c.c.j.j.x.x",
"QtQt.y.y.f.z.p.A.B.C.D.D.C.E.F.G.H.f.I.I.J.J.K.L.M.M.c.c.c.c.N.N",
".c.c.c.f.z.O.P.Q.R.S.T.U.V.W.U.X.Y.Z.fQt.0.1Qt.2.3.4.c.c.N.N.5.5",
".6.6.f.z.7.8.9#.##.U.V#a#b#c#d#e#f#g.o.f#h.c#iQt#jQtQtQt#k#lQt#l",
"Qt.f.z#m.8#n#o#n#p#q#r#s#c#t#u#v#e#w#x#y.f#z.6.k#A#AQtQt#B#BQtQt",
".c.f.p#C#D#E#F#E#.#G#a#s#H#I#J#K#J#c#L#M.f#NQt#O#l.LQt.LQt.2.c.c",
".e.n.A.Q#D#P#P#Q#.#G#R#S#T#U#J#V#V#W#X#Y#Z#0QtQtQtQt#jQt#jQt#k#l",
".f#1#2.S###p#.#p.R.W#3#4#5#v#6#7#8#9a.a#aaabacadaeaeafafagag.c.c",
".f.pah#n.U#qaiaj.Vak#Sal#Uamanaoapaqaras.qatauavQtawaxay#l.LQtQt",
".f.qaz#..W#3#a#R#saAal#UaBaCaDapaEaFaGaHaIaJQtQtQtQtaK#lQt#lQt.2",
".f.qaz##ak#s#saA#H#TaGamaLaMaNaOaPaQaRaHaSaJaTaTQtQtQtQt.c.c.c.c",
".f.raU.QaV#d#4#Tal#vamaCaMaNaWaXaYaZa0a1a2aJa3QtQtQta4Qta5QtQtQt",
".f.Ha6.Va7#ua8a8ara9aLaMb.b#babbbcbd#UbebfatbgbhbibjbkblQt.xbmay",
".ebnbo.Wa7bp#6a9a9bqbrbsbtbabubvbwbx#4by.fbzbAbAbAbAbBbC.c.c.c.c",
".c.f.rbDbEa8#V#V#7bFbGaObHbIbvbJbKaBbLbM.fbNQtbOQtbObPQt.L.xQtQt",
"bQ.f.HbR.WbE#JbS#8bKaZbTbUbVbwaEambWbXbYbzbZQtbhQtb0Qtb1Qtb2b3Qt",
"b4Qt.f.Zb5.Wa7b6bSaqbdb7b8bd#7a9b9c.c#.f.fbAbAbAbAbAQtQtcacaQtQt",
"cbcb.c.f.Zcccd#b#taR#6bx#7#W#ccecfc#.fcgch.fciQtb0b0QtcjQt.2ckck",
"clcl.c.c.fcmcncocpcq#c#TcrcsctcubY.f.Hcvcvcw.fcxQtbhcyczQtb2b3Qt",
"cAQtb4QtcB.f.fcCcDcEcFaSa2bf.f.fbzcGcHcHcIcJcKcLbAbAQtQt.k.k.c.c",
".c.c.c.caeaecM#0.f.f.f.f.f.fbzcNbOcN.fcO.HcIcJcK.fcPQtQt.c.cckQt",
".c.ccQQtQtQtQtbAcRcRQtQtcScSQtQtcTcTbA.fcOcUcVcJcK.fbC.cQtQt.x.x",
"QtQtQtQt.f.fQtQtQtbAcWcXcYQtcZc0c1c2QtQt.fcOcUcIcJcK.fQtQtQt.c.c",
"QtQtQtQt.f.fQtQtQtc3c4c5bAbAbAbAbAbAbAbAbA.fcOcUcIcJcK.f.c.cc6c7",
"QtQtQtQt.f.fQtQtQtQtc8c9acbhbAbAd.d.#l#ld#bC.fcOdadbcJcK.f.gQtQt",
"Qt.f.f.f.f.f.f.f.fQtdcdcdddddedfdgdhdidjQtQtdk.fdldadbcJcK.fQtQt",
"Qt.f.f.f.f.f.f.f.fQt.c.cQtQtdmdma5a5.c.cdddd.c.c.fdldndbcJcw.fdo",
"Qtdpdpdp.f.fdpQtQtQtdqdq.L.L.M.M.u.u.k.k.M.M.c.c.c.fdldndbcJdr.c",
"QtQtQtQt.f.fQtQtQtc8c8c8QtQtdsdsdcdc.c.cdtdu.3.4dvax.fdldndwdxdy",
"QtQtQtQt.f.fQtQtQt.c.c.cdzdzdAdAdydydqdqdBdB.c.caxax.L.fdCdCdtdt",
"QtQtQtQtQtQtQtQtQt.4QtQt.c.cQtQt.c.c.c.c.c.c.c.c.c.c.c.cdodo.L.L"};
