/* XPM */
static char * IHO_xpm[] = {
"32 32 253 2",
"  	c None",
". 	c #000000",
"+ 	c #060A08",
"@ 	c #080813",
"# 	c #081506",
"$ 	c #0D1516",
"% 	c #160905",
"& 	c #181917",
"* 	c #181608",
"= 	c #0A1132",
"- 	c #171B27",
"; 	c #151B35",
"> 	c #080928",
", 	c #092709",
"' 	c #093705",
") 	c #162508",
"! 	c #192218",
"~ 	c #11320C",
"{ 	c #1A2427",
"] 	c #182D33",
"^ 	c #290702",
"/ 	c #2E140E",
"( 	c #370602",
"_ 	c #2F1A2C",
": 	c #292805",
"< 	c #27271B",
"[ 	c #2B3305",
"} 	c #322D12",
"| 	c #37370E",
"1 	c #272928",
"2 	c #252837",
"3 	c #2B3437",
"4 	c #342C30",
"5 	c #353728",
"6 	c #363737",
"7 	c #0A0A4D",
"8 	c #1A1B59",
"9 	c #171947",
"0 	c #090C70",
"a 	c #191B66",
"b 	c #181A79",
"c 	c #1D2547",
"d 	c #12314D",
"e 	c #1E2271",
"f 	c #241A54",
"g 	c #272A47",
"h 	c #262958",
"i 	c #2B3746",
"j 	c #2A3459",
"k 	c #312A4D",
"l 	c #363946",
"m 	c #363A57",
"n 	c #282969",
"o 	c #292A77",
"p 	c #2A3568",
"q 	c #2E3272",
"r 	c #363A68",
"s 	c #353877",
"t 	c #085602",
"u 	c #115309",
"v 	c #096608",
"w 	c #137608",
"x 	c #324B0B",
"y 	c #314A2F",
"z 	c #2B6F07",
"A 	c #206232",
"B 	c #195660",
"C 	c #3B4449",
"D 	c #3B4358",
"E 	c #30534E",
"F 	c #2F506D",
"G 	c #39446A",
"H 	c #3A4678",
"I 	c #500F0B",
"J 	c #473309",
"K 	c #4C302C",
"L 	c #650702",
"M 	c #770802",
"N 	c #71140D",
"O 	c #62281B",
"P 	c #4B3E5A",
"Q 	c #464506",
"R 	c #4E4C12",
"S 	c #585706",
"T 	c #5A5718",
"U 	c #474A38",
"V 	c #51522D",
"W 	c #5A6607",
"X 	c #665907",
"Y 	c #625B14",
"Z 	c #605A2D",
"` 	c #696806",
" .	c #696815",
"..	c #766B06",
"+.	c #797706",
"@.	c #737411",
"#.	c #686724",
"$.	c #706F32",
"%.	c #777638",
"&.	c #474849",
"*.	c #474957",
"=.	c #565657",
"-.	c #525251",
";.	c #5F5C59",
">.	c #464868",
",.	c #444877",
"'.	c #4E5270",
").	c #545466",
"!.	c #555676",
"~.	c #6D6C4D",
"{.	c #666676",
"].	c #0A0B9B",
"^.	c #0D108C",
"/.	c #19198A",
"(.	c #13139B",
"_.	c #171896",
":.	c #0909A7",
"<.	c #0706B6",
"[.	c #1314A7",
"}.	c #1314B4",
"|.	c #1D2291",
"1.	c #1E26A3",
"2.	c #262888",
"3.	c #272995",
"4.	c #2E348A",
"5.	c #2A3496",
"6.	c #363888",
"7.	c #323293",
"8.	c #34349B",
"9.	c #2426A7",
"0.	c #3536A6",
"a.	c #3033B3",
"b.	c #0303C8",
"c.	c #0505D5",
"d.	c #1415CA",
"e.	c #0B0BED",
"f.	c #0202FE",
"g.	c #252BDF",
"h.	c #3B4688",
"i.	c #3E4C84",
"j.	c #394896",
"k.	c #35588E",
"l.	c #2E6894",
"m.	c #206BA5",
"n.	c #1E50F6",
"o.	c #4E25FF",
"p.	c #414C86",
"q.	c #4C4D8F",
"r.	c #44528B",
"s.	c #465698",
"t.	c #4756AB",
"u.	c #4E6791",
"v.	c #5366B1",
"w.	c #6F6C98",
"x.	c #5668DA",
"y.	c #0B9106",
"z.	c #169908",
"A.	c #178608",
"B.	c #08B603",
"C.	c #11A807",
"D.	c #12B808",
"E.	c #22940A",
"F.	c #08C905",
"G.	c #0AD707",
"H.	c #10C909",
"I.	c #07EA08",
"J.	c #08E507",
"K.	c #08E608",
"L.	c #08E908",
"M.	c #7A870B",
"N.	c #6AA511",
"O.	c #748C4E",
"P.	c #54C206",
"Q.	c #0791B9",
"R.	c #2791AF",
"S.	c #009CC7",
"T.	c #1196C4",
"U.	c #04ADDC",
"V.	c #03BAEA",
"W.	c #05BEF2",
"X.	c #04C4F6",
"Y.	c #00CDFF",
"Z.	c #02D0FF",
"`.	c #5D8FC1",
" +	c #870903",
".+	c #8C180B",
"++	c #970601",
"@+	c #A90803",
"#+	c #B80401",
"$+	c #AF1901",
"%+	c #857A08",
"&+	c #88740E",
"*+	c #8F7722",
"=+	c #C70401",
"-+	c #D80201",
";+	c #E30100",
">+	c #EC0200",
",+	c #F40100",
"'+	c #FF0000",
")+	c #E01300",
"!+	c #898707",
"~+	c #888617",
"{+	c #938A08",
"]+	c #999508",
"^+	c #9D9A09",
"/+	c #969615",
"(+	c #908D2D",
"_+	c #9EA509",
":+	c #95A129",
"<+	c #A49C09",
"[+	c #A79B17",
"}+	c #AAA609",
"|+	c #AAA815",
"1+	c #B3AA08",
"2+	c #B2AC0A",
"3+	c #B5B20B",
"4+	c #B8B406",
"5+	c #BDBA0A",
"6+	c #BBB50B",
"7+	c #B8B516",
"8+	c #A9A526",
"9+	c #B3B128",
"0+	c #C4BB08",
"a+	c #C2BD0B",
"b+	c #C0B613",
"c+	c #C6C207",
"d+	c #C5C20B",
"e+	c #CBC50C",
"f+	c #CDCA0C",
"g+	c #CAC615",
"h+	c #D3CD0C",
"i+	c #D2CA08",
"j+	c #D2CD12",
"k+	c #D4D20C",
"l+	c #DAD50C",
"m+	c #DDDB0C",
"n+	c #DAD614",
"o+	c #D2D318",
"p+	c #E2DD0D",
"q+	c #E1DC15",
"r+	c #E5E20D",
"s+	c #EAE407",
"t+	c #EAE50D",
"u+	c #ECEA0D",
"v+	c #E9E511",
"w+	c #F2ED0E",
"x+	c #F3EE10",
"y+	c #F5F30E",
"z+	c #F9F60E",
"A+	c #FDFC0F",
"B+	c #FFFF00",
"C+	c #F7F410",
"D+	c #FFFE10",
"                            D+r+                                ",
"                          2+m+  n+                              ",
"                          5+5+A+h+                              ",
"                      n+g+f+0+r+k+                              ",
"                      l+    m+k+                                ",
"            }+r+D+A+D+<+D+}+!+}+r+A+A+&+D+D+z+{+!+              ",
"        7+f+D+x+D+D+A+]+D+k+d+d+z+D+D+!+D+D+f++.` T             ",
"                      m+z+  Y.Y.l.    3 y                       ",
"                    w +.p+=+Z.Y.l.'+'+'+A.                      ",
"                  '+'+,+* f+X.Y.S.  I '+'+-+                    ",
"                '+'+I v   m+Y.Y.S.      #+'+,+                  ",
"              '+'+% J.C.    X.Y.S.      J.I '+=+                ",
"              '+-+D K.C.    m.B.S.      J.{ '+'+                ",
"            c '+++  K.C.  y.K.K.L.0+%+d K.= #+'+*               ",
"            K '+(   K.G.K.K.. Z., k+z v K.-   '+L               ",
"            6 '+M   K.J.v   Z.Y.V.  {+G.K.{   '+L               ",
"            7 '+-+  K.K.    U.Y.X.  ..  K.$ ++'+%               ",
"              '+'+4 K.K.    U.Y.X.c+!+4 K.' '+'+k               ",
"                '+'+z.G.    T.Y.:+:+n+  J.'+'+I                 ",
"                  '+'+)     m.Z.k+5     '+'+ +                  ",
"      4+9+          '+'+'+@+U f+y ++>+'+'+I       ]+n+6+        ",
"        D+D+D+u+    I.I.  &+i A+Q.++( $ I.u   }+D+^+m+          ",
"          D+p+z+          8+{+}+p+            A+D+@.            ",
"               .D+p+      U A+D+p+<+    g+D+D+z+;               ",
"                  1+A+A+w+D+D+D+D+D+D+D+D+u+J                   ",
"        D+7+            D+w+D+D+D+D+l+M.          O.D+Q         ",
"    +.D+D+{+^+r+        D+    D+y+|           k+C+C+u+A+ .      ",
"        # r+y+d+%+5+    A+                5+..` ^+z+x           ",
"                [ D+Q i+#.            7+!+e+A++                 ",
"                  | A+u+D+A+4+{+y+]+]+D+A+0+                    ",
"                        ~ %+d+c+c+4+S -                         ",
"                                                                "};
