/* XPM */
static char *link[]={
"32 32 184 2",
".# c None",
"Qt c None",
".a c #000000",
"#g c #000b21",
"af c #011643",
"#h c #022165",
"#v c #032c87",
"a1 c #050509",
".S c #0a0a0d",
".h c #0a0b0e",
".s c #0d0d0f",
".H c #0e0e10",
"aQ c #12131d",
"az c #14161f",
"av c #151624",
"a# c #161825",
"#Z c #181926",
"aZ c #181a27",
"#N c #191a28",
".d c #1a1b25",
"#C c #1a1c29",
"aY c #1b1c2d",
"#p c #1c1d2a",
".1 c #1e202c",
".N c #1f212d",
".B c #21222f",
".n c #222430",
"a0 c #292b42",
"aN c #2a2d48",
"aE c #2c2f4a",
"au c #2e314c",
".b c #32333a",
"a. c #32354f",
"ap c #33354c",
"#Y c #343751",
"#M c #363953",
"aR c #373a54",
".5 c #393b4d",
"#B c #393c55",
"#o c #3b3e57",
".0 c #3f425b",
"#i c #40558c",
".M c #41445d",
".A c #43465f",
"aG c #4c5078",
"aX c #4f5587",
"ae c #545d8c",
"aw c #555b91",
"aO c #565c91",
"aM c #575d93",
".G c #585c76",
"aW c #585e93",
"al c #595f95",
"ax c #5a6095",
"aF c #5a6096",
"aP c #5b6196",
"aD c #5b6197",
".m c #5c5e6f",
"#f c #5c6286",
"aL c #5c6297",
"aV c #5c6298",
"aa c #5e6499",
"am c #5f659a",
"at c #60669b",
"aK c #60669c",
"#2 c #606fab",
"aU c #61679c",
".g c #626583",
".c c #646674",
"aS c #64699a",
"#0 c #646a9e",
"ab c #646a9f",
"#R c #6473af",
"an c #656b9f",
"aJ c #656ba0",
"#w c #657cb7",
"aH c #666b93",
"aT c #666ca0",
"#9 c #686ea3",
"#G c #6877b2",
"#O c #696fa3",
"aC c #696fa4",
"ac c #6a70a4",
"ay c #6b71a5",
"#X c #6c72a7",
"#u c #6c7ab6",
".e c #6d7296",
"#8 c #6d73a7",
"#D c #6e74a8",
"#1 c #6f75a8",
"ad c #6f75a9",
"ao c #7076a9",
".f c #71769a",
"#L c #7177aa",
"#W c #7177ab",
"#7 c #7278ab",
"ai c #7278ac",
"#q c #7379ac",
"aI c #7379ad",
"#E c #747aad",
"#A c #757bae",
"#K c #767caf",
"#6 c #767cb0",
"ah c #777db0",
"aB c #777db1",
"#c c #787eb1",
"#n c #797fb2",
"#P c #7a80b2",
"#z c #7a80b3",
"#V c #7b81b3",
"#5 c #7b81b4",
"as c #7c82b5",
".2 c #7e83b6",
"## c #7e84b6",
"#m c #7e84b7",
"#y c #7f84b7",
"#r c #7f85b7",
"#Q c #7f85b8",
".r c #8085ab",
"#4 c #8086b8",
"ar c #8086b9",
".Z c #8288ba",
".O c #8389bb",
"#d c #848abb",
"#s c #848abc",
"#F c #858bbc",
"ag c #858bbd",
".L c #868cbe",
"aA c #878baa",
".Y c #878dbe",
"#. c #878dbf",
".C c #888ebf",
".P c #888ec0",
".3 c #898fc0",
"#e c #898fc1",
"#t c #8a90c1",
".z c #8b91c2",
".X c #8b91c3",
".9 c #8c92c3",
".o c #8d93c4",
"#U c #8d93c5",
".D c #8e94c5",
".4 c #8f95c5",
".y c #8f95c6",
".K c #9096c7",
"aq c #9197c4",
"#l c #9197c8",
"#J c #9298c8",
"#T c #9298c9",
".p c #9399c9",
".E c #9399ca",
"aj c #9499c2",
".Q c #949aca",
".x c #949acb",
".W c #959bcb",
".8 c #959bcc",
"#k c #969ccc",
"#I c #969ccd",
".q c #999fce",
".F c #999fcf",
".V c #999fd0",
".R c #9aa0cf",
".7 c #9aa0d0",
".w c #9ea4d1",
".U c #9ea4d4",
"#x c #a0a6d3",
".J c #a0a6d5",
"#a c #a1a6cd",
".6 c #a1a7d5",
".t c #a2a5bc",
"ak c #abb0d2",
".v c #b2b7dc",
"#j c #b2b7dd",
"#b c #b3b7d9",
".l c #b9bddf",
"#3 c #babedf",
".k c #babfe0",
".i c #bbbfd9",
"#S c #bbbfe0",
".I c #c0c4e4",
".T c #c0c5e4",
"#H c #c2c6e4",
".u c #c5c9e6",
".j c #c8cce8",
"Qt.#.#QtQtQtQtQtQt.#.#QtQtQtQtQtQtQtQtQtQtQtQtQtQtQtQtQtQtQtQtQt",
".#.#.#.#QtQtQtQt.#.#.#.#QtQtQtQtQtQtQtQtQtQtQtQtQtQtQtQtQtQtQtQt",
".#.#.#.#.#.#.#.#.#.#.#.#QtQtQtQtQtQtQtQtQtQtQtQtQtQtQtQtQtQtQtQt",
"Qt.#.#.#.#.#.#.#.#.#.#QtQtQtQtQtQtQtQtQtQtQtQtQtQtQtQtQtQtQtQtQt",
"QtQt.#.#.#.#.#.#.#.#.#QtQtQtQtQtQtQtQtQtQtQtQtQtQtQtQtQtQtQtQtQt",
"QtQtQt.#.#.#.#.#.#.#QtQtQtQtQtQtQtQtQtQtQtQtQtQtQtQtQtQtQtQtQtQt",
"QtQt.#.#.#.#.#.#.#QtQtQtQtQtQtQtQtQtQtQtQtQtQtQtQtQtQtQtQtQtQtQt",
"QtQt.#.#.#.#.#.#.#.#QtQtQtQtQtQtQtQtQtQtQtQtQtQtQtQtQtQtQtQtQtQt",
"Qt.#.#.#.#.#.#.#.#.#.#QtQtQtQtQtQtQtQt.a.a.aQtQtQtQtQtQtQtQtQtQt",
".#.#.#.#.#.#.#.#.#.#.#.a.a.b.c.c.c.c.b.d.e.f.g.hQtQtQtQtQtQtQtQt",
"Qt.#.#.#.#.#QtQt.#.#.a.c.i.j.j.j.k.l.m.n.o.p.q.r.hQtQtQtQtQtQtQt",
"QtQt.#QtQtQtQtQtQt.s.t.j.u.v.w.x.y.z.A.B.C.D.E.F.G.aQtQtQtQtQtQt",
"QtQtQtQtQtQtQtQt.H.t.j.I.J.F.x.K.z.L.M.N.O.P.D.Q.R.SQtQtQtQtQtQt",
"QtQtQtQtQtQtQtQt.c.j.T.U.V.W.K.X.Y.Z.0.1.2.O.3.4.x.5QtQtQtQtQtQt",
"Qt.a.a.a.a.a.a.s.i.u.6.7.8.K.9#..Z###a#b#c###d#e.y#f#g#g#g#g.aQt",
".a#h#h#h#h#h#h#i.j#j.7#k#l.9#..O#m#n#o#p#q#n#r#s#t#u#v#v#v#v.aQt",
".a#v#v#v#v#v#v#w.j#x#k#l.o.P.O#y#z#A#B#C#D#E#n#r#F#G#v#v#v#v.aQt",
".a#v#v#v#v#v#v#w#H#I#J.o.P#s#r#z#K#L#M#N#O#D#E#P#Q#R#v#v#v#v.aQt",
".a#v#v#v#v#v#v#w#S#T#U.3#s#Q#V#K#W#X#Y#Z#0#O#1#A#z#2#v#v#v#v.aQt",
".a#h#h#h#h#h#h#i#3.D#e#s#4#5#6#7#8#9a.a#aaabacad#Aaeafafafaf.aQt",
"Qt.a.a.a.a.a.a.s.i#eag#4#5ahai#8#Oabajakalamanacaoap.aQtQtQtQtQt",
"QtQtQtQtQtQtQtQt.caqarasahai#D#OabatauavawaxamanayazQtQtQtQtQtQt",
"QtQtQtQtQtQtQtQt.aaAasaB#q#DaCanataDaEavawawaFataG.aQtQtQtQtQtQt",
"QtQtQtQtQtQtQtQtQt.saHaI#DacaJaKaLaMaNavawawaOaPaQQtQtQtQtQtQtQt",
"QtQtQtQtQtQtQtQtQtQt.aaRaSaTaUaVaWawaNavawawaXaY.aQtQtQtQtQtQtQt",
"QtQtQtQtQtQtQtQtQtQtQtQt.aaZa0aEaNaNava1avav.aQtQtQtQtQtQtQtQtQt",
"QtQtQtQtQtQtQtQtQtQtQtQtQtQtQtQtQtQtQtQtQtQtQtQtQtQtQtQtQtQtQtQt",
"QtQtQtQtQtQtQtQtQtQtQtQtQtQtQtQtQtQtQtQtQtQtQtQtQtQtQtQtQtQtQtQt",
"QtQtQtQtQtQtQtQtQtQtQtQtQtQtQtQtQtQtQtQtQtQtQtQtQtQtQtQtQtQtQtQt",
"QtQtQtQtQtQtQtQtQtQtQtQtQtQtQtQtQtQtQtQtQtQtQtQtQtQtQtQtQtQtQtQt",
"QtQtQtQtQtQtQtQtQtQtQtQtQtQtQtQtQtQtQtQtQtQtQtQtQtQtQtQtQtQtQtQt",
"QtQtQtQtQtQtQtQtQtQtQtQtQtQtQtQtQtQtQtQtQtQtQtQtQtQtQtQtQtQtQtQt"};
