/* XPM */
static char *low[]={
"32 32 52 1",
"c c None",
". c None",
"# c #000000",
"X c #03060c",
"U c #050b12",
"y c #05151e",
"W c #060f19",
"q c #06141d",
"u c #06141f",
"l c #071620",
"H c #0b293e",
"g c #0d324c",
"z c #0d3652",
"E c #0e5775",
"M c #0e8fb6",
"B c #0e94b9",
"v c #0e97bf",
"R c #0e9ec3",
"r c #0eadcb",
"S c #0fa0c4",
"Q c #106589",
"V c #10698f",
"F c #114560",
"d c #124d6f",
"D c #1299bb",
"G c #144059",
"T c #14a5c9",
"N c #15c1da",
"f c #18425f",
"C c #1bbad1",
"P c #1ca2c3",
"x c #1f95b2",
"e c #254a64",
"t c #2695b1",
"p c #2b91ae",
"I c #337f9e",
"s c #40d1db",
"w c #46dbe6",
"O c #48dfe9",
"L c #54bdd7",
"n c #5fc0d8",
"k c #64a3bd",
"o c #8fcce2",
"h c #a0cbdf",
"K c #a7dcec",
"A c #bfdfee",
"j c #d3e5f0",
"J c #dfeff8",
"m c #e0f1fb",
"i c #eff3fc",
"a c #ff0000",
"b c #ffffff",
"...............#................",
"...............#................",
"...............#................",
"............aaabaaa.............",
"..........aabbbabbbaa...........",
"........aabbbbbabbbbbaa.........",
".......aabbbbbbabbbbbbaa........",
"......aabbbbbaabaabbbbbaa.......",
".....aabbbbaaaabaaaabbbbaa......",
".....abbbbaaaaabaaaaabbbba......",
"....abbbbaaaabbabbaaaabbbba.....",
"....abbbaaaabbbabbbaaaabbba.....",
"...abbbbaaabbbababbbaaabbbba....",
"...abbbaaabbbaabaabbbaaabbba....",
"...abbbaaabbaaabaaabbaaabbba....",
"###baaabbbaabbbabbbaabbbaaab###.",
"...abbbaaabbaaabaaabbaaabbba....",
"...abbbaaabbbaabaabbbaaabbba....",
"...abbbbaaabbbababbbaaabbbba....",
"ccccdddefgaabbbabbbaaaabbba.....",
"ccccdhijklaaabbabbaaaabbbba.....",
"ccccdmnopqaaaaabaaaaabbbba......",
"ccccdirstubaaaabaaaabbbbaa......",
"ccccemvwxybbbaabaabbbbbaa.......",
"zddeeABCDEFGHbbabbbbbbaa........",
"czIJKLMvNOPQbbbabbbbbaa.........",
"cczIbRvSOPQabbbabbbaa...........",
"ccczIbTOPQccaaabaaa.............",
"cccczIJPQUccc..#................",
"ccccczVQWcccc..#................",
"cccccczXccccc..#................",
"cc##########c..................."};
