/* XPM */
static char *max[]={
"32 32 211 2",
"Qt c None",
".# c #000000",
"bi c #001d2a",
".w c #001f3e",
"aW c #00202e",
".n c #00203f",
".e c #002340",
"#. c #002545",
".2 c #002845",
"#4 c #0097bc",
".a c #012a46",
".v c #021621",
".m c #021720",
"#C c #03090e",
"bh c #030c12",
"aJ c #030d12",
"a6 c #03141d",
"aK c #03161d",
".1 c #031722",
"aV c #04121a",
".9 c #04151e",
".U c #041621",
"au c #041c28",
"ac c #041f2b",
"av c #050f14",
".M c #051621",
".E c #051721",
"bn c #051b27",
"a5 c #051d2b",
"ad c #05202c",
".d c #05202f",
"bm c #064b65",
"#g c #082c3f",
"aC c #099bc1",
"#Q c #0a9ec0",
"#L c #0aa1c3",
"aU c #0b4d69",
"#V c #0b506e",
"al c #0b92b9",
"am c #0b95bd",
"bo c #0c242f",
"#h c #0c3652",
"#i c #0c3753",
"at c #0c5775",
".b c #0c91b6",
"aD c #0c95be",
"#B c #0d3b59",
"#A c #0d3f5e",
"#w c #0d4564",
"bg c #0d5472",
"#v c #0d5d7f",
".J c #0d8bae",
"#5 c #0d8eb5",
"#d c #0d99be",
"bq c #0e516f",
"aI c #0e5c7d",
"#N c #0e8eb5",
"#6 c #0e91b9",
"#P c #0e95bd",
"aE c #0eaccd",
"#8 c #0eadce",
"#W c #0f2731",
"#n c #0f405f",
"#j c #0f4160",
"#z c #0f4363",
"#x c #0f4665",
".Y c #0f8caf",
"bf c #0f8fb5",
"#u c #0f93b8",
"ak c #0f9bc0",
"#s c #0f9bc1",
"#c c #0fa8c9",
"#M c #1091b8",
"#R c #10a1bf",
"an c #10a2c9",
"#y c #114463",
".6 c #11acca",
"#t c #11b4d2",
".0 c #126e94",
"#f c #127fa3",
".R c #1288aa",
"#O c #12b0cd",
"ab c #134b63",
".8 c #136f93",
"#7 c #13a6ca",
".u c #14688e",
".D c #14688f",
".T c #146a90",
"ba c #148aaf",
"#k c #154767",
".L c #15688e",
"aH c #158db2",
"as c #178eb2",
"#e c #17b4cf",
".B c #189abb",
"ao c #18b6d6",
"#l c #194968",
"#m c #1a4a68",
"aT c #1a92b8",
"#3 c #1aaccb",
".K c #1cb3c8",
"bp c #1d607b",
".c c #1d6c8f",
".l c #1d769c",
"#S c #1d94b5",
"#r c #1da4c7",
"a# c #1da7c9",
".C c #1eb6ce",
"bl c #2190b6",
"#D c #22617c",
"#U c #227498",
".7 c #22b6ce",
"ap c #22cce0",
"aa c #2386ab",
"b# c #25bbd3",
"aw c #28718f",
"#9 c #2acee1",
"aG c #2bb8d2",
".S c #2db9cb",
"a. c #2dcbe0",
"aj c #2eafce",
"#X c #2f6378",
"aB c #2fb0ce",
".Z c #2fbed2",
"#T c #307e9d",
"a4 c #31c0d7",
"bb c #336d86",
".A c #35b3cf",
"ae c #367088",
"ar c #36c3d8",
".X c #37b8d1",
"aX c #38697d",
"aP c #38b5d1",
"be c #38b9d4",
"aS c #39d8e6",
"aL c #3a6a7e",
"#K c #3bbcd5",
"aq c #3dd9e7",
"bj c #416b7d",
"#q c #42b1d0",
".I c #43b5cf",
"aR c #43cee0",
"aQ c #45b3d0",
"#b c #45b6d3",
"aF c #48dfe9",
"a3 c #49d5e4",
".Q c #4eb8d0",
".5 c #52bfd8",
"b. c #53e0ea",
"#E c #549bbb",
"a2 c #5fd3e3",
".s c #67bfd7",
".r c #6db9d3",
"#2 c #6ec8dd",
"ai c #6fcade",
"#Y c #72b6d4",
"a1 c #78cde0",
".t c #7acde2",
"aA c #7acee1",
"#F c #7db0c9",
".q c #7ec1d5",
"#p c #7ec9e0",
"aO c #80cee0",
"bk c #82bfd8",
".z c #83cfe0",
".W c #83d2e4",
"#H c #84b3c8",
"#G c #84b5ca",
"#1 c #95cade",
"#I c #96c0d3",
".H c #98d8e6",
"#a c #9cd3e7",
".P c #9dd9e8",
"bc c #9fcce1",
"aM c #a2cfe2",
"#J c #acd9e8",
".p c #acdbe7",
"ah c #b0d9e6",
"af c #b2d2e1",
".4 c #b3deee",
"a9 c #b5e0ec",
"ax c #b7d5e2",
"aY c #b7d5e3",
"#o c #bbdeed",
".f c #bcdfee",
".h c #bddfec",
".g c #bde3f0",
"#0 c #bfddeb",
".i c #c4e1ef",
"a7 c #c5dae3",
".j c #c5e9f6",
"#Z c #ceeaf6",
"ag c #cfe3ef",
"a0 c #d0ecf3",
".k c #d2f0fc",
".V c #d4ecf6",
".y c #d6eef5",
"aN c #d8eff5",
"az c #d9ecf2",
"bd c #d9f2fb",
".o c #e4f3fb",
".O c #e5f4fb",
"## c #e6f1f9",
".G c #e7f5fb",
"a8 c #f2f6fb",
"aZ c #f9fafd",
".x c #fdfcff",
".N c #fffcff",
".F c #fffdff",
".3 c #fffeff",
"ay c #ffffff",
"QtQtQtQtQtQtQtQtQtQtQtQtQtQtQtQtQtQtQtQtQtQtQtQtQtQtQtQtQtQtQtQt",
"QtQtQtQtQtQtQtQtQtQtQtQtQtQtQtQtQtQtQtQtQtQtQtQtQtQtQtQtQtQtQtQt",
"QtQtQtQtQtQtQtQtQtQtQtQtQtQtQtQtQtQtQtQtQtQtQtQtQtQtQtQtQtQtQtQt",
"QtQtQtQtQtQtQtQtQtQtQtQtQtQtQtQtQtQtQtQtQtQtQtQtQtQtQtQtQtQtQtQt",
"QtQtQtQtQtQtQtQtQtQtQtQtQtQtQtQtQtQtQtQtQtQtQtQtQtQtQtQtQtQtQtQt",
"QtQtQtQtQtQtQtQtQtQtQt.#.#.#.#.#.#.#.#.#.#QtQtQtQtQtQtQtQtQtQtQt",
"QtQtQtQtQtQtQtQtQtQtQt.a.b.b.b.b.b.b.b.c.dQtQtQtQtQtQtQtQtQtQtQt",
"QtQtQtQtQtQtQtQtQtQtQt.e.b.f.g.h.i.j.k.l.mQtQtQtQtQtQtQtQtQtQtQt",
"QtQtQtQtQtQtQtQtQtQtQt.n.b.o.p.q.r.s.t.u.vQtQtQtQtQtQtQtQtQtQtQt",
"QtQtQtQtQtQtQtQtQtQtQt.w.b.x.y.z.A.B.C.D.EQtQtQtQtQtQtQtQtQtQtQt",
"QtQtQtQtQtQtQtQtQtQtQt.w.b.F.G.H.I.J.K.L.MQtQtQtQtQtQtQtQtQtQtQt",
"QtQtQtQtQtQtQtQtQtQtQt.w.b.N.O.P.Q.R.S.T.UQtQtQtQtQtQtQtQtQtQtQt",
"QtQtQtQtQtQtQtQtQtQtQt.w.b.N.V.W.X.Y.Z.0.1QtQtQtQtQtQtQtQtQtQtQt",
"QtQtQtQtQtQtQtQtQtQtQt.2.b.3.4.5.6.b.7.8.9QtQtQtQtQtQtQtQtQtQtQt",
"QtQtQtQtQtQtQtQtQtQtQt#..b###a#b#c#d#e#f#gQtQtQtQtQtQtQtQtQtQtQt",
"QtQtQtQt#h#i#j#k#l#m#m#n.b#o#p#q#r#s#t#u#v#w#x#y#z#A#i#BQtQtQtQt",
"QtQtQtQtQt#C#D#E#F#G#H#H#I#J#K#L#M#N#O#P#Q#R#S#T#U#V#CQtQtQtQtQt",
"QtQtQtQtQtQt#W#X#Y#Z#0#1#2#3#4#4#5#6#7#8#9a.a#aaabacQtQtQtQtQtQt",
"QtQtQtQtQtQtQtadaeafagahaiajakalamanaoapaqarasatauQtQtQtQtQtQtQt",
"QtQtQtQtQtQtQtQtavawaxayazaAaBaCaDaEapaFaGaHaIaJQtQtQtQtQtQtQtQt",
"QtQtQtQtQtQtQtQtQtaKaLaMayaNaOaPaQaRaSaGaTaUaVQtQtQtQtQtQtQtQtQt",
"QtQtQtQtQtQtQtQtQtQtaWaXaYaZa0a1a2a3a4aHaUa5QtQtQtQtQtQtQtQtQtQt",
"QtQtQtQtQtQtQtQtQtQtQta6awa7a8a9b.b#baaIaVQtQtQtQtQtQtQtQtQtQtQt",
"QtQtQtQtQtQtQtQtQtQtQtQtavbbbcbdbebfbgbhQtQtQtQtQtQtQtQtQtQtQtQt",
"QtQtQtQtQtQtQtQtQtQtQtQtQtbibjbkblbmbnQtQtQtQtQtQtQtQtQtQtQtQtQt",
"QtQtQtQtQtQtQtQtQtQtQtQtQtQtbobpbqauQtQtQtQtQtQtQtQtQtQtQtQtQtQt",
"QtQtQtQtQtQtQt.#.#.#.#.#.#.#.##C#C.#.#.#.#.#.#.#.#QtQtQtQtQtQtQt",
"QtQtQtQtQtQtQt.#.#.#.#.#.#.#.#.#.#.#.#.#.#.#.#.#.#QtQtQtQtQtQtQt",
"QtQtQtQtQtQtQtQtQtQtQtQtQtQtQtQtQtQtQtQtQtQtQtQtQtQtQtQtQtQtQtQt",
"QtQtQtQtQtQtQtQtQtQtQtQtQtQtQtQtQtQtQtQtQtQtQtQtQtQtQtQtQtQtQtQt",
"QtQtQtQtQtQtQtQtQtQtQtQtQtQtQtQtQtQtQtQtQtQtQtQtQtQtQtQtQtQtQtQt",
"QtQtQtQtQtQtQtQtQtQtQtQtQtQtQtQtQtQtQtQtQtQtQtQtQtQtQtQtQtQtQtQt"};
