/* XPM */
static char *max_otf[]={
"32 32 212 2",
"Qt c None",
".a c #000000",
"bj c #001d2a",
".x c #001f3e",
"aX c #00202e",
".o c #00203f",
".f c #002340",
"## c #002545",
".3 c #002845",
"#5 c #0097bc",
".b c #012a46",
".w c #021621",
".n c #021720",
"#D c #03090e",
"bi c #030c12",
"aK c #030d12",
"a7 c #03141d",
"aL c #03161d",
".2 c #031722",
"aW c #04121a",
"#. c #04151e",
".V c #041621",
"av c #041c28",
"ad c #041f2b",
"aw c #050f14",
".N c #051621",
".F c #051721",
"bo c #051b27",
"a6 c #051d2b",
"ae c #05202c",
".e c #05202f",
"bn c #064b65",
"#h c #082c3f",
"aD c #099bc1",
"#R c #0a9ec0",
"#M c #0aa1c3",
"aV c #0b4d69",
"#W c #0b506e",
"am c #0b92b9",
"an c #0b95bd",
"bp c #0c242f",
"#i c #0c3652",
"#j c #0c3753",
"au c #0c5775",
".c c #0c91b6",
"aE c #0c95be",
"#C c #0d3b59",
"#B c #0d3f5e",
"#x c #0d4564",
"bh c #0d5472",
"#w c #0d5d7f",
".K c #0d8bae",
"#6 c #0d8eb5",
"#e c #0d99be",
"br c #0e516f",
"aJ c #0e5c7d",
"#O c #0e8eb5",
"#7 c #0e91b9",
"#Q c #0e95bd",
"aF c #0eaccd",
"#9 c #0eadce",
"#X c #0f2731",
"#o c #0f405f",
"#k c #0f4160",
"#A c #0f4363",
"#y c #0f4665",
".Z c #0f8caf",
"bg c #0f8fb5",
"#v c #0f93b8",
"al c #0f9bc0",
"#t c #0f9bc1",
"#d c #0fa8c9",
"#N c #1091b8",
"#S c #10a1bf",
"ao c #10a2c9",
"#z c #114463",
".7 c #11acca",
"#u c #11b4d2",
".1 c #126e94",
"#g c #127fa3",
".S c #1288aa",
"#P c #12b0cd",
"ac c #134b63",
".9 c #136f93",
"#8 c #13a6ca",
".v c #14688e",
".E c #14688f",
".U c #146a90",
"bb c #148aaf",
"#l c #154767",
".M c #15688e",
"aI c #158db2",
"at c #178eb2",
"#f c #17b4cf",
".C c #189abb",
"ap c #18b6d6",
"#m c #194968",
"#n c #1a4a68",
"aU c #1a92b8",
"#4 c #1aaccb",
".L c #1cb3c8",
"bq c #1d607b",
".d c #1d6c8f",
".m c #1d769c",
"#T c #1d94b5",
"#s c #1da4c7",
"aa c #1da7c9",
".D c #1eb6ce",
"bm c #2190b6",
"#E c #22617c",
"#V c #227498",
".8 c #22b6ce",
"aq c #22cce0",
"ab c #2386ab",
"ba c #25bbd3",
"ax c #28718f",
"a. c #2acee1",
"aH c #2bb8d2",
".T c #2db9cb",
"a# c #2dcbe0",
"ak c #2eafce",
"#Y c #2f6378",
"aC c #2fb0ce",
".0 c #2fbed2",
"#U c #307e9d",
"a5 c #31c0d7",
"bc c #336d86",
".B c #35b3cf",
"af c #367088",
"as c #36c3d8",
".Y c #37b8d1",
"aY c #38697d",
"aQ c #38b5d1",
"bf c #38b9d4",
"aT c #39d8e6",
"aM c #3a6a7e",
"#L c #3bbcd5",
"ar c #3dd9e7",
"bk c #416b7d",
"#r c #42b1d0",
".J c #43b5cf",
"aS c #43cee0",
"aR c #45b3d0",
"#c c #45b6d3",
"aG c #48dfe9",
"a4 c #49d5e4",
".R c #4eb8d0",
".6 c #52bfd8",
"b# c #53e0ea",
"#F c #549bbb",
"a3 c #5fd3e3",
".t c #67bfd7",
".s c #6db9d3",
"#3 c #6ec8dd",
"aj c #6fcade",
"#Z c #72b6d4",
"a2 c #78cde0",
".u c #7acde2",
"aB c #7acee1",
"#G c #7db0c9",
".r c #7ec1d5",
"#q c #7ec9e0",
".# c #800000",
"aP c #80cee0",
"bl c #82bfd8",
".A c #83cfe0",
".X c #83d2e4",
"#I c #84b3c8",
"#H c #84b5ca",
"#2 c #95cade",
"#J c #96c0d3",
".I c #98d8e6",
"#b c #9cd3e7",
".Q c #9dd9e8",
"bd c #9fcce1",
"aN c #a2cfe2",
"#K c #acd9e8",
".q c #acdbe7",
"ai c #b0d9e6",
"ag c #b2d2e1",
".5 c #b3deee",
"b. c #b5e0ec",
"ay c #b7d5e2",
"aZ c #b7d5e3",
"#p c #bbdeed",
".g c #bcdfee",
".i c #bddfec",
".h c #bde3f0",
"#1 c #bfddeb",
".j c #c4e1ef",
"a8 c #c5dae3",
".k c #c5e9f6",
"#0 c #ceeaf6",
"ah c #cfe3ef",
"a1 c #d0ecf3",
".l c #d2f0fc",
".W c #d4ecf6",
".z c #d6eef5",
"aO c #d8eff5",
"aA c #d9ecf2",
"be c #d9f2fb",
".p c #e4f3fb",
".P c #e5f4fb",
"#a c #e6f1f9",
".H c #e7f5fb",
"a9 c #f2f6fb",
"a0 c #f9fafd",
".y c #fdfcff",
".O c #fffcff",
".G c #fffdff",
".4 c #fffeff",
"az c #ffffff",
"QtQt.#QtQtQtQtQtQtQtQt.#QtQtQtQtQtQtQtQt.#QtQtQtQtQtQtQtQt.#QtQt",
"QtQt.#QtQtQtQtQtQtQtQt.#QtQtQtQtQtQtQtQt.#QtQtQtQtQtQtQtQt.#QtQt",
".#.#.#.#.#.#.#.#.#.#.#.#.#.#.#.#.#.#.#.#.#.#.#.#.#.#.#.#.#.#.#.#",
"QtQt.#QtQtQtQtQtQtQtQt.#QtQtQtQtQtQtQtQt.#QtQtQtQtQtQtQtQt.#QtQt",
"QtQt.#QtQtQtQtQtQtQtQt.#QtQtQtQtQtQtQtQt.#QtQtQtQtQtQtQtQt.#QtQt",
"QtQt.#QtQtQtQtQtQtQtQt.a.a.a.a.a.a.a.a.a.aQtQtQtQtQtQtQtQt.#QtQt",
"QtQt.#QtQtQtQtQtQtQtQt.b.c.c.c.c.c.c.c.d.eQtQtQtQtQtQtQtQt.#QtQt",
"QtQt.#QtQtQtQtQtQtQtQt.f.c.g.h.i.j.k.l.m.nQtQtQtQtQtQtQtQt.#QtQt",
"QtQt.#QtQtQtQtQtQtQtQt.o.c.p.q.r.s.t.u.v.wQtQtQtQtQtQtQtQt.#QtQt",
"QtQt.#QtQtQtQtQtQtQtQt.x.c.y.z.A.B.C.D.E.FQtQtQtQtQtQtQtQt.#QtQt",
".#.#.#.#.#.#.#.#.#.#.#.x.c.G.H.I.J.K.L.M.N.#.#.#.#.#.#.#.#.#.#.#",
"QtQt.#QtQtQtQtQtQtQtQt.x.c.O.P.Q.R.S.T.U.VQtQtQtQtQtQtQtQt.#QtQt",
"QtQt.#QtQtQtQtQtQtQtQt.x.c.O.W.X.Y.Z.0.1.2QtQtQtQtQtQtQtQt.#QtQt",
"QtQt.#QtQtQtQtQtQtQtQt.3.c.4.5.6.7.c.8.9#.QtQtQtQtQtQtQtQt.#QtQt",
"QtQt.#QtQtQtQtQtQtQtQt##.c#a#b#c#d#e#f#g#hQtQtQtQtQtQtQtQt.#QtQt",
"QtQt.#Qt#i#j#k#l#m#n#n#o.c#p#q#r#s#t#u#v#w#x#y#z#A#B#j#CQt.#QtQt",
"QtQt.#QtQt#D#E#F#G#H#I#I#J#K#L#M#N#O#P#Q#R#S#T#U#V#W#DQtQt.#QtQt",
"QtQt.#QtQtQt#X#Y#Z#0#1#2#3#4#5#5#6#7#8#9a.a#aaabacadQtQtQt.#QtQt",
"QtQt.#QtQtQtQtaeafagahaiajakalamanaoapaqarasatauavQtQtQtQt.#QtQt",
"QtQt.#QtQtQtQtQtawaxayazaAaBaCaDaEaFaqaGaHaIaJaKQtQtQtQtQt.#QtQt",
".#.#.#.#.#.#.#.#.#aLaMaNazaOaPaQaRaSaTaHaUaVaW.#.#.#.#.#.#.#.#.#",
"QtQt.#QtQtQtQtQtQtQtaXaYaZa0a1a2a3a4a5aIaVa6QtQtQtQtQtQtQt.#QtQt",
"QtQt.#QtQtQtQtQtQtQtQta7axa8a9b.b#babbaJaWQtQtQtQtQtQtQtQt.#QtQt",
"QtQt.#QtQtQtQtQtQtQtQt.#awbcbdbebfbgbhbi.#QtQtQtQtQtQtQtQt.#QtQt",
"QtQt.#QtQtQtQtQtQtQtQt.#QtbjbkblbmbnboQt.#QtQtQtQtQtQtQtQt.#QtQt",
"QtQt.#QtQtQtQtQtQtQtQt.#QtQtbpbqbravQtQt.#QtQtQtQtQtQtQtQt.#QtQt",
"QtQt.#QtQtQtQt.a.a.a.a.a.a.a.a#D#D.a.a.a.a.a.a.a.aQtQtQtQt.#QtQt",
"QtQt.#QtQtQtQt.a.a.a.a.a.a.a.a.a.a.a.a.a.a.a.a.a.aQtQtQtQt.#QtQt",
"QtQt.#QtQtQtQtQtQtQtQt.#QtQtQtQtQtQtQtQt.#QtQtQtQtQtQtQtQt.#QtQt",
".#.#.#.#.#.#.#.#.#.#.#.#.#.#.#.#.#.#.#.#.#.#.#.#.#.#.#.#.#.#.#.#",
"QtQt.#QtQtQtQtQtQtQtQt.#QtQtQtQtQtQtQtQt.#QtQtQtQtQtQtQtQt.#QtQt",
"QtQt.#QtQtQtQtQtQtQtQt.#QtQtQtQtQtQtQtQt.#QtQtQtQtQtQtQtQt.#QtQt"};
