/* XPM */
static char *max_min_diff[]={
"32 32 472 2",
"Qt c None",
".j c #000000",
"ar c #009a00",
"aq c #009c00",
"ap c #009d00",
"eC c #030000",
"b3 c #070300",
"#5 c #089f06",
"#6 c #08a409",
"dj c #0a0300",
"#X c #0a0500",
"fv c #0b0800",
"#7 c #0ba50e",
"fo c #0c0800",
"eV c #0d0800",
"#8 c #0da30e",
".Z c #110505",
"#p c #120606",
"eD c #150a00",
".K c #160b05",
"ef c #181104",
"aL c #1a970a",
"bF c #1c0f05",
"dR c #1c1004",
"ag c #1d0d05",
"aC c #1e0f07",
".i c #1f0a0a",
"aB c #1f0f04",
"eU c #1f1002",
"bi c #1f1306",
"aW c #220f04",
"bh c #241206",
"#u c #24af38",
"ey c #271504",
"#o c #281309",
"eh c #281605",
"#L c #2bb02f",
"cp c #2d190c",
"e1 c #2d1d08",
"eK c #2f1f08",
"c2 c #301c09",
"#9 c #3368ff",
"eW c #341d03",
".0 c #341e0f",
"a. c #366eff",
"#z c #386eff",
"#M c #38b538",
"#P c #3a6fff",
"at c #3b68f7",
"#O c #3bb63e",
".w c #3d2010",
"#Q c #3d70ff",
"#x c #3e71ff",
"#N c #3eb73e",
"#y c #3f72ff",
"er c #442c0f",
"#R c #4471f7",
".L c #452e17",
"aO c #47a420",
"e2 c #482400",
"ah c #482c15",
"#K c #4aa728",
".h c #4c2713",
"cI c #4f3112",
"cH c #502e0e",
"ff c #503309",
"#E c #532a15",
"fu c #53360d",
"ex c #533610",
"#S c #5377e9",
"#b c #552b15",
".x c #55301c",
".M c #562f1b",
"fp c #56380b",
"fn c #56380f",
".g c #5b2f16",
"bG c #5b3d18",
"dA c #5c3811",
"#A c #5c81eb",
".J c #5d321a",
"#j c #5f87fb",
"aX c #623e1b",
"#g c #62b94d",
"#Y c #633c1e",
"eg c #634114",
".Y c #64361c",
"a# c #6486e1",
".R c #64ba54",
"#i c #658eff",
".k c #66391e",
".y c #683b21",
"#v c #68c96d",
".b c #69381e",
".# c #693d1a",
"e8 c #69440f",
".a c #6a3a1e",
"au c #6a87d7",
"#c c #6c4023",
".c c #6d3d21",
".l c #6f3d22",
"#w c #6fca6f",
".f c #703d1f",
"eQ c #704914",
".e c #724124",
".d c #724224",
"co c #724416",
".v c #73431f",
"#q c #734524",
".1 c #744226",
"#h c #76cb7a",
"#W c #794a27",
"#F c #7a4a25",
"as c #7e8fcd",
"aM c #81a934",
".m c #82502f",
"aK c #87b130",
".N c #8a582f",
"eJ c #8b5a19",
"e7 c #8b5e1c",
"#n c #8c5f3b",
"#f c #8cbd40",
"b2 c #8e5b27",
"#t c #8eb331",
"di c #915b1e",
"af c #91643a",
".z c #946539",
".u c #946a3f",
"ea c #956728",
"fq c #966216",
"eL c #996922",
".9 c #99b3ff",
"bE c #9a6833",
".I c #9c7144",
".V c #9cb3fe",
"aN c #9db343",
".n c #9e7444",
"aD c #a06a29",
"aA c #a17848",
".7 c #a2bbff",
"b4 c #a36924",
".6 c #a3dda8",
"bg c #a47742",
".8 c #a4bdff",
".5 c #a4c24f",
"eP c #a5701d",
"aV c #a67d4a",
".G c #a6b2da",
"e3 c #a96f21",
".H c #a9a094",
"dQ c #aa6d24",
"ee c #ac6e21",
"#a c #ad8c5f",
".Q c #add264",
"ft c #ae741c",
"ao c #aebc3f",
"c1 c #b07835",
".t c #b09362",
".F c #b0c0ea",
"bj c #b36a24",
".2 c #b38041",
".S c #b5c6ff",
".X c #b69761",
"fc c #b77e25",
"#. c #b8c2c7",
".o c #b9965a",
"eq c #bc7e23",
"eI c #bd812b",
".E c #bec7d2",
"es c #c0872e",
"fg c #c18224",
"ew c #c28027",
"fr c #c28425",
"ai c #c38030",
".A c #c49f54",
"#k c #c4c9b9",
"#D c #c5ab78",
".W c #c5cbbc",
"#T c #c6ccb7",
"cG c #c89b57",
"el c #c9852b",
"e# c #c98f38",
".B c #cac361",
"dz c #cb974b",
"aR c #cbc7a6",
"#d c #ce9a47",
"#4 c #cebe4b",
"e4 c #cf8e2b",
".U c #cfdcff",
"cq c #d08a25",
".s c #d0b670",
"fs c #d28f2a",
"eE c #d29432",
"eH c #d29b41",
".O c #d3a657",
"fa c #d48d24",
"aQ c #d6cda1",
".T c #d6e1ff",
"eG c #d79b3c",
".q c #d7bc79",
"#Z c #d8a13c",
".r c #d8c07b",
"aa c #d9d5a3",
"#J c #dac04d",
"e0 c #db9521",
"cn c #dbc07d",
"#r c #dca446",
"eb c #dda542",
"#G c #dea340",
"eX c #dea648",
"#B c #dfe3ba",
"f# c #e19621",
"eT c #e3a138",
"a6 c #e3be55",
"dh c #e3c87f",
"dn c #e5641a",
"aY c #e6a92f",
"bH c #e78422",
"fb c #e79e2d",
"bN c #e96229",
"c7 c #e9a632",
"ev c #e9b353",
"c. c #ea591f",
"cM c #eb4716",
"c9 c #eb9835",
"c# c #eba140",
"ek c #ebc268",
"dP c #ebcf82",
"b1 c #ebde9d",
"#V c #ebe2a4",
"bq c #ec4c24",
"aG c #ed9d42",
"ab c #ede9a9",
"cO c #ee8932",
"fm c #eeaa3d",
"cv c #eebc44",
"a4 c #ef6c2e",
"a5 c #efcc56",
"e9 c #f0b958",
"#e c #f0d059",
"fh c #f1b952",
".4 c #f1d764",
"cN c #f2230b",
"b9 c #f3260c",
"c8 c #f39530",
"eR c #f3af3d",
"b6 c #f47c1c",
"cu c #f51d0a",
"e. c #f5b036",
"#m c #f5f2b3",
"c6 c #f70301",
"ct c #f76519",
"dm c #f77c1c",
".D c #f8efa8",
"b7 c #f90e02",
"do c #f9b935",
"ak c #f9ba41",
"fl c #f9ce6f",
"c0 c #f9efa7",
"fk c #fae28e",
"aS c #faf1a6",
"bD c #faf5b4",
"a1 c #fb847a",
"aE c #fba331",
"aI c #fba53e",
"dF c #fbba2f",
"br c #fbd159",
"bO c #fbd259",
"fi c #fbd87e",
"eu c #fbdb7f",
"bl c #fc732a",
"a2 c #fc7563",
"aF c #fc7a73",
"fj c #fce490",
"av c #fcf2a2",
"ae c #fcfab8",
"bI c #fd1e12",
"a3 c #fd5656",
"cL c #fd721c",
"aH c #fdb33a",
"b5 c #fdb526",
"dE c #fdb628",
"cs c #fdc02c",
"a9 c #fdd471",
"ac c #fdfbb6",
"bm c #fe6969",
"a0 c #feb2b0",
"e5 c #fec145",
"dq c #fec243",
"aJ c #fec758",
"cw c #fecb4e",
".3 c #fecc65",
".C c #fee589",
"dy c #fef6aa",
"bf c #fefdbb",
"b8 c #ff0000",
"bM c #ff0b15",
"bJ c #ff181d",
"bL c #ff1d1e",
"bK c #ff1e1e",
"c5 c #ff5213",
"bp c #ff6972",
"bn c #ff7c80",
"aj c #ff8026",
"bo c #ff8084",
"bk c #ff9027",
"eO c #ffaa18",
"eA c #ffab1b",
"d6 c #ffac1c",
"en c #ffac1e",
"dT c #ffad1e",
"aZ c #ffad33",
"dC c #ffae1f",
"dk c #ffae20",
"dU c #ffae21",
"dD c #ffae22",
"eZ c #ffaf19",
"eo c #ffaf21",
"d7 c #ffaf24",
"c3 c #ffb020",
"dV c #ffb126",
"cJ c #ffb221",
"d8 c #ffb32a",
"cr c #ffb423",
"eB c #ffb526",
"ep c #ffb527",
"f. c #ffb52b",
"dW c #ffb52c",
"dl c #ffb625",
"dX c #ffb732",
"d9 c #ffb830",
"dG c #ffb834",
"dB c #ffb931",
"em c #ffba32",
"cK c #ffbb29",
"dY c #ffbc38",
"dH c #ffbc3a",
"c4 c #ffbd28",
"dS c #ffbd39",
"dI c #ffbf3f",
"e6 c #ffbf46",
"eY c #ffc144",
"dp c #ffc23d",
"dJ c #ffc246",
"dr c #ffc248",
"d5 c #ffc447",
"eN c #ffc448",
"dZ c #ffc44b",
"#1 c #ffc54c",
"ds c #ffc54e",
"d. c #ffc74b",
"d# c #ffc74f",
"cQ c #ffc751",
"al c #ffc84c",
"dK c #ffc851",
"#2 c #ffc852",
"cx c #ffc853",
"dt c #ffc954",
"d3 c #ffc955",
"da c #ffc956",
"#0 c #ffca48",
"eS c #ffca50",
"eF c #ffcb51",
"et c #ffcb52",
"d2 c #ffcb56",
"#I c #ffcb57",
"cy c #ffcb59",
"cP c #ffcc4d",
"am c #ffcc53",
"cb c #ffcc5a",
"#H c #ffcd50",
"ei c #ffcd55",
"ca c #ffcd56",
"db c #ffcd5c",
"bP c #ffce5d",
"cR c #ffce5e",
"cz c #ffce5f",
"fe c #ffce60",
"an c #ffcf5c",
"#3 c #ffcf5e",
"fd c #ffd05c",
"cc c #ffd060",
"dc c #ffd062",
"bQ c #ffd063",
"cS c #ffd064",
"a7 c #ffd068",
"d4 c #ffd163",
"cA c #ffd165",
"bs c #ffd261",
"dL c #ffd264",
"bt c #ffd265",
"du c #ffd267",
"cd c #ffd366",
"d0 c #ffd367",
"dd c #ffd368",
"ez c #ffd466",
"bR c #ffd468",
"cT c #ffd469",
"bu c #ffd46a",
"cB c #ffd46b",
"#s c #ffd65e",
"ce c #ffd66d",
"bS c #ffd76e",
"a8 c #ffd872",
"d1 c #ffd96d",
"bv c #ffd972",
"cf c #ffd973",
"bT c #ffd974",
".P c #ffda73",
"eM c #ffe086",
"dM c #ffe489",
"dv c #ffe58a",
"ec c #ffe58b",
"cg c #ffe68b",
"de c #ffe68c",
"bU c #ffe68d",
"cU c #ffe68e",
"cC c #ffe78f",
"dN c #ffe88f",
"dw c #ffe890",
"ch c #ffe992",
"bV c #ffea93",
"cV c #ffea94",
"aP c #ffeb91",
"bw c #ffeb94",
"cD c #ffeb95",
"ci c #ffeb97",
"ej c #ffec94",
"b. c #ffec96",
"bW c #ffed99",
"cW c #ffed9a",
"dO c #ffed9b",
"bx c #ffee9a",
"cE c #ffee9b",
"dx c #ffee9d",
"cj c #ffef9e",
"bX c #ffef9f",
"df c #fff09f",
"cX c #fff0a0",
"by c #fff1a1",
"ck c #fff2a3",
"ed c #fff39e",
"bY c #fff3a5",
"b# c #fff49b",
"cY c #fff4a6",
"bz c #fff4a7",
"bb c #fff5a9",
"cl c #fff5aa",
"ba c #fff6a1",
"bZ c #fff6ab",
"bA c #fff7ad",
"bc c #fff8ae",
"cm c #fff8af",
"b0 c #fff9b1",
"cZ c #fffaaf",
"aT c #fffab1",
"bB c #fffab3",
"bd c #fffbb4",
"aU c #fffcb7",
"cF c #fffdb7",
"dg c #fffeb2",
"ax c #fffeb9",
"az c #fffebc",
"aw c #ffffb3",
"bC c #ffffbb",
"be c #ffffbc",
"## c #ffffbd",
"ay c #ffffbe",
"#l c #ffffbf",
"ad c #ffffc0",
"#U c #ffffc1",
"#C c #ffffc6",
".p c #ffffff",
"QtQtQtQtQtQtQtQtQtQtQtQtQtQtQt.#.a.b.c.d.e.f.g.h.iQtQtQtQtQtQtQt",
"QtQtQtQtQtQtQtQtQtQtQtQt.j.k.l.m.n.o.p.q.r.s.t.u.v.w.jQtQtQtQtQt",
"QtQtQtQtQtQtQtQtQtQtQt.x.y.z.A.B.C.p.j.p.D.E.F.G.H.I.J.KQtQtQtQt",
"QtQtQtQtQtQtQtQtQt.L.M.N.O.P.Q.R.p.j.j.j.p.S.T.U.V.W.X.Y.ZQtQtQt",
"QtQtQtQtQtQtQtQt.0.1.2.3.4.5.6.p.j.j.j.j.j.p.7.8.9#.###a#b.jQtQt",
"QtQtQtQtQtQtQt.Z#c#d#e#f#g#h.p.j.j.j.j.j.j.j.p#i#j#k#l#m#n#oQtQt",
"QtQtQtQtQtQt#p#q#r#s#t#u#v#w#w.p.p.j.j.j.p.p#x#y#z#A#B#C#D#E.jQt",
"QtQtQtQtQt.i#F#G#H#I#J#K#L#M#N#O.p.j.j.j.p#P#y#Q#R#S#T#U#V#W#XQt",
"QtQtQtQt.j#Y#Z#0#1#2#3#4#5#6#7#8.p.j.j.j.p#9a.a#aaabacadaeafagQt",
"QtQtQtQtahaiajakalamanaoapaqaraq.p.j.j.j.pasatauavawaxayazaAaBQt",
"QtQtQtaCaDaEaFaGaHaIaJaKaLaMaNaO.p.j.j.j.paPaQaRaSaTaUayazaVaWQt",
"QtQtQtaXaYaZa0a1a2a3a4a5a6a7a8a9.p.j.j.j.pb.b#babbbcbdbebfbgbhQt",
"QtQtbibjbkblbmbnbobpbqbrbsbtbubv.p.j.j.j.pbwbxbybzbAbBbCbDbEbFQt",
"QtQtbGbHbIbJbKbKbLbMbNbObPbQbRbSbT.p.p.pbUbVbWbXbYbZb0##b1b2b3Qt",
"QtQtb4b5b6b7b8b8b9c.c#cacbcccdcecf.p.p.pcgchcicjckclcmaycnco.jQt",
"Qtcpcqcrcsctb8b8cucvcwcxcyczcAcB.p.j.j.j.pcCcDcEbybzbccFcGcH.jQt",
"QtcIcqcJcKcLb8cMcNcOcPcQ#IcRcScT.p.j.j.j.pcUcVcWcXcYcZc0c1c2QtQt",
"QtcIcqc3c4c5c6c7c8c9d.d#dadbdcdd.p.j.j.j.pdechbWdfcYdgdhdidjQtQt",
"QtcIcqdkdldmdndodpdqdrdsdtcbcbdu.p.j.j.j.pdvdwb.dxcYdydzdA.jQtQt",
"QtcIdBdCdDdEdFdGdHdIdJ#1dKcycbdL.p.j.j.j.pdMdNcDdOdOdPdQdRQtQtQt",
"QtcIdSdTdUdVdWdXdYdZd0d1d2d3cbd4.p.j.j.j.pdMdNcDdOcYdQdRQtQtQtQt",
"QtcId5d6dUd7d8d9e.e#eaebd2d3cb.p.p.j.j.j.p.pecbVeddPeeefQtQtQtQt",
"Qtegcqd6dUd7d8d9ea.j.jehebei.p.j.j.j.j.j.j.j.pejekeldR.jQtQtQtQt",
"Qtegcqemeneoepeqer.jQt.jesetcb.p.j.j.j.j.j.peuevewexdRQtQtQtQtQt",
"QteycqezeAdkeBeqeCQtQteDeEeFcbeG.p.j.j.j.peHeIeJeK.jQtQtQtQtQtQt",
"Qt.jeLeMeNeOdleP.jQtQteQeReSeTdR.j.p.j.pdjeUeV.j.jQtQtQtQtQtQtQt",
"QtQteWeXb.eYeZe0e1e2e3e4e5e6e7dRQtQt.pQtQtQtQtQtQtQtQtQtQtQtQtQt",
"QtQt.je8e9cXezf.f#fafbfbe5fce7dRQtQtQtQtQtQtQtQtQtQtQtQtQtQtQtQt",
"QtQtQteWe8e9cXfdfdfdfdfdfefc.jdRQtQtQtQtQtQtQtQtQtQtQtQtQtQtQtQt",
"QtQtQtQt.jfffgfhfifjfkflfmfn.jQtQtQtQtQtQtQtQtQtQtQtQtQtQtQtQtQt",
"QtQtQtQtQtQtfofpfqfrfsftfu.jQtQtQtQtQtQtQtQtQtQtQtQtQtQtQtQtQtQt",
"QtQtQtQtQtQtQt.j.jb3fv.j.jQtQtQtQtQtQtQtQtQtQtQtQtQtQtQtQtQtQtQt"};
