/* XPM */
static char *max_avg_diff[]={
"32 32 474 2",
"Qt c None",
".j c #000000",
"af c #009a00",
"ae c #009c00",
"ad c #009d00",
"ey c #030000",
"bP c #070300",
"#1 c #089f06",
"c4 c #0a0300",
"#T c #0a0500",
"fx c #0b0800",
"fq c #0c0800",
"eW c #0d0800",
".7 c #110505",
"#B c #120606",
"ez c #150a00",
".N c #160b05",
"dZ c #181104",
"aD c #18980b",
"az c #1a970a",
"bt c #1c0f05",
"dv c #1c1004",
"#6 c #1d0d05",
"aq c #1e0f07",
".i c #1f0a0a",
"ap c #1f0f04",
"eV c #1f1002",
"a8 c #1f1306",
"aK c #220f04",
"a7 c #241206",
"#G c #24af38",
"ag c #26a213",
"eu c #271504",
"#A c #281309",
"d1 c #281605",
"c# c #2d190c",
"e3 c #2d1d08",
"eL c #2f1f08",
"cM c #301c09",
"eX c #341d03",
".8 c #341e0f",
"ah c #3b68f7",
".w c #3d2010",
"eg c #442c0f",
".O c #452e17",
"eE c #472c0b",
"aC c #47a420",
"e4 c #482400",
"#7 c #482c15",
"#P c #4aa728",
".h c #4c2713",
"cs c #4f3112",
"cr c #502e0e",
"fh c #503309",
"#J c #532a15",
"fw c #53360d",
"et c #533610",
"#q c #552b15",
".x c #55301c",
".P c #562f1b",
"fr c #56380b",
"fp c #56380f",
"eF c #563912",
".g c #5b2f16",
"bu c #5b3d18",
"dg c #5c3811",
".M c #5d321a",
"aL c #623e1b",
"#v c #62b94d",
"#U c #633c1e",
"d0 c #634114",
".6 c #64361c",
".U c #64ba54",
".k c #66391e",
".y c #683b21",
".b c #69381e",
".# c #693d1a",
"f. c #69440f",
".a c #6a3a1e",
"ai c #6a87d7",
"#r c #6c4023",
".c c #6d3d21",
".l c #6f3d22",
".f c #703d1f",
"eR c #704914",
".e c #724124",
".d c #724224",
"c. c #724416",
".v c #73431f",
"#C c #734524",
".9 c #744226",
"eD c #774d16",
"#S c #794a27",
"#K c #7a4a25",
"aA c #81a934",
".m c #82502f",
"#i c #85a1ff",
"ay c #87b130",
".Q c #8a582f",
"eK c #8b5a19",
"e9 c #8b5e1c",
"#z c #8c5f3b",
"eG c #8c6629",
"#u c #8cbd40",
"bO c #8e5b27",
"#F c #8eb331",
"c3 c #915b1e",
"#5 c #91643a",
".z c #946539",
".u c #946a3f",
"dR c #956728",
"fs c #966216",
".Z c #96a6e4",
"eM c #996922",
"#m c #99b3ff",
"bs c #9a6833",
".L c #9c7144",
".3 c #9cb3fe",
"aB c #9db343",
".n c #9e7444",
"ar c #a06a29",
"ao c #a17848",
"#k c #a2bbff",
"bQ c #a36924",
"#c c #a3dda8",
"a6 c #a47742",
"#l c #a4bdff",
"#b c #a4c24f",
"eQ c #a5701d",
"aJ c #a67d4a",
".J c #a6b2da",
"#j c #a7c0ff",
"e5 c #a96f21",
".K c #a9a094",
"du c #aa6d24",
"dY c #ac6e21",
"#p c #ad8c5f",
".T c #add264",
"fv c #ae741c",
"ac c #aebc3f",
"cL c #b07835",
".t c #b09362",
".I c #b0c0ea",
"a9 c #b36a24",
"#. c #b38041",
".0 c #b5c6ff",
".5 c #b69761",
"fe c #b77e25",
"#d c #b7d6a3",
"#n c #b8c2c7",
".o c #b9965a",
"ef c #bc7e23",
"eJ c #bd812b",
".H c #bec7d2",
"eh c #c0872e",
"fi c #c18224",
"es c #c28027",
"ft c #c28425",
"#8 c #c38030",
".A c #c49f54",
"eH c #c59645",
"#I c #c5ab78",
".4 c #c5cbbc",
"cq c #c89b57",
"ea c #c9852b",
"dQ c #c98f38",
".B c #cac361",
"df c #cb974b",
"aF c #cbc7a6",
".p c #ccad6c",
"#s c #ce9a47",
"#0 c #cebe4b",
"e6 c #cf8e2b",
".2 c #cfdcff",
"ca c #d08a25",
".s c #d0b670",
"fu c #d28f2a",
"eA c #d29432",
"eI c #d29b41",
".R c #d3a657",
"fc c #d48d24",
"aE c #d6cda1",
".1 c #d6e1ff",
"eC c #d79b3c",
".q c #d7bc79",
"#V c #d8a13c",
".r c #d8c07b",
"#O c #dac04d",
"e2 c #db9521",
"b9 c #dbc07d",
"#h c #dbd0a5",
"#D c #dca446",
"dS c #dda542",
"#L c #dea340",
"eY c #dea648",
"fb c #e19621",
"#e c #e2cd6c",
"eU c #e3a138",
"aU c #e3be55",
"c2 c #e3c87f",
"c8 c #e5641a",
"aY c #e5ca6c",
"aM c #e6a92f",
".V c #e6d277",
"bv c #e78422",
"fd c #e79e2d",
"bB c #e96229",
"cR c #e9a632",
"er c #e9b353",
"bW c #ea591f",
"cw c #eb4716",
"cT c #eb9835",
"bX c #eba140",
"e# c #ebc268",
"dt c #ebcf82",
"bN c #ebde9d",
"#R c #ebe2a4",
"be c #ec4c24",
"au c #ed9d42",
"el c #edc063",
"cy c #ee8932",
"fo c #eeaa3d",
"cf c #eebc44",
"aS c #ef6c2e",
"aT c #efcc56",
"f# c #f0b958",
"#t c #f0d059",
"fj c #f1b952",
"#a c #f1d764",
".Y c #f1e39c",
"cx c #f2230b",
"bV c #f3260c",
"cS c #f39530",
"eS c #f3af3d",
"bS c #f47c1c",
"ek c #f4c666",
"ce c #f51d0a",
"dP c #f5b036",
"#y c #f5f2b3",
"#f c #f6e385",
"cQ c #f70301",
"cd c #f76519",
"c7 c #f77c1c",
".G c #f8efa8",
"bT c #f90e02",
"c9 c #f9b935",
"a. c #f9ba41",
"fn c #f9ce6f",
"cK c #f9efa7",
"fm c #fae28e",
"aG c #faf1a6",
"br c #faf5b4",
"aP c #fb847a",
"as c #fba331",
"aw c #fba53e",
"dl c #fbba2f",
"bf c #fbd159",
"bC c #fbd259",
"fk c #fbd87e",
"eq c #fbdb7f",
"b# c #fc732a",
"aQ c #fc7563",
"at c #fc7a73",
"em c #fcd475",
"fl c #fce490",
"aj c #fcf2a2",
"#4 c #fcfab8",
"bw c #fd1e12",
"aR c #fd5656",
"cv c #fd721c",
"av c #fdb33a",
"bR c #fdb526",
"dk c #fdb628",
"cc c #fdc02c",
"aX c #fdd471",
"#2 c #fdfbb6",
"ba c #fe6969",
"aO c #feb2b0",
"e7 c #fec145",
"d# c #fec243",
"ax c #fec758",
"cg c #fecb4e",
"## c #fecc65",
"ej c #fed064",
".C c #fee589",
"#g c #feec8d",
"de c #fef6aa",
"a5 c #fefdbb",
"bU c #ff0000",
"bA c #ff0b15",
"bx c #ff181d",
"bz c #ff1d1e",
"by c #ff1e1e",
"cP c #ff5213",
"bd c #ff6972",
"bb c #ff7c80",
"#9 c #ff8026",
"bc c #ff8084",
"b. c #ff9027",
"eP c #ffaa18",
"ew c #ffab1b",
"dL c #ffac1c",
"ec c #ffac1e",
"dx c #ffad1e",
"aN c #ffad33",
"di c #ffae1f",
"c5 c #ffae20",
"dy c #ffae21",
"dj c #ffae22",
"e1 c #ffaf19",
"ed c #ffaf21",
"dM c #ffaf24",
"cN c #ffb020",
"dz c #ffb126",
"ct c #ffb221",
"dN c #ffb32a",
"cb c #ffb423",
"ex c #ffb526",
"ee c #ffb527",
"fa c #ffb52b",
"dA c #ffb52c",
"c6 c #ffb625",
"dB c #ffb732",
"dO c #ffb830",
"dm c #ffb834",
"dh c #ffb931",
"eb c #ffba32",
"cu c #ffbb29",
"dC c #ffbc38",
"dn c #ffbc3a",
"cO c #ffbd28",
"dw c #ffbd39",
"do c #ffbf3f",
"e8 c #ffbf46",
"e0 c #ffc144",
"d. c #ffc23d",
"dp c #ffc246",
"da c #ffc248",
"dK c #ffc447",
"eO c #ffc448",
"dD c #ffc44b",
"#X c #ffc54c",
"db c #ffc54e",
"cU c #ffc74b",
"cV c #ffc74f",
"cA c #ffc751",
"a# c #ffc84c",
"dq c #ffc851",
"#Y c #ffc852",
"ch c #ffc853",
"dc c #ffc954",
"dH c #ffc955",
"cW c #ffc956",
"#W c #ffca48",
"eT c #ffca50",
"eB c #ffcb51",
"ei c #ffcb52",
"dG c #ffcb56",
"#N c #ffcb57",
"ci c #ffcb59",
"cz c #ffcc4d",
"aa c #ffcc53",
"bZ c #ffcc5a",
"#M c #ffcd50",
"d2 c #ffcd55",
"bY c #ffcd56",
"cX c #ffcd5c",
"bD c #ffce5d",
"cB c #ffce5e",
"cj c #ffce5f",
"fg c #ffce60",
"ab c #ffcf5c",
"#Z c #ffcf5e",
"d3 c #ffcf5f",
"ff c #ffd05c",
"b0 c #ffd060",
"cY c #ffd062",
"bE c #ffd063",
"cC c #ffd064",
"aV c #ffd068",
"dI c #ffd163",
"ck c #ffd165",
"bg c #ffd261",
"dr c #ffd264",
"bh c #ffd265",
"b1 c #ffd366",
"dE c #ffd367",
"cZ c #ffd368",
"ev c #ffd466",
"bF c #ffd468",
"cD c #ffd469",
"bi c #ffd46a",
"cl c #ffd46b",
"#E c #ffd65e",
"b2 c #ffd66d",
"dT c #ffd66f",
"bG c #ffd76e",
"cE c #ffd770",
"cm c #ffd871",
"aW c #ffd872",
"dF c #ffd96d",
"d4 c #ffd96e",
"bj c #ffd972",
"b3 c #ffd973",
"bH c #ffd974",
".S c #ffda73",
"bk c #ffdd79",
"d6 c #ffde7a",
"d7 c #ffdf7d",
"d5 c #ffe07a",
"eN c #ffe086",
"d8 c #ffe284",
"dU c #ffe385",
"ep c #ffe588",
"dV c #ffe58b",
"en c #ffe687",
"eo c #ffe789",
"d9 c #ffe88d",
"dJ c #ffe88f",
".W c #ffe98f",
"dW c #ffea93",
"cF c #ffea94",
"cn c #ffeb95",
"b4 c #ffeb97",
".X c #ffec91",
"e. c #ffec94",
"eZ c #ffec96",
"bI c #ffed99",
"cG c #ffed9a",
"ds c #ffed9b",
"bl c #ffee9a",
"co c #ffee9b",
"dd c #ffee9d",
"b5 c #ffef9e",
"bJ c #ffef9f",
"c0 c #fff09f",
"cH c #fff0a0",
".D c #fff194",
"bm c #fff1a1",
"b6 c #fff2a3",
".E c #fff39a",
"dX c #fff39e",
"bK c #fff3a5",
"aZ c #fff49b",
"cI c #fff4a6",
"bn c #fff4a7",
"a1 c #fff5a9",
"b7 c #fff5aa",
"a0 c #fff6a1",
"bL c #fff6ab",
"bo c #fff7ad",
".F c #fff89d",
"a2 c #fff8ae",
"b8 c #fff8af",
"bM c #fff9b1",
"cJ c #fffaaf",
"aH c #fffab1",
"bp c #fffab3",
"a3 c #fffbb4",
"aI c #fffcb7",
"cp c #fffdb7",
"c1 c #fffeb2",
"al c #fffeb9",
"an c #fffebc",
"ak c #ffffb3",
"bq c #ffffbb",
"a4 c #ffffbc",
"#o c #ffffbd",
"am c #ffffbe",
"#x c #ffffbf",
"#3 c #ffffc0",
"#Q c #ffffc1",
"#H c #ffffc6",
"#w c #ffffff",
"QtQtQtQtQtQtQtQtQtQtQtQtQtQtQt.#.a.b.c.d.e.f.g.h.iQtQtQtQtQtQtQt",
"QtQtQtQtQtQtQtQtQtQtQtQt.j.k.l.m.n.o.p.q.r.s.t.u.v.w.jQtQtQtQtQt",
"QtQtQtQtQtQtQtQtQtQtQt.x.y.z.A.B.C.D.E.F.G.H.I.J.K.L.M.NQtQtQtQt",
"QtQtQtQtQtQtQtQtQt.O.P.Q.R.S.T.U.V.W.X.Y.Z.0.1.2.3.4.5.6.7QtQtQt",
"QtQtQtQtQtQtQtQt.8.9#.###a#b#c#d#e#f#g#h#i#j#k#l#m#n#o#p#q.jQtQt",
"QtQtQtQtQtQtQt.7#r#s#t#u#v#w#w#w#w#w#w#w#w#w#w#w#w#w#x#y#z#AQtQt",
"QtQtQtQtQtQt#B#C#D#E#F#G#w.j.j.j.j.j.j.j.j.j.j.j.j.j#w#H#I#J.jQt",
"QtQtQtQtQt.i#K#L#M#N#O#P#w.j.j.j.j.j.j.j.j.j.j.j.j.j#w#Q#R#S#TQt",
"QtQtQtQt.j#U#V#W#X#Y#Z#0#1#w#w#w#w#w#w#w#w#w#w#w#w#w#2#3#4#5#6Qt",
"QtQtQtQt#7#8#9a.a#aaabacadaeafaeag#w.j.j.j#wahaiajakalamanaoapQt",
"QtQtQtaqarasatauavawaxayazaAaBaCaD#w.j.j.j#waEaFaGaHaIamanaJaKQt",
"QtQtQtaLaMaNaOaPaQaRaSaTaUaVaWaXaY#w.j.j.j#waZa0a1a2a3a4a5a6a7Qt",
"QtQta8a9b.b#babbbcbdbebfbgbhbibjbk#w.j.j.j#wblbmbnbobpbqbrbsbtQt",
"QtQtbubvbwbxbybybzbAbBbCbDbEbFbGbH#w.j.j.j#wbIbJbKbLbM#obNbObPQt",
"QtQtbQbRbSbTbUbUbVbWbXbYbZb0b1b2b3#w.j.j.j#wb4b5b6b7b8amb9c..jQt",
"Qtc#cacbcccdbUbUcecfcgchcicjckclcm#w.j.j.j#wcncobmbna2cpcqcr.jQt",
"QtcscactcucvbUcwcxcyczcA#NcBcCcDcE#w.j.j.j#wcFcGcHcIcJcKcLcMQtQt",
"QtcscacNcOcPcQcRcScTcUcVcWcXcYcZ#w#w.j.j.j#w#wbIc0cIc1c2c3c4QtQt",
"Qtcscac5c6c7c8c9d.d#dadbdcbZbZ#w.j.j.j.j.j.j.j#wddcIdedfdg.jQtQt",
"Qtcsdhdidjdkdldmdndodp#XdqcibZdr#w.j.j.j.j.j#wcndsdsdtdudvQtQtQt",
"QtcsdwdxdydzdAdBdCdDdEdFdGdHbZdIcD#w.j.j.j#wdJcndscIdudvQtQtQtQt",
"QtcsdKdLdydMdNdOdPdQdRdSdGdHbZdIcDdT#w.j#wdUdVdWdXdtdYdZQtQtQtQt",
"Qtd0cadLdydMdNdOdR.j.jd1dSd2bZd3d4d5d6#wd7d8d9e.e#eadv.jQtQtQtQt",
"Qtd0caebecedeeefeg.jQt.jeheibZejekelemeneoepeqeresetdvQtQtQtQtQt",
"Qteucaevewc5exefeyQtQtezeAeBbZeCeDeEeFeGeHeIeJeKeL.jQtQtQtQtQtQt",
"Qt.jeMeNeOePc6eQ.jQtQteReSeTeUdv.j.j.j.jc4eVeW.j.jQtQtQtQtQtQtQt",
"QtQteXeYeZe0e1e2e3e4e5e6e7e8e9dvQtQtQtQtQtQtQtQtQtQtQtQtQtQtQtQt",
"QtQt.jf.f#cHevfafbfcfdfde7fee9dvQtQtQtQtQtQtQtQtQtQtQtQtQtQtQtQt",
"QtQtQteXf.f#cHfffffffffffgfe.jdvQtQtQtQtQtQtQtQtQtQtQtQtQtQtQtQt",
"QtQtQtQt.jfhfifjfkflfmfnfofp.jQtQtQtQtQtQtQtQtQtQtQtQtQtQtQtQtQt",
"QtQtQtQtQtQtfqfrfsftfufvfw.jQtQtQtQtQtQtQtQtQtQtQtQtQtQtQtQtQtQt",
"QtQtQtQtQtQtQt.j.jbPfx.j.jQtQtQtQtQtQtQtQtQtQtQtQtQtQtQtQtQtQtQt"};
