/* XPM */
static char *maxfilt[]={
"32 32 284 2",
"Qt c None",
".j c #000000",
"ch c #001d2a",
".X c #001f3e",
"bH c #00202e",
".K c #00203f",
".w c #002340",
"#P c #002545",
"#D c #002845",
"aN c #0097bc",
".n c #012a46",
".S c #021621",
".E c #021720",
"al c #03090e",
"ca c #030c12",
"bs c #030d12",
"bU c #03141d",
"bt c #03161d",
"#A c #031722",
"bE c #04121a",
"#K c #04151e",
"#q c #041621",
"bd c #041c28",
"aX c #041f2b",
"be c #050f14",
"#f c #051621",
".5 c #051721",
"cm c #051b27",
"bQ c #051d2b",
"aY c #05202c",
".q c #05202f",
"cl c #064b65",
"#X c #082c3f",
"bl c #099bc1",
"az c #0a9ec0",
"au c #0aa1c3",
"bD c #0b4d69",
"aE c #0b506e",
"a6 c #0b92b9",
"a7 c #0b95bd",
"ct c #0c242f",
"#2 c #0c3652",
"#3 c #0c3753",
"bc c #0c5775",
".o c #0c91b6",
"bm c #0c95be",
"ak c #0d3b59",
"aj c #0d3f5e",
"af c #0d4564",
"c# c #0d5472",
"ae c #0d5d7f",
"#c c #0d8bae",
"aO c #0d8eb5",
"#U c #0d99be",
"cv c #0e516f",
"br c #0e5c7d",
"aw c #0e8eb5",
"aP c #0e91b9",
"ay c #0e95bd",
"bn c #0eaccd",
"aR c #0eadce",
"aF c #0f2731",
"#8 c #0f405f",
"#4 c #0f4160",
"ai c #0f4363",
"ag c #0f4665",
"#x c #0f8caf",
"c. c #0f8fb5",
"ad c #0f93b8",
"a5 c #0f9bc0",
"ab c #0f9bc1",
"#T c #0fa8c9",
"av c #1091b8",
"aA c #10a1bf",
"a8 c #10a2c9",
"ah c #114463",
"#H c #11acca",
"ac c #11b4d2",
"#z c #126e94",
"#W c #127fa3",
"#n c #1288aa",
"ax c #12b0cd",
"cs c #131516",
"aW c #134b63",
"#J c #136f93",
"aQ c #13a6ca",
".R c #14688e",
".4 c #14688f",
"#p c #146a90",
"b0 c #148aaf",
"#5 c #154767",
"#e c #15688e",
"bq c #158db2",
"bb c #178eb2",
"#V c #17b4cf",
".2 c #189abb",
"a9 c #18b6d6",
"#6 c #194968",
"#7 c #1a4a68",
"bC c #1a92b8",
"aM c #1aaccb",
"#d c #1cb3c8",
"cu c #1d607b",
".p c #1d6c8f",
".D c #1d769c",
"aB c #1d94b5",
"aa c #1da4c7",
"aU c #1da7c9",
".3 c #1eb6ce",
"ck c #2190b6",
"am c #22617c",
"aD c #227498",
"#I c #22b6ce",
"b. c #22cce0",
"aV c #2386ab",
"bZ c #25bbd3",
"bf c #28718f",
"aS c #2acee1",
"bp c #2bb8d2",
"#o c #2db9cb",
"aT c #2dcbe0",
"cy c #2e2e2f",
"a4 c #2eafce",
"aG c #2f6378",
"bk c #2fb0ce",
"#y c #2fbed2",
"aC c #307e9d",
"bP c #31c0d7",
"b6 c #336d86",
"co c #342b1d",
".1 c #35b3cf",
"aZ c #367088",
"ba c #36c3d8",
"#w c #37b8d1",
"cr c #382f24",
"bI c #38697d",
"by c #38b5d1",
"b9 c #38b9d4",
"bB c #39d8e6",
"bu c #3a6a7e",
"at c #3bbcd5",
"b# c #3dd9e7",
"ci c #416b7d",
"a# c #42b1d0",
"#b c #43b5cf",
"bA c #43cee0",
"cg c #443e37",
"bz c #45b3d0",
"#S c #45b6d3",
"bo c #48dfe9",
"bO c #49d5e4",
"cx c #4a4533",
"#m c #4eb8d0",
"cz c #4f4a37",
"#G c #52bfd8",
"bY c #53e0ea",
"an c #549bbb",
"bN c #5fd3e3",
"cf c #644533",
".P c #67bfd7",
".O c #6db9d3",
"cp c #6e4c36",
"aL c #6ec8dd",
"a3 c #6fcade",
"aH c #72b6d4",
".# c #764f2b",
"bM c #78cde0",
".Q c #7acde2",
"bj c #7acee1",
"cq c #7b5848",
"ao c #7db0c9",
".N c #7ec1d5",
"a. c #7ec9e0",
".J c #803a04",
"ce c #805a42",
"cn c #807255",
"bx c #80cee0",
"cj c #82bfd8",
"#1 c #833b04",
".0 c #83cfe0",
"#v c #83d2e4",
"aq c #84b3c8",
"ap c #84b5ca",
"aK c #95cade",
"b5 c #965534",
"ar c #96c0d3",
"#a c #98d8e6",
"#R c #9cd3e7",
"#l c #9dd9e8",
"b7 c #9fcce1",
"bv c #a2cfe2",
"#0 c #a34e04",
".v c #a84f04",
"#O c #aa5004",
"as c #acd9e8",
".M c #acdbe7",
"a2 c #b0d9e6",
"a0 c #b2d2e1",
"#F c #b3deee",
"cb c #b48e6c",
"bX c #b5e0ec",
"#Z c #b75604",
"cw c #b79f7c",
"bg c #b7d5e2",
"bJ c #b7d5e3",
"#N c #b85904",
"#9 c #bbdeed",
".x c #bcdfee",
".z c #bddfec",
".y c #bde3f0",
"aJ c #bfddeb",
".m c #c35f04",
".A c #c4e1ef",
"bV c #c5dae3",
".B c #c5e9f6",
"cd c #c7825b",
"aI c #ceeaf6",
"a1 c #cfe3ef",
"bL c #d0ecf3",
"b4 c #d18260",
".C c #d2f0fc",
"#u c #d4ecf6",
".Z c #d6eef5",
"bw c #d8eff5",
"bi c #d9ecf2",
"b8 c #d9f2fb",
"cc c #db9770",
".L c #e4f3fb",
"#k c #e5f4fb",
"#Q c #e6f1f9",
"#Y c #e77604",
"## c #e7f5fb",
".a c #ea9d53",
"b3 c #eaa282",
".r c #eb9d54",
"bT c #eb9e77",
"#C c #ec7804",
"#M c #ee7a04",
"#t c #f17b04",
"bW c #f2f6fb",
".G c #f6ddae",
".t c #f6eab7",
".T c #f7deb0",
"bS c #f8d1be",
".l c #f9efbc",
"bK c #f9fafd",
".i c #fb8104",
".k c #fbb168",
"bF c #fbb490",
".s c #fcb269",
".V c #fd7d00",
"#g c #fd7e00",
".8 c #fd8300",
".W c #fd8400",
".f c #fd8401",
"#h c #fd8504",
".d c #fda732",
".b c #fdb46a",
"b1 c #fdb492",
".Y c #fdfcff",
".7 c #fe7f00",
"#B c #fe8604",
".e c #fe8800",
"#r c #fe8804",
".F c #feb36a",
".g c #ff8601",
".9 c #ff8701",
".I c #ff8900",
"#L c #ff8b04",
"#i c #ff8c01",
"#s c #ff8e04",
".h c #ff9101",
".6 c #ffa030",
".U c #ffa036",
".H c #ffa13a",
".u c #ffa630",
"bR c #ffd2aa",
"b2 c #ffe1c9",
"bG c #fff5dc",
"#j c #fffcff",
"#. c #fffdff",
".c c #fffecc",
"#E c #fffeff",
"bh c #ffffff",
"QtQtQtQtQtQtQtQtQtQtQtQtQtQtQtQtQtQtQtQtQtQtQtQtQtQt.#.a.b.c.d.e",
"QtQtQtQtQtQtQtQtQtQtQtQtQtQtQtQtQtQtQtQtQtQtQtQtQt.#.a.b.c.d.e.f",
"QtQtQtQtQtQtQtQtQtQtQtQtQtQtQtQtQtQtQtQtQtQtQtQt.#.a.b.c.d.e.f.g",
"QtQtQtQtQtQtQtQtQtQtQtQtQtQtQtQtQtQtQtQtQtQtQt.#.a.b.c.d.e.f.g.h",
"QtQtQtQtQtQtQtQtQtQtQtQtQtQtQtQtQtQtQtQtQtQt.#.a.b.c.d.e.f.g.h.i",
"QtQtQtQtQtQtQtQtQtQtQt.j.j.j.j.j.j.j.j.j.j.#.a.k.l.d.e.f.g.h.i.m",
"QtQtQtQtQtQtQtQtQtQtQt.n.o.o.o.o.o.o.o.p.q.r.s.t.u.e.f.g.h.i.m.v",
"QtQtQtQtQtQtQtQtQtQtQt.w.o.x.y.z.A.B.C.D.E.F.G.H.I.f.g.h.i.m.v.J",
"QtQtQtQtQtQtQtQtQtQtQt.K.o.L.M.N.O.P.Q.R.S.T.U.V.W.g.h.i.m.v.J.j",
"QtQtQtQtQtQtQtQtQtQtQt.X.o.Y.Z.0.1.2.3.4.5.6.7.8.9.h.i.m.v.J.jQt",
"QtQtQtQtQtQtQtQtQtQtQt.X.o#.###a#b#c#d#e#f#g.W#h#i.i.m.v.J.jQtQt",
"QtQtQtQtQtQtQtQtQtQtQt.X.o#j#k#l#m#n#o#p#q.W#r#s#t.m.v.J.jQtQtQt",
"QtQtQtQtQtQtQtQtQtQtQt.X.o#j#u#v#w#x#y#z#A#B#s#C.m.v.J.jQtQtQtQt",
"QtQtQtQtQtQtQtQtQtQtQt#D.o#E#F#G#H.o#I#J#K#L#M#N#O.J.jQtQtQtQtQt",
"QtQtQtQtQtQtQtQtQtQtQt#P.o#Q#R#S#T#U#V#W#X#Y#Z#0#1.jQtQtQtQtQtQt",
"QtQtQtQt#2#3#4#5#6#7#7#8.o#9a.a#aaabacadaeafagahaiaj#3akQtQtQtQt",
"QtQtQtQtQtalamanaoapaqaqarasatauavawaxayazaAaBaCaDaEalQtQtQtQtQt",
"QtQtQtQtQtQtaFaGaHaIaJaKaLaMaNaNaOaPaQaRaSaTaUaVaWaXQtQtQtQtQtQt",
"QtQtQtQtQtQtQtaYaZa0a1a2a3a4a5a6a7a8a9b.b#babbbcbdQtQtQtQtQtQtQt",
"QtQtQtQtQtQtQtQtbebfbgbhbibjbkblbmbnb.bobpbqbrbsQtQtQtQtQtQtQtQt",
"QtQtQtQtQtQtQtQtQtbtbubvbhbwbxbybzbAbBbpbCbDbEQtQtQtQtQtQtQtQtQt",
"QtQtQtQtQtQtQtQtbFbGbHbIbJbKbLbMbNbObPbqbDbQQtQtQtQtQtQtQtQtQtQt",
"QtQtQtQtQtQtQtQtbRbSbTbUbfbVbWbXbYbZb0brbEQtQtQtQtQtQtQtQtQtQtQt",
"QtQtQtQtQtQtQtb1b2b3b4b5beb6b7b8b9c.c#caQtQtQtQtQtQtQtQtQtQtQtQt",
"QtQtQtQtQtQtQtcbcccdcecfcgchcicjckclcmQtQtQtQtQtQtQtQtQtQtQtQtQt",
"QtQtQtQtQtQtcncocpcqcrcsQtQtctcucvbdQtQtQtQtQtQtQtQtQtQtQtQtQtQt",
"QtQtQtQtQtcwcx.j.j.j.j.j.j.j.jalal.j.j.j.j.j.j.j.jQtQtQtQtQtQtQt",
"QtQtQtQtQtcy.j.j.j.j.j.j.j.j.j.j.j.j.j.j.j.j.j.j.jQtQtQtQtQtQtQt",
"QtQtQtQtQtczQtQtQtQtQtQtQtQtQtQtQtQtQtQtQtQtQtQtQtQtQtQtQtQtQtQt",
"QtQtQtQtQtQtQtQtQtQtQtQtQtQtQtQtQtQtQtQtQtQtQtQtQtQtQtQtQtQtQtQt",
"QtQtQtQtQtQtQtQtQtQtQtQtQtQtQtQtQtQtQtQtQtQtQtQtQtQtQtQtQtQtQtQt",
"QtQtQtQtQtQtQtQtQtQtQtQtQtQtQtQtQtQtQtQtQtQtQtQtQtQtQtQtQtQtQtQt"};
