/* XPM */
static char *maxfilt_otf[]={
"32 32 285 2",
"Qt c None",
".k c #000000",
"ci c #001d2a",
".Y c #001f3e",
"bI c #00202e",
".L c #00203f",
".x c #002340",
"#Q c #002545",
"#E c #002845",
"aO c #0097bc",
".o c #012a46",
".T c #021621",
".F c #021720",
"am c #03090e",
"cb c #030c12",
"bt c #030d12",
"bV c #03141d",
"bu c #03161d",
"#B c #031722",
"bF c #04121a",
"#L c #04151e",
"#r c #041621",
"be c #041c28",
"aY c #041f2b",
"bf c #050f14",
"#g c #051621",
".6 c #051721",
"cn c #051b27",
"bR c #051d2b",
"aZ c #05202c",
".r c #05202f",
"cm c #064b65",
"#Y c #082c3f",
"bm c #099bc1",
"aA c #0a9ec0",
"av c #0aa1c3",
"bE c #0b4d69",
"aF c #0b506e",
"a7 c #0b92b9",
"a8 c #0b95bd",
"cu c #0c242f",
"#3 c #0c3652",
"#4 c #0c3753",
"bd c #0c5775",
".p c #0c91b6",
"bn c #0c95be",
"al c #0d3b59",
"ak c #0d3f5e",
"ag c #0d4564",
"ca c #0d5472",
"af c #0d5d7f",
"#d c #0d8bae",
"aP c #0d8eb5",
"#V c #0d99be",
"cw c #0e516f",
"bs c #0e5c7d",
"ax c #0e8eb5",
"aQ c #0e91b9",
"az c #0e95bd",
"bo c #0eaccd",
"aS c #0eadce",
"aG c #0f2731",
"#9 c #0f405f",
"#5 c #0f4160",
"aj c #0f4363",
"ah c #0f4665",
"#y c #0f8caf",
"c# c #0f8fb5",
"ae c #0f93b8",
"a6 c #0f9bc0",
"ac c #0f9bc1",
"#U c #0fa8c9",
"aw c #1091b8",
"aB c #10a1bf",
"a9 c #10a2c9",
"ai c #114463",
"#I c #11acca",
"ad c #11b4d2",
"#A c #126e94",
"#X c #127fa3",
"#o c #1288aa",
"ay c #12b0cd",
"ct c #131516",
"aX c #134b63",
"#K c #136f93",
"aR c #13a6ca",
".S c #14688e",
".5 c #14688f",
"#q c #146a90",
"b1 c #148aaf",
"#6 c #154767",
"#f c #15688e",
"br c #158db2",
"bc c #178eb2",
"#W c #17b4cf",
".3 c #189abb",
"b. c #18b6d6",
"#7 c #194968",
"#8 c #1a4a68",
"bD c #1a92b8",
"aN c #1aaccb",
"#e c #1cb3c8",
"cv c #1d607b",
".q c #1d6c8f",
".E c #1d769c",
"aC c #1d94b5",
"ab c #1da4c7",
"aV c #1da7c9",
".4 c #1eb6ce",
"cl c #2190b6",
"an c #22617c",
"aE c #227498",
"#J c #22b6ce",
"b# c #22cce0",
"aW c #2386ab",
"b0 c #25bbd3",
"bg c #28718f",
"aT c #2acee1",
"bq c #2bb8d2",
"#p c #2db9cb",
"aU c #2dcbe0",
"cz c #2e2e2f",
"a5 c #2eafce",
"aH c #2f6378",
"bl c #2fb0ce",
"#z c #2fbed2",
"aD c #307e9d",
"bQ c #31c0d7",
"b7 c #336d86",
"cp c #342b1d",
".2 c #35b3cf",
"a0 c #367088",
"bb c #36c3d8",
"#x c #37b8d1",
"cs c #382f24",
"bJ c #38697d",
"bz c #38b5d1",
"c. c #38b9d4",
"bC c #39d8e6",
"bv c #3a6a7e",
"au c #3bbcd5",
"ba c #3dd9e7",
"cj c #416b7d",
"aa c #42b1d0",
"#c c #43b5cf",
"bB c #43cee0",
"ch c #443e37",
"bA c #45b3d0",
"#T c #45b6d3",
"bp c #48dfe9",
"bP c #49d5e4",
"cy c #4a4533",
"#n c #4eb8d0",
"cA c #4f4a37",
"#H c #52bfd8",
"bZ c #53e0ea",
"ao c #549bbb",
"bO c #5fd3e3",
"cg c #644533",
".Q c #67bfd7",
".P c #6db9d3",
"cq c #6e4c36",
"aM c #6ec8dd",
"a4 c #6fcade",
"aI c #72b6d4",
".a c #764f2b",
"bN c #78cde0",
".R c #7acde2",
"bk c #7acee1",
"cr c #7b5848",
"ap c #7db0c9",
".O c #7ec1d5",
"a# c #7ec9e0",
".# c #800000",
".K c #803a04",
"cf c #805a42",
"co c #807255",
"by c #80cee0",
"ck c #82bfd8",
"#2 c #833b04",
".1 c #83cfe0",
"#w c #83d2e4",
"ar c #84b3c8",
"aq c #84b5ca",
"aL c #95cade",
"b6 c #965534",
"as c #96c0d3",
"#b c #98d8e6",
"#S c #9cd3e7",
"#m c #9dd9e8",
"b8 c #9fcce1",
"bw c #a2cfe2",
"#1 c #a34e04",
".w c #a84f04",
"#P c #aa5004",
"at c #acd9e8",
".N c #acdbe7",
"a3 c #b0d9e6",
"a1 c #b2d2e1",
"#G c #b3deee",
"cc c #b48e6c",
"bY c #b5e0ec",
"#0 c #b75604",
"cx c #b79f7c",
"bh c #b7d5e2",
"bK c #b7d5e3",
"#O c #b85904",
"a. c #bbdeed",
".y c #bcdfee",
".A c #bddfec",
".z c #bde3f0",
"aK c #bfddeb",
".n c #c35f04",
".B c #c4e1ef",
"bW c #c5dae3",
".C c #c5e9f6",
"ce c #c7825b",
"aJ c #ceeaf6",
"a2 c #cfe3ef",
"bM c #d0ecf3",
"b5 c #d18260",
".D c #d2f0fc",
"#v c #d4ecf6",
".0 c #d6eef5",
"bx c #d8eff5",
"bj c #d9ecf2",
"b9 c #d9f2fb",
"cd c #db9770",
".M c #e4f3fb",
"#l c #e5f4fb",
"#R c #e6f1f9",
"#Z c #e77604",
"#a c #e7f5fb",
".b c #ea9d53",
"b4 c #eaa282",
".s c #eb9d54",
"bU c #eb9e77",
"#D c #ec7804",
"#N c #ee7a04",
"#u c #f17b04",
"bX c #f2f6fb",
".H c #f6ddae",
".u c #f6eab7",
".U c #f7deb0",
"bT c #f8d1be",
".m c #f9efbc",
"bL c #f9fafd",
".j c #fb8104",
".l c #fbb168",
"bG c #fbb490",
".t c #fcb269",
".W c #fd7d00",
"#h c #fd7e00",
".9 c #fd8300",
".X c #fd8400",
".g c #fd8401",
"#i c #fd8504",
".e c #fda732",
".c c #fdb46a",
"b2 c #fdb492",
".Z c #fdfcff",
".8 c #fe7f00",
"#C c #fe8604",
".f c #fe8800",
"#s c #fe8804",
".G c #feb36a",
".h c #ff8601",
"#. c #ff8701",
".J c #ff8900",
"#M c #ff8b04",
"#j c #ff8c01",
"#t c #ff8e04",
".i c #ff9101",
".7 c #ffa030",
".V c #ffa036",
".I c #ffa13a",
".v c #ffa630",
"bS c #ffd2aa",
"b3 c #ffe1c9",
"bH c #fff5dc",
"#k c #fffcff",
"## c #fffdff",
".d c #fffecc",
"#F c #fffeff",
"bi c #ffffff",
"QtQt.#QtQtQtQtQtQtQtQt.#QtQtQtQtQtQtQtQt.#QtQtQtQtQt.a.b.c.d.e.f",
"QtQt.#QtQtQtQtQtQtQtQt.#QtQtQtQtQtQtQtQt.#QtQtQtQt.a.b.c.d.e.f.g",
".#.#.#.#.#.#.#.#.#.#.#.#.#.#.#.#.#.#.#.#.#.#.#.#.a.b.c.d.e.f.g.h",
"QtQt.#QtQtQtQtQtQtQtQt.#QtQtQtQtQtQtQtQt.#QtQt.a.b.c.d.e.f.g.h.i",
"QtQt.#QtQtQtQtQtQtQtQt.#QtQtQtQtQtQtQtQt.#Qt.a.b.c.d.e.f.g.h.i.j",
"QtQt.#QtQtQtQtQtQtQtQt.k.k.k.k.k.k.k.k.k.k.a.b.l.m.e.f.g.h.i.j.n",
"QtQt.#QtQtQtQtQtQtQtQt.o.p.p.p.p.p.p.p.q.r.s.t.u.v.f.g.h.i.j.n.w",
"QtQt.#QtQtQtQtQtQtQtQt.x.p.y.z.A.B.C.D.E.F.G.H.I.J.g.h.i.j.n.w.K",
"QtQt.#QtQtQtQtQtQtQtQt.L.p.M.N.O.P.Q.R.S.T.U.V.W.X.h.i.j.n.w.K.k",
"QtQt.#QtQtQtQtQtQtQtQt.Y.p.Z.0.1.2.3.4.5.6.7.8.9#..i.j.n.w.K.kQt",
".#.#.#.#.#.#.#.#.#.#.#.Y.p###a#b#c#d#e#f#g#h.X#i#j.j.n.w.K.k.#.#",
"QtQt.#QtQtQtQtQtQtQtQt.Y.p#k#l#m#n#o#p#q#r.X#s#t#u.n.w.K.k.#QtQt",
"QtQt.#QtQtQtQtQtQtQtQt.Y.p#k#v#w#x#y#z#A#B#C#t#D.n.w.K.kQt.#QtQt",
"QtQt.#QtQtQtQtQtQtQtQt#E.p#F#G#H#I.p#J#K#L#M#N#O#P.K.kQtQt.#QtQt",
"QtQt.#QtQtQtQtQtQtQtQt#Q.p#R#S#T#U#V#W#X#Y#Z#0#1#2.kQtQtQt.#QtQt",
"QtQt.#Qt#3#4#5#6#7#8#8#9.pa.a#aaabacadaeafagahaiajak#4alQt.#QtQt",
"QtQt.#QtQtamanaoapaqararasatauavawaxayazaAaBaCaDaEaFamQtQt.#QtQt",
"QtQt.#QtQtQtaGaHaIaJaKaLaMaNaOaOaPaQaRaSaTaUaVaWaXaYQtQtQt.#QtQt",
"QtQt.#QtQtQtQtaZa0a1a2a3a4a5a6a7a8a9b.b#babbbcbdbeQtQtQtQt.#QtQt",
"QtQt.#QtQtQtQtQtbfbgbhbibjbkblbmbnbob#bpbqbrbsbtQtQtQtQtQt.#QtQt",
".#.#.#.#.#.#.#.#.#bubvbwbibxbybzbAbBbCbqbDbEbF.#.#.#.#.#.#.#.#.#",
"QtQt.#QtQtQtQtQtbGbHbIbJbKbLbMbNbObPbQbrbEbRQtQtQtQtQtQtQt.#QtQt",
"QtQt.#QtQtQtQtQtbSbTbUbVbgbWbXbYbZb0b1bsbFQtQtQtQtQtQtQtQt.#QtQt",
"QtQt.#QtQtQtQtb2b3b4b5b6bfb7b8b9c.c#cacb.#QtQtQtQtQtQtQtQt.#QtQt",
"QtQt.#QtQtQtQtcccdcecfcgchcicjckclcmcnQt.#QtQtQtQtQtQtQtQt.#QtQt",
"QtQt.#QtQtQtcocpcqcrcsctQtQtcucvcwbeQtQt.#QtQtQtQtQtQtQtQt.#QtQt",
"QtQt.#QtQtcxcy.k.k.k.k.k.k.k.kamam.k.k.k.k.k.k.k.kQtQtQtQt.#QtQt",
"QtQt.#QtQtcz.k.k.k.k.k.k.k.k.k.k.k.k.k.k.k.k.k.k.kQtQtQtQt.#QtQt",
"QtQt.#QtQtcAQtQtQtQtQt.#QtQtQtQtQtQtQtQt.#QtQtQtQtQtQtQtQt.#QtQt",
".#.#.#.#.#.#.#.#.#.#.#.#.#.#.#.#.#.#.#.#.#.#.#.#.#.#.#.#.#.#.#.#",
"QtQt.#QtQtQtQtQtQtQtQt.#QtQtQtQtQtQtQtQt.#QtQtQtQtQtQtQtQt.#QtQt",
"QtQt.#QtQtQtQtQtQtQtQt.#QtQtQtQtQtQtQtQt.#QtQtQtQtQtQtQtQt.#QtQt"};
