/* XPM */
static char *minfilt[]={
"32 32 218 2",
"Qt c None",
".J c #000000",
".j c #020202",
".k c #02060e",
"ag c #060e1a",
".R c #061626",
"#H c #061a2a",
".6 c #061e2e",
"#w c #061e32",
".q c #062636",
".C c #06526e",
".D c #0a2236",
"aG c #0a223a",
"aN c #0a2a3e",
"af c #0a364e",
"ax c #0a3652",
"#5 c #0a3e5e",
".P c #0a8eb2",
"#Q c #0a9ec2",
"al c #0e2e46",
"#6 c #0e3652",
"ah c #0e3a56",
"ai c #0e3e5e",
"ae c #0e4a6e",
"ad c #0e4e6e",
"#v c #0e5272",
".Q c #0e5672",
"aq c #0e567a",
".5 c #0e5a7a",
"ab c #0e5e7e",
"bi c #0e5e82",
"#3 c #0e7296",
"#T c #0e769e",
".4 c #0e8ab2",
"#1 c #0e96be",
"#g c #0e9abe",
"a# c #0e9ac2",
"#R c #0ea2c6",
"#U c #123a56",
"aj c #12425e",
"ak c #124262",
".p c #125676",
"ac c #12567a",
"aF c #126686",
"b# c #12668e",
"#4 c #126a92",
"aw c #127a9e",
"br c #128eb2",
"aa c #1292b2",
"ap c #1296b6",
"#C c #12a2ca",
"#P c #12aaca",
"#B c #12aece",
"#D c #12aed2",
".3 c #12b6d2",
"#8 c #167ea6",
"#G c #168eb2",
"bg c #1696ba",
"#0 c #16a6c6",
"b. c #16b2ca",
"ao c #16b2ce",
"bh c #16bad6",
"ay c #180a01",
".K c #1a425e",
"#u c #1a92b2",
"a1 c #1a96b6",
"a. c #1aa2c6",
"#q c #1ab6d6",
".X c #1e4662",
"#k c #1e4a66",
"bq c #1e82a6",
"bu c #1f1a17",
"#2 c #229ab6",
"a2 c #22bace",
"#r c #22cade",
"#e c #22cee2",
"#J c #26567a",
".B c #2692b6",
"#9 c #26aaca",
"#F c #26b6ca",
"#d c #26cae2",
".y c #2a526e",
".n c #2a5272",
".O c #2ab6ce",
"#f c #2abece",
"av c #2abed6",
"#t c #2ac6da",
"bv c #2b211c",
"bw c #2e2e2f",
"aV c #2ebad2",
"aM c #2ebece",
"bp c #328aae",
"an c #32aeca",
"aE c #32c2d2",
".2 c #32cede",
"bk c #342b1d",
"#7 c #365676",
"am c #369ec2",
"#s c #36d6e2",
"#S c #36dae6",
"bn c #382f24",
"#V c #3a5e7e",
"aD c #3ab2ce",
"#O c #3abad2",
"bf c #42a6ca",
"#A c #42c6d6",
"bt c #4a4533",
"#E c #4adeea",
"au c #4ebed6",
"#p c #4ec6da",
"bx c #4f4a37",
".o c #527a9a",
"bo c #5296b6",
"#Z c #56aac6",
"be c #5eb6d2",
"a9 c #6abad6",
"bl c #6e4c36",
"#. c #6e8aa6",
".z c #6e8ea6",
".Y c #6e8eaa",
"#K c #6e96b2",
".L c #7296b2",
"as c #72bad2",
"aL c #72c2d6",
".# c #764f2b",
"#W c #769ab6",
"at c #76cae2",
"#N c #7acee2",
"bm c #7b5848",
"#Y c #7eaec6",
".x c #803a04",
".r c #805430",
"bd c #805a42",
"bj c #807255",
"aU c #82cade",
"#c c #82d2e6",
"a8 c #8ed2e6",
"#z c #8edae6",
"#o c #92d2e6",
"#X c #9ebace",
".A c #a6c6da",
".m c #a84f04",
"#I c #aa5004",
".1 c #aadeea",
"aB c #aedeea",
"#M c #b2deea",
"a0 c #b2e2ee",
"ba c #b48e6c",
"aC c #b6e6f6",
"bs c #b79f7c",
"aT c #bae6ee",
"a7 c #c2eef6",
".l c #c35f04",
"bc c #c7825b",
".M c #cedeee",
"a6 c #d18260",
"#l c #d2deea",
"#L c #d2e2f2",
".N c #d2eefa",
"## c #d6deea",
"aK c #d6f2fa",
"#n c #daf2f6",
"aZ c #daf6fe",
"bb c #db9770",
".Z c #dee2ea",
"#b c #deeaf6",
"#y c #deeef2",
"aS c #def6fe",
"aJ c #e6f6fa",
".a c #ea9d53",
"a5 c #eaa282",
".s c #eb9d53",
"aY c #eb9e77",
"#x c #ec7804",
"#j c #f17b04",
".0 c #f2f6fa",
".u c #f6ddae",
".F c #f7deb0",
"aX c #f8d1be",
"az c #fab28f",
"#a c #faf6fa",
"aR c #fafafe",
".i c #fb8104",
"aO c #fbb490",
".H c #fd7d00",
".7 c #fd7e00",
".V c #fd8300",
".I c #fd8400",
".f c #fd8401",
".8 c #fd8504",
".d c #fda732",
".b c #fdb46a",
"a3 c #fdb492",
".U c #fe7f00",
".e c #fe8800",
"#h c #fe8804",
".E c #feb369",
".t c #feb36a",
".S c #fed7b7",
"#m c #fefefe",
".g c #ff8601",
".W c #ff8701",
".w c #ff8900",
".9 c #ff8c01",
"#i c #ff8e04",
".h c #ff9101",
".T c #ffa030",
".G c #ffa036",
".v c #ffa13a",
"aQ c #ffc9b0",
"ar c #ffd0a8",
"aW c #ffd2aa",
"aH c #ffd3aa",
"a4 c #ffe1c9",
"aI c #ffeace",
"aP c #fff5dc",
".c c #fffecc",
"aA c #fffff5",
"QtQtQtQtQtQtQtQtQtQtQtQtQtQtQtQtQtQtQtQtQtQtQtQtQtQt.#.a.b.c.d.e",
"QtQtQtQtQtQtQtQtQtQtQtQtQtQtQtQtQtQtQtQtQtQtQtQtQt.#.a.b.c.d.e.f",
"QtQtQtQtQtQtQtQtQtQtQtQtQtQtQtQtQtQtQtQtQtQtQtQt.#.a.b.c.d.e.f.g",
"QtQtQtQtQtQtQtQtQtQtQtQtQtQtQtQtQtQtQtQtQtQtQt.#.a.b.c.d.e.f.g.h",
"QtQtQtQtQtQtQtQtQtQtQtQtQtQtQtQtQtQtQtQtQtQt.#.a.b.c.d.e.f.g.h.i",
"QtQtQtQtQtQtQt.j.j.j.j.j.j.j.j.k.k.j.j.j.j.j.j.j.j.d.e.f.g.h.i.l",
"QtQtQtQtQtQtQt.j.j.j.j.j.j.j.j.j.j.j.j.j.j.j.j.j.j.e.f.g.h.i.l.m",
"QtQtQtQtQtQtQtQtQtQtQtQtQtQt.n.o.p.qQt.r.s.t.u.v.w.f.g.h.i.l.m.x",
"QtQtQtQtQtQtQtQtQtQtQtQtQt.y.z.A.B.C.D.a.E.F.G.H.I.g.h.i.l.m.x.J",
"QtQtQtQtQtQtQtQtQtQtQtQt.K.L.M.N.O.P.Q.R.S.T.U.V.W.h.i.l.m.x.JQt",
"QtQtQtQtQtQtQtQtQtQtQt.X.Y.Z.0.1.2.3.4.5.6.7.I.8.9.i.l.m.x.JQtQt",
"QtQtQtQtQtQtQtQtQtQt.y#.###a#b#c#d#e#f#g.Q.q#h#i#j.l.m.x.JQtQtQt",
"QtQtQtQtQtQtQtQtQt#k#.#l#m#n#o#p#q#r#s#t#u#v#w#x.l.m.x.JQtQtQtQt",
"QtQtQtQtQtQtQtQt.K.L###m#y#z#A#B#C#D#e#E#F#G.5#H#I.x.JQtQtQtQtQt",
"QtQtQtQtQtQtQt#J#K#L#b#M#N#O#P#Q#g#R#q#e#S.O#T.5.q.JQtQtQtQtQtQt",
"QtQtQtQtQtQt#U#V#W#X#X#Y#Z#O#0#Q#1#C#D#P#F#2#3#4#5.RQtQtQtQtQtQt",
"QtQtQtQtQt#6.X#7#V#J.5#8#9#9a.a##1aa#Daa#3abacadaeafagQtQtQtQtQt",
"QtQtQtQtahahaiajakai#5al.Paman#0#g#1aoapaq#5aiakai#5ah.RQtQtQtQt",
"QtQtQtQtQtQtQtQtQtQtaral.Pasataua.aaavawaxayQtQtQtQtQtQtQtQtQtQt",
"QtQtQtQtQtQtQtQtQtazaAal.PaBaC#NaDaaaEaFaGQtQtQtQtQtQtQtQtQtQtQt",
"QtQtQtQtQtQtQtQtQtaHaIal.PaJaK.1aL#GaM#4aNQtQtQtQtQtQtQtQtQtQtQt",
"QtQtQtQtQtQtQtQtaOaPaQal.PaRaSaTaU#uaV#4.qQtQtQtQtQtQtQtQtQtQtQt",
"QtQtQtQtQtQtQtQtaWaXaYal.P#maZa0aUa1a2#4.qQtQtQtQtQtQtQtQtQtQtQt",
"QtQtQtQtQtQtQta3a4a5a6al.PaRa7a8a9#ub.b#aNQtQtQtQtQtQtQtQtQtQtQt",
"QtQtQtQtQtQtQtbabbbcbdal.PaZ#obebfbgbhbiaNQtQtQtQtQtQtQtQtQtQtQt",
"QtQtQtQtQtQtbjbkblbmbnal.Pbobobpbq#8br#vaGQtQtQtQtQtQtQtQtQtQtQt",
"QtQtQtQtQtbsbtbubv.JQtal.j.j.j.j.j.j.j.j.RQtQtQtQtQtQtQtQtQtQtQt",
"QtQtQtQtQtbw.J.JQtQtQtQtQtQtQtQtQtQtQtQtQtQtQtQtQtQtQtQtQtQtQtQt",
"QtQtQtQtQtbxQtQtQtQtQtQtQtQtQtQtQtQtQtQtQtQtQtQtQtQtQtQtQtQtQtQt",
"QtQtQtQtQtQtQtQtQtQtQtQtQtQtQtQtQtQtQtQtQtQtQtQtQtQtQtQtQtQtQtQt",
"QtQtQtQtQtQtQtQtQtQtQtQtQtQtQtQtQtQtQtQtQtQtQtQtQtQtQtQtQtQtQtQt",
"QtQtQtQtQtQtQtQtQtQtQtQtQtQtQtQtQtQtQtQtQtQtQtQtQtQtQtQtQtQtQtQt"};
