/* XPM */
static char *number[]={
"32 32 417 2",
"Qt c None",
".j c #000000",
"aG c #009a00",
"aH c #009c00",
"dP c #030000",
"bA c #070300",
"cO c #0a0300",
"ae c #0a0500",
"eE c #0b0800",
"al c #0ba50e",
"ex c #0c0800",
"d7 c #0d0800",
"am c #0da30e",
".7 c #110505",
"#H c #120606",
".N c #160b05",
"dh c #181104",
"a3 c #18980b",
"bs c #1c0f05",
"d# c #1c1004",
"ay c #1d0d05",
"aT c #1e0f07",
".i c #1f0a0a",
"aS c #1f0f04",
"d6 c #1f1002",
"bj c #1f1306",
"ba c #220f04",
"bi c #241206",
"aI c #26a213",
"dL c #271504",
"#G c #281309",
"bV c #2d190c",
"eb c #2d1d08",
"dX c #2f1f08",
"cx c #301c09",
"d8 c #341d03",
".8 c #341e0f",
"aq c #366eff",
"#T c #386eff",
"aK c #3b68f7",
"#5 c #3bb63e",
".w c #3d2010",
"#9 c #3d70ff",
"#R c #3e71ff",
"#4 c #3eb73e",
"#S c #3f72ff",
"dB c #442c0f",
"a. c #4471f7",
".O c #452e17",
"a2 c #47a420",
"az c #482c15",
".h c #4c2713",
"ce c #4f3112",
"cd c #502e0e",
"eo c #503309",
"#Y c #532a15",
"eD c #53360d",
"dK c #533610",
"a# c #5377e9",
"#q c #552b15",
".x c #55301c",
".P c #562f1b",
"ey c #56380b",
"ew c #56380f",
".g c #5b2f16",
"bt c #5b3d18",
"c4 c #5c3811",
"#U c #5c81eb",
".M c #5d321a",
"#B c #5f87fb",
"#y c #60b546",
"bb c #623e1b",
"af c #633c1e",
"di c #634114",
".6 c #64361c",
"ar c #6486e1",
".U c #64ba54",
"#A c #658eff",
".k c #66391e",
"#O c #66c76f",
".y c #683b21",
".b c #69381e",
".# c #693d1a",
"eg c #69440f",
".a c #6a3a1e",
"aL c #6a87d7",
"#r c #6c4023",
".c c #6d3d21",
".l c #6f3d22",
"#M c #6fca6f",
".f c #703d1f",
".e c #724124",
".d c #724224",
"bU c #724416",
".v c #73431f",
"#I c #734524",
".9 c #744226",
"#N c #76cd78",
"ad c #794a27",
"#Z c #7a4a25",
"#6 c #7bb045",
".m c #82502f",
"#i c #85a1ff",
"#P c #85b454",
"#w c #87cb7e",
".Q c #8a582f",
"dW c #8b5a19",
"ef c #8b5e1c",
"#F c #8c5f3b",
"#u c #8cbd40",
"bz c #8e5b27",
"#L c #8eb331",
"cN c #915b1e",
"ax c #91643a",
".z c #946539",
".u c #946a3f",
"dm c #956728",
"ez c #966216",
".Z c #96a6e4",
"#x c #96c96f",
"dY c #996922",
"#m c #99b3ff",
"br c #9a6833",
".L c #9c7144",
".3 c #9cb3fe",
"a1 c #9db343",
".n c #9e7444",
"an c #9fb94e",
"aU c #a06a29",
"aR c #a17848",
"#k c #a2bbff",
"bB c #a36924",
"#c c #a3dda8",
"bh c #a47742",
"#l c #a4bdff",
"#b c #a4c24f",
"d2 c #a5701d",
"b# c #a67d4a",
".J c #a6b2da",
"#j c #a7c0ff",
"#v c #a8e1ac",
".K c #a9a094",
"d. c #aa6d24",
"dg c #ac6e21",
"#p c #ad8c5f",
".T c #add264",
"eC c #ae741c",
"cw c #b07835",
".t c #b09362",
".I c #b0c0ea",
"bk c #b36a24",
"#. c #b38041",
".0 c #b5c6ff",
".5 c #b69761",
"el c #b77e25",
"#d c #b7d6a3",
"#n c #b8c2c7",
".o c #b9965a",
"dA c #bc7e23",
"dV c #bd812b",
".H c #bec7d2",
"dC c #c0872e",
"ep c #c18224",
"a4 c #c1c160",
"dJ c #c28027",
"eA c #c28425",
"aA c #c38030",
".A c #c49f54",
"#C c #c4c9b9",
"dT c #c59645",
"#X c #c5ab78",
".4 c #c5cbbc",
"aa c #c6ccb7",
"cc c #c89b57",
"dv c #c9852b",
".B c #cac361",
"c3 c #cb974b",
"a7 c #cbc7a6",
".p c #ccad6c",
"#s c #ce9a47",
"ec c #cf8e2b",
".2 c #cfdcff",
"bW c #d08a25",
".s c #d0b670",
"eB c #d28f2a",
"dQ c #d29432",
"dU c #d29b41",
".R c #d3a657",
"a6 c #d6cda1",
".1 c #d6e1ff",
"dS c #d79b3c",
".q c #d7bc79",
"ag c #d8a13c",
".r c #d8c07b",
"#z c #d9d176",
"as c #d9d5a3",
"#3 c #dac04d",
"ea c #db9521",
"bT c #dbc07d",
"#h c #dbd0a5",
"#J c #dca446",
"dn c #dda542",
"#0 c #dea340",
"d9 c #dea648",
"#V c #dfe3ba",
"ej c #e19621",
"#e c #e2cd6c",
"d5 c #e3a138",
"cM c #e3c87f",
"aJ c #e4d275",
"cS c #e5641a",
"bc c #e6a92f",
".V c #e6d277",
"bu c #e78422",
"ek c #e79e2d",
"cC c #e9a632",
"dI c #e9b353",
"bH c #ea591f",
"ci c #eb4716",
"du c #ebc268",
"c9 c #ebcf82",
"by c #ebde9d",
"ac c #ebe2a4",
"aX c #ed9d42",
"at c #ede9a9",
"ck c #ee8932",
"ev c #eeaa3d",
"b1 c #eebc44",
"eh c #f0b958",
"#t c #f0d059",
"#Q c #f0da83",
"eq c #f1b952",
"#a c #f1d764",
".Y c #f1e39c",
"cj c #f2230b",
"bG c #f3260c",
"cD c #f39530",
"d3 c #f3af3d",
"bD c #f47c1c",
"b0 c #f51d0a",
"#7 c #f5d67f",
"#E c #f5f2b3",
"#f c #f6e385",
"cB c #f70301",
"bZ c #f76519",
"cR c #f77c1c",
".G c #f8efa8",
"bE c #f90e02",
"cT c #f9b935",
"aC c #f9ba41",
"eu c #f9ce6f",
"cv c #f9efa7",
"et c #fae28e",
"a8 c #faf1a6",
"bq c #faf5b4",
"aV c #fba331",
"aZ c #fba53e",
"er c #fbd87e",
"dH c #fbdb7f",
"bm c #fc732a",
"aW c #fc7a73",
"es c #fce490",
"aM c #fcf2a2",
"aw c #fcfab8",
"bv c #fd1e12",
"ch c #fd721c",
"aY c #fdb33a",
"bC c #fdb526",
"bY c #fdc02c",
"au c #fdfbb6",
"ed c #fec145",
"a0 c #fec758",
"## c #fecc65",
"dE c #fed064",
".C c #fee589",
"#g c #feec8d",
"c2 c #fef6aa",
"bg c #fefdbb",
"bF c #ff0000",
"cA c #ff5213",
"aB c #ff8026",
"bl c #ff9027",
"d1 c #ffaa18",
"dN c #ffab1b",
"de c #ffac1c",
"dx c #ffac1e",
"db c #ffad1e",
"bd c #ffad33",
"c6 c #ffae1f",
"cP c #ffae20",
"dc c #ffae21",
"c7 c #ffae22",
"e# c #ffaf19",
"dy c #ffaf21",
"dj c #ffaf24",
"cy c #ffb020",
"cf c #ffb221",
"dk c #ffb32a",
"bX c #ffb423",
"dO c #ffb526",
"dz c #ffb527",
"ei c #ffb52b",
"cQ c #ffb625",
"dl c #ffb830",
"c5 c #ffb931",
"dw c #ffba32",
"cg c #ffbb29",
"cz c #ffbd28",
"da c #ffbd39",
"ee c #ffbf46",
"e. c #ffc144",
"cU c #ffc23d",
"dd c #ffc447",
"d0 c #ffc448",
"ai c #ffc54c",
"aD c #ffc84c",
"aj c #ffc852",
"ah c #ffca48",
"d4 c #ffca50",
"dR c #ffcb51",
"dD c #ffcb52",
"#2 c #ffcb57",
"aE c #ffcc53",
"cV c #ffcc5a",
"#1 c #ffcd50",
"do c #ffcd55",
"cE c #ffcd5c",
"cl c #ffce5e",
"b2 c #ffce5f",
"en c #ffce60",
"aF c #ffcf5c",
"ak c #ffcf5e",
"dp c #ffcf5f",
"em c #ffd05c",
"bI c #ffd060",
"cF c #ffd062",
"cm c #ffd064",
"b3 c #ffd165",
"cW c #ffd267",
"bJ c #ffd366",
"cG c #ffd368",
"dM c #ffd466",
"cn c #ffd469",
"b4 c #ffd46b",
"#K c #ffd65e",
"cX c #ffd66c",
"bK c #ffd66d",
"cH c #ffd76e",
"co c #ffd770",
"b5 c #ffd871",
"dq c #ffd96e",
"bL c #ffd973",
".S c #ffda73",
"b6 c #ffdb78",
"bM c #ffdc79",
"dr c #ffdf7d",
"dZ c #ffe086",
"cY c #ffe284",
"dG c #ffe588",
"ao c #ffe58a",
"cI c #ffe68c",
"cp c #ffe68e",
"dF c #ffe789",
"b7 c #ffe78f",
"ap c #ffe888",
"ds c #ffe88d",
"cZ c #ffe890",
".W c #ffe98f",
"bN c #ffe992",
"cq c #ffea94",
"#8 c #ffeb8b",
"a5 c #ffeb91",
"b8 c #ffeb95",
"bO c #ffeb97",
".X c #ffec91",
"dt c #ffec94",
"c0 c #ffec96",
"cJ c #ffed99",
"cr c #ffed9a",
"c8 c #ffed9b",
"b9 c #ffee9b",
"c1 c #ffee9d",
"bP c #ffef9e",
"cK c #fff09f",
"cs c #fff0a0",
".D c #fff194",
"c. c #fff1a1",
"bQ c #fff2a3",
".E c #fff39a",
"df c #fff39e",
"ct c #fff4a6",
"c# c #fff4a7",
"bR c #fff5aa",
"bw c #fff6ab",
"bn c #fff7ad",
".F c #fff89d",
"ca c #fff8ae",
"bS c #fff8af",
"bx c #fff9b1",
"cu c #fffaaf",
"a9 c #fffab1",
"bo c #fffab3",
"be c #fffbb4",
"b. c #fffcb7",
"cb c #fffdb7",
"cL c #fffeb2",
"aO c #fffeb9",
"aQ c #fffebc",
"aN c #ffffb3",
"bp c #ffffbb",
"bf c #ffffbc",
"#o c #ffffbd",
"aP c #ffffbe",
"#D c #ffffbf",
"av c #ffffc0",
"ab c #ffffc1",
"#W c #ffffc6",
"QtQtQtQtQtQtQtQtQtQtQtQtQtQtQt.#.a.b.c.d.e.f.g.h.iQtQtQtQtQtQtQt",
"QtQtQtQtQtQtQtQtQtQtQtQt.j.k.l.m.n.o.p.q.r.s.t.u.v.w.jQtQtQtQtQt",
"QtQtQtQtQtQtQtQtQtQtQt.x.y.z.A.B.C.D.E.F.G.H.I.J.K.L.M.NQtQtQtQt",
"QtQtQtQtQtQtQtQtQt.O.P.Q.R.S.T.U.V.W.X.Y.Z.0.1.2.3.4.5.6.7QtQtQt",
"QtQtQtQtQtQtQtQt.8.9#.###a#b#c#d#e#f#g#h#i#j#k#l#m#n#o#p#q.jQtQt",
"QtQtQtQtQtQtQt.7#r#s#t#u.j.j#v#w#x#y#z.j.j.j#A#A#B#C#D#E#F#GQtQt",
"QtQtQtQtQtQt#H#I#J#K#L.j.j.j#M#N#O#P#Q.j.j.j#R#S#T#U#V#W#X#Y.jQt",
"QtQtQtQtQt.i#Z#0#1#2#3.j.j.j#4#5#6#7#8.j.j.j#S#9a.a#aaabacadaeQt",
"QtQtQtQt.jafagahaiajak.j.j.jalamanaoap.j.j.jaqarasatauavawaxayQt",
"QtQtQtQtazaAaBaCaDaEaF.j.j.jaGaHaIaJ.j.j.j.jaKaLaMaNaOaPaQaRaSQt",
"QtQtQtaTaUaVaWaXaYaZa0.j.j.ja1a2a3a4.j.j.ja5a6a7a8a9b.aPaQb#baQt",
"QtQtQtbbbcbd.j.j.j.j.j.j.j.j.j.j.j.j.j.j.j.j.j.j.j.jbebfbgbhbiQt",
"QtQtbjbkblbm.j.j.j.j.j.j.j.j.j.j.j.j.j.j.j.j.j.j.jbnbobpbqbrbsQt",
"QtQtbtbubv.j.j.j.j.j.j.j.j.j.j.j.j.j.j.j.j.j.j.j.jbwbx#obybzbAQt",
"QtQtbBbCbDbEbFbFbGbH.j.j.jbIbJbKbLbM.j.j.jbNbObPbQbRbSaPbTbU.jQt",
"QtbVbWbXbYbZbFbFb0b1.j.j.jb2b3b4b5b6.j.j.jb7b8b9c.c#cacbcccd.jQt",
"QtcebWcfcgchbFcicjck.j.j.jclcmcnco.j.j.j.jcpcqcrcsctcucvcwcxQtQt",
"QtcebWcyczcAcBcCcD.j.j.j.jcEcFcGcH.j.j.j.jcIbNcJcKctcLcMcNcOQtQt",
"QtcebWcPcQcRcScTcU.j.j.j.jcVcVcWcX.j.j.jcYaocZc0c1ctc2c3c4.jQtQt",
"Qtcec5c6c7.j.j.j.j.j.j.j.j.j.j.j.j.j.j.j.j.j.j.j.jc8c9d.d#QtQtQt",
"Qtcedadbdc.j.j.j.j.j.j.j.j.j.j.j.j.j.j.j.j.j.j.jc8ctd.d#QtQtQtQt",
"Qtceddde.j.j.j.j.j.j.j.j.j.j.j.j.j.j.j.j.j.j.j.jdfc9dgdhQtQtQtQt",
"QtdibWdedcdjdkdldm.j.j.jdndocVdpdq.j.j.jdrcYdsdtdudvd#.jQtQtQtQt",
"QtdibWdwdxdydzdAdB.j.j.jdCdDcVdE.j.j.j.jdFdGdHdIdJdKd#QtQtQtQtQt",
"QtdLbWdMdNcPdOdAdP.j.j.jdQdRcVdS.j.j.j.jdTdUdVdWdX.jQtQtQtQtQtQt",
"Qt.jdYdZd0d1cQd2.j.j.j.jd3d4d5d#.j.j.j.jcOd6d7.j.jQtQtQtQtQtQtQt",
"QtQtd8d9c0e.e#eaeb.j.jecedeeefd#.j.j.jQtQtQtQtQtQtQtQtQtQtQtQtQt",
"QtQt.jegehcsdMeiej.j.jekedelefd#.j.j.jQtQtQtQtQtQtQtQtQtQtQtQtQt",
"QtQtQtd8egehcsemememememenel.jd#QtQtQtQtQtQtQtQtQtQtQtQtQtQtQtQt",
"QtQtQtQt.jeoepeqereseteuevew.jQtQtQtQtQtQtQtQtQtQtQtQtQtQtQtQtQt",
"QtQtQtQtQtQtexeyezeAeBeCeD.jQtQtQtQtQtQtQtQtQtQtQtQtQtQtQtQtQtQt",
"QtQtQtQtQtQtQt.j.jbAeE.j.jQtQtQtQtQtQtQtQtQtQtQtQtQtQtQtQtQtQtQt"};
