/* XPM */
static char *remisp_filter_icon[]={
"32 32 134 2",
".c c None",
"Qt c None",
"#Y c #0f0f0f",
"#x c #111111",
".l c #070707",
".h c #ff0a0a",
"#i c #050505",
".F c #040404",
".5 c #090909",
".i c #ff0606",
"#w c #010101",
".E c #040404",
".d c #ff0101",
".6 c #010101",
".j c #ff0101",
"ad c #1b1b1b",
"aa c #292929",
".g c #ff0101",
".q c #000000",
"#y c #030303",
"#4 c #202020",
"#Z c #2f2f2f",
".e c #ff0000",
"#v c #000000",
".p c #330000",
".m c #aa0000",
".f c #ff0000",
".k c #ff0000",
"a# c #272727",
"#8 c #2f2f2f",
".t c #3b3b3b",
".C c #3c3c3c",
"#9 c #3d3d3d",
"#5 c #404040",
".u c #3c3c3c",
".B c #4d4d4d",
"#h c #191919",
"#3 c #969696",
"#0 c #b0b0b0",
".a c #0000ff",
"#I c #01017d",
"#j c #030372",
".D c #1f1f7b",
"#H c #282828",
".7 c #353539",
"#k c #363636",
"#G c #3d3d3d",
"ac c #3e3e3e",
"#u c #414141",
"ab c #494949",
"#z c #4f4f4f",
"#l c #5b5b5b",
".s c #5e1919",
"#A c #5e5e5e",
".H c #615555",
".4 c #616161",
".I c #636363",
"#F c #6a6a6a",
".T c #747474",
"#R c #781578",
"#O c #787878",
"#t c #7a7a7a",
"#V c #7b7b7b",
"#N c #7e7e7e",
".o c #7f0000",
".V c #7f7f7f",
"#M c #828282",
"#J c #832083",
"#P c #838383",
"#W c #870b87",
".U c #890a0a",
"#Q c #8a8a8a",
"#S c #8c108c",
".n c #8f0000",
"#m c #928282",
".8 c #929292",
"#B c #937878",
".v c #9b1b1b",
"#C c #9f7f7f",
".J c #9f9f9f",
"#L c #a3a3a3",
".W c #a4a4a4",
"#K c #a5a5a5",
"#g c #a6a6a6",
".K c #a7a7a7",
".9 c #aaaaaa",
".X c #ababab",
"#D c #ad5252",
".Y c #b0b0b0",
".S c #b1b1b1",
"#7 c #b5b5b5",
".w c #b86161",
"#U c #b8b8b8",
"#. c #baa3a3",
".G c #bb0c0c",
"#E c #bb1414",
"#s c #bcbcbc",
".x c #bd7e7e",
".A c #bd9e9e",
".y c #c28282",
".L c #c29292",
"#2 c #c2c2c2",
".z c #c38383",
"a. c #c5c5c5",
".Z c #c69797",
"#6 c #c7c7c7",
"#f c #c8c8c8",
".r c #c90202",
"#T c #cccccc",
"#1 c #cfcfcf",
".3 c #d0d0d0",
".R c #d3d3d3",
"#b c #d69797",
"#n c #d75858",
".M c #d87979",
"#e c #d8b8b8",
".0 c #d97a7a",
"#c c #d99a9a",
"#a c #db7171",
".N c #db7c7c",
"#d c #dd9d9d",
".1 c #de7e7e",
".O c #df8080",
".2 c #e08080",
"#p c #e36464",
"#q c #e66767",
".P c #e67373",
"#r c #e67676",
".Q c #e96969",
"#o c #f32424",
"## c #f61717",
".b c #ff0000",
".# c #ff00ff",
"#X c #ff4040",
"QtQtQtQtQtQtQtQtQtQtQtQtQtQtQtQtQtQtQtQtQtQtQtQtQtQtQtQtQtQtQtQt",
"QtQtQtQtQtQtQt.#.#.#.#.#.#.#.#.#.#.#.#.#.#.#.#.#QtQtQtQtQtQtQtQt",
"QtQtQtQtQtQtQt.#.#.#.#.#.#.#.#.#.#.#.#.#.#.#.#.#.#QtQtQtQtQtQtQt",
"QtQtQtQtQtQtQt.#.#QtQtQtQtQt.a.a.a.a.aQtQtQtQt.#.#.#QtQtQtQtQtQt",
"QtQtQtQtQtQtQt.#.#QtQtQtQt.a.aQtQtQt.a.aQtQtQtQt.#.#.#QtQtQtQtQt",
".aQtQtQtQtQtQt.#.#QtQtQtQt.aQtQtQtQtQt.aQtQtQtQtQt.#.#.#QtQtQtQt",
".a.aQtQtQtQtQt.#.#QtQtQt.aQtQtQtQtQtQt.b.b.bQtQtQtQt.#.#.#QtQtQt",
"Qt.a.#.#.#.#.#.#.#.c.c.c.a.c.c.c.c.c.c.b.b.b.c.c.c.c.c.#.#.#.cQt",
"Qt.a.a.#.#.#.#.#.#.c.c.a.c.c.c.c.c.c.c.b.b.b.c.c.c.c.c.c.#.#.#Qt",
"Qt.#.aQtQtQtQtQtQtQtQt.aQtQtQtQtQtQtQtQt.aQtQtQtQtQtQtQtQt.#.#Qt",
"Qt.b.b.bQtQtQtQtQtQtQt.aQtQtQtQtQtQtQtQt.a.aQtQtQtQtQtQtQt.#.#Qt",
"Qt.b.b.bQtQtQtQtQtQtQt.aQtQtQtQtQtQtQtQtQt.aQtQtQtQtQtQtQt.#.#Qt",
"Qt.b.b.bQtQt.c.c.c.c.a.a.c.d.e.e.f.g.c.c.c.a.c.c.c.cQtQtQt.#.#Qt",
"Qt.#.aQtQtQt.c.c.c.c.a.c.c.h.i.i.j.k.c.c.c.a.c.c.c.cQtQtQt.#.#Qt",
"Qt.#.aQtQtQt.c.c.c.c.a.c.l.m.n.o.o.p.q.l.c.a.c.c.c.cQtQtQt.#.#Qt",
"Qt.#.a.aQtQt.c.c.b.r.s.t.u.v.w.x.y.z.A.B.C.D.E.F.c.cQtQtQt.#.#Qt",
"Qt.#.#.aQtQt.c.c.G.H.I.J.K.L.M.N.O.P.Q.R.R.S.T.q.c.cQtQtQt.#.#Qt",
"Qt.#.#.aQtQt.c.c.U.V.W.X.Y.Z.0.1.2.P.Q.R.R.R.3.4.5.cQtQtQt.#.#Qt",
"Qt.#.#.aQtQt.c.c.6.7.8.9#.###a#b#c#d#e.R.R#f#g#h#i.cQtQtQt.#.#Qt",
"Qt.#.#.a.aQt.c.c.a#j#k#l#m#n#o#p#q#r.R#s#t#u#v#w.c.cQtQtQt.#.#Qt",
"Qt.#.#Qt.aQt.c.a.a#x#y.V#z#A#B#C#D#E#F#G#H#I#x.c.c.cQtQtQt.#.#Qt",
"Qt.#.#.#.a.a.a.a.#.#.##J#K#L#M.V#N#O#P#Q#R.a.a.#.#.#.#.#.#.#.#Qt",
"Qt.#.#.#.#.#.#.#.#.#.#.##S.X.R.R#T#U#V#W.#.##X.b.b.#.#.#.#.#.#Qt",
"QtQtQtQtQtQt.c.c.c.c.c.c#Y#Z#0#1#2#3#4#Y.c.c#X.b.b.cQtQtQtQtQtQt",
"QtQtQtQtQtQt.c.c.c.c.c.c.c.c#5#6#7#8.c.c.c.c#X.b.b.aQtQtQtQtQtQt",
"QtQtQtQtQtQt.c.c.c.c.c.c.c.c#9a.#Ka#.c.c.c.c.c.c.c.a.a.a.a.aQtQt",
"QtQtQtQtQtQt.c.c.c.c.c.c.c.caaabacad.c.c.c.c.c.c.c.cQtQtQt.a.a.a",
"QtQtQtQtQtQt.c.c.c.c.c.c.c.c.c.e.e.c.c.c.c.c.c.c.c.cQtQtQtQtQtQt",
"QtQtQtQtQtQt.c.c.c.c.c.c.c.c.c.e.e.c.c.c.c.c.c.c.c.cQtQtQtQtQtQt",
"QtQtQtQtQtQt.c.c.c.c.c.c.c.c.c.e.e.c.c.c.c.c.c.c.c.cQtQtQtQtQtQt",
"QtQtQtQtQtQt.c.c.c.c.c.c.c.c.c.e.e.c.c.c.c.c.c.c.c.cQtQtQtQtQtQt",
"QtQtQtQtQtQt.c.c.c.c.c.c.c.c.c.e.e.c.c.c.c.c.c.c.c.cQtQtQtQtQtQt"};
