/* XPM */
static char *set_otf_size[]={
"32 32 141 2",
"Qt c None",
".a c #000000",
"a. c #000002",
"#z c #0d0703",
"#P c #120502",
"ae c #131516",
"#W c #171413",
"ah c #1f1a17",
"#j c #210f01",
"#H c #21100e",
"ai c #2b211c",
"aj c #2e2e2f",
"aa c #342b1d",
"ad c #382f24",
"#O c #3e3e3e",
"#9 c #443e37",
"ag c #4a4533",
"ak c #4f4a37",
"#F c #624f30",
"#8 c #644533",
"#3 c #675242",
"ab c #6e4c36",
".o c #764e2a",
".b c #764f2b",
".B c #7b5128",
"ac c #7b5848",
"#y c #7d3d15",
"#i c #7f3903",
".# c #800000",
".A c #803a04",
"#V c #804f2f",
".u c #805430",
"#7 c #805a42",
"a# c #807255",
"#2 c #834f31",
".H c #835829",
"#G c #843c1c",
"#r c #944504",
"#1 c #965534",
"#U c #9c5630",
"#N c #a15e3a",
"#x c #a24d0f",
"#h c #a54b04",
"#w c #a6550d",
"#q c #a84d03",
".t c #a84f04",
"## c #aa5004",
"#4 c #b48e6c",
"af c #b79f7c",
"#. c #b85904",
".5 c #b8824c",
"#p c #b95600",
"#g c #ba5904",
".n c #c35f04",
"#E c #c57e5d",
"#T c #c77e5c",
"#6 c #c7825b",
"#M c #cc8062",
"#0 c #d18260",
"#5 c #db9770",
"#v c #dc946e",
"#L c #e29a7e",
"#D c #e69e7c",
"#o c #e76d24",
"#f c #ea7a00",
".c c #ea9d53",
".I c #ea9d54",
"#Z c #eaa282",
".v c #eb9d53",
".p c #eb9d54",
"#S c #eb9e77",
".4 c #ec7804",
".9 c #ee7a04",
".Z c #f17b04",
"#n c #f1ad8c",
".x c #f6ddae",
".r c #f6eab7",
".D c #f7deb0",
"#R c #f8d1be",
"#u c #f9b99a",
".m c #f9efbc",
"#a c #fab28f",
".k c #fb8104",
".l c #fbb168",
".O c #fbb169",
"#I c #fbb490",
".q c #fcb269",
".U c #fcb26a",
".F c #fd7d00",
".R c #fd7e00",
".7 c #fd7f00",
".M c #fd8300",
".G c #fd8400",
".h c #fd8401",
".2 c #fd8500",
".S c #fd8504",
".1 c #fd932e",
".6 c #fd9524",
".W c #fd982e",
".Q c #fda141",
".f c #fda732",
".d c #fdb46a",
"#X c #fdb492",
".0 c #fdd49c",
".P c #fddcb1",
".L c #fe7f00",
".3 c #fe8604",
".g c #fe8800",
".X c #fe8804",
".C c #feb369",
".w c #feb36a",
".V c #fecd9f",
".J c #fed7b7",
"#e c #ff7b16",
".i c #ff8601",
".N c #ff8701",
".z c #ff8900",
".8 c #ff8b04",
".T c #ff8c01",
".Y c #ff8e04",
".j c #ff9101",
".K c #ffa030",
".E c #ffa036",
".y c #ffa13a",
".s c #ffa630",
"#d c #ffc0a0",
"#C c #ffc9ad",
"#K c #ffc9b0",
"#k c #ffd0a8",
"#t c #ffd1b1",
"#Q c #ffd2aa",
"#A c #ffd3aa",
"#m c #ffd7b5",
"#Y c #ffe1c9",
"#B c #ffeace",
"#c c #ffeed8",
"#J c #fff5dc",
"#l c #fff7df",
".e c #fffecc",
"#b c #fffff4",
"#s c #fffff5",
"QtQt.#QtQtQtQtQtQtQtQt.#QtQtQt.aQtQtQtQt.#QtQtQtQtQt.b.c.d.e.f.g",
"QtQt.#QtQtQtQtQtQtQtQt.#QtQt.a.a.aQtQtQt.#QtQtQtQt.b.c.d.e.f.g.h",
".#.#.#.#.#.#.#.#.#.#.#.#.#.a.a.a.a.a.#.#.#.#.#.#.b.c.d.e.f.g.h.i",
"QtQt.#QtQtQtQtQtQtQtQt.#.a.a.a.a.a.a.aQt.#QtQt.b.c.d.e.f.g.h.i.j",
"QtQt.#QtQtQtQtQtQtQtQt.a.a.a.a.a.a.a.a.a.#Qt.b.c.d.e.f.g.h.i.j.k",
"QtQt.#QtQtQtQtQtQtQt.a.a.a.a.a.a.a.a.a.a.a.b.c.l.m.f.g.h.i.j.k.n",
"QtQt.#QtQtQtQtQtQtQtQt.#QtQt.a.a.aQtQtQt.o.p.q.r.s.g.h.i.j.k.n.t",
"QtQt.#QtQtQtQtQtQtQtQt.#QtQt.a.a.aQtQt.u.v.w.x.y.z.h.i.j.k.n.t.A",
"QtQt.#QtQtQtQtQtQtQtQt.#QtQt.a.a.aQt.B.c.C.D.E.F.G.i.j.k.n.t.A.a",
"QtQt.#QtQtQtQtQtQtQtQt.#QtQt.a.a.a.H.I.C.J.K.L.M.N.j.k.n.t.A.aQt",
"QtQt.#QtQt.aQtQtQtQtQt.#QtQt.a.a.a.I.O.P.Q.R.G.S.T.k.a.t.A.aQtQt",
".#.#.#.#.a.a.#.#.#.#.#.#.#.#.a.a.a.U.V.W.R.G.X.Y.Z.n.a.a.a.#.#.#",
"QtQt.#.a.a.aQtQtQtQtQt.#QtQt.a.a.a.0.1.F.2.3.Y.4.n.t.a.a.a.#QtQt",
"QtQt.a.a.a.aQtQtQtQtQt.#Qt.5.a.a.a.6.7.2.3.8.9#.##.A.a.a.a.aQtQt",
"Qt.a.a.a.a.a.a.a.a.a.a.a.a.a.a.a.a.a.a.a.a.a.a.a.a.a.a.a.a.a.aQt",
".a.a.a.a.a.a.a.a.a.a.a.a.a.a.a.a.a.a.a.a.a.a.a.a.a.a.a.a.a.a.a.a",
"Qt.a.a.a.a.a.a.a.a.a.a.a.a.a.a.a.a.a.a.a.a.a.a.a.a.a.a.a.a.a.aQt",
"QtQt.a.a.a.aQtQtQtQt#a#b#c#d.a.a.a#e#f#g#h#i#jQtQtQt.a.a.a.aQtQt",
"QtQt.#.a.a.aQtQtQtQt#k#l#m#n.a.a.a#o#p#q#r#jQtQtQtQt.a.a.a.#QtQt",
"QtQt.#Qt.a.aQtQtQt#a#s#t#u#v.a.a.a#w#x#y#zQtQtQtQtQt.a.aQt.#QtQt",
".#.#.#.#.#.a.#.#.##A#B#C#D#E.a.a.a#F#G#H.#.#.#.#.#.#.a.#.#.#.#.#",
"QtQt.#QtQtQtQtQt#I#J#K#L#M#N.a.a.a#O#PQt.#QtQtQtQtQtQtQtQt.#QtQt",
"QtQt.#QtQtQtQtQt#Q#R#S#T#U#V.a.a.a#WQtQt.#QtQtQtQtQtQtQtQt.#QtQt",
"QtQt.#QtQtQtQt#X#Y#Z#0#1#2#3.a.a.aQtQtQt.#QtQtQtQtQtQtQtQt.#QtQt",
"QtQt.#QtQtQtQt#4#5#6#7#8#9a..a.a.aQtQtQt.#QtQtQtQtQtQtQtQt.#QtQt",
"QtQt.#QtQtQta#aaabacadaeQtQt.a.a.aQtQtQt.#QtQtQtQtQtQtQtQt.#QtQt",
"QtQt.#QtQtafagahai.a.a.a.a.a.a.a.a.a.a.a.aQtQtQtQtQtQtQtQt.#QtQt",
"QtQt.#QtQtaj.a.aQtQtQt.a.a.a.a.a.a.a.a.a.#QtQtQtQtQtQtQtQt.#QtQt",
"QtQt.#QtQtakQtQtQtQtQt.#.a.a.a.a.a.a.aQt.#QtQtQtQtQtQtQtQt.#QtQt",
".#.#.#.#.#.#.#.#.#.#.#.#.#.a.a.a.a.a.#.#.#.#.#.#.#.#.#.#.#.#.#.#",
"QtQt.#QtQtQtQtQtQtQtQt.#QtQt.a.a.aQtQtQt.#QtQtQtQtQtQtQtQt.#QtQt",
"QtQt.#QtQtQtQtQtQtQtQt.#QtQtQt.aQtQtQtQt.#QtQtQtQtQtQtQtQt.#QtQt"};
