/* XPM */
static char *stddev[]={
"32 32 515 2",
"#r c None",
"Qt c None",
"eZ c #000000",
".j c #000000",
"fb c #030000",
"eH c #030100",
"aD c #067805",
"aE c #067b07",
"cf c #070300",
"dA c #0a0300",
"av c #0a0500",
"ga c #0b0800",
"f5 c #0c0800",
"fA c #0d0800",
"bd c #0f0d05",
"a4 c #100c06",
"em c #100e08",
".7 c #110505",
"#N c #120606",
"fc c #130900",
".N c #160b05",
"eE c #181104",
"bT c #1c0f05",
"e. c #1c1004",
"cl c #1d0b04",
"aL c #1d0d05",
"aX c #1e0f07",
".i c #1f0a0a",
"aW c #1f0f04",
"fz c #1f1002",
"bv c #1f1306",
"aF c #1f3e8f",
"dW c #201808",
"bJ c #201d12",
"a8 c #220f04",
"bu c #241206",
"#S c #24af38",
"e9 c #271504",
"#M c #281309",
"ae c #2bb02f",
"cE c #2d190c",
"fG c #2d1d08",
"fp c #2f1f08",
"bj c #2f2917",
"dh c #301c09",
"dV c #30230a",
"eL c #302a17",
"fB c #341d03",
".8 c #341e0f",
"#4 c #386eff",
"af c #38b538",
"an c #3a6fff",
"fh c #3b260b",
"e0 c #3b3019",
"ah c #3bb63e",
".w c #3d2010",
"ao c #3d70ff",
"#2 c #3e71ff",
"ag c #3eb73e",
"ex c #3f371e",
"bI c #3f3820",
"#3 c #3f72ff",
"bZ c #400808",
"d3 c #40381f",
"du c #403820",
"da c #403821",
"cv c #403921",
"bo c #403d2a",
"bn c #403e28",
"bp c #403e2c",
"aT c #414617",
"#1 c #4271fc",
"eY c #442c0f",
"ap c #4471f7",
".O c #452e17",
"fi c #472c0b",
"fH c #482400",
"aM c #482c15",
"ad c #4aa728",
"aG c #4b65a9",
".h c #4c2713",
"cZ c #4f3112",
"cY c #502e0e",
"fW c #503309",
"#9 c #532a15",
"g# c #53360d",
"e8 c #533610",
"aq c #5377e9",
"#q c #552b15",
".x c #55301c",
".P c #562f1b",
"f6 c #56380b",
"f4 c #56380f",
"fj c #563912",
"am c #577ef2",
".g c #5b2f16",
"bU c #5b3d18",
"eu c #5b4214",
"dP c #5c3811",
"#5 c #5c81eb",
".M c #5d321a",
"d4 c #5f5533",
"a5 c #5f5f47",
"#H c #5f87fb",
"#B c #60b546",
"a9 c #623e1b",
"#w c #62b94d",
"aw c #633c1e",
"eF c #634114",
"#F c #638bfd",
".6 c #64361c",
".U c #64ba54",
"bi c #65592f",
"#G c #658eff",
".k c #66391e",
"#W c #66c76f",
".y c #683b21",
"#T c #68c96d",
".b c #69381e",
".# c #693d1a",
"fN c #69440f",
"fd c #694a19",
".a c #6a3a1e",
"fg c #6b4d1e",
"#s c #6c4023",
".c c #6d3d21",
".l c #6f3d22",
"#U c #6fca6f",
".f c #703d1f",
"fv c #704914",
"ee c #705016",
"eK c #705f30",
"dE c #72320d",
".e c #724124",
".d c #724224",
"cD c #724416",
".v c #73431f",
"#O c #734524",
".9 c #744226",
"dm c #754c1a",
"#x c #76cb7a",
"#V c #76cd78",
"c3 c #774419",
"cJ c #775e22",
"au c #794a27",
"a. c #7a4a25",
"dl c #7b0100",
"ai c #7bb045",
"ck c #7f0000",
"dF c #7f6121",
"fe c #7f6528",
"ff c #7f662d",
"el c #7f6d3a",
"b8 c #7f7040",
"b9 c #7f7549",
".m c #82502f",
"b0 c #833717",
"#i c #85a1ff",
"#X c #85b454",
"#z c #87cb7e",
".Q c #8a582f",
"ev c #8a672a",
"fo c #8b5a19",
"fM c #8b5e1c",
"#L c #8c5f3b",
"eG c #8c6126",
"fk c #8c6629",
"#v c #8cbd40",
"bc c #8e4238",
"ce c #8e5b27",
"be c #8e7735",
"#R c #8eb331",
"ef c #8f773a",
"eM c #8f7c45",
"dz c #915b1e",
"aK c #91643a",
".z c #946539",
".u c #946a3f",
"f7 c #966216",
".Z c #96a6e4",
"#A c #96c96f",
"fq c #996922",
"#m c #99b3ff",
"bS c #9a6833",
".L c #9c7144",
".3 c #9cb3fe",
"a3 c #9d6727",
"bB c #9d8338",
".n c #9e7444",
"e1 c #9e8549",
"bA c #9f4e50",
"aS c #9f813a",
"ey c #9f8c51",
"en c #9f8f56",
"aY c #a06a29",
"aV c #a17848",
"#k c #a2bbff",
"cg c #a36924",
"aH c #a3a07b",
"#c c #a3dda8",
"bt c #a47742",
"#l c #a4bdff",
"#b c #a4c24f",
"fu c #a5701d",
"a7 c #a67d4a",
".J c #a6b2da",
"#j c #a7c0ff",
"#y c #a8e1ac",
"fI c #a96f21",
".K c #a9a094",
"d9 c #aa6d24",
"eD c #ac6e21",
"#p c #ad8c5f",
".T c #add264",
"g. c #ae741c",
"dg c #b07835",
".t c #b09362",
".I c #b0c0ea",
"aI c #b2af7f",
"bw c #b36a24",
"#. c #b38041",
"#E c #b3b8bd",
".0 c #b5c6ff",
".5 c #b69761",
"fT c #b77e25",
"#d c #b7d6a3",
"#n c #b8c2c7",
".o c #b9965a",
"eX c #bc7e23",
"fn c #bd812b",
"aJ c #bdbc8a",
".H c #bec7d2",
"cm c #bf8334",
"dL c #bfae6c",
"dv c #bfaf6e",
"bK c #bfb06f",
"cT c #bfb070",
"cw c #bfb071",
"aU c #bfbf8d",
"fX c #c18224",
"e7 c #c28027",
"f8 c #c28425",
"aC c #c2b347",
"aN c #c38030",
".A c #c49f54",
"#I c #c4c9b9",
"fl c #c59645",
"#8 c #c5ab78",
".4 c #c5cbbc",
"ar c #c6ccb7",
"cX c #c89b57",
"eS c #c9852b",
".B c #cac361",
"dO c #cb974b",
".p c #ccad6c",
"#t c #ce9a47",
"fJ c #cf8e2b",
"dX c #cf9e39",
".2 c #cfdcff",
"cF c #d08a25",
".s c #d0b670",
"bk c #d0bd76",
"f9 c #d28f2a",
"fm c #d29b41",
".R c #d3a657",
"fR c #d48d24",
".1 c #d6e1ff",
".q c #d7bc79",
"ax c #d8a13c",
".r c #d8c07b",
"#C c #d9d176",
"ac c #dac04d",
"#0 c #dad2a6",
"fF c #db9521",
"cC c #dbc07d",
"#h c #dbd0a5",
"dU c #dca32a",
"#P c #dca446",
"a# c #dea340",
"fC c #dea648",
"ew c #dfbc61",
"bH c #dfc36e",
"#6 c #dfe3ba",
"fQ c #e19621",
"#e c #e2cd6c",
"fy c #e3a138",
"dy c #e3c87f",
"b. c #e6a92f",
".V c #e6d277",
"bV c #e78422",
"fS c #e79e2d",
"e6 c #e9b353",
"al c #e9da9b",
"eR c #ebc268",
"d8 c #ebcf82",
"cd c #ebde9d",
"at c #ebe2a4",
"a1 c #ed9d42",
"f3 c #eeaa3d",
"fO c #f0b958",
"#u c #f0d059",
"#Y c #f0da83",
"d5 c #f0da87",
"a6 c #f0efb1",
"fY c #f1b952",
"#a c #f1d764",
".Y c #f1e39c",
"fw c #f3af3d",
"ci c #f47c1c",
"aj c #f5d67f",
"#K c #f5f2b3",
"#f c #f6e385",
"cI c #f76519",
"dD c #f77c1c",
".G c #f8efa8",
"cj c #f90e02",
"aP c #f9ba41",
"f2 c #f9ce6f",
"df c #f9efa7",
"f1 c #fae28e",
"bR c #faf5b4",
"bb c #fb847a",
"aZ c #fba331",
"b1 c #fbd259",
"fZ c #fbd87e",
"e5 c #fbdb7f",
"by c #fc732a",
"a0 c #fc7a73",
"f0 c #fce490",
"bW c #fd1e12",
"c2 c #fd721c",
"a2 c #fdb33a",
"ch c #fdb526",
"dT c #fdb628",
"cH c #fdc02c",
"bh c #fdd471",
"#D c #fded94",
"bz c #fe6969",
"ba c #feb2b0",
"fK c #fec145",
"cK c #fecb4e",
"## c #fecc65",
".C c #fee589",
"#g c #feec8d",
"dN c #fef6aa",
"bs c #fefdbb",
"bX c #ff181d",
"bY c #ff1e1e",
"dk c #ff5213",
"aO c #ff8026",
"bx c #ff9027",
"ft c #ffaa18",
"f# c #ffab1b",
"eq c #ffac1c",
"eU c #ffac1e",
"ea c #ffad1e",
"b# c #ffad33",
"dR c #ffae1f",
"dB c #ffae20",
"eb c #ffae21",
"dS c #ffae22",
"fE c #ffaf19",
"eV c #ffaf21",
"er c #ffaf24",
"di c #ffb020",
"ec c #ffb126",
"c0 c #ffb221",
"es c #ffb32a",
"cG c #ffb423",
"fa c #ffb526",
"eW c #ffb527",
"fP c #ffb52b",
"ed c #ffb52c",
"dC c #ffb625",
"et c #ffb830",
"dQ c #ffb931",
"eT c #ffba32",
"c1 c #ffbb29",
"dj c #ffbd28",
"e# c #ffbd39",
"fL c #ffbf46",
"fD c #ffc144",
"dG c #ffc248",
"ep c #ffc447",
"fs c #ffc448",
"az c #ffc54c",
"dH c #ffc54e",
"dn c #ffc74b",
"do c #ffc74f",
"c5 c #ffc751",
"aQ c #ffc84c",
"dY c #ffc851",
"aA c #ffc852",
"cL c #ffc853",
"dI c #ffc954",
"ei c #ffc955",
"dp c #ffc956",
"ay c #ffca48",
"fx c #ffca50",
"eh c #ffcb56",
"ab c #ffcb57",
"cM c #ffcb59",
"c4 c #ffcc4d",
"aR c #ffcc53",
"co c #ffcc5a",
"aa c #ffcd50",
"eI c #ffcd55",
"cn c #ffcd56",
"dq c #ffcd5c",
"b2 c #ffce5d",
"c6 c #ffce5e",
"cN c #ffce5f",
"fV c #ffce60",
"aB c #ffcf5e",
"eJ c #ffcf5f",
"fU c #ffd05c",
"cp c #ffd060",
"dr c #ffd062",
"b3 c #ffd063",
"c7 c #ffd064",
"bf c #ffd068",
"ej c #ffd163",
"cO c #ffd165",
"bC c #ffd261",
"dZ c #ffd264",
"bD c #ffd265",
"dJ c #ffd267",
"cq c #ffd366",
"ds c #ffd368",
"f. c #ffd466",
"b4 c #ffd468",
"c8 c #ffd469",
"bE c #ffd46a",
"cP c #ffd46b",
"d0 c #ffd56b",
"#Q c #ffd65e",
"dK c #ffd66c",
"cr c #ffd66d",
"ek c #ffd66f",
"b5 c #ffd76e",
"c9 c #ffd770",
"d1 c #ffd870",
"cQ c #ffd871",
"bg c #ffd872",
"eg c #ffd96d",
"bF c #ffd972",
"cs c #ffd973",
"b6 c #ffd974",
".S c #ffda73",
"dt c #ffda74",
"d. c #ffda76",
"d2 c #ffdb76",
"cR c #ffdb78",
"ct c #ffdc79",
"bG c #ffdd79",
"b7 c #ffdd7a",
"d# c #ffdd7c",
"cS c #ffde7d",
"eN c #ffdf7d",
"cu c #ffdf7f",
"fr c #ffe086",
"eO c #ffe284",
"ez c #ffe385",
"e4 c #ffe588",
"eA c #ffe58b",
"e2 c #ffe687",
"e3 c #ffe789",
"eP c #ffe88d",
"eo c #ffe88f",
".W c #ffe98f",
"eB c #ffea93",
"ak c #ffeb8b",
"d6 c #ffeb95",
".X c #ffec91",
"eQ c #ffec94",
"bl c #ffec96",
"c. c #ffed99",
"db c #ffed9a",
"d7 c #ffed9b",
"bL c #ffee9a",
"cU c #ffee9b",
"dM c #ffee9d",
"cx c #ffef9e",
"c# c #ffef9f",
"dw c #fff09f",
"dc c #fff0a0",
".D c #fff194",
"bM c #fff1a1",
"#Z c #fff28f",
"cy c #fff2a3",
".E c #fff39a",
"eC c #fff39e",
"ca c #fff3a5",
"bm c #fff49b",
"dd c #fff4a6",
"bN c #fff4a7",
"cz c #fff5aa",
"cb c #fff6ab",
"bO c #fff7ad",
".F c #fff89d",
"cV c #fff8ae",
"cA c #fff8af",
"cc c #fff9b1",
"de c #fffaaf",
"bP c #fffab3",
"bq c #fffbb4",
"cW c #fffdb7",
"dx c #fffeb2",
"bQ c #ffffbb",
"br c #ffffbc",
"#o c #ffffbd",
"cB c #ffffbe",
"#J c #ffffbf",
"as c #ffffc1",
"#7 c #ffffc6",
"QtQtQtQtQtQtQtQtQtQtQtQtQtQtQt.#.a.b.c.d.e.f.g.h.iQtQtQtQtQtQtQt",
"QtQtQtQtQtQtQtQtQtQtQtQt.j.k.l.m.n.o.p.q.r.s.t.u.v.w.jQtQtQtQtQt",
"QtQtQtQtQtQtQtQtQtQtQt.x.y.z.A.B.C.D.E.F.G.H.I.J.K.L.M.NQtQtQtQt",
"QtQtQtQtQtQtQtQtQt.O.P.Q.R.S.T.U.V.W.X.Y.Z.0.1.2.3.4.5.6.7QtQtQt",
"QtQtQtQtQtQtQtQt.8.9#.###a#b#c#d#e#f#g#h#i#j#k#l#m#n#o#p#q.jQtQt",
"QtQtQtQtQt#r#r.7#s#t#u#v#w#x#y#z#A#B#C#D#E#F#G#G#H#I#J#K#L#MQtQt",
"QtQtQtQtQt#r#N#O#P#Q#R#S#T#U#U#V#W#X#Y#Z#0#1#2#3#4#5#6#7#8#9.jQt",
"QtQtQtQtQt.ia.a#aaabacadaeafagahaiajakalaman#3aoapaqarasatauavQt",
"QtQtQtQt.jawaxayazaAaBaCaDaE.j.j.j.j.j.j.j.jaFaGaHaI.j.jaJaKaLQt",
"QtQtQtQtaMaNaOaPaQaRaSaT.j.j.j.j.j.j.j.j.j.j.j.j.j.j.j.jaUaVaWQt",
"QtQtQtaXaYaZa0a1a2a3a4.j.j.j.j.j.j.j.j.j.j.j.j.j.j.j.ja5a6a7a8Qt",
"QtQtQta9b.b#babbbc.j.jbdbebfbgbhbibj.j.jbkblbmbnbobpbqbrbsbtbuQt",
"QtQtbvbwbxbybzbA.j.j.jbBbCbDbEbFbGbHbI.jbJbKbLbMbNbObPbQbRbSbTQt",
"QtQtbUbVbWbXbYbZ.j.jb0b1b2b3b4b5b6b7b8.j.jb9c.c#cacbcc#ocdcecfQt",
"QtQtcgchcicjck.j.jclcmcncocpcqcrcsctcucv.j.jcwcxcyczcAcBcCcD.jQt",
"QtcEcFcGcHcIck.j.jcJcKcLcMcNcOcPcQcRcScv.j.jcTcUbMbNcVcWcXcY.jQt",
"QtcZcFc0c1c2ck.j.jc3c4c5abc6c7c8c9d.d#da.j.jbKdbdcdddedfdgdhQtQt",
"QtcZcFdidjdkdl.j.jdmdndodpdqdrdsb5dtb7du.j.jdvc.dwdddxdydzdAQtQt",
"QtcZcFdBdCdDdE.j.jdFdGdHdIcocodJdKcscRdu.j.jdLbldMdddNdOdP.jQtQt",
"QtcZdQdRdSdTdUdV.jdWdXazdYcMcodZd0d1d2d3.jd4d5d6d7d7d8d9e.QtQtQt",
"QtcZe#eaebecedee.j.jefegeheicoejc8ekel.jemeneod6d7ddd9e.#rQtQtQt",
"QtcZepeqebereseteu.j.jeveheicoejc8ewex.jeyezeAeBeCd8eDeE#rQtQtQt",
"QteFcFeqebereseteG.j.jeHeveIcoeJeKeL.jeMeNeOePeQeReSe..j#rQtQtQt",
"QteFcFeTeUeVeWeXeY.jeZ.j.j.j.j.j.je0e1e2e3e4e5e6e7e8e.#r#rQtQtQt",
"Qte9cFf.f#dBfaeXfb#r#rfcfdfefffgfhfifjfkflfmfnfofp.j#r#r#rQtQtQt",
"Qt.jfqfrfsftdCfu.j#r#rfvfwfxfye..j.j.j.jdAfzfA.j.j#r#r#r#rQtQtQt",
"QtQtfBfCblfDfEfFfGfHfIfJfKfLfMe.#r#r#r#r#r#r#r#r#r#r#r#r#rQtQtQt",
"QtQt.jfNfOdcf.fPfQfRfSfSfKfTfMe.#r#r#r#r#r#r#r#r#r#r#r#r#rQtQtQt",
"QtQtQtfBfNfOdcfUfUfUfUfUfVfT.je.#r#r#r#r#r#r#r#r#r#r#r#r#rQtQtQt",
"QtQtQtQt.jfWfXfYfZf0f1f2f3f4.jQtQtQtQtQtQtQtQtQtQtQtQtQtQtQtQtQt",
"QtQtQtQtQtQtf5f6f7f8f9g.g#.jQtQtQtQtQtQtQtQtQtQtQtQtQtQtQtQtQtQt",
"QtQtQtQtQtQtQt.j.jcfga.j.jQtQtQtQtQtQtQtQtQtQtQtQtQtQtQtQtQtQtQt"};
