/* XPM */
static char *sunangle[]={
"32 32 123 2",
"#4 c None",
"Qt c None",
"#W c #000000",
"#0 c #c67309",
"#T c #d19400",
".# c #d38700",
"#U c #d87400",
"#O c #d98900",
"#H c #dd8000",
"#P c #df8613",
"#B c #e08b10",
"#s c #e28901",
"#h c #e49814",
"#1 c #e6ab5e",
".8 c #e8ae40",
"#G c #eaac00",
"#Y c #ead7ae",
"#A c #eda609",
"#I c #edbb82",
"#S c #edbe3a",
"#t c #edcc3b",
"#3 c #eee1c3",
"#i c #efd13e",
"#Z c #f1c345",
".l c #f1ea5b",
".X c #f2c649",
".M c #f3cf82",
"#r c #f4bd1f",
"#V c #f4c890",
"#z c #f4ce40",
".A c #f4d174",
".Y c #f4d8ab",
".7 c #f5cb3e",
".z c #f5d657",
".L c #f5d963",
".o c #f5e48d",
"#Q c #f5e6d3",
"#K c #f6cd52",
"#C c #f6d871",
".n c #f6e253",
".m c #f6e554",
"#R c #f6e7b2",
".9 c #f7d848",
".p c #f7efcf",
"#q c #f8d753",
".k c #f8e974",
"#g c #f9d235",
".Z c #f9df62",
"#p c #f9f0a3",
".y c #f9f17d",
".W c #f9f59c",
"#n c #f9f5d5",
"#d c #f9f6ef",
"#f c #faea89",
".u c #faf6a5",
"#j c #faf785",
"#c c #faf7e6",
".4 c #faf8f6",
".B c #faf9ef",
"#o c #fafffb",
"#D c #fbde60",
"#u c #fbf07b",
".j c #fbf1aa",
".t c #fbf27d",
"#J c #fbf4e2",
".0 c #fbf6b7",
".V c #fbf8c1",
".K c #fbf994",
"#e c #fbf9d0",
".J c #fbf9d3",
".U c #fbf9ee",
".3 c #fbfaf9",
".N c #fbfcf7",
"#. c #fbfdac",
"#y c #fce781",
".O c #fcf1a5",
".P c #fcf28c",
".6 c #fcf29c",
".5 c #fcf8ce",
".Q c #fcf9de",
".1 c #fcfae9",
".T c #fcfaee",
"## c #fcfbea",
"#x c #fcfddd",
".q c #fcfdfb",
".x c #fcffa9",
".v c #fcffbb",
".c c #fcffef",
".g c #fcfffa",
".C c #fde669",
"#L c #fde670",
".D c #fdf4a3",
"#k c #fdfacf",
".I c #fdfce3",
".2 c #fdfcfa",
".R c #fdfdfa",
".S c #fdfdfc",
".w c #fdffbc",
".E c #fdffdc",
".f c #fdffe8",
".e c #fdffe9",
".d c #fdffeb",
"#m c #fdffff",
".s c #fedf4a",
".r c #fef6db",
".i c #fef9f1",
".F c #fefdf3",
"#b c #fefdfd",
".G c #fefdff",
".H c #fefee8",
"#a c #fefefb",
".h c #fefeff",
"#v c #feffa0",
".b c #feffff",
"#E c #fffa8f",
"#2 c #fffcf7",
"#N c #fffeb0",
"#w c #fffeb2",
"#l c #fffee8",
"#X c #fffeff",
"#M c #ffffaa",
"#F c #ffffab",
".a c #ffffff",
"QtQtQtQtQtQtQtQt.#.a.a.#.#.#Qt.#.a.a.a.#.#.a.a.#Qt.#.#.a.#QtQtQt",
"QtQtQtQtQtQtQtQtQt.#.a.a.a.a.#.#.a.a.a.a.a.a.a.#.#.a.a.#QtQtQt.#",
"QtQtQtQtQtQtQtQtQtQt.#.a.a.a.a.a.a.b.c.d.e.f.g.h.a.a.a.#Qt.#.#.a",
"QtQt.#.#.#.#QtQtQtQtQt.#.#.a.a.a.i.j.k.l.m.n.o.p.q.a.#.#.#.a.a.#",
".#.#.a.a.a.a.#.#.#.#.#.#.#.a.a.r.s.t.u.v.w.x.y.z.A.B.a.a.a.a.#Qt",
"QtQt.#.#.#.a.a.a.a.a.a.a.a.a.a.C.D.E.F.G.H.I.J.K.L.M.N.a.a.#QtQt",
"QtQtQtQtQt.#.#.#.a.a.a.a.a.a.O.P.Q.R.S.h.R.T.U.V.W.X.Y.a.a.#QtQt",
"QtQtQtQtQtQtQtQt.#.#.#.a.a.b.Z.0.1.2.h.a.a.3.4.5.6.7.8.a.a.a.#.#",
"QtQtQtQtQtQtQtQtQtQtQt.#.a.b.9#.###a.h#b.a#c#d#e#f#g#h.a.a.a.a.a",
"QtQtQtQtQtQtQtQtQtQt.#.#.a.b#i#j#k#l#m#n#o#e#e#p#q#r#s.a.a.a.#.#",
"QtQtQtQtQtQtQtQt.#.#.a.a.a.b#t#u#v#w#x#e#e#e#e#y#z#A#B.a.a.#QtQt",
"QtQtQt.#.#.#.#.#.a.a.a.a.a.a#C#D#E#F#e#e#e#y#y#q#G#H#I.a.a.#QtQt",
"Qt.#.#.a.a.a.a.a.#.a.a.a.a.a#J#K#L#M#N#y#y#y#q#q#O#P#Q.a.a.a.#.#",
"QtQtQt.#.#.#.#.#Qt.#.#.#.a.a.b#R#S.8#q#q#q#q#T.##U#V.a.a.a.a.a.a",
"QtQt#W#WQtQtQtQtQtQt.#.a.a.a.##X#Y#Z.8.#.#.#.##0#1#2.a.#.#.#.a.a",
"QtQt#W#W#W#WQtQtQt.#.a.#.#.#.#.a.a#3#1#1#1#1#1.a.a.a.a.#QtQt.#.a",
"QtQt#W#W#W#W#W#W.#.a.#QtQt.#.a.a.#.a.a.a.a.a.a.a.#.a.a.#QtQtQt.#",
"QtQt#W#WQtQt#W#W#W#W#4QtQt.#.a.#.#.a.a.#.#.a.a.a.#.#.a.a.#QtQtQt",
"QtQt#W#WQtQt.#.a#W#W#W#W.#.a.#Qt.#.a.a.#Qt.#.a.a.#Qt.#.a.a.#QtQt",
"QtQt#W#WQt.#.a.a.#Qt#W#W#W#W.#Qt.#.a.#QtQtQt.#.a.#QtQt.#.a.a.#Qt",
"QtQt#W#W.#.a.a.#Qt.#.a.a#W#W#W#W.#.a.#QtQtQt.#.a.#QtQtQt.#.a.a.#",
"QtQt#W#W.#.#.#QtQt.#.a.#QtQt#W#W#W#W.#QtQtQtQt.#.a.#QtQtQt.#.a.#",
"QtQt#W#W.#QtQtQt.#.a.a.#QtQtQt.##W#W#W#WQtQtQtQt.#.a.#QtQtQt.#.#",
"QtQt#W#WQtQtQtQt.#.a.#QtQtQtQt.#.a.##W#W#W#WQtQt.#.a.#QtQtQtQtQt",
"QtQt#W#WQtQtQtQt.#.#QtQtQtQtQt.#.a.#QtQt#W#W#W#WQt.#.#QtQtQtQtQt",
"QtQt#W#WQtQtQt.#QtQtQtQtQtQtQt.#.a.#QtQtQtQt#W#W#W#WQt.#QtQtQtQt",
"QtQt#W#WQtQt#4QtQtQtQtQtQtQtQtQt.#QtQtQtQtQtQtQt#W#W#W#WQtQtQtQt",
"QtQt#W#W#W#W#W#W#W#W#W#W#W#W#W#W#W#W#W#W#W#W#W#W#W#W#W#W#WQtQtQt",
"QtQt#W#W#W#W#W#W#W#W#W#W#W#W#W#W#W#W#W#W#W#W#W#W#W#W#W#W#W#WQtQt",
"QtQtQtQtQtQtQtQtQtQtQtQtQtQtQtQtQtQtQtQtQtQtQtQtQtQtQtQtQtQtQtQt",
"QtQtQtQtQtQtQtQtQtQtQtQtQtQtQtQtQtQtQtQtQtQtQtQtQtQtQtQtQtQtQtQt",
"QtQtQtQtQtQtQtQtQtQtQtQtQtQtQtQtQtQtQtQtQtQtQtQtQtQtQtQtQtQtQtQt"};
