/* XPM */
static char *charts_pic[]={
"32 32 272 2",
"Qt c None",
".e c #000000",
".# c #060606",
".d c #060606",
".O c #090909",
"cg c #0e0e0e",
"cn c #111111",
".n c #1a1a1a",
".a c #191919",
".c c #181818",
".o c #2d2d2d",
"ch c #212121",
"#v c #171717",
"#X c #181818",
"a. c #191919",
"ar c #1a1a1a",
"aV c #1b1b1b",
"a9 c #1c1c1c",
"bJ c #1d1d1d",
"bR c #1e1e1e",
"bX c #1f1f1f",
"b8 c #212121",
"#d c #181818",
"ca c #222222",
".b c #1a1a1a",
"cb c #3a3a3a",
".P c #313131",
".f c #333333",
".z c #363636",
".w c #383838",
".x c #383838",
".y c #393939",
".p c #3c3c3c",
"cm c #2a2a2a",
"cl c #2b2b2b",
"ck c #2c2c2c",
"cj c #2d2d2d",
"ci c #2f2f2f",
".v c #383838",
".h c #424242",
".i c #434343",
".g c #434343",
".m c #464646",
".j c #484848",
".k c #494948",
".l c #4a4949",
"#w c #565656",
"#Y c #575757",
"a# c #585858",
"#e c #565656",
"b9 c #636363",
".A c #696969",
".q c #646464",
".u c #646464",
"cf c #7d7d7d",
".N c #999999",
"cc c #d3d3d3",
".Q c #dbdbdb",
".r c #737373",
"b5 c #6c6c6c",
"bB c #707070",
"bn c #717171",
".t c #747474",
"b7 c #818181",
"a8 c #989898",
"aH c #a6a6a6",
"aU c #a7a7a7",
"aq c #a8a8a8",
"#9 c #aaaaaa",
"#W c #ababab",
"#J c #b1afad",
"#u c #bab7b1",
"aR c #000000",
"bj c #000007",
"a4 c #000314",
"aB c #030203",
"aZ c #08090c",
"az c #0f1524",
"ay c #100f0e",
"be c #10100f",
"aN c #112454",
"aA c #181f31",
"#s c #2061c3",
"a0 c #2550b0",
"aM c #262422",
"bf c #2d55a0",
"aQ c #324b89",
"bs c #343e4e",
"bw c #353331",
"a3 c #3e72e1",
"bv c #485a71",
"bi c #497cd5",
"aC c #4c4c4b",
"a5 c #4f4e4b",
"a1 c #588cf4",
"bk c #5b5a58",
"a2 c #5c8eee",
"al c #605f5c",
"bg c #639ffc",
"#r c #6799dc",
"bh c #69a3f9",
"br c #6d6c69",
"ak c #6e6d6a",
".s c #737373",
"bt c #759dca",
"bF c #767675",
"bG c #777777",
"aS c #787776",
"b4 c #787878",
"b2 c #7a7a7a",
"b3 c #7b7b7b",
"bW c #7d7d7d",
"bI c #7e7e7e",
"bA c #7f7f7f",
"bz c #808080",
"#q c #809fd3",
"bV c #818181",
"bH c #82807d",
"bm c #828282",
"bu c #82add7",
"b0 c #838383",
"bl c #868686",
"bU c #898989",
"#t c #89a2ce",
"aO c #8aa7ef",
"bZ c #8c8c8c",
"bQ c #8d8d8d",
"bM c #8f8f8f",
"am c #919190",
"bc c #919191",
"#H c #91b0d7",
"bp c #929292",
"bE c #93918f",
"aX c #939393",
"bS c #949494",
"#G c #94b5db",
"aK c #959595",
"b6 c #969696",
"ag c #979797",
"bL c #989898",
"bD c #999999",
"bT c #9a9a9a",
"aP c #9ab6f7",
"bx c #9b9b9a",
"aw c #9b9b9b",
"bb c #9c9c9c",
"bC c #9d9d9d",
"af c #9e9e9e",
"aJ c #9f9f9f",
"ae c #a0a0a0",
"bK c #a1a1a1",
"b# c #a2a2a2",
"ba c #a3a3a3",
"aE c #a4a4a4",
"aW c #a5a5a5",
"ao c #a6a6a6",
"#F c #a6bad7",
"au c #a7a7a7",
"ax c #a8a8a7",
"ad c #a8a8a8",
"av c #a9a9a9",
"#6 c #aaaaaa",
"at c #ababab",
"ac c #acacac",
"as c #adadad",
"ab c #aeaeae",
"aD c #afafaf",
"aI c #b0b0b0",
"aa c #b1b1b1",
"ap c #b2b2b2",
"#7 c #b3b3b3",
"ce c #b4b4b4",
"aj c #b5b4b4",
"by c #b5b5b5",
"#5 c #b6b6b6",
"an c #b8b8b8",
"#a c #b8c8e5",
"bP c #b9b9b9",
"#c c #bab8b6",
"cd c #bababa",
"#N c #bbbbbb",
"#b c #bbc7dc",
"#4 c #bcbcbc",
"a7 c #bdbdbd",
"bY c #bebebe",
"#3 c #bfbfbf",
"#I c #bfcad9",
"aF c #c0c0c0",
"#R c #c1c1c1",
"#M c #c2c2c2",
"#. c #c2cde0",
"#O c #c3c3c3",
"#B c #c4c4c4",
"#l c #c5c5c5",
"aY c #c6c6c4",
"a6 c #c6c6c6",
"ah c #c7c7c7",
"#8 c #c8c8c8",
"b1 c #c9c9c9",
"#n c #cacaca",
"bO c #cbcbca",
"#K c #cbcbcb",
"#1 c #cccccc",
"bo c #cdcdcd",
"ai c #cdcdce",
"#o c #cecdcd",
"#L c #cecece",
"b. c #cfcfcf",
"bd c #d0cfce",
"aT c #d0d0d0",
"c# c #d1d1d1",
"#m c #d2d2d2",
"aG c #d3d3d3",
"bN c #d4d4d3",
"#0 c #d4d4d4",
"#k c #d5d5d5",
".4 c #d6d6d6",
".2 c #d7d7d7",
".5 c #d8d8d8",
"#p c #d8d8d9",
"## c #d8e0ef",
"#j c #d9d9d9",
".9 c #d9dadd",
"#Q c #dadada",
".8 c #dbdada",
"#A c #dbdbdb",
"#E c #dcdbdb",
"#D c #dcdcdc",
"#V c #dddcd9",
".3 c #dddddd",
"aL c #dededd",
"#z c #dedede",
"c. c #dfdfdf",
".1 c #e0e0e0",
"#y c #e1e1e1",
"#P c #e2e2e2",
"#U c #e3dfd9",
"#T c #e3dfda",
"#i c #e3e3e3",
"#S c #e4e2de",
".6 c #e4e4e4",
"#x c #e5e5e5",
"#Z c #e6e6e6",
".0 c #e7e7e7",
".7 c #e8e8e8",
".Z c #e9e9e9",
".Y c #eaeaea",
"#h c #ebebeb",
".X c #ececec",
".W c #ededed",
"bq c #eeeeee",
".V c #efefef",
".T c #f0f0f0",
".U c #f1f1f1",
".S c #f2f2f2",
".J c #f2f2f3",
".K c #f3f3f3",
".M c #f4f4f3",
".B c #f4f4f4",
".H c #f5f5f5",
".L c #f6f5f4",
".G c #f6f6f6",
".I c #f6f7f7",
"#g c #f7f7f7",
".F c #f8f8f8",
".E c #f9f9f9",
".D c #fafafa",
".R c #fbfbfb",
"#C c #fcfcfc",
"#2 c #fdfdfd",
".C c #fefefe",
"#f c #ffffff",
"QtQtQtQtQtQtQtQtQtQtQtQtQtQtQtQtQtQtQtQtQtQtQtQtQtQtQtQtQtQtQtQt",
"QtQtQtQtQtQtQtQtQtQtQtQtQtQtQtQtQtQtQtQtQtQtQtQtQtQtQtQtQtQtQtQt",
"QtQtQtQtQtQtQtQtQtQtQtQtQtQtQtQtQtQtQtQtQtQtQtQtQtQtQtQtQtQtQtQt",
"QtQtQtQtQtQtQtQtQtQtQtQtQtQtQtQtQtQtQtQtQtQtQtQtQtQtQtQtQtQtQtQt",
"QtQtQtQtQtQtQtQtQtQtQtQtQtQtQtQtQtQtQtQtQtQtQtQtQtQtQtQtQtQtQtQt",
"QtQtQt.#.a.b.c.dQtQtQtQtQtQtQt.e.f.g.h.h.h.h.h.i.j.j.k.j.l.m.nQt",
"Qt.o.p.q.r.s.t.u.v.w.x.y.y.y.z.A.B.C.D.E.E.F.G.H.I.B.J.K.L.M.N.O",
".P.Q.R.G.K.S.T.T.U.T.V.W.X.Y.Z.0.1.2.3.3.4.5.6.7.8.9#.###a#b#c#d",
"#e#f#f.R#g.K.V#h.0#i.1.3#j#k#l#l.3.G.D.E.H.0#m#n#o#p#q#r#s#t#u#v",
"#w#f#f.E.H.U.W.Z#x#y#z#A.5#B.2#C#f.R.G.S.U#g.H#D#B#E#F#G#H#I#J#v",
"#w#f#f#C.F.B.T.X.7.6#y.1#K.2#f#f.3#L#M#N#M#O#P.V#Q#R#S#T#U#V#W#X",
"#Y.K#Z#P#z#Q.2#0#m#1#n#B#B.R#2.3#3#4#3#4#5#6#7#Q.0#8#1#Q.4.4#9a.",
"a#.2aaaaabacadad#6aeafag#i#f#Zahaiajakalamanaoap#j.5#3#k#k#kaqar",
"a##kaaaaasatadauavaeawat#f.E.4#AaxayazaAaBaCaDaE#3#AaF#L#0aGaHar",
"a#aGaIaIac#6auaoauaJaK#M#f.X.3aLaMaNaOaPaQaRaSas#7aT#l#8#kaGaUaV",
"a#aTaDasatadaoaEaWafaX#n#f.0#ZaYaZa0a1a2a3a4a5aIab#Ka6#7#3a7a8a9",
"a#b.abas#6auaEb#babbbca6#f.6.7bdbebfbgbhbibjbkaIaI#8#Rblbmbmbna9",
"#Yboasacavaobaaeaeawbpan.R.0#ibqbrbsbtbubvbwbxadby#8#5bmbzbAbBa9",
"#Y#n#6#6auaEb#bCafbDaKaebq.X.3.Y#PbEbFbGbHataDava7ahaEbIbzbAbBbJ",
"#YahavadaobabKbbbCbLaKbM#n.U.3#A#x#xbNbOahbPabbP#Ma7bQbIbzbIbBbR",
"#Y#ladauaEb#aJawawagbSbMbD.3#Z#k#0.5#0#n#R#4a7#R#RaebIbAbAbIbBbR",
"#w#OauaobaaeafbDbTaKaXbcbUba#z#zaGbo#nah#M#M#M#R#6bVbAbAbAbWbBbX",
"#wbYbab#aJbbbTaKagbcbMbZbUb0bK#1#0#mbob1#l#R#NaWbmb2b3b3b2b4b5bX",
"#YahaDabac#6adaWaWb#aeafbCawb6bKa7a6#M#3a7#4acbTbDbTbTbTawbDb7b8",
"b9#C.W#h.Z.0#Z.6#P.1c..3#A#Q.5#kc#aT#1#n#K#K#n#nb1aha6#l#B#5awca",
"cbcc.1#A.2.4#maTbo#Kb1ah#l#M#3a7cdan#5ceaaaDasatavaoaEbKafawcfcg",
"QtchcicjcjcjcjcjckckckckckckclclclclclclclcmcmcmcmcmcmcmcmckcnQt",
"QtQtQtQtQtQtQtQtQtQtQtQtQtQtQtQtQtQtQtQtQtQtQtQtQtQtQtQtQtQtQtQt",
"QtQtQtQtQtQtQtQtQtQtQtQtQtQtQtQtQtQtQtQtQtQtQtQtQtQtQtQtQtQtQtQt",
"QtQtQtQtQtQtQtQtQtQtQtQtQtQtQtQtQtQtQtQtQtQtQtQtQtQtQtQtQtQtQtQt",
"QtQtQtQtQtQtQtQtQtQtQtQtQtQtQtQtQtQtQtQtQtQtQtQtQtQtQtQtQtQtQtQt",
"QtQtQtQtQtQtQtQtQtQtQtQtQtQtQtQtQtQtQtQtQtQtQtQtQtQtQtQtQtQtQtQt"};
