/* XPM */
static char *freeze_icon[]={
"32 32 11 1",
". c None",
"d c #000000",
"c c #00c0c0",
"# c #00ffff",
"i c #800000",
"h c #c00000",
"a c #c0ffff",
"e c #c3c3c3",
"f c #ff0000",
"g c #ffc0c0",
"b c #ffffff",
"......................#####.....",
"....................###abb##....",
"....................#abbbb###...",
"...................##bbaab###...",
"..................##bbaaaba##...",
".................###baaaabb###..",
"................##bbbaaaaab##c..",
"................c#bbaaaaaabb#c..",
"................c#caacaaaaab#c..",
"................cc#a#caaaabb#c..",
"................dc#a#caacaa##c..",
"...............dec#acc##caa#cc..",
"..............deec#accc#caa#c...",
".............deebc#ac.c#caa#c...",
".............debdc##c.c#cca#c...",
"............debeec##c.cccc#cc...",
"...........debddec##c.c..c#cc...",
"..........debeedec##c.c..c#cc...",
"..........dbddeedc##c.c..c#c....",
".........dfgeded.cccc....c#c....",
"........dfggfed...cc.....c#c....",
".....dddfggffhd...cc.....c#c....",
"....dfffffffhd....cc.....c#c....",
"...dfbbbbffhd.....cc.....cc.....",
"..dfbbfffffid.....cc.....cc.....",
"..dfbfffffhid.....cc......c.....",
"..dfbfffffhid.....c.......c.....",
"..dfbfffffhid.....c.......c.....",
"..dhhffffhiid.............c.....",
"...dhhhhhiid..............c.....",
"....diiiiid...............c.....",
".....ddddd......................"};
