/* XPM */
static char *stickpin[]={
"32 32 153 2",
"aw c None",
"Qt c None",
".# c #000000",
"ag c #080000",
"#Y c #0b0000",
".B c #0f0101",
".C c #0f0403",
".a c #100705",
"#X c #1a0000",
"as c #1e0000",
".q c #1f0605",
".0 c #250303",
"ah c #2c0101",
"#8 c #300202",
"ao c #310101",
".g c #3c130e",
"#L c #4a0303",
"ar c #4d0000",
".h c #4d2016",
"av c #585858",
"ap c #590101",
"#z c #5b0505",
".r c #5b2017",
"## c #5d0606",
".b c #5d2b1e",
"an c #5e0101",
"aq c #600101",
"#n c #620606",
"#7 c #640202",
".O c #761e17",
"af c #7a0202",
"am c #830303",
"ai c #850404",
"al c #8a0404",
"ae c #8c0404",
"ak c #8f0505",
"aj c #920505",
"#6 c #920606",
"#W c #930606",
"ad c #970606",
".f c #983929",
"#9 c #9e0808",
"au c #a0a0a0",
"#5 c #a10808",
"#Z c #a20a0a",
"#K c #a40909",
"#V c #a60a0a",
"a. c #a70909",
"ac c #a80a0a",
"#A c #a90e0e",
".N c #a91110",
".c c #ab5138",
"a# c #ac0b0b",
"ab c #ad0b0b",
"aa c #ae0b0b",
"#4 c #b00b0b",
".p c #b22f23",
"#y c #b50c0c",
"#U c #b90d0d",
".e c #b94e37",
"#0 c #ba0d0d",
".d c #ba553c",
"#J c #bb0e0e",
"#3 c #bd0e0e",
".1 c #bf2820",
"#m c #c50f0f",
"#M c #c71010",
"#T c #cc1111",
"#2 c #cd1111",
"#1 c #cf1111",
"#x c #d11212",
"#. c #d31212",
"#N c #d81413",
".Z c #db1414",
"#S c #db1514",
".A c #db2821",
"#B c #e11716",
"#l c #e11817",
"#o c #e21817",
"#R c #e31a18",
".D c #e34e39",
"#I c #e41a18",
"#w c #e51c19",
"#O c #e61d1a",
"#Q c #e61e1b",
"#P c #e71f1c",
".9 c #e7201c",
"#C c #e7231e",
"#a c #e8251f",
"#H c #e82620",
".Y c #e82721",
"#p c #e92821",
"#k c #e92a22",
".M c #e92b23",
".i c #e96b4b",
"#v c #ea2c24",
"#D c #ea2d25",
"#G c #ea2f26",
"#E c #eb3429",
"#F c #eb3529",
".8 c #ec362a",
"#q c #ec372a",
"#b c #ec382b",
"#u c #ec3a2d",
"#j c #ed3c2e",
".X c #ed3e2f",
".z c #ee4131",
".L c #ee4232",
".2 c #ef4533",
"#c c #f04836",
".7 c #f04a36",
"#r c #f04a37",
"#t c #f04c38",
"#i c #f14c38",
"#s c #f14d39",
".P c #f14e39",
".o c #f2513b",
".W c #f2533d",
"#d c #f3563e",
".y c #f3573f",
".K c #f3583f",
"#h c #f35940",
".6 c #f45c42",
"#e c #f55f44",
"#g c #f56145",
".Q c #f56246",
"#f c #f56346",
".n c #f66547",
".s c #f66749",
".V c #f76749",
".E c #f76849",
".5 c #f76b4b",
".x c #f76c4c",
".J c #f86d4d",
".3 c #f97250",
".R c #f97451",
".m c #fa7552",
".4 c #fa7753",
".U c #fa7854",
".t c #fb7b55",
".F c #fb7c56",
".j c #fc7f58",
".I c #fc8059",
".l c #fc8159",
".S c #fc825a",
".k c #fd855c",
".T c #fe895e",
".u c #fe895f",
".G c #fe8a5f",
".w c #fe8b60",
".H c #fe8c60",
".v c #ff8d61",
"at c #ffffff",
"QtQtQtQtQtQtQtQtQtQtQtQtQtQtQtQtQtQtQtQtQt.#.#.#.#.#.#QtQtQtQtQt",
"QtQtQtQtQtQtQtQtQtQtQtQtQtQtQtQtQtQtQt.#.a.b.c.d.e.f.g.#.#QtQtQt",
"QtQtQtQtQtQtQtQtQtQtQtQtQtQtQtQtQtQt.#.h.i.j.k.l.m.n.o.p.q.#QtQt",
"QtQtQtQtQtQtQtQtQtQtQtQtQtQtQtQtQt.#.r.s.t.u.v.w.j.x.y.z.A.B.#Qt",
"QtQtQtQtQtQtQtQtQtQtQtQtQtQtQtQt.#.C.D.E.F.G.v.H.I.J.K.L.M.N.#Qt",
"QtQtQtQtQtQtQtQtQtQtQtQtQtQtQtQt.#.O.P.Q.R.S.T.k.U.V.W.X.Y.Z.0.#",
"QtQtQtQtQtQtQtQtQtQtQtQtQtQtQtQt.#.1.2.y.s.3.4.R.5.6.7.8.9#.##.#",
"QtQtQtQtQtQtQtQtQtQtQtQtQtQtQtQt.##a#b#c#d#e#f#g#h#i#j#k#l#m#n.#",
"QtQtQtQtQtQtQtQtQtQtQtQtQtQtQtQt.##o#p#q.L#r#s#t.2#u#v#w#x#y#z.#",
"QtQtQtQtQtQtQtQtQtQtQtQtQtQtQtQt.##A#B#C#D#E#q#F#G#H#I#.#J#K#L.#",
"QtQtQtQtQtQtQtQtQtQtQtQtQtQtQtQt.####M#N#o#O#P#Q#R#S#T#U#V#W#X.#",
"QtQtQtQtQtQtQtQtQtQtQtQtQtQtQtQtQt#Y#Z#0#m#T#1#2#M#3#4#5#6#7.#Qt",
"QtQtQtQtQtQtQtQtQtQtQtQtQtQtQtQtQt.##8#9a.a#aaabac#5adaeafag.#Qt",
"QtQtQtQtQtQtQtQtQtQtQtQtQtQtQtQtQtQt.#ahaiaj#Wajakalamanag.#QtQt",
"QtQtQtQtQtQtQtQtQtQtQtQtQtQtQtQtQtQt.#.#agaoapaqanaras.#.#QtQtQt",
"QtQtQtQtQtQtQtQtQtQtQtQtQtQtQtQtQt.#.#.#.#.#.#.#.#.#.#QtQtQtQtQt",
"QtQtQtQtQtQtQtQtQtQtQtQtQtQtQtQtQt.#.#.#.#.#QtQtQtQtQtQtQtQtQtQt",
"QtQtQtQtQtQtQtQtQtQtQtQtQtQtQtQt.#at.#.#.#QtQtQtQtQtQtQtQtQtQtQt",
"QtQtQtQtQtQtQtQtQtQtQtQtQtQtQtQt.#auav.#QtQtQtQtQtQtQtQtQtQtQtQt",
"QtQtQtQtQtQtQtQtQtQtQtQtQtQtQt.#atav.#.#QtQtQtQtQtQtQtQtQtQtQtQt",
"QtQtQtQtQtQtQtQtQtQtQtQtQtQtQt.#auav.#QtQtQtQtQtQtQtQtQtQtQtQtQt",
"QtQtQtQtQtQtQtQtQtQtQtQtQtQt.#atav.#QtQtQtQtQtQtQtQtQtQtQtQtQtQt",
"QtQtQtQtQtQtQtQtQtQtQtQtQt.#atav.#.#QtQtQtQtQtQtQtQtQtQtQtQtQtQt",
"QtQtQtQtQtQtQtQtawawawawaw.#.#av.#awQtQtQtQtQtQtQtQtQtQtQtQtQtQt",
"QtQtQtQtQtQtQtQtawawawaw.#atav.#awawQtQtQtQtQtQtQtQtQtQtQtQtQtQt",
"QtQtQtQtQtQtQtQtawawawaw.#av.#.#awawQtQtQtQtQtQtQtQtQtQtQtQtQtQt",
"QtQtQtQtQtQtQtQtawawaw.#at.#.#awawawQtQtQtQtQtQtQtQtQtQtQtQtQtQt",
"QtQtQtQtQtQtQtawawawaw.#av.#awawawawQtQtQtQtQtQtQtQtQtQtQtQtQtQt",
"QtQtQtQtQtQtQtQtawawawaw.#.#awawawawQtQtQtQtQtQtQtQtQtQtQtQtQtQt",
"QtQtQtQtQtQtQtQtawawawawawawawawawawQtQtQtQtQtQtQtQtQtQtQtQtQtQt",
"QtQtQtQtQtQtQtQtawawawawawawawawawawQtQtQtQtQtQtQtQtQtQtQtQtQtQt",
"QtQtQtQtQtQtQtQtawawawawawawawawawawQtQtQtQtQtQtQtQtQtQtQtQtQtQt"};
