/* XPM */
static char *pfmExtract[]={
"32 32 234 2",
"aa c #000000",
"ae c #0d4476",
"#E c #0d6a1a",
"#4 c #0d7a48",
"bp c #0e1b6b",
"br c #0e3e76",
"aI c #0e4868",
"bK c #0e576b",
"bn c #0e5952",
"#Q c #0e6a58",
"#I c #0e6c15",
"#T c #0e6d27",
"ao c #0e6d4c",
"aO c #0e6e45",
"bJ c #0e736b",
"#F c #0e771b",
"aQ c #0e7739",
"aq c #0e775a",
"#L c #0e7916",
"ax c #0f2859",
"bs c #0f2973",
"aH c #0f5678",
"bd c #0f5945",
"bN c #0f676d",
"aP c #0f6e3e",
"bC c #0f722c",
"bm c #0f7316",
"bD c #0f7825",
"#y c #0f7b1a",
"aF c #0f7c54",
"av c #101c5a",
"bo c #101e6a",
"aw c #10235a",
"ap c #106a56",
"an c #107463",
"ar c #107a58",
"bM c #107d44",
"aK c #107e4b",
"aC c #113478",
"ag c #114469",
"ah c #11487b",
"#S c #115b36",
"ad c #115b66",
"aR c #115c7e",
"#R c #116b4a",
"#v c #117419",
"#5 c #117547",
"#P c #11756c",
"az c #117c64",
"#3 c #117d54",
"ac c #117e2d",
"aB c #122677",
"aD c #123b7e",
"aM c #12567a",
"ak c #125682",
"#H c #125c2c",
"al c #12637e",
"ai c #126979",
"#n c #127217",
".2 c #127636",
"am c #127777",
"#x c #127c24",
"aJ c #128244",
"#2 c #12825d",
"ab c #12834b",
"#1 c #128363",
"au c #133a55",
"aE c #134f84",
".M c #136525",
"aG c #136781",
".u c #137d1a",
"aj c #137d7b",
"as c #137e6c",
".b c #13831c",
"#O c #138374",
".k c #138522",
".a c #138533",
"bL c #13853c",
"af c #14495b",
"ay c #144c4e",
"#w c #147917",
"bG c #147c81",
"#0 c #148669",
"#e c #15631c",
"aL c #15827b",
"Qt c #158b23",
"aN c #165752",
"#m c #165f16",
"#c c #167423",
"a6 c #168757",
".c c #16891e",
"aA c #17376a",
".N c #176818",
"at c #176966",
".t c #179020",
"bc c #194f16",
"a4 c #195829",
".# c #19882a",
"#D c #1b5d16",
".v c #1b7d19",
".l c #1d831a",
"bu c #214883",
".m c #228219",
"bi c #234356",
".d c #24862a",
".E c #257b29",
"#Y c #25852a",
"#J c #266416",
"#G c #267717",
".F c #267e17",
"a. c #268337",
"bt c #277765",
"#b c #285816",
"aU c #288b68",
"#U c #297644",
"bq c #2a3b73",
".e c #2a881b",
"aV c #2a8b78",
"a3 c #2b7054",
".n c #2b831b",
"#Z c #2d7e16",
"#t c #305e28",
"aY c #30718a",
"a1 c #316e6e",
"bB c #328951",
"#a c #335517",
"a0 c #336775",
"bI c #337b72",
".G c #337d15",
"bh c #34496d",
"aZ c #34538a",
".T c #346e2e",
"a2 c #34786a",
"aX c #36888a",
"#X c #387b3e",
"#8 c #388844",
"#h c #396616",
"#M c #398317",
"bE c #3a6a78",
".P c #3a873a",
"#6 c #3a8966",
"#N c #3b7814",
".o c #3b8216",
"#u c #3c7a43",
"bH c #3c7e77",
"bl c #3c7f65",
".U c #3c8624",
"a# c #3e7d14",
"#z c #3f670f",
"bx c #426a94",
"bg c #444f75",
".w c #447d14",
".V c #44892a",
"## c #454a12",
"be c #45576c",
".O c #468b4d",
"aT c #468d79",
"aW c #478198",
"bw c #48778c",
".B c #49924e",
"#V c #499366",
"bj c #4a7473",
"#A c #4a7912",
"#i c #4b6c16",
".f c #4c8617",
"a5 c #515413",
"#o c #51732b",
"#7 c #518a6a",
"#K c #526c17",
".6 c #537d14",
"#s c #555c28",
"bz c #557e88",
".R c #568a58",
".g c #578416",
"bk c #578d82",
".S c #588848",
"#p c #5a7414",
"#. c #5b4c12",
".Q c #5b985b",
".x c #5c7b13",
"#B c #647d14",
".W c #648725",
".4 c #68914a",
".C c #68a36c",
"aS c #68aa97",
".h c #698316",
"ba c #698e98",
"#W c #699772",
"#d c #699e69",
"#j c #6a7915",
"#C c #6c6212",
".L c #6e4c0f",
".8 c #6f5d2b",
"#f c #6f9166",
"bf c #717890",
"bA c #718e96",
"bv c #7191a7",
".q c #737d15",
"#9 c #73aa78",
".s c #746c12",
".K c #747a2c",
".H c #748d32",
".Y c #756c2c",
"#g c #758d5a",
".i c #778619",
".A c #785a11",
".y c #797717",
"b. c #799898",
"bb c #7aa399",
".r c #7b6914",
".z c #7b7b16",
"#k c #7d6d42",
"bF c #7da1a2",
".3 c #7da46a",
"#q c #815920",
"a8 c #839b99",
".1 c #857a38",
".p c #857b27",
"by c #8695a5",
"a9 c #86a39c",
".D c #86b18d",
".j c #87891b",
"a7 c #88a7a8",
".5 c #8aa777",
"b# c #8ab2ae",
".Z c #8c7d4c",
".0 c #8f8b56",
".J c #918f4e",
".I c #92a868",
".7 c #958b66",
"#l c #97946f",
".9 c #a2976a",
".X c #a3a57f",
"#r c #ff0000",
"QtQtQtQt.#.a.a.a.a.#QtQt.b.b.b.b.b.b.b.c.d.e.f.g.h.i.i.i.i.i.j.j",
".c.b.b.b.k.k.b.k.b.b.b.b.b.b.b.b.b.l.m.n.o.f.g.h.i.i.p.i.i.q.r.s",
".c.b.b.b.b.tQt.b.b.b.b.l.b.b.b.u.v.n.w.f.x.h.q.y.i.j.z.z.z.r.r.A",
".b.u.u.d.B.C.D.E.b.u.m.n.m.l.F.m.G.w.g.H.I.J.K.p.J.J.s.y.r.r.A.L",
".M.N.O.P.Q.R.S.T.n.n.U.V.U.U.V.o.w.W.I.K.X.Y.r.Z.0.Y.K.1.r.A.L.L",
".a.2.2.M.C.T.G.3.4.4.5.S.4.I.4.6.6.h.s.1.7.8.Z.Z.J.Y.9.7#.###a#b",
".t.t.k#c#d#e.V.5#f#g#g#h.I#g#i.x.h#j.s.J#k.L.7#k.X.Z#l#a#m#n#n#n",
".c.l.b.k.E#e.N#o#o#o#p#p.W#o#p#j.q.s.A#q.L.L#r#s#o#t#u#v.u.u.v#w",
".l#x.v.l.b#y#v.N#z#A.x#B.h#B#j.q.q#C#.###a#D#r#r#E#v#F.u.u.v.n#G",
".M.M#H.M#e#w.b#n#I#J#t#i#a#i#K#i#z#b.N#n#L#L#r#r#r.b.l.l.m.G#M#N",
"#O#P#P#Q#R#S.M#T#c#U#V#W#E.Q#X#I#I#L.u.u.u#Y#r#r#r#r.F.F#Z.w.w.w",
"#0#1#1#2#2#3#4#5#6#7#8#9#w.D#u#L.#.d.u.da..V#r#r#r#r#ra#a#.w#A#p",
"#r#r#r#r#r#r#r#r#r#r#r#r#r#r#r#r#r#r#r#r#r#r#r#r#r#r#r#r.w.6.x#p",
"#r#r#r#r#r#r#r#r#r#r#r#r#r#r#r#r#r#r#r#r#r#r#r#r#r#r#r#r#r.6#B#p",
"aaaaaa#r#r#r#r#r#r#r#r#r#r#r#r#r#r#r#r#r#r#r#r#r#r#r#r#r#r#r#b#a",
"abaaaaaaaaaa#r#r#r#r#r#r#r#r#r#r#r#r#r#r#r#r#r#r#r#r#r#r#raa#L#I",
"ac#Radaeaaaaaaaaaaaa#r#r#r#r#r#r#r#r#r#r#r#r#r#r#r#r#r#raaaa.b#y",
"afagahaiaj#0#2aaaaaaaaaa#r#r#r#r#r#r#r#r#r#r#r#r#r#r#raaaa.m.l.v",
"akalamajanao#Rapaqar#3aaaaaaaaaaaaaaaaaaaaaa#r#r#r#raaaa.o.o.o.G",
"ajajasatauavawaxauayapaz#Oaaaaaaaaaaaaaaaaaa#r#r#raaaa.g.g.g.g#A",
"#OasadaAaBaCaDaEaCaCagadan#1#2#1#1az#2#2aF#R#r#raaaa.x.x#B.h.i#B",
"azadaCaDaEaiaGaGaGaGaiaHaI#QaFaFaFabaJaJabaK#raaaa.N#z#p#j.q.y.s",
"agaCahalaL#O#O#O#O#OaLaiaMaIafaNaoaOaOaPaPaQaaaaac.M#D#h#i.s.r.A",
"aEaRam#O#0aSaSaTaUaVaSaWaXaYaZaYa0a0a0a1a1a2aa#6#Va3a3#Sa4#aa5#.",
"aL#O#1aba6a7.Da8a9a7a9a8b.b#b#b#a7baa7a7a7a7a7bbbbbbaTaK#5#T#mbc",
"a6aF#RbdaNbebebfbfbgbgbhbia1bja8bjataTbkb.a2a2blbj#6#UaQ.a#x#Fbm",
"bnauavbobpaBbobqagbraeaDbsavaAbiafad#Qasbt#5aF#4aQ.kac.k.k#y#y#v",
"aCaBaBaCaDaDbubvbaaWbwaWbwbxaDaZbybwbzbAbzbk#6#6#6bBbCbDbD.u.u#F",
"aEaEakaRakaRaYa7bAa8a8bybAb#bEaWbybAa7b.bAb.b.bFb.a3aPbC#F#v#w#n",
"bGajaj#OaLajaVbEbqbqbgbqbhbEataXaTa1bHbIbIbIbIa2btaoaK.2#x#F#F#I",
"#0#1#2#2azazbJaeaDaHaRaMahbKbJbJaqaqaqaF#2aFaFaKabaKbLacbD#F#wbm",
"bMaQaO#4ao#QaIaHbNbJ#P#PambNad#Q#Q#QaoaOaPaPaQbCbCbC#F#T#E#I#I#I"};
