/* XPM */
static char *add_feature_cursor[]={
"32 32 4 1",
". c None",
"# c #000000",
"b c #303030",
"a c #ffffff",
"...............#................",
"...............#................",
"...............#................",
"............###a###.............",
"..........##aaa#aaa##...........",
"........##aa...#...aa##.........",
".......##a...aa#aa...a##........",
"......##a..aa##a##aa..a##.......",
".....##a..a####a####a..a##......",
".....#a..a#####a#####a..a#......",
"....#a..a####aa#aa####a..a#.....",
"....#a.a####a..b..a####a.a#.....",
"...#a..a###a.a#a#a.a###a..a#....",
"...#a.a###a.a##a##a.a###a.a#....",
"...#a.a###a.###a###.a###a.a#....",
"###a###aaa##aaa#aaa##aaa###a###.",
"...#a.a###a.###a###.a###a.a#....",
"...#a.a###a.a##a##a.a###a.a#....",
"...#a..a###a.a#a#a.a###a..a#....",
"....#a.a####a..#.aa####a.a#.....",
"....#a..a####aa#aa####a..a#.....",
".....#a..a#####a#####a..a#......",
".....##a..a####a####a..a##......",
"......##a..aa##a##aa..a##.......",
".......##a...aa#aa...a##........",
"........##aa...#...aa##.........",
"..........##aaa#aaa##...........",
"............###a###.............",
"...............#................",
"...............#................",
"...............#................",
"................................"};
