/* XPM */
static char * attr06_xpm[] = {
"32 32 533 2",
"  	c None",
". 	c #693D1A",
"+ 	c #6A3A1E",
"@ 	c #69381E",
"# 	c #6D3D21",
"$ 	c #724224",
"% 	c #724124",
"& 	c #703D1F",
"* 	c #5B2F16",
"= 	c #4C2713",
"- 	c #1F0A0A",
"; 	c #000000",
"> 	c #66391E",
", 	c #6F3D22",
"' 	c #82502F",
") 	c #9E7444",
"! 	c #B9965A",
"~ 	c #CCAD6C",
"{ 	c #D7BC79",
"] 	c #D8C07B",
"^ 	c #D0B670",
"/ 	c #B09362",
"( 	c #946A3F",
"_ 	c #73431F",
": 	c #3D2010",
"< 	c #55301C",
"[ 	c #683B21",
"} 	c #946539",
"| 	c #C49F54",
"1 	c #CAC361",
"2 	c #FEE589",
"3 	c #FFF194",
"4 	c #FFF39A",
"5 	c #FFF89D",
"6 	c #F8EFA8",
"7 	c #BEC7D2",
"8 	c #B0C0EA",
"9 	c #A6B2DA",
"0 	c #A9A094",
"a 	c #9C7144",
"b 	c #5D321A",
"c 	c #160B05",
"d 	c #452E17",
"e 	c #562F1B",
"f 	c #8A582F",
"g 	c #D3A657",
"h 	c #FFDA73",
"i 	c #ADD264",
"j 	c #64BA54",
"k 	c #E6D277",
"l 	c #FFE98F",
"m 	c #FFEC91",
"n 	c #F1E39C",
"o 	c #96A6E4",
"p 	c #B5C6FF",
"q 	c #D6E1FF",
"r 	c #CFDCFF",
"s 	c #9CB3FE",
"t 	c #C5CBBC",
"u 	c #B69761",
"v 	c #64361C",
"w 	c #110505",
"x 	c #341E0F",
"y 	c #744226",
"z 	c #B38041",
"A 	c #FECC65",
"B 	c #F1D764",
"C 	c #A4C24F",
"D 	c #A3DDA8",
"E 	c #B7D6A3",
"F 	c #E2CD6C",
"G 	c #F6E385",
"H 	c #FEEC8D",
"I 	c #DBD0A5",
"J 	c #85A1FF",
"K 	c #A7C0FF",
"L 	c #A2BBFF",
"M 	c #A4BDFF",
"N 	c #99B3FF",
"O 	c #B8C2C7",
"P 	c #FFFFBD",
"Q 	c #AD8C5F",
"R 	c #552B15",
"S 	c #6C4023",
"T 	c #CE9A47",
"U 	c #F0D059",
"V 	c #8CBD40",
"W 	c #62B94D",
"X 	c #76CB7A",
"Y 	c #A8E1AC",
"Z 	c #87CB7E",
"` 	c #96C96F",
" .	c #60B546",
"..	c #D9D176",
"+.	c #FDED94",
"@.	c #B3B8BD",
"#.	c #638BFD",
"$.	c #658EFF",
"%.	c #5F87FB",
"&.	c #C4C9B9",
"*.	c #FFFFBF",
"=.	c #F5F2B3",
"-.	c #8C5F3B",
";.	c #281309",
">.	c #120606",
",.	c #734524",
"'.	c #DCA446",
").	c #FFD65E",
"!.	c #8EB331",
"~.	c #24AF38",
"{.	c #68C96D",
"].	c #6FCA6F",
"^.	c #76CD78",
"/.	c #66C76F",
"(.	c #85B454",
"_.	c #F0DA83",
":.	c #FFF28F",
"<.	c #DAD2A6",
"[.	c #4271FC",
"}.	c #3E71FF",
"|.	c #3F72FF",
"1.	c #386EFF",
"2.	c #5C81EB",
"3.	c #DFE3BA",
"4.	c #FFFFC6",
"5.	c #C5AB78",
"6.	c #532A15",
"7.	c #7A4A25",
"8.	c #DEA340",
"9.	c #FFCD50",
"0.	c #FFCB57",
"a.	c #DAC04D",
"b.	c #4AA728",
"c.	c #2BB02F",
"d.	c #38B538",
"e.	c #3EB73E",
"f.	c #3BB63E",
"g.	c #7BB045",
"h.	c #F5D67F",
"i.	c #FFEB8B",
"j.	c #E9DA9B",
"k.	c #577EF2",
"l.	c #3A6FFF",
"m.	c #3D70FF",
"n.	c #4471F7",
"o.	c #5377E9",
"p.	c #C6CCB7",
"q.	c #FFFFC1",
"r.	c #EBE2A4",
"s.	c #794A27",
"t.	c #0A0500",
"u.	c #633C1E",
"v.	c #AB802F",
"w.	c #554318",
"x.	c #181207",
"y.	c #050301",
"z.	c #171208",
"A.	c #433E18",
"B.	c #067F04",
"C.	c #08A409",
"D.	c #0BA50E",
"E.	c #0DA30E",
"F.	c #9FB94E",
"G.	c #FFE58A",
"H.	c #FFE888",
"I.	c #DCCB8A",
"J.	c #2C3B6F",
"K.	c #09122D",
"L.	c #02040B",
"M.	c #010204",
"N.	c #1A1913",
"O.	c #4B4A35",
"P.	c #C8C690",
"Q.	c #FFFFC0",
"R.	c #FCFAB8",
"S.	c #91643A",
"T.	c #1D0D05",
"U.	c #482C15",
"V.	c #7D521E",
"W.	c #030100",
"X.	c #000200",
"Y.	c #006600",
"Z.	c #009A00",
"`.	c #009C00",
" +	c #26A213",
".+	c #E4D275",
"++	c #D4BF72",
"@+	c #1B180E",
"#+	c #93926A",
"$+	c #FFFFBE",
"%+	c #FFFEBC",
"&+	c #A17848",
"*+	c #1F0F04",
"=+	c #1E0F07",
"-+	c #8B5C23",
";+	c #080501",
">+	c #7C571C",
",+	c #B9792D",
"'+	c #7B602A",
")+	c #050602",
"!+	c #899D3A",
"~+	c #47A420",
"{+	c #18980B",
"]+	c #B8B85B",
"^+	c #231F12",
"/+	c #030201",
"(+	c #675E3A",
"_+	c #938D6F",
":+	c #98957C",
"<+	c #A6A06E",
"[+	c #787553",
"}+	c #B2AF7F",
"|+	c #A67D4A",
"1+	c #220F04",
"2+	c #623E1B",
"3+	c #694D15",
"4+	c #522B28",
"5+	c #FC7563",
"6+	c #FD5656",
"7+	c #EF6C2E",
"8+	c #4A401A",
"9+	c #776435",
"0+	c #FDD471",
"a+	c #E5CA6C",
"b+	c #8E7D46",
"c+	c #948654",
"d+	c #FFEC96",
"e+	c #FFF49B",
"f+	c #FFF6A1",
"g+	c #FFF5A9",
"h+	c #FFF8AE",
"i+	c #FFFBB4",
"j+	c #FFFFBC",
"k+	c #FEFDBB",
"l+	c #A47742",
"m+	c #241206",
"n+	c #1F1306",
"o+	c #B36A24",
"p+	c #311B07",
"q+	c #95484A",
"r+	c #FF8084",
"s+	c #FF6972",
"t+	c #EC4C24",
"u+	c #907833",
"v+	c #332A15",
"w+	c #FFD972",
"x+	c #FFDD79",
"y+	c #41381F",
"z+	c #877A4B",
"A+	c #2A2618",
"B+	c #050403",
"C+	c #12110B",
"D+	c #4E4A33",
"E+	c #CCC58A",
"F+	c #FFFAB3",
"G+	c #FFFFBB",
"H+	c #FAF5B4",
"I+	c #9A6833",
"J+	c #1C0F05",
"K+	c #5B3D18",
"L+	c #E78422",
"M+	c #0D0100",
"N+	c #AF1414",
"O+	c #FF1D1E",
"P+	c #FF0B15",
"Q+	c #E96229",
"R+	c #AA8E3C",
"S+	c #0F0C06",
"T+	c #FFD76E",
"U+	c #FFD974",
"V+	c #141109",
"W+	c #060504",
"X+	c #B7B27F",
"Y+	c #EBDE9D",
"Z+	c #8E5B27",
"`+	c #070300",
" @	c #A36924",
".@	c #FDB526",
"+@	c #020100",
"@@	c #B60000",
"#@	c #F3260C",
"$@	c #EA591F",
"%@	c #EBA140",
"&@	c #B5913D",
"*@	c #FFD66D",
"=@	c #FFD973",
"-@	c #040301",
";@	c #18150D",
">@	c #A5965E",
",@	c #B7A86C",
"'@	c #3C3825",
")@	c #1D1C13",
"!@	c #FCFCBB",
"~@	c #DBC07D",
"{@	c #724416",
"]@	c #2D190C",
"^@	c #D08A25",
"/@	c #FFB423",
"(@	c #0D0A02",
"_@	c #AF0000",
":@	c #F51D0A",
"<@	c #EEBC44",
"[@	c #FECB4E",
"}@	c #AD8738",
"|@	c #0F0C05",
"1@	c #FFD46B",
"2@	c #FFD871",
"3@	c #0C0A05",
"4@	c #93834E",
"5@	c #FFE78F",
"6@	c #FFEB95",
"7@	c #DACB84",
"8@	c #CFCD94",
"9@	c #C89B57",
"0@	c #502E0E",
"a@	c #4F3112",
"b@	c #EDA027",
"c@	c #FFB221",
"d@	c #312307",
"e@	c #88290C",
"f@	c #F2230B",
"g@	c #EE8932",
"h@	c #FFCC4D",
"i@	c #92712E",
"j@	c #332914",
"k@	c #FFD469",
"l@	c #FFD770",
"m@	c #2B2413",
"n@	c #B4A060",
"o@	c #FFE68E",
"p@	c #FFEA94",
"q@	c #FBE997",
"r@	c #B9B27C",
"s@	c #B07835",
"t@	c #301C09",
"u@	c #774E1C",
"v@	c #F9AD2B",
"w@	c #FFB020",
"x@	c #755612",
"y@	c #4A3510",
"z@	c #F39530",
"A@	c #EB9835",
"B@	c #FFC74B",
"C@	c #4E3C18",
"D@	c #76602D",
"E@	c #FFD368",
"F@	c #69592F",
"G@	c #93824D",
"H@	c #FFE68C",
"I@	c #FFE992",
"J@	c #DACA82",
"K@	c #C4AD6E",
"L@	c #915B1E",
"M@	c #0A0300",
"N@	c #895E24",
"O@	c #FFB52E",
"P@	c #FFAE20",
"Q@	c #DD9D20",
"R@	c #7D5F1D",
"S@	c #BC8F31",
"T@	c #7B5D22",
"U@	c #0A0803",
"V@	c #DFB555",
"W@	c #FFD267",
"X@	c #FFD66C",
"Y@	c #D2B25E",
"Z@	c #18150C",
"`@	c #A69559",
" #	c #B7A667",
".#	c #3D3823",
"+#	c #353424",
"@#	c #CB974B",
"##	c #5C3811",
"$#	c #936729",
"%#	c #FFB931",
"&#	c #FFAE1F",
"*#	c #FFAE22",
"=#	c #9F7219",
"-#	c #020200",
";#	c #030200",
">#	c #A48239",
",#	c #FFD062",
"'#	c #FFD264",
")#	c #FFD56B",
"!#	c #FFD870",
"~#	c #8C7840",
"{#	c #13120C",
"]#	c #C3AC6C",
"^#	c #AA6D24",
"/#	c #1C1004",
"(#	c #966D2E",
"_#	c #FFBD39",
":#	c #FFAD1E",
"<#	c #FFAE21",
"[#	c #FFB126",
"}#	c #C98E22",
"|#	c #533B10",
"1#	c #171005",
"2#	c #161208",
"3#	c #534623",
"4#	c #CAA044",
"5#	c #FFC955",
"6#	c #FFD163",
"7#	c #FFD66F",
"8#	c #FFDA75",
"9#	c #B89F58",
"0#	c #463D23",
"a#	c #110F09",
"b#	c #050402",
"c#	c #1F1C11",
"d#	c #695F3A",
"e#	c #D1B873",
"f#	c #956B2F",
"g#	c #FFC447",
"h#	c #FFAC1C",
"i#	c #FFAF24",
"j#	c #FFB32A",
"k#	c #FFB830",
"l#	c #F5B036",
"m#	c #C98F38",
"n#	c #956728",
"o#	c #C0872E",
"p#	c #FFE385",
"q#	c #FFE58B",
"r#	c #FFEA93",
"s#	c #FFF39E",
"t#	c #EBC268",
"u#	c #AC6E21",
"v#	c #181104",
"w#	c #281605",
"x#	c #DDA542",
"y#	c #FFCD55",
"z#	c #FFCF5F",
"A#	c #FFD96E",
"B#	c #FFE07A",
"C#	c #FFDE7A",
"D#	c #FFDD7A",
"E#	c #FFDF7D",
"F#	c #FFE284",
"G#	c #FFE88D",
"H#	c #FFEC94",
"I#	c #C9852B",
"J#	c #634114",
"K#	c #F8CB6A",
"L#	c #FFBA32",
"M#	c #FFAC1E",
"N#	c #FFAF21",
"O#	c #FFB527",
"P#	c #E69E2C",
"Q#	c #442C0F",
"R#	c #FFCB52",
"S#	c #FED064",
"T#	c #F4C666",
"U#	c #EDC063",
"V#	c #FCD475",
"W#	c #FFE687",
"X#	c #FFE789",
"Y#	c #FFE588",
"Z#	c #FBDB7F",
"`#	c #E9B353",
" $	c #C28027",
".$	c #533610",
"+$	c #271504",
"@$	c #DCAC55",
"#$	c #FFD466",
"$$	c #FFAB1B",
"%$	c #FFB526",
"&$	c #BC7E23",
"*$	c #030000",
"=$	c #150A00",
"-$	c #D29432",
";$	c #FFCB51",
">$	c #D79B3C",
",$	c #774D16",
"'$	c #472C0B",
")$	c #563912",
"!$	c #8C6629",
"~$	c #C59645",
"{$	c #D29B41",
"]$	c #BD812B",
"^$	c #8B5A19",
"/$	c #2F1F08",
"($	c #996922",
"_$	c #FFE086",
":$	c #FFC448",
"<$	c #FFAA18",
"[$	c #FFB625",
"}$	c #A5701D",
"|$	c #704914",
"1$	c #F3AF3D",
"2$	c #FFCA50",
"3$	c #E3A138",
"4$	c #1F1002",
"5$	c #0D0800",
"6$	c #341D03",
"7$	c #DEA648",
"8$	c #FFC144",
"9$	c #FFAF19",
"0$	c #DB9521",
"a$	c #2D1D08",
"b$	c #482400",
"c$	c #A96F21",
"d$	c #CF8E2B",
"e$	c #FEC145",
"f$	c #FFBF46",
"g$	c #8B5E1C",
"h$	c #69440F",
"i$	c #F0B958",
"j$	c #FFF0A0",
"k$	c #FFB52B",
"l$	c #E19621",
"m$	c #D48D24",
"n$	c #E79E2D",
"o$	c #FFCE60",
"p$	c #B77E25",
"q$	c #FBD87E",
"r$	c #FFD05C",
"s$	c #503309",
"t$	c #C18224",
"u$	c #F1B952",
"v$	c #FCE490",
"w$	c #FAE28E",
"x$	c #F9CE6F",
"y$	c #EEAA3D",
"z$	c #56380F",
"A$	c #0C0800",
"B$	c #56380B",
"C$	c #966216",
"D$	c #C28425",
"E$	c #D28F2A",
"F$	c #AE741C",
"G$	c #53360D",
"H$	c #0B0800",
"                              . + @ # $ % & * = -               ",
"                        ; > , ' ) ! ~ { ] ^ / ( _ : ;           ",
"                      < [ } | 1 2 3 4 5 6 7 8 9 0 a b c         ",
"                  d e f g h i j k l m n o p q r s t u v w       ",
"                x y z A B C D E F G H I J K L M N O P Q R ;     ",
"              w S T U V W X Y Z `  ...+.@.#.$.$.%.&.*.=.-.;.    ",
"            >.,.'.).!.~.{.].].^./.(._.:.<.[.}.|.1.2.3.4.5.6.;   ",
"          - 7.8.9.0.a.b.c.d.e.f.g.h.i.j.k.l.|.m.n.o.p.q.r.s.t.  ",
"        ; u.v.w.x.y.z.A.B.C.D.E.F.G.H.I.J.K.L.M.N.O.P.Q.R.S.T.  ",
"        U.V.W.; ; ; ; ; X.Y.Z.`. +.+++@+; ; ; ; ; ; #+$+%+&+*+  ",
"      =+-+;+; ; >+,+'+; ; )+!+~+{+]+^+; /+(+_+:+<+[+}+$+%+|+1+  ",
"      2+3+; ; 4+5+6+7+8+; ; 9+0+a+b+; ; c+d+e+f+g+h+i+j+k+l+m+  ",
"    n+o+p+; ; q+r+s+t+u+; ; v+w+x+y+; /+z+A+B+C+D+E+F+G+H+I+J+  ",
"    K+L+M+; ; N+O+P+Q+R+; ; S+T+U+V+; ; ; ; ; ; ; W+X+P Y+Z+`+  ",
"  ;  @.@+@; ; @@#@$@%@&@; ; /+*@=@-@; ; ;@>@,@'@; ; )@!@~@{@;   ",
"  ]@^@/@(@; ; _@:@<@[@}@; ; |@1@2@3@; ; 4@5@6@7@; ; ; 8@9@0@;   ",
"  a@b@c@d@; ; e@f@g@h@i@; ; j@k@l@m@; ; n@o@p@q@; ; ; r@s@t@    ",
"  u@v@w@x@; ; y@z@A@B@C@; ; D@E@T+F@; ; G@H@I@J@; ; ; K@L@M@    ",
"  N@O@P@Q@`+; ; R@S@T@; ; U@V@W@X@Y@/+; Z@`@ #.#; ; +#@###;     ",
"  $#%#&#*#=#-#; ; ; ; ; ;#>#,#'#)#!#~#; ; ; ; ; ; {#]#^#/#      ",
"  (#_#:#<#[#}#|#1#y.2#3#4#5#,#6#k@7#8#9#0#a#b#c#d#e#^#^#/#      ",
"  f#g#h#<#i#j#k#l#m#n#o#<#!#,#!#!#!#!#!#!#p#q#r#s#t#u#v#        ",
"  f#h#<#<#<#<#<#<#n#n#w#x#y#,#z#A#B#C#D#E#F#G#H#t#I#; ;         ",
"  J#K#L#M#N#O#P#Q#;   ; o#R#,#S#T#U#V#W#X#Y#Z#`# $.$            ",
"  +$@$#$$$P@%$&$*$    =$-$;$,#>$,$'$)$!$~${$]$^$/$;             ",
"  ; ($_$:$<$[$}$;     |$1$2$3$,$; ; ; ; M@4$5$; ;               ",
"    6$7$d+8$9$0$a$b$c$d$e$f$g$;                                 ",
"    ; h$i$j$#$k$l$m$n$n$o$p$;                                   ",
"      ; h$i$j$q$q$q$q$r$o$p$;                                   ",
"        ; s$t$u$q$v$w$x$y$z$;                                   ",
"            A$B$C$D$E$F$G$;                                     ",
"              ; ; `+H$; ;                                       "};
