/* XPM */
static char * attr09_xpm[] = {
"32 32 533 2",
"  	c None",
". 	c #693D1A",
"+ 	c #6A3A1E",
"@ 	c #69381E",
"# 	c #6D3D21",
"$ 	c #724224",
"% 	c #724124",
"& 	c #703D1F",
"* 	c #5B2F16",
"= 	c #4C2713",
"- 	c #1F0A0A",
"; 	c #000000",
"> 	c #66391E",
", 	c #6F3D22",
"' 	c #82502F",
") 	c #9E7444",
"! 	c #B9965A",
"~ 	c #CCAD6C",
"{ 	c #D7BC79",
"] 	c #D8C07B",
"^ 	c #D0B670",
"/ 	c #B09362",
"( 	c #946A3F",
"_ 	c #73431F",
": 	c #3D2010",
"< 	c #55301C",
"[ 	c #683B21",
"} 	c #946539",
"| 	c #C49F54",
"1 	c #CAC361",
"2 	c #FEE589",
"3 	c #FFF194",
"4 	c #FFF39A",
"5 	c #FFF89D",
"6 	c #F8EFA8",
"7 	c #BEC7D2",
"8 	c #B0C0EA",
"9 	c #A6B2DA",
"0 	c #A9A094",
"a 	c #9C7144",
"b 	c #5D321A",
"c 	c #160B05",
"d 	c #452E17",
"e 	c #562F1B",
"f 	c #8A582F",
"g 	c #D3A657",
"h 	c #FFDA73",
"i 	c #ADD264",
"j 	c #64BA54",
"k 	c #E6D277",
"l 	c #FFE98F",
"m 	c #FFEC91",
"n 	c #F1E39C",
"o 	c #96A6E4",
"p 	c #B5C6FF",
"q 	c #D6E1FF",
"r 	c #CFDCFF",
"s 	c #9CB3FE",
"t 	c #C5CBBC",
"u 	c #B69761",
"v 	c #64361C",
"w 	c #110505",
"x 	c #341E0F",
"y 	c #744226",
"z 	c #B38041",
"A 	c #FECC65",
"B 	c #F1D764",
"C 	c #A4C24F",
"D 	c #A3DDA8",
"E 	c #B7D6A3",
"F 	c #E2CD6C",
"G 	c #F6E385",
"H 	c #FEEC8D",
"I 	c #DBD0A5",
"J 	c #85A1FF",
"K 	c #A7C0FF",
"L 	c #A2BBFF",
"M 	c #A4BDFF",
"N 	c #99B3FF",
"O 	c #B8C2C7",
"P 	c #FFFFBD",
"Q 	c #AD8C5F",
"R 	c #552B15",
"S 	c #6C4023",
"T 	c #CE9A47",
"U 	c #F0D059",
"V 	c #8CBD40",
"W 	c #62B94D",
"X 	c #76CB7A",
"Y 	c #A8E1AC",
"Z 	c #87CB7E",
"` 	c #96C96F",
" .	c #60B546",
"..	c #D9D176",
"+.	c #FDED94",
"@.	c #B3B8BD",
"#.	c #638BFD",
"$.	c #658EFF",
"%.	c #5F87FB",
"&.	c #C4C9B9",
"*.	c #FFFFBF",
"=.	c #F5F2B3",
"-.	c #8C5F3B",
";.	c #281309",
">.	c #120606",
",.	c #734524",
"'.	c #DCA446",
").	c #FFD65E",
"!.	c #8EB331",
"~.	c #24AF38",
"{.	c #68C96D",
"].	c #6FCA6F",
"^.	c #76CD78",
"/.	c #66C76F",
"(.	c #85B454",
"_.	c #F0DA83",
":.	c #FFF28F",
"<.	c #DAD2A6",
"[.	c #4271FC",
"}.	c #3E71FF",
"|.	c #3F72FF",
"1.	c #386EFF",
"2.	c #5C81EB",
"3.	c #DFE3BA",
"4.	c #FFFFC6",
"5.	c #C5AB78",
"6.	c #532A15",
"7.	c #7A4A25",
"8.	c #DEA340",
"9.	c #FFCD50",
"0.	c #FFCB57",
"a.	c #DAC04D",
"b.	c #4AA728",
"c.	c #2BB02F",
"d.	c #38B538",
"e.	c #3EB73E",
"f.	c #3BB63E",
"g.	c #7BB045",
"h.	c #F5D67F",
"i.	c #FFEB8B",
"j.	c #E9DA9B",
"k.	c #577EF2",
"l.	c #3A6FFF",
"m.	c #3D70FF",
"n.	c #4471F7",
"o.	c #5377E9",
"p.	c #C6CCB7",
"q.	c #FFFFC1",
"r.	c #EBE2A4",
"s.	c #794A27",
"t.	c #0A0500",
"u.	c #633C1E",
"v.	c #AB802F",
"w.	c #554318",
"x.	c #181207",
"y.	c #050301",
"z.	c #171208",
"A.	c #433E18",
"B.	c #067F04",
"C.	c #08A409",
"D.	c #0BA50E",
"E.	c #0DA30E",
"F.	c #9FB94E",
"G.	c #FFE58A",
"H.	c #F2DC81",
"I.	c #726A47",
"J.	c #0F1426",
"K.	c #010308",
"L.	c #02050C",
"M.	c #141B2D",
"N.	c #7D7B5E",
"O.	c #EAE6A7",
"P.	c #FDFBB6",
"Q.	c #FFFFC0",
"R.	c #FCFAB8",
"S.	c #91643A",
"T.	c #1D0D05",
"U.	c #482C15",
"V.	c #7D521E",
"W.	c #030100",
"X.	c #000200",
"Y.	c #006600",
"Z.	c #009A00",
"`.	c #009C00",
" +	c #26A213",
".+	c #D1C06B",
"++	c #272315",
"@+	c #4F4F37",
"#+	c #FDFCB7",
"$+	c #FFFFBE",
"%+	c #FFFEBC",
"&+	c #A17848",
"*+	c #1F0F04",
"=+	c #1E0F07",
"-+	c #8B5C23",
";+	c #080501",
">+	c #7C571C",
",+	c #B9792D",
"'+	c #7B602A",
")+	c #050602",
"!+	c #899D3A",
"~+	c #47A420",
"{+	c #18980B",
"]+	c #4B4B25",
"^+	c #1E1B10",
"/+	c #A5985D",
"(+	c #979172",
"_+	c #36352C",
":+	c #939169",
"<+	c #A67D4A",
"[+	c #220F04",
"}+	c #623E1B",
"|+	c #694D15",
"1+	c #522B28",
"2+	c #FC7563",
"3+	c #FD5656",
"4+	c #EF6C2E",
"5+	c #4A401A",
"6+	c #776435",
"7+	c #FDD471",
"8+	c #E5CA6C",
"9+	c #14110A",
"0+	c #9C8D58",
"a+	c #FFEC96",
"b+	c #FFF49B",
"c+	c #E4DB8F",
"d+	c #242319",
"e+	c #FFFFBC",
"f+	c #FEFDBB",
"g+	c #A47742",
"h+	c #241206",
"i+	c #1F1306",
"j+	c #B36A24",
"k+	c #311B07",
"l+	c #95484A",
"m+	c #FF8084",
"n+	c #FF6972",
"o+	c #EC4C24",
"p+	c #907833",
"q+	c #332A15",
"r+	c #FFD972",
"s+	c #FFDD79",
"t+	c #060502",
"u+	c #A9995E",
"v+	c #FFEB94",
"w+	c #FFEE9A",
"x+	c #F1E398",
"y+	c #E4E4A7",
"z+	c #FAF5B4",
"A+	c #9A6833",
"B+	c #1C0F05",
"C+	c #5B3D18",
"D+	c #E78422",
"E+	c #0D0100",
"F+	c #AF1414",
"G+	c #FF1D1E",
"H+	c #FF0B15",
"I+	c #E96229",
"J+	c #AA8E3C",
"K+	c #0F0C06",
"L+	c #FFD76E",
"M+	c #FFD974",
"N+	c #302916",
"O+	c #3C3621",
"P+	c #E1CE81",
"Q+	c #F2E091",
"R+	c #736B47",
"S+	c #C5C592",
"T+	c #EBDE9D",
"U+	c #8E5B27",
"V+	c #070300",
"W+	c #A36924",
"X+	c #FDB526",
"Y+	c #020100",
"Z+	c #B60000",
"`+	c #F3260C",
" @	c #EA591F",
".@	c #EBA140",
"+@	c #B5913D",
"@@	c #030201",
"#@	c #FFD66D",
"$@	c #FFD973",
"%@	c #AF9653",
"&@	c #010000",
"*@	c #BCBC8C",
"=@	c #DBC07D",
"-@	c #724416",
";@	c #2D190C",
">@	c #D08A25",
",@	c #FFB423",
"'@	c #0D0A02",
")@	c #AF0000",
"!@	c #F51D0A",
"~@	c #EEBC44",
"{@	c #FECB4E",
"]@	c #AD8738",
"^@	c #0F0C05",
"/@	c #FFD46B",
"(@	c #FFD871",
"_@	c #FFDB78",
":@	c #AD9654",
"<@	c #221E11",
"[@	c #2D2A1B",
"}@	c #292619",
"|@	c #CDCB93",
"1@	c #C89B57",
"2@	c #502E0E",
"3@	c #4F3112",
"4@	c #EDA027",
"5@	c #FFB221",
"6@	c #312307",
"7@	c #88290C",
"8@	c #F2230B",
"9@	c #EE8932",
"0@	c #FFCC4D",
"a@	c #92712E",
"b@	c #332914",
"c@	c #FFD469",
"d@	c #FFD770",
"e@	c #FFDA76",
"f@	c #FFDD7C",
"g@	c #FFE082",
"h@	c #DDC575",
"i@	c #C8B46F",
"j@	c #DDCA80",
"k@	c #FEEC99",
"l@	c #1F1D13",
"m@	c #050403",
"n@	c #F0E6A1",
"o@	c #B07835",
"p@	c #301C09",
"q@	c #774E1C",
"r@	c #F9AD2B",
"s@	c #FFB020",
"t@	c #755612",
"u@	c #4A3510",
"v@	c #F39530",
"w@	c #EB9835",
"x@	c #FFC74B",
"y@	c #4E3C18",
"z@	c #76602D",
"A@	c #FFD368",
"B@	c #FFDA74",
"C@	c #FFDD7A",
"D@	c #FFE081",
"E@	c #FFE387",
"F@	c #FFE68C",
"G@	c #FFE992",
"H@	c #A29661",
"I@	c #4C4B35",
"J@	c #E3C87F",
"K@	c #915B1E",
"L@	c #0A0300",
"M@	c #895E24",
"N@	c #FFB52E",
"O@	c #FFAE20",
"P@	c #DD9D20",
"Q@	c #7D5F1D",
"R@	c #BC8F31",
"S@	c #7B5D22",
"T@	c #0A0803",
"U@	c #DFB555",
"V@	c #FFD267",
"W@	c #FFD66C",
"X@	c #E0BE65",
"Y@	c #3E351D",
"Z@	c #927F48",
"`@	c #BBA560",
" #	c #B7A463",
".#	c #736840",
"+#	c #050402",
"@#	c #CBC488",
"##	c #CB974B",
"$#	c #5C3811",
"%#	c #936729",
"&#	c #FFB931",
"*#	c #FFAE1F",
"=#	c #FFAE22",
"-#	c #9F7219",
";#	c #020200",
">#	c #030200",
",#	c #A48239",
"'#	c #FFD062",
")#	c #FFD264",
"!#	c #FFD56B",
"~#	c #DFBC61",
"{#	c #040302",
"]#	c #A29B69",
"^#	c #EBCF82",
"/#	c #AA6D24",
"(#	c #1C1004",
"_#	c #966D2E",
":#	c #FFBD39",
"<#	c #FFAD1E",
"[#	c #FFAE21",
"}#	c #FFB126",
"|#	c #C98E22",
"1#	c #533B10",
"2#	c #171005",
"3#	c #161208",
"4#	c #534623",
"5#	c #CAA044",
"6#	c #FFC955",
"7#	c #FFD163",
"8#	c #F0C968",
"9#	c #5E502B",
"0#	c #262012",
"a#	c #080704",
"b#	c #060503",
"c#	c #1F1C11",
"d#	c #615836",
"e#	c #D4C076",
"f#	c #956B2F",
"g#	c #FFC447",
"h#	c #FFAC1C",
"i#	c #FFAF24",
"j#	c #FFB32A",
"k#	c #FFB830",
"l#	c #F5B036",
"m#	c #C98F38",
"n#	c #956728",
"o#	c #C0872E",
"p#	c #FFD870",
"q#	c #FFE385",
"r#	c #FFE58B",
"s#	c #FFEA93",
"t#	c #FFF39E",
"u#	c #EBC268",
"v#	c #AC6E21",
"w#	c #181104",
"x#	c #281605",
"y#	c #DDA542",
"z#	c #FFCD55",
"A#	c #FFCF5F",
"B#	c #FFD96E",
"C#	c #FFE07A",
"D#	c #FFDE7A",
"E#	c #FFDF7D",
"F#	c #FFE284",
"G#	c #FFE88D",
"H#	c #FFEC94",
"I#	c #C9852B",
"J#	c #634114",
"K#	c #F8CB6A",
"L#	c #FFBA32",
"M#	c #FFAC1E",
"N#	c #FFAF21",
"O#	c #FFB527",
"P#	c #E69E2C",
"Q#	c #442C0F",
"R#	c #FFCB52",
"S#	c #FED064",
"T#	c #F4C666",
"U#	c #EDC063",
"V#	c #FCD475",
"W#	c #FFE687",
"X#	c #FFE789",
"Y#	c #FFE588",
"Z#	c #FBDB7F",
"`#	c #E9B353",
" $	c #C28027",
".$	c #533610",
"+$	c #271504",
"@$	c #DCAC55",
"#$	c #FFD466",
"$$	c #FFAB1B",
"%$	c #FFB526",
"&$	c #BC7E23",
"*$	c #030000",
"=$	c #150A00",
"-$	c #D29432",
";$	c #FFCB51",
">$	c #D79B3C",
",$	c #774D16",
"'$	c #472C0B",
")$	c #563912",
"!$	c #8C6629",
"~$	c #C59645",
"{$	c #D29B41",
"]$	c #BD812B",
"^$	c #8B5A19",
"/$	c #2F1F08",
"($	c #996922",
"_$	c #FFE086",
":$	c #FFC448",
"<$	c #FFAA18",
"[$	c #FFB625",
"}$	c #A5701D",
"|$	c #704914",
"1$	c #F3AF3D",
"2$	c #FFCA50",
"3$	c #E3A138",
"4$	c #1F1002",
"5$	c #0D0800",
"6$	c #341D03",
"7$	c #DEA648",
"8$	c #FFC144",
"9$	c #FFAF19",
"0$	c #DB9521",
"a$	c #2D1D08",
"b$	c #482400",
"c$	c #A96F21",
"d$	c #CF8E2B",
"e$	c #FEC145",
"f$	c #FFBF46",
"g$	c #8B5E1C",
"h$	c #69440F",
"i$	c #F0B958",
"j$	c #FFF0A0",
"k$	c #FFB52B",
"l$	c #E19621",
"m$	c #D48D24",
"n$	c #E79E2D",
"o$	c #FFCE60",
"p$	c #B77E25",
"q$	c #FBD87E",
"r$	c #FFD05C",
"s$	c #503309",
"t$	c #C18224",
"u$	c #F1B952",
"v$	c #FCE490",
"w$	c #FAE28E",
"x$	c #F9CE6F",
"y$	c #EEAA3D",
"z$	c #56380F",
"A$	c #0C0800",
"B$	c #56380B",
"C$	c #966216",
"D$	c #C28425",
"E$	c #D28F2A",
"F$	c #AE741C",
"G$	c #53360D",
"H$	c #0B0800",
"                              . + @ # $ % & * = -               ",
"                        ; > , ' ) ! ~ { ] ^ / ( _ : ;           ",
"                      < [ } | 1 2 3 4 5 6 7 8 9 0 a b c         ",
"                  d e f g h i j k l m n o p q r s t u v w       ",
"                x y z A B C D E F G H I J K L M N O P Q R ;     ",
"              w S T U V W X Y Z `  ...+.@.#.$.$.%.&.*.=.-.;.    ",
"            >.,.'.).!.~.{.].].^./.(._.:.<.[.}.|.1.2.3.4.5.6.;   ",
"          - 7.8.9.0.a.b.c.d.e.f.g.h.i.j.k.l.|.m.n.o.p.q.r.s.t.  ",
"        ; u.v.w.x.y.z.A.B.C.D.E.F.G.H.I.J.K.L.M.N.O.P.Q.R.S.T.  ",
"        U.V.W.; ; ; ; ; X.Y.Z.`. +.+++; ; ; ; ; ; @+#+$+%+&+*+  ",
"      =+-+;+; ; >+,+'+; ; )+!+~+{+]+; ; ^+/+(+_+; ; :+$+%+<+[+  ",
"      }+|+; ; 1+2+3+4+5+; ; 6+7+8+9+; ; 0+a+b+c+; ; d+e+f+g+h+  ",
"    i+j+k+; ; l+m+n+o+p+; ; q+r+s+t+; ; u+v+w+x+; ; ; y+z+A+B+  ",
"    C+D+E+; ; F+G+H+I+J+; ; K+L+M+N+; ; O+P+Q+R+; ; ; S+T+U+V+  ",
"  ; W+X+Y+; ; Z+`+ @.@+@; ; @@#@$@%@&@; ; ; ; ; ; ; ; *@=@-@;   ",
"  ;@>@,@'@; ; )@!@~@{@]@; ; ^@/@(@_@:@<@; ; ; [@}@; ; |@1@2@;   ",
"  3@4@5@6@; ; 7@8@9@0@a@; ; b@c@d@e@f@g@h@i@j@k@l@; m@n@o@p@    ",
"  q@r@s@t@; ; u@v@w@x@y@; ; z@A@L+B@C@D@E@F@G@H@; ; I@J@K@L@    ",
"  M@N@O@P@V+; ; Q@R@S@; ; T@U@V@W@X@Y@Z@`@ #.#+#; m@@###$#;     ",
"  %#&#*#=#-#;#; ; ; ; ; >#,#'#)#!#~#; ; ; ; ; ; {#]#^#/#(#      ",
"  _#:#<#[#}#|#1#2#y.3#4#5#6#'#7#c@8#9#0#a#b#c#d#e#^#/#/#(#      ",
"  f#g#h#[#i#j#k#l#m#n#o#[#p#'#p#p#p#p#p#p#q#r#s#t#u#v#w#        ",
"  f#h#[#[#[#[#[#[#n#n#x#y#z#'#A#B#C#D#C@E#F#G#H#u#I#; ;         ",
"  J#K#L#M#N#O#P#Q#;   ; o#R#'#S#T#U#V#W#X#Y#Z#`# $.$            ",
"  +$@$#$$$O@%$&$*$    =$-$;$'#>$,$'$)$!$~${$]$^$/$;             ",
"  ; ($_$:$<$[$}$;     |$1$2$3$,$; ; ; ; L@4$5$; ;               ",
"    6$7$a+8$9$0$a$b$c$d$e$f$g$;                                 ",
"    ; h$i$j$#$k$l$m$n$n$o$p$;                                   ",
"      ; h$i$j$q$q$q$q$r$o$p$;                                   ",
"        ; s$t$u$q$v$w$x$y$z$;                                   ",
"            A$B$C$D$E$F$G$;                                     ",
"              ; ; V+H$; ;                                       "};
