/* XPM */
static char * attr02_xpm[] = {
"32 32 529 2",
"  	c None",
". 	c #693D1A",
"+ 	c #6A3A1E",
"@ 	c #69381E",
"# 	c #6D3D21",
"$ 	c #724224",
"% 	c #724124",
"& 	c #703D1F",
"* 	c #5B2F16",
"= 	c #4C2713",
"- 	c #1F0A0A",
"; 	c #000000",
"> 	c #66391E",
", 	c #6F3D22",
"' 	c #82502F",
") 	c #9E7444",
"! 	c #B9965A",
"~ 	c #CCAD6C",
"{ 	c #D7BC79",
"] 	c #D8C07B",
"^ 	c #D0B670",
"/ 	c #B09362",
"( 	c #946A3F",
"_ 	c #73431F",
": 	c #3D2010",
"< 	c #55301C",
"[ 	c #683B21",
"} 	c #946539",
"| 	c #C49F54",
"1 	c #CAC361",
"2 	c #FEE589",
"3 	c #FFF194",
"4 	c #FFF39A",
"5 	c #FFF89D",
"6 	c #F8EFA8",
"7 	c #BEC7D2",
"8 	c #B0C0EA",
"9 	c #A6B2DA",
"0 	c #A9A094",
"a 	c #9C7144",
"b 	c #5D321A",
"c 	c #160B05",
"d 	c #452E17",
"e 	c #562F1B",
"f 	c #8A582F",
"g 	c #D3A657",
"h 	c #FFDA73",
"i 	c #ADD264",
"j 	c #64BA54",
"k 	c #E6D277",
"l 	c #FFE98F",
"m 	c #FFEC91",
"n 	c #F1E39C",
"o 	c #96A6E4",
"p 	c #B5C6FF",
"q 	c #D6E1FF",
"r 	c #CFDCFF",
"s 	c #9CB3FE",
"t 	c #C5CBBC",
"u 	c #B69761",
"v 	c #64361C",
"w 	c #110505",
"x 	c #341E0F",
"y 	c #744226",
"z 	c #B38041",
"A 	c #FECC65",
"B 	c #F1D764",
"C 	c #A4C24F",
"D 	c #A3DDA8",
"E 	c #B7D6A3",
"F 	c #E2CD6C",
"G 	c #F6E385",
"H 	c #FEEC8D",
"I 	c #DBD0A5",
"J 	c #85A1FF",
"K 	c #A7C0FF",
"L 	c #A2BBFF",
"M 	c #A4BDFF",
"N 	c #99B3FF",
"O 	c #B8C2C7",
"P 	c #FFFFBD",
"Q 	c #AD8C5F",
"R 	c #552B15",
"S 	c #6C4023",
"T 	c #CE9A47",
"U 	c #F0D059",
"V 	c #8CBD40",
"W 	c #62B94D",
"X 	c #76CB7A",
"Y 	c #A8E1AC",
"Z 	c #87CB7E",
"` 	c #96C96F",
" .	c #60B546",
"..	c #D9D176",
"+.	c #FDED94",
"@.	c #B3B8BD",
"#.	c #638BFD",
"$.	c #658EFF",
"%.	c #5F87FB",
"&.	c #C4C9B9",
"*.	c #FFFFBF",
"=.	c #F5F2B3",
"-.	c #8C5F3B",
";.	c #281309",
">.	c #120606",
",.	c #734524",
"'.	c #DCA446",
").	c #FFD65E",
"!.	c #8EB331",
"~.	c #24AF38",
"{.	c #68C96D",
"].	c #6FCA6F",
"^.	c #76CD78",
"/.	c #66C76F",
"(.	c #85B454",
"_.	c #F0DA83",
":.	c #FFF28F",
"<.	c #DAD2A6",
"[.	c #4271FC",
"}.	c #3E71FF",
"|.	c #3F72FF",
"1.	c #386EFF",
"2.	c #5C81EB",
"3.	c #DFE3BA",
"4.	c #FFFFC6",
"5.	c #C5AB78",
"6.	c #532A15",
"7.	c #7A4A25",
"8.	c #DEA340",
"9.	c #FFCD50",
"0.	c #FFCB57",
"a.	c #DAC04D",
"b.	c #4AA728",
"c.	c #2BB02F",
"d.	c #38B538",
"e.	c #3EB73E",
"f.	c #3BB63E",
"g.	c #7BB045",
"h.	c #F5D67F",
"i.	c #FFEB8B",
"j.	c #E9DA9B",
"k.	c #577EF2",
"l.	c #3A6FFF",
"m.	c #3D70FF",
"n.	c #4471F7",
"o.	c #5377E9",
"p.	c #C6CCB7",
"q.	c #FFFFC1",
"r.	c #EBE2A4",
"s.	c #794A27",
"t.	c #0A0500",
"u.	c #633C1E",
"v.	c #AB802F",
"w.	c #554318",
"x.	c #181207",
"y.	c #050301",
"z.	c #171208",
"A.	c #433E18",
"B.	c #067F04",
"C.	c #08A409",
"D.	c #0BA50E",
"E.	c #0DA30E",
"F.	c #9FB94E",
"G.	c #9A8A53",
"H.	c #58502E",
"I.	c #242116",
"J.	c #030509",
"K.	c #000104",
"L.	c #040916",
"M.	c #1D2743",
"N.	c #9F9C77",
"O.	c #EDE9A9",
"P.	c #FDFBB6",
"Q.	c #FFFFC0",
"R.	c #FCFAB8",
"S.	c #91643A",
"T.	c #1D0D05",
"U.	c #482C15",
"V.	c #7D521E",
"W.	c #030100",
"X.	c #000200",
"Y.	c #006600",
"Z.	c #009A00",
"`.	c #009C00",
" +	c #26A213",
".+	c #939367",
"++	c #FFFEB9",
"@+	c #FFFFBE",
"#+	c #FFFEBC",
"$+	c #A17848",
"%+	c #1F0F04",
"&+	c #1E0F07",
"*+	c #8B5C23",
"=+	c #080501",
"-+	c #7C571C",
";+	c #B9792D",
">+	c #7B602A",
",+	c #050602",
"'+	c #899D3A",
")+	c #47A420",
"!+	c #18980B",
"~+	c #332D1B",
"{+	c #8F804E",
"]+	c #BBAD69",
"^+	c #A5985D",
"/+	c #1F1D17",
"(+	c #080705",
"_+	c #F1EEAC",
":+	c #A67D4A",
"<+	c #220F04",
"[+	c #623E1B",
"}+	c #694D15",
"|+	c #522B28",
"1+	c #FC7563",
"2+	c #FD5656",
"3+	c #EF6C2E",
"4+	c #4A401A",
"5+	c #776435",
"6+	c #FDD471",
"7+	c #E5CA6C",
"8+	c #AE9856",
"9+	c #FFE384",
"0+	c #FFE58B",
"a+	c #FFE891",
"b+	c #FFEC96",
"c+	c #D4CA80",
"d+	c #C1BD88",
"e+	c #FFFFBC",
"f+	c #FEFDBB",
"g+	c #A47742",
"h+	c #241206",
"i+	c #1F1306",
"j+	c #B36A24",
"k+	c #311B07",
"l+	c #95484A",
"m+	c #FF8084",
"n+	c #FF6972",
"o+	c #EC4C24",
"p+	c #907833",
"q+	c #332A15",
"r+	c #FFD972",
"s+	c #FFDD79",
"t+	c #FFDE7D",
"u+	c #FFE182",
"v+	c #FFE489",
"w+	c #FFE78E",
"x+	c #FFEB94",
"y+	c #F5E493",
"z+	c #C8C48C",
"A+	c #FFFFBB",
"B+	c #FAF5B4",
"C+	c #9A6833",
"D+	c #1C0F05",
"E+	c #5B3D18",
"F+	c #E78422",
"G+	c #0D0100",
"H+	c #AF1414",
"I+	c #FF1D1E",
"J+	c #FF0B15",
"K+	c #E96229",
"L+	c #AA8E3C",
"M+	c #0F0C06",
"N+	c #FFD76E",
"O+	c #FFD974",
"P+	c #FFDD7A",
"Q+	c #FFE080",
"R+	c #FFE386",
"S+	c #FFE68D",
"T+	c #FFEA93",
"U+	c #9E925E",
"V+	c #1B1A12",
"W+	c #FBF5AE",
"X+	c #EBDE9D",
"Y+	c #8E5B27",
"Z+	c #070300",
"`+	c #A36924",
" @	c #FDB526",
".@	c #020100",
"+@	c #B60000",
"@@	c #F3260C",
"#@	c #EA591F",
"$@	c #EBA140",
"%@	c #B5913D",
"&@	c #030201",
"*@	c #FFD66D",
"=@	c #FFD973",
"-@	c #FFDC79",
";@	c #FFDF7F",
">@	c #FFE285",
",@	c #FFE68B",
"'@	c #C2B16F",
")@	c #0C0B07",
"!@	c #B7AF7A",
"~@	c #FFF8AF",
"{@	c #DBC07D",
"]@	c #724416",
"^@	c #2D190C",
"/@	c #D08A25",
"(@	c #FFB423",
"_@	c #0D0A02",
":@	c #AF0000",
"<@	c #F51D0A",
"[@	c #EEBC44",
"}@	c #FECB4E",
"|@	c #AD8738",
"1@	c #0F0C05",
"2@	c #FFD46B",
"3@	c #FFD871",
"4@	c #FFDB78",
"5@	c #FFE284",
"6@	c #AB985B",
"7@	c #080704",
"8@	c #A39A66",
"9@	c #FFF4A7",
"0@	c #FFF8AE",
"a@	c #FFFDB7",
"b@	c #C89B57",
"c@	c #502E0E",
"d@	c #4F3112",
"e@	c #EDA027",
"f@	c #FFB221",
"g@	c #312307",
"h@	c #88290C",
"i@	c #F2230B",
"j@	c #EE8932",
"k@	c #FFCC4D",
"l@	c #92712E",
"m@	c #332914",
"n@	c #FFD469",
"o@	c #FFD770",
"p@	c #FFDA76",
"q@	c #FFDD7C",
"r@	c #8F7D48",
"s@	c #020101",
"t@	c #090805",
"u@	c #B0A36A",
"v@	c #FFF0A0",
"w@	c #FFF4A6",
"x@	c #FFFAAF",
"y@	c #F9EFA7",
"z@	c #B07835",
"A@	c #301C09",
"B@	c #774E1C",
"C@	c #F9AD2B",
"D@	c #FFB020",
"E@	c #755612",
"F@	c #4A3510",
"G@	c #F39530",
"H@	c #EB9835",
"I@	c #FFC74B",
"J@	c #4E3C18",
"K@	c #76602D",
"L@	c #FFD368",
"M@	c #FED973",
"N@	c #706135",
"O@	c #13110A",
"P@	c #C5B470",
"Q@	c #FFED99",
"R@	c #FFF09F",
"S@	c #FFFEB2",
"T@	c #E3C87F",
"U@	c #915B1E",
"V@	c #0A0300",
"W@	c #895E24",
"X@	c #FFB52E",
"Y@	c #FFAE20",
"Z@	c #DD9D20",
"`@	c #7D5F1D",
" #	c #BC8F31",
".#	c #7B5D22",
"+#	c #0A0803",
"@#	c #DFB555",
"##	c #FFD267",
"$#	c #FFD66C",
"%#	c #544725",
"&#	c #070603",
"*#	c #9B8B53",
"=#	c #C3B16E",
"-#	c #C3B472",
";#	c #C3B678",
">#	c #C3BA7E",
",#	c #EEE69F",
"'#	c #CB974B",
")#	c #5C3811",
"!#	c #936729",
"~#	c #FFB931",
"{#	c #FFAE1F",
"]#	c #FFAE22",
"^#	c #9F7219",
"/#	c #020200",
"(#	c #030200",
"_#	c #A48239",
":#	c #FFD062",
"<#	c #FFD264",
"[#	c #FFD56B",
"}#	c #A8945D",
"|#	c #AA6D24",
"1#	c #1C1004",
"2#	c #966D2E",
"3#	c #FFBD39",
"4#	c #FFAD1E",
"5#	c #FFAE21",
"6#	c #FFB126",
"7#	c #C98E22",
"8#	c #533B10",
"9#	c #171005",
"0#	c #161208",
"a#	c #534623",
"b#	c #CAA044",
"c#	c #FFC955",
"d#	c #FFD163",
"e#	c #7A4E19",
"f#	c #956B2F",
"g#	c #FFC447",
"h#	c #FFAC1C",
"i#	c #FFAF24",
"j#	c #FFB32A",
"k#	c #FFB830",
"l#	c #F5B036",
"m#	c #C98F38",
"n#	c #956728",
"o#	c #C0872E",
"p#	c #FFD870",
"q#	c #FFE385",
"r#	c #FFF39E",
"s#	c #EBC268",
"t#	c #AC6E21",
"u#	c #181104",
"v#	c #281605",
"w#	c #DDA542",
"x#	c #FFCD55",
"y#	c #FFCF5F",
"z#	c #FFD96E",
"A#	c #FFE07A",
"B#	c #FFDE7A",
"C#	c #FFDF7D",
"D#	c #FFE88D",
"E#	c #FFEC94",
"F#	c #C9852B",
"G#	c #634114",
"H#	c #F8CB6A",
"I#	c #FFBA32",
"J#	c #FFAC1E",
"K#	c #FFAF21",
"L#	c #FFB527",
"M#	c #E69E2C",
"N#	c #442C0F",
"O#	c #FFCB52",
"P#	c #FED064",
"Q#	c #F4C666",
"R#	c #EDC063",
"S#	c #FCD475",
"T#	c #FFE687",
"U#	c #FFE789",
"V#	c #FFE588",
"W#	c #FBDB7F",
"X#	c #E9B353",
"Y#	c #C28027",
"Z#	c #533610",
"`#	c #271504",
" $	c #DCAC55",
".$	c #FFD466",
"+$	c #FFAB1B",
"@$	c #FFB526",
"#$	c #BC7E23",
"$$	c #030000",
"%$	c #150A00",
"&$	c #D29432",
"*$	c #FFCB51",
"=$	c #D79B3C",
"-$	c #774D16",
";$	c #472C0B",
">$	c #563912",
",$	c #8C6629",
"'$	c #C59645",
")$	c #D29B41",
"!$	c #BD812B",
"~$	c #8B5A19",
"{$	c #2F1F08",
"]$	c #996922",
"^$	c #FFE086",
"/$	c #FFC448",
"($	c #FFAA18",
"_$	c #FFB625",
":$	c #A5701D",
"<$	c #704914",
"[$	c #F3AF3D",
"}$	c #FFCA50",
"|$	c #E3A138",
"1$	c #1F1002",
"2$	c #0D0800",
"3$	c #341D03",
"4$	c #DEA648",
"5$	c #FFC144",
"6$	c #FFAF19",
"7$	c #DB9521",
"8$	c #2D1D08",
"9$	c #482400",
"0$	c #A96F21",
"a$	c #CF8E2B",
"b$	c #FEC145",
"c$	c #FFBF46",
"d$	c #8B5E1C",
"e$	c #69440F",
"f$	c #F0B958",
"g$	c #FFB52B",
"h$	c #E19621",
"i$	c #D48D24",
"j$	c #E79E2D",
"k$	c #FFCE60",
"l$	c #B77E25",
"m$	c #FBD87E",
"n$	c #FFD05C",
"o$	c #503309",
"p$	c #C18224",
"q$	c #F1B952",
"r$	c #FCE490",
"s$	c #FAE28E",
"t$	c #F9CE6F",
"u$	c #EEAA3D",
"v$	c #56380F",
"w$	c #0C0800",
"x$	c #56380B",
"y$	c #966216",
"z$	c #C28425",
"A$	c #D28F2A",
"B$	c #AE741C",
"C$	c #53360D",
"D$	c #0B0800",
"                              . + @ # $ % & * = -               ",
"                        ; > , ' ) ! ~ { ] ^ / ( _ : ;           ",
"                      < [ } | 1 2 3 4 5 6 7 8 9 0 a b c         ",
"                  d e f g h i j k l m n o p q r s t u v w       ",
"                x y z A B C D E F G H I J K L M N O P Q R ;     ",
"              w S T U V W X Y Z `  ...+.@.#.$.$.%.&.*.=.-.;.    ",
"            >.,.'.).!.~.{.].].^./.(._.:.<.[.}.|.1.2.3.4.5.6.;   ",
"          - 7.8.9.0.a.b.c.d.e.f.g.h.i.j.k.l.|.m.n.o.p.q.r.s.t.  ",
"        ; u.v.w.x.y.z.A.B.C.D.E.F.G.H.I.J.K.L.M.N.O.P.Q.R.S.T.  ",
"        U.V.W.; ; ; ; ; X.Y.Z.`. +; ; ; ; ; ; ; ; .+++@+#+$+%+  ",
"      &+*+=+; ; -+;+>+; ; ,+'+)+!+; ~+{+]+^+/+; ; (+_+@+#+:+<+  ",
"      [+}+; ; |+1+2+3+4+; ; 5+6+7+8+9+0+a+b+c+; ; ; d+e+f+g+h+  ",
"    i+j+k+; ; l+m+n+o+p+; ; q+r+s+t+u+v+w+x+y+; ; ; z+A+B+C+D+  ",
"    E+F+G+; ; H+I+J+K+L+; ; M+N+O+P+Q+R+S+T+U+; ; V+W+P X+Y+Z+  ",
"  ; `+ @.@; ; +@@@#@$@%@; ; &@*@=@-@;@>@,@'@)@; &@!@~@@+{@]@;   ",
"  ^@/@(@_@; ; :@<@[@}@|@; ; 1@2@3@4@t+5@6@7@; &@8@9@0@a@b@c@;   ",
"  d@e@f@g@; ; h@i@j@k@l@; ; m@n@o@p@q@r@s@; t@u@v@w@x@y@z@A@    ",
"  B@C@D@E@; ; F@G@H@I@J@; ; K@L@N+M@N@; ; O@P@Q@R@w@S@T@U@V@    ",
"  W@X@Y@Z@Z+; ; `@ #.#; ; +#@###$#%#; ; &#*#=#-#;#>#,#'#)#;     ",
"  !#~#{#]#^#/#; ; ; ; ; (#_#:#<#[#; ; ; ; ; ; ; ; ; }#|#1#      ",
"  2#3#4#5#6#7#8#9#y.0#a#b#c#:#d#n@; ; ; ; ; ; ; ; ; e#|#1#      ",
"  f#g#h#5#i#j#k#l#m#n#o#5#p#:#p#p#p#p#p#p#q#0+T+r#s#t#u#        ",
"  f#h#5#5#5#5#5#5#n#n#v#w#x#:#y#z#A#B#P+C#5@D#E#s#F#; ;         ",
"  G#H#I#J#K#L#M#N#;   ; o#O#:#P#Q#R#S#T#U#V#W#X#Y#Z#            ",
"  `# $.$+$Y@@$#$$$    %$&$*$:#=$-$;$>$,$'$)$!$~${$;             ",
"  ; ]$^$/$($_$:$;     <$[$}$|$-$; ; ; ; V@1$2$; ;               ",
"    3$4$b+5$6$7$8$9$0$a$b$c$d$;                                 ",
"    ; e$f$v@.$g$h$i$j$j$k$l$;                                   ",
"      ; e$f$v@m$m$m$m$n$k$l$;                                   ",
"        ; o$p$q$m$r$s$t$u$v$;                                   ",
"            w$x$y$z$A$B$C$;                                     ",
"              ; ; Z+D$; ;                                       "};
