/* XPM */
static char * attr05_xpm[] = {
"32 32 527 2",
"  	c None",
". 	c #693D1A",
"+ 	c #6A3A1E",
"@ 	c #69381E",
"# 	c #6D3D21",
"$ 	c #724224",
"% 	c #724124",
"& 	c #703D1F",
"* 	c #5B2F16",
"= 	c #4C2713",
"- 	c #1F0A0A",
"; 	c #000000",
"> 	c #66391E",
", 	c #6F3D22",
"' 	c #82502F",
") 	c #9E7444",
"! 	c #B9965A",
"~ 	c #CCAD6C",
"{ 	c #D7BC79",
"] 	c #D8C07B",
"^ 	c #D0B670",
"/ 	c #B09362",
"( 	c #946A3F",
"_ 	c #73431F",
": 	c #3D2010",
"< 	c #55301C",
"[ 	c #683B21",
"} 	c #946539",
"| 	c #C49F54",
"1 	c #CAC361",
"2 	c #FEE589",
"3 	c #FFF194",
"4 	c #FFF39A",
"5 	c #FFF89D",
"6 	c #F8EFA8",
"7 	c #BEC7D2",
"8 	c #B0C0EA",
"9 	c #A6B2DA",
"0 	c #A9A094",
"a 	c #9C7144",
"b 	c #5D321A",
"c 	c #160B05",
"d 	c #452E17",
"e 	c #562F1B",
"f 	c #8A582F",
"g 	c #D3A657",
"h 	c #FFDA73",
"i 	c #ADD264",
"j 	c #64BA54",
"k 	c #E6D277",
"l 	c #FFE98F",
"m 	c #FFEC91",
"n 	c #F1E39C",
"o 	c #96A6E4",
"p 	c #B5C6FF",
"q 	c #D6E1FF",
"r 	c #CFDCFF",
"s 	c #9CB3FE",
"t 	c #C5CBBC",
"u 	c #B69761",
"v 	c #64361C",
"w 	c #110505",
"x 	c #341E0F",
"y 	c #744226",
"z 	c #B38041",
"A 	c #FECC65",
"B 	c #F1D764",
"C 	c #A4C24F",
"D 	c #A3DDA8",
"E 	c #B7D6A3",
"F 	c #E2CD6C",
"G 	c #F6E385",
"H 	c #FEEC8D",
"I 	c #DBD0A5",
"J 	c #85A1FF",
"K 	c #A7C0FF",
"L 	c #A2BBFF",
"M 	c #A4BDFF",
"N 	c #99B3FF",
"O 	c #B8C2C7",
"P 	c #FFFFBD",
"Q 	c #AD8C5F",
"R 	c #552B15",
"S 	c #6C4023",
"T 	c #CE9A47",
"U 	c #F0D059",
"V 	c #8CBD40",
"W 	c #62B94D",
"X 	c #76CB7A",
"Y 	c #A8E1AC",
"Z 	c #87CB7E",
"` 	c #96C96F",
" .	c #60B546",
"..	c #D9D176",
"+.	c #FDED94",
"@.	c #B3B8BD",
"#.	c #638BFD",
"$.	c #658EFF",
"%.	c #5F87FB",
"&.	c #C4C9B9",
"*.	c #FFFFBF",
"=.	c #F5F2B3",
"-.	c #8C5F3B",
";.	c #281309",
">.	c #120606",
",.	c #734524",
"'.	c #DCA446",
").	c #FFD65E",
"!.	c #8EB331",
"~.	c #24AF38",
"{.	c #68C96D",
"].	c #6FCA6F",
"^.	c #76CD78",
"/.	c #66C76F",
"(.	c #85B454",
"_.	c #F0DA83",
":.	c #FFF28F",
"<.	c #DAD2A6",
"[.	c #4271FC",
"}.	c #3E71FF",
"|.	c #3F72FF",
"1.	c #386EFF",
"2.	c #5C81EB",
"3.	c #DFE3BA",
"4.	c #FFFFC6",
"5.	c #C5AB78",
"6.	c #532A15",
"7.	c #7A4A25",
"8.	c #DEA340",
"9.	c #FFCD50",
"0.	c #FFCB57",
"a.	c #DAC04D",
"b.	c #4AA728",
"c.	c #2BB02F",
"d.	c #38B538",
"e.	c #3EB73E",
"f.	c #3BB63E",
"g.	c #7BB045",
"h.	c #F5D67F",
"i.	c #FFEB8B",
"j.	c #E9DA9B",
"k.	c #577EF2",
"l.	c #3A6FFF",
"m.	c #3D70FF",
"n.	c #4471F7",
"o.	c #5377E9",
"p.	c #C6CCB7",
"q.	c #FFFFC1",
"r.	c #EBE2A4",
"s.	c #794A27",
"t.	c #0A0500",
"u.	c #633C1E",
"v.	c #AB802F",
"w.	c #554318",
"x.	c #181207",
"y.	c #050301",
"z.	c #171208",
"A.	c #433E18",
"B.	c #067F04",
"C.	c #08A409",
"D.	c #0BA50E",
"E.	c #0DA30E",
"F.	c #9FB94E",
"G.	c #FFE58A",
"H.	c #A1A074",
"I.	c #FFFFC0",
"J.	c #FCFAB8",
"K.	c #91643A",
"L.	c #1D0D05",
"M.	c #482C15",
"N.	c #7D521E",
"O.	c #030100",
"P.	c #000200",
"Q.	c #006600",
"R.	c #009A00",
"S.	c #009C00",
"T.	c #26A213",
"U.	c #E4D275",
"V.	c #A3A276",
"W.	c #FFFFBE",
"X.	c #FFFEBC",
"Y.	c #A17848",
"Z.	c #1F0F04",
"`.	c #1E0F07",
" +	c #8B5C23",
".+	c #080501",
"++	c #7C571C",
"@+	c #B9792D",
"#+	c #7B602A",
"$+	c #050602",
"%+	c #899D3A",
"&+	c #47A420",
"*+	c #18980B",
"=+	c #C1C160",
"-+	c #8C814F",
";+	c #A39C7B",
">+	c #9B987E",
",+	c #BFB87E",
"'+	c #C3BF87",
")+	c #EAE7A7",
"!+	c #A67D4A",
"~+	c #220F04",
"{+	c #623E1B",
"]+	c #694D15",
"^+	c #522B28",
"/+	c #FC7563",
"(+	c #FD5656",
"_+	c #EF6C2E",
":+	c #4A401A",
"<+	c #776435",
"[+	c #FDD471",
"}+	c #E5CA6C",
"|+	c #F8D97B",
"1+	c #B7A96B",
"2+	c #FFF49B",
"3+	c #FFF6A1",
"4+	c #FFF5A9",
"5+	c #FFF8AE",
"6+	c #FFFBB4",
"7+	c #FFFFBC",
"8+	c #FEFDBB",
"9+	c #A47742",
"0+	c #241206",
"a+	c #1F1306",
"b+	c #B36A24",
"c+	c #311B07",
"d+	c #95484A",
"e+	c #FF8084",
"f+	c #FF6972",
"g+	c #EC4C24",
"h+	c #907833",
"i+	c #332A15",
"j+	c #FFD972",
"k+	c #FFDD79",
"l+	c #FFDE7D",
"m+	c #18160D",
"n+	c #050403",
"o+	c #100F0A",
"p+	c #47432E",
"q+	c #C0B982",
"r+	c #FFFAB3",
"s+	c #FFFFBB",
"t+	c #FAF5B4",
"u+	c #9A6833",
"v+	c #1C0F05",
"w+	c #5B3D18",
"x+	c #E78422",
"y+	c #0D0100",
"z+	c #AF1414",
"A+	c #FF1D1E",
"B+	c #FF0B15",
"C+	c #E96229",
"D+	c #AA8E3C",
"E+	c #0F0C06",
"F+	c #FFD76E",
"G+	c #FFD974",
"H+	c #FFDD7A",
"I+	c #020101",
"J+	c #ACA777",
"K+	c #EBDE9D",
"L+	c #8E5B27",
"M+	c #070300",
"N+	c #A36924",
"O+	c #FDB526",
"P+	c #020100",
"Q+	c #B60000",
"R+	c #F3260C",
"S+	c #EA591F",
"T+	c #EBA140",
"U+	c #B5913D",
"V+	c #030201",
"W+	c #FFD66D",
"X+	c #FFD973",
"Y+	c #FFDC79",
"Z+	c #2C2615",
"`+	c #7E6F41",
" @	c #B19F60",
".@	c #BFAE6D",
"+@	c #918555",
"@@	c #15130D",
"#@	c #1A1911",
"$@	c #FCFCBB",
"%@	c #DBC07D",
"&@	c #724416",
"*@	c #2D190C",
"=@	c #D08A25",
"-@	c #FFB423",
";@	c #0D0A02",
">@	c #AF0000",
",@	c #F51D0A",
"'@	c #EEBC44",
")@	c #FECB4E",
"!@	c #AD8738",
"~@	c #0F0C05",
"{@	c #FFD46B",
"]@	c #FFD871",
"^@	c #FFDB78",
"/@	c #FFE284",
"(@	c #FFE489",
"_@	c #FFE78F",
":@	c #FFEB95",
"<@	c #C0B374",
"[@	c #D1CF95",
"}@	c #C89B57",
"|@	c #502E0E",
"1@	c #4F3112",
"2@	c #EDA027",
"3@	c #FFB221",
"4@	c #312307",
"5@	c #88290C",
"6@	c #F2230B",
"7@	c #EE8932",
"8@	c #FFCC4D",
"9@	c #92712E",
"0@	c #332914",
"a@	c #FFD469",
"b@	c #FFD770",
"c@	c #FFDA76",
"d@	c #FFDD7C",
"e@	c #FFE082",
"f@	c #FFE488",
"g@	c #FFE68E",
"h@	c #FFEA94",
"i@	c #F9E796",
"j@	c #B8B17B",
"k@	c #B07835",
"l@	c #301C09",
"m@	c #774E1C",
"n@	c #F9AD2B",
"o@	c #FFB020",
"p@	c #755612",
"q@	c #4A3510",
"r@	c #F39530",
"s@	c #EB9835",
"t@	c #FFC74B",
"u@	c #4E3C18",
"v@	c #76602D",
"w@	c #FFD368",
"x@	c #D2B35F",
"y@	c #F3D274",
"z@	c #FFE081",
"A@	c #FFE387",
"B@	c #FFE68C",
"C@	c #FFE992",
"D@	c #BFB172",
"E@	c #BEA76A",
"F@	c #915B1E",
"G@	c #0A0300",
"H@	c #895E24",
"I@	c #FFB52E",
"J@	c #FFAE20",
"K@	c #DD9D20",
"L@	c #7D5F1D",
"M@	c #BC8F31",
"N@	c #7B5D22",
"O@	c #0A0803",
"P@	c #DFB555",
"Q@	c #FFD267",
"R@	c #FFD66C",
"S@	c #7F6C39",
"T@	c #120F08",
"U@	c #6C5E35",
"V@	c #AC9859",
"W@	c #BFAB67",
"X@	c #918351",
"Y@	c #15130C",
"Z@	c #2A291C",
"`@	c #CB974B",
" #	c #5C3811",
".#	c #936729",
"+#	c #FFB931",
"@#	c #FFAE1F",
"##	c #FFAE22",
"$#	c #9F7219",
"%#	c #020200",
"&#	c #030200",
"*#	c #A48239",
"=#	c #FFD062",
"-#	c #FFD264",
";#	c #FFD56B",
">#	c #7F6B37",
",#	c #11100B",
"'#	c #BCA668",
")#	c #AA6D24",
"!#	c #1C1004",
"~#	c #966D2E",
"{#	c #FFBD39",
"]#	c #FFAD1E",
"^#	c #FFAE21",
"/#	c #FFB126",
"(#	c #C98E22",
"_#	c #533B10",
":#	c #171005",
"<#	c #161208",
"[#	c #534623",
"}#	c #CAA044",
"|#	c #FFC955",
"1#	c #FFD163",
"2#	c #E0BB61",
"3#	c #816E3B",
"4#	c #3E351D",
"5#	c #16130B",
"6#	c #090805",
"7#	c #2A2617",
"8#	c #72673F",
"9#	c #D3B974",
"0#	c #956B2F",
"a#	c #FFC447",
"b#	c #FFAC1C",
"c#	c #FFAF24",
"d#	c #FFB32A",
"e#	c #FFB830",
"f#	c #F5B036",
"g#	c #C98F38",
"h#	c #956728",
"i#	c #C0872E",
"j#	c #FFD870",
"k#	c #FFE385",
"l#	c #FFE58B",
"m#	c #FFEA93",
"n#	c #FFF39E",
"o#	c #EBC268",
"p#	c #AC6E21",
"q#	c #181104",
"r#	c #281605",
"s#	c #DDA542",
"t#	c #FFCD55",
"u#	c #FFCF5F",
"v#	c #FFD96E",
"w#	c #FFE07A",
"x#	c #FFDE7A",
"y#	c #FFDF7D",
"z#	c #FFE88D",
"A#	c #FFEC94",
"B#	c #C9852B",
"C#	c #634114",
"D#	c #F8CB6A",
"E#	c #FFBA32",
"F#	c #FFAC1E",
"G#	c #FFAF21",
"H#	c #FFB527",
"I#	c #E69E2C",
"J#	c #442C0F",
"K#	c #FFCB52",
"L#	c #FED064",
"M#	c #F4C666",
"N#	c #EDC063",
"O#	c #FCD475",
"P#	c #FFE687",
"Q#	c #FFE789",
"R#	c #FFE588",
"S#	c #FBDB7F",
"T#	c #E9B353",
"U#	c #C28027",
"V#	c #533610",
"W#	c #271504",
"X#	c #DCAC55",
"Y#	c #FFD466",
"Z#	c #FFAB1B",
"`#	c #FFB526",
" $	c #BC7E23",
".$	c #030000",
"+$	c #150A00",
"@$	c #D29432",
"#$	c #FFCB51",
"$$	c #D79B3C",
"%$	c #774D16",
"&$	c #472C0B",
"*$	c #563912",
"=$	c #8C6629",
"-$	c #C59645",
";$	c #D29B41",
">$	c #BD812B",
",$	c #8B5A19",
"'$	c #2F1F08",
")$	c #996922",
"!$	c #FFE086",
"~$	c #FFC448",
"{$	c #FFAA18",
"]$	c #FFB625",
"^$	c #A5701D",
"/$	c #704914",
"($	c #F3AF3D",
"_$	c #FFCA50",
":$	c #E3A138",
"<$	c #1F1002",
"[$	c #0D0800",
"}$	c #341D03",
"|$	c #DEA648",
"1$	c #FFEC96",
"2$	c #FFC144",
"3$	c #FFAF19",
"4$	c #DB9521",
"5$	c #2D1D08",
"6$	c #482400",
"7$	c #A96F21",
"8$	c #CF8E2B",
"9$	c #FEC145",
"0$	c #FFBF46",
"a$	c #8B5E1C",
"b$	c #69440F",
"c$	c #F0B958",
"d$	c #FFF0A0",
"e$	c #FFB52B",
"f$	c #E19621",
"g$	c #D48D24",
"h$	c #E79E2D",
"i$	c #FFCE60",
"j$	c #B77E25",
"k$	c #FBD87E",
"l$	c #FFD05C",
"m$	c #503309",
"n$	c #C18224",
"o$	c #F1B952",
"p$	c #FCE490",
"q$	c #FAE28E",
"r$	c #F9CE6F",
"s$	c #EEAA3D",
"t$	c #56380F",
"u$	c #0C0800",
"v$	c #56380B",
"w$	c #966216",
"x$	c #C28425",
"y$	c #D28F2A",
"z$	c #AE741C",
"A$	c #53360D",
"B$	c #0B0800",
"                              . + @ # $ % & * = -               ",
"                        ; > , ' ) ! ~ { ] ^ / ( _ : ;           ",
"                      < [ } | 1 2 3 4 5 6 7 8 9 0 a b c         ",
"                  d e f g h i j k l m n o p q r s t u v w       ",
"                x y z A B C D E F G H I J K L M N O P Q R ;     ",
"              w S T U V W X Y Z `  ...+.@.#.$.$.%.&.*.=.-.;.    ",
"            >.,.'.).!.~.{.].].^./.(._.:.<.[.}.|.1.2.3.4.5.6.;   ",
"          - 7.8.9.0.a.b.c.d.e.f.g.h.i.j.k.l.|.m.n.o.p.q.r.s.t.  ",
"        ; u.v.w.x.y.z.A.B.C.D.E.F.G.; ; ; ; ; ; ; ; H.I.J.K.L.  ",
"        M.N.O.; ; ; ; ; P.Q.R.S.T.U.; ; ; ; ; ; ; ; V.W.X.Y.Z.  ",
"      `. +.+; ; ++@+#+; ; $+%+&+*+=+; ; ; -+;+>+,+'+)+W.X.!+~+  ",
"      {+]+; ; ^+/+(+_+:+; ; <+[+}+|+; ; ; 1+2+3+4+5+6+7+8+9+0+  ",
"    a+b+c+; ; d+e+f+g+h+; ; i+j+k+l+; ; ; m+n+o+p+q+r+s+t+u+v+  ",
"    w+x+y+; ; z+A+B+C+D+; ; E+F+G+H+; ; ; ; ; ; ; I+J+P K+L+M+  ",
"  ; N+O+P+; ; Q+R+S+T+U+; ; V+W+X+Y+Z+`+ @.@+@@@; ; #@$@%@&@;   ",
"  *@=@-@;@; ; >@,@'@)@!@; ; ~@{@]@^@l+/@(@_@:@<@; ; ; [@}@|@;   ",
"  1@2@3@4@; ; 5@6@7@8@9@; ; 0@a@b@c@d@e@f@g@h@i@; ; ; j@k@l@    ",
"  m@n@o@p@; ; q@r@s@t@u@; ; v@w@F+x@y@z@A@B@C@D@; ; ; E@F@G@    ",
"  H@I@J@K@M+; ; L@M@N@; ; O@P@Q@R@S@T@U@V@W@X@Y@; ; Z@`@ #;     ",
"  .#+#@###$#%#; ; ; ; ; &#*#=#-#;#>#; ; ; ; ; ; ; ,#'#)#!#      ",
"  ~#{#]#^#/#(#_#:#y.<#[#}#|#=#1#a@2#3#4#5#V+6#7#8#9#)#)#!#      ",
"  0#a#b#^#c#d#e#f#g#h#i#^#j#=#j#j#j#j#j#j#k#l#m#n#o#p#q#        ",
"  0#b#^#^#^#^#^#^#h#h#r#s#t#=#u#v#w#x#H+y#/@z#A#o#B#; ;         ",
"  C#D#E#F#G#H#I#J#;   ; i#K#=#L#M#N#O#P#Q#R#S#T#U#V#            ",
"  W#X#Y#Z#J@`# $.$    +$@$#$=#$$%$&$*$=$-$;$>$,$'$;             ",
"  ; )$!$~${$]$^$;     /$($_$:$%$; ; ; ; G@<$[$; ;               ",
"    }$|$1$2$3$4$5$6$7$8$9$0$a$;                                 ",
"    ; b$c$d$Y#e$f$g$h$h$i$j$;                                   ",
"      ; b$c$d$k$k$k$k$l$i$j$;                                   ",
"        ; m$n$o$k$p$q$r$s$t$;                                   ",
"            u$v$w$x$y$z$A$;                                     ",
"              ; ; M+B$; ;                                       "};
