/* XPM */
static char *clear_filter_masks[]={
"32 32 158 2",
".a c None",
"Qt c None",
"ab c #080808",
"aq c #c15e08",
"## c #c1c108",
".b c #ffffc1",
"ah c #585858",
"#p c #c0c000",
".j c #ffffc0",
"aa c #474747",
"#5 c #737300",
"am c #c05800",
".W c #c0c000",
".c c #ffffc0",
".l c #000000",
"#V c #030303",
".A c #040404",
"aw c #060606",
"ac c #070707",
".9 c #080808",
"#q c #0b0b0b",
"#W c #0e0e0e",
".B c #0f0f0f",
"#z c #101010",
"#n c #141414",
".r c #161616",
".q c #171717",
"aA c #180b00",
".p c #181818",
"#I c #1e1e1e",
".X c #1f1f1f",
"#3 c #202020",
".J c #242424",
"#H c #2c2c08",
"#j c #301f10",
"#k c #3c3c3c",
"#w c #3f2a16",
"#S c #484800",
"ag c #542600",
"a# c #585858",
".7 c #5a5a5a",
"#4 c #5c5c5c",
"#2 c #5f3000",
"#U c #5f5f5f",
"aB c #602c00",
"#y c #686868",
"av c #6c3100",
"#Q c #703f10",
"#R c #707070",
"#a c #757575",
"#A c #787800",
"#J c #7a7a7a",
".H c #7b1c1c",
"#G c #808080",
"#m c #828282",
"#F c #868686",
".8 c #8a8a8a",
"#o c #8f8f00",
"#. c #8f8f10",
".I c #8f8f6c",
".V c #8f8f70",
".C c #939393",
".D c #949494",
"#l c #969696",
".U c #989898",
"#x c #9c9c9c",
"#b c #9e9e9e",
".m c #a0a078",
".E c #a0a0a0",
".Y c #a2a2a2",
".k c #a3a350",
".F c #a3a3a3",
".K c #a6a6a6",
".Z c #a7a7a7",
"#c c #a8a8a8",
".0 c #a9a9a9",
".L c #aaaaaa",
".s c #ababab",
"#d c #acacac",
".M c #adadad",
".n c #afaf40",
".f c #afaf74",
".1 c #b0b0b0",
"#r c #b2b2b2",
"#e c #b3b3b3",
"#T c #b4b400",
".2 c #b6b6b6",
".N c #b7b7b7",
".o c #b8b810",
"#f c #b9b9b9",
"#K c #bcbcbc",
".O c #bdbdbd",
".3 c #bebebe",
".h c #bfbf70",
".z c #c0c000",
".t c #c0c0c0",
"#7 c #c18a53",
"#6 c #c1c1c1",
".P c #c2c2c2",
".4 c #c3c3c3",
"az c #c4c4c4",
".Q c #c5c5c5",
"as c #c8c8c8",
".R c #c9c9c9",
"ap c #cb5f00",
"ay c #cbcbcb",
".5 c #cccccc",
".S c #cdcdcd",
"ar c #cecece",
"al c #cf6200",
"ax c #cfcfcf",
".u c #d0d0d0",
".v c #d1d1d1",
".w c #d2d2d2",
".x c #d3d3d3",
".T c #d4d4d4",
"an c #d5c5b6",
"ai c #d9cec4",
"af c #df6c00",
"#E c #df934d",
"#v c #dfa66b",
".6 c #e9d6b9",
"#s c #ead4b4",
"at c #ec8722",
".y c #ececc8",
"#X c #eed4ad",
"au c #ef7600",
"a. c #ef7800",
".i c #efef10",
".e c #efefb8",
"ao c #f48c25",
"aj c #f49e4a",
"ad c #f6af6e",
"ak c #f77b00",
".G c #fd0e0e",
".# c #ff0000",
"#g c #ff0e0b",
"#B c #ff7b5e",
"#1 c #ff8000",
"#9 c #ff850b",
"ae c #ff8710",
"#Z c #ff8a16",
"#h c #ff8a69",
"#0 c #ff942c",
"#8 c #ff9937",
"#O c #ffa047",
"#P c #ffa34d",
"#L c #ffa57e",
"#N c #ffa858",
"#M c #ffae62",
"#D c #ffb167",
"#Y c #ffb56c",
"#u c #ffc280",
"#t c #ffcf94",
"#C c #ffd299",
"#i c #ffdca8",
".g c #ffff00",
".d c #ffffc0",
"QtQtQtQtQtQtQtQtQtQtQtQt.#.#.#.#.#.#.a.a.a.a.a.b.c.d.d.e.f.g.g.g",
"QtQtQtQtQtQtQtQtQtQtQtQt.a.a.a.a.a.#.#.a.a.a.a.c.d.d.e.h.i.g.g.g",
"QtQtQtQtQtQtQtQtQtQtQtQt.a.a.a.a.a.#.#.a.a.a.j.d.d.d.f.i.g.g.g.g",
"QtQtQtQtQtQtQtQtQtQtQtQt.#.#.#.#.#.#.a.a.b.c.d.d.e.f.g.g.g.g.i.k",
"QtQtQtQtQtQtQtQtQtQtQt.l.#.l.l.l.l.l.l.l.m.d.d.e.h.i.g.g.g.i.n.o",
"QtQtQtQtQtQtQt.l.p.q.r.q.#.s.t.u.v.w.x.y.d.d.d.f.i.g.g.g.g.k.o.z",
"QtQtQtQtQt.A.B.l.C.D.E.F.#.#.#.#.#.G.H.I.d.e.f.g.g.g.g.i.k.z.z.z",
"QtQtQtQt.J.C.C.E.K.L.M.N.O.P.Q.R.S.T.U.p.V.h.i.g.g.g.i.n.o.z.z.W",
"QtQtQtQt.X.C.Y.Z.0.s.1.2.3.4.R.5.6.7.4.8.9#..g.g.g.g.k.o.z.z.W##",
"QtQtQtQt.l#a#b#c#d.1#e#f.#.##g#h#i#j#k#l#m#n#o.g.i.k.z.z.z#p.a.a",
"QtQtQtQt.l#q#m.E.0#r.2.#.#.P#s#t#u#v#w#k#x#y#z#..n.o.z.z#A.a.a.a",
"QtQtQtQtQt.l#n.C.U#c.2.#.##B#C#u#t#D#E#j#F#G#y#H.o.z.z#A##.a.a.a",
"QtQtQtQtQtQt.l#z.r#I#J.K#K#L#C#M#N#O#P#Q.p#R#G.p#S#T#p.a.a.a.a.a",
"QtQtQtQtQtQtQt.l.x#U#V#W.C#X#u#Y#N#Z#0#1#2#3#R#4.r#5.a.a.a.a.a.a",
"QtQtQtQtQtQtQtQt.l.x#6#e.l#7#N#8#O#8#9#1a.#2.pa#aaab.a.a.a.a.a.a",
"QtQtQtQtQtQtQtQtQtac.t.x.S.Sad#Pae#1#1#1#1afagah.a.a.a.a.a.a.a.a",
"QtQtQtQtQtQtQtQtQtQt.l.x.x.xaiaj#1#1#1#1akalam.a.a.a.a.a.a.a.a.a",
"QtQt.a.a.a.a.a.a.a.a.l.x.x.x.xanao#1#1#1apamaq.a.a.a.a.a.a.a.a.a",
"QtQt.a.a.a.a.a.a.a.a.a.l.xar.vas.Natauapav.l.a.a.a.a.a.a.a.a.a.a",
"QtQt.a.a.a.a.a.a.a.a.a.aawaxayaz.laAaBaB.l.l.l.l.l.a.a.a.a.a.a.a",
"QtQt.a.a.a.a.a.a.l.l.l.l.l.l.l.l.l.l.l.l.l.l.l.l.l.l.a.a.a.a.a.a",
"QtQt.a.a.a.a.l.l.l.l.l.l.l.l.l.l.l.l.l.l.l.l.l.l.l.l.a.aQtQtQtQt",
"QtQt.a.a.a.l.l.l.l.l.l.l.l.l.l.l.l.l.l.a.a.a.l.l.l.l.l.aQtQtQtQt",
"QtQt.a.a.a.l.l.l.l.l.a.l.l.l.l.l.l.l.a.a.a.a.l.l.l.l.l.aQtQtQtQt",
"QtQt.a.a.l.l.l.l.a.a.a.a.a.l.l.l.l.l.l.l.l.l.l.l.l.l.a.aQtQtQtQt",
"QtQt.a.a.l.l.l.l.l.a.a.a.l.l.l.l.l.l.l.l.l.l.l.l.l.l.a.aQtQtQtQt",
"QtQt.a.a.l.l.l.l.l.l.l.l.l.l.l.#.#.l.l.l.l.l.l.l.l.a.a.aQtQtQtQt",
"QtQt.a.a.l.l.l.l.l.l.l.l.l.l.#.#.#.a.a.a.l.l.l.l.a.a.a.aQtQtQtQt",
"QtQt.a.a.a.l.l.l.l.l.l.l.a.a.#.#.#.a.a.a.a.a.a.a.a.a.a.aQtQtQtQt",
"QtQt.a.a.a.a.l.l.l.l.a.a.a.a.#.#.#.a.a.a.a.a.a.a.a.a.a.aQtQtQtQt",
"QtQt.a.a.a.a.a.a.a.a.a.a.a.a.#.#.#.a.a.a.a.a.a.a.a.a.a.aQtQtQtQt",
"QtQtQtQtQtQtQtQtQtQtQtQtQtQtQt.#.#QtQtQtQtQtQtQtQtQtQtQtQtQtQtQt"};
