/* XPM */
static char *color_by_line[]={
"32 32 545 2",
"Qt c None",
".j c #000000",
"f6 c #0000ff",
"a5 c #009a00",
"a4 c #009c00",
"a3 c #009d00",
"eu c #00c000",
"fT c #030000",
"c2 c #070300",
"aC c #089f06",
"aD c #08a409",
"ey c #0a0300",
"au c #0a0500",
"gE c #0b0800",
"aE c #0ba50e",
"gx c #0c0800",
"aF c #0da30e",
".7 c #110505",
"#M c #120606",
"fU c #150a00",
".N c #160b05",
"fj c #181104",
"bw c #18980b",
"bs c #1a970a",
"cB c #1c0f05",
"aU c #1d0d05",
"bj c #1e0f07",
".i c #1f0a0a",
"bi c #1f0f04",
"c# c #1f1306",
"bI c #220f04",
"c. c #241206",
"#R c #24af38",
"a6 c #26a213",
"fN c #271504",
"#L c #281309",
"fk c #281605",
"ad c #2bb02f",
"dr c #2d190c",
"gi c #2d1d08",
"f5 c #2f1f08",
"eb c #301c09",
"aL c #3368ff",
"gd c #341d03",
".8 c #341e0f",
"aM c #366eff",
"#3 c #386eff",
"ae c #38b538",
"am c #3a6fff",
"ba c #3b68f7",
"ag c #3bb63e",
".w c #3d2010",
"an c #3d70ff",
"#1 c #3e71ff",
"af c #3eb73e",
"#2 c #3f72ff",
"#0 c #4271fc",
"fB c #442c0f",
"ao c #4471f7",
".O c #452e17",
"fY c #472c0b",
"bv c #47a420",
"gj c #482400",
"aV c #482c15",
"ac c #4aa728",
".h c #4c2713",
"dN c #4f3112",
"dM c #502e0e",
"go c #503309",
"#8 c #532a15",
"gD c #53360d",
"ap c #5377e9",
"#q c #552b15",
".x c #55301c",
".P c #562f1b",
"gy c #56380b",
"gw c #56380f",
"fZ c #563912",
"al c #577ef2",
".g c #5b2f16",
"cC c #5b3d18",
"eS c #5c3811",
"aK c #5c7ae6",
"#4 c #5c81eb",
".M c #5d321a",
"#G c #5f87fb",
"#A c #60b546",
"bJ c #623e1b",
"#v c #62b94d",
"av c #633c1e",
"fu c #634114",
"#E c #638bfd",
".6 c #64361c",
"aN c #6486e1",
".U c #64ba54",
"#F c #658eff",
".k c #66391e",
"#V c #66c76f",
".y c #683b21",
"#S c #68c96d",
".b c #69381e",
".# c #693d1a",
".a c #6a3a1e",
"bb c #6a87d7",
"#r c #6c4023",
".c c #6d3d21",
".l c #6f3d22",
"#T c #6fca6f",
".f c #703d1f",
"ga c #704914",
".e c #724124",
".d c #724224",
"dq c #724416",
".v c #73431f",
"#N c #734524",
".9 c #744226",
"#w c #76cb7a",
"#U c #76cd78",
"fX c #774d16",
"ec c #774e1c",
"at c #794a27",
"#9 c #7a4a25",
"ah c #7bb045",
"b# c #7e8fcd",
"bt c #81a934",
".m c #82502f",
"#i c #85a1ff",
"#W c #85b454",
"br c #87b130",
"#y c #87cb7e",
"ez c #895e24",
".Q c #8a582f",
"f4 c #8b5a19",
"#K c #8c5f3b",
"f0 c #8c6629",
"#u c #8cbd40",
"c1 c #8e5b27",
"#Q c #8eb331",
"ex c #915b1e",
"aT c #91643a",
"eT c #936729",
".z c #946539",
".u c #946a3f",
"gz c #966216",
"e9 c #966d2e",
".Z c #96a6e4",
"#z c #96c96f",
"f7 c #996922",
"#m c #99b3ff",
"cA c #9a6833",
".L c #9c7144",
".3 c #9cb3fe",
"bu c #9db343",
".n c #9e7444",
"aG c #9fb94e",
"bk c #a06a29",
"bh c #a17848",
"#k c #a2bbff",
"c3 c #a36924",
"#c c #a3dda8",
"b9 c #a47742",
"#l c #a4bdff",
"#b c #a4c24f",
"g# c #a5701d",
"bH c #a67d4a",
".J c #a6b2da",
"#j c #a7c0ff",
"#x c #a8e1ac",
"gk c #a96f21",
".K c #a9a094",
"fi c #ac6e21",
"#p c #ad8c5f",
".T c #add264",
"gC c #ae741c",
"a2 c #aebc3f",
"ea c #b07835",
".t c #b09362",
".I c #b0c0ea",
"ca c #b36a24",
"#. c #b38041",
"#D c #b3b8bd",
".0 c #b5c6ff",
".5 c #b69761",
"gn c #b77e25",
"#d c #b7d6a3",
"#n c #b8c2c7",
".o c #b9965a",
"fS c #bc7e23",
"f3 c #bd812b",
".H c #bec7d2",
"fC c #c0872e",
"gp c #c18224",
"bx c #c1c160",
"fM c #c28027",
"gA c #c28425",
"aW c #c38030",
".A c #c49f54",
"#H c #c4c9b9",
"f1 c #c59645",
"#7 c #c5ab78",
".4 c #c5cbbc",
"aq c #c6ccb7",
"dL c #c89b57",
".B c #cac361",
"eR c #cb974b",
"bD c #cbc7a6",
".p c #ccad6c",
"#s c #ce9a47",
"aB c #cebe4b",
".2 c #cfdcff",
"ds c #d08a25",
".s c #d0b670",
"gB c #d28f2a",
"fV c #d29432",
"f2 c #d29b41",
".R c #d3a657",
"bC c #d6cda1",
".1 c #d6e1ff",
"fW c #d79b3c",
".q c #d7bc79",
"aw c #d8a13c",
".r c #d8c07b",
"#B c #d9d176",
"aO c #d9d5a3",
"ab c #dac04d",
"#Z c #dad2a6",
"gh c #db9521",
"dp c #dbc07d",
"#h c #dbd0a5",
"#O c #dca446",
"fO c #dcac55",
"fl c #dda542",
"a. c #dea340",
"ge c #dea648",
"#5 c #dfe3ba",
"#e c #e2cd6c",
"bS c #e3be55",
"ew c #e3c87f",
"a7 c #e4d275",
"eE c #e5641a",
"bW c #e5ca6c",
"fA c #e69e2c",
"bK c #e6a92f",
".V c #e6d277",
"b. c #e6d695",
"cD c #e78422",
"cJ c #e96229",
"ei c #e9a632",
"fL c #e9b353",
"ak c #e9da9b",
"c9 c #ea591f",
"dS c #eb4716",
"ek c #eb9835",
"d. c #eba140",
"ft c #ebc268",
"c0 c #ebde9d",
"as c #ebe2a4",
"ch c #ec4c24",
"aJ c #ecda94",
"bn c #ed9d42",
"dO c #eda027",
"fF c #edc063",
"aP c #ede9a9",
"dU c #ee8932",
"gv c #eeaa3d",
"dx c #eebc44",
"bQ c #ef6c2e",
"bR c #efcc56",
"#t c #f0d059",
"#X c #f0da83",
"gq c #f1b952",
"#a c #f1d764",
".Y c #f1e39c",
"dT c #f2230b",
"c8 c #f3260c",
"ej c #f39530",
"gb c #f3af3d",
"c5 c #f47c1c",
"fE c #f4c666",
"dw c #f51d0a",
"ai c #f5d67f",
"#J c #f5f2b3",
"#f c #f6e385",
"eh c #f70301",
"dv c #f76519",
"eD c #f77c1c",
"fv c #f8cb6a",
"bX c #f8d97b",
".G c #f8efa8",
"c6 c #f90e02",
"ed c #f9ad2b",
"eF c #f9b935",
"aY c #f9ba41",
"gu c #f9ce6f",
"e# c #f9efa7",
"gt c #fae28e",
"bE c #faf1a6",
"cz c #faf5b4",
"bN c #fb847a",
"bl c #fba331",
"bp c #fba53e",
"eY c #fbba2f",
"ci c #fbd159",
"cK c #fbd259",
"gr c #fbd87e",
"fK c #fbdb7f",
"cc c #fc732a",
"bO c #fc7563",
"bm c #fc7a73",
"fG c #fcd475",
"gs c #fce490",
"bc c #fcf2a2",
"aS c #fcfab8",
"cE c #fd1e12",
"bP c #fd5656",
"dR c #fd721c",
"bo c #fdb33a",
"c4 c #fdb526",
"eX c #fdb628",
"du c #fdc02c",
"bV c #fdd471",
"#C c #fded94",
"aQ c #fdfbb6",
"cd c #fe6969",
"bM c #feb2b0",
"eH c #fec243",
"bq c #fec758",
"dy c #fecb4e",
"## c #fecc65",
"fD c #fed064",
".C c #fee589",
"#g c #feec8d",
"eQ c #fef6aa",
"b8 c #fefdbb",
"c7 c #ff0000",
"eL c #ff00ff",
"cI c #ff0b15",
"cF c #ff181d",
"cH c #ff1d1e",
"cG c #ff1e1e",
"eg c #ff5213",
"cg c #ff6972",
"ce c #ff7c80",
"aX c #ff8026",
"cf c #ff8084",
"cb c #ff9027",
"g. c #ffaa18",
"fQ c #ffab1b",
"fx c #ffac1e",
"f# c #ffad1e",
"bL c #ffad33",
"eV c #ffae1f",
"eB c #ffae20",
"fa c #ffae21",
"eW c #ffae22",
"gg c #ffaf19",
"fy c #ffaf21",
"ee c #ffb020",
"fb c #ffb126",
"dP c #ffb221",
"dt c #ffb423",
"fR c #ffb526",
"fz c #ffb527",
"fc c #ffb52c",
"eA c #ffb52e",
"eC c #ffb625",
"fd c #ffb732",
"eZ c #ffb834",
"eU c #ffb931",
"fw c #ffba32",
"dQ c #ffbb29",
"fe c #ffbc38",
"e0 c #ffbc3a",
"ef c #ffbd28",
"f. c #ffbd39",
"e1 c #ffbf3f",
"gf c #ffc144",
"eG c #ffc23d",
"e2 c #ffc246",
"eI c #ffc248",
"f9 c #ffc448",
"ff c #ffc44b",
"ay c #ffc54c",
"eJ c #ffc54e",
"el c #ffc74b",
"em c #ffc74f",
"dW c #ffc751",
"aZ c #ffc84c",
"e3 c #ffc851",
"az c #ffc852",
"dz c #ffc853",
"eK c #ffc954",
"en c #ffc956",
"ax c #ffca48",
"gc c #ffca50",
"aa c #ffcb57",
"dA c #ffcb59",
"dV c #ffcc4d",
"a0 c #ffcc53",
"da c #ffcc5a",
"a# c #ffcd50",
"d# c #ffcd56",
"eo c #ffcd5c",
"cL c #ffce5d",
"dX c #ffce5e",
"dB c #ffce5f",
"gm c #ffce60",
"a1 c #ffcf5c",
"aA c #ffcf5e",
"fm c #ffcf5f",
"gl c #ffd05c",
"db c #ffd060",
"ep c #ffd062",
"cM c #ffd063",
"dY c #ffd064",
"bT c #ffd068",
"dC c #ffd165",
"cj c #ffd261",
"e4 c #ffd264",
"ck c #ffd265",
"eM c #ffd267",
"dc c #ffd366",
"fg c #ffd367",
"eq c #ffd368",
"fP c #ffd466",
"cN c #ffd468",
"dZ c #ffd469",
"cl c #ffd46a",
"dD c #ffd46b",
"e5 c #ffd56b",
"#P c #ffd65e",
"eN c #ffd66c",
"dd c #ffd66d",
"cO c #ffd76e",
"d0 c #ffd770",
"e6 c #ffd870",
"dE c #ffd871",
"bU c #ffd872",
"fn c #ffd96e",
"cm c #ffd972",
"de c #ffd973",
"cP c #ffd974",
".S c #ffda73",
"er c #ffda74",
"d1 c #ffda76",
"e7 c #ffdb76",
"dF c #ffdb78",
"df c #ffdc79",
"cn c #ffdd79",
"cQ c #ffdd7a",
"d2 c #ffdd7c",
"fp c #ffde7a",
"co c #ffde7d",
"fq c #ffdf7d",
"eO c #ffdf7e",
"dg c #ffdf7f",
"fo c #ffe07a",
"cR c #ffe080",
"es c #ffe081",
"d3 c #ffe082",
"f8 c #ffe086",
"cp c #ffe182",
"e8 c #ffe183",
"dG c #ffe284",
"dh c #ffe285",
"bY c #ffe384",
"fh c #ffe385",
"cS c #ffe386",
"et c #ffe387",
"d4 c #ffe488",
"cq c #ffe489",
"fJ c #ffe588",
"by c #ffe589",
"aH c #ffe58a",
"bZ c #ffe58b",
"fH c #ffe687",
"a8 c #ffe68a",
"di c #ffe68b",
"bz c #ffe68c",
"cT c #ffe68d",
"d5 c #ffe68e",
"fI c #ffe789",
"cr c #ffe78e",
"dH c #ffe78f",
"aI c #ffe888",
"fr c #ffe88d",
"eP c #ffe890",
"b0 c #ffe891",
".W c #ffe98f",
"dj c #ffe992",
"cU c #ffea93",
"d6 c #ffea94",
"a9 c #ffeb8a",
"aj c #ffeb8b",
"bB c #ffeb91",
"cs c #ffeb94",
"dI c #ffeb95",
"dk c #ffeb97",
".X c #ffec91",
"fs c #ffec94",
"b1 c #ffec96",
"bA c #ffed90",
"cV c #ffed99",
"d7 c #ffed9a",
"ct c #ffee9a",
"dJ c #ffee9b",
"dl c #ffef9e",
"cW c #ffef9f",
"d8 c #fff0a0",
".D c #fff194",
"cu c #fff1a1",
"#Y c #fff28f",
"dm c #fff2a3",
".E c #fff39a",
"cX c #fff3a5",
"b2 c #fff49b",
"d9 c #fff4a6",
"cv c #fff4a7",
"b4 c #fff5a9",
"dn c #fff5aa",
"b3 c #fff6a1",
"cY c #fff6ab",
"cw c #fff7ad",
".F c #fff89d",
"b5 c #fff8ae",
"do c #fff8af",
"cZ c #fff9b1",
"e. c #fffaaf",
"bF c #fffab1",
"cx c #fffab3",
"b6 c #fffbb4",
"bG c #fffcb7",
"dK c #fffdb7",
"ev c #fffeb2",
"be c #fffeb9",
"bg c #fffebc",
"bd c #ffffb3",
"cy c #ffffbb",
"b7 c #ffffbc",
"#o c #ffffbd",
"bf c #ffffbe",
"#I c #ffffbf",
"aR c #ffffc0",
"ar c #ffffc1",
"#6 c #ffffc6",
"QtQtQtQtQtQtQtQtQtQtQtQtQtQtQt.#.a.b.c.d.e.f.g.h.iQtQtQtQtQtQtQt",
"QtQtQtQtQtQtQtQtQtQtQtQt.j.k.l.m.n.o.p.q.r.s.t.u.v.w.jQtQtQtQtQt",
"QtQtQtQtQtQtQtQtQtQtQt.x.y.z.A.B.C.D.E.F.G.H.I.J.K.L.M.NQtQtQtQt",
"QtQtQtQtQtQtQtQtQt.O.P.Q.R.S.T.U.V.W.X.Y.Z.0.1.2.3.4.5.6.7QtQtQt",
"QtQtQtQtQtQtQtQt.8.9#.###a#b#c#d#e#f#g#h#i#j#k#l#m#n#o#p#q.jQtQt",
"QtQtQtQtQtQtQt.7#r#s#t#u#v#w#x#y#z#A#B#C#D#E#F#F#G#H#I#J#K#LQtQt",
"QtQtQtQtQtQt#M#N#O#P#Q#R#S#T#T#U#V#W#X#Y#Z#0#1#2#3#4#5#6#7#8.jQt",
"QtQtQtQtQt.i#9a.a#aaabacadaeafagahaiajakalam#2anaoapaqarasatauQt",
"QtQtQtQt.javawaxayazaAaBaCaDaEaFaGaHaIaJaKaLaMaNaOaPaQaRaSaTaUQt",
"QtQtQtQtaVaWaXaYaZa0a1a2a3a4a5a4a6a7a8a9b.b#babbbcbdbebfbgbhbiQt",
"QtQtQtbjbkblbmbnbobpbqbrbsbtbubvbwbxbybzbAbBbCbDbEbFbGbfbgbHbIQt",
"QtQtQtbJbKbLbMbNbObPbQbRbSbTbUbVbWbXbYbZb0b1b2b3b4b5b6b7b8b9c.Qt",
"QtQtc#cacbcccdcecfcgchcicjckclcmcncocpcqcrcsctcucvcwcxcyczcAcBQt",
"QtQtcCcDcEcFcGcGcHcIcJcKcLcMcNcOcPcQcRcScTcUcVcWcXcYcZ#oc0c1c2Qt",
"Qt.jc3c4c5c6c7c7c8c9d.d#dadbdcdddedfdgdhdidjdkdldmdndobfdpdq.jQt",
"Qtdrdsdtdudvc7c7dwdxdydzdAdBdCdDdEdFcodGcqdHdIdJcucvb5dKdLdM.jQt",
"QtdNdOdPdQdRc7dSdTdUdVdWaadXdYdZd0d1d2d3d4d5d6d7d8d9e.e#eaebQtQt",
"QtecedeeefegeheiejekelemeneoepeqcOercQesetbzdjcVeueuevewexeyQtQt",
"QtezeAeBeCeDeEeFeGeHeIeJeKeLeLeMeNdedFeOdGaHePb1eueueQeReS.jQtc7",
"QteTeUeVeWeXeYeZe0e1e2aye3eLeLe4e5e6e7coe8c7c7c7c7c7c7c7c7c7c7c7",
"Qte9f.f#fafbfcfdfefffgc7c7c7c7c7c7c7c7c7c7c7c7c7c7c7c7c7c7c7c7Qt",
"c7c7c7c7c7c7c7c7c7c7c7c7c7c7c7c7c7c7c7c7c7fhbZcUeueufifjQtQtQtQt",
"c7c7c7c7c7c7c7c7c7c7c7fkfleLeLfmfnfofpcQfqdGfrfsfteueu.jQtQtQtQt",
"QtfufvfwfxfyfzfAfB.jQt.jfCeLeLfDfEfFfGfHfIfJfKfLfMeueuQtQtQtQtQt",
"QtfNfOfPfQeBfRfSfTQtQtfUfVeLeLfWfXfYfZf0f1f2f3f4f5eueuQtQtQtQtf6",
"Qt.jf7f8f9g.eCg#.jQtQtgagbgceLeL.j.j.j.jeyf6f6f6f6f6f6f6f6f6f6f6",
"QtQtgdgeb1gfggghgigjgkf6f6f6f6f6f6f6f6f6f6f6f6f6f6f6f6f6f6f6f6Qt",
"f6f6f6f6f6f6f6f6f6f6f6f6f6f6f6f6f6f6f6f6f6QtQtQtQtQteueuQtQtQtQt",
"f6f6f6f6f6f6f6f6f6f6f6glgmgneLeLQtQtQtQtQtQtQtQtQtQteueuQtQtQtQt",
"QtQtQtQt.jgogpgqgrgsgtgugvgweLeLQtQtQtQtQtQtQtQtQtQteueuQtQtQtQt",
"QtQtQtQtQtQtgxgygzgAgBgCgD.jeLeLQtQtQtQtQtQtQtQtQtQteueuQtQtQtQt",
"QtQtQtQtQtQtQt.j.jc2gE.j.jQtQteLeLQtQtQtQtQtQtQtQtQtQteueuQtQtQt"};
