/* XPM */
static char *delete_point[]={
"34 34 5 1",
"a c None",
". c None",
"b c #000000",
"# c #ff0000",
"c c #ffffff",
"..................................",
".################################.",
".################################.",
".##aaaaaaaaaaaaa##aaaaaaaaaaaaa##.",
".##aaaaaaaaaaaaa##aaaaaaaaaaaaa##.",
".##aaaaaaaaaaaaa##aaaaaaaaaaaaa##.",
".##aaaaaaaaaaaaa##aaaaaaaaaaaaa##.",
".##aaaaaaaaaaaaaaaaaaaaaaaaaaaa##.",
".##aaaaaaaaaaaa####aaaaaaaaaaaa##.",
".############aa####aa############.",
".############aa####aa############.",
".##aaaaaaaaaaaa####aaaaaaaaaaaa##.",
".##aaaaaaaaaaaaabbaaaaaaaaaaaaa##.",
".##aaaaaaaaaaaabccbaaaaaaaaaaaa##.",
".##aaaaaaaaaaaabccbaaaaaaaaaaaa##.",
".##aaaaaaaaaaaabccbaaaaaaaaaaaa##.",
".##aaaaaaaaaaaabccbaaaaaaaaaaaa##.",
".##############bccb##############.",
".##############bccbbb############.",
".aaaaaaaaaaaaaabccbccbbbaaaaaaaaa.",
".aaaaaaaaaaaabbbccbccbccbbbaaaaaa.",
".aaaaaaaaaaabbcbccbccbccbccbaaaaa.",
".aaaaaaaaaaabccbccbccbccbccbaaaaa.",
".aaaaaaaaaaabccbcccccccccccbaaaaa.",
".aaaaaaaaaaabccccccccccccccbaaaaa.",
".aaaaaaaaaaaabccccccccccccbbaaaaa.",
".aaaaaaaaaaaabccccccccccccbaaaaaa.",
"............aabccccccccccbaa......",
"............aabccccccccccbaa......",
"............aaabccccccccbaaa......",
"............aaabccccccccbaaa......",
"............aaabccccccccbaaa......",
"............aaabccccccccbaaa......",
"............aaabbbbbbbbbbaaa......"};
