/* XPM */
static char *distance_threshold[]={
"32 32 4 1",
". c None",
"# c #000000",
"b c #ff0000",
"a c #ffffff",
"................................",
"................................",
"..............#.................",
".............###................",
"............#####...............",
"...........#######..............",
"..a.a.a...#########.............",
".a.aaa.a.....###................",
"a.abbba.a....###................",
".abbbbba.a...###................",
"abbbabbba.a..###................",
"bbba.abbba...###................",
"bba.a.abbaa..###................",
"ba.a.aabba.a.a.a.a..............",
"a.a...aabbaaaaaaaa.a.a..........",
".a.....abbbbbbbbbbaaa.a.........",
"a.....a.aabbbbbbbbbbba.a........",
".......a.aaaaaaaabbbbbaa.a.a.a..",
"..........a.a.a.aaabbbbbaaaaaaa.",
".................a.aaabbbbbbbbaa",
"...............###a.a.aabbbbbbba",
"...............###...a.aaaaaabbb",
"...............###......a.a.aabb",
"...............###...........aab",
"...............###............aa",
"............#########..........a",
".............#######............",
"..............#####.............",
"...............###..............",
"................#...............",
"................................",
"................................"};
