/* XPM */
static char *edit_feature_cursor[]={
"32 32 3 1",
". c None",
"# c #000000",
"a c #ffffff",
"...............#..............#a",
"...............#.............#aa",
"...............#............#aaa",
"............###a###........#aaa#",
"..........##aaa#aaa##.....#aaa#a",
"........##aa...#...aa##..#aaa#a#",
".......##a...aa#aa..aa###aaa#a#a",
"......##a..aa##a##aa..a#aaa#a#a#",
".....##a..a####a####a.#aaa#a#a##",
".....#a..a#####a######aaa#a#a###",
"....#a..a####aa#aa###aaa#a#a####",
"....#a.a####a..#..a#aaa#a#a#####",
"...#a..a###a.a#a#a#aaa#a#a######",
"...#a.a###a.a##a###aa#a#a######.",
"...#a.a###a.###a#####a#a######..",
"###a###aaa##aaa##aa#a#a######...",
"...#a.a###a.###a#aa##a######....",
"...#a.a###a.a###aaaa########....",
"...#a..a###a.a##aaa#a#####a#....",
"....#a.a####a.#aaa#a#####a#.....",
"....#a..a####a#aa#######aa#.....",
".....#a..a####aaa#####..a#......",
".....##a..a###a#####a..a##......",
"......##a..a######aa..a##.......",
".......##a..####aa...a##........",
"........##a###.#...aa##.........",
"..........##aaa#aaa##...........",
"............###a###.............",
"...............#................",
"...............#................",
"...............#................",
"................................"};
