/* XPM */
static char *exit_mask[]={
"32 32 38 1",
"k c None",
". c None",
"# c #000000",
"e c #290005",
"y c #330007",
"b c #4f000a",
"z c #51000a",
"v c #58000b",
"u c #5e000c",
"r c #64000d",
"q c #68000d",
"p c #6b000e",
"J c #6e000e",
"o c #71000f",
"m c #74000f",
"I c #76000f",
"i c #78000f",
"H c #790010",
"h c #7c0010",
"G c #7d0010",
"g c #800010",
"E c #820011",
"f c #850011",
"A c #880011",
"C c #890012",
"n c #8c0012",
"s c #8d0012",
"x c #8f0012",
"w c #940013",
"c c #9a0014",
"t c #9d0014",
"F c #ae0016",
"a c #bf0019",
"j c #c20019",
"D c #d3001b",
"B c #e4001d",
"d c #fe0021",
"l c #ffffff",
".........###....................",
"........#aaa###.................",
"........#aabccc###..............",
"........#aabcccccc###...........",
".......#aaabdddcccccc###........",
".......#aabdddddddcccccc###.....",
".......#aabddddddddddcccccce##..",
"......#aaabdddddddddddddcccefg#.",
"......#aabddddddddddddddddeghij#",
"....kk#aabdddddddddddlldddeimjn#",
"....k#aaabdddddddllll##llleopj#.",
"....k#aabllllllll#########lqrj#.",
"....k#all##################ljn#.",
"....#al####################lj#..",
"....#l#############llll#####l#..",
"....#l#####l#######llll#####l#..",
"...#l####llsll#############l#...",
"...#l#####lll##############l#...",
"...#l###########ll########ln#...",
"..#tl##########luvlll####lj#k...",
"..#wxl#######lld#y#zzllllzj#k...",
"..#nA#l####llBBBByf###zzzjn#k...",
".#Cfg#dllllDDDDDyffff#zzzj#kk...",
".#ghi#daaaaaaaaayEEEE#zzzj#.....",
"..###dFFFFFFFFFFyGGG#zzzjn#.....",
".....###tttttttyHHHH#zzzj#......",
"........###ttttyIIII#zzzj#......",
"...........###tyooo#zzzjn#......",
"..............###JJ#zzzj#.......",
".................###zzzj#.......",
"....................#####.......",
"................................"};
