/* XPM */
static char *feature[]={
"32 32 43 1",
"# c None",
". c None",
"k c #ff0808",
"B c #ff0303",
"N c #ff0404",
"H c #020202",
"O c #030303",
"d c #ff0202",
"I c #ff0303",
"w c #ff0101",
"e c #ff0202",
"l c #ff0101",
"J c #ff2525",
"y c #ff0000",
"v c #ff0000",
"q c #ff0000",
"f c #ff3333",
"a c #000000",
"b c #ff0000",
"A c #ff5555",
"M c #ff0000",
"j c #ff3b3b",
"L c #ff6d6d",
"c c #cb9999",
"F c #cc9999",
"r c #ff0000",
"x c #ff0000",
"K c #ff1010",
"m c #ff2020",
"u c #ff3030",
"p c #ff3f3f",
"g c #ff4040",
"D c #ff5f5f",
"G c #ff6060",
"i c #ff7070",
"z c #ff7f7f",
"E c #ff8f8f",
"t c #ff9f9f",
"n c #ffbfbf",
"s c #ffcfcf",
"o c #ffdfdf",
"C c #ffefef",
"h c #ffffff",
"................................",
"................................",
"................................",
"................................",
"....###########a############....",
"....###########a############....",
"....#########bbcbbd#########....",
"....######efghhghhijek######....",
"....#####lmnhhhghhhopq######....",
"....####lrshhsgtgthhouv#####....",
"....###wmshouxxnxxxshhuy####....",
"....###fnhopxmzzzpxmnhoAB###....",
"....###ghhuxxshghouxmshzw###....",
"....##bhhsxmsCDnuohuxEhhg###....",
"....##bhhgxzhDxnxponxxhhg###....",
"....aaFggtnzgnnGnnGGnnggtaaH....",
"....##bhhgxzhuxnxmsnxxhhg###....",
"....##bhhtxpoopnmnhDxDhhg###....",
"....##IihhxxuhoGshixxnhtJ###....",
"....###johsmxunGnDxKthCLd###....",
"....###wpohnmxxnxxxthhDy####....",
"....###kquhhsExnxDnhhiMN####....",
"....#####vuohhhghhhCDM######....",
"....######yAzhhghhtLyB######....",
"....#######NeggtggJI########....",
"....###########a############....",
"....###########a############....",
"....###########O############....",
"................................",
".....###########................",
".....###########................",
".....###########................"};
