/* XPM */
static char *filter_mask_rect[]={
"32 32 82 2",
"#n c None",
"Qt c None",
".a c #000000",
"#j c #0000ff",
".8 c #020202",
"#. c #030303",
".k c #040404",
".U c #050505",
".M c #060606",
".r c #070707",
"#c c #090909",
".V c #0b0b0b",
"## c #0e0e0e",
".l c #0f0f0f",
".3 c #101010",
".Z c #141414",
".d c #161616",
".c c #171717",
".b c #181818",
".4 c #1e1e1e",
".C c #1f1f1f",
".s c #242424",
"#b c #393939",
".7 c #565656",
".9 c #5f5f5f",
"#d c #717171",
".N c #757575",
".5 c #7a7a7a",
".W c #828282",
"#m c #8b8b8b",
".m c #939393",
".n c #949494",
"#f c #959595",
".0 c #989898",
".O c #9e9e9e",
".o c #a0a0a0",
".D c #a2a2a2",
".p c #a3a3a3",
"#i c #a5a5a5",
".t c #a6a6a6",
".E c #a7a7a7",
".P c #a8a8a8",
".F c #a9a9a9",
".u c #aaaaaa",
".e c #ababab",
".Q c #acacac",
".v c #adadad",
"#e c #aeaeae",
"#h c #afafaf",
".G c #b0b0b0",
".X c #b2b2b2",
".R c #b3b3b3",
"#l c #b4b4b4",
".H c #b6b6b6",
".w c #b7b7b7",
".S c #b9b9b9",
".T c #bababa",
"#a c #bbbbbb",
".6 c #bcbcbc",
".x c #bdbdbd",
".I c #bebebe",
".f c #c0c0c0",
".q c #c1c1c1",
".y c #c2c2c2",
".J c #c3c3c3",
"#p c #c4c4c4",
".z c #c5c5c5",
".1 c #c6c6c6",
".Y c #c7c7c7",
"#g c #c8c8c8",
".A c #c9c9c9",
".2 c #cacaca",
"#o c #cbcbcb",
".K c #cccccc",
".B c #cdcdcd",
".L c #cecece",
"#k c #cfcfcf",
".g c #d0d0d0",
".h c #d1d1d1",
".i c #d2d2d2",
".j c #d3d3d3",
".# c #ff0000",
"QtQtQtQtQtQtQtQtQtQtQtQt.#.#.#.#.#.#QtQtQtQtQtQtQtQtQtQtQtQtQtQt",
"QtQtQtQtQtQtQtQtQtQtQtQtQtQtQtQtQt.#.#QtQtQtQtQtQtQtQtQtQtQtQtQt",
"QtQtQtQtQtQtQtQtQtQtQtQtQtQtQtQtQt.#.#QtQtQtQtQtQtQtQtQtQtQtQtQt",
"QtQtQtQtQtQtQtQtQtQtQtQt.#.#.#.#.#.#QtQtQtQtQtQtQtQtQtQtQtQtQtQt",
"QtQtQtQtQtQtQtQtQtQtQt.a.#.a.a.a.a.a.a.a.aQtQtQtQtQtQtQtQtQtQtQt",
"QtQtQtQtQtQtQt.a.b.c.d.c.#.e.f.g.h.i.j.j.j.a.a.a.aQtQtQtQtQtQtQt",
"QtQtQtQtQt.k.l.a.m.n.o.p.#.#.#.#.#.#.#.#.j.j.j.j.q.r.a.aQtQtQtQt",
"QtQtQtQt.s.m.m.o.t.u.v.w.x.y.z.A.B.g.j.#.j.j.j.j.j.j.j.aQtQtQtQt",
"QtQtQtQt.C.m.D.E.F.e.G.H.I.J.A.K.L.g.j.#.j.j.j.j.j.j.j.f.MQtQtQt",
"QtQtQtQt.a.N.O.P.Q.G.R.S.#.#.#.#.#.#.#.#.j.j.j.j.j.j.j.T.UQtQtQt",
"QtQtQtQt.a.V.W.o.F.X.H.#.#.y.Y.K.B.g.j.j.j.j.j.j.j.j.j.a.aQtQtQt",
"QtQtQtQtQt.a.Z.m.0.P.H.#.#.#.1.2.B.h.j.j.j.j.j.j.j.a.a.aQtQtQtQt",
"QtQtQtQtQtQt.a.3.d.4.5.t.6.#.#.#.#.#.#.j.j.I.7.8.a.aQtQtQtQtQtQt",
"QtQtQtQtQtQtQt.a.j.9#.##.m#a.1.h.j.#.#.j.a.a.a#b.aQtQtQtQtQtQtQt",
"QtQtQtQtQtQtQtQt.a.j.q.R.a#c#..a.a.a.a.a#d#e#f.aQtQtQtQtQtQtQtQt",
"QtQtQtQtQtQtQtQtQt.r.f.j.B.B.B.K.K#g.f.R#h#i.aQtQtQtQtQtQtQtQtQt",
"QtQt#j#j#j#j#j#j#j#j#j#j#j#j#j#j#j#j#j#j#j#j#j#j#j#j#j#j#j#jQtQt",
"QtQt#jQtQtQtQtQtQtQtQt.a.j.j.j.j#k.y#l#m.aQtQtQtQtQtQtQtQt#jQtQt",
"QtQt#jQtQt#n#n#n#n#n#n#n.a.j.L.h#g.w.X.a#n.a.a#n#n#n#n#nQt#jQtQt",
"QtQt#jQtQt#n#n#n#n#n#n#n#n.M#k#o#p.a.a.a.a.a.a.a.a.a#n#nQt#jQtQt",
"QtQt#jQtQt#n#n#n#n.a.a.a.a.a.a.a.a.a.a.a.a.a.a.a.a.a.a#nQt#jQtQt",
"QtQt#jQtQt#n#n.a.a.a.a.a.a.a.a.a.a.a.a.a.a.a.a.a.a.a.a#nQt#jQtQt",
"QtQt#jQtQt#n.a.a.a.a.a.a.a.a.a.a.a.a.a#n#n#n#n.a.a.a.a.aQt#jQtQt",
"QtQt#jQtQt#n.a.a.a.a.a#n.a.a.a.a.a.a.a#n#n#n#n.a.a.a.a.aQt#jQtQt",
"QtQt#jQtQt.a.a.a.a#n#n#n#n#n.a.a.a.a.a.a.a.a.a.a.a.a.a#nQt#jQtQt",
"QtQt#jQtQt.a.a.a.a.a#n#n#n.a.a.a.a.a.a.a.a.a.a.a.a.a.a#nQt#jQtQt",
"QtQt#jQtQt.a.a.a.a.a.a.a.a.a.a.a.##n.a.a.a.a.a.a.a.a#n#nQt#jQtQt",
"QtQt#jQtQt.a.a.a.a.a.a.a.a.a.a.#.##n#n#n#n.a.a.a.a#n#n#nQt#jQtQt",
"QtQt#jQtQt#n.a.a.a.a.a.a.a#n#n.#.##n#n#n#n#n#n#n#n#n#n#nQt#jQtQt",
"QtQt#jQtQt#n#n.a.a.a.a#n#n#n#n.#.##n#n#n#n#n#n#n#n#n#n#nQt#jQtQt",
"QtQt#jQtQtQtQtQtQtQtQtQtQtQtQt.#.#QtQtQtQtQtQtQtQtQtQtQtQt#jQtQt",
"QtQt#j#j#j#j#j#j#j#j#j#j#j#j#j#j#j#j#j#j#j#j#j#j#j#j#j#j#j#jQtQt"};
