/* XPM */
static char *flag_invalid[]={
"32 32 294 2",
"Qt c None",
"#n c #616161",
"ck c #101010",
"cv c #fefefe",
"#H c #0c0c0c",
"aD c #090909",
"bh c #0a0a0a",
".A c #0b0b0b",
"cF c #fefefe",
"#Y c #040404",
"cJ c #040404",
".r c #040404",
".z c #020202",
".t c #030303",
"cu c #040404",
"ap c #020202",
".s c #020202",
"cG c #5b5b5b",
".6 c #020202",
"#m c #131211",
".P c #201f1e",
"cI c #020202",
"bp c #010101",
"aS c #0d0d0d",
"cH c #010101",
".O c #292725",
"cl c #616161",
"c# c #777777",
"cE c #000000",
".u c #000000",
".v c #081600",
"ct c #010101",
"bg c #010101",
"aa c #000000",
"bo c #000000",
"cw c #dcdcdc",
".N c #070707",
"a5 c #0f0f0f",
"#X c #474036",
"#G c #484643",
"cD c #000000",
".w c #557b46",
".y c #4f624b",
"ao c #000000",
"bz c #000000",
"#Z c #161515",
"#I c #221b12",
"ab c #2d2d2d",
".L c #312f2c",
".M c #31302f",
"b4 c #444444",
"aC c #363636",
"cm c #434343",
".K c #211d18",
"#l c #8a8580",
"by c #000000",
"#q c #8d7455",
".5 c #908c87",
"cs c #000000",
".# c #000000",
".q c #001000",
".e c #002000",
".b c #003000",
".j c #003f00",
".f c #004000",
".n c #007000",
".o c #007f00",
".i c #008f00",
".p c #009f00",
".c c #00bf00",
".g c #00cf00",
".k c #00df00",
".h c #00ff00",
".a c #010101",
".d c #020202",
"#o c #030000",
".l c #030303",
".R c #040000",
"aq c #040404",
"a6 c #050000",
".B c #060000",
"cr c #060606",
"b3 c #070707",
".m c #080808",
"bR c #090909",
"a7 c #0c0102",
"#p c #0d0001",
"cx c #0d0d0d",
"cC c #111111",
"cy c #121212",
"bn c #131313",
"bi c #160002",
".C c #170002",
"cj c #1b1b1b",
"bJ c #1d1d1d",
"an c #1e1f1d",
"am c #1f1f1e",
".7 c #200002",
".8 c #200003",
"bV c #232323",
"bY c #242424",
"aT c #250003",
"b1 c #262626",
"bT c #272727",
"cA c #292929",
"bx c #2a2a2a",
"bN c #2b2b2b",
"cg c #2d2d2d",
"bj c #2f0307",
"bE c #2f2f2f",
".3 c #302d2a",
"cz c #303030",
".Q c #320408",
"b2 c #323232",
"#4 c #333333",
"cf c #343434",
"al c #353435",
"#2 c #363636",
"a# c #383023",
"#L c #3a3a3a",
"cB c #3b3b3b",
"#t c #3c3c3c",
"#N c #3e3e3e",
"b7 c #3f3f3f",
"bm c #414141",
"## c #424242",
".J c #427b34",
"c. c #434343",
"bW c #464646",
"aA c #474747",
"aZ c #484848",
".U c #494949",
"bQ c #4a4a4a",
"cp c #4b4b4b",
".E c #4d4d4d",
"ci c #505050",
".Z c #527846",
"aN c #535353",
"#9 c #54432f",
"bD c #545454",
"ak c #555352",
"#x c #575550",
"#w c #595959",
".H c #59b33e",
"bS c #5a5a5a",
"aO c #5d5d5d",
"br c #5e5e5e",
"b9 c #606060",
"#v c #616161",
"bZ c #626262",
"aj c #63625e",
"bP c #636363",
"#1 c #665035",
"ah c #666665",
"ag c #666666",
"ai c #686864",
"bv c #686868",
"bw c #696969",
"cq c #6a6a6a",
"aR c #6b6b6b",
"aX c #6c6c6c",
".I c #6cc855",
"az c #6f6f6f",
"ch c #707070",
".x c #708b6a",
"ba c #717171",
"af c #727272",
"bl c #737373",
"#T c #745c3a",
"#h c #746248",
"#0 c #746654",
"aL c #747474",
"#S c #75651a",
"bf c #757575",
"aB c #777777",
"bb c #787878",
"b6 c #7a7a7a",
"bU c #7c7c7c",
"#3 c #7d7d7d",
"ce c #7f7f7f",
"#f c #806946",
"bF c #808080",
"b0 c #818181",
"bM c #828282",
"aW c #838383",
".Y c #83c26e",
"bX c #848484",
"bC c #858585",
"bI c #868686",
"#e c #878177",
"aY c #878787",
"b# c #888888",
"aF c #898989",
"ay c #8a8a8a",
"co c #8c8c8c",
"cd c #8e8e8e",
"aI c #8f8f8f",
"b8 c #909090",
"aM c #919191",
"#K c #937041",
"bs c #939393",
"ax c #949494",
"b. c #959595",
"#M c #989898",
"ae c #999999",
"#c c #9a9a9a",
"a. c #9c7c53",
"#y c #9c883b",
"#g c #9d7f54",
"bk c #9d9d9d",
"a8 c #9e9e9e",
"#B c #9f835b",
"#d c #9f9f9f",
"#R c #a08832",
"ad c #a0a0a0",
"#u c #a1a1a1",
"b5 c #a2a2a2",
".0 c #a39072",
"#8 c #a3a29c",
"cb c #a3a3a3",
"aK c #a4a4a4",
"#b c #a5a5a5",
"a1 c #a7a7a7",
"bL c #a8a8a8",
"bB c #ababab",
".X c #abcca0",
"#J c #ac8756",
"aw c #acacac",
".G c #acc1a5",
"bA c #adadad",
"bK c #aeaeae",
"bq c #afafaf",
"aV c #b0b0b0",
".4 c #b1aba2",
"#s c #b28d5b",
"bc c #b2b2b2",
"#i c #b3a289",
"#Q c #b4a573",
"a9 c #b4b4b4",
"#a c #b5b5b5",
"aE c #b7b7b7",
"bO c #b8b8b8",
"aU c #b9b9b9",
"a0 c #bababa",
"#5 c #bbbbbb",
"#U c #bc9865",
"av c #bdbdbd",
"as c #bebebe",
"aG c #bfbfbf",
"#A c #c0af6a",
"ac c #c1c1c1",
"aH c #c2c2c2",
"#6 c #c3c3c0",
"aP c #c3c3c3",
"cn c #c5c5c5",
"aJ c #c7c7c7",
"cc c #c9c9c9",
"aQ c #cacaca",
"a4 c #cbcbcb",
"bH c #cdcdcd",
"#7 c #cecdc7",
"ar c #cfcfcf",
".V c #d0d0d0",
"#. c #d1b28b",
"bG c #d1d1d1",
".W c #d2d2d2",
"bt c #d4d4d4",
"a2 c #d7d7d7",
"#W c #d8bb91",
"#F c #d8d2c7",
".F c #d8d8d8",
"bu c #d9d9d9",
"#r c #dab98c",
"#P c #dcdbd7",
"au c #dcdcdc",
"bd c #dddddd",
"#V c #debc8c",
".T c #deccb4",
"a3 c #dedede",
"be c #e0e0e0",
"#O c #e4e4e4",
"#D c #e5c79c",
"#C c #e6c79b",
".D c #e7ddcf",
"#z c #e9d37d",
".9 c #ecd7bc",
".1 c #ecd9be",
"at c #efefef",
"#E c #f0e1cb",
".2 c #f2e4d5",
"#j c #f2e6d4",
".S c #f6ebde",
"#k c #f6f2ed",
"ca c #fcfcfc",
"QtQtQtQtQtQtQt.#.#.#.#.#.#QtQtQtQtQtQtQtQtQtQtQtQtQtQtQtQtQtQtQt",
".#.#QtQtQt.a.#.b.c.c.c.c.b.#.#.dQtQtQtQtQtQtQtQtQtQtQtQtQtQtQtQt",
".#.#.e.f.f.f.g.h.h.h.h.h.h.i.#.aQtQtQtQtQtQtQtQtQtQtQtQtQtQtQtQt",
"Qt.#.j.k.h.h.h.h.h.h.h.h.h.#.#.lQtQtQtQtQtQtQtQtQtQtQtQtQtQtQtQt",
"Qt.m.#.b.n.h.h.h.h.h.h.h.n.#.#QtQtQtQtQtQtQtQtQtQtQtQtQtQtQtQtQt",
"Qt.m.d.#.n.h.h.h.h.g.h.k.b.#QtQtQtQtQtQtQtQtQtQtQtQtQtQtQtQtQtQt",
".a.#.j.o.h.h.p.o.o.o.o.j.#.aQtQtQtQtQtQtQtQtQtQtQtQtQtQtQtQtQtQt",
".l.#.e.g.g.f.q.d.d.d.#.#.#QtQtQtQtQtQtQtQtQtQtQtQtQtQtQtQtQtQtQt",
"QtQt.a.#.#.aQtQtQtQt.a.#.aQtQtQt.r.s.tQtQtQtQtQtQtQtQtQtQtQtQtQt",
"QtQtQtQtQtQtQtQtQtQt.#.#.l.u.u.v.w.x.y.zQtQtQtQtQtQtQtQtQtQtQtQt",
"QtQtQtQtQtQtQtQt.A.#.B.C.D.E.F.G.H.I.J.K.L.M.N.O.PQtQtQtQtQtQtQt",
"QtQtQtQtQtQtQtQt.Q.R.#.S.T.U.V.W.X.Y.Z.0.1.2.3.4.5.6QtQtQtQtQtQt",
"QtQtQtQtQtQtQtQt.7.8.a.9#.###a#b#c#d#e#f#g#h#i#j#k#l#m#nQtQtQtQt",
"QtQtQtQtQtQtQt.d#o#p#q#r#s#t#u#v#w#x#y#z#A#B#C#D#E#F#G#HQtQtQtQt",
"QtQtQtQtQtQtQt.a.#.a#I#J#K#L#M#N#O#P#Q#R#S#T#U#V#W#X#YQtQtQtQtQt",
"QtQtQtQtQtQtQt.#.#.l#Z#0#1#2#3#4#5#5#6#7#8#9a.#ga#aaQtQtQtQtQtQt",
"QtQtQtQtQtQt.#.#.#Qtabacadaeaf#2agagahaiajakalamanaoapQtQtQtQtQt",
"QtQtQtQtQtaq.#.#QtQtabarasatauacavawaxayazaA#vadaBayaCaDQtQtQtQt",
"QtQtQtQtQt.#.#.aQtQtabaEaFaGaHaIaJaKaLaMaNaOavawaPaQaRaSQtQtQtQt",
"QtQtQtQt.d.#aTQtQtQtabaUax.VaVaFavaWaXaYaZaea0a1a2a3a4a5QtQtQtQt",
"QtQtQtQt.aa6a7QtQtQtabaUa8.Va9b.aHb#babbaZavasbcbdbe.FbfbgbhQtQt",
"QtQtQtQt.lbibjQtQtQtabaE#b.VbcbkaHb#blaRbmaPada2bebe#baRbnbobpQt",
"QtQtQtQtQtQtQtQtQtQtaba9aw.Vbq#baHaYbbbr#taPbsbtbdbubvbwbxaqbybz",
"QtQtQtQtQtQtQtQtQtQtabbcbA.VbBawaHbC#3bDbE#ubFa4bGbHbIbnazbJ.#.#",
"QtQtQtQtQtQtQtQtQtQtabbqbKarbLbAaHbMbFaNbNb.aXbOaebPbrbQbabR.#.#",
"QtQtQtQtQtQtQtQtQtQtabbAbKa4aKbqacbFaWbSbTbUbv#5bIbVbPaFbW.d.#.#",
"QtQtQtQtQtQtQtQtQtQtabbLawaG#ubqaG#3bXbPbYbvbZbLb0#2b1b2b3.d.#.#",
"QtQtQtQtQtQtQtQtQtQtb4arbLau#bb5aEb6b#bfb1b7bDaFb8b9c.b2.#.#.#.#",
"QtQtQtQtQtQtQtQtQtQtc#bsatcabdcbcccdb6cecfcgaNchaEbFcicj.#.#.#.#",
"QtQtQtQtQtQtQtQtQtQtckclcmaRbOcnasa1coaBcpbE.Ecib6aIcqcr.#csctcu",
"QtQtQtQtQtQtQtQtQtQtQtQtcvcwbwaq.#.#.#.#cxcyczcAczcBcC.#cDcEQtQt",
"QtQtQtQtQtQtQtQtQtQtQtQtQtcFcGcH.#.#.#.#.#.#.m.#.#.#.#cIcJQtQtQt"};
