/* XPM */
static char *horiz[]={
"32 32 597 2",
"Qt c None",
".j c #000000",
"a4 c #009c00",
"a3 c #009d00",
"gu c #030000",
"c2 c #070300",
"aC c #089f06",
"aD c #08a409",
"ey c #0a0300",
"au c #0a0500",
"hs c #0b0800",
"aE c #0ba50e",
"hl c #0c0800",
"gS c #0d0800",
".7 c #110505",
"#M c #120606",
"gv c #150a00",
".N c #160b05",
"fP c #181104",
"bt c #1a970a",
"cC c #1c0f05",
"fn c #1c1004",
"aU c #1d0d05",
"bk c #1e0f07",
".i c #1f0a0a",
"bj c #1f0f04",
"gR c #1f1002",
"ca c #1f1306",
"bJ c #220f04",
"e9 c #232323",
"c# c #241206",
"et c #242424",
"#R c #24af38",
"go c #271504",
"#L c #281309",
"fR c #281605",
"ad c #2bb02f",
"dr c #2d190c",
"gY c #2d1d08",
"gH c #2f1f08",
"ee c #301c09",
"aL c #3368ff",
"gT c #341d03",
".8 c #341e0f",
"aM c #366eff",
"es c #371a09",
"#3 c #386eff",
"ae c #38b538",
"am c #3a6fff",
"bb c #3b68f7",
".w c #3d2010",
"an c #3d70ff",
"#1 c #3e71ff",
"af c #3eb73e",
"e8 c #3f3011",
"fi c #3f3923",
"fj c #3f3a25",
"#2 c #3f72ff",
"#0 c #4271fc",
"er c #441f09",
"ga c #442c0f",
"ao c #4471f7",
"eq c #451f09",
".O c #452e17",
"fH c #464646",
"gA c #472c0b",
"gZ c #482400",
"aV c #482c15",
"dE c #4a4a1e",
"ac c #4aa728",
".h c #4c2713",
"dP c #4f3112",
"dK c #4f3627",
"dO c #502e0e",
"hd c #503309",
"ep c #523321",
"#8 c #532a15",
"hr c #53360d",
"gn c #533610",
"ap c #5377e9",
"#q c #552b15",
".x c #55301c",
".P c #562f1b",
"hm c #56380b",
"hk c #56380f",
"gB c #563912",
"al c #577ef2",
"d9 c #5a2607",
".g c #5b2f16",
"cD c #5b3d18",
"eY c #5c3811",
"aK c #5c7ae6",
"#4 c #5c81eb",
".M c #5d321a",
"#G c #5f87fb",
"#A c #60b546",
"bA c #62371d",
"bK c #623e1b",
"fL c #625c46",
"#v c #62b94d",
"av c #633c1e",
"f5 c #634114",
"#E c #638bfd",
".6 c #64361c",
"aN c #6486e1",
".U c #64ba54",
"#F c #658eff",
".k c #66391e",
".y c #683b21",
"#S c #68c96d",
".b c #69381e",
".# c #693d1a",
"g5 c #69440f",
"fx c #696969",
".a c #6a3a1e",
"bc c #6a87d7",
"cs c #6b300e",
"#r c #6c4023",
".c c #6d3d21",
".l c #6f3d22",
"#T c #6fca6f",
".f c #703d1f",
"gN c #704914",
"fG c #704d1e",
".e c #724124",
".d c #724224",
"dq c #724416",
".v c #73431f",
"#N c #734524",
".9 c #744226",
"#w c #76cb7a",
"#U c #76cd78",
"gz c #774d16",
"ef c #774e1c",
"b1 c #77715c",
"at c #794a27",
"#9 c #7a4a25",
"ba c #7e8fcd",
"f. c #7f6428",
"f# c #7f652c",
"fa c #7f6831",
"fb c #7f6932",
"fc c #7f6a35",
"fd c #7f6c38",
"fe c #7f6d3b",
"ff c #7f6f3e",
"fg c #7f7041",
"fh c #7f7244",
"bu c #81a934",
".m c #82502f",
"cU c #826948",
"dj c #843908",
"#i c #85a1ff",
"aI c #866035",
"ag c #868321",
"bs c #87b130",
"#y c #87cb7e",
"ez c #895e24",
".Q c #8a582f",
"ai c #8b4012",
"gG c #8b5a19",
"g4 c #8b5e1c",
"#K c #8c5f3b",
"gC c #8c6629",
"#u c #8cbd40",
"a9 c #8d3c06",
"de c #8d8d4a",
"c1 c #8e5b27",
"b. c #8e8971",
"#Q c #8eb331",
"#W c #90b36c",
"ex c #915b1e",
"aT c #91643a",
"eZ c #936729",
"bX c #939392",
".z c #946539",
".u c #946a3f",
"fQ c #956728",
"fy c #956b2f",
"hn c #966216",
"fo c #966d2e",
"co c #969687",
".Z c #96a6e4",
"#z c #96c96f",
"gI c #996922",
"bx c #999998",
"#m c #99b3ff",
"cB c #9a6833",
"#V c #9b9448",
"a5 c #9c6203",
".L c #9c7144",
".3 c #9cb3fe",
".n c #9e7444",
"bl c #a06a29",
"bi c #a17848",
"#k c #a2bbff",
"c3 c #a36924",
"#c c #a3dda8",
"c. c #a47742",
"#l c #a4bdff",
"#b c #a4c24f",
"gM c #a5701d",
"bI c #a67d4a",
".J c #a6b2da",
"#j c #a7c0ff",
"#x c #a8e1ac",
"g0 c #a96f21",
".K c #a9a094",
"fm c #aa6d24",
"fO c #ac6e21",
"#p c #ad8c5f",
".T c #add264",
"hq c #ae741c",
"a2 c #aebc3f",
"eJ c #af9257",
"eU c #afa377",
"ed c #b07835",
".t c #b09362",
".I c #b0c0ea",
"cb c #b36a24",
"#. c #b38041",
"#D c #b3b8bd",
".0 c #b5c6ff",
".5 c #b69761",
"ha c #b77e25",
"#d c #b7d6a3",
"#n c #b8c2c7",
".o c #b9965a",
"dk c #b9af85",
"b0 c #bb5001",
"dF c #bbbb1c",
"gt c #bc7e23",
"gF c #bd812b",
".H c #bec7d2",
"fw c #bf9338",
"gb c #c0872e",
"he c #c18224",
"gm c #c28027",
"ho c #c28425",
"aW c #c38030",
".A c #c49f54",
"cP c #c4c47a",
"#H c #c4c9b9",
"gD c #c59645",
"#7 c #c5ab78",
".4 c #c5cbbc",
"fI c #c69d57",
"eL c #c6ac74",
"eM c #c6ae78",
"eN c #c6af7a",
"eO c #c6b17d",
"fJ c #c6b27f",
"eP c #c6b380",
"eQ c #c6b483",
"eR c #c6b686",
"eS c #c6b789",
"fK c #c6b889",
"aq c #c6ccb7",
"eK c #c7ac72",
"eT c #c7ba8d",
"cT c #c85d00",
"dN c #c89b57",
"f4 c #c9852b",
"fF c #c98f38",
".B c #cac361",
"eX c #cb974b",
"bE c #cbc7a6",
".p c #ccad6c",
"#s c #ce9a47",
"aB c #cebe4b",
"by c #cec7a1",
"g1 c #cf8e2b",
".2 c #cfdcff",
"ds c #d08a25",
".s c #d0b670",
"bY c #d0d0b0",
"aH c #d16504",
"hp c #d28f2a",
"gw c #d29432",
"gE c #d29b41",
".R c #d3a657",
"aj c #d3c47c",
"ct c #d3c482",
"aF c #d45a05",
"bU c #d45b13",
"g9 c #d48d24",
"ah c #d55b00",
"dz c #d56400",
"dJ c #d67d00",
"bD c #d6cda1",
".1 c #d6e1ff",
"gy c #d79b3c",
".q c #d7bc79",
"bv c #d86404",
"aw c #d8a13c",
".r c #d8c07b",
"dY c #d97100",
"#B c #d9d176",
"aO c #d9d5a3",
"df c #d9d94d",
"ab c #dac04d",
"#Z c #dad2a6",
"gX c #db9521",
"dp c #dbc07d",
"#h c #dbd0a5",
"d# c #dc701b",
"#O c #dca446",
"gp c #dcac55",
"cl c #dd7806",
"bz c #dd7f14",
"fS c #dda542",
"cM c #de7418",
"a. c #dea340",
"gU c #dea648",
"d8 c #df8800",
"#5 c #dfe3ba",
"g8 c #e19621",
"#e c #e2cd6c",
"fM c #e2d99a",
"gQ c #e3a138",
"bT c #e3be55",
"ew c #e3c87f",
"eE c #e5641a",
"da c #e59809",
"g# c #e69e2c",
"bL c #e6a92f",
".V c #e6d277",
"b# c #e6d695",
"cE c #e78422",
"ck c #e79337",
"a6 c #e7972c",
"h. c #e79e2d",
"cr c #e89f1b",
"cK c #e96229",
"el c #e9a632",
"d7 c #e9ac01",
"d6 c #e9ac03",
"dZ c #e9ad09",
"gl c #e9b353",
"bw c #e9d690",
"ak c #e9da9b",
"c9 c #ea591f",
"d5 c #eaad07",
"d4 c #eaae09",
"d3 c #eaae0b",
"d0 c #eaaf0d",
"d2 c #eaaf0e",
"dU c #eb4716",
"en c #eb9835",
"d. c #eba140",
"d1 c #ebaf0f",
"fN c #ebc268",
"fl c #ebcf82",
"c0 c #ebde9d",
"as c #ebe2a4",
"cp c #ebeba5",
"ci c #ec4c24",
"aJ c #ecda94",
"bo c #ed9d42",
"dQ c #eda027",
"gf c #edc063",
"aP c #ede9a9",
"dW c #ee8932",
"hj c #eeaa3d",
"dx c #eebc44",
"dD c #eeee27",
"bR c #ef6c2e",
"a8 c #efbb57",
"di c #efbf0c",
"bS c #efcc56",
"g6 c #f0b958",
"#t c #f0d059",
"#X c #f0da83",
"bW c #f0efc0",
"hf c #f1b952",
"bV c #f1bb44",
"#a c #f1d764",
".Y c #f1e39c",
"dV c #f2230b",
"a7 c #f2f0ca",
"c8 c #f3260c",
"em c #f39530",
"gO c #f3af3d",
"c5 c #f47c1c",
"ge c #f4c666",
"dw c #f51d0a",
"fE c #f5b036",
"cN c #f5d23c",
"#J c #f5f2b3",
"dd c #f5f55b",
"#f c #f6e385",
"ek c #f70301",
"dv c #f76519",
"eD c #f77c1c",
"aG c #f7c028",
"f6 c #f8cb6a",
".G c #f8efa8",
"c6 c #f90e02",
"eg c #f9ad2b",
"eF c #f9b935",
"aY c #f9ba41",
"hi c #f9ce6f",
"bZ c #f9db6e",
"ec c #f9efa7",
"hh c #fae28e",
"dA c #fae912",
"bF c #faf1a6",
"cA c #faf5b4",
"cn c #fafab1",
"bO c #fb847a",
"bm c #fba331",
"bq c #fba53e",
"e4 c #fbba2f",
"cj c #fbd159",
"cL c #fbd259",
"hb c #fbd87e",
"gk c #fbdb7f",
"cd c #fc732a",
"bP c #fc7563",
"bn c #fc7a73",
"gg c #fcd475",
"hg c #fce490",
"bd c #fcf2a2",
"aS c #fcfab8",
"cF c #fd1e12",
"bQ c #fd5656",
"dT c #fd721c",
"bp c #fdb33a",
"c4 c #fdb526",
"e3 c #fdb628",
"du c #fdc02c",
"#C c #fded94",
"cS c #fdf04a",
"aQ c #fdfbb6",
"ce c #fe6969",
"bN c #feb2b0",
"g2 c #fec145",
"eH c #fec243",
"br c #fec758",
"dy c #fecb4e",
"## c #fecc65",
"gd c #fed064",
".C c #fee589",
"#g c #feec8d",
"eW c #fef6aa",
"cm c #fef896",
"dI c #fef90b",
"cq c #fefc9a",
"b9 c #fefdbb",
"c7 c #ff0000",
"cJ c #ff0b15",
"cG c #ff181d",
"cI c #ff1d1e",
"cH c #ff1e1e",
"ej c #ff5213",
"ch c #ff6972",
"cf c #ff7c80",
"aX c #ff8026",
"cg c #ff8084",
"cc c #ff9027",
"gL c #ffaa18",
"gr c #ffab1b",
"fA c #ffac1c",
"f8 c #ffac1e",
"fq c #ffad1e",
"bM c #ffad33",
"e1 c #ffae1f",
"eB c #ffae20",
"fr c #ffae21",
"e2 c #ffae22",
"gW c #ffaf19",
"f9 c #ffaf21",
"fB c #ffaf24",
"eh c #ffb020",
"fs c #ffb126",
"dR c #ffb221",
"fC c #ffb32a",
"dt c #ffb423",
"gs c #ffb526",
"g. c #ffb527",
"g7 c #ffb52b",
"ft c #ffb52c",
"eA c #ffb52e",
"eC c #ffb625",
"fu c #ffb732",
"fD c #ffb830",
"e5 c #ffb834",
"e0 c #ffb931",
"f7 c #ffba32",
"dS c #ffbb29",
"fv c #ffbc38",
"e6 c #ffbc3a",
"ei c #ffbd28",
"fp c #ffbd39",
"e7 c #ffbf3f",
"g3 c #ffbf46",
"gV c #ffc144",
"eG c #ffc23d",
"eI c #ffc248",
"fz c #ffc447",
"gK c #ffc448",
"ay c #ffc54c",
"eo c #ffc74b",
"aZ c #ffc84c",
"az c #ffc852",
"ax c #ffca48",
"gP c #ffca50",
"gx c #ffcb51",
"gc c #ffcb52",
"aa c #ffcb57",
"dX c #ffcc4d",
"a0 c #ffcc53",
"a# c #ffcd50",
"fT c #ffcd55",
"h# c #ffce60",
"a1 c #ffcf5c",
"aA c #ffcf5e",
"fV c #ffcf5f",
"hc c #ffd05c",
"fU c #ffd062",
"gq c #ffd466",
"#P c #ffd65e",
"fW c #ffd96e",
".S c #ffda73",
"fZ c #ffdd7a",
"fY c #ffde7a",
"f0 c #ffdf7d",
"fX c #ffe07a",
"gJ c #ffe086",
"f1 c #ffe284",
"gj c #ffe588",
"gh c #ffe687",
"gi c #ffe789",
"f2 c #ffe88d",
".W c #ffe98f",
"bC c #ffeb91",
".X c #ffec91",
"f3 c #ffec94",
"b2 c #ffec96",
"bB c #ffed90",
"cV c #ffed99",
"e. c #ffed9a",
"fk c #ffed9b",
"cu c #ffee9a",
"dL c #ffee9b",
"eV c #ffee9d",
"dl c #ffef9e",
"cW c #ffef9f",
"eu c #fff09f",
"e# c #fff0a0",
".D c #fff194",
"cv c #fff1a1",
"#Y c #fff28f",
"dm c #fff2a3",
".E c #fff39a",
"cX c #fff3a5",
"b3 c #fff49b",
"ea c #fff4a6",
"cw c #fff4a7",
"b5 c #fff5a9",
"dn c #fff5aa",
"b4 c #fff6a1",
"cY c #fff6ab",
"cx c #fff7ad",
".F c #fff89d",
"b6 c #fff8ae",
"do c #fff8af",
"cZ c #fff9b1",
"eb c #fffaaf",
"bG c #fffab1",
"cy c #fffab3",
"b7 c #fffbb4",
"bH c #fffcb7",
"db c #fffd4f",
"dM c #fffdb7",
"ev c #fffeb2",
"bf c #fffeb9",
"bh c #fffebc",
"dH c #ffff14",
"dG c #ffff1a",
"dB c #ffff27",
"dC c #ffff2a",
"dh c #ffff3e",
"dg c #ffff49",
"dc c #ffff5d",
"cR c #ffff7c",
"cQ c #ffff87",
"cO c #ffff8f",
"be c #ffffb3",
"cz c #ffffbb",
"b8 c #ffffbc",
"#o c #ffffbd",
"bg c #ffffbe",
"#I c #ffffbf",
"aR c #ffffc0",
"ar c #ffffc1",
"#6 c #ffffc6",
"QtQtQtQtQtQtQtQtQtQtQtQtQtQtQt.#.a.b.c.d.e.f.g.h.iQtQtQtQtQtQtQt",
"QtQtQtQtQtQtQtQtQtQtQtQt.j.k.l.m.n.o.p.q.r.s.t.u.v.w.jQtQtQtQtQt",
"QtQtQtQtQtQtQtQtQtQtQt.x.y.z.A.B.C.D.E.F.G.H.I.J.K.L.M.NQtQtQtQt",
"QtQtQtQtQtQtQtQtQt.O.P.Q.R.S.T.U.V.W.X.Y.Z.0.1.2.3.4.5.6.7QtQtQt",
"QtQtQtQtQtQtQtQt.8.9#.###a#b#c#d#e#f#g#h#i#j#k#l#m#n#o#p#q.jQtQt",
"QtQtQtQtQtQtQt.7#r#s#t#u#v#w#x#y#z#A#B#C#D#E#F#F#G#H#I#J#K#LQtQt",
"QtQtQtQtQtQt#M#N#O#P#Q#R#S#T#T#U#V#W#X#Y#Z#0#1#2#3#4#5#6#7#8.jQt",
"QtQtQtQtQt.i#9a.a#aaabacadaeafagahaiajakalam#2anaoapaqarasatauQt",
"QtQtQtQt.javawaxayazaAaBaCaDaEaFaGaHaIaJaKaLaMaNaOaPaQaRaSaTaUQt",
"QtQtQtQtaVaWaXaYaZa0a1a2a3a4a5a6a7a8a9b.b#babbbcbdbebfbgbhbibjQt",
"QtQtQtbkblbmbnbobpbqbrbsbtbubvbwbxbybzbAbBbCbDbEbFbGbHbgbhbIbJQt",
"QtQtQtbKbLbMbNbObPbQbRbSbTbUbVbWbXbYbZb0b1b2b3b4b5b6b7b8b9c.c#Qt",
"QtQtcacbcccdcecfcgchcicjckclcmcncocpcqcrcsctcucvcwcxcyczcAcBcCQt",
"QtQtcDcEcFcGcHcHcIcJcKcLcMcNcOcOcPcQcRcScTcUcVcWcXcYcZ#oc0c1c2Qt",
"Qt.jc3c4c5c6c7c7c8c9d.d#dadbdcdddedfdgdhdidjdkdldmdndobgdpdq.jQt",
"Qtdrdsdtdudvc7c7dwdxdydzdAdBdCdDdEdFdGdHdIdJdKdLcvcwb6dMdNdO.jQt",
"QtdPdQdRdSdTc7dUdVdWdXdYdZd0d1d2d3d4d5d6d7d8d9e.e#eaebecedeeQtQt",
"QtefegeheiejekelemeneoepeqererererererereresetcVeueaevewexeyQtQt",
"QtezeAeBeCeDeEeFeGeHeIeJeKeLeMeNeOePeQeReSeTeUb2eVeaeWeXeY.jQtQt",
"QteZe0e1e2e3e4e5e6e7e8e9f.f#fafbfcfdfefffgfhfifjfkeaflfmfnQtQtQt",
"Qtfofpfqfrfsftfufvfw.j.j.j.j.j.j.j.j.j.j.j.j.j.jfxflfmfmfnQtQtQt",
"QtfyfzfAfrfBfCfDfEfFfGfHfIfJeMfJfJfJfJfJfJfKfLfxfMfNfOfPQtQtQtQt",
"QtfyfAfrfrfrfrfrfrfQfQfRfSfTfUfVfWfXfYfZf0f1f2f3fNf4.j.jQtQtQtQt",
"Qtf5f6f7f8f9g.g#ga.jQt.jgbgcfUgdgegfggghgigjgkglgmgnQtQtQtQtQtQt",
"QtgogpgqgreBgsgtguQtQtgvgwgxfUgygzgAgBgCgDgEgFgGgH.jQtQtQtQtQtQt",
"Qt.jgIgJgKgLeCgM.jQtQtgNgOgPgQgz.j.j.j.jeygRgS.j.jQtQtQtQtQtQtQt",
"QtQtgTgUb2gVgWgXgYgZg0g1g2g3g4.jQtQtQtQtQtQtQtQtQtQtQtQtQtQtQtQt",
"QtQt.jg5g6e#gqg7g8g9h.h.h#ha.jQtQtQtQtQtQtQtQtQtQtQtQtQtQtQtQtQt",
"QtQtQt.jg5g6e#hbhbhbhbhch#ha.jQtQtQtQtQtQtQtQtQtQtQtQtQtQtQtQtQt",
"QtQtQtQt.jhdhehfhbhghhhihjhk.jQtQtQtQtQtQtQtQtQtQtQtQtQtQtQtQtQt",
"QtQtQtQtQtQthlhmhnhohphqhr.jQtQtQtQtQtQtQtQtQtQtQtQtQtQtQtQtQtQt",
"QtQtQtQtQtQtQt.j.jc2hs.j.jQtQtQtQtQtQtQtQtQtQtQtQtQtQtQtQtQtQtQt"};
