/* XPM */
static char *mask_outside_rect[]={
"32 32 150 2",
".a c None",
"Qt c None",
"a. c #151c1e",
".0 c #161f21",
".Y c #162125",
"an c #171c23",
"#B c #171d26",
".1 c #171f22",
".b c #181a1e",
"#5 c #181b24",
"am c #181c23",
"al c #181d24",
"#T c #181e21",
".I c #181f26",
"## c #182428",
".M c #191c28",
"a# c #191d21",
".J c #191e25",
".C c #192023",
".H c #192026",
"#m c #19222c",
".Z c #192325",
".X c #19262b",
"ak c #1a1c20",
"#O c #1a1c28",
".u c #1a1c2b",
"ac c #1a1d24",
"#4 c #1a1d26",
"ag c #1a1e1f",
"#u c #1a1e25",
"#9 c #1a2023",
"#E c #1a2024",
".2 c #1a2124",
"#a c #1a232b",
"#l c #1b1d23",
"ab c #1b1d28",
"#i c #1b1e24",
"aa c #1b1e25",
".s c #1b1e26",
"#X c #1b1e28",
"#P c #1b1e29",
".v c #1b1e2c",
"#w c #1b1f2b",
"#F c #1b2125",
"#b c #1b2126",
".8 c #1b2129",
"#p c #1b2225",
".G c #1b2229",
".F c #1b2329",
"#k c #1c1d1f",
".P c #1c1e25",
"#z c #1c1e28",
".L c #1c1e29",
"#N c #1c1e2a",
"#G c #1c1f23",
"ad c #1c1f24",
"#V c #1c1f25",
"#W c #1c1f26",
".K c #1c1f28",
"#h c #1c1f29",
"#A c #1c1f2a",
".w c #1c202a",
".x c #1c212b",
"#Q c #1c2228",
".S c #1c242c",
".E c #1c252b",
".t c #1d1f2b",
"#U c #1d2024",
".f c #1d2026",
"#Y c #1d2028",
".4 c #1d2029",
"ah c #1d2125",
".7 c #1d2128",
".h c #1d242d",
"#C c #1d282d",
".c c #1e1f24",
"ao c #1e2024",
"#2 c #1e2027",
"#M c #1e2128",
".N c #1e212a",
"#r c #1e2226",
".3 c #1e232a",
".R c #1e242c",
"#q c #1e2528",
"#Z c #1f2229",
".T c #1f252d",
".D c #1f272c",
".9 c #1f272f",
".y c #1f2731",
"#1 c #202025",
"#D c #202225",
"#3 c #20222b",
"#s c #202325",
"#I c #202328",
"#K c #202329",
"#x c #20232c",
"af c #202425",
"#6 c #20242b",
"#v c #20242e",
"ar c #202524",
".W c #202b2e",
".5 c #21242b",
"#H c #212528",
".z c #21262e",
"#R c #21282c",
"#f c #222428",
"#g c #22242c",
".Q c #22252b",
".g c #222932",
"#d c #232529",
"#t c #23262c",
"#J c #23262e",
"#o c #242729",
".O c #24272d",
".V c #242d2c",
"#. c #24302e",
"#e c #25272a",
"#L c #25282c",
"at c #252929",
"ap c #262626",
"#S c #26282b",
".r c #262830",
".i c #262835",
".q c #272831",
"#7 c #27292e",
".U c #272b33",
"aq c #282b2b",
"#c c #282c2f",
"as c #292d2d",
".m c #292d36",
".j c #2a2935",
".e c #2a2a2e",
".B c #2a2f32",
".p c #2b2b35",
".o c #2b2c35",
"#y c #2b2e34",
"ai c #2b2f34",
"aj c #2c2c2d",
".l c #2c2e34",
"#j c #2c3033",
".n c #2d303a",
"#n c #2f363e",
"#8 c #313437",
"#0 c #33363a",
".k c #35343b",
".A c #383b41",
".d c #39383d",
"ae c #3b3e40",
".6 c #46494e",
".# c #ff0000",
"QtQtQtQtQtQtQtQtQtQtQtQtQtQtQtQtQtQtQtQtQtQtQtQtQtQtQtQtQtQtQtQt",
"Qt.#.#.#.#.#.#.#.#.#.#.#.#.#.#.#.#.#.#.#.#.#.#.#.#.#.#.#.#.#QtQt",
"Qt.#QtQtQtQtQtQtQtQtQtQtQtQtQtQtQtQtQtQtQtQtQtQtQtQtQtQtQt.#QtQt",
"Qt.#QtQtQtQtQtQtQtQt.a.a.a.a.a.a.a.a.a.a.a.a.a.a.a.a.a.aQt.#QtQt",
"Qt.#.a.a.a.a.a.a.a.a.a.a.a.a.a.a.a.a.a.a.a.a.a.a.a.a.a.a.a.#.aQt",
"Qt.#QtQtQtQtQtQtQt.aQtQtQtQtQtQtQtQtQtQtQtQtQtQtQtQtQt.aQt.#.aQt",
"Qt.#QtQtQtQtQtQt.a.aQtQtQtQtQtQtQtQtQtQtQtQtQtQtQtQtQt.aQt.#.aQt",
"Qt.#QtQtQtQtQt.a.aQtQtQtQtQtQtQtQtQtQtQtQtQtQtQtQtQtQt.aQt.#.aQt",
"Qt.#QtQtQtQt.a.aQtQtQtQtQtQtQtQtQtQtQtQtQtQtQtQtQtQtQt.aQt.#.aQt",
"Qt.#QtQt.a.a.aQtQtQtQtQtQtQtQtQtQtQtQtQtQtQtQtQtQtQtQt.a.a.#.aQt",
"Qt.#Qt.a.a.a.a.a.a.a.a.a.a.a.a.a.a.a.a.a.a.a.a.a.a.a.a.aQt.#.aQt",
"Qt.#.a.aQt.a.a.a.a.a.a.a.a.a.a.a.a.a.a.a.a.a.a.a.a.a.a.aQt.#.aQt",
"Qt.#.aQtQt.a.a.a.a.a.a.a.a.a.a.a.a.a.a.a.a.a.a.a.a.a.a.aQt.#.aQt",
"Qt.#QtQtQt.a.a.a.a.a.a.a.a.a.a.a.a.a.a.a.a.a.a.a.a.a.a.aQt.#.aQt",
"Qt.#QtQtQt.a.a.a.a.a.a.a.a.a.a.a.a.a.a.a.a.a.a.a.a.a.a.aQt.#.aQt",
"Qt.#QtQtQt.a.a.a.a.a.a.a.a.a.a.a.a.a.a.a.a.a.a.a.a.a.a.aQt.#.aQt",
".a.#QtQtQt.a.a.a.a.a.a.a.a.a.a.a.a.a.a.a.a.a.a.a.a.a.a.aQt.#.aQt",
".a.#QtQtQt.a.a.a.a.a.a.a.a.a.a.a.a.a.a.a.a.a.a.a.a.a.a.aQt.#.aQt",
".a.#.#.#.#.#.#.#.#.#.#.#.#.#.#.#.#.#.#.#.#.#.#.#.#.#.#.#.#.#.aQt",
".a.aQtQtQt.a.a.a.a.a.a.a.a.a.a.a.a.a.a.a.a.a.a.a.a.a.a.aQtQt.aQt",
".a.a.aQtQt.a.a.a.a.a.a.a.a.a.a.a.a.a.a.a.a.a.a.a.a.b.c.a.a.a.a.a",
".a.a.aQtQt.a.a.a.a.a.a.a.a.a.a.a.a.a.a.a.a.d.e.f.g.g.h.i.j.k.a.a",
".a.aQtQtQtQtQtQtQt.a.a.a.a.l.m.n.o.p.q.r.s.t.u.v.w.w.x.y.y.z.A.a",
"Qt.aQtQtQtQtQtQtQt.a.a.B.C.D.E.F.G.H.I.J.K.L.M.N.O.P.Q.R.S.T.U.a",
"Qt.aQtQtQtQtQtQtQt.a.V.W.X.Y.Z.0.1.2.2.3.4.s.5.a.a.a.a.6.7.8.9.T",
"Qt.aQtQtQtQtQtQtQt.a#.###a#b#c.a#d#e#f#g#h#i#j.a.a.a.a#k#l.8#m#n",
"Qt.aQtQtQt.a.a.a.a#o#p#q#r.a.a.a.a.a#s#t#u#v#w#x#y.f#i#z#A#B#C.a",
"Qt.a.a.a.a.a.a.a.a#D#E#F#G#H.a.a.a#I#J#K#L#M.N.L#N#N#O#N#P#Q#R.a",
"QtQtQtQtQtQtQtQtQt#S#T.2#U#V#W.K#X#Y#Z#0.a.a#1#2#3#4#5#4#6#7.a.a",
"QtQtQtQtQtQtQtQtQt#8#9a.a#aaab#Aacadae.a.a.a.a.a.aafagahai.a.a.a",
"QtQtQtQtQtQtQtQtQt.aajakalamanaoap.a.a.a.a.a.a.a.a.a.a.a.a.a.a.a",
"QtQtQtQtQtQtQtQtQt.a.aaqarasat.a.a.a.a.a.a.a.a.a.a.a.a.a.a.a.a.a"};
