/* XPM */
static char *movefeature[]={
"32 32 161 2",
".c c None",
"Qt c None",
"aw c #000000",
".C c #000000",
"ar c #000000",
".# c #000000",
".L c #020202",
".1 c #040b06",
"#P c #040d07",
"#B c #051009",
"#b c #07180d",
".0 c #071c0d",
".6 c #092413",
"#o c #092613",
"#5 c #0a190f",
"a# c #0b1c11",
"#A c #0b3218",
"aa c #0c1f12",
"ak c #0c2112",
"at c #0e1d12",
"am c #0e2314",
".y c #0e3d1c",
"#a c #0e3d1d",
"#1 c #102317",
".l c #135628",
"#n c #14552a",
"al c #173e24",
".V c #17602f",
"## c #217c3f",
"#m c #219648",
".U c #226135",
"#x c #279a58",
".Z c #297640",
".E c #299451",
".7 c #2b9252",
"#Y c #2e7b49",
".F c #2e9951",
"#K c #2e9f5e",
"#y c #2f8853",
"#X c #307d4d",
"#v c #308f54",
"#L c #34a360",
".D c #369d62",
"#W c #378251",
".N c #37a65e",
"#w c #37aa62",
"#V c #398851",
"#M c #3b9a5c",
".O c #3fb86d",
"#U c #438c58",
"#J c #4bb673",
".P c #4bc674",
"#k c #57976e",
"#i c #5ab57a",
".v c #5db275",
".Y c #61ac78",
".9 c #6da27c",
".Q c #6dbe82",
"#j c #70c090",
".G c #74bd8c",
".u c #76c98d",
".p c #8fbea0",
"#c c #9e9e9e",
".8 c #9ebfa9",
".2 c #a0a0a0",
".3 c #aa0000",
"#d c #adadad",
".4 c #b00000",
".5 c #b0b0b0",
"#Q c #b20000",
"#p c #b30000",
"#N c #b3b3b3",
"#Z c #b4b4b4",
"#2 c #b50000",
"#l c #b5b5b5",
"#9 c #ba0000",
"#. c #bababa",
"#3 c #bbbbbb",
"#e c #bd0000",
".w c #bedbc7",
".H c #c1dcca",
".q c #c4ddcb",
"#8 c #c80000",
".X c #c8c8c8",
"#C c #c9c9c9",
"#u c #cbcbcb",
"#f c #cc0000",
"ay c #d2d2d2",
".R c #d30000",
"#g c #d50000",
"#h c #d5d5d5",
".I c #d60000",
"as c #d6d6d6",
"az c #d7d7d7",
"au c #d80000",
"aj c #d8d8d8",
"ae c #d90000",
"af c #d9d9d9",
"ag c #dadada",
"ad c #db0000",
".T c #dc0000",
"#7 c #dcdcdc",
"ah c #dddddd",
"#q c #dedede",
".s c #df0000",
"#0 c #dfdfdf",
".W c #dfeae2",
".z c #e00000",
"a. c #e0e0e0",
".r c #e0ebe3",
"#I c #e10000",
"ax c #e1e1e1",
".m c #e30000",
"#z c #e3e3e3",
"aA c #e40000",
".S c #e4e4e4",
"#D c #e5e5e5",
"ai c #e60000",
"aD c #e6e6e6",
"aC c #e7e7e7",
"#6 c #e80000",
"ac c #ea0000",
"#r c #eaeaea",
"ab c #eb0000",
".J c #ebebeb",
".t c #ec0000",
"#O c #ececec",
".n c #ed0000",
".A c #eeeeee",
".M c #f00000",
"#R c #f0f0f0",
"#t c #f10000",
"#s c #f1f1f1",
"#H c #f20000",
"aB c #f2f2f2",
"#E c #f30000",
"ao c #f40000",
"ap c #f4f4f4",
".x c #f4f7f5",
"aq c #f50000",
".j c #f5f5f5",
".k c #f60000",
".i c #f6f6f6",
"#T c #f70000",
".K c #f7f7f7",
"an c #f80000",
".h c #f8f8f8",
"aE c #f90000",
".o c #f9f9f9",
"#F c #fa0000",
"#4 c #fafafa",
"av c #fb0000",
".g c #fbfbfb",
".B c #fc0000",
"#G c #fcfcfc",
"#S c #fd0000",
".f c #fdfdfd",
".e c #fe0000",
".d c #fefefe",
".a c #ff0000",
".b c #ffffff",
"QtQtQtQtQtQtQtQtQtQtQtQtQtQtQt.#QtQtQtQtQtQtQtQtQtQtQtQtQtQtQtQt",
"QtQtQtQtQtQtQtQtQtQtQtQtQtQtQt.#QtQtQtQtQtQtQtQtQtQtQtQtQtQtQtQt",
"QtQtQtQtQtQtQtQtQtQtQtQtQtQtQt.#QtQtQtQtQtQtQtQtQtQtQtQtQtQtQtQt",
"QtQtQtQtQtQtQtQtQtQtQtQt.a.a.a.b.a.a.aQtQtQtQtQtQtQtQtQtQtQtQtQt",
"QtQtQtQtQtQtQtQtQtQt.a.a.b.b.b.a.b.b.b.a.aQtQtQtQtQtQtQtQtQtQtQt",
"QtQtQtQtQt.c.c.c.a.a.b.b.b.d.d.e.d.b.b.b.b.a.a.c.c.c.cQtQtQtQtQt",
"QtQtQtQtQt.c.c.a.a.b.f.g.h.i.j.k.h.g.f.b.b.b.a.a.c.c.cQtQtQtQtQt",
"QtQtQtQtQt.c.a.a.d.g.j.l.l.l.l.l.m.n.j.g.f.b.b.a.a.c.cQtQtQtQtQt",
"QtQtQtQtQt.a.a.d.o.l.l.p.q.r.q.p.l.l.s.t.j.g.d.b.a.a.cQtQtQtQtQt",
"QtQtQtQtQt.a.d.h.l.p.b.u.v.v.v.v.w.x.y.y.z.A.h.f.d.B.CQtQtQtQtQt",
"QtQtQtQt.a.d.h.l.r.u.D.E.E.E.E.F.F.G.H.x.#.I.J.i.K.L.MQtQtQtQtQt",
"QtQtQtQt.a.g.l.p.u.E.N.O.P.P.P.P.O.E.F.Q.x.#.R.S.y.#.TQtQtQtQtQt",
"QtQtQt.a.b.j.l.b.E.N.U.V.#.#.#.#.N.P.O.E.Q.x.#.y.W.#.X.aQtQtQtQt",
"QtQtQt.a.b.y.p.Y.Z.V.0.1.2.3.4.5.6.#.N.P.7.Q.8.W.9.##..aQtQtQtQt",
"QtQtQt.a.b.y.b###a#b#c#d#e#f#g#h#f#e.#.N.P.7#i#j#k.##l.aQtQtQtQt",
".#.#.#.b.a.y#m#n#o#c#p#f#q#r#s#t#r#q#u.##v#w.7#x#y.##p.b.#.#.#Qt",
"QtQtQt.a.b#z.y#A#B.3#C#D#E#F.B#G#F#H#I.y.W#J#K#L#M.##N.aQtQtQtQt",
"QtQtQt.a.b#O.#.y#P#Q#h#R.g.e.a.b#S#T.y.W#U#V#W#X#Y.##Z.aQtQtQtQt",
"QtQtQt.a.b.j#0.y#1#2#g#s#G.b.a.b.B.L.#.#.#.#.#.#.#.##3.aQtQtQtQt",
"QtQtQtQt.a#4#O.1.y#5#f#6.K.f.b.a.g#R#7#8#9#2#p#N#Z#3#fQtQtQtQtQt",
"QtQtQtQt.a.f.ja.a#.yaa#gab.h.f.a#G.jac.zadaeafafagahaiQtQtQtQtQt",
"QtQtQtQtQt.a.g.Aajakalam.Iaban.f.e.Ban.kaoapapapapaqarQtQtQtQtQt",
"QtQtQtQtQt.a.e.h.Jas.#.yatauac.iav.e.e.e.d.d.d.f.e.eawQtQtQtQtQt",
"QtQtQtQtQt.c.a#S.h.Jaj.X.#.#.##r.k.B.b.b.b.b.b.a.a.c.cQtQtQtQtQt",
"QtQtQtQtQt.c.c.a#S.h.AaxasayazaAaB.g.b.b.b.b.a.a.c.c.cQtQtQtQtQt",
"QtQtQtQtQt.c.c.c.a.e.g.j.AaCaD.n.i.f.b.b.b.a.a.c.c.c.cQtQtQtQtQt",
"QtQtQtQtQt.c.c.c.c.c.a#S.g.h.KaE#G.d.b.a.a.c.c.c.c.c.cQtQtQtQtQt",
"QtQtQtQtQtQtQtQtQtQtQtQt.a.a.a.b.a.a.aQtQtQtQtQtQtQtQtQtQtQtQtQt",
"QtQtQtQtQtQtQtQtQtQtQtQtQtQtQt.#QtQtQtQtQtQtQtQtQtQtQtQtQtQtQtQt",
"QtQtQtQtQtQtQtQtQtQtQtQtQtQtQt.#QtQtQtQtQtQtQtQtQtQtQtQtQtQtQtQt",
"QtQtQtQtQtQtQtQtQtQtQtQtQtQtQt.#QtQtQtQtQtQtQtQtQtQtQtQtQtQtQtQt",
"QtQtQtQtQtQtQtQtQtQtQtQtQtQtQtQtQtQtQtQtQtQtQtQtQtQtQtQtQtQtQtQt"};
