/* XPM */
static char *palette[]={
"32 32 585 2",
"fc c None",
"Qt c None",
".j c #000000",
"a5 c #009a00",
"a4 c #009c00",
"a3 c #009d00",
"gi c #030000",
"c2 c #070300",
"aC c #089f06",
"aD c #08a409",
"ey c #0a0300",
"au c #0a0500",
"hg c #0b0800",
"aE c #0ba50e",
"h# c #0c0800",
"gG c #0d0800",
"aF c #0da30e",
".7 c #110505",
"#M c #120606",
"gj c #150a00",
".N c #160b05",
"fI c #181104",
"bw c #18980b",
"bs c #1a970a",
"cB c #1c0f05",
"fb c #1c1004",
"aU c #1d0d05",
"bj c #1e0f07",
".i c #1f0a0a",
"bi c #1f0f04",
"gF c #1f1002",
"c# c #1f1306",
"bI c #220f04",
"c. c #241206",
"#R c #24af38",
"a6 c #26a213",
"gc c #271504",
"#L c #281309",
"fJ c #281605",
"ad c #2bb02f",
"dr c #2d190c",
"gM c #2d1d08",
"gv c #2f1f08",
"eb c #301c09",
"aL c #3368ff",
"gH c #341d03",
".8 c #341e0f",
"aM c #366eff",
"#3 c #386eff",
"ae c #38b538",
"am c #3a6fff",
"ba c #3b68f7",
"ag c #3bb63e",
".w c #3d2010",
"an c #3d70ff",
"#1 c #3e71ff",
"af c #3eb73e",
"#2 c #3f72ff",
"#0 c #4271fc",
"f1 c #442c0f",
"ao c #4471f7",
".O c #452e17",
"go c #472c0b",
"bv c #47a420",
"gN c #482400",
"aV c #482c15",
"ac c #4aa728",
".h c #4c2713",
"dN c #4f3112",
"dM c #502e0e",
"g3 c #503309",
"#8 c #532a15",
"hf c #53360d",
"gb c #533610",
"ap c #5377e9",
"#q c #552b15",
".x c #55301c",
".P c #562f1b",
"ha c #56380b",
"h. c #56380f",
"gp c #563912",
"al c #577ef2",
".g c #5b2f16",
"cC c #5b3d18",
"eS c #5c3811",
"aK c #5c7ae6",
"#4 c #5c81eb",
".M c #5d321a",
"#G c #5f87fb",
"#A c #60b546",
"bJ c #623e1b",
"#v c #62b94d",
"av c #633c1e",
"fU c #634114",
"#E c #638bfd",
".6 c #64361c",
"aN c #6486e1",
".U c #64ba54",
"#F c #658eff",
".k c #66391e",
"#V c #66c76f",
".y c #683b21",
"#S c #68c96d",
".b c #69381e",
".# c #693d1a",
"gT c #69440f",
".a c #6a3a1e",
"bb c #6a87d7",
"#r c #6c4023",
".c c #6d3d21",
".l c #6f3d22",
"#T c #6fca6f",
".f c #703d1f",
"gB c #704914",
".e c #724124",
".d c #724224",
"dq c #724416",
".v c #73431f",
"#N c #734524",
".9 c #744226",
"#w c #76cb7a",
"#U c #76cd78",
"gn c #774d16",
"ec c #774e1c",
"at c #794a27",
"#9 c #7a4a25",
"ah c #7bb045",
"b# c #7e8fcd",
"bt c #81a934",
".m c #82502f",
"#i c #85a1ff",
"#W c #85b454",
"br c #87b130",
"#y c #87cb7e",
"ez c #895e24",
".Q c #8a582f",
"gu c #8b5a19",
"gS c #8b5e1c",
"#K c #8c5f3b",
"gq c #8c6629",
"#u c #8cbd40",
"c1 c #8e5b27",
"#Q c #8eb331",
"ex c #915b1e",
"aT c #91643a",
"eT c #936729",
".z c #946539",
".u c #946a3f",
"fC c #956728",
"fu c #956b2f",
"hb c #966216",
"fd c #966d2e",
".Z c #96a6e4",
"#z c #96c96f",
"gw c #996922",
"#m c #99b3ff",
"cA c #9a6833",
".L c #9c7144",
".3 c #9cb3fe",
"bu c #9db343",
".n c #9e7444",
"aG c #9fb94e",
"bk c #a06a29",
"bh c #a17848",
"#k c #a2bbff",
"c3 c #a36924",
"#c c #a3dda8",
"b9 c #a47742",
"#l c #a4bdff",
"#b c #a4c24f",
"gA c #a5701d",
"bH c #a67d4a",
".J c #a6b2da",
"#j c #a7c0ff",
"#x c #a8e1ac",
"gO c #a96f21",
".K c #a9a094",
"fa c #aa6d24",
"fH c #ac6e21",
"#p c #ad8c5f",
".T c #add264",
"he c #ae741c",
"a2 c #aebc3f",
"ea c #b07835",
".t c #b09362",
".I c #b0c0ea",
"ca c #b36a24",
"#. c #b38041",
"#D c #b3b8bd",
".0 c #b5c6ff",
".5 c #b69761",
"g0 c #b77e25",
"#d c #b7d6a3",
"#n c #b8c2c7",
".o c #b9965a",
"gh c #bc7e23",
"gt c #bd812b",
".H c #bec7d2",
"fD c #c0872e",
"g4 c #c18224",
"bx c #c1c160",
"ga c #c28027",
"hc c #c28425",
"aW c #c38030",
".A c #c49f54",
"#H c #c4c9b9",
"gr c #c59645",
"#7 c #c5ab78",
".4 c #c5cbbc",
"aq c #c6ccb7",
"dL c #c89b57",
"fT c #c9852b",
"fB c #c98f38",
".B c #cac361",
"eR c #cb974b",
"bD c #cbc7a6",
".p c #ccad6c",
"#s c #ce9a47",
"aB c #cebe4b",
"gP c #cf8e2b",
".2 c #cfdcff",
"ds c #d08a25",
".s c #d0b670",
"hd c #d28f2a",
"gk c #d29432",
"gs c #d29b41",
".R c #d3a657",
"gX c #d48d24",
"bC c #d6cda1",
".1 c #d6e1ff",
"gm c #d79b3c",
".q c #d7bc79",
"aw c #d8a13c",
".r c #d8c07b",
"#B c #d9d176",
"aO c #d9d5a3",
"ab c #dac04d",
"#Z c #dad2a6",
"gL c #db9521",
"dp c #dbc07d",
"#h c #dbd0a5",
"#O c #dca446",
"gd c #dcac55",
"fK c #dda542",
"a. c #dea340",
"gI c #dea648",
"#5 c #dfe3ba",
"gW c #e19621",
"#e c #e2cd6c",
"gE c #e3a138",
"bS c #e3be55",
"ew c #e3c87f",
"a7 c #e4d275",
"eE c #e5641a",
"bW c #e5ca6c",
"f0 c #e69e2c",
"bK c #e6a92f",
".V c #e6d277",
"b. c #e6d695",
"cD c #e78422",
"gY c #e79e2d",
"cJ c #e96229",
"ei c #e9a632",
"g# c #e9b353",
"ak c #e9da9b",
"c9 c #ea591f",
"dS c #eb4716",
"ek c #eb9835",
"d. c #eba140",
"fG c #ebc268",
"f# c #ebcf82",
"c0 c #ebde9d",
"as c #ebe2a4",
"ch c #ec4c24",
"aJ c #ecda94",
"bn c #ed9d42",
"dO c #eda027",
"f5 c #edc063",
"aP c #ede9a9",
"dU c #ee8932",
"g9 c #eeaa3d",
"dx c #eebc44",
"bQ c #ef6c2e",
"bR c #efcc56",
"gU c #f0b958",
"#t c #f0d059",
"#X c #f0da83",
"g5 c #f1b952",
"#a c #f1d764",
".Y c #f1e39c",
"dT c #f2230b",
"c8 c #f3260c",
"ej c #f39530",
"gC c #f3af3d",
"c5 c #f47c1c",
"f4 c #f4c666",
"dw c #f51d0a",
"fA c #f5b036",
"ai c #f5d67f",
"#J c #f5f2b3",
"#f c #f6e385",
"eh c #f70301",
"dv c #f76519",
"eD c #f77c1c",
"fV c #f8cb6a",
"bX c #f8d97b",
".G c #f8efa8",
"c6 c #f90e02",
"ed c #f9ad2b",
"eF c #f9b935",
"aY c #f9ba41",
"g8 c #f9ce6f",
"e# c #f9efa7",
"g7 c #fae28e",
"bE c #faf1a6",
"cz c #faf5b4",
"bN c #fb847a",
"bl c #fba331",
"bp c #fba53e",
"eY c #fbba2f",
"ci c #fbd159",
"cK c #fbd259",
"g1 c #fbd87e",
"g. c #fbdb7f",
"cc c #fc732a",
"bO c #fc7563",
"bm c #fc7a73",
"f6 c #fcd475",
"g6 c #fce490",
"bc c #fcf2a2",
"aS c #fcfab8",
"cE c #fd1e12",
"bP c #fd5656",
"dR c #fd721c",
"bo c #fdb33a",
"c4 c #fdb526",
"eX c #fdb628",
"du c #fdc02c",
"bV c #fdd471",
"#C c #fded94",
"aQ c #fdfbb6",
"cd c #fe6969",
"bM c #feb2b0",
"gQ c #fec145",
"eH c #fec243",
"bq c #fec758",
"dy c #fecb4e",
"## c #fecc65",
"f3 c #fed064",
".C c #fee589",
"#g c #feec8d",
"eQ c #fef6aa",
"b8 c #fefdbb",
"c7 c #ff0000",
"cI c #ff0b15",
"cF c #ff181d",
"cH c #ff1d1e",
"cG c #ff1e1e",
"eg c #ff5213",
"cg c #ff6972",
"ce c #ff7c80",
"aX c #ff8026",
"cf c #ff8084",
"cb c #ff9027",
"gz c #ffaa18",
"gf c #ffab1b",
"fw c #ffac1c",
"fX c #ffac1e",
"ff c #ffad1e",
"bL c #ffad33",
"eV c #ffae1f",
"eB c #ffae20",
"fg c #ffae21",
"eW c #ffae22",
"gK c #ffaf19",
"fY c #ffaf21",
"fx c #ffaf24",
"ee c #ffb020",
"fh c #ffb126",
"dP c #ffb221",
"fy c #ffb32a",
"dt c #ffb423",
"gg c #ffb526",
"fZ c #ffb527",
"gV c #ffb52b",
"fi c #ffb52c",
"eA c #ffb52e",
"eC c #ffb625",
"fj c #ffb732",
"fz c #ffb830",
"eZ c #ffb834",
"eU c #ffb931",
"fW c #ffba32",
"dQ c #ffbb29",
"fk c #ffbc38",
"e0 c #ffbc3a",
"ef c #ffbd28",
"fe c #ffbd39",
"e1 c #ffbf3f",
"gR c #ffbf46",
"gJ c #ffc144",
"eG c #ffc23d",
"e2 c #ffc246",
"eI c #ffc248",
"fv c #ffc447",
"gy c #ffc448",
"fl c #ffc44b",
"ay c #ffc54c",
"eJ c #ffc54e",
"el c #ffc74b",
"em c #ffc74f",
"dW c #ffc751",
"aZ c #ffc84c",
"e3 c #ffc851",
"az c #ffc852",
"dz c #ffc853",
"eK c #ffc954",
"fp c #ffc955",
"en c #ffc956",
"ax c #ffca48",
"gD c #ffca50",
"gl c #ffcb51",
"f2 c #ffcb52",
"fo c #ffcb56",
"aa c #ffcb57",
"dA c #ffcb59",
"dV c #ffcc4d",
"a0 c #ffcc53",
"da c #ffcc5a",
"a# c #ffcd50",
"fL c #ffcd55",
"d# c #ffcd56",
"eo c #ffcd5c",
"cL c #ffce5d",
"dX c #ffce5e",
"dB c #ffce5f",
"gZ c #ffce60",
"a1 c #ffcf5c",
"aA c #ffcf5e",
"fM c #ffcf5f",
"g2 c #ffd05c",
"db c #ffd060",
"ep c #ffd062",
"cM c #ffd063",
"dY c #ffd064",
"bT c #ffd068",
"fq c #ffd163",
"dC c #ffd165",
"cj c #ffd261",
"e4 c #ffd264",
"ck c #ffd265",
"eL c #ffd267",
"dc c #ffd366",
"fm c #ffd367",
"eq c #ffd368",
"ge c #ffd466",
"cN c #ffd468",
"dZ c #ffd469",
"cl c #ffd46a",
"dD c #ffd46b",
"e5 c #ffd56b",
"#P c #ffd65e",
"eM c #ffd66c",
"dd c #ffd66d",
"fr c #ffd66f",
"cO c #ffd76e",
"d0 c #ffd770",
"e6 c #ffd870",
"dE c #ffd871",
"bU c #ffd872",
"fn c #ffd96d",
"fN c #ffd96e",
"cm c #ffd972",
"de c #ffd973",
"cP c #ffd974",
".S c #ffda73",
"er c #ffda74",
"fs c #ffda75",
"d1 c #ffda76",
"e7 c #ffdb76",
"dF c #ffdb78",
"df c #ffdc79",
"cn c #ffdd79",
"cQ c #ffdd7a",
"ft c #ffdd7b",
"d2 c #ffdd7c",
"fP c #ffde7a",
"co c #ffde7d",
"fQ c #ffdf7d",
"eN c #ffdf7e",
"dg c #ffdf7f",
"fO c #ffe07a",
"cR c #ffe080",
"es c #ffe081",
"d3 c #ffe082",
"gx c #ffe086",
"cp c #ffe182",
"e8 c #ffe183",
"dG c #ffe284",
"dh c #ffe285",
"bY c #ffe384",
"fE c #ffe385",
"cS c #ffe386",
"et c #ffe387",
"d4 c #ffe488",
"cq c #ffe489",
"f9 c #ffe588",
"by c #ffe589",
"aH c #ffe58a",
"bZ c #ffe58b",
"f7 c #ffe687",
"a8 c #ffe68a",
"di c #ffe68b",
"bz c #ffe68c",
"cT c #ffe68d",
"d5 c #ffe68e",
"f8 c #ffe789",
"cr c #ffe78e",
"dH c #ffe78f",
"aI c #ffe888",
"fR c #ffe88d",
"e9 c #ffe88f",
"eO c #ffe890",
"b0 c #ffe891",
".W c #ffe98f",
"dj c #ffe992",
"cU c #ffea93",
"d6 c #ffea94",
"a9 c #ffeb8a",
"aj c #ffeb8b",
"bB c #ffeb91",
"cs c #ffeb94",
"dI c #ffeb95",
"dk c #ffeb97",
".X c #ffec91",
"fS c #ffec94",
"b1 c #ffec96",
"bA c #ffed90",
"cV c #ffed99",
"d7 c #ffed9a",
"f. c #ffed9b",
"ct c #ffee9a",
"dJ c #ffee9b",
"eP c #ffee9d",
"dl c #ffef9e",
"cW c #ffef9f",
"eu c #fff09f",
"d8 c #fff0a0",
".D c #fff194",
"cu c #fff1a1",
"#Y c #fff28f",
"dm c #fff2a3",
".E c #fff39a",
"fF c #fff39e",
"cX c #fff3a5",
"b2 c #fff49b",
"d9 c #fff4a6",
"cv c #fff4a7",
"b4 c #fff5a9",
"dn c #fff5aa",
"b3 c #fff6a1",
"cY c #fff6ab",
"cw c #fff7ad",
".F c #fff89d",
"b5 c #fff8ae",
"do c #fff8af",
"cZ c #fff9b1",
"e. c #fffaaf",
"bF c #fffab1",
"cx c #fffab3",
"b6 c #fffbb4",
"bG c #fffcb7",
"dK c #fffdb7",
"ev c #fffeb2",
"be c #fffeb9",
"bg c #fffebc",
"bd c #ffffb3",
"cy c #ffffbb",
"b7 c #ffffbc",
"#o c #ffffbd",
"bf c #ffffbe",
"#I c #ffffbf",
"aR c #ffffc0",
"ar c #ffffc1",
"#6 c #ffffc6",
"QtQtQtQtQtQtQtQtQtQtQtQtQtQtQt.#.a.b.c.d.e.f.g.h.iQtQtQtQtQtQtQt",
"QtQtQtQtQtQtQtQtQtQtQtQt.j.k.l.m.n.o.p.q.r.s.t.u.v.w.jQtQtQtQtQt",
"QtQtQtQtQtQtQtQtQtQtQt.x.y.z.A.B.C.D.E.F.G.H.I.J.K.L.M.NQtQtQtQt",
"QtQtQtQtQtQtQtQtQt.O.P.Q.R.S.T.U.V.W.X.Y.Z.0.1.2.3.4.5.6.7QtQtQt",
"QtQtQtQtQtQtQtQt.8.9#.###a#b#c#d#e#f#g#h#i#j#k#l#m#n#o#p#q.jQtQt",
"QtQtQtQtQtQtQt.7#r#s#t#u#v#w#x#y#z#A#B#C#D#E#F#F#G#H#I#J#K#LQtQt",
"QtQtQtQtQtQt#M#N#O#P#Q#R#S#T#T#U#V#W#X#Y#Z#0#1#2#3#4#5#6#7#8.jQt",
"QtQtQtQtQt.i#9a.a#aaabacadaeafagahaiajakalam#2anaoapaqarasatauQt",
"QtQtQtQt.javawaxayazaAaBaCaDaEaFaGaHaIaJaKaLaMaNaOaPaQaRaSaTaUQt",
"QtQtQtQtaVaWaXaYaZa0a1a2a3a4a5a4a6a7a8a9b.b#babbbcbdbebfbgbhbiQt",
"QtQtQtbjbkblbmbnbobpbqbrbsbtbubvbwbxbybzbAbBbCbDbEbFbGbfbgbHbIQt",
"QtQtQtbJbKbLbMbNbObPbQbRbSbTbUbVbWbXbYbZb0b1b2b3b4b5b6b7b8b9c.Qt",
"QtQtc#cacbcccdcecfcgchcicjckclcmcncocpcqcrcsctcucvcwcxcyczcAcBQt",
"QtQtcCcDcEcFcGcGcHcIcJcKcLcMcNcOcPcQcRcScTcUcVcWcXcYcZ#oc0c1c2Qt",
"Qt.jc3c4c5c6c7c7c8c9d.d#dadbdcdddedfdgdhdidjdkdldmdndobfdpdq.jQt",
"Qtdrdsdtdudvc7c7dwdxdydzdAdBdCdDdEdFcodGcqdHdIdJcucvb5dKdLdM.jQt",
"QtdNdOdPdQdRc7dSdTdUdVdWaadXdYdZd0d1d2d3d4d5d6d7d8d9e.e#eaebQtQt",
"QtecedeeefegeheiejekelemeneoepeqcOercQesetbzdjcVeud9evewexeyQtQt",
"QtezeAeBeCeDeEeFeGeHeIeJeKdaepeLeMdedFeNdGaHeOb1ePd9eQeReS.jQtQt",
"QteTeUeVeWeXeYeZe0e1e2aye3dAepe4e5e6e7coe8cqe9dIf.d9f#fafbQtQtfc",
"QtfdfefffgfhfifjfkflfmfnfofpepfqdZfrfsftese9e9e9e9f#fafafbfcfcfc",
"QtfufvfwfgfxfyfzfAfBfCfDfge6epe6e6e6e6e6e6fEbZcUfFfGfHfIQtQtQtQt",
"fcfufwfgfgfgfgfgfgfCfCfJfKfLepfMfNfOfPcQfQdGfRfSfGfT.j.jQtQtQtQt",
"QtfUfVfWfXfYfZf0f1.jQt.jfDf2epf3f4f5f6f7f8f9g.g#gagbfcQtQtQtQtQt",
"QtgcgdgegfeBggghgiQtQtgjgkglepgmgngogpgqgrgsgtgugv.jfcQtQtQtQtQt",
"Qt.jgwgxgygzeCgA.jQtQtgBgCgDgEgn.j.j.j.jeygFgG.j.jQtfcQtQtQtfcfc",
"QtQtgHgIb1gJgKgLgMgNgOgPgQgRgS.jQtQtQtQtQtfcfcfcfcfcfcfcfcfcfcQt",
"QtQt.jgTgUd8gegVgWgXgYgYgZg0.jfcfcfcfcfcfcfcQtQtQtQtQtfcQtQtQtQt",
"fcfcfc.jgTgUd8g1g1g1g1g2gZg0.jfcQtQtQtQtQtQtQtQtQtQtQtfcQtQtQtQt",
"QtQtQtQt.jg3g4g5g1g6g7g8g9h..jfcQtQtQtQtQtQtQtQtQtQtQtfcQtQtQtQt",
"QtQtQtQtQtQth#hahbhchdhehf.jQtfcQtQtQtQtQtQtQtQtQtQtQtfcfcQtQtQt",
"QtQtQtQtQtQtQt.j.jc2hg.j.jQtQtfcfcQtQtQtQtQtQtQtQtQtQtQtfcQtQtQt"};
