/* XPM */
static char *redraw[]={
"32 32 330 2",
"Qt c None",
".i c #000000",
".b c #000000",
"cn c #000000",
".h c #000000",
"ct c #000000",
".q c #000000",
"#V c #000000",
"bB c #000000",
"ci c #000000",
"bA c #000000",
"bz c #000000",
"cc c #000000",
"cb c #000000",
".B c #000000",
"a8 c #000000",
".1 c #000000",
"cm c #000000",
"#A c #000000",
"cv c #000000",
"ae c #000000",
"aL c #000000",
"da c #000000",
"cw c #000000",
"bw c #000000",
".M c #000000",
"ca c #000000",
"cU c #000000",
"bv c #000000",
"#B c #000000",
"bS c #010101",
"a9 c #000000",
"cx c #000000",
".C c #000000",
"bq c #000000",
"cL c #000000",
"cM c #010101",
".c c #000000",
"db c #000000",
"bx c #000000",
"bE c #010101",
"#h c #000000",
"#i c #000000",
"bO c #000000",
"ax c #000000",
"#7 c #000000",
"b1 c #000000",
".0 c #000000",
"cf c #050505",
"cl c #000000",
"b. c #000000",
"bh c #000000",
".3 c #000000",
"bR c #000000",
"c# c #000000",
"b0 c #000000",
".a c #000000",
"br c #000000",
".g c #000000",
"bZ c #000000",
"co c #000000",
".4 c #010101",
"cH c #000000",
"b8 c #030303",
"cI c #000000",
"cN c #010101",
".2 c #000000",
".# c #000000",
"cq c #040404",
"cJ c #000000",
"a# c #000000",
"cB c #020202",
".p c #000000",
"cK c #000000",
"cy c #000000",
"aY c #000000",
"ce c #010101",
"bY c #000000",
"dh c #010101",
"cT c #010101",
"bi c #000000",
"bp c #060606",
"af c #000000",
"b2 c #000000",
"bF c #000000",
".A c #000000",
"#U c #000000",
"by c #000000",
"aw c #000000",
"cu c #000000",
".r c #000000",
"cV c #000000",
"ck c #030303",
"a7 c #000000",
"bs c #000000",
"d# c #010101",
"cz c #000000",
"cG c #000000",
"dg c #000000",
"bX c #000000",
"#8 c #000000",
"cO c #020202",
".L c #000000",
"cA c #000000",
"bG c #000000",
"bT c #020202",
"df c #010101",
"b5 c #000000",
"aZ c #000000",
"c0 c #000000",
"b3 c #000000",
"c1 c #000000",
"aG c #0c0c0c",
"bj c #010101",
"cZ c #000000",
"#W c #010101",
"c. c #020202",
"de c #010101",
"bW c #000000",
"c2 c #000000",
"#L c #000000",
".Z c #000000",
"ch c #020202",
"bH c #000000",
"an c #000000",
"dd c #000000",
"bP c #030303",
"aX c #000000",
"bN c #000000",
"b# c #000000",
"c3 c #020202",
"dc c #000000",
"bD c #010101",
"cp c #030303",
"bC c #000000",
"d. c #020202",
"bI c #000000",
"#M c #040404",
"cP c #040404",
"cd c #030303",
"cE c #050505",
"b7 c #070707",
"bJ c #000000",
"cY c #000000",
"c4 c #020202",
"bV c #000000",
"bK c #000000",
"bM c #000000",
"bU c #010101",
"bL c #000000",
"cS c #040404",
".j c #1b1b1b",
".f c #000000",
"a0 c #010101",
".N c #050505",
"a. c #050505",
"aj c #0a0a0a",
"bk c #060606",
"aM c #070707",
"cC c #0a0a0a",
"b4 c #000000",
"cF c #000000",
"c5 c #010101",
"#C c #060606",
".o c #010101",
"c9 c #040404",
"#z c #000000",
"ba c #050505",
"ad c #000000",
"cs c #0b0b0b",
"aK c #000000",
"b9 c #050505",
"cj c #080808",
"cX c #000000",
".z c #020202",
"bo c #040404",
"cW c #000000",
"c6 c #030303",
"#j c #070707",
"bt c #101010",
"at c #000000",
"c8 c #030303",
"a1 c #0a0a0a",
"aB c #000000",
".K c #050505",
"aT c #000000",
"aU c #0a0a0a",
"cQ c #060606",
"aC c #0c0c0c",
"aa c #1c1c1c",
"c7 c #020202",
"ak c #101010",
".5 c #060606",
"bf c #080808",
"ao c #171717",
"b6 c #1a1a1a",
"bl c #050505",
"ay c #242424",
"cR c #080808",
"#g c #0a0a0a",
"be c #000000",
"bn c #000000",
"ai c #040404",
"as c #020202",
"#0 c #0e0e0e",
"#6 c #030303",
".D c #484848",
"aF c #030303",
"bQ c #0a0a0a",
".Y c #0c0c0c",
"aN c #111111",
"bb c #151515",
"bg c #040404",
"aH c #060606",
"bm c #000000",
"cr c #171717",
"a5 c #1c1c1c",
"aI c #242424",
"a4 c #0b0b0b",
".d c #343434",
"#f c #252525",
"ag c #1f1f1f",
"au c #282828",
"a2 c #191919",
"cD c #0f0f0f",
"#Z c #585858",
"bu c #121212",
"aA c #191919",
"#9 c #242424",
"aS c #1d1d1d",
"#e c #1f1f1f",
"cg c #212121",
"aV c #3d3d3d",
"aD c #464646",
"al c #4d4d4d",
".n c #0c0c0c",
"#T c #0e0e0e",
"av c #0d0d0d",
"aO c #242424",
"bc c #292929",
"a6 c #121212",
".y c #131313",
".e c #141414",
"bd c #151515",
".m c #1c1c1c",
"#K c #202020",
"aW c #242424",
".6 c #262626",
".x c #292929",
"#k c #2a2a2a",
"#D c #2b2b2b",
"a3 c #2d2d2d",
".F c #323232",
".l c #333333",
".u c #363636",
".J c #373737",
"ac c #383838",
"aJ c #393939",
".w c #3a3a3a",
".P c #3b3b3b",
"#d c #3c3c3c",
".v c #3f3f3f",
".Q c #424242",
".G c #434343",
"ar c #444444",
".7 c #454545",
"#l c #464646",
".R c #474747",
".X c #484848",
".H c #494949",
".8 c #4a4a4a",
".S c #4b4b4b",
"#1 c #4c4c4c",
".I c #4d4d4d",
"#m c #4e4e4e",
".9 c #4f4f4f",
"#5 c #505050",
".T c #515151",
"#n c #535353",
"az c #545454",
"#. c #555555",
".t c #565656",
".U c #575757",
"#o c #585858",
".W c #595959",
".O c #5a5a5a",
"#E c #5b5b5b",
".V c #5c5c5c",
"ap c #5d5d5d",
"#p c #5e5e5e",
"## c #5f5f5f",
"aP c #606060",
"#F c #616161",
"#q c #636363",
"#a c #656565",
"#G c #666666",
"aq c #676767",
"#r c #686868",
"#c c #696969",
"#b c #6a6a6a",
"#s c #6c6c6c",
"aQ c #6d6d6d",
"#N c #6e6e6e",
"#w c #6f6f6f",
".s c #707070",
"#t c #717171",
"#O c #727272",
"#X c #737373",
"#x c #747474",
"#u c #757575",
"#v c #767676",
".E c #777777",
"aR c #787878",
"aE c #797979",
"#H c #7a7a7a",
"ah c #7b7b7b",
"#Q c #7d7d7d",
"#y c #7e7e7e",
"#J c #7f7f7f",
"#I c #808080",
"#R c #818181",
"ab c #828282",
".k c #838383",
"#3 c #848484",
"#S c #858585",
"#4 c #868686",
"#2 c #878787",
"am c #888888",
"#P c #8c8c8c",
"#Y c #9b9b9b",
"QtQtQt.#.a.bQtQtQtQtQtQtQtQtQtQtQtQtQtQtQtQtQtQtQtQtQtQtQtQtQtQt",
"QtQt.c.d.e.f.g.hQtQtQtQtQtQtQtQtQtQtQtQtQtQtQtQtQtQtQtQtQtQtQtQt",
"Qt.i.j.k.l.m.n.o.p.qQtQtQtQtQtQtQtQtQtQtQtQtQtQtQtQtQtQtQtQtQtQt",
"Qt.r.s.t.u.v.w.x.y.z.A.BQtQtQtQtQtQtQtQtQtQtQtQtQtQtQtQtQtQtQtQt",
".C.D.E.F.v.G.H.I.H.J.m.K.L.MQtQtQtQtQtQtQtQtQtQtQtQtQtQtQtQtQtQt",
".N.O.v.P.Q.R.S.T.U.V.W.X.x.Y.Z.0.1.2.3QtQtQtQtQtQtQtQtQtQtQtQtQt",
".4.5.6.v.7.8.9#..O###a#b#c.W#d#e#f.G#g#hQtQtQtQtQtQtQtQtQtQtQtQt",
"Qt#i#j#k#l#m#n#o#p#q#r#s#t#u#v#w#x#y.u#z#AQtQtQtQtQtQtQtQtQtQtQt",
"QtQt#B#C#D.I.U#E#F#G#s.s#x#v#H#I#J#I#x#K#L.iQtQtQtQtQtQtQtQtQtQt",
"QtQtQt#A#M#D#n###q#r#N#O#u#I#P#v#Q#R#S#G#T#UQtQtQtQtQtQtQtQtQtQt",
"QtQtQtQt#V#W.x#o#G#b#w#X.E#Y#Z#0#1#2#3#4#5#6#7QtQtQtQtQtQtQtQtQt",
"QtQtQtQtQt.b#8#9#E#s#w#X#Q#ra.a#aa#X#2#4abacadaeQtQtQtQtQtQtQtQt",
"QtQtQtQtQtQtQtafag#E.s#Xah#5aiajadakal#Qam.E#Kan.bQtQtQtQtQtQtQt",
"QtQtQtQtQtQtQtQt.gao.U#O#u#Xapaqarasatauaq#S#aavawQtQtQtQtQtQtQt",
"QtQtQtQtQtQtQtQtQtaxay.s#u#v#H#QahazaAaBaCaDaE#5aF.0QtQtQtQtQtQt",
"QtQtQtQtQtQtQtQtQtQtaG.T#a.s.EaEah#Q#s.JaHataI##aJaKaLQtQtQtQtQt",
"QtQtQtQtQtQtQtQtQtQt.caMaNaO.w.TaPaQaRaE#oaSaTaUaVaWaX.bQtQtQtQt",
"QtQtQtQtQtQtQtQtQtQtQt.1#haYaZa0a1a2a3ar#E#p.Pa4ata5a6a7QtQtQtQt",
"QtQtQtQtQtQtQtQtQtQtQtQtQtQt.ba8a9b.a7b#babbbca3bdbebfbgbhQtQtQt",
"QtQtQtQtQtQtQtQtQtQtQtQtQtQtQtQtQtQt.i.hae#ibibjbkblbmbnbobp.qQt",
"QtQtQtQtQtQtQtQtQtQtQtQtQtQtQtQtQtQtQtQtQtQtQtQt.BbqbrbsbtbuaxQt",
"QtQtQtQtQtQtQtQtQtQtQtQtQtQtQtQtQtQtQtQtQtQtQtQtQtbvb.bwbxby.CQt",
"QtQtQtQtQtQtQtQtQtQtQt.i.qbz.B.BbA.hQtQtQtQtQtQtQtbB.abCbDbEQtQt",
"QtQtQtQtQtQtbB#hbFbGbHbIbJbKbLbLbMbJbN.LbOQtQtQtQtQtQta8bPbQbRQt",
"QtQtQtQtbSbTbUbVbWbXbYbZb0bhb1.0.3.gb2b3b4b5#VQtQtQtQtQtbBb6b7.h",
"QtQtQtb8b9c.c#ca.q.Bcb.B#VQtQtQtQtQtQtQtcccdceQtQtQtQtQtcfcgchci",
"QtQt.qcjck.B.h.bb0cl.CcmcnQtQtQtQtQtQtbAcocpb0.iQtQtQtcqcrcsbhct",
"QtQtQtbU#L#VQtcncubYbvcvaLaLcwcx.0cyczb5cA.c.bQtcccBcCcDcEbhciQt",
"QtQtQta9cF#zcGbqcv#hcHcHcIcJcK.p.#brclcLcMcNcOcPcQcRcScTcU.qQtQt",
"QtQtQtQta8cV.fcWcXcYaXcZb3c0c1c2c3c4c5c6c7c8c9d.d#b.da.q.iQtQtQt",
"QtQtQtQtQtQtcidb.#cGb3bHb#dcdcdddedfdgdh.abOcUcbct.iQtQtQtQtQtQt",
"QtQtQtQtQtQtQtQtQtQt.h.qbBcicibB#V.q.h.iQtQtQtQtQtQtQtQtQtQtQtQt"};
