/* XPM */
static char *reference_poly[]={
"32 32 184 2",
"Qt c None",
".x c #000000",
"aU c #000923",
"aR c #000b25",
"aS c #002175",
"aX c #02277d",
"aB c #022b9f",
"aY c #022d9b",
"a1 c #031120",
"aV c #040a13",
".v c #050500",
"aQ c #050d1c",
"aC c #06309b",
"aG c #06319d",
"aH c #09369a",
".w c #0b0900",
"aA c #0c3697",
"aZ c #1047a3",
".q c #110e02",
".1 c #1671c5",
".k c #171200",
"aK c #1771c4",
".I c #1791e6",
".H c #188be3",
"aP c #192e5e",
"az c #1a3991",
"au c #1b8bda",
"#h c #1b8cdc",
".r c #1c1603",
"aW c #1c3573",
".2 c #1e67b9",
"#6 c #226abb",
"a0 c #256bb2",
"aD c #264281",
"aO c #26428b",
"aF c #273f6c",
"aT c #29385e",
"aI c #2e2e47",
".0 c #2e4a67",
"aJ c #334856",
"av c #337bbe",
"an c #41362c",
"#g c #41372e",
"ar c #433226",
"ah c #448bc7",
"#F c #463125",
"#z c #473226",
"#q c #493428",
"ap c #4b3525",
"aE c #4b423c",
"am c #4f4134",
"#a c #523b2d",
".S c #574034",
".g c #58470d",
"as c #594d40",
"ao c #5a3d29",
".l c #5b4c0e",
"at c #5d4d3e",
".E c #5e4f00",
"ay c #5e4f41",
"aN c #606267",
"aq c #61412e",
"al c #635242",
".f c #685705",
".e c #695518",
"aM c #6d5e4c",
"aL c #6f5e4e",
"ak c #726253",
".c c #7e6a00",
".h c #7e6b13",
"ax c #847261",
".Z c #877464",
"ag c #887665",
".J c #928fb0",
".p c #957258",
"#1 c #95827c",
"#R c #997c6e",
"#2 c #998884",
"ab c #9a8989",
"#K c #9b7a5c",
".U c #9c8173",
"#A c #9d7f66",
"#E c #9e795d",
"#y c #9e7c5d",
"#p c #9f7d5e",
"ac c #9f8c88",
"aa c #a08a83",
"#G c #a17f64",
"#r c #a1846e",
"## c #a27f5f",
".R c #a68267",
"#b c #a68973",
".T c #a68a77",
"aj c #a89483",
"#W c #a8948d",
"ad c #ac9895",
".d c #ae981f",
"#3 c #ae9c95",
"#0 c #af9b98",
"aw c #b09f91",
"#V c #b19f98",
".s c #b29887",
"#P c #b8a7a1",
"#d c #b9a6a2",
"ae c #b9a9a2",
".o c #bba494",
"#x c #bca291",
"#. c #bda392",
"#M c #bfaeaa",
".W c #c0b1ab",
".C c #c7b9b0",
".5 c #c8b9b3",
"#S c #c9bab4",
"#U c #cbbbb4",
"#C c #cdbfb8",
"#B c #cec0b9",
".A c #cfc1ba",
".D c #d0c2bb",
"#j c #d1c4bc",
"#c c #d2bcab",
"#4 c #d2c6bf",
"#n c #d3c4be",
"#Q c #d4c8c1",
".F c #d5c8c0",
".n c #d7cbc8",
".P c #d8cac3",
"af c #d8cdc5",
".Q c #d9c4b2",
"#u c #d9cec6",
".K c #d9d5da",
"#o c #dac5b3",
".9 c #daccc7",
".V c #dacec7",
"#L c #dad1d1",
"#D c #dbc5b4",
".t c #dbcbbc",
".O c #dbd3d0",
"#t c #dcd2cb",
"#l c #ddd3ce",
"#m c #ddd4d4",
"#N c #ded3cd",
".N c #ded5d3",
"#k c #e0d6cf",
"ai c #e0d7d3",
"#s c #e0d9d9",
".m c #e1d8d0",
".X c #e1dada",
".6 c #e2dcd7",
".y c #e3dad2",
".M c #e3dad4",
"#e c #e4dbd3",
"#7 c #e4dedb",
"#f c #e5ddd4",
"#v c #e6ddd7",
".Y c #e6ded5",
"#H c #e6dfdd",
".3 c #e6dfdf",
"#5 c #e7dfd6",
".B c #e7dfd8",
"#X c #e7dfda",
"#O c #e7e0de",
"#J c #e8e2df",
"#9 c #ebe7e2",
"#i c #ece4df",
"#8 c #ece7df",
".i c #ede6de",
"a# c #efe7e0",
"#Z c #f0e7e1",
".G c #f0ebe7",
"#I c #f0ece7",
"#w c #f0ede9",
".a c #f1ede8",
".u c #f1eee8",
".7 c #f1eeea",
".j c #f3f0ec",
".8 c #f3f0f0",
".L c #f6f3ef",
".4 c #f6f4f1",
"#T c #f6f5ef",
"a. c #f6f5f1",
".# c #f8f7f1",
"#Y c #fafaf7",
".z c #ff00ff",
".b c #ffffff",
"QtQtQtQtQtQtQtQtQtQtQtQtQtQtQtQtQtQtQtQtQtQtQtQtQtQtQtQtQtQtQtQt",
"QtQtQtQtQtQtQtQtQtQtQtQtQtQtQtQtQtQtQtQtQtQtQtQtQtQtQtQtQtQtQtQt",
"QtQtQtQtQtQtQtQtQtQtQtQtQtQtQtQtQtQtQtQtQtQtQtQtQtQtQtQtQtQtQtQt",
"QtQtQtQtQtQtQtQtQtQtQtQtQtQtQtQtQtQtQt.#.#.aQtQtQtQtQtQtQtQtQtQt",
"QtQtQtQtQtQtQtQtQtQtQtQtQtQtQtQtQtQt.a.#.b.a.a.cQtQtQtQtQtQtQtQt",
"QtQtQtQtQtQtQtQtQtQt.d.e.f.g.g.hQt.i.j.#.b.a.a.k.cQtQtQtQtQtQtQt",
"QtQtQtQtQtQtQtQt.d.l.m.n.o.p.q.r.s.t.u.#.b.a.a.v.w.xQtQtQtQtQtQt",
"QtQtQtQtQtQt.d.l.y.z.z.z.z.z.z.z.z.z.z.z.z.A.B.C.D.x.xQtQtQtQtQt",
"QtQtQtQt.x.E.F.m.z.z.z.z.z.z.z.z.z.z.z.z.z.z.a.A.G.H.I.x.xQtQtQt",
"QtQtQt.x.J.K.L.z.z.M.N.O.P.Q.R.S.T.U.V.W.X.z.z.A.Y.Z.0.1.xQtQtQt",
"QtQt.x.2.3.4.z.z.5.6.7.8.9#.###a#b#c#d#e.b.a.z.z#f.Z#g#h.xQtQtQt",
"QtQt.x.2#i.z.z#j.B#k#l#m#n#o#p#q#r.U.V.W#s.A.B.z.z.Z#g.I.xQtQtQt",
"QtQt.x.2.z.z#t#u.5#v#w.8.9#x#y#z#A#c#d#e.b.a.a#B.z.z#g.I.xQtQtQt",
"QtQt.x.z.z.4#C#j.B#k#l#m#n#D#E#F#G.U.V.W#s.A.B#B#f.z.z.I.xQtQtQt",
"QtQt.z.z#H#I#t#u.5#v#w.8.9#.#E#F#G#c#d#e.b.a.a#B#f.Z.z.z.xQtQtQt",
"Qt.z.z.2#J.4#C#j.B#k#l#m#n.Q#K#F#G.U.V.W#L#M#N#B#f.Z#g.z.zQtQtQt",
"Qt.z.z.2#O#I#t#u.5#v#w.8.9#.#K#F#G#c#P#Q.b.a.a#B#f.Z#g.I.z.zQtQt",
"Qt.z.z.2#O.4#C#j.B#k#l#m#n#D#K#F#G#R#S#T.#.a.D#B#f.Z#g.I.x.z.zQt",
"Qt.z.z.2#H#I#t#u.5#v#w.8.9#.#K#F#G#c.a.##U#V#W.A.Y.Z#g.I.x.z.zQt",
"Qt.z.z.2#X.4#C#j.B.4#Y.b#Z#D#K#F#G#c.a#0#1#2#3#4#5.Z#g.I.x.z.zQt",
"Qt.z.z#6#7#I#t#8#9a.#Y.ba##D#E#F#G#caaabacadaeaf.Bag#g.I.x.z.zQt",
"Qt.z.z.z.z.z.z.z.z.z.z.z.z.z.z.z.z.z.z.z.z.z.z.z.z.z.z.z.z.z.zQt",
"Qt.z.z.z.z.z.z.z.z.z.z.z.z.z.z.z.z.z.z.z.z.z.z.z.z.z.z.z.z.z.zQt",
"QtQt.xahaiajakalam#g#g#g#ganaoapaq#g#g#g#g#garasatag#gau.xQtQtQt",
"QtQt.xavawaxay#g#gazaAaBaBaCaDaEaFaGaBaBaHazaI#g#g#gaJaK.xQtQtQt",
"QtQt.x.2aLaM#gaNaOaPaQ.x.xaRaSaTaBaU.x.xaVaWaOaXaYaZa0.I.xQtQtQt",
"QtQt.x.2.2.2.2.2a1.x.x.x.x.x.x.x.x.x.x.x.x.x.x.x.x.x.x.x.xQtQtQt",
"QtQt.x.x.x.x.x.x.x.xQtQtQtQt.x.x.x.xQtQtQtQt.x.x.x.x.x.x.xQtQtQt",
"QtQt.x.x.x.x.xQtQtQtQtQtQtQtQtQtQtQtQtQtQtQtQtQtQtQtQtQtQtQtQtQt",
"QtQtQtQtQtQtQtQtQtQtQtQtQtQtQtQtQtQtQtQtQtQtQtQtQtQtQtQtQtQtQtQt",
"QtQtQtQtQtQtQtQtQtQtQtQtQtQtQtQtQtQtQtQtQtQtQtQtQtQtQtQtQtQtQtQt",
"QtQtQtQtQtQtQtQtQtQtQtQtQtQtQtQtQtQtQtQtQtQtQtQtQtQtQtQtQtQtQtQt"};
