/* XPM */
static char *reference_poly_cursor[]={
"32 32 14 1",
"# c None",
"a c #000000",
"i c #e7e0de",
"d c #e9e1d8",
"h c #eae4e1",
"l c #ebe5e2",
"k c #ebe7e3",
"j c #ede8e4",
"e c #ede8e5",
"f c #ede9e6",
"g c #eeeae6",
"c c #f7f4f2",
"b c #f9f8f4",
". c #ffffff",
"...#############################",
".aa..###########################",
".aaaa..#########################",
"#.a..aa..#######################",
"#.a....aa.######################",
"##.a.....a.#####################",
"##.a...a..a.####################",
"###.a.aaa..a.###################",
"###.aaaaaa..a.##################",
"####.aaaaaa..a.#################",
"#####.aaaaaa..#########..#######",
"######.aaaaa.#########.aa.######",
"#######.aaa.####....#.a..a.#####",
"########.a.###..aaaa.a.bc.a.####",
"#########.###.aa....a.d..aaa...#",
"############.a.....aa.a.....aa.#",
"##########..a...a...aa...a.a.a.#",
"##########.a..a....aa.......aa.#",
"##########.aae..a...aa...a.aaa.#",
"##########.a.fa....aa.a.....aa.#",
"##########.aag..a...aa...a.a.a.#",
"##########.a.ha....aa.......aa.#",
"##########.aai..a...aa...a.aaa.#",
"##########.a.ja....aa.a.....aa.#",
"##########.aak..a...aa...a.a.a.#",
"##########.a.la..aaaa.a.....aa.#",
"##########.aa..aa...aa...a.aaa.#",
"##########.a.aa.aaaaa.aaa...aa.#",
"##########.aa.aaaaaaaaaaaaaaaa.#",
"##########.aaaa................#",
"##########.....#################",
"################################"};
