/* XPM */
static char *restore_poly[]={
"32 32 97 2",
"Qt c None",
".# c #000000",
".k c #00c0c0",
".s c #00ffff",
".y c #1b1b1b",
".b c #2b2b2b",
".d c #2e2e2e",
".r c #312a29",
".a c #444444",
".U c #454545",
".0 c #505050",
"#E c #525252",
".q c #595959",
"#f c #5f5f5f",
".B c #696969",
"#t c #6d6d6d",
".i c #6f6b6a",
".Q c #706967",
".4 c #717171",
".I c #787878",
".K c #7d7d7d",
"#e c #7f7f7f",
".J c #828282",
"#s c #868686",
"#B c #8b8b8b",
".j c #8e8e8e",
".6 c #929292",
".P c #939393",
"## c #999999",
"#D c #9c9c9c",
"#w c #9d9d9d",
"#d c #9e9e9e",
"#C c #9f9f9f",
".Z c #a2a2a2",
".l c #a7a7a7",
"#u c #a9a9a9",
".3 c #acacac",
"#a c #adadad",
".C c #afafaf",
".7 c #b0b0b0",
".A c #b2b2b2",
"#y c #b3b3b3",
".m c #b9b9b9",
".f c #bababa",
".X c #bbbbbb",
"#m c #bcbcbc",
"#l c #bebebe",
".Y c #c0c0c0",
".R c #c0ffff",
".8 c #c1c1c1",
".5 c #c3c3c3",
"#c c #c5c5c5",
".H c #c6c6c6",
".F c #c7c7c7",
"#r c #c8c8c8",
"#b c #c9c9c9",
".p c #cacaca",
".w c #cbcbcb",
"#x c #cccccc",
"#A c #cdcdcd",
".O c #cecece",
".t c #cfcfcf",
"#. c #d1d1d1",
".S c #d2d2d2",
"#q c #d3d3d3",
".u c #d4d4d4",
"#z c #d5d5d5",
".x c #d7d7d7",
".N c #d8d8d8",
".z c #d9d9d9",
".W c #dadada",
".g c #dbdbdb",
"#k c #dcdcdc",
".2 c #dddddd",
".E c #dfdfdf",
".M c #e0e0e0",
"#n c #e1e1e1",
".h c #e4e4e4",
".D c #e5e5e5",
"#j c #e6e6e6",
".V c #e7e7e7",
"#g c #e8e8e8",
".n c #e9e9e9",
".L c #eaeaea",
"#h c #ebebeb",
"#v c #ececec",
"#o c #ededed",
".c c #eeeeee",
".o c #efefef",
".v c #f0f0f0",
".G c #f2f2f2",
"#i c #f3f3f3",
"#p c #f5f5f5",
".T c #f6f6f6",
".9 c #f8f8f8",
".1 c #f9f9f9",
".e c #ff00ff",
"QtQtQtQtQtQtQtQtQtQtQt.#.#QtQtQtQtQtQtQtQtQtQtQtQtQtQtQtQtQtQtQt",
"QtQtQtQtQtQtQtQtQtQt.#Qt.#.#QtQtQtQtQtQtQtQtQtQtQtQtQtQtQtQtQtQt",
"QtQtQtQtQtQtQtQtQtQt.#QtQt.#QtQtQtQtQtQtQtQtQtQtQtQtQtQtQtQtQtQt",
"QtQtQtQtQtQtQtQtQtQt.#QtQt.#QtQtQtQtQtQtQtQtQtQtQtQtQtQtQtQtQtQt",
"QtQtQtQtQtQtQtQtQtQt.#QtQt.#QtQtQtQtQtQtQtQtQtQtQtQtQtQtQtQtQtQt",
"QtQtQtQtQtQtQtQtQtQt.#.a.b.#QtQtQtQtQtQtQtQtQtQtQtQtQtQtQtQtQtQt",
"QtQtQtQtQtQtQtQtQtQt.a.a.c.#.dQtQtQtQtQtQtQtQtQtQtQtQtQtQtQtQtQt",
"QtQtQtQtQtQtQtQtQt.e.e.e.e.e.e.e.e.e.e.e.eQtQtQtQtQtQtQtQtQtQtQt",
"QtQtQtQtQtQtQtQt.e.e.e.e.e.e.e.e.e.e.e.e.e.eQtQtQtQtQtQtQtQtQtQt",
"QtQtQtQtQtQtQt.e.e.f.g.g.h.#.i.j.a.a.k.k.k.e.e.kQtQtQtQtQtQtQtQt",
"QtQtQtQtQtQt.e.e.f.g.g.h.h.#.i.l.j.a.a.k.k.k.e.e.k.kQtQtQtQtQtQt",
"QtQtQtQtQt.e.e.m.g.g.h.n.o.#.i.l.p.j.q.r.k.s.s.e.e.k.kQtQtQtQtQt",
"QtQtQtQt.e.e.t.u.g.g.h.c.v.#.i.t.w.g.x.y.a.k.s.s.e.e.k.kQtQtQtQt",
"QtQtQt.e.e.w.g.g.g.h.o.z.A.#.B.C.n.D.E.F.i.a.k.s.s.e.e.s.kQtQtQt",
"QtQt.e.e.f.g.g.g.h.h.G.H.I.#.J.K.L.M.N.O.P.Q.a.k.s.R.e.e.s.kQtQt",
"Qt.e.e.S.g.g.g.h.h.G.T.A.#.D.#.U.V.W.O.X.Y.Z.#.#.k.k.R.e.e.kQtQt",
".0.e.e.g.g.g.h.h.G.G.1.2.3.#.4.Y.S.5.6.7.X.8.Y.#.#.#.k.R.e.e.kQt",
".r.e.e.g.g.g.h.G.G.G.9.n#.###a.w#b.6.m#c.7#d#e#f.#.#.k.k.R.e.eQt",
".#.e.e.D#g#h.G.T.9.1.T#i.o#j#k.S.6#l#m.t#d.#.#.#.#.#.k.k.R.e.eQt",
"Qt.e.e.F#n.v#o.G#p#p.v#h#j#q#r.6.F.t.O#s.#.#QtQtQtQt.k.k.R.e.eQt",
"Qt.e.e#t#u.z#v.n#g#h#j.M.N#c.6.H#q.X#w.#.#QtQtQtQtQt.k.k.s.e.eQt",
"Qt.e.e.e.e.e.e.e.e.e.e.e.e.e.e.e.e.e.e.e.e.e.e.e.e.e.e.e.e.e.eQt",
"Qt.e.e.e.e.e.e.e.e.e.e.e.e.e.e.e.e.e.e.e.e.e.e.e.e.e.e.e.e.e.eQt",
"QtQtQtQtQt.##t.M.O.p.5.6#x#x#x#s.#.#QtQtQtQtQtQtQtQt.k.k.s.s.kQt",
"QtQtQtQtQtQt.##t.p.5.6#x#x#x#s.#.#QtQtQtQtQtQtQtQtQt.k.k.s.s.kQt",
"QtQtQtQtQtQtQt.##t#y.S#z#A.P.#.#QtQtQtQtQtQtQtQtQtQt.k.k.s.s.kQt",
"QtQtQtQtQtQtQtQt.##t#B#C#D.#.#QtQtQtQtQtQtQtQtQtQtQt.k.k.s.s.kQt",
"QtQtQtQtQtQtQtQtQt.##E#f.#.#QtQtQtQtQtQtQtQtQtQtQtQt.k.k.s.s.kQt",
"QtQtQtQtQtQtQtQtQtQt.#.#.#QtQtQtQtQtQtQtQtQtQtQtQtQt.k.k.s.s.kQt",
"QtQtQtQtQtQtQtQtQtQtQtQtQtQtQtQtQtQtQtQtQtQtQtQtQtQt.k.k.s.s.kQt",
"QtQtQtQtQtQtQtQtQtQtQtQtQtQtQtQtQtQtQtQtQtQtQtQtQtQtQt.k.s.k.kQt",
"QtQtQtQtQtQtQtQtQtQtQtQtQtQtQtQtQtQtQtQtQtQtQtQtQtQtQt.k.k.kQtQt"};
