/* XPM */
static char *selected[]={
"32 32 46 1",
"# c None",
". c None",
"w c #080808",
"v c #030303",
"L c #040404",
"R c #2f0307",
"F c #320408",
"g c #020202",
"A c #030303",
"o c #010101",
"y c #020202",
"P c #0c0102",
"c c #010101",
"C c #010101",
"a c #000000",
"Q c #160002",
"E c #170002",
"H c #200002",
"b c #000000",
"p c #000000",
"d c #000000",
"u c #000000",
"z c #000000",
"G c #040000",
"M c #000000",
"J c #030000",
"h c #000000",
"B c #001000",
"i c #002000",
"e c #003000",
"q c #003f00",
"j c #004000",
"s c #005f00",
"x c #007000",
"m c #007f00",
"n c #008f00",
"t c #009f00",
"f c #00bf00",
"k c #00cf00",
"r c #00df00",
"l c #00ff00",
"O c #050000",
"D c #060000",
"K c #0d0001",
"I c #200003",
"N c #250003",
"................................",
"................................",
"................................",
"................................",
"....########################....",
"....############aaaaaa######....",
"....#####bb###cdeffffeddg###....",
"....#####bhijjjklmflllnho###....",
"....######pqrlllmqstllhuv###....",
"....######wpexllfsnklxha####....",
"....######wyzxllltklred#####....",
"....#####cpqmlltmmmmqhc#####....",
"....#####AhikkjByyyhhh######....",
"....#######cddc####Cho######....",
"....###############huv######....",
"....##############bDE#######....",
"....#############FGd########....",
"....#############HIc########....",
"....############gJK#########....",
"....############Cho#########....",
"....############huv#########....",
"....###########bha##########....",
"....##########Lzd###########....",
"....##########ahc###########....",
"....#########gMN############....",
"....#########oOP############....",
"....#########vQR############....",
"....########################....",
"................................",
"................................",
"................................",
"................................"};
