/* XPM */
static char *show_user_flag[]={
"32 32 78 2",
"Qt c None",
".# c #000000",
".a c #00ffff",
".e c #01ffff",
".b c #02fdfd",
".U c #0e1825",
"#l c #2e0004",
".k c #30d7d5",
".H c #386196",
".K c #3a4350",
".3 c #3d6aa3",
".T c #3e454e",
".S c #3f6ba4",
".l c #3fcdcb",
".B c #416da4",
".V c #426da4",
".L c #446ea4",
".d c #45c6c4",
".c c #46c7c5",
".G c #4b73a7",
".A c #5179ad",
".q c #547caf",
".J c #567cae",
"## c #575855",
".r c #587dad",
".w c #6085b4",
".j c #6ca6a2",
".f c #6fa9a5",
"#. c #808080",
".P c #92abcb",
".8 c #a66e6a",
".p c #a6bbd4",
".y c #abbfd9",
".Q c #b4c4d7",
".Y c #b5b7b3",
"#g c #bf4d4a",
".2 c #c0cfe2",
".4 c #c2d0e1",
"#i c #c34946",
".z c #c5d3e5",
".I c #c8d6e5",
".C c #c9d6e6",
".x c #d3d4d5",
".t c #d5d6d4",
"#j c #da2b2a",
"#k c #dc2927",
".7 c #dfe1de",
".W c #e0e2df",
"#h c #e1e3e0",
"#c c #e2e4e1",
"#f c #e3201f",
".6 c #e3e4e2",
".E c #e3e4e3",
".O c #e4eaf1",
"#d c #e6e7e5",
".5 c #e7e8e5",
".M c #e7e8e6",
".R c #e7e9e7",
"#b c #ebecea",
".o c #eff0ef",
".D c #f0f0ef",
".1 c #f1f2f1",
"#a c #f3f4f3",
".Z c #f4f4f3",
".s c #f5f8fb",
".n c #f6f6f6",
"#e c #f6f7f6",
".X c #f8f9f8",
".i c #f9f9f9",
".N c #f9faf9",
".F c #fafafa",
".v c #fafbfd",
".u c #fbfbfb",
".g c #fcfcfb",
".m c #fcfcfc",
".0 c #fdfdfd",
".9 c #ff0000",
".h c #ffffff",
"QtQtQtQtQtQtQtQtQtQtQtQtQtQtQtQtQtQtQtQtQtQtQtQtQtQtQtQtQtQtQtQt",
"QtQtQtQtQtQtQtQtQtQtQtQtQtQtQtQtQtQtQtQtQtQtQtQtQtQtQtQtQtQtQtQt",
"QtQtQtQtQtQtQtQtQtQt.#.#.#.#.#.#.#.#QtQtQtQtQtQtQtQtQtQtQtQtQtQt",
"Qt.#.#QtQtQtQtQt.#.#.#.a.a.a.a.a.a.#.#.#.#QtQtQtQtQtQtQtQtQtQtQt",
"Qt.#.#.#.#.#.#.#.#.a.a.a.a.a.a.a.a.a.#.#.#QtQtQtQtQtQtQtQtQtQtQt",
"QtQt.#.#.a.a.a.a.a.b.c.#.#.#.d.b.a.a.#.#QtQtQtQtQtQtQtQtQtQtQtQt",
"QtQtQt.#.#.a.a.a.e.f.#.g.h.i.#.j.k.#.#.#.#.#QtQtQtQtQtQtQtQtQtQt",
"QtQtQtQt.#.#.#.a.l.#.h.h.h.h.m.#.#.n.h.h.o.#.#QtQtQtQtQtQtQtQtQt",
"QtQtQtQtQt.#.#.a.#.g.p.q.r.s.t.#.h.h.h.h.m.u.#.#QtQtQtQtQtQtQtQt",
"QtQtQt.#.#.#.a.a.#.v.w.x.#.y.#.n.z.A.B.C.h.D.E.#QtQtQtQtQtQtQtQt",
"Qt.#.#.#.a.a.a.a.#.F.G.#.H.I.#.h.J.h.K.L.h.M.N.#QtQtQtQtQtQtQtQt",
"QtQt.#.#.#.a.a.#.#.#.O.P.Q.R.#.h.S.T.U.V.F.W.X.#.#.#.#QtQtQtQtQt",
"QtQtQtQt.#.#.#.#.h.#.Y.Z.0.1.#.o.2.3.3.4.5.6.7.8.9.9.#.#.#.#QtQt",
"QtQtQtQtQtQtQtQtQt#..#.#.#.###.#.g#a#b#c#d#e.##f.9.9.9.#.#.#QtQt",
"QtQtQtQtQtQtQtQtQtQtQt.#.#.9.9#g.#.M.F.X#h.##i.9.9.9.9.#.#QtQtQt",
"QtQtQtQtQtQtQtQtQtQtQtQt.#.#.9.9#j.#.#.#.##k.9.9.9.9.#.#.#QtQtQt",
"QtQtQtQtQtQtQtQtQtQtQtQtQt.#.#.#.9.9.9.9.9.9.9.9.9.9.#.#QtQtQtQt",
"QtQtQtQtQtQtQtQtQtQtQtQt#l.#.#.#.9.9.9.9.9.9.9.9.9.#.#.#QtQtQtQt",
"QtQtQtQtQtQtQtQtQtQtQtQt.#.#.#.9.9.9.9.9.9.9.9.9.9.#.#QtQtQtQtQt",
"QtQtQtQtQtQtQtQtQtQt.#.#.#.9.9.9.9.9.#.#.#.#.#.#.#.#.#QtQtQtQtQt",
"QtQtQtQtQtQtQtQtQtQtQt.#.#.#.9.9.#.#.#QtQtQtQt.#.#.#QtQtQtQtQtQt",
"QtQtQtQtQtQtQtQtQtQtQt.#Qt.#.#.#.#QtQtQtQtQtQt.#.#.#QtQtQtQtQtQt",
"QtQtQtQtQtQtQtQtQtQt.#.#QtQtQtQtQtQtQtQtQtQt.#.#.#QtQtQtQtQtQtQt",
"QtQtQtQtQtQtQtQtQtQt.#.#QtQtQtQtQtQtQtQtQtQt.#.#.#QtQtQtQtQtQtQt",
"QtQtQtQtQtQtQtQtQt.#.#.#QtQtQtQtQtQtQtQtQt.#.#.#QtQtQtQtQtQtQtQt",
"QtQtQtQtQtQtQtQtQt.#.#QtQtQtQtQtQtQtQtQtQt.#.#QtQtQtQtQtQtQtQtQt",
"QtQtQtQtQtQtQtQt.#.#.#QtQtQtQtQtQtQtQtQt.#.#.#QtQtQtQtQtQtQtQtQt",
"QtQtQtQtQtQtQtQt.#.#QtQtQtQtQtQtQtQtQtQt.#.#QtQtQtQtQtQtQtQtQtQt",
"QtQtQtQtQtQtQt.#.#.#QtQtQtQtQtQtQtQtQt.#.#.#QtQtQtQtQtQtQtQtQtQt",
"QtQtQtQtQtQtQt.#.#.#QtQtQtQtQtQtQtQtQt.#.#QtQtQtQtQtQtQtQtQtQtQt",
"QtQtQtQtQtQtQt.#.#QtQtQtQtQtQtQtQtQt.#.#.#QtQtQtQtQtQtQtQtQtQtQt",
"QtQtQtQtQtQtQt.#.#QtQtQtQtQtQtQtQtQt.#.#QtQtQtQtQtQtQtQtQtQtQtQt"};
