/* XPM */
static char *show_user_flag01[]={
"32 32 95 2",
"Qt c None",
".# c #000000",
"#k c #003333",
"#B c #003636",
"#o c #004848",
"#z c #005050",
"#v c #006b6b",
"#y c #008282",
"#r c #008383",
"#u c #008888",
"#j c #00abab",
"#C c #00acac",
"#w c #00adad",
"#A c #00fcfc",
"#x c #00fefe",
".a c #00ffff",
".e c #01ffff",
".b c #02fdfd",
"#p c #04fbfb",
"#s c #0af5f5",
"#n c #1ae5e5",
"#i c #2e0004",
".k c #30d7d5",
".G c #386196",
".J c #3a4350",
".1 c #3d6aa3",
".S c #3e454e",
".R c #3f6ba4",
".l c #3fcdcb",
".A c #416da4",
".T c #426da4",
".K c #446ea4",
".d c #45c6c4",
".c c #46c7c5",
".F c #4b73a7",
"#m c #4fb0b0",
".z c #5179ad",
".q c #547caf",
".I c #567cae",
".8 c #575855",
".r c #587dad",
".v c #6085b4",
".j c #6ca6a2",
".f c #6fa9a5",
".7 c #808080",
"#l c #857a7a",
".O c #92abcb",
".p c #a6bbd4",
"#q c #a75858",
".x c #abbfd9",
".P c #b4c4d7",
".W c #b5b7b3",
"#d c #bf4d4a",
".0 c #c0cfe2",
".2 c #c2d0e1",
"#f c #c34946",
".y c #c5d3e5",
".H c #c8d6e5",
".B c #c9d6e6",
".w c #d3d4d5",
"#g c #da2b2a",
"#h c #dc2927",
".5 c #dfe1de",
"#t c #e01f1f",
".U c #e0e2df",
"#e c #e1e3e0",
"## c #e2e4e1",
"#c c #e3201f",
".4 c #e3e4e2",
".D c #e3e4e3",
".N c #e4eaf1",
"#a c #e6e7e5",
".3 c #e7e8e5",
".L c #e7e8e6",
".Q c #e7e9e7",
"#. c #ebecea",
".o c #eff0ef",
".C c #f0f0ef",
".Z c #f1f2f1",
".9 c #f3f4f3",
".X c #f4f4f3",
".s c #f5f8fb",
".n c #f6f6f6",
"#b c #f6f7f6",
".V c #f8f9f8",
".i c #f9f9f9",
".M c #f9faf9",
".E c #fafafa",
".u c #fafbfd",
".t c #fbfbfb",
".g c #fcfcfb",
".m c #fcfcfc",
".Y c #fdfdfd",
".6 c #ff0000",
".h c #ffffff",
"QtQtQtQtQtQtQtQtQtQtQtQtQtQtQtQtQtQtQtQtQtQtQtQtQtQtQtQtQtQtQtQt",
"QtQtQtQtQtQtQtQtQtQtQtQtQtQtQtQtQtQtQtQtQtQtQtQtQtQtQtQtQtQtQtQt",
"QtQtQtQtQtQtQtQtQtQt.#.#.#.#.#.#.#.#QtQtQtQtQtQtQtQtQtQtQtQtQtQt",
"Qt.#.#QtQtQtQtQt.#.#.#.a.a.a.a.a.a.#.#.#.#QtQtQtQtQtQtQtQtQtQtQt",
"Qt.#.#.#.#.#.#.#.#.a.a.a.a.a.a.a.a.a.#.#.#QtQtQtQtQtQtQtQtQtQtQt",
"QtQt.#.#.a.a.a.a.a.b.c.#.#.#.d.b.a.a.#.#QtQtQtQtQtQtQtQtQtQtQtQt",
"QtQtQt.#.#.a.a.a.e.f.#.g.h.i.#.j.k.#.#.#.#.#QtQtQtQtQtQtQtQtQtQt",
"QtQtQtQt.#.#.#.a.l.#.h.h.h.h.m.#.#.n.h.h.o.#.#QtQtQtQtQtQtQtQtQt",
"QtQtQtQtQt.#.#.a.#.g.p.q.r.s.h.#.h.h.h.h.m.t.#.#QtQtQtQtQtQtQtQt",
"QtQtQt.#.#.#.a.a.#.u.v.w.#.x.#.n.y.z.A.B.h.C.D.#QtQtQtQtQtQtQtQt",
"Qt.#.#.#.a.a.a.a.#.E.F.#.G.H.#.h.I.h.J.K.h.L.M.#QtQtQtQtQtQtQtQt",
"QtQt.#.#.#.a.a.#.#.#.N.O.P.Q.#.h.R.S.#.T.E.U.V.#.#.#.#QtQtQtQtQt",
"QtQtQtQt.#.#.#.#.h.#.W.X.Y.Z.#.o.0.1.1.2.3.4.5.#.6.6.#.#.#.#QtQt",
"QtQtQtQtQtQtQtQtQt.7.#.#.#.#.8.#.g.9#.###a#b.##c.6.6.6.#.#.#QtQt",
"QtQtQtQtQtQtQtQtQtQtQt.#.#.6.6#d.#.L.E.V#e.##f.6.6.6.6.#.#QtQtQt",
"QtQtQtQtQtQtQtQtQtQtQtQt.#.#.6.6#g.#.#.#.##h.6.6.6.6.#.#.#QtQtQt",
"QtQtQtQtQtQtQtQtQtQtQtQtQt.#.#.#.6.6.6.6.6.6.6.6.6.6.#.#QtQtQtQt",
"QtQtQtQtQtQtQtQtQtQtQtQt#i.#.#.#.6.6.6.6.6.6.6.6.6.#.#.#QtQtQtQt",
"QtQtQtQtQtQtQtQt.a.a.a.a#j#k.#.6.6.6.6#l#m#n.a.a.a#o.#QtQtQtQtQt",
"QtQtQtQtQtQtQt.a.a.a.a.a.a#p#q.6.6.6.#.a.a.a.a.a.a#o.#QtQtQtQtQt",
"QtQtQtQtQtQt.a.a.a.aQt#r.a.a#s#t.#.#.#.a.aQt.a.a.a#oQtQtQtQtQtQt",
"QtQtQtQtQt.a.a.a.aQtQt.#.a.a.a#u.#QtQtQtQtQt.a.a.a#oQtQtQtQtQtQt",
"QtQtQtQtQt.a.a.aQtQt.#.#Qt.a.a.aQtQtQtQtQtQt.a.a.aQtQtQtQtQtQtQt",
"QtQtQtQtQt.a.a.aQtQt.#.#Qt.a.a.aQtQtQtQtQtQt.a.a.aQtQtQtQtQtQtQt",
"QtQtQtQtQt.a.a.aQt.#.#.#Qt.a.a.aQtQtQtQtQt.#.a.a.aQtQtQtQtQtQtQt",
"QtQtQtQtQt.a.a.aQt.#.#QtQt.a.a.aQtQtQtQtQt.#.a.a.aQtQtQtQtQtQtQt",
"QtQtQtQtQt.a.a.a#v.#.#QtQt.a.a.aQtQtQtQt.#.#.a.a.aQtQtQtQtQtQtQt",
"QtQtQtQtQt.a.a.a#w.#QtQt.a.a.a.aQtQtQtQt.#.#.a.a.aQtQtQtQtQtQtQt",
"QtQtQtQtQtQt.a.a#x#yQt.a.a.a.aQtQtQtQt#z#z#z.a.a.a.aQtQtQtQtQtQt",
"QtQtQtQtQtQtQt#A.a.a.a.a.a.aQtQtQtQtQt.a.a.a.a.a.a.a.a.aQtQtQtQt",
"QtQtQtQtQtQtQt#B#C.a.a.a.aQtQtQtQtQt.#.a.a.a.a.a.a.a.a.aQtQtQtQt",
"QtQtQtQtQtQtQt.#.#QtQtQtQtQtQtQtQtQt.#.#QtQtQtQtQtQtQtQtQtQtQtQt"};
