/* XPM */
static char *show_user_flag05[]={
"32 32 104 2",
"Qt c None",
".# c #000000",
"#k c #003333",
"#q c #003c3c",
"#z c #004040",
"#E c #004242",
"#y c #004a4a",
"#x c #005252",
"#G c #005353",
"#l c #005c5c",
"#t c #006c6c",
"#A c #006e6e",
"#J c #007e7e",
"#D c #008282",
"#s c #008888",
"#F c #009393",
"#H c #00acac",
"#r c #00afaf",
"#w c #00b8b8",
"#K c #00c1c1",
"#I c #00e8e8",
"#L c #00e9e9",
"#B c #00eaea",
"#v c #00efef",
"#o c #00f5f5",
"#u c #00fafa",
"#m c #00fbfb",
"#C c #00fefe",
".a c #00ffff",
".e c #01ffff",
".b c #02fdfd",
"#j c #2e0004",
".k c #30d7d5",
".H c #386196",
".K c #3a4350",
".2 c #3d6aa3",
".T c #3e454e",
".S c #3f6ba4",
".l c #3fcdcb",
".B c #416da4",
".U c #426da4",
".L c #446ea4",
".d c #45c6c4",
".c c #46c7c5",
".G c #4b73a7",
".A c #5179ad",
".q c #547caf",
".J c #567cae",
".9 c #575855",
".r c #587dad",
".w c #6085b4",
".j c #6ca6a2",
".f c #6fa9a5",
".8 c #808080",
".P c #92abcb",
".p c #a6bbd4",
"#n c #a75858",
".y c #abbfd9",
".Q c #b4c4d7",
".X c #b5b7b3",
"#e c #bf4d4a",
".1 c #c0cfe2",
".3 c #c2d0e1",
"#g c #c34946",
".z c #c5d3e5",
".I c #c8d6e5",
".C c #c9d6e6",
".x c #d3d4d5",
".t c #d5d6d4",
"#h c #da2b2a",
"#i c #dc2927",
".6 c #dfe1de",
"#p c #e01f1f",
".V c #e0e2df",
"#f c #e1e3e0",
"#a c #e2e4e1",
"#d c #e3201f",
".5 c #e3e4e2",
".E c #e3e4e3",
".O c #e4eaf1",
"#b c #e6e7e5",
".4 c #e7e8e5",
".M c #e7e8e6",
".R c #e7e9e7",
"## c #ebecea",
".o c #eff0ef",
".D c #f0f0ef",
".0 c #f1f2f1",
"#. c #f3f4f3",
".Y c #f4f4f3",
".s c #f5f8fb",
".n c #f6f6f6",
"#c c #f6f7f6",
".W c #f8f9f8",
".i c #f9f9f9",
".N c #f9faf9",
".F c #fafafa",
".v c #fafbfd",
".u c #fbfbfb",
".g c #fcfcfb",
".m c #fcfcfc",
".Z c #fdfdfd",
".7 c #ff0000",
".h c #ffffff",
"QtQtQtQtQtQtQtQtQtQtQtQtQtQtQtQtQtQtQtQtQtQtQtQtQtQtQtQtQtQtQtQt",
"QtQtQtQtQtQtQtQtQtQtQtQtQtQtQtQtQtQtQtQtQtQtQtQtQtQtQtQtQtQtQtQt",
"QtQtQtQtQtQtQtQtQtQt.#.#.#.#.#.#.#.#QtQtQtQtQtQtQtQtQtQtQtQtQtQt",
"Qt.#.#QtQtQtQtQt.#.#.#.a.a.a.a.a.a.#.#.#.#QtQtQtQtQtQtQtQtQtQtQt",
"Qt.#.#.#.#.#.#.#.#.a.a.a.a.a.a.a.a.a.#.#.#QtQtQtQtQtQtQtQtQtQtQt",
"QtQt.#.#.a.a.a.a.a.b.c.#.#.#.d.b.a.a.#.#QtQtQtQtQtQtQtQtQtQtQtQt",
"QtQtQt.#.#.a.a.a.e.f.#.g.h.i.#.j.k.#.#.#.#.#QtQtQtQtQtQtQtQtQtQt",
"QtQtQtQt.#.#.#.a.l.#.h.h.h.h.m.#.#.n.h.h.o.#.#QtQtQtQtQtQtQtQtQt",
"QtQtQtQtQt.#.#.a.#.g.p.q.r.s.t.#.h.h.h.h.m.u.#.#QtQtQtQtQtQtQtQt",
"QtQtQt.#.#.#.a.a.#.v.w.x.#.y.#.n.z.A.B.C.h.D.E.#QtQtQtQtQtQtQtQt",
"Qt.#.#.#.a.a.a.a.#.F.G.#.H.I.#.h.J.h.K.L.h.M.N.#QtQtQtQtQtQtQtQt",
"QtQt.#.#.#.a.a.#.#.#.O.P.Q.R.#.h.S.T.#.U.F.V.W.#.#.#.#QtQtQtQtQt",
"QtQtQtQt.#.#.#.#.h.#.X.Y.Z.0.#.o.1.2.2.3.4.5.6.#.7.7.#.#.#.#QtQt",
"QtQtQtQtQtQtQtQtQt.8.#.#.#.#.9.#.g#.###a#b#c.##d.7.7.7.#.#.#QtQt",
"QtQtQtQtQtQtQtQtQtQtQt.#.#.7.7#e.#.M.F.W#f.##g.7.7.7.7.#.#QtQtQt",
"QtQtQtQtQtQtQtQtQtQtQtQt.#.#.7.7#h.#.#.#.##i.7.7.7.7.#.#.#QtQtQt",
"QtQtQtQtQtQtQtQtQtQtQtQtQt.#.#.#.7.7.7.7.7.7.7.7.7.7.#.#QtQtQtQt",
"QtQtQtQtQtQtQtQtQtQtQtQt#j.#.#.#.7.7.7.7.7.7.7.7.7.#.#.#QtQtQtQt",
"QtQtQtQtQtQtQt.a.a.a.a.a#k.#.#.7.7.7.a.a.a.a.a.a.a.a#lQtQtQtQtQt",
"QtQtQtQtQtQt.a.a.a.a.a.a#m#n.7.7.7.7.a.a.a.a.a.a.a.a#lQtQtQtQtQt",
"QtQtQtQtQt.a.a.a.aQt.a.a.a#o#p.7.#.#.a.a.aQtQt#q#q#qQtQtQtQtQtQt",
"QtQtQtQt.a.a.a.aQtQtQt#r.a.a#s.#.#Qt.a.a.aQtQt.#.#.#QtQtQtQtQtQt",
"QtQtQtQt.a.a.aQtQtQt.##t.a.a.aQtQtQt.a.a.a.a#u#v#wQtQtQtQtQtQtQt",
"QtQtQtQt.a.a.aQtQtQt.##x.a.a.aQtQtQt.a.a.a.a.a.a.a.aQtQtQtQtQtQt",
"QtQtQtQt.a.a.aQtQt.#.##y.a.a.aQtQtQt.a.aQt#z#A#B.a.a.aQtQtQtQtQt",
"QtQtQtQt.a.a.aQtQt.#.#Qt.a.a.aQtQtQtQtQtQt.#.#Qt.a.a.aQtQtQtQtQt",
"QtQtQtQt.a.a.aQt.#.#.#Qt.a.a.aQtQtQtQtQt.#.#.#Qt.a.a.aQtQtQtQtQt",
"QtQtQtQt.a.a.a.a.#.#Qt.a.a.a.aQtQtQtQtQt.#.#QtQt.a.a.aQtQtQtQtQt",
"QtQtQtQtQt.a.a#C#D#E.a.a.a.aQtQtQt.a.a#F#G#zQt.a.a.a.aQtQtQtQtQt",
"QtQtQtQtQtQt.a.a.a.a.a.a.aQtQtQtQt.a.a.a.a.a.a.a.a.aQtQtQtQtQtQt",
"QtQtQtQtQtQtQt#H#I.a.a.aQtQtQtQtQtQt#J#K#L.a.a.a.aQtQtQtQtQtQtQt",
"QtQtQtQtQtQtQt.#.#QtQtQtQtQtQtQtQtQt.#.#QtQtQtQtQtQtQtQtQtQtQtQt"};
