/* XPM */
static char *suspect[]={
"32 32 134 2",
".# c None",
"Qt c None",
"#w c #000033",
".T c #010101",
"#k c #01011f",
".J c #01012c",
".p c #01012d",
"#x c #010132",
"aa c #010133",
"#u c #01013a",
"#E c #01013d",
".o c #01014a",
".S c #01014c",
"## c #020202",
"ac c #02021d",
"#y c #020229",
"#N c #020240",
".0 c #020257",
"a# c #020259",
".N c #030318",
"#J c #030320",
"#. c #030346",
"#0 c #04040e",
"#O c #040414",
"#v c #040415",
"ab c #040422",
".z c #04047b",
".g c #05051c",
"#1 c #060611",
"#m c #070675",
"#Z c #070711",
"ad c #08081e",
"#8 c #08085b",
".f c #090922",
"#9 c #09093d",
"#l c #090941",
".A c #090957",
"#p c #0a0a58",
"#4 c #0b0b3d",
"#j c #0c0b88",
".W c #0c0c64",
".I c #0c0ca5",
".e c #0d0d29",
".y c #0e0eb1",
".d c #0f0f2e",
"#b c #1010af",
"#W c #11106d",
"#R c #111187",
"#D c #12119f",
".c c #121230",
".w c #131355",
"#I c #1313a1",
".O c #141424",
".n c #141466",
".R c #1414da",
"#5 c #151531",
"#X c #151551",
"a. c #15156a",
"#U c #161650",
".D c #161673",
"#n c #1616c9",
"#t c #1717ad",
"#T c #1717d1",
"#Y c #18183e",
"#a c #191955",
".h c #1a1a2e",
".q c #1b1b2f",
".E c #1c1c30",
"#f c #1c1c6b",
".6 c #1d1d26",
"#V c #1d1d31",
".b c #1e1e30",
".F c #1e1e4d",
".m c #1e1e75",
"#c c #1f1ee1",
".Z c #1f1fe2",
"#3 c #202081",
".2 c #2020c6",
".5 c #212135",
"#o c #2121c4",
".4 c #22223b",
".v c #23235a",
".a c #242432",
".3 c #24244e",
".M c #242494",
".u c #25255e",
".x c #2525b9",
".l c #262686",
".9 c #2727d0",
"#M c #2928db",
".k c #2b2b8e",
"#z c #2d2d3a",
".t c #313184",
".1 c #3434ee",
".H c #3636ee",
".X c #383850",
".j c #3b3a91",
".U c #3b3b60",
".G c #3c3cbf",
".K c #3e3e57",
"#K c #424261",
".i c #434371",
".P c #444478",
"#2 c #4444b0",
".s c #4544dd",
"#q c #454556",
"#Q c #4948ed",
"#e c #4949c2",
"#F c #4a4a5a",
"#7 c #4c4cd1",
"#i c #4d4dee",
"#g c #505062",
"#S c #5454ed",
"#C c #5756f1",
"#d c #5858f2",
"#A c #5a5a6e",
"#s c #6060f0",
".r c #6262c4",
".V c #6363e8",
".Q c #6565e2",
".C c #6767d8",
"#H c #6868f8",
".7 c #6a6a87",
".B c #6b6b93",
".L c #6d6dbe",
".8 c #7b7bf2",
"#L c #8181f7",
"#h c #8a8ac6",
".Y c #8c8cc2",
"#G c #8e8ec8",
"#6 c #9b9be7",
"#r c #a3a3d6",
"#B c #a7a7d9",
"#P c #a8a8f9",
"QtQtQtQtQtQtQtQtQtQtQtQtQtQtQtQtQtQtQtQtQtQtQtQtQtQtQtQtQtQtQtQt",
"QtQtQtQtQtQtQtQtQtQtQtQtQtQtQtQtQtQtQtQtQtQtQtQtQtQtQtQtQtQtQtQt",
"QtQtQtQtQtQtQtQtQtQtQtQtQtQtQtQtQtQtQtQtQtQtQtQtQtQtQtQtQtQtQtQt",
"QtQtQtQtQtQtQtQtQtQtQtQtQtQtQtQtQtQtQtQtQtQtQtQtQtQtQtQtQtQtQtQt",
"QtQtQtQtQtQtQtQtQtQtQtQtQtQtQtQtQtQtQtQtQtQtQtQtQtQtQtQtQtQtQtQt",
"QtQtQtQtQtQtQt.#.#.#.#.a.b.c.d.e.f.g.#.#.#.#QtQtQtQtQtQtQtQtQtQt",
"QtQtQtQtQtQtQt.#.#.#.h.i.j.k.l.m.n.o.p.#.#.#QtQtQtQtQtQtQtQtQtQt",
"QtQtQtQtQtQtQt.#.q.h.r.s.t.u.v.w.x.y.z.A.#.#QtQtQtQtQtQtQtQtQtQt",
"QtQtQtQtQtQtQt.q.B.C.D.h.E.#.#.#.F.G.H.I.J.#QtQtQtQtQtQtQtQtQtQt",
"QtQtQtQtQtQtQt.K.L.M.N.#.#.#.#.#.O.P.Q.R.S.TQtQtQtQtQtQtQtQtQtQt",
"QtQtQtQtQtQtQt.U.V.W.#.#.#.#.#.#.#.X.Y.Z.0.TQtQtQtQtQtQtQtQtQtQt",
"QtQtQtQtQtQtQt.u.1.2.3.4.5.#.#.#.6.7.8.9#.##QtQtQtQtQtQtQtQtQtQt",
"QtQtQtQtQtQtQt#a#b#c#d#e#f.#.#.##g#h#i#j#k.#QtQtQtQtQtQtQtQtQtQt",
"QtQtQtQtQtQtQt#l.S#m#n#o#p.#.##q#r#s#t#u#v.#QtQtQtQtQtQtQtQtQtQt",
"QtQtQtQtQtQtQt.#.#.##w#x#y#z#A#B#C#D#E.#.#.#QtQtQtQtQtQtQtQtQtQt",
"QtQtQtQtQtQtQt.#.#.#.#.#.##F#G#H#I#E#J.#.#.#QtQtQtQtQtQtQtQtQtQt",
"QtQtQtQtQtQtQt.#.#.#.#.#.##K#L#M#N#O.#.#.#.#QtQtQtQtQtQtQtQtQtQt",
"QtQtQtQtQtQtQt.#.#.#.#.#.h#P#Q#R.h.#.#.#.#.#QtQtQtQtQtQtQtQtQtQt",
"QtQtQtQtQtQtQt.#.#.#.#.#.h#S#T#U.#.#.#.#.#.#QtQtQtQtQtQtQtQtQtQt",
"QtQtQtQtQtQtQt.#.#.#.#.##V#W#X#Y.#.#.#.#.#.#QtQtQtQtQtQtQtQtQtQt",
"QtQtQtQtQtQtQt.#.#.#.#.#.#.#.#.#.#.#.#.#.#.#QtQtQtQtQtQtQtQtQtQt",
"QtQtQtQtQtQtQt.#.#.#.#.#.##Z#0#1.#.#.#.#.#.#QtQtQtQtQtQtQtQtQtQt",
"QtQtQtQtQtQtQt.#.#.#.#.#.h#2#3#4.#.#.#.#.#.#QtQtQtQtQtQtQtQtQtQt",
"QtQtQtQtQtQtQt.#.#.#.#.##5#6#7#8.#.#.#.#.#.#QtQtQtQtQtQtQtQtQtQt",
"QtQtQtQtQtQtQt.#.#.#.#.##9a.a#aa.#.#.#.#.#.#QtQtQtQtQtQtQtQtQtQt",
"QtQtQtQtQtQtQt.#.#.#.#.#.#abacad.#.#.#.#.#.#QtQtQtQtQtQtQtQtQtQt",
"QtQtQtQtQtQtQtQtQtQtQtQtQtQtQtQtQtQtQtQtQtQtQtQtQtQtQtQtQtQtQtQt",
"QtQtQtQtQtQtQtQtQtQtQtQtQtQtQtQtQtQtQtQtQtQtQtQtQtQtQtQtQtQtQtQt",
"QtQtQtQtQtQtQtQtQtQtQtQtQtQtQtQtQtQtQtQtQtQtQtQtQtQtQtQtQtQtQtQt",
"QtQtQtQtQtQtQtQtQtQtQtQtQtQtQtQtQtQtQtQtQtQtQtQtQtQtQtQtQtQtQtQt",
"QtQtQtQtQtQtQtQtQtQtQtQtQtQtQtQtQtQtQtQtQtQtQtQtQtQtQtQtQtQtQtQt",
"QtQtQtQtQtQtQtQtQtQtQtQtQtQtQtQtQtQtQtQtQtQtQtQtQtQtQtQtQtQtQtQt"};
