/* XPM */
static char *unreference_poly[]={
"32 32 150 2",
"Qt c None",
".# c #000000",
"ar c #001e1d",
"#S c #026664",
"a# c #036765",
"#1 c #066967",
"ag c #076967",
"#R c #096a68",
"#I c #0b6c6a",
"#z c #0e6d6b",
"#Q c #116f6d",
"a. c #12706e",
"#H c #14716f",
"#y c #157270",
"#0 c #167270",
"am c #187371",
"#P c #1a7573",
"#G c #1c7674",
"af c #1d7675",
"#x c #1e7775",
"#j c #1f7876",
"#i c #207876",
"#O c #217977",
"#9 c #227978",
"#F c #247b79",
"#Z c #267c7a",
"#w c #277c7b",
"#h c #287d7b",
".4 c #297e7c",
"ae c #2b7f7d",
"#E c #2c7f7e",
"#Y c #2d807e",
"#v c #2f817f",
"#g c #308280",
".Y c #328381",
".5 c #348483",
"#D c #358583",
"#u c #378684",
"ad c #388785",
"#f c #398786",
".L c #3b8887",
"#X c #3c8987",
".t c #3d8a88",
"#8 c #3e8a89",
"#t c #3f8b89",
".j c #418c8a",
"al c #428c8a",
"#e c #428d8b",
".K c #438d8c",
".a c #448e8c",
".s c #458e8d",
"ak c #478f8e",
".i c #48908f",
"#d c #4a9190",
".d c #4b9190",
".J c #4b9290",
"#7 c #4c9291",
".X c #4c9391",
".r c #4d9392",
"ap c #509594",
"#s c #519594",
".c c #529695",
"#6 c #539796",
"#c c #559896",
"ac c #559897",
".q c #569897",
"aj c #579998",
"#5 c #589998",
".h c #599b99",
".b c #5a9b99",
"#r c #5b9b9a",
"as c #5b9c9a",
"#b c #5e9d9b",
"#4 c #5e9d9c",
"ab c #5f9e9d",
".p c #609e9d",
".I c #609f9d",
"#W c #619f9e",
".g c #62a09e",
"#q c #64a19f",
"#3 c #66a2a1",
"#V c #66a3a1",
"#a c #67a2a2",
".o c #67a3a1",
".f c #68a4a2",
".H c #69a4a2",
".W c #6ba5a4",
"#p c #6da6a5",
"#U c #6ea7a5",
"an c #6ea7a6",
".e c #6fa7a6",
".n c #70a8a7",
"## c #71a8a7",
"#N c #73aaa9",
".G c #74aaa9",
"#K c #74aba9",
".V c #75aba9",
"ai c #75abaa",
"ao c #75acaa",
".m c #76acaa",
"#M c #78adac",
"#L c #7aaeac",
"#. c #7aaead",
"aa c #7aafad",
"#B c #7bafae",
".l c #7cafae",
".F c #7db0af",
".U c #7eb0af",
".k c #80b2b1",
"#2 c #81b2b1",
"#l c #81b3b2",
"#C c #82b3b2",
".y c #83b3b2",
".9 c #83b4b3",
"#o c #84b4b3",
".O c #85b5b3",
".E c #86b6b4",
"#T c #87b6b5",
"#n c #88b7b5",
".T c #88b7b6",
".z c #89b7b6",
".P c #8ab8b7",
".u c #8bb8b7",
"#m c #8bb8b8",
".w c #8bb9b8",
"#J c #8dbab9",
".D c #8ebab9",
".x c #8ebbba",
"at c #8f8f8f",
".A c #8fbbb9",
".8 c #8fbbba",
".1 c #90bcbb",
".S c #91bcbb",
"#A c #92bdbc",
".2 c #93bdbd",
".7 c #93bebd",
".C c #96c0bf",
".N c #97c0bf",
".3 c #98c1c0",
".B c #9ac2c1",
".Q c #9cc3c2",
"#k c #9dc4c3",
".6 c #9fc5c4",
".R c #a3c7c7",
".Z c #a5c8c8",
".0 c #a9cbca",
".M c #afcecd",
"aq c #cacaca",
".v c #ff00ff",
"ah c #ffffff",
"QtQtQtQtQtQtQtQtQtQtQtQtQtQtQtQtQtQtQtQtQtQtQtQtQtQtQtQtQtQtQtQt",
"QtQtQtQtQtQtQtQtQtQtQtQtQtQtQtQtQtQtQtQtQtQtQtQtQtQtQtQtQtQtQtQt",
"QtQtQtQtQtQtQtQtQtQtQtQtQtQtQtQt.#QtQtQtQtQtQtQtQtQtQtQtQtQtQtQt",
"QtQtQtQtQtQtQtQtQtQtQtQtQtQt.#.#.a.#QtQtQtQtQtQtQtQtQtQtQtQtQtQt",
"QtQtQtQtQtQtQtQtQtQtQtQt.#.#.b.c.d.a.#QtQtQtQtQtQtQtQtQtQtQtQtQt",
"QtQtQtQtQtQtQtQtQtQt.#.#.e.f.g.h.c.i.j.#QtQtQtQtQtQtQtQtQtQtQtQt",
"QtQtQtQtQtQtQtQt.#.#.k.l.m.n.o.p.q.r.s.t.#QtQtQtQtQtQtQtQtQtQtQt",
"QtQtQtQtQtQt.#.#.u.v.v.v.v.v.v.v.v.v.v.v.v.#QtQtQtQtQtQtQtQtQtQt",
"QtQtQtQt.#.#.w.x.v.v.v.v.v.v.v.v.v.v.v.v.v.v.#QtQtQtQtQtQtQtQtQt",
"QtQt.#.#.y.z.A.v.v.B.C.D.E.F.G.H.I.q.J.K.L.v.v.#QtQtQtQtQtQtQtQt",
".#.#.M.N.O.P.v.v.Q.R.B.S.T.U.V.W.I.q.X.a.L.Y.v.v.#QtQtQtQtQtQtQt",
".#.#.Z.0.1.v.v.2.3.B.C.D.E.F.G.H.I.q.J.K.L.Y.4.v.v.#QtQtQtQtQtQt",
".#.5.#.6.v.v.w.x.S.7.8.z.9#.###a#b#c#d#e#f#g#h#i.v.v.#QtQtQtQtQt",
".##j.5.v.v#k#l.z.u#m#n#o.F.m#p#q#r#s.i#t#u#v#w#x#y.v.v.#QtQtQtQt",
".##z.v.v.##A.N#B#C#C.k.l.m.n.o.p.q.r.s.t#D#E#F#G#H#I.v.v.#QtQtQt",
".#.v.v#j.5.##J#A#K#L#M#N.e.f.g.h.c.i.j#f.Y.4#O#P#Q#R#S.v.v.#QtQt",
".#.v.v#z#j.5.##T.w#p#U.W#V#W.b.c.d.a#X#D#Y#Z#x#0#z#1#S#S.v.vQtQt",
"Qt.v.v#S#z#j.5.##2#T#3.g#4#5#6#7.a#8#u#g.4#9#Pa.#Ia##S.#.#.v.vQt",
"Qt.v.v#S#S#z#j.5.#aa.kabac#s#d.a#8ad.Yae#Faf#0#zag.#.#ahQt.v.vQt",
"Qt.v.v.##S#S#z#j.5.#ai#Bajakal#X#u.Y#E#Z#jam#Q.#.#ahahah.#.v.vQt",
"Qt.v.vQt.##S#S#z#j.5.#anaoap#f#D#gae#Z#i#P.#.#ahahahahahaq.v.vQt",
"Qt.v.v.v.v.v.v.v.v.v.v.v.v.v.v.v.v.v.v.v.v.v.v.v.v.v.v.v.v.v.vQt",
"Qt.v.v.v.v.v.v.v.v.v.v.v.v.v.v.v.v.v.v.v.v.v.v.v.v.v.v.v.v.v.vQt",
"QtQtQtQtQtQtQt.##S#S#z#j.5aras.#.#ahahahahahahaqat.#.#QtQtQtQtQt",
"QtQtQtQtQtQtQtQt.##S#S#z#j#S.#ahahahahahahaqat.#.#QtQtQtQtQtQtQt",
"QtQtQtQtQtQtQtQtQt.##S#S#z.#ahahahahahaqat.#.#QtQtQtQtQtQtQtQtQt",
"QtQtQtQtQtQtQtQtQtQt.##S#S.#ahahahaqatat.#QtQtQtQtQtQtQtQtQtQtQt",
"QtQtQtQtQtQtQtQtQtQtQt.##S.#ahaqaqat.#.#QtQtQtQtQtQtQtQtQtQtQtQt",
"QtQtQtQtQtQtQtQtQtQtQtQt.#.#at.#.#.#QtQtQtQtQtQtQtQtQtQtQtQtQtQt",
"QtQtQtQtQtQtQtQtQtQtQtQtQt.#.#QtQtQtQtQtQtQtQtQtQtQtQtQtQtQtQtQt",
"QtQtQtQtQtQtQtQtQtQtQtQtQtQtQtQtQtQtQtQtQtQtQtQtQtQtQtQtQtQtQtQt",
"QtQtQtQtQtQtQtQtQtQtQtQtQtQtQtQtQtQtQtQtQtQtQtQtQtQtQtQtQtQtQtQt"};
