/* XPM */
static char *user_flag04[]={
"32 32 28 1",
". c None",
"# c #000000",
"e c #003300",
"w c #004200",
"h c #004800",
"t c #004a00",
"r c #005200",
"p c #006c00",
"x c #007000",
"v c #008200",
"o c #009500",
"k c #00a700",
"y c #00ac00",
"n c #00af00",
"z c #00e800",
"l c #00f500",
"i c #00fb00",
"q c #00fe00",
"d c #00ff00",
"a c #00ffff",
"s c #01fd01",
"u c #08f608",
"g c #1fe000",
"c c #2e0004",
"j c #a75800",
"m c #e01f00",
"f c #f00f00",
"b c #ff0000",
"................................",
"................................",
"..........########..............",
".##.....###aaaaaa####...........",
".########aaaaaaaaa###...........",
"..##aaaaaaaaaaaaaa##............",
"...##aaaaaaaaaaaa###............",
"....###aaaaaaaaaa##.............",
".....##aaaaaaaaa###.............",
"...###aaaaaaaaaa##..............",
".###aaaaa#########..............",
"..###aa###....###..########.....",
"....####..##...#####bbbbbb####..",
"..........########bbbbbbbbb###..",
"...........##bbbbbbbbbbbbbb##...",
"............##bbbbbbbbbbbb###...",
".............###bbbbbbbbbb##....",
"............c###bbbbbbbbb###....",
".......ddddde##bbbbbbfgdddh.....",
"......ddddddijbbbb###kddddh.....",
".....dddd.dddlmb###..ddddd......",
"....dddd...nddo##...dd.ddd......",
"....ddd...#pddq....ddd#ddd......",
"....ddd...#rdds...ddd.#ddd......",
"....ddd..##tddd...dd.##ddd......",
"....ddd..##.ddd..ddd.##ddd......",
"....ddd.###.ddd..ddddddddddd....",
"....dddd##.uddd..ddddddddddd....",
".....ddqvwdddd.....xxx.dddd.....",
"......ddddddd......##..ddd......",
".......yzddd......###..ddd......",
".......##.........##............"};
