/* XPM */
static char *pfmLoad[]={
"32 32 413 2",
"#w c #000000",
"aq c #010101",
"bS c #010806",
"a. c #020e03",
"aP c #030303",
"ao c #040404",
"dW c #050707",
"cv c #050b1c",
"dg c #05211d",
"#k c #070801",
"c4 c #082d39",
"ar c #08370b",
"#8 c #084310",
"#L c #090902",
"dk c #09452b",
"aU c #0a0a0a",
"ap c #0b0b0b",
"dV c #0b151b",
"dt c #0b231e",
"bg c #0b424c",
"d# c #0b522b",
"a# c #0b5b11",
"#l c #0d0f03",
"bv c #0d4476",
"by c #0d524d",
"#N c #0d6a1a",
"ag c #0d7a48",
"aF c #0e0e0e",
"d7 c #0e1b6b",
"cM c #0e2c5f",
"bd c #0e3e76",
"ez c #0e4868",
"bc c #0e576b",
"d5 c #0e5952",
"#1 c #0e6a58",
"#R c #0e6c15",
"#4 c #0e6d27",
"ca c #0e6d4c",
"ey c #0e6e45",
"ev c #0e736b",
"#O c #0e771b",
"d3 c #0e7739",
"ex c #0e775a",
"#W c #0e7916",
"#9 c #0f0f0f",
"d9 c #0f2973",
"b# c #0f5018",
"bf c #0f5678",
"aY c #0f5945",
"eA c #0f676d",
"aX c #0f6e3e",
"aM c #0f722c",
"d4 c #0f7316",
"ek c #0f7825",
"#E c #0f7b1a",
"dP c #0f7c54",
"cu c #101c5a",
"d6 c #101e6a",
"c# c #107463",
"az c #107d44",
"dN c #107e4b",
"cL c #113478",
"bP c #114469",
"bQ c #11487b",
"#V c #114e12",
"#3 c #115b36",
"bu c #115b66",
"dp c #115c7e",
"#2 c #116b4a",
"#B c #117419",
"ah c #117547",
"#0 c #11756c",
"bb c #117c64",
"af c #117d54",
"aL c #117e2d",
"cK c #122677",
"be c #123b7e",
"ew c #12567a",
"bw c #125682",
"#Q c #125c2c",
"b9 c #12637e",
"bx c #126979",
"#q c #127217",
".2 c #127636",
"c. c #127777",
"#D c #127c24",
"aA c #127d3a",
"aB c #127e34",
"ay c #128244",
"ae c #12825d",
"ax c #12834b",
"ad c #128363",
"aZ c #133a55",
"c2 c #134f84",
".M c #136525",
"c3 c #136781",
".u c #137d1a",
"bR c #137d7b",
"cs c #137e6c",
".b c #13831c",
"#Z c #138374",
".k c #138522",
".a c #138533",
"av c #13853c",
"bO c #14495b",
"a0 c #144c4e",
"#C c #147917",
"ep c #147c81",
"ac c #148669",
"aw c #148a43",
"aI c #151515",
"#e c #15631c",
"df c #15827b",
"Qt c #158b23",
"dQ c #165752",
"#p c #165f16",
"#c c #167423",
"ba c #168757",
".c c #16891e",
"aQ c #171717",
"cJ c #17376a",
".N c #176818",
"ct c #176966",
".t c #179020",
"cN c #181818",
"aC c #185223",
"cX c #191919",
"dO c #194f16",
"dD c #195829",
".# c #19882a",
"#M c #1b5d16",
".v c #1b7d19",
"#K c #1d1806",
"aG c #1d1d1d",
".l c #1d831a",
"dv c #204149",
"ea c #214883",
"at c #227f18",
".m c #228219",
"bt c #233024",
"e. c #234356",
"bN c #234a0f",
"a1 c #234d37",
"aN c #23552b",
".d c #24862a",
"bz c #252525",
".E c #257b29",
"aa c #25852a",
"#S c #266416",
"#P c #267717",
".F c #267e17",
"as c #268337",
"ds c #268362",
"aR c #272727",
"dU c #273752",
"e# c #277765",
"aH c #282828",
"#t c #283309",
"#b c #285816",
"#5 c #297644",
"bh c #2a2a2a",
"d8 c #2a3b73",
"aK c #2a751b",
".e c #2a881b",
"eq c #2a8b78",
"dC c #2b7054",
".n c #2b831b",
"#v c #2c2907",
"a2 c #2d2d2d",
"ab c #2d7e16",
"cY c #2e100b",
"du c #2e2e2e",
"#j c #2e3e0a",
"am c #2f2f2f",
"#T c #2f440e",
"a6 c #303030",
"#z c #305e28",
"el c #30718a",
"dx c #316e6e",
"aV c #324335",
"ej c #328951",
"#a c #335517",
"dw c #336775",
"eu c #337b72",
".G c #337d15",
"bZ c #343434",
"dl c #343720",
"er c #34496d",
"ef c #34538a",
".T c #346e2e",
"d1 c #34786a",
"da c #354226",
"aS c #363636",
"dy c #366161",
"es c #36888a",
"ak c #388844",
"#h c #396616",
"#X c #398317",
"bo c #3a3534",
"en c #3a6a78",
".P c #3a873a",
"ai c #3a8966",
"dI c #3b4845",
"#Y c #3b7814",
".o c #3b8216",
"a7 c #3c3c3c",
"#A c #3c7a43",
"et c #3c7e77",
"d2 c #3c7f65",
".U c #3c8624",
"#U c #3d5812",
"cF c #3e1d1c",
"au c #3e7d14",
"#F c #3f670f",
"a8 c #404040",
"dB c #407053",
"#u c #41470c",
"ee c #426a94",
"b8 c #435a10",
"cr c #438215",
"dT c #444f75",
".w c #447d14",
".V c #44892a",
"aT c #454545",
"## c #454a12",
"dR c #45576c",
"aJ c #458545",
".O c #468b4d",
"dr c #468d79",
"ec c #478198",
"al c #486b4b",
"ed c #48778c",
".B c #49924e",
"#6 c #499366",
"aW c #4a6e4f",
"dY c #4a7473",
"#G c #4a7912",
"#i c #4b6c16",
"do c #4c180b",
".f c #4c8617",
"dh c #4e4e4e",
"bp c #4f3838",
"#m c #504b0c",
"a9 c #505050",
"dE c #515413",
"#r c #51732b",
"aj c #518a6a",
"dX c #526160",
".6 c #537d14",
"dz c #540f0e",
"cq c #541f06",
"#y c #555c28",
"dK c #556969",
"eh c #557e88",
".R c #568a58",
"cI c #570802",
".g c #578416",
"dZ c #578d82",
"#I c #586e12",
".S c #588848",
"c1 c #590001",
"#x c #593d16",
"#s c #5a7414",
"#. c #5b4c12",
".Q c #5b985b",
".x c #5c7b13",
"dJ c #5d5d5d",
"dA c #5f0a0a",
"b. c #5f5f5f",
"dd c #630202",
"bq c #644847",
"#H c #647d14",
".W c #648725",
".4 c #68914a",
".C c #68a36c",
"dq c #68aa97",
".h c #698316",
"dL c #698e98",
"#7 c #699772",
"#d c #699e69",
"de c #6a7915",
"#J c #6c6212",
"bI c #6d0c09",
".L c #6e4c0f",
"cw c #6e6e6e",
".8 c #6f5d2b",
"#f c #6f9166",
"br c #716060",
"dS c #717890",
"ei c #718e96",
"eb c #7191a7",
"b7 c #731a1a",
".q c #737d15",
".s c #746c12",
".K c #747a2c",
".H c #748d32",
".Y c #756c2c",
"dj c #757575",
"#g c #758d5a",
"bF c #767676",
".i c #778619",
".A c #785a11",
"bs c #787878",
".y c #797717",
"d0 c #799898",
"dM c #7aa399",
".r c #7b6914",
".z c #7b7b16",
"#n c #7d6d42",
"di c #7d7d7d",
"eo c #7da1a2",
".3 c #7da46a",
"c5 c #7e7e7e",
"cW c #808080",
"c6 c #818181",
"d. c #828282",
"dG c #839b99",
"dm c #840907",
".1 c #857a38",
".p c #857b27",
"cO c #858585",
"c7 c #868686",
"eg c #8695a5",
"dH c #86a39c",
".D c #86b18d",
"c9 c #878787",
".j c #87891b",
"dF c #88a7a8",
"bY c #8a8a8a",
".5 c #8aa777",
"em c #8ab2ae",
"c8 c #8b8b8b",
".Z c #8c7d4c",
".0 c #8f8b56",
".J c #918f4e",
"cP c #919191",
"dn c #920c09",
".I c #92a868",
"cV c #939393",
"db c #940d0a",
"bJ c #951c19",
".7 c #958b66",
"ci c #959595",
"bM c #976a6a",
"#o c #97946f",
"cg c #989898",
"cQ c #9a9a9a",
"cU c #9c9c9c",
"cx c #9d9d9d",
"cE c #a0a0a0",
"cZ c #a11513",
"b0 c #a1a1a1",
".9 c #a2976a",
"cT c #a2a2a2",
"bG c #a3a3a3",
".X c #a3a57f",
"cR c #a4a4a4",
"cb c #a5a5a5",
"cS c #a6a6a6",
"dc c #a7110d",
"cy c #a9a9a9",
"cC c #ababab",
"b3 c #ac2e2c",
"bT c #acacac",
"an c #afafaf",
"bX c #b0b0b0",
"cz c #b2b2b2",
"cc c #b3b3b3",
"bm c #b4b4b4",
"cB c #b5b5b5",
"cl c #b6a4a4",
"bH c #b79493",
"c0 c #b81b18",
"b2 c #b89695",
"ch c #b8b8b8",
"cD c #b9b9b9",
"cf c #bbbbbb",
"cA c #bcbcbc",
"bK c #bd2b29",
"cd c #bebebe",
"aE c #bfbfbf",
"ck c #c0c0c0",
"bU c #c5c5c5",
"bA c #c7c7c7",
"bL c #c84a49",
"cj c #c8c8c8",
"ce c #cdcdcd",
"cp c #ce2f2e",
"cH c #cf2a27",
"b4 c #cf3231",
"bn c #d0d0d0",
"cm c #d15352",
"cG c #d22b29",
"bV c #d8d8d8",
"b1 c #dadada",
"bE c #dbdbdb",
"bi c #dcdcdc",
"bW c #dedede",
"bB c #dfdfdf",
"bC c #e7e7e7",
"a3 c #eaeaea",
"co c #ec3b3a",
"b5 c #ec3d3c",
"bD c #ececec",
"aD c #efefef",
"cn c #f03e3d",
"bj c #f2f2f2",
"b6 c #f3403f",
"bk c #f6f6f6",
"bl c #f9f9f9",
"a4 c #fdfdfd",
"a5 c #fefefe",
"aO c #ffffff",
"QtQtQtQt.#.a.a.a.a.#QtQt.b.b.b.b.b.b.b.c.d.e.f.g.h.i.i.i.i.i.j.j",
".c.b.b.b.k.k.b.k.b.b.b.b.b.b.b.b.b.l.m.n.o.f.g.h.i.i.p.i.i.q.r.s",
".c.b.b.b.b.tQt.b.b.b.b.l.b.b.b.u.v.n.w.f.x.h.q.y.i.j.z.z.z.r.r.A",
".b.u.u.d.B.C.D.E.b.u.m.n.m.l.F.m.G.w.g.H.I.J.K.p.J.J.s.y.r.r.A.L",
".M.N.O.P.Q.R.S.T.n.n.U.V.U.U.V.o.w.W.I.K.X.Y.r.Z.0.Y.K.1.r.A.L.L",
".a.2.2.M.C.T.G.3.4.4.5.S.4.I.4.6.6.h.s.1.7.8.Z.Z.J.Y.9.7#.###a#b",
".t.t.k#c#d#e.V.5#f#g#g#h.I#g#i#j#k#l#m.J#n.L.7#n.X.Z#o#a#p#q#q#q",
".c.l.b.k.E#e.N#r#r#r#s#s.W#r#t#k#u#v#w#x.L.L.8#y#r#z#A#B.u.u.v#C",
".l#D.v.l.b#E#B.N#F#G.x#H.h#I#w#u.q#J#K#L#a#M#M.N#N#B#O.u.u.v.n#P",
".M.M#Q.M#e#C.b#q#R#S#z#i#a#T#w#U#F#b#V#w#W#W.u.b.u.b.l.l.m.G#X#Y",
"#Z#0#0#1#2#3.M#4#c#5#6#7#8#9#w#wa.a#.u#w.uaa.u.b.v.m.F.Fab.w.w.w",
"acadadaeaeafagahaiajakalaman#waoapaqar#was.V.l.Pat.F.nauau.w#G#s",
"avawaxayazazaAavavaBaCamaDaEaqaFaGaHaI#w.QaJ.C.SaKabauau.w.6.x#s",
".a.aaAaBaBaLaMas.CaNamaDaOaEaPaQaRaSaTaUaVaW.D#b#P.G#Y#Y.w.6#H#s",
"aAaXahahaYaZaZa0a1a2a3a4a5aEa6a7a6a8a9b.amb#ak.M#N#e#e#S#e#b#b#a",
"axbabbbcbdbebfbgbhbibjbkblbmaSbnbobpbqbrbsbt.u.u.b.b.u.k#D.u#W#R",
"aL#2bubvbwbxbybzbAbBbCbDbEbFaRbGbHbIbJbKbLbMbN.l.c.b.b.b.b.c.b#E",
"bObPbQbxbRacbSbTbUbnbVbWbXbYbZb0b1b2b3b4b5b6b7b8.n.n.e.m.l.m.l.v",
"bwb9c.bRc#caaUcbcccdbAcecfcgchcicjckclcmcncocpcqcrcr.wcr.o.o.o.G",
"bRbRcsctaZcucvcwcxcyczchcAcBcCcDbmcCcEbYcFcGcHcI.w.g.g.g.g.g.g#G",
"#ZcsbucJcKcLcMcNcOcPcQcEcRcScbcTcUcVcWcXcYcZc0c1#h#G.x.x#H.h.i#H",
"bbbucLbec2bxc3c4aSc5c6c7bYc8bYc9d.bFaQd#dadbdcdd#Q.N#F#sde.q.y.s",
"bPcLbQb9df#Z#Z#ZdgdhdididididididjaQdkaXdldmdndoaL.M#M#h#i.s.r.A",
"c2dpc.#ZacdqdqdrdsdtdudididididjaQdvdwdxdydzdAdB#6dCdC#3dD#adE#.",
"df#ZadaxbadF.DdGdHdFdIaQdJdidjaQdKdLdFdFdFdFdFdMdMdMdrdNah#4#pdO",
"badP#2aYdQdRdRdSdSdTdTdUdV#wdWdXdYctdrdZd0d1d1d2dYai#5d3.a#D#Od4",
"d5aZcud6d7cKd6d8bPbdbvbed9cucJe.bObu#1cse#ahdPagd3.kaL.k.k#E#E#B",
"cLcKcKcLbebeeaebdLecedecedeebeefegedeheiehdZaiaiaiejaMekek.u.u#O",
"c2c2bwdpbwdpeldFeidGdGegeiemenecegeidFd0eid0d0eod0dCaXaM#O#B#C#q",
"epbRbR#ZdfbReqend8d8dTd8erenctesdrdxeteueueueud1e#cadN.2#D#O#O#R",
"acadaeaebbbbevbvbebfdpewbQbcevevexexexdPaedPdPdNaxdNavaLek#O#Cd4",
"azd3eyagca#1ezbfeAev#0#0c.eAbu#1#1#1caeyaXaXd3aMaMaM#O#4#N#R#R#R"};
