/* XPM */
static char *add_vertex[]={
"32 32 4 1",
". c None",
"b c #000000",
"# c #00c000",
"a c #ff0000",
"................................",
"................................",
"................................",
".............................#..",
"...........................##...",
".........................###....",
"........................###.....",
".......................####.....",
"......................####......",
".....................####.......",
"....................####........",
"...................#####........",
"..................#####.........",
"...###............####..........",
"....####.........####...........",
"......####......#####..........a",
".......####.....####..........aa",
"........#####..#####.........aa.",
".........##########.........aa..",
"..........########......bbbaa...",
"...........#######.....bbbbb....",
"............######....bbbbbbb...",
".............####.....bbbbbbb...",
".............####.....bbbbbbb...",
"..............##.......bbbbb....",
"...............#........bbb.....",
".........................aa.....",
".........................aa.....",
".........................aa.....",
".........................aa.....",
".........................aa.....",
".........................aa....."};
