/* XPM */
static char *add_vertex_cursor[]={
"32 32 3 1",
". c None",
"a c #000000",
"# c #ffffff",
"................................",
"................................",
".............................#..",
"...........................##a#.",
".........................##aa#..",
"........................#aaa#...",
".......................#aaa#....",
"......................#aaaa#....",
".....................#aaaa#.....",
"....................#aaaa#......",
"...................#aaaa#.......",
"..................#aaaaa#.......",
"...###...........#aaaaa#........",
"..#aaa##.........#aaaa#.........",
"...#aaaa##......#aaaa#..........",
"....##aaaa#....#aaaaa#..........",
"......#aaaa##..#aaaa#...........",
".......#aaaaa##aaaaa#...........",
"........#aaaaaaaaaa#............",
".........#aaaaaaaa#.............",
"..........#aaaaaaa#.............",
"...........#aaaaaa#.............",
"............#aaaa#..............",
"............#aaaa#..............",
".............#aa#...............",
"..............#a#...............",
"...............#................",
"................................",
"................................",
"................................",
"................................",
"................................"};
