/* XPM */
static char *edit_area_pos[]={
"32 32 206 2",
".# c #000000",
"ba c #000002",
".a c #00ffff",
"ar c #0d0703",
"#U c #100801",
"aN c #120502",
"bg c #131516",
"aX c #171413",
"ag c #180a01",
"bi c #1f1a17",
"#7 c #210f01",
"#H c #211001",
"aC c #21100e",
"a5 c #26251f",
"bj c #2b211c",
"bk c #2e2e2f",
"bc c #342b1d",
"bf c #382f24",
"aM c #3e3e3e",
"b# c #443e37",
"aW c #443e3a",
"aV c #494536",
"bh c #4a4533",
"bl c #4f4a37",
"aK c #5b4728",
"aU c #5c4c36",
"aL c #5e4836",
"aA c #624f30",
"b. c #644533",
"a4 c #675242",
"bd c #6e4c36",
"az c #734629",
".j c #764e2a",
".b c #764f2b",
".w c #7b5128",
"be c #7b5848",
"aq c #7d3d15",
"#6 c #7f3903",
"#i c #803a04",
"aT c #804f2f",
".p c #805430",
"a9 c #805a42",
"bb c #807255",
"#v c #833b04",
"a3 c #834f31",
"aJ c #83542f",
".D c #835829",
"aB c #843c1c",
".L c #885a2f",
"#G c #8b4004",
"#T c #8d4004",
"af c #944504",
"ay c #94511c",
"a2 c #965534",
"aS c #9c5630",
"aI c #a15e3a",
"ap c #a24d0f",
"#u c #a34e04",
".1 c #a35e28",
"#S c #a44a04",
"#5 c #a54b04",
"ao c #a6550d",
"#F c #a74c04",
"ae c #a84d03",
".9 c #a84f04",
"#h c #aa5004",
"ax c #ab6539",
".T c #af723a",
"a6 c #b48e6c",
"#t c #b75604",
"#E c #b85804",
"#g c #b85904",
"#. c #b8824c",
"ad c #b95600",
"#R c #b95804",
"#4 c #ba5904",
"an c #bb602e",
"Qt c #c00000",
"al c #c18064",
".0 c #c35f04",
"aw c #c57e5d",
"am c #c76227",
"aR c #c77e5c",
"a8 c #c7825b",
"aH c #cc8062",
"a1 c #d18260",
"a7 c #db9770",
"ak c #dc946e",
"#M c #e07733",
"a# c #e07950",
"#j c #e29558",
"aG c #e29a7e",
"#0 c #e37630",
"aa c #e56430",
"#A c #e5884c",
"av c #e69e7c",
"ac c #e76d24",
"#s c #e77604",
"## c #e99d53",
".2 c #e99d54",
"#3 c #ea7a00",
".c c #ea9d53",
".E c #ea9d54",
"a0 c #eaa282",
"#Q c #eb7a04",
".q c #eb9d53",
".k c #eb9d54",
"aQ c #eb9e77",
".8 c #ec7804",
"#f c #ee7a04",
"#z c #efc1ae",
"#l c #f0ad82",
"#1 c #f1780a",
".Z c #f17b04",
"#D c #f17c03",
"a. c #f1ad8c",
"#L c #f2af97",
"ab c #f3712f",
".s c #f6ddae",
".m c #f6eab7",
"#N c #f78403",
"#Z c #f7ac84",
"#k c #f7bb7a",
".y c #f7deb0",
"aP c #f8d1be",
"aj c #f9b99a",
".h c #f9efbc",
"#V c #fab28f",
"#x c #fadcbb",
".S c #fb8104",
".g c #fbb168",
".M c #fbb169",
"#w c #fbb390",
"aD c #fbb490",
"#m c #fcab7f",
".l c #fcb269",
".U c #fcb26a",
".A c #fd7d00",
".P c #fd7e00",
"#d c #fd7f00",
"#o c #fd8000",
".I c #fd8300",
".B c #fd8400",
".v c #fd8401",
".6 c #fd8500",
"#B c #fd8502",
"#p c #fd8503",
".Q c #fd8504",
"#q c #fd8704",
".5 c #fd932e",
"#c c #fd9524",
".W c #fd982e",
".O c #fda141",
".i c #fda732",
".3 c #fdb36a",
".e c #fdb46a",
"#a c #fdb47e",
"aY c #fdb492",
"#b c #fdbe7a",
".4 c #fdd49c",
".N c #fddcb1",
".H c #fe7f00",
".7 c #fe8604",
".o c #fe8800",
".X c #fe8804",
".x c #feb369",
".r c #feb36a",
".V c #fecd9f",
".F c #fed7b7",
"#K c #fee2cd",
".d c #ff0000",
"#2 c #ff7b16",
".C c #ff8601",
"#C c #ff8604",
".J c #ff8701",
"#O c #ff8703",
".u c #ff8900",
"#e c #ff8b04",
".R c #ff8c01",
"#r c #ff8d03",
"#n c #ff8d17",
".Y c #ff8e04",
"#P c #ff9002",
".K c #ff9101",
".G c #ffa030",
".z c #ffa036",
".t c #ffa13a",
".n c #ffa630",
"#Y c #ffc0a0",
"au c #ffc9ad",
"aF c #ffc9b0",
"#I c #ffd0a8",
"ai c #ffd1b1",
"aO c #ffd2aa",
"as c #ffd3aa",
"#9 c #ffd7b5",
"aZ c #ffe1c9",
"at c #ffeace",
"#X c #ffeed8",
"aE c #fff5dc",
"#8 c #fff7df",
"#J c #fff9f0",
"#y c #fffbdf",
".f c #fffecc",
"#W c #fffff4",
"ah c #fffff5",
"QtQtQtQtQtQtQtQtQtQtQtQtQt.#.#.a.a.a.a.a.a.a.a.a.a.a.a.a.a.a.b.c",
"QtQtQtQtQtQtQtQtQtQtQt.#.#.#.a.a.a.a.a.a.d.d.d.d.d.d.d.a.a.b.c.e",
"QtQtQtQtQtQtQtQtQtQt.#.#.a.a.a.a.a.a.a.d.a.a.a.a.a.a.d.a.b.c.e.f",
"QtQtQtQtQtQtQtQtQt.#.#.a.a.a.a.a.a.a.d.a.a.a.a.a.a.a.d.b.c.g.h.i",
"QtQtQtQtQtQtQtQt.#.#.a.a.a.a.a.a.a.d.a.a.a.a.a.a.a.a.j.k.l.m.n.o",
"QtQtQtQtQtQtQt.#.#.a.a.a.a.a.a.a.d.a.a.a.a.a.a.a.a.p.q.r.s.t.u.v",
"QtQtQtQtQtQtQt.#.a.a.a.a.a.a.a.d.a.a.a.a.a.a.a.a.w.c.x.y.z.A.B.C",
"QtQtQtQtQtQtQt.#.a.a.a.a.a.a.a.d.a.a.a.a.a.a.a.D.E.x.F.G.H.I.J.K",
"QtQtQtQtQtQt.#.#.a.a.a.a.a.a.a.d.a.a.a.a.a.a.L.E.M.N.O.P.B.Q.R.S",
"QtQtQtQtQtQtQt.#.a.a.a.a.a.a.a.d.a.a.a.a.a.T.c.U.V.W.P.B.X.Y.Z.0",
".#.#.#QtQtQtQt.#.a.a.a.a.a.a.a.d.a.a.a.a.1.2.3.4.5.A.6.7.Y.8.0.9",
".a.a.a.#QtQtQt.#.a.a.a.a.a.a.a.d.a.a.a#.###a#b#c#d.6.7#e#f#g#h#i",
".a.a.a.#.#QtQt.#.#.a.a.a.a.a.a.d.a.a#j#k#l#m#n#o#p#q#r#s#t#u#v.#",
".a.a.a.a.#QtQtQt.#.a.a.a.a.a.a.d.a#w#x#y#z#A#o#B#C.Y#D#E#F#G#H.a",
".a.a.a.a.#QtQtQt.#.a.a.a.a.a.a.d.d#I#J#K#L#M#N#O#P#Q#R#S#T#U.a.a",
".a.a.a.a.#QtQtQt.#.#.a.a.a.a.a.a#V#W#X#Y#Z#0#1#2#3#4#5#6#7.a.a.a",
".a.a.a.a.#.#QtQtQt.#.a.a.a.a.a.a#I#8#9a.a#aaabacadaeafag.a.a.a.a",
".a.a.a.a.a.#QtQtQt.#.#.a.a.a.a#Vahaiajakalamanaoapaqar.a.a.a.a.a",
".a.a.a.a.a.a.#QtQtQt.#.a.a.#.#asatauavawaxayazaAaBaC.a.a.a.a.a.a",
".a.a.a.a.a.a.#QtQtQt.#.a.a.aaDaEaFaGaHaIaJaKaLaMaN.a.a.a.a.a.a.a",
".a.a.a.a.a.a.#.#Qt.#.#.a.a.aaOaPaQaRaSaTaUaVaWaX.a.a.a.a.a.a.a.a",
".a.a.a.a.a.a.a.#.#.#.a.a.aaYaZa0a1a2a3a4a5.#.a.a.a.a.a.a.a.a.a.a",
".a.a.a.a.a.a.a.#.#.a.a.a.aa6a7a8a9b.b#ba.a.a.a.a.a.a.a.a.a.a.a.a",
".a.a.a.a.a.a.#.#.a.a.a.abbbcbdbebfbg.a.a.a.a.a.a.a.a.a.a.a.a.a.a",
".a.a.a.a.a.a.a.a.a.a.a.abhbibj.#.a.a.a.a.a.a.a.a.a.a.a.a.a.a.a.a",
".a.a.a.a.a.a.a.a.a.a.abk.#.#.a.a.a.a.#.#.a.a.a.a.a.a.a.a.a.a.a.a",
".a.a.a.a.a.a.a.#.#.#.abl.a.a.a.a.a.a.a.a.#.a.a.a.a.a.a.a.a.a.a.a",
".a.a.#.a.a.#.#.#.#.#.#.#.#.a.a.a.a.a.a.a.a.#.#.a.a.a.a.a.a.a.a.a",
".a.#.#.a.a.a.#.#.#QtQtQt.#.#.#.a.a.a.a.a.a.a.a.a.#.a.a.a.a.a.a.a",
".a.#.a.a.a.a.a.a.#.#.#.#QtQt.#.#.a.a.a.a.a.a.a.a.a.#.#.a.a.a.a.a",
".a.a.a.a.a.a.a.a.a.a.a.#.#QtQt.#.#.#.a.a.a.a.a.a.a.a.a.#.a.a.a.a",
".a.a.a.a.a.a.a.a.a.a.a.a.#.#QtQtQt.#.#.a.a.a.a.a.a.a.a.a.a.a.a.a"};
