/* XPM */
static char *copy_area_cursor[]={
"32 32 3 1",
". c None",
"a c #000000",
"# c #ffffff",
"................................",
"#########################.......",
"#aaaaaaaaaaaaaaaaaaaaaaa#.......",
"#aaaaaaaaaaaaaaaaaaaaaaa#.......",
"#aa###################aa#.......",
"#aa#.................#aa#.......",
"#aa#.................#aa#.......",
"#aa#.................#aa#.......",
"#aa#.................#aa#.......",
"#aa#.................#aa#.......",
"#aa#.................#aa#.......",
"#aa#.................#aa#.......",
"#aa#..################aa########",
"#aa#..#aaaaaaaaaaaaaa#aa#aaaaaa#",
"#aa#..#aaaaaaaaaaaaaa#aa#aaaaaa#",
"#aa#..#aa#############aa#####aa#",
"#aa###################aa#...#aa#",
"#aaaaaaaaaaaaaaaaaaaaaaa#...#aa#",
"#aaaaaaaaaaaaaaaaaaaaaaa#...#aa#",
"#########################...#aa#",
"......#aa#..................#aa#",
"......#aa#..................#aa#",
"......#aa#..................#aa#",
"......#aa#..................#aa#",
"......#aa#..................#aa#",
"......#aa#..................#aa#",
"......#aa#..................#aa#",
"......#aa####################aa#",
"......#aaaaaaaaaaaaaaaaaaaaaaaa#",
"......#aaaaaaaaaaaaaaaaaaaaaaaa#",
"......##########################",
"................................"};
