/* XPM */
static char *delete_vertex_cursor[]={
"32 32 3 1",
". c None",
"a c #000000",
"# c #ffffff",
"................................",
"..#.............................",
".#a#............................",
".#aa#...................####....",
".#aaa##...............##aaaa#...",
"..#aaaa##...........##aaaaaa#...",
"...#aaaaa#.........#aaaaaaaa#...",
"...#aaaaaa#.......#aaaaaaaa#....",
"....#aaaaaa#.....#aaaaaaa##.....",
".....#aaaaaa#...#aaaaaa##.......",
".....#aaaaaaa#.#aaaaa##.........",
"......##aaaaaa#aaaaaa#..........",
".......#aaaaaaaaaaaa#...........",
"........#aaaaaaaaaa#............",
".........#aaaaaaaa#.............",
"..........#aaaaaaa#.............",
".........#aaaaaaaaa#............",
"........#aaaaaaaaaaa#...........",
".......#aaaaaa##aaaaa#..........",
"......#aaaaa##..#aaaaa#.........",
".....#aaaaa#.....#aaaaa#........",
".....#aaaa#.......#aaaaa#.......",
"....#aaaa#.........#aaaaa#......",
"...#aaaa#...........#aaaaa#.....",
"...#aaa#.............#aaaaa#....",
"..#aaaa#..............#aaaa#....",
"..#aaa#................#aaaa#...",
"..#aa#..................#aaaa#..",
"...##....................#aaa#..",
"..........................#aaa#.",
"...........................###..",
"................................"};
