/* XPM */
static char *displayfeature[]={
"34 34 551 2",
"Qt c None",
"d0 c #000024",
"aK c #000028",
"bP c #000126",
"#u c #000128",
"bt c #00012a",
"eH c #000226",
"bQ c #00022a",
"#U c #00022c",
"ai c #00032c",
"aL c #00032e",
"dy c #00042a",
"cY c #00042c",
"gg c #00042e",
"da c #00052c",
"cL c #00062c",
"cj c #000630",
"gw c #000634",
"aJ c #000732",
"fE c #000836",
".8 c #000a3c",
"f0 c #000b36",
"bs c #000b38",
"ec c #000b3a",
"eG c #000b3c",
"#t c #000c3a",
"gI c #000d3c",
"gv c #000f3a",
"c7 c #001022",
"ag c #001142",
"gx c #00174c",
"c3 c #001b3d",
"dZ c #001b52",
"e# c #001d44",
"bO c #001d4c",
"eZ c #001e5a",
"gH c #002358",
"dW c #00264c",
"dX c #002832",
"gp c #00292e",
"gq c #002958",
"gG c #002a5a",
"dI c #002b44",
"ea c #002c5a",
"ct c #002e1e",
"a8 c #002e62",
"gy c #002e68",
"e. c #002e6c",
"dH c #00316e",
"gm c #00325c",
"cg c #003614",
"gn c #003770",
"gr c #00377c",
"gz c #003974",
"b5 c #003a66",
"gF c #003a70",
"go c #003b64",
"a6 c #003b84",
"bp c #003c40",
"gA c #003d6c",
"gk c #004280",
"f5 c #00428c",
"ep c #004294",
"cT c #004396",
"gl c #00458c",
"eg c #0046d6",
"a5 c #00478a",
"dJ c #004866",
"dY c #00488c",
"dt c #004892",
"dh c #004994",
"f6 c #00499c",
"cG c #004ba8",
"bo c #004dac",
"cr c #004f98",
"cK c #005160",
"eq c #0051a4",
"b4 c #005451",
"eb c #0054aa",
"d4 c #0054de",
"ce c #00557c",
"dj c #005692",
"dv c #00569e",
"f7 c #0056c0",
"eK c #0059de",
"bq c #005a40",
"cX c #005a6a",
"et c #005ae2",
"cv c #005b72",
"du c #005bc2",
"dP c #005bd6",
"dc c #005de8",
"dD c #005eea",
"aH c #005fa8",
"aI c #005fb8",
"dn c #0060e2",
"cO c #0062e8",
"dA c #0063ea",
"dp c #0064ec",
"bn c #0065ee",
"bN c #00668c",
"a7 c #0066ae",
"e2 c #0067da",
"c0 c #0067f4",
"cy c #006aee",
"de c #006bf0",
"bS c #006cf2",
"d2 c #006cfe",
"af c #006d96",
"bJ c #006df4",
"dM c #0071f0",
"cm c #0072f2",
"b1 c #007462",
"df c #0074f6",
"cN c #0075f8",
"bK c #007664",
"b7 c #0076ee",
"#R c #0077a8",
"dQ c #0077f0",
"b0 c #0078f2",
"d1 c #0079be",
"cQ c #007af6",
"ba c #008cee",
"aO c #0090da",
"#p c #00a681",
"ah c #010026",
".9 c #010028",
"c9 c #013f21",
"e0 c #02001a",
"gK c #020022",
"a9 c #020024",
"#T c #020028",
"er c #02307c",
"b3 c #025000",
"ci c #02577e",
"ch c #02582f",
"e1 c #0270d6",
"d. c #027254",
"dr c #0276f8",
"aG c #027845",
"eI c #03001e",
".O c #030022",
"gJ c #030024",
".x c #030026",
"c8 c #031122",
"dG c #033d7f",
"#S c #034685",
"gj c #034e8d",
"cx c #0374ff",
"ef c #037aff",
"gf c #041a46",
"fF c #042766",
"dV c #043e86",
"dK c #044578",
"e3 c #046df0",
"gh c #052965",
".N c #052e73",
"fh c #053577",
"dC c #056ceb",
"dq c #0577f7",
"bw c #0586ff",
"a4 c #059f92",
"fZ c #062954",
"c4 c #072540",
"bM c #074d0a",
"cu c #075f2a",
"br c #076089",
".3 c #0782ff",
"f1 c #083778",
"gD c #085088",
"cI c #085821",
"cW c #086234",
"dw c #087463",
"gu c #092d5d",
"d# c #096275",
"gE c #0a4d86",
"cJ c #0a5421",
"di c #0a5dba",
"cU c #0a5ea6",
"bL c #0a6a2c",
"ae c #0a7e51",
"fg c #0b356d",
"fD c #0b3769",
"#q c #0b8976",
"b6 c #0b89ff",
"gi c #0c4484",
"gB c #0c5186",
"fH c #0c5bac",
"cf c #0c6c32",
"dx c #0d576d",
"cV c #0d7534",
"aF c #0db10d",
"gC c #0e558c",
"fG c #0e57aa",
"c1 c #0e78fa",
"dk c #0e8260",
"cH c #0f507d",
".7 c #0f5285",
"bx c #0fa2ff",
"#P c #0fbf41",
"gs c #10548e",
"#Q c #109461",
"#s c #11699b",
"d9 c #116abd",
"b2 c #117532",
"a2 c #11b9f7",
"cs c #12544d",
"eY c #125aa4",
".5 c #128afa",
"ge c #133e63",
"fY c #135185",
"dl c #13616d",
"dO c #136ae1",
"cl c #1382ff",
"cR c #138dff",
"#H c #143e35",
"ff c #155393",
"eF c #15549b",
"f2 c #155999",
"dN c #156ee7",
"#r c #1585a1",
"eJ c #1585af",
".J c #1594ff",
"#o c #15efc8",
"fi c #166fc2",
"ft c #172514",
"eX c #1756a3",
"f3 c #175fa9",
"fj c #1767b9",
"cB c #17c0ff",
"f8 c #186a9e",
".w c #191137",
"eo c #195fad",
"g. c #196679",
".4 c #198bff",
".I c #19a0ff",
"f9 c #1a5739",
"eE c #1a5aa2",
"es c #1a779e",
"fC c #1b558b",
"cA c #1b9cff",
"b# c #1ba1ff",
"gt c #1c486e",
"ab c #1cd8cd",
"g# c #1d57b7",
"fe c #1d5ea7",
"f4 c #1d67b3",
"bI c #1d8dff",
"bR c #1d9dff",
"cM c #1da7ff",
"fk c #1e5cba",
"d3 c #1e6bd4",
"ad c #1ea62b",
"fQ c #1f2817",
"ed c #1f4065",
"dB c #1f77e3",
"eu c #1f98ff",
"cZ c #1fa3ff",
"ee c #1fb2ff",
"#O c #1feb5d",
"em c #204687",
"gd c #205790",
"cd c #2059dd",
"aD c #20d9e0",
"d5 c #2194ff",
"db c #219eff",
"bT c #21aeff",
"ac c #21dd3c",
"a3 c #22e4d4",
"fI c #23609f",
"ak c #23c3ff",
"fB c #245aa4",
"fX c #2461a0",
"do c #2481ea",
"eB c #2665ac",
"eD c #2666ae",
"dd c #268af0",
"#7 c #273f21",
"eA c #2763ad",
".v c #2778c3",
"bm c #279cff",
"dm c #27abff",
".G c #29b1ff",
".K c #29b6ff",
"aE c #29f34b",
".H c #2bb2ff",
"#j c #2bcfff",
"en c #2c68ac",
".L c #2caafa",
"eW c #2d6bb1",
"cw c #2dadff",
"aP c #2de94c",
"fA c #2e63a4",
"e4 c #2f90fd",
"cz c #2fa9ff",
"dE c #3057c3",
"fo c #307be2",
"fd c #316bad",
"dR c #31a5ff",
".6 c #3293bc",
".M c #3293ee",
"fW c #3362a1",
"ga c #3363a5",
"a1 c #339bf0",
"gc c #3563a1",
"eN c #359eff",
"eh c #35a7ff",
"aA c #35b0ff",
"dL c #35c8ff",
"fz c #3668a6",
"eC c #366fb0",
"al c #36ec76",
"fV c #3761a1",
"ew c #379fff",
"fM c #38629a",
"#M c #38dfee",
"#N c #38f689",
"fL c #396299",
"dU c #3a529c",
"ex c #3ba0ff",
".o c #3bb7ff",
"fU c #3c639e",
"fn c #3c85e0",
"gb c #3d639b",
"c2 c #3db4ff",
"fT c #3f64a7",
"fc c #3f74af",
"e6 c #3fa7ff",
"dz c #3fbdff",
"cq c #4049b6",
"fS c #405da8",
"ej c #4094f0",
"fJ c #4169a5",
"fy c #4171b3",
"eV c #4175b5",
"eO c #41a8ff",
"#n c #41d4ff",
"bb c #42ee5b",
"e5 c #43a4ff",
"eM c #43a9ff",
".q c #43baff",
"b8 c #43c8ff",
".2 c #45aeff",
"bv c #45bbff",
"aN c #45bfff",
"fp c #468ade",
"aC c #47bcff",
"fl c #4886d2",
"eU c #4978b9",
"fN c #4a64a0",
"fw c #4a6dac",
"ev c #4bacff",
"fx c #4d74a5",
"fb c #4d7ab7",
"aB c #4dc2ff",
"#Y c #4ee6f0",
"eL c #4faeff",
".p c #4fbfff",
"az c #50a4cf",
"fv c #517e89",
"fm c #5190e5",
".s c #51bfff",
"cP c #51c4ff",
".r c #51c8ff",
"ck c #53ccff",
"fa c #557db3",
".t c #58c2fe",
"fO c #5979b5",
".n c #59c7e3",
"#m c #5ac2fe",
"#y c #5ad6fe",
"e7 c #5cb4fe",
"ei c #5cb8fe",
".1 c #5cbffe",
"aa c #5ccefe",
"eT c #5d6897",
"fK c #5e7baa",
"fR c #5e8466",
"#L c #5ebcfe",
"#i c #5ec0fe",
"a0 c #5f7ac0",
"#G c #5ffdd2",
"fu c #609646",
".j c #628c89",
"d6 c #64c2fe",
"fq c #6692ea",
".0 c #66bcfe",
"#I c #67f3b6",
"a# c #6ac1fe",
".i c #6ac8c5",
"a. c #6be1f7",
"d7 c #6c80bf",
"#l c #6edefe",
"dF c #703c64",
".F c #70cafe",
".u c #70dbfe",
"#k c #70fee1",
"fP c #769a94",
"by c #76fe89",
"#W c #77ed98",
"f# c #78698a",
"#z c #78f1f6",
"#Z c #79fdbd",
"#D c #7bf993",
".Z c #7ec0fe",
".h c #7ff1ed",
"#K c #7ff1ef",
"d8 c #80284d",
"fs c #82bd5f",
"fr c #84c8c6",
".E c #85d8f3",
"cn c #87dcff",
".D c #88ddea",
"bZ c #89447f",
".d c #89d4ff",
".B c #89e1e9",
"bU c #89f1d5",
"#e c #8aecb1",
"cp c #8be5ff",
"#V c #8ffde2",
".g c #8ffffb",
"#F c #91f9c2",
".c c #93dfff",
"#C c #93fbb5",
".e c #95e2ff",
"bH c #963870",
"c# c #96f3fe",
".f c #97efff",
".C c #98dfe6",
"#X c #98fac4",
"#6 c #9dfc8e",
"#h c #9edbfe",
"#a c #9fe0f1",
"f. c #a25b69",
"#d c #a2f2d7",
"bu c #a2f7fe",
"#E c #a3fd97",
"eS c #a43852",
"e8 c #a4bae0",
"#b c #a4e8fe",
".S c #a4e9fa",
"#9 c #a4fc9a",
"#A c #a4fedb",
"bl c #a6385f",
"e9 c #a890c0",
".m c #a8e2d2",
"#0 c #aafeb4",
"b. c #abf6ff",
"b9 c #ace3fa",
"#x c #aceebc",
"#B c #adfbe9",
"#g c #aff1e4",
"aM c #aff8ff",
"aj c #b1f5ff",
"am c #b2f8e0",
".z c #b3f3e5",
"co c #b3ffb1",
"an c #b5f0ff",
"#c c #b7ebff",
"#1 c #b7ffc8",
".l c #b8eae3",
"#f c #b8f3b3",
"#8 c #b9ff93",
".A c #baecd7",
"## c #baecfe",
".Y c #bcd9fe",
"c5 c #bf999f",
"ds c #c01e3f",
"#w c #c1f1dc",
".R c #c1f1e5",
"dg c #c22040",
"eP c #c2637f",
"cc c #c3617f",
"bW c #c4feea",
"cS c #c53724",
"ek c #c5465f",
"ey c #c65a70",
"aQ c #c7fde4",
"ao c #c8faf8",
".W c #c9ecf3",
"aw c #ca9f97",
"#J c #cafea0",
".b c #ccfefe",
".k c #cef2ed",
".U c #d0e9f4",
".V c #d0ebf4",
"el c #d11021",
"#. c #d1f3d7",
".Q c #d3f7ef",
"ay c #d43d2c",
"cC c #d43e39",
"ez c #d8121e",
"#3 c #d8febe",
"aZ c #d95160",
"dS c #da5060",
"eQ c #db6e7f",
"#2 c #dbffc5",
"c. c #dcfea0",
".y c #ddf9ef",
"bV c #deffaf",
"aR c #e0f7fe",
"dT c #e36b75",
".X c #e6eef2",
"eR c #e97073",
".T c #eaf2f6",
"at c #eafeca",
"#5 c #ebfebc",
"bc c #ebffe9",
"ap c #ecfaf6",
"ca c #ed7e68",
"bA c #edfbed",
"aq c #effde9",
"av c #f04024",
".a c #f1fafb",
"#4 c #f1ffc7",
"ax c #f24023",
"as c #f2ffcf",
"#v c #f3feff",
"bX c #f7bfac",
"aW c #f87f71",
"be c #f8fcfa",
"bf c #f8fcfb",
"bz c #f8ffd7",
"au c #f94030",
"bB c #f9fbf7",
"aS c #f9fbfd",
"ar c #faffe1",
"bC c #fb9e9e",
"aV c #fbbfb4",
"bg c #fc9e9d",
"aU c #fcfcfc",
"bd c #fdfafe",
"aT c #fefbff",
".P c #fefefe",
"bY c #ff0000",
"bD c #ff1010",
"bh c #ff2020",
"bG c #ff3030",
"bk c #ff3f3f",
"aX c #ff4040",
"cE c #ff5f5f",
"c6 c #ff6060",
"aY c #ff7070",
"cb c #ff7f7f",
"cF c #ff8f8f",
"bF c #ff9f9f",
"bi c #ffbfbf",
"bE c #ffcfcf",
"bj c #ffdfdf",
"cD c #ffefef",
".# c #ffffff",
"QtQtQtQtQtQtQtQtQtQtQt.#.a.b.c.d.e.f.g.h.i.jQtQtQtQtQtQtQtQtQtQtQtQt",
"QtQtQtQtQtQtQtQtQt.#.#.k.l.m.n.o.p.q.r.s.t.u.v.w.xQtQtQtQtQtQtQtQtQt",
"QtQtQtQtQtQtQtQt.#.y.z.A.B.C.D.E.F.G.H.I.J.K.L.M.N.OQtQtQtQtQtQtQtQt",
"QtQtQtQtQtQt.#.P.Q.R.S.T.U.V.W.X.Y.Z.0.1.2.3.4.5.6.7.8.9QtQtQtQtQtQt",
"QtQtQtQtQt.P#.###a#b#c#d#e#f#g#h#i#j#k#l#m#n#o#p#q#r#s#t#uQtQtQtQtQt",
"QtQtQtQt#v#w#x#y#z#A#B#C#D#E#F#G#H#I#J#K#L#M#N#O#P#Q#R#S#T#UQtQtQtQt",
"QtQtQtQt#V#W#X#Y#Z#0#1#2#3#4#5#6#7#8#9a.a#aa.HabacadaeafagahaiQtQtQt",
"QtQtQtajakalamanaoapaqarasatauavawaxayazaAaBaCaDaEaFaGaHaIaJaKaLQtQt",
"QtQtaMaNaOaPaQaRaSaTaUaVaWaX.#.#aX.#.#aYaZa0a1a2a3a4a5a6a7a8a9aiQtQt",
"QtQtb.b#babbbcbdbebfbgbhbi.#.#.#aX.#.#.#bjbkbl.JbmbnbobpbqbrbsbtQtQt",
"QtbubvbwbxbybzbAbBbCbDbE.#.#bEaXbFaXbF.#.#bjbGbHbIbJbKbLbMbNbObPbQQt",
"QtbubRbSbTbUbVbWbXbhbE.#bjbGbYbYbibYbYbYbE.#.#bGbZb0b1b2b3b4b5bQbtbQ",
"Qt#lb6b7b8b9c.c#cabi.#bjbkbYbhcbcbcbbkbYbhbi.#bjcccdcecfcgchcicjbtbQ",
"QtckclcmbTcncocpaX.#.#bGbYbYbE.#aX.#bjbGbYbhbE.#cbcqcrcsctcucvcjbtbQ",
"QtcwcxcyczcAcBcC.#.#bEbYbhbEcDcEbibGbj.#bGbYcF.#.#aXcGcHcIcJcKcLbtbQ",
"QtcMcNcOcPcQcRcS.#.#aXbYcb.#cEbYbibYbkbjbibYbY.#.#aXcTcUcVcWcXcYbtbQ",
"QtcZc0c1c2c3c4c5aXaXbFbicbaXbibic6bibic6c6bibiaXaXbFc7c8c9d.d#dabtbQ",
"Qtdbdcdddedf.3dg.#.#aXbYcb.#bGbYbibYbhbEbibYbY.#.#aXdhdidjdkdlcYbtbQ",
"Qtdmdndodpdqdrds.#.#bFbYbkbjbjbkbibhbi.#cEbYcE.#.#aXdtdudvdwdxdybtbQ",
"QtdzdAdBdpdCdDdEaY.#.#bYbYbG.#bjc6bE.#aYbYbYbi.#bFdFdGdHdIdJdKaibtbQ",
"QtdLdMdNdOdPdQdRdSbj.#bEbhbYbGbic6bicEbYbDbF.#cDdTdUdVdWdXdYdZd0bQbQ",
"Qtd1b6d2d3d4d5d6d7bkbj.#bibhbYbYbibYbYbYbF.#.#cEd8d9e.e#eaebecaKbQbQ",
"QtedeeefegdAeheiejekbG.#.#bEcFbYbibYcEbi.#.#aYelemeneoepeqer#ubtbQbQ",
"QtQtesbTdDeteuevewexeybGbj.#.#.#aX.#.#.#cDcEezeAeBeCeDeEeFeGeHbQaibQ",
"QtQteIeJcReK.3eLeMeNeOePeQcb.#.#aX.#.#bFeReSeTeUeVeWeXeYeZd0btbQ#UQt",
"QtQtQte0e1e2e3e4eLe5e6e7e8e9aXaXbFaXaXf.f#fafbfcfdfefffgbP#ubQaiQtQt",
"QtQtQta9fhfifjfkflfmfnfofpfqfrfsftfufvfwfxfyfzfAfBfCfDfEeHbQbQ#UQtQt",
"QtQtQtQt#ufFfGfHfIfJfKfLfMfNfOfPfQfRfSfTfUfVfWfXfYfZdaeHbtbQaiQtQtQt",
"QtQtQtQtQtd0f0f1f2f3f4f5f5f6f7f8f9g.g#gagbgcgdgegfahaKbQbQbQ#UQtQtQt",
"QtQtQtQtQtaibPggghgigjgkglgmgngogpgqgrdtgsgtgugvbt#ubQbQbQaiQtQtQtQt",
"QtQtQtQtQtQtQt#ubtgwgxgygzgAgBgCgDgEgFgGgHgIbQeHbtbQbQai#UQtQtQtQtQt",
"QtQtQtQtQtQtQtQtbQaKbPd0a9gJ.O.O.OgKa9d0bPaKbtbQbQbQaiQtQtQtQtQtQtQt",
"QtQtQtQtQtQtQtQtQt#UaibQbQbQbQbQbQbQbQbQbQbQbQbQbQbQ#UQtQtQtQtQtQtQt",
"QtQtQtQtQtQtQtQtQtQtQtbQbQbQbQbQbQbQbQbQbQbQbQbQbQQtQtQtQtQtQtQtQtQt"};
