/* XPM */
static char * display_iss60_area_xpm[] = {
"34 34 355 2",
"  	c None",
". 	c #FEFEFE",
"+ 	c #F7F7F7",
"@ 	c #F2F2F2",
"# 	c #D0D0D0",
"$ 	c #C6C6C6",
"% 	c #D2D2D2",
"& 	c #DCDCDC",
"* 	c #E6E6E6",
"= 	c #D8D8D8",
"- 	c #B3B3B3",
"; 	c #818181",
"> 	c #E9E9E9",
", 	c #DEDEDE",
"' 	c #D3D3D3",
") 	c #B0B0B0",
"! 	c #A0A0A0",
"~ 	c #AAAAAA",
"{ 	c #A5A5A5",
"] 	c #B2B2B2",
"^ 	c #ABABAB",
"/ 	c #AEAEAE",
"( 	c #C5C5C5",
"_ 	c #6B6B6B",
": 	c #141414",
"< 	c #020202",
"[ 	c #F1F1F1",
"} 	c #E3E3E3",
"| 	c #CDCDCD",
"1 	c #CFCFCF",
"2 	c #CACACA",
"3 	c #C7C7C7",
"4 	c #B9B9B9",
"5 	c #989898",
"6 	c #9A9A9A",
"7 	c #898989",
"8 	c #7F7F7F",
"9 	c #9C9C9C",
"0 	c #949494",
"a 	c #848484",
"b 	c #292929",
"c 	c #FDFDFD",
"d 	c #EDEDED",
"e 	c #E5E5E5",
"f 	c #DADADA",
"g 	c #EFEFEF",
"h 	c #EBEBEB",
"i 	c #D4D4D4",
"j 	c #B5B5B5",
"k 	c #ADADAD",
"l 	c #6F6F6F",
"m 	c #7A7A7A",
"n 	c #777777",
"o 	c #808080",
"p 	c #464646",
"q 	c #0B0B0B",
"r 	c #06FF00",
"s 	c #CAFDC9",
"t 	c #34FA30",
"u 	c #0AFE04",
"v 	c #0EFD08",
"w 	c #2CF827",
"x 	c #ADE7AC",
"y 	c #D1D1D1",
"z 	c #B3E6B2",
"A 	c #33F82E",
"B 	c #09FE04",
"C 	c #0CFB06",
"D 	c #24F01F",
"E 	c #AAE4A9",
"F 	c #AFAFAF",
"G 	c #B6B6B6",
"H 	c #71D76F",
"I 	c #16ED10",
"J 	c #07FC01",
"K 	c #12ED0C",
"L 	c #448143",
"M 	c #0C0C0C",
"N 	c #020501",
"O 	c #FAFAFA",
"P 	c #2AFA25",
"Q 	c #0BFE06",
"R 	c #6BDB69",
"S 	c #86E584",
"T 	c #5DF55A",
"U 	c #A3EEA2",
"V 	c #DFDFDF",
"W 	c #D6D6D6",
"X 	c #29F924",
"Y 	c #79E876",
"Z 	c #82E180",
"` 	c #54EC51",
" .	c #A6F0A4",
"..	c #7BD279",
"+.	c #40E63C",
"@.	c #5DB75A",
"#.	c #3BB938",
"$.	c #498A47",
"%.	c #3B3B3B",
"&.	c #037901",
"*.	c #E2E2E2",
"=.	c #15FC0F",
"-.	c #A7CDA6",
";.	c #EAEAEA",
">.	c #16FE11",
",.	c #BDE3BC",
"'.	c #DBDBDB",
").	c #E7E7E7",
"!.	c #E1E1E1",
"~.	c #2CEF27",
"{.	c #1DEE18",
"].	c #A9AEA9",
"^.	c #A1ADA1",
"/.	c #616161",
"(.	c #575757",
"_.	c #07D702",
":.	c #05F000",
"<.	c #050504",
"[.	c #A4A4A4",
"}.	c #35ED31",
"|.	c #1DFD18",
"1.	c #69FA65",
"2.	c #E6F6E5",
"3.	c #FBFBFB",
"4.	c #44FC40",
"5.	c #1CFC17",
"6.	c #65F661",
"7.	c #BDCEBD",
"8.	c #A9A9A9",
"9.	c #0BFC06",
"0.	c #17F512",
"a.	c #0EFB08",
"b.	c #1FE41B",
"c.	c #4F6C4E",
"d.	c #4F4F4F",
"e.	c #07FA01",
"f.	c #06D801",
"g.	c #050505",
"h.	c #2CFB27",
"i.	c #A8A8A8",
"j.	c #757575",
"k.	c #A9B8A8",
"l.	c #76F673",
"m.	c #34FC2F",
"n.	c #07FE01",
"o.	c #5EFD5A",
"p.	c #E3F2E2",
"q.	c #77F774",
"r.	c #33FB2E",
"s.	c #44E340",
"t.	c #08FC02",
"u.	c #08FD02",
"v.	c #5FBF5D",
"w.	c #5FDB5C",
"x.	c #17BD13",
"y.	c #333333",
"z.	c #0BDD06",
"A.	c #2BFA26",
"B.	c #8A8A8A",
"C.	c #B9BFB9",
"D.	c #F9F9F9",
"E.	c #D3FAD2",
"F.	c #35FE30",
"G.	c #F3F9F3",
"H.	c #F5F5F5",
"I.	c #F3F3F3",
"J.	c #BCE4BC",
"K.	c #27F022",
"L.	c #B4B4B4",
"M.	c #1CF017",
"N.	c #16ED11",
"O.	c #848C84",
"P.	c #11DA0D",
"Q.	c #2E2E2E",
"R.	c #0FE00A",
"S.	c #0AF404",
"T.	c #0A0B0A",
"U.	c #030402",
"V.	c #20EF1B",
"W.	c #727272",
"X.	c #888888",
"Y.	c #1CFA17",
"Z.	c #77FC74",
"`.	c #9EF99C",
" +	c #72FB6E",
".+	c #FCFCFC",
"++	c #20FE1B",
"@+	c #75FA72",
"#+	c #9CF79A",
"$+	c #62EB5E",
"%+	c #4EEE4B",
"&+	c #A1A1A1",
"*+	c #55D052",
"=+	c #3EB23C",
"-+	c #38C735",
";+	c #2AB827",
">+	c #505050",
",+	c #20971D",
"'+	c #0E990B",
")+	c #048F00",
"!+	c #1BEA16",
"~+	c #5E5E5E",
"{+	c #959595",
"]+	c #51F04D",
"^+	c #22FD1D",
"/+	c #09FE03",
"(+	c #11FE0B",
"_+	c #4FFE4B",
":+	c #E2FAE1",
"<+	c #F0F0F0",
"[+	c #59F855",
"}+	c #23FE1E",
"|+	c #0EFC09",
"1+	c #41F03D",
"2+	c #D0E9D0",
"3+	c #CCCCCC",
"4+	c #9B9F9A",
"5+	c #3ACD37",
"6+	c #0BF706",
"7+	c #0BF805",
"8+	c #29C725",
"9+	c #556054",
"0+	c #595959",
"a+	c #383C38",
"b+	c #1EAF1B",
"c+	c #08F302",
"d+	c #05F100",
"e+	c #049501",
"f+	c #040703",
"g+	c #656565",
"h+	c #EEEEEE",
"i+	c #F8F8F8",
"j+	c #ECECEC",
"k+	c #C2C2C2",
"l+	c #A7A7A7",
"m+	c #979797",
"n+	c #767676",
"o+	c #737373",
"p+	c #5A5A5A",
"q+	c #444444",
"r+	c #525252",
"s+	c #272727",
"t+	c #414141",
"u+	c #474747",
"v+	c #070707",
"w+	c #030303",
"x+	c #040404",
"y+	c #626262",
"z+	c #CBCBCB",
"A+	c #E8E8E8",
"B+	c #D9D9D9",
"C+	c #A6A6A6",
"D+	c #828282",
"E+	c #565656",
"F+	c #424242",
"G+	c #222222",
"H+	c #494949",
"I+	c #969696",
"J+	c #646464",
"K+	c #5C5C5C",
"L+	c #939393",
"M+	c #868686",
"N+	c #9F9F9F",
"O+	c #A3A3A3",
"P+	c #909090",
"Q+	c #8F8F8F",
"R+	c #7C7C7C",
"S+	c #454545",
"T+	c #404040",
"U+	c #3F3F3F",
"V+	c #686868",
"W+	c #DDDDDD",
"X+	c #F4F4F4",
"Y+	c #ACACAC",
"Z+	c #7B7B7B",
"`+	c #787878",
" @	c #676767",
".@	c #5B5B5B",
"+@	c #393939",
"@@	c #585858",
"#@	c #4A4A4A",
"$@	c #8C8C8C",
"%@	c #696969",
"&@	c #9E9E9E",
"*@	c #363636",
"=@	c #3C3C3C",
"-@	c #060606",
";@	c #5D5D5D",
">@	c #636363",
",@	c #6E6E6E",
"'@	c #C9C9C9",
")@	c #E4E4E4",
"!@	c #606060",
"~@	c #797979",
"{@	c #3E3E3E",
"]@	c #515151",
"^@	c #545454",
"/@	c #7D7D7D",
"(@	c #C0C0C0",
"_@	c #B8B8B8",
":@	c #BABABA",
"<@	c #8B8B8B",
"[@	c #858585",
"}@	c #484848",
"|@	c #535353",
"1@	c #838383",
"2@	c #BBBBBB",
"3@	c #E0E0E0",
"4@	c #B7B7B7",
"5@	c #343434",
"6@	c #3A3A3A",
"7@	c #5F5F5F",
"8@	c #666666",
"9@	c #929292",
"0@	c #999999",
"a@	c #BDBDBD",
"b@	c #7E7E7E",
"c@	c #353535",
"d@	c #202020",
"e@	c #3D3D3D",
"f@	c #181818",
"g@	c #4C4C4C",
"h@	c #B1B1B1",
"i@	c #4D4D4D",
"j@	c #252525",
"k@	c #BEBEBE",
"l@	c #C3C3C3",
"m@	c #CECECE",
"n@	c #2A2A2A",
"o@	c #8E8E8E",
"p@	c #BCBCBC",
"q@	c #4B4B4B",
"r@	c #6A6A6A",
"s@	c #717171",
"t@	c #6D6D6D",
"u@	c #4E4E4E",
"v@	c #1B1B1B",
"w@	c #010101",
"x@	c #C4C4C4",
"y@	c #747474",
"z@	c #555555",
"A@	c #878787",
"B@	c #8D8D8D",
"C@	c #303030",
"D@	c #080808",
"E@	c #919191",
"F@	c #242424",
"G@	c #0A0A0A",
"H@	c #373737",
"I@	c #171717",
"J@	c #383838",
"K@	c #2F2F2F",
"L@	c #313131",
"M@	c #232323",
"N@	c #0E0E0E",
"                      . + @ # $ % & * = - ;                         ",
"                  . . > , ' ) ! ~ { ] ^ / ( _ : <                   ",
"                . [ } , | 1 2 3 4 5 6 7 8 9 0 a b <                 ",
"            . c d e f g } e } h i j k k 9 l m n o p q <             ",
"  r r     s t u v w x , y z A B C D E 3 F G H I J K L M N r r r r   ",
"  r r   O P Q R S T U V W X Q Y Z `  .= ^ ..r +.@.#.$.%.&.r r r r   ",
"  r r   *.B =.-.f e ;.@ g u >.,.'.).!.3 ] ~.{.].^.8 /.(._.:.<.  r r ",
"  r r * [.}.r r |.1.2.3.+ 4.r r 5.6.7.8.6 9.0.a.r b.c.d.e.f.< g.r r ",
"  r h.i.j.k.l.m.n.r o.O + p.q.r.n.r s.i.6 t.u.v.w.r x.y.e.z.< g.r r ",
"  r A.B.j.C.+ D.E.r F.D.3.G.H.I.J.r K.L.j M.N.8 O.r P.Q.R.S.T.U.r r ",
"  r V.W.X.Y.Z.`. +r o.O .+++@+#+$+r %+^ &+*+n.=+-+r ;+>+,+r '+)+r   ",
"  r !+~+{+]+^+/+(+_+:+D.<+[+}+/+|+1+2+3+6 4+5+6+7+8+9+0+a+b+c+d+e+f+",
"  3 j.g+F = h+, h+3.3.i+j+g j+V k+# | G l+m+o n+o+p+q+r+s+t+u+v+w+x+",
"  L.W.y+{+z+A+% *.3.3.+ h+e B+k+- ~ 9 C+k+D+j.X.o E+F+q+G+u+H+v+w+x+",
"  I+J+K+L+M+N+% # h O D.g !.2 G O+I+I+P+Q+R+8 M+o ~+t+S+t+T+U+v+w+x+",
"  Q+J+E+F V+m ^ G W+X+@ h+, % i | Y+! 5 X.Z+D+`+ @.@+@>+@@#@u+g.w+x+",
"  $@p+%@&@~+o a { y W+r r r r r r r r r r r r r r .@*@=@+@(.d.-@w+x+",
"  B.r+Z+;@>@l ,@8 k+'@r > h )@3+# z+/ ) &+a !@~@7 r {@]@u+J+>+g.w+x+",
"  0 ^@o+@@ @g+ @/@3+(@r = ;.<+* )@z+_@| :@<@,@[@j.q+r d.}@p+u+g.w+x+",
"  C+E+_ @@~+|@;@1@'.2@r ).<+).3@e f 4@~ [.I+Z+; !@t+5@r G+6@+@g.w+x+",
"  Y+/.y+7@>+8@9@0@% a@r g i+X+e *.W+Y+a b@! 0@l r+(.c@d@r e@f@< x+x+",
"  >@j.7@/.g@D+h@m+k+3+r * i+i+* 3@, l+R+&+a@D+i@q+.@s+f@j@r q < x+x+",
"  r r r r r r r r r r r k@X+O g ).W l@m@3 0 7@#@q+7@^@+@q+n@r w+x+x+",
"  r g+{+|@>+a 9 o@P+a@p@{+3 X+<+!.B+W p@X.(.p+p+K+8@K+>+q@q w+r g.x+",
"  r < l m d.l &@5 o@m+p@k P+f .+* ;.B+6 n r@,@s@t@/.g@u@v@< w+r x+  ",
"  r   w@7@@@~+; &@{+I+{ '@4@x@<+y (@6 /@m n y@_ y+z@H+Q.< < x+r     ",
"  r   < Q./.p+^@/@A@Z+s@o B@4 i.; a y@V+t@%@!@p+r+q@C@D@w+x+x+r     ",
"  r     < G+g@d.E+>@n+;@K+/.j.E@L+`+.@!@;@.@.@(.p F@-@w+w+x+g.r     ",
"  r       < G@C@u@|@.@+@+@U+#@.@(.z@]@.@;@K+u@H@I@< < x+x+x+x+r     ",
"  r       g.< g.j@%.t+J@%.b K@L@d@M@K@e@H+U+s+N@w+< x+x+x+g.  r     ",
"  r r r r r r r r r r r r r r r r r r r r r r r r r r r r r r r     ",
"                x+< < < < < < < < < < < < < w+x+x+x+g.              ",
"                  x+g.x+x+x+x+x+x+x+x+x+x+x+x+x+x+x+x+              ",
"                      x+x+x+x+x+x+x+x+x+x+x+x+x+x+                  "};
