/* XPM */
static char *displaychrtr[]={
"34 34 716 2",
"Qt c None",
"f9 c #000024",
"aK c #000028",
"bN c #000126",
"#u c #000128",
"bk c #00012a",
"g5 c #000226",
"bO c #00022a",
"#U c #00022c",
"ai c #00032c",
"aL c #00032e",
"ff c #00042a",
"dW c #00042c",
"iR c #00042e",
"em c #00052c",
"dt c #00062c",
"cC c #000630",
"i7 c #000634",
"aJ c #000732",
"id c #000836",
".8 c #000a3c",
"eG c #000b09",
"iz c #000b36",
"bj c #000b38",
"gy c #000b3a",
"g4 c #000b3c",
"b4 c #000c08",
"#t c #000c3a",
"jh c #000d3c",
"i6 c #000f3a",
"ag c #001142",
"fx c #001505",
"e6 c #001605",
"i8 c #00174c",
"gr c #00180c",
"f0 c #001a0c",
"f8 c #001b52",
"df c #001c0b",
"gv c #001d44",
"bM c #001d4c",
"ht c #001e5a",
"eD c #002311",
"jg c #002358",
"co c #002409",
"b0 c #00240b",
"ed c #00241c",
"by c #00260c",
"f5 c #00264c",
"bD c #002719",
"f6 c #002832",
"e# c #002907",
"fA c #002929",
"i0 c #00292e",
"i1 c #002958",
"cQ c #002a12",
"a8 c #002a15",
"jf c #002a5a",
"fE c #002b44",
"gw c #002c5a",
"c0 c #002e1e",
"aT c #002e62",
"i9 c #002e68",
"gu c #002e6c",
"fD c #00316e",
"iX c #00325c",
"cz c #003614",
"iY c #003770",
"i2 c #00377c",
"bc c #003928",
"gt c #003930",
"j. c #003974",
"cb c #003a66",
"je c #003a70",
"iZ c #003b64",
"aR c #003b84",
"bd c #003c39",
"bg c #003c40",
"j# c #003d6c",
"eh c #003f86",
"dQ c #004049",
"dn c #00424a",
"iV c #004280",
"iE c #00428c",
"gV c #004294",
"dR c #004396",
"gS c #004429",
"cX c #00444b",
"cw c #00454b",
"iW c #00458c",
"gC c #0046d6",
"dM c #004736",
"aQ c #00478a",
"fF c #004866",
"f7 c #00488c",
"fa c #004892",
"eK c #004994",
"iF c #00499c",
"do c #004ba8",
"bf c #004dac",
"cY c #004f98",
"ds c #005160",
"gW c #0051a4",
"bE c #00533c",
"dJ c #005429",
"ca c #005451",
"gx c #0054aa",
"gb c #0054de",
"dL c #00552e",
"cr c #00552f",
"cS c #005531",
"di c #005532",
"cx c #00557c",
"eM c #005692",
"fc c #00569e",
"iG c #0056c0",
"g9 c #0059de",
"bh c #005a40",
"dV c #005a6a",
"g0 c #005ae2",
"c2 c #005b72",
"fb c #005bc2",
"fL c #005bd6",
"eo c #005de8",
"gZ c #005eea",
"aH c #005fa8",
"aI c #005fb8",
"e9 c #006046",
"eQ c #0060e2",
"dw c #0062e8",
"ec c #006339",
"fh c #0063ea",
"eS c #0064ec",
"bL c #00668c",
"aS c #0066ae",
"hw c #0067da",
"dY c #0067f4",
"fy c #006943",
"c5 c #006aee",
"eq c #006bf0",
"bQ c #006cf2",
"g# c #006cfe",
"af c #006d96",
"f3 c #006f60",
"bz c #007136",
"fI c #0071f0",
"f2 c #00723d",
"cF c #0072f2",
"b9 c #007462",
"er c #0074f6",
"dv c #0075f8",
"bI c #007664",
"cd c #0076ee",
"ea c #00773c",
"#R c #0077a8",
"eC c #007814",
"gs c #00785a",
"eH c #00786a",
"g. c #0079be",
"dy c #007af6",
"dI c #00802f",
"bF c #00837a",
"b3 c #00864f",
"gR c #008a26",
"aX c #008cee",
"e7 c #008d36",
"aO c #0090da",
"fz c #00945d",
"fB c #009d92",
"cP c #00a437",
"#p c #00a681",
"be c #00a6ae",
"f1 c #00b359",
"dP c #00b3cf",
"e. c #00b41f",
"eE c #00b855",
"cp c #00b859",
"f. c #00b8aa",
"ef c #00bcd4",
"cv c #00bfce",
"cW c #00c0d2",
"eg c #00c1de",
"dm c #00c2d9",
"gT c #00c479",
"dg c #00c65b",
"e8 c #00cb81",
"ee c #00cbb1",
"bH c #00cbe4",
"eJ c #00ccce",
"bY c #00cd25",
"eI c #00cdc9",
"b8 c #00cde5",
"cu c #00cfcb",
"bw c #00d018",
"cs c #00d499",
"dj c #00d4a2",
"cT c #00d4a3",
"dl c #00d6c6",
"cV c #00d7d1",
"f# c #00d7d4",
"bZ c #00d83a",
"b6 c #00d8c3",
"bG c #00d8d1",
"cn c #00da35",
"dO c #00dac7",
"b7 c #00dbcf",
"dN c #00deac",
"dk c #00e0b0",
"eB c #00e125",
"bb c #00e190",
"bx c #00e438",
"cU c #00e7b7",
"a7 c #00ec65",
"eb c #00ee77",
"eF c #00ee81",
"ba c #00ee8b",
"bC c #00ef90",
"ct c #00f3ba",
"b5 c #00f9b2",
"dK c #00fe82",
"b1 c #00ff7b",
"a9 c #00ff7e",
"b. c #00ff80",
"bA c #00ff81",
"cq c #00ff84",
"bB c #00ff86",
"b2 c #00ff8c",
"b# c #00ff8d",
"dh c #00ff92",
"cR c #00ff93",
"ah c #010026",
".9 c #010028",
"ej c #014d28",
"fw c #019324",
"cO c #01d625",
"de c #01e539",
"a6 c #01e53d",
"hu c #02001a",
"jj c #020022",
"aU c #020024",
"#T c #020028",
"gX c #02307c",
"c# c #025000",
"cB c #02577e",
"cA c #02582f",
"hv c #0270d6",
"ek c #027254",
"aG c #027845",
"dH c #02d023",
"g6 c #03001e",
".O c #030022",
"ji c #030024",
".x c #030026",
"fC c #033d7f",
"#S c #034685",
"iU c #034e8d",
"c4 c #0374ff",
"gB c #037aff",
"dG c #03c100",
"dd c #03c800",
"iQ c #041a46",
"ie c #042766",
"f4 c #043e86",
"fG c #044578",
"hx c #046df0",
"gq c #047226",
"iS c #052965",
".N c #052e73",
"hS c #053577",
"fj c #056ceb",
"eT c #0577f7",
"bn c #0586ff",
"a5 c #05c415",
"cm c #05cd29",
"iy c #062954",
"bK c #074d0a",
"c1 c #075f2a",
"bi c #076089",
".3 c #0782ff",
"iA c #083778",
"jc c #085088",
"dq c #085821",
"dU c #086234",
"fd c #087463",
"i5 c #092d5d",
"el c #096275",
"gO c #0a4900",
"jd c #0a4d86",
"dr c #0a5421",
"eL c #0a5dba",
"dS c #0a5ea6",
"bJ c #0a6a2c",
"ae c #0a7e51",
"cN c #0acb23",
"hR c #0b356d",
"ic c #0b3769",
"ei c #0b4587",
"#q c #0b8976",
"cc c #0b89ff",
"gK c #0c0700",
"iT c #0c4484",
"ja c #0c5186",
"ig c #0c5bac",
"cy c #0c6c32",
"d# c #0d0d00",
"e1 c #0d1200",
"fe c #0d576d",
"dT c #0d7534",
"aF c #0db10d",
"gf c #0e0a00",
"jb c #0e558c",
"if c #0e57aa",
"dZ c #0e78fa",
"eN c #0e8260",
"dp c #0f507d",
".7 c #0f5285",
"bo c #0fa2ff",
"#P c #0fbf41",
"i3 c #10548e",
"#Q c #109461",
"gQ c #10b62c",
"gm c #111500",
"#s c #11699b",
"c. c #117532",
"cZ c #12544d",
"hs c #125aa4",
".5 c #128afa",
"fZ c #12c610",
"fs c #131700",
"iP c #133e63",
"ix c #135185",
"eO c #13616d",
"fK c #136ae1",
"cE c #1382ff",
"g8 c #138dff",
"ex c #141800",
"e5 c #147a0b",
"hQ c #155393",
"g3 c #15549b",
"iB c #155999",
"fJ c #156ee7",
"#r c #1585a1",
"g7 c #1585af",
".J c #1594ff",
"fY c #15b913",
"#o c #15efc8",
"hT c #166fc2",
"hr c #1756a3",
"iC c #175fa9",
"hU c #1767b9",
"iH c #186a9e",
"gp c #18b800",
".w c #191137",
"gU c #195fad",
"iJ c #196679",
".4 c #198bff",
".I c #19a0ff",
"gN c #1a1d00",
"g2 c #1a5aa2",
"gY c #1a779e",
"ib c #1b558b",
"c7 c #1b9cff",
"aW c #1ba1ff",
"i4 c #1c486e",
"ab c #1cd8cd",
"bt c #1d3e00",
"iK c #1d57b7",
"hP c #1d5ea7",
"iD c #1d67b3",
"bP c #1d9dff",
"du c #1da7ff",
"fW c #1e4300",
"ft c #1e5a00",
"hV c #1e5cba",
"ga c #1e6bd4",
"ad c #1ea62b",
"fv c #1ec916",
"gz c #1f4065",
"iI c #1f6b46",
"fi c #1f77e3",
"dX c #1fa3ff",
"gA c #1fb2ff",
"dc c #1fc300",
"#O c #1feb5d",
"iO c #205790",
"aD c #20d9e0",
"fV c #212a00",
"en c #219eff",
"bR c #21aeff",
"ac c #21dd3c",
"gj c #232900",
"a2 c #232a00",
"ih c #23609f",
"ak c #23c3ff",
"ia c #245aa4",
"iw c #2461a0",
"eR c #2481ea",
"g1 c #2666ae",
"ep c #268af0",
"e3 c #26c80f",
".v c #2778c3",
"gP c #279b00",
"eP c #27abff",
"d9 c #27c60b",
"az c #27c9ff",
"dC c #292900",
"e2 c #297600",
".G c #29b1ff",
".K c #29b6ff",
"e4 c #29d10b",
"aE c #29f34b",
"gd c #2a1c00",
"d5 c #2b3400",
".H c #2bb2ff",
"go c #2bbb00",
"#j c #2bcfff",
".L c #2caafa",
"bv c #2cca0d",
"hq c #2d6bb1",
"c3 c #2dadff",
"dF c #2dce00",
"a4 c #2dd30e",
"aP c #2de94c",
"d6 c #2e4700",
"i# c #2e63a4",
"hy c #2f90fd",
"c6 c #2fa9ff",
"hZ c #307be2",
"hO c #316bad",
".6 c #3293bc",
".M c #3293ee",
"iv c #3362a1",
"iL c #3363a5",
"d8 c #33d600",
"iN c #3563a1",
"ha c #359eff",
"aA c #35b0ff",
"fH c #35c8ff",
"bX c #35d10e",
"e0 c #364000",
"i. c #3668a6",
"al c #36ec76",
"dD c #375f00",
"iu c #3761a1",
"cl c #37cc0c",
"fu c #37cf00",
"il c #38629a",
"cM c #38ca0a",
"#M c #38dfee",
"#N c #38f689",
"bs c #393f00",
"ik c #396299",
"ci c #3b4200",
".o c #3bb7ff",
"it c #3c639e",
"hY c #3c85e0",
"iM c #3d639b",
"d0 c #3db4ff",
"fX c #3dc309",
"eA c #3ece03",
"is c #3f64a7",
"hN c #3f74af",
"he c #3f9eff",
"hA c #3fa7ff",
"fg c #3fbdff",
"ir c #405da8",
"gn c #408000",
"ii c #4169a5",
"h9 c #4171b3",
"hp c #4175b5",
"hb c #41a8ff",
"#n c #41d4ff",
"aY c #42ee5b",
"hz c #43a4ff",
"h# c #43a9ff",
".q c #43baff",
"ce c #43c8ff",
"ey c #458f00",
".2 c #45aeff",
"bm c #45bbff",
"aN c #45bfff",
"gi c #462400",
"hn c #4676ac",
"h0 c #468ade",
"aC c #47bcff",
"cJ c #485000",
"hW c #4886d2",
"ck c #48c400",
"hm c #4970a5",
"ho c #4978b9",
"ez c #49d400",
"im c #4a64a0",
"h7 c #4a6dac",
"hl c #4c819c",
"h8 c #4d74a5",
"hM c #4d7ab7",
"aB c #4dc2ff",
"cL c #4dd100",
"#Y c #4ee6f0",
"h. c #4faeff",
".p c #4fbfff",
"#H c #4ff7d2",
"h6 c #517e89",
"hX c #5190e5",
".s c #51bfff",
"dx c #51c4ff",
".r c #51c8ff",
"ge c #533a00",
"cj c #53b300",
"cD c #53ccff",
"ay c #54f4ae",
"hL c #557db3",
"bV c #56b900",
"bW c #56c801",
".t c #58c2fe",
"in c #5979b5",
"hK c #5981a9",
".n c #59c7e3",
"hJ c #5a859e",
"#m c #5ac2fe",
"d7 c #5ad400",
"#y c #5ad6fe",
"h4 c #5b944e",
"hB c #5cb4fe",
".1 c #5cbffe",
"aa c #5ccefe",
"ij c #5e7baa",
"iq c #5e8466",
"#L c #5ebcfe",
"#i c #5ec0fe",
"db c #5fca00",
"#G c #5ffdd2",
"h5 c #609646",
"bu c #60da01",
".j c #628c89",
"h1 c #6692ea",
".0 c #66bcfe",
"#I c #67f3b6",
"hk c #68ae72",
"da c #69cd00",
"a# c #6ac1fe",
".i c #6ac8c5",
"a. c #6be1f7",
"hd c #6eb9fe",
"#l c #6edefe",
".F c #70cafe",
".u c #70dbfe",
"#k c #70fee1",
"gc c #714800",
"hI c #71ac6e",
"dE c #72d600",
"gM c #738900",
"a3 c #73e702",
"io c #769a94",
"cK c #76b500",
"bp c #76fe89",
"#W c #77ed98",
"#z c #78f1f6",
"#Z c #79fdbd",
"ip c #7ba15d",
"#D c #7bf993",
"gL c #7c6500",
"d. c #7d8400",
"gl c #7e6f00",
".Z c #7ec0fe",
".h c #7ff1ed",
"#K c #7ff1ef",
"gJ c #803800",
"h3 c #82bd5f",
"h2 c #84c8c6",
"hc c #85c7ff",
".E c #85d8f3",
"cG c #87dcff",
".D c #88ddea",
"fS c #897600",
".d c #89d4ff",
".B c #89e1e9",
"bS c #89f1d5",
"fr c #8a9d00",
"#e c #8aecb1",
"hD c #8bbfff",
"hE c #8bd7c6",
"gh c #8c5300",
"#V c #8ffde2",
".g c #8ffffb",
"fT c #91a300",
"#F c #91f9c2",
"fU c #92a800",
".c c #93dfff",
"#C c #93fbb5",
"hH c #94d866",
"ew c #95a700",
".e c #95e2ff",
"gg c #976800",
"hC c #97d4ff",
".f c #97efff",
"eZ c #98b300",
".C c #98dfe6",
"#X c #98fac4",
"#7 c #9afa84",
"#6 c #9dfc8e",
"gk c #9e7600",
"#h c #9edbfe",
"#a c #9fe0f1",
"fR c #a08000",
"#d c #a2f2d7",
"bl c #a2f7fe",
"#E c #a3fd97",
"#b c #a4e8fe",
".S c #a4e9fa",
"#9 c #a4fc9a",
"#A c #a4fedb",
"hf c #a7ebdd",
".m c #a8e2d2",
"fQ c #a97d00",
"hj c #a9f37d",
"fM c #aa7200",
"fP c #aa7a00",
"#0 c #aafeb4",
"aV c #abf6ff",
"cf c #ace3fa",
"#x c #aceebc",
"#B c #adfbe9",
"#g c #aff1e4",
"aM c #aff8ff",
"aj c #b1f5ff",
"am c #b2f8e0",
"hG c #b3e1a3",
".z c #b3f3e5",
"an c #b5f0ff",
"#c c #b7ebff",
"#1 c #b7ffc8",
".l c #b8eae3",
"#f c #b8f3b3",
"#8 c #b9ff93",
".A c #baecd7",
"## c #baecfe",
".Y c #bcd9fe",
"hh c #bdfb9b",
"aw c #bfff81",
"ch c #c1c900",
"#w c #c1f1dc",
".R c #c1f1e5",
"hi c #c3ff9b",
"av c #c4ff8f",
"fN c #c58400",
"a1 c #c6e800",
"ao c #c8faf8",
"br c #c9dc00",
".W c #c9ecf3",
"bU c #cad700",
"#J c #cafea0",
".b c #ccfefe",
"ax c #ccff8b",
".k c #cef2ed",
"fq c #cfc800",
".U c #d0e9f4",
".V c #d0ebf4",
"#. c #d1f3d7",
"a0 c #d2df00",
".Q c #d3f7ef",
"fo c #d5bb00",
"cI c #d6d800",
"#3 c #d8febe",
"fp c #dac600",
"#2 c #dbffc5",
".y c #ddf9ef",
"bq c #decf00",
"eY c #e0f300",
"c9 c #e1d700",
"fO c #e39e00",
"bT c #e3d000",
"aZ c #e3db00",
"fn c #e4be00",
"eX c #e4d100",
"hF c #e4fdaf",
"fl c #e6a800",
"dA c #e6ca00",
"eu c #e6d200",
".X c #e6eef2",
"au c #e8fec0",
"gF c #e97100",
"eU c #e9a600",
"es c #e9b200",
"d4 c #e9e600",
"dB c #e9e900",
"d3 c #eae500",
".T c #eaf2f6",
"at c #eafeca",
"#5 c #ebfebc",
"ap c #ecfaf6",
"cg c #edd000",
"eV c #eeb300",
"d2 c #efcd00",
"aq c #effde9",
"gI c #f05900",
"cH c #f1cb00",
"eW c #f1d200",
".a c #f1fafb",
"#4 c #f1ffc7",
"as c #f2ffcf",
"gG c #f36800",
"#v c #f3feff",
"fk c #f5ae00",
"c8 c #f5c800",
"gE c #f78b00",
"d1 c #f7c200",
"fm c #f8ce00",
"gH c #f95f00",
"ev c #f9e800",
"ar c #faffe1",
"dz c #fdc800",
"et c #fdcd00",
".P c #fefefe",
"hg c #feffe9",
"gD c #ff9a00",
".# c #ffffff",
"QtQtQtQtQtQtQtQtQtQtQt.#.a.b.c.d.e.f.g.h.i.jQtQtQtQtQtQtQtQtQtQtQtQt",
"QtQtQtQtQtQtQtQtQt.#.#.k.l.m.n.o.p.q.r.s.t.u.v.w.xQtQtQtQtQtQtQtQtQt",
"QtQtQtQtQtQtQtQt.#.y.z.A.B.C.D.E.F.G.H.I.J.K.L.M.N.OQtQtQtQtQtQtQtQt",
"QtQtQtQtQtQt.#.P.Q.R.S.T.U.V.W.X.Y.Z.0.1.2.3.4.5.6.7.8.9QtQtQtQtQtQt",
"QtQtQtQtQt.P#.###a#b#c#d#e#f#g#h#i#j#k#l#m#n#o#p#q#r#s#t#uQtQtQtQtQt",
"QtQtQtQt#v#w#x#y#z#A#B#C#D#E#F#G#H#I#J#K#L#M#N#O#P#Q#R#S#T#UQtQtQtQt",
"QtQtQtQt#V#W#X#Y#Z#0#1#2#3#4#5#6#7#8#9a.a#aa.HabacadaeafagahaiQtQtQt",
"QtQtQtajakalamanaoapaqarasatauavawaxayazaAaBaCaDaEaFaGaHaIaJaKaLQtQt",
"QtQtaMaNaOaP.#.#.#.#.#.#.#.#.#.#.#.#.#.#.#.#.#.#.#.#aQaRaSaTaUaiQtQt",
"QtQtaVaWaXaY.#aZa0a1a2a3a4a5a6a7a8a9b.b#babbbcbdbe.#bfbgbhbibjbkQtQt",
"Qtblbmbnbobp.#bqbrbsbtbubvbwbxbybzbAbBbCbDbEbFbGbH.#bIbJbKbLbMbNbOQt",
"QtblbPbQbRbS.#bTbUbsbVbWbXbYbZb0b1bBb2b3b4b5b6b7b8.#b9c.c#cacbbObkbO",
"Qt#lcccdcecf.#cgchcicjckclcmcncocpcqb#crcsctcucvcw.#cxcyczcAcBcCbkbO",
"QtcDcEcFbRcG.#cHcIcJcKcLcMcNcOcPcQb1cRcScTcUcVcWcX.#cYcZc0c1c2cCbkbO",
"Qtc3c4c5c6c7.#c8c9d.d#dadbdcdddedfdgdhdidjdkdldmdn.#dodpdqdrdsdtbkbO",
"Qtdudvdwdxdy.#dzdAdBdCdDdEdFdGdHdIdJdKdLdMdNdOdPdQ.#dRdSdTdUdVdWbkbO",
"QtdXdYdZd0bQ.#d1d2d3d4d5d6d7d8d9e.e#eaebecedeeefeg.#eheiejekelembkbO",
"Qteneoepeqer.#eseteuevewexeyezeAeBeCeDeEeFeGeHeIeJ.#eKeLeMeNeOdWbkbO",
"QtePeQeReSeT.#eUeVeWeXeYeZe0e1e2e3e4e5e6e7e8e9f.f#.#fafbfcfdfeffbkbO",
"QtfgfhfieSfj.#fkflfmfnfofpfqfrfsftfufvfwfxfyfzfAfB.#fCfDfEfFfGaibkbO",
"QtfHfIfJfKfL.#fMfNfOfPfQfRfSfTfUfVfWfXfYfZf0f1f2f3.#f4f5f6f7f8f9bObO",
"Qtg.ccg#gagb.#gcgdgegfggghgigjgkglgmgngogpgqgrgsgt.#gugvgwgxgyaKbObO",
"QtgzgAgBgCfh.#gDgDgEgFgGgHgIgJgKgLgMgNgOgPgQgRgSgT.#gUgVgWgX#ubkbObO",
"QtQtgYbRgZg0.#.#.#.#.#.#.#.#.#.#.#.#.#.#.#.#.#.#.#.#g1g2g3g4g5bOaibO",
"QtQtg6g7g8g9.3h.h#hahbhchdhehfhghhhihjhkhlhmhnhohphqhrhshtf9bkbO#UQt",
"QtQtQthuhvhwhxhyh.hzhAhBhChDhEhFhGhHhIhJhKhLhMhNhOhPhQhRbN#ubOaiQtQt",
"QtQtQtaUhShThUhVhWhXhYhZh0h1h2h3h4h5h6h7h8h9i.i#iaibicidg5bObO#UQtQt",
"QtQtQtQt#uieifigihiiijikiliminioipiqirisitiuiviwixiyemg5bkbOaiQtQtQt",
"QtQtQtQtQtf9iziAiBiCiDiEiEiFiGiHiIiJiKiLiMiNiOiPiQahaKbObObO#UQtQtQt",
"QtQtQtQtQtaibNiRiSiTiUiViWiXiYiZi0i1i2fai3i4i5i6bk#ubObObOaiQtQtQtQt",
"QtQtQtQtQtQtQt#ubki7i8i9j.j#jajbjcjdjejfjgjhbOg5bkbObOai#UQtQtQtQtQt",
"QtQtQtQtQtQtQtQtbOaKbNf9aUji.O.O.OjjaUf9bNaKbkbObObOaiQtQtQtQtQtQtQt",
"QtQtQtQtQtQtQtQtQt#UaibObObObObObObObObObObObObObObO#UQtQtQtQtQtQtQt",
"QtQtQtQtQtQtQtQtQtQtQtbObObObObObObObObObObObObObOQtQtQtQtQtQtQtQtQt"};
