/* XPM */
static char *displaygeotiff[]={
"34 34 761 2",
"Qt c None",
"gw c #000024",
"aK c #000028",
"b6 c #000126",
"#u c #000128",
"bD c #00012a",
"hN c #000226",
"b7 c #00022a",
"#U c #00022c",
"ai c #00032c",
"aL c #00032e",
"fB c #00042a",
"ef c #00042c",
"jy c #00042e",
"eG c #00052c",
"dO c #00062c",
"cY c #000630",
"jO c #000634",
"aJ c #000732",
"iW c #000836",
".8 c #000a3c",
"jg c #000b36",
"bC c #000b38",
"gY c #000b3a",
"hM c #000b3c",
"#t c #000c3a",
"j0 c #000d3c",
"jN c #000f3a",
"ag c #001142",
"jP c #00174c",
"gv c #001b52",
"gV c #001d44",
"b5 c #001d4c",
"ia c #001e5a",
"jZ c #002358",
"gs c #00264c",
"gt c #002832",
"jH c #00292e",
"jI c #002958",
"jY c #002a5a",
"f1 c #002b44",
"gW c #002c5a",
"dl c #002e1e",
"ba c #002e62",
"jQ c #002e68",
"gU c #002e6c",
"f0 c #00316e",
"jE c #00325c",
"cV c #003614",
"jF c #003770",
"jJ c #00377c",
"jR c #003974",
"cy c #003a66",
"jX c #003a70",
"jG c #003b64",
"b. c #003b84",
"bz c #003c40",
"jS c #003d6c",
"eB c #003f86",
"jC c #004280",
"jl c #00428c",
"hl c #004294",
"ea c #004396",
"jD c #00458c",
"g2 c #0046d6",
"a9 c #00478a",
"f2 c #004866",
"gu c #00488c",
"fw c #004892",
"e4 c #004994",
"jm c #00499c",
"dJ c #004ba8",
"by c #004dac",
"fY c #004e96",
"dj c #004f98",
"fv c #004fa8",
"gS c #00509a",
"dN c #005160",
"hm c #0051a4",
"cx c #005451",
"gX c #0054aa",
"gA c #0054de",
"cT c #00557c",
"e6 c #005692",
"fy c #00569e",
"jn c #0056c0",
"hQ c #0059de",
"bA c #005a40",
"ee c #005a6a",
"hp c #005ae2",
"dn c #005b72",
"fx c #005bc2",
"f8 c #005bd6",
"eI c #005de8",
"fG c #005eea",
"aH c #005fa8",
"aI c #005fb8",
"f. c #0060e2",
"di c #0061f2",
"dR c #0062e8",
"fD c #0063ea",
"fa c #0064ec",
"bx c #0065ee",
"cS c #0065fc",
"b4 c #00668c",
"b# c #0066ae",
"id c #0067da",
"eh c #0067f4",
"e# c #0069e0",
"eA c #006ae2",
"dq c #006aee",
"eK c #006bf0",
"b9 c #006cf2",
"gy c #006cfe",
"af c #006d96",
"b0 c #006df4",
"f5 c #0071f0",
"c1 c #0072f2",
"cu c #007462",
"eL c #0074f6",
"dQ c #0075f8",
"b1 c #007664",
"cA c #0076ee",
"#R c #0077a8",
"f9 c #0077f0",
"ct c #0078f2",
"gx c #0079be",
"dT c #007af6",
"be c #008cee",
"aO c #0090da",
"fV c #0093fa",
"eN c #0099fa",
"ek c #00a0fc",
"#p c #00a681",
"ah c #010026",
".9 c #010028",
"eD c #014d28",
"ib c #02001a",
"j2 c #020022",
"bb c #020024",
"#T c #020028",
"hn c #02307c",
"cw c #025000",
"cX c #02577e",
"cW c #02582f",
"ic c #0270d6",
"eE c #027254",
"fc c #0276f8",
"fd c #0277fa",
"aG c #027845",
"hO c #03001e",
".O c #030022",
"j1 c #030024",
".x c #030026",
"fZ c #033d7f",
"#S c #034685",
"jB c #034e8d",
"e1 c #036eff",
"dp c #0374ff",
"g1 c #037aff",
"jx c #041a46",
"iX c #042766",
"gr c #043e86",
"f3 c #044578",
"ie c #046df0",
"jz c #052965",
".N c #052e73",
"iz c #053577",
"fF c #056ceb",
"fb c #0577f7",
"bG c #0586ff",
"a8 c #059f92",
"jf c #062954",
"ez c #0681fe",
"b3 c #074d0a",
"dm c #075f2a",
"bB c #076089",
"e. c #0776ff",
".3 c #0782ff",
"jh c #083778",
"jV c #085088",
"dL c #085821",
"ed c #086234",
"fz c #087463",
"jM c #092d5d",
"eF c #096275",
"jW c #0a4d86",
"dM c #0a5421",
"e5 c #0a5dba",
"eb c #0a5ea6",
"b2 c #0a6a2c",
"ae c #0a7e51",
"iy c #0b356d",
"iV c #0b3769",
"eC c #0b4587",
"hi c #0b55b1",
"e3 c #0b5ecf",
"eM c #0b7eff",
"#q c #0b8976",
"cz c #0b89ff",
"jA c #0c4484",
"jT c #0c5186",
"iZ c #0c5bac",
"gq c #0c65c0",
"cU c #0c6c32",
"fA c #0d576d",
"ec c #0d7534",
"fs c #0d7fff",
"cr c #0d85ff",
"cR c #0d8aff",
"aF c #0db10d",
"jU c #0e558c",
"iY c #0e57aa",
"ei c #0e78fa",
"e7 c #0e8260",
"dK c #0f507d",
".7 c #0f5285",
"bY c #0f80ff",
"bv c #0f96ff",
"bH c #0fa2ff",
"#P c #0fbf41",
"el c #0fccf5",
"jK c #10548e",
"#Q c #109461",
"#s c #11699b",
"gT c #116abd",
"cv c #117532",
"e2 c #118cff",
"fe c #1192ff",
"a6 c #11b9f7",
"gm c #11d552",
"dk c #12544d",
"gR c #1255c4",
"i# c #125aa4",
".5 c #128afa",
"gN c #12a816",
"jw c #133e63",
"je c #135185",
"e8 c #13616d",
"f7 c #136ae1",
"c0 c #1382ff",
"cs c #1388ff",
"dU c #138dff",
"dI c #1393ff",
"ix c #155393",
"hL c #15549b",
"ji c #155999",
"f6 c #156ee7",
"#r c #1585a1",
"hP c #1585af",
"d7 c #158eff",
".J c #1594ff",
"#o c #15efc8",
"iA c #166fc2",
"i. c #1756a3",
"jj c #175fa9",
"iB c #1767b9",
"d9 c #178bf7",
"dH c #178fff",
"dh c #1795ff",
"dG c #17aaff",
"ds c #17c0ff",
"jo c #186a9e",
".w c #191137",
"hk c #195fad",
"jq c #196679",
".4 c #198bff",
".I c #19a0ff",
"dV c #19db90",
"hK c #1a5aa2",
"ho c #1a779e",
"iU c #1b558b",
"df c #1b96ff",
"cq c #1b9cff",
"bd c #1ba1ff",
"jL c #1c486e",
"gl c #1ca630",
"ab c #1cd8cd",
"jr c #1d57b7",
"iw c #1d5ea7",
"jk c #1d67b3",
"fu c #1d84f7",
"bZ c #1d8dff",
"ej c #1d92ff",
"fH c #1d97ff",
"b8 c #1d9dff",
"dP c #1da7ff",
"iC c #1e5cba",
"gz c #1e6bd4",
"ad c #1ea62b",
"gZ c #1f4065",
"jp c #1f6b46",
"fE c #1f77e3",
"hq c #1f98ff",
"dg c #1f9dff",
"eg c #1fa3ff",
"dF c #1fa8ff",
"g0 c #1fb2ff",
"#O c #1feb5d",
"jv c #205790",
"gp c #205aaa",
"aD c #20d9e0",
"d8 c #2194ff",
"eH c #219eff",
"c. c #21aeff",
"gM c #21d94c",
"ac c #21dd3c",
"fX c #2268d0",
"go c #227bf4",
"a7 c #22e4d4",
"i0 c #23609f",
"ex c #2390ff",
"ey c #239aff",
"ak c #23c3ff",
"iT c #245aa4",
"jd c #2461a0",
"f# c #2481ea",
"fU c #24c251",
"a5 c #25a5ff",
"dD c #25afff",
"hH c #2665ac",
"hJ c #2666ae",
"eJ c #268af0",
"gk c #26ac14",
"hG c #2763ad",
".v c #2778c3",
"ft c #2797ff",
"bw c #279cff",
"fr c #27a3d7",
"e9 c #27abff",
"az c #27c9ff",
"gj c #27df52",
"hh c #296ab3",
"a4 c #29a2ff",
".G c #29b1ff",
".K c #29b6ff",
"dd c #29c5ff",
"aE c #29f34b",
"dE c #2badff",
".H c #2bb2ff",
"#j c #2bcfff",
"hj c #2c68ac",
".L c #2caafa",
"h9 c #2d6bb1",
"fW c #2d90ff",
"ew c #2d95ff",
"do c #2dadff",
"aP c #2de94c",
"hE c #2e5fa2",
"iS c #2e63a4",
"gQ c #2e93e0",
"if c #2f90fd",
"ev c #2f9bff",
"dr c #2fa9ff",
"cQ c #2faeff",
"iG c #307be2",
"iv c #316bad",
"e0 c #3192ff",
"g. c #31a5ff",
"gn c #31afff",
"d6 c #31b9ff",
"dC c #31bdff",
"hF c #3261a2",
".6 c #3293bc",
".M c #3293ee",
"jc c #3362a1",
"js c #3363a5",
"g5 c #339dff",
"ju c #3563a1",
"hT c #359eff",
"g3 c #35a7ff",
"aA c #35b0ff",
"cp c #35b5ff",
"f4 c #35c8ff",
"gO c #35cb4e",
"iR c #3668a6",
"hI c #366fb0",
"al c #36ec76",
"jb c #3761a1",
"hs c #379fff",
"eu c #37adff",
"da c #37d2ff",
"cO c #37d7ff",
"de c #37ebdc",
"i4 c #38629a",
"#M c #38dfee",
"#N c #38f689",
"i3 c #396299",
"g# c #39adff",
"bX c #39bbff",
"cP c #39c0ff",
"db c #39c5ff",
"ht c #3ba0ff",
"gC c #3baaff",
"co c #3baeff",
".o c #3bb7ff",
"ja c #3c639e",
"iF c #3c85e0",
"jt c #3d639b",
"hD c #3da188",
"bu c #3db4ff",
"eZ c #3db8ff",
"j# c #3f64a7",
"iu c #3f74af",
"hX c #3f9eff",
"ih c #3fa7ff",
"dc c #3fb0ff",
"fC c #3fbdff",
"j. c #405da8",
"fT c #40ce40",
"i1 c #4169a5",
"iQ c #4171b3",
"h8 c #4175b5",
"hU c #41a8ff",
"#n c #41d4ff",
"gP c #41ef5a",
"bf c #42ee5b",
"ig c #43a4ff",
"hS c #43a9ff",
".q c #43baff",
"bV c #43c3ff",
"cB c #43c8ff",
"fR c #43e365",
".2 c #45aeff",
"hg c #45af83",
"bF c #45bbff",
"aN c #45bfff",
"d5 c #45c4ff",
"h6 c #4676ac",
"iH c #468ade",
"eX c #46ccd8",
"bW c #47b3ff",
"aC c #47bcff",
"iD c #4886d2",
"h5 c #4970a5",
"h7 c #4978b9",
"hv c #49a3ff",
"i5 c #4a64a0",
"iO c #4a6dac",
"hr c #4bacff",
"fS c #4bd440",
"h4 c #4c819c",
"eW c #4cf0ea",
"iP c #4d74a5",
"it c #4d7ab7",
"aB c #4dc2ff",
"dB c #4dcfff",
"#Y c #4ee6f0",
"hR c #4faeff",
".p c #4fbfff",
"eY c #4fccdb",
"cM c #4ff5f7",
"#H c #4ff7d2",
"fq c #50dea4",
"cn c #50eeec",
"iN c #517e89",
"iE c #5190e5",
"a3 c #51bbff",
".s c #51bfff",
"dS c #51c4ff",
".r c #51c8ff",
"cZ c #53ccff",
"fo c #53df77",
"ay c #54f4ae",
"is c #557db3",
"dt c #55f7e2",
"eO c #56ddfa",
"g8 c #58aefe",
".t c #58c2fe",
"dW c #58cdfe",
"i6 c #5979b5",
"ir c #5981a9",
".n c #59c7e3",
"iq c #5a859e",
"gF c #5ab3fe",
"#m c #5ac2fe",
"#y c #5ad6fe",
"iL c #5b944e",
"ii c #5cb4fe",
"g4 c #5cb8fe",
".1 c #5cbffe",
"a2 c #5cc7fe",
"aa c #5ccefe",
"i2 c #5e7baa",
"i9 c #5e8466",
"#L c #5ebcfe",
"#i c #5ec0fe",
"fn c #5ef869",
"#G c #5ffdd2",
"iM c #609646",
"cL c #60dbfe",
".j c #628c89",
"g6 c #64bbfe",
"gB c #64c2fe",
"bU c #65eef7",
"iI c #6692ea",
".0 c #66bcfe",
"bt c #66c7fe",
"cl c #67ecf7",
"#I c #67f3b6",
"h3 c #68ae72",
"br c #68c4fe",
"a# c #6ac1fe",
".i c #6ac8c5",
"hf c #6aee6d",
"hC c #6be15f",
"a. c #6be1f7",
"bs c #6cc5fe",
"cN c #6cf0ad",
"hW c #6eb9fe",
"fK c #6ec3fe",
"#l c #6edefe",
"gc c #70c0fe",
".F c #70cafe",
".u c #70dbfe",
"#k c #70fee1",
"ip c #71ac6e",
"et c #72c1fe",
"bT c #74ccfe",
"g9 c #74cffe",
"i7 c #769a94",
"a1 c #76f8f6",
"bI c #76fe89",
"#W c #77ed98",
"fJ c #78cafe",
"hd c #78e466",
"#z c #78f1f6",
"#Z c #79fdbd",
"fh c #7ac5fe",
"ck c #7ad7fe",
"i8 c #7ba15d",
"#D c #7bf993",
"dA c #7cdefe",
"eV c #7cecce",
"fp c #7deb9c",
".Z c #7ec0fe",
"gb c #7eccfe",
".h c #7ff1ed",
"#K c #7ff1ef",
"eU c #80e8af",
"fg c #81ceff",
"he c #81f167",
"fQ c #81fbac",
"iK c #82bd5f",
"em c #83e8f7",
"iJ c #84c8c6",
"hV c #85c7ff",
".E c #85d8f3",
"ff c #85deff",
"du c #85e3ff",
"hw c #86dae4",
"c2 c #87dcff",
".D c #88ddea",
"hu c #89c6ff",
"gD c #89ceff",
".d c #89d4ff",
".B c #89e1e9",
"c# c #89f1d5",
"#e c #8aecb1",
"ik c #8bbfff",
"il c #8bd7c6",
"c4 c #8be5ff",
"eQ c #8dd3ff",
"d4 c #8dddff",
"es c #8fd1ff",
"eP c #8fd6ff",
"#V c #8ffde2",
".g c #8ffffb",
"#F c #91f9c2",
".c c #93dfff",
"hB c #93f670",
"#C c #93fbb5",
"io c #94d866",
"gi c #94fe86",
".e c #95e2ff",
"bS c #95e5ff",
"bq c #95f7ea",
"cE c #96f3fe",
"ij c #97d4ff",
".f c #97efff",
".C c #98dfe6",
"#X c #98fac4",
"cK c #99f2ff",
"hc c #99f470",
"#7 c #9afa84",
"ga c #9be1ff",
"#6 c #9dfc8e",
"#h c #9edbfe",
"d3 c #9ee2fe",
"gL c #9efe78",
"#a c #9fe0f1",
"hA c #9ff86e",
"gE c #a0d5fe",
"d# c #a0e7fe",
"c5 c #a0f4fe",
"#d c #a2f2d7",
"bE c #a2f7fe",
"#E c #a3fd97",
"d2 c #a4ddfe",
"#b c #a4e8fe",
".S c #a4e9fa",
"fI c #a4eafe",
"#9 c #a4fc9a",
"#A c #a4fedb",
"dX c #a6ebfe",
"hY c #a7ebdd",
".m c #a8e2d2",
"fO c #a8fe74",
"h2 c #a9f37d",
"g7 c #aaddfe",
"gK c #aafe66",
"#0 c #aafeb4",
"bc c #abf6ff",
"cC c #ace3fa",
"#x c #aceebc",
"eo c #acf4e2",
"a0 c #acfac4",
"#B c #adfbe9",
"#g c #aff1e4",
"aM c #aff8ff",
"d1 c #b1eaff",
"aj c #b1f5ff",
"am c #b2f8e0",
"in c #b3e1a3",
"fi c #b3e1ff",
"er c #b3ecfd",
".z c #b3f3e5",
"gG c #b3f7e6",
"c3 c #b3ffb1",
"en c #b5e7ff",
"an c #b5f0ff",
"cj c #b5fcff",
"gh c #b5fe66",
"hz c #b6f799",
"eR c #b6faf7",
"eT c #b6fd97",
"#c c #b7ebff",
"#1 c #b7ffc8",
".l c #b8eae3",
"#f c #b8f3b3",
"gg c #b8fc8e",
"#8 c #b9ff93",
".A c #baecd7",
"## c #baecfe",
"fP c #bafe7e",
".Y c #bcd9fe",
"d. c #bcf1fe",
"fm c #bcfe76",
"fl c #bcff81",
"h0 c #bdfb9b",
"fN c #bdfda1",
"dz c #beeafe",
"gJ c #bef9a7",
"hb c #befd9b",
"aw c #bfff81",
"#w c #c1f1dc",
".R c #c1f1e5",
"cm c #c1fe80",
"fj c #c3f9d7",
"dv c #c3f9e1",
"h1 c #c3ff9b",
"fL c #c4f1fc",
"cb c #c4feea",
"av c #c4ff8f",
"aQ c #c7fde4",
"ao c #c8faf8",
"eS c #c8fdc1",
".W c #c9ecf3",
"d0 c #cafcdf",
"#J c #cafea0",
".b c #ccfefe",
"ax c #ccff8b",
"cI c #cdf5ff",
".k c #cef2ed",
".U c #d0e9f4",
".V c #d0ebf4",
"gd c #d0faf0",
"cF c #d0fcc2",
"#. c #d1f3d7",
".Q c #d3f7ef",
"cJ c #d4f7fe",
"ch c #d7f4ff",
"c9 c #d7f5ff",
"#3 c #d8febe",
"aY c #d9fec0",
"fk c #daffab",
"ha c #dbf9d1",
"fM c #dbfbdc",
"eq c #dbfbf1",
"#2 c #dbffc5",
"cD c #dcfea0",
"dZ c #dcfed4",
"bR c #dcfee0",
"dy c #ddf6ff",
".y c #ddf9ef",
"aZ c #ddfeaa",
"ca c #deffaf",
"aR c #e0f7fe",
"aX c #e0fecc",
"dY c #e0fee8",
"cg c #e1f5ff",
"hy c #e1fad8",
"ep c #e1ffc3",
"h. c #e2ffcf",
"bo c #e3ffd5",
"ci c #e3fff8",
"im c #e4fdaf",
"gf c #e5fce4",
"hx c #e5ffc7",
".X c #e6eef2",
"au c #e8fec0",
".T c #eaf2f6",
"at c #eafeca",
"bp c #eaffb1",
"bQ c #ebfdeb",
"#5 c #ebfebc",
"bg c #ebffe9",
"dx c #ebfffa",
"ap c #ecfaf6",
"bP c #edf9ff",
"bK c #edfbed",
"aW c #edffd9",
"aq c #effde9",
".a c #f1fafb",
"cH c #f1fbfd",
"#4 c #f1ffc7",
"gH c #f1ffd7",
"gI c #f2fcf4",
"ge c #f2fede",
"as c #f2ffcf",
"c8 c #f3faff",
"#v c #f3feff",
"cc c #f4ffe5",
"bn c #f4ffe7",
"h# c #f7ffe5",
"cf c #f8fbfc",
"bi c #f8fcfa",
"bj c #f8fcfb",
"bM c #f8fcfc",
"bJ c #f8ffd7",
"bm c #f8ffed",
"bL c #f9fbf7",
"aS c #f9fbfd",
"bl c #f9fcf6",
"ce c #f9fdfb",
"aV c #f9fef0",
"bN c #fafcf8",
"bk c #fafcfb",
"ar c #faffe1",
"c6 c #faffe5",
"aU c #fcfcfc",
"bh c #fdfafe",
"dw c #fdfee0",
"cd c #fdfefc",
"aT c #fefbff",
"bO c #fefcfc",
".P c #fefefe",
"hZ c #feffe9",
"cG c #fffdef",
"c7 c #fffdf3",
".# c #ffffff",
"QtQtQtQtQtQtQtQtQtQtQt.#.a.b.c.d.e.f.g.h.i.jQtQtQtQtQtQtQtQtQtQtQtQt",
"QtQtQtQtQtQtQtQtQt.#.#.k.l.m.n.o.p.q.r.s.t.u.v.w.xQtQtQtQtQtQtQtQtQt",
"QtQtQtQtQtQtQtQt.#.y.z.A.B.C.D.E.F.G.H.I.J.K.L.M.N.OQtQtQtQtQtQtQtQt",
"QtQtQtQtQtQt.#.P.Q.R.S.T.U.V.W.X.Y.Z.0.1.2.3.4.5.6.7.8.9QtQtQtQtQtQt",
"QtQtQtQtQt.P#.###a#b#c#d#e#f#g#h#i#j#k#l#m#n#o#p#q#r#s#t#uQtQtQtQtQt",
"QtQtQtQt#v#w#x#y#z#A#B#C#D#E#F#G#H#I#J#K#L#M#N#O#P#Q#R#S#T#UQtQtQtQt",
"QtQtQtQt#V#W#X#Y#Z#0#1#2#3#4#5#6#7#8#9a.a#aa.HabacadaeafagahaiQtQtQt",
"QtQtQtajakalamanaoapaqarasatauavawaxayazaAaBaCaDaEaFaGaHaIaJaKaLQtQt",
"QtQtaMaNaOaPaQaRaSaTaUaVaWaXaYaZa0a1a2a3aAa4a5a6a7a8a9b.b#babbaiQtQt",
"QtQtbcbdbebfbgbhbibjbkblbmbnbobpbqa2brbsbtbubv.JbwbxbybzbAbBbCbDQtQt",
"QtbEbFbGbHbIbJbKbLbMbibNbObPbQbRbSbTbUbVbWbX.IbYbZb0b1b2b3b4b5b6b7Qt",
"QtbEb8b9c.c#cacbcccdcecfcgchcicjckclcmcncocpcqcrcsctcucvcwcxcyb7bDb7",
"Qt#lczcAcBcCcDcEcFcGaUcHcIcJcIcKcLcMcNcOcPcQbvcRcrcScTcUcVcWcXcYbDb7",
"QtcZc0c1c.c2c3c4c5c6c7c8c9d.d#cLdadbdcdddedfczdgdhdidjdkdldmdncYbDb7",
"QtdodpdqdrcqdsdtdudvdwdxdydzdAdBdCdDdEdFdGdHdIcqdhb0dJdKdLdMdNdObDb7",
"QtdPdQdRdSdTdUdVdWdXdYdZd0d1d2d3d4d5d6.Gb8d7d8d9e.e#eaebecedeeefbDb7",
"Qtegeheibub9ejekelemeneoepeqereseteuevewexeydgezbYeAeBeCeDeEeFeGbDb7",
"QteHeIeJeKeL.3eMeNeOePeQeReSeTeUeVeWeXeYeZe0e1e2bwe3e4e5e6e7e8efbDb7",
"Qte9f.f#fafbfcfdfefffgfhfifjfkflfmfnfofpfqfrfsftfufvfwfxfyfzfAfBbDb7",
"QtfCfDfEfafFfGeKfHfIfJfKfLfMfNfOfPfQfRfSfTfUfVfWfXfYfZf0f1f2f3aibDb7",
"Qtf4f5f6f7f8f9g.g#gagbgcgdgegfggghgigjgkglgmgngogpgqgrgsgtgugvgwb7b7",
"QtgxczgygzgAd8gBgCgDgEgFgGgHgIgJgKgLgMgNgOgPgQgRgSgTgUgVgWgXgYaKb7b7",
"QtgZg0g1g2fDg3g4g5g6g7g8g9h.h#hahbhchdhehfhghhhigShjhkhlhmhn#ubDb7b7",
"QtQthoc.fGhphqhrhshtgbhuhvhwhxhyhzhAhBhChDhEhFhGhHhIhJhKhLhMhNb7aib7",
"QtQthOhPdUhQ.3hRhShThUhVhWhXhYhZh0h1h2h3h4h5h6h7h8h9i.i#iagwbDb7#UQt",
"QtQtQtibicidieifhRigihiiijikiliminioipiqirisitiuiviwixiyb6#ub7aiQtQt",
"QtQtQtbbiziAiBiCiDiEiFiGiHiIiJiKiLiMiNiOiPiQiRiSiTiUiViWhNb7b7#UQtQt",
"QtQtQtQt#uiXiYiZi0i1i2i3i4i5i6i7i8i9j.j#jajbjcjdjejfeGhNbDb7aiQtQtQt",
"QtQtQtQtQtgwjgjhjijjjkjljljmjnjojpjqjrjsjtjujvjwjxahaKb7b7b7#UQtQtQt",
"QtQtQtQtQtaib6jyjzjAjBjCjDjEjFjGjHjIjJfwjKjLjMjNbD#ub7b7b7aiQtQtQtQt",
"QtQtQtQtQtQtQt#ubDjOjPjQjRjSjTjUjVjWjXjYjZj0b7hNbDb7b7ai#UQtQtQtQtQt",
"QtQtQtQtQtQtQtQtb7aKb6gwbbj1.O.O.Oj2bbgwb6aKbDb7b7b7aiQtQtQtQtQtQtQt",
"QtQtQtQtQtQtQtQtQt#Uaib7b7b7b7b7b7b7b7b7b7b7b7b7b7b7#UQtQtQtQtQtQtQt",
"QtQtQtQtQtQtQtQtQtQtQtb7b7b7b7b7b7b7b7b7b7b7b7b7b7QtQtQtQtQtQtQtQtQt"};
