/* XPM */
static char * displayflight_xpm[] = {
"32 32 118 2",
"  	c #8C8C8C",
". 	c #C2C2C2",
"+ 	c #C9C9C9",
"@ 	c #939393",
"# 	c #FFFFFF",
"$ 	c #C4C4C4",
"% 	c #BDBDBD",
"& 	c #FCFCFC",
"* 	c #E1E1E2",
"= 	c #CCCDCE",
"- 	c #E3E3E4",
"; 	c #FDFDFD",
"> 	c #D6D6D7",
", 	c #989A9D",
"' 	c #A4A6A9",
") 	c #DDDEDF",
"! 	c #FEFEFE",
"~ 	c #F2F2F2",
"{ 	c #ACAEB0",
"] 	c #949699",
"^ 	c #A4A5A8",
"/ 	c #D5D6D8",
"( 	c #EAEAEA",
"_ 	c #CBCCCE",
": 	c #97999B",
"< 	c #939598",
"[ 	c #B4B5B7",
"} 	c #F4F4F5",
"| 	c #C7C7C7",
"1 	c #A3A5A7",
"2 	c #95979A",
"3 	c #C7C8CA",
"4 	c #F6F6F6",
"5 	c #CACACC",
"6 	c #9A9B9E",
"7 	c #A7A9AB",
"8 	c #CFD0D1",
"9 	c #FAFBFB",
"0 	c #E7E7E8",
"a 	c #BEBFC1",
"b 	c #D2D2D4",
"c 	c #FBFBFB",
"d 	c #E5E6E7",
"e 	c #9EA0A3",
"f 	c #C2C2C4",
"g 	c #FAFAFA",
"h 	c #E8E9E9",
"i 	c #A0A2A5",
"j 	c #9C9EA0",
"k 	c #D6D7D8",
"l 	c #ADAEB1",
"m 	c #B0B0B3",
"n 	c #F0F0F0",
"o 	c #C6C6C6",
"p 	c #ADAFB1",
"q 	c #A2A4A7",
"r 	c #DDDDDF",
"s 	c #E1E2E3",
"t 	c #D1D2D4",
"u 	c #CBCCCD",
"v 	c #B8BABB",
"w 	c #9D9EA1",
"x 	c #C3C4C5",
"y 	c #CECFD1",
"z 	c #CFD0D2",
"A 	c #DBDBDC",
"B 	c #F5F5F6",
"C 	c #9D9E9F",
"D 	c #D5D6D7",
"E 	c #D3D4D5",
"F 	c #A5A7A9",
"G 	c #A9AAAD",
"H 	c #EDEDEE",
"I 	c #BBBBBC",
"J 	c #A9ABAD",
"K 	c #96989B",
"L 	c #A8AAAC",
"M 	c #AAACAE",
"N 	c #9A9C9E",
"O 	c #A1A3A5",
"P 	c #A2A4A6",
"Q 	c #C1C2C3",
"R 	c #F5F5F5",
"S 	c #F6F7F7",
"T 	c #B6B7BA",
"U 	c #F7F7F7",
"V 	c #EFEFF0",
"W 	c #E2E3E3",
"X 	c #A8A9AC",
"Y 	c #999B9D",
"Z 	c #D0D1D2",
"` 	c #F6F6F7",
" .	c #FBFBFC",
"..	c #E2E2E3",
"+.	c #A3A5A8",
"@.	c #ECECED",
"#.	c #A6A8AA",
"$.	c #C0C1C3",
"%.	c #F9FAFA",
"&.	c #DCDDDD",
"*.	c #97999C",
"=.	c #BCBDBF",
"-.	c #B8BABC",
";.	c #D9D9DA",
">.	c #EEEEEF",
",.	c #E6E6E7",
"'.	c #9C9DA0",
").	c #C6C7C8",
"!.	c #BDBEC0",
"~.	c #A0A2A4",
"{.	c #B7B8BA",
"].	c #F2F2F3",
"^.	c #D2D3D5",
"/.	c #BFC0C2",
"(.	c #F3F3F4",
"_.	c #F4F4F4",
":.	c #EBEBEC",
"<.	c #F8F8F9",
"  . . . . . . . + + + + + + + + . . . . . . . . + + + + + + + @ ",
"+ # # # # # # # # # # # # # # # # # # # # # # # # # # # # # # + ",
"+ # # # # # # # # # # # # # # # # # # # # # # # # # # # # # # + ",
"+ # # # # # # # # # # # # # # # # # # # # # # # # # # # # # # + ",
"$ # # # # # # # # # # # # # # # # # # # # # # # # # # # # # # $ ",
"% # # # # # # # # # # & * = - ; # # # # # # # # # # # # # # # % ",
"% # # # # # # # # # # ; > , ' ) ! # # # # # # # # # # # # # # % ",
"% # # # # # # # # # # # ~ { ] ^ / ( ; # # # # # # # # # # # # % ",
"% # # # # # # # # # # # # _ : < , [ } # # # # # # # # # # # # % ",
"| # # # # # # # # # # # # ~ 1 < 2 3 4 ; # # # # # # # # # # # | ",
"+ # # # # # # # # # # # # ; 5 2 < 6 7 8 9 # # # # # # # # # # + ",
"+ # # # # # 0 a b c # # # # d e < < < f g # # # # # # # # # # + ",
"+ # # # # # h i j k ! # # # ~ l < < < m n # # # # # # # # # # + ",
"o # # # # # & p < q r s t u v w < < < 2 p x y z A B ! # # # # o ",
"C D D D D D E F < < < < < < < < < < < < < < < < < G H # # # # % ",
"I - - - - - - J < K L M L q e 2 < < < < N O P L M Q R # # # # % ",
"% # # # # # S J ] T B g U V W X < < < Y Z H V ` g  .# # # # # % ",
"% # # # # # ..+.m @.# # # # @.#.< < ] $.%.# # # # # # # # # # % ",
"o # # # # # R - V # # # # ! &., < ] *.=.U # # # # # # # # # # o ",
"+ # # # # # # # # # # # # g -.] < J ;.>.; # # # # # # # # # # + ",
"+ # # # # # # # # # # # # ,.'.< ] ).c # # # # # # # # # # # # + ",
"+ # # # # # # # # # # # c !.] 2 M Q 4 # # # # # # # # # # # # + ",
"| # # # # # # # # # # # 0 ~.] {.].c # # # # # # # # # # # # # | ",
"% # # # # # # # # # # & ^.1 /.(.# # # # # # # # # # # # # # # % ",
"% # # # # # # # # # # ! _.:.<.# # # # # # # # # # # # # # # # % ",
"% # # # # # # # # # # # # # # # # # # # # # # # # # # # # # # % ",
"% # # # # # # # # # # # # # # # # # # # # # # # # # # # # # # % ",
"$ # # # # # # # # # # # # # # # # # # # # # # # # # # # # # # $ ",
"+ # # # # # # # # # # # # # # # # # # # # # # # # # # # # # # + ",
"+ # # # # # # # # # # # # # # # # # # # # # # # # # # # # # # + ",
"+ # # # # # # # # # # # # # # # # # # # # # # # # # # # # # # + ",
"@ + + + + + + + . . . . . . . . + + + + + + + + . . . . . . . . "};
