/* XPM */
static char * display_gen_zone_xpm[] = {
"34 34 228 2",
"  	c None",
". 	c #FEFEFE",
"+ 	c #F7F7F7",
"@ 	c #F2F2F2",
"# 	c #D0D0D0",
"$ 	c #C6C6C6",
"% 	c #D2D2D2",
"& 	c #DCDCDC",
"* 	c #E6E6E6",
"= 	c #D8D8D8",
"- 	c #B3B3B3",
"; 	c #818181",
"> 	c #E9E9E9",
", 	c #DEDEDE",
"' 	c #D3D3D3",
") 	c #B0B0B0",
"! 	c #A0A0A0",
"~ 	c #AAAAAA",
"{ 	c #A5A5A5",
"] 	c #B2B2B2",
"^ 	c #ABABAB",
"/ 	c #AEAEAE",
"( 	c #C5C5C5",
"_ 	c #6B6B6B",
": 	c #141414",
"< 	c #020202",
"[ 	c #F1F1F1",
"} 	c #E3E3E3",
"| 	c #CDCDCD",
"1 	c #CFCFCF",
"2 	c #CACACA",
"3 	c #C7C7C7",
"4 	c #B9B9B9",
"5 	c #989898",
"6 	c #9A9A9A",
"7 	c #898989",
"8 	c #7F7F7F",
"9 	c #9C9C9C",
"0 	c #949494",
"a 	c #848484",
"b 	c #292929",
"c 	c #FDFDFD",
"d 	c #EDEDED",
"e 	c #E5E5E5",
"f 	c #DADADA",
"g 	c #EFEFEF",
"h 	c #EBEBEB",
"i 	c #D4D4D4",
"j 	c #B5B5B5",
"k 	c #ADADAD",
"l 	c #6F6F6F",
"m 	c #7A7A7A",
"n 	c #777777",
"o 	c #808080",
"p 	c #464646",
"q 	c #0B0B0B",
"r 	c #E8E8E8",
"s 	c #E1E1E1",
"t 	c #D9D9D9",
"u 	c #E0E0E0",
"v 	c #D1D1D1",
"w 	c #AFAFAF",
"x 	c #B6B6B6",
"y 	c #BCBCBC",
"z 	c #6E6E6E",
"A 	c #595959",
"B 	c #0C0C0C",
"C 	c #FAFAFA",
"D 	c #E4E4E4",
"E 	c #DBDBDB",
"F 	c #BEBEBE",
"G 	c #D6D6D6",
"H 	c #E7E7E7",
"I 	c #DFDFDF",
"J 	c #D7D7D7",
"K 	c #EAEAEA",
"L 	c #BBBBBB",
"M 	c #C3C3C3",
"N 	c #B4B4B4",
"O 	c #8F8F8F",
"P 	c #737373",
"Q 	c #616161",
"R 	c #3B3B3B",
"S 	c #040404",
"T 	c #E2E2E2",
"U 	c #CCCCCC",
"V 	c #F3F3F3",
"W 	c #B8B8B8",
"X 	c #A9A9A9",
"Y 	c #575757",
"Z 	c #101010",
"` 	c #050505",
" .	c #A4A4A4",
"..	c #F5F5F5",
"+.	c #F6F6F6",
"@.	c #FBFBFB",
"#.	c #F4F4F4",
"$.	c #CBCBCB",
"%.	c #ACACAC",
"&.	c #A7A7A7",
"*.	c #B1B1B1",
"=.	c #BABABA",
"-.	c #4F4F4F",
";.	c #505050",
">.	c #080808",
",.	c #A8A8A8",
"'.	c #757575",
").	c #EEEEEE",
"!.	c #F9F9F9",
"~.	c #F0F0F0",
"{.	c #8D8D8D",
"].	c #7C7C7C",
"^.	c #333333",
"/.	c #545454",
"(.	c #272727",
"_.	c #8A8A8A",
":.	c #9E9E9E",
"<.	c #434343",
"[.	c #2E2E2E",
"}.	c #444444",
"|.	c #4E4E4E",
"1.	c #030303",
"2.	c #727272",
"3.	c #888888",
"4.	c #F8F8F8",
"5.	c #FCFCFC",
"6.	c #A1A1A1",
"7.	c #A3A3A3",
"8.	c #707070",
"9.	c #5E5E5E",
"0.	c #5B5B5B",
"a.	c #383838",
"b.	c #525252",
"c.	c #191919",
"d.	c #959595",
"e.	c #ECECEC",
"f.	c #C4C4C4",
"g.	c #CECECE",
"h.	c #868686",
"i.	c #666666",
"j.	c #393939",
"k.	c #414141",
"l.	c #303030",
"m.	c #656565",
"n.	c #C2C2C2",
"o.	c #979797",
"p.	c #767676",
"q.	c #5A5A5A",
"r.	c #474747",
"s.	c #070707",
"t.	c #626262",
"u.	c #A6A6A6",
"v.	c #828282",
"w.	c #565656",
"x.	c #424242",
"y.	c #222222",
"z.	c #494949",
"A.	c #969696",
"B.	c #646464",
"C.	c #5C5C5C",
"D.	c #939393",
"E.	c #9F9F9F",
"F.	c #909090",
"G.	c #454545",
"H.	c #404040",
"I.	c #3F3F3F",
"J.	c #686868",
"K.	c #DDDDDD",
"L.	c #7B7B7B",
"M.	c #787878",
"N.	c #676767",
"O.	c #585858",
"P.	c #4A4A4A",
"Q.	c #8C8C8C",
"R.	c #696969",
"S.	c #0024FF",
"T.	c #363636",
"U.	c #3C3C3C",
"V.	c #060606",
"W.	c #5D5D5D",
"X.	c #636363",
"Y.	c #C9C9C9",
"Z.	c #606060",
"`.	c #797979",
" +	c #3E3E3E",
".+	c #515151",
"++	c #7D7D7D",
"@+	c #C0C0C0",
"#+	c #8B8B8B",
"$+	c #858585",
"%+	c #484848",
"&+	c #535353",
"*+	c #838383",
"=+	c #B7B7B7",
"-+	c #343434",
";+	c #3A3A3A",
">+	c #5F5F5F",
",+	c #929292",
"'+	c #999999",
")+	c #BDBDBD",
"!+	c #7E7E7E",
"~+	c #353535",
"{+	c #202020",
"]+	c #3D3D3D",
"^+	c #181818",
"/+	c #4C4C4C",
"(+	c #4D4D4D",
"_+	c #252525",
":+	c #2A2A2A",
"<+	c #8E8E8E",
"[+	c #4B4B4B",
"}+	c #6A6A6A",
"|+	c #717171",
"1+	c #6D6D6D",
"2+	c #1B1B1B",
"3+	c #010101",
"4+	c #747474",
"5+	c #555555",
"6+	c #878787",
"7+	c #919191",
"8+	c #242424",
"9+	c #0A0A0A",
"0+	c #373737",
"a+	c #171717",
"b+	c #2F2F2F",
"c+	c #313131",
"d+	c #232323",
"e+	c #0E0E0E",
"                      . + @ # $ % & * = - ;                         ",
"                  . . > , ' ) ! ~ { ] ^ / ( _ : <                   ",
"                . [ } , | 1 2 3 4 5 6 7 8 9 0 a b <                 ",
"            . c d e f g } e } h i j k k 9 l m n o p q <             ",
"          c r s % t u , v u s 1 / w & 3 w x y 8 _ z A B <           ",
"        C D E F G * H I G u , J 1 1 K = ^ L M N O P Q R < S         ",
"        T U u ( f e K @ g + V I E H s 3 ] W 6 k X 8 Q Y Z < `       ",
"      *  .L * } d ..+.@.+ #.V > H h $.X 6 %.&.*.=.o A -.;.>.< `     ",
"    r ,.'.N ).[ !.@.@.C + @ ~.g D E - ,.6 {.O 5 4 ].R ^./.(.< `     ",
"    e _.'.F + !.C C @.!.@.!...V I - N N j :.o 8 7 A <.[.}.|.q 1.    ",
"  D { 2.3.J !.+.4.C C C 5.+...V i L # ^ 6.7.7 8.].9.0.;.a.b.c.< S   ",
"  D 3.9.d.= [ ).!.5.C !.~.d + e.f.g.H U 6 :.h.P n i.A A j.k.l.S 1.S ",
"  3 '.m.w = )., ).@.@.4.e.g e.I n.# | x &.o.o p.P q.}.b.(.k.r.s.1.S ",
"  N 2.t.d.$.r % T @.@.+ ).e t n.- ~ 9 u.n.v.'.3.o w.x.}.y.r.z.s.1.S ",
"  A.B.C.D.h.E.% # h C !.g s 2 x 7.A.A.F.O ].8 h.o 9.k.G.k.H.I.s.1.S ",
"  O B.w.w J.m ^ x K.#.@ )., % i | %.! 5 3.L.v.M.N.0.j.;.O.P.r.` 1.S ",
"  Q.q.R.:.9.o a { v K.S.S.S.S.S.S.S.S.S.S.S.S.S.S.0.T.U.j.Y -.V.1.S ",
"  _.b.L.W.X.l z 8 n.Y.S.> h D U # $./ ) 6.a Z.`.7 S. +.+r.B.;.` 1.S ",
"  0 /.P O.N.m.N.++U @+S.= K ~.* D $.W | =.#+z $+'.}.S.-.%+q.r.` 1.S ",
"  u.w._ O.9.&+W.*+E L S.H ~.H u e f =+~  .A.L.; Z.k.-+S.y.;+j.` 1.S ",
"  %.Q t.>+;.i.,+'+% )+S.g 4.#.e T K.%.a !+! '+l b.Y ~+{+S.]+^+< S S ",
"  X.'.>+Q /+v.*.o.n.U S.* 4.4.* u , &.].6.)+v.(+}.0.(.^+_+S.q < S S ",
"  S.S.S.S.S.S.S.S.S.S.S.F #.C g H G M g.3 0 >+P.}.>+/.j.}.:+S.1.S S ",
"  S.m.d.&+;.a 9 <+F.)+y d.3 #.~.s t G y 3.Y q.q.C.i.C.;.[+q 1.S.` S ",
"  S.< l m -.l :.5 <+o.y k F.f 5.* K t 6 n }+z |+1+Q /+|.2+< 1.S.S   ",
"  S.  3+>+O.9.; :.d.A.{ Y.=+f.~.v @+6 ++m n 4+_ t.5+z.[.< < S S.    ",
"  S.  < [.Q q./.++6+L.|+o {.4 ,.; a 4+J.1+R.Z.q.b.[+l.>.1.S S S.    ",
"  S.    < y./+-.w.X.p.W.C.Q '.7+D.M.0.Z.W.0.0.Y p 8+V.1.1.S ` S.    ",
"  S.      < 9+l.|.&+0.j.j.I.P.0.Y 5+.+0.W.C.|.0+a+< < S S S S S.    ",
"  S.      ` < ` _+R k.a.R b b+c+{+d+b+]+z.I.(.e+1.< S S S `   S.    ",
"  S.S.S.S.S.S.S.S.S.S.S.S.S.S.S.S.S.S.S.S.S.S.S.S.S.S.S.S.S.S.S.    ",
"                S < < < < < < < < < < < < < 1.S S S `               ",
"                  S ` S S S S S S S S S S S S S S S S               ",
"                      S S S S S S S S S S S S S S                   "};
