/* XPM */
static char *displaytrack[]={
"34 34 601 2",
"Qt c None",
"eH c #000024",
"as c #000028",
"bt c #000126",
"#u c #000128",
"a4 c #00012a",
"fU c #000226",
"bu c #00022a",
"#U c #00022c",
"ai c #00032c",
"at c #00032e",
"el c #00042a",
"c5 c #00042c",
"g4 c #00042e",
"dt c #00052c",
"cE c #00062c",
"cj c #000630",
"hi c #000634",
"ar c #000732",
"gq c #000836",
".8 c #000a3c",
"gM c #000b36",
"a3 c #000b38",
"e7 c #000b3a",
"fT c #000b3c",
"#t c #000c3a",
"hu c #000d3c",
"hh c #000f3a",
"ag c #001142",
"hj c #00174c",
"eG c #001b52",
"e4 c #001d44",
"bs c #001d4c",
"gf c #001e5a",
"ht c #002358",
"eD c #00264c",
"eE c #002832",
"hb c #00292e",
"hc c #002958",
"hs c #002a5a",
"et c #002b44",
"e5 c #002c5a",
"cr c #002e1e",
"aC c #002e62",
"hk c #002e68",
"e3 c #002e6c",
"es c #00316e",
"h. c #00325c",
"cg c #003614",
"h# c #003770",
"hd c #00377c",
"hl c #003974",
"bV c #003a66",
"hr c #003a70",
"ha c #003b64",
"aA c #003b84",
"a0 c #003c40",
"hm c #003d6c",
"do c #003f86",
"g8 c #004280",
"gR c #00428c",
"ft c #004294",
"c0 c #004396",
"g9 c #00458c",
"f# c #0046d6",
"az c #00478a",
"eu c #004866",
"eF c #00488c",
"eg c #004892",
"dQ c #004994",
"gS c #00499c",
"cz c #004ba8",
"aZ c #004dac",
"cp c #004f98",
"ef c #004fa8",
"cD c #005160",
"fu c #0051a4",
"bU c #005451",
"e6 c #0054aa",
"eL c #0054de",
"ce c #00557c",
"dS c #005692",
"ei c #00569e",
"gT c #0056c0",
"fX c #0059de",
"a1 c #005a40",
"c4 c #005a6a",
"fx c #005ae2",
"ct c #005b72",
"eh c #005bc2",
"eA c #005bd6",
"dv c #005de8",
"eq c #005eea",
"ap c #005fa8",
"aq c #005fb8",
"dW c #0060e2",
"cH c #0062e8",
"en c #0063ea",
"dY c #0064ec",
"br c #00668c",
"aB c #0066ae",
"gi c #0067da",
"c7 c #0067f4",
"cZ c #0069e0",
"dn c #006ae2",
"cw c #006aee",
"dx c #006bf0",
"bw c #006cf2",
"eJ c #006cfe",
"af c #006d96",
"ex c #0071f0",
"cm c #0072f2",
"bR c #007462",
"dy c #0074f6",
"cG c #0075f8",
"bo c #007664",
"bX c #0076ee",
"#R c #0077a8",
"eB c #0077f0",
"eI c #0079be",
"cJ c #007af6",
"aG c #008cee",
"aw c #0090da",
"#p c #00a681",
"ah c #010026",
".9 c #010028",
"dq c #014d28",
"gg c #02001a",
"hw c #020022",
"aD c #020024",
"#T c #020028",
"fv c #02307c",
"bT c #025000",
"ci c #02577e",
"ch c #02582f",
"gh c #0270d6",
"dr c #027254",
"d0 c #0276f8",
"ao c #027845",
"fV c #03001e",
".O c #030022",
"hv c #030024",
".x c #030026",
"er c #033d7f",
"#S c #034685",
"g7 c #034e8d",
"dM c #036eff",
"cv c #0374ff",
"f. c #037aff",
"g3 c #041a46",
"gr c #042766",
"eC c #043e86",
"ev c #044578",
"gj c #046df0",
"g5 c #052965",
".N c #052e73",
"gm c #053577",
"ep c #056ceb",
"dZ c #0577f7",
"a7 c #0586ff",
"gL c #062954",
"dm c #0681fe",
"bq c #074d0a",
"cs c #075f2a",
"a2 c #076089",
"cY c #0776ff",
".3 c #0782ff",
"gN c #083778",
"hp c #085088",
"cB c #085821",
"c3 c #086234",
"ej c #087463",
"hg c #092d5d",
"ds c #096275",
"hq c #0a4d86",
"cC c #0a5421",
"dR c #0a5dba",
"c1 c #0a5ea6",
"bp c #0a6a2c",
"ae c #0a7e51",
"gl c #0b356d",
"gp c #0b3769",
"dp c #0b4587",
"fr c #0b55b1",
"dP c #0b5ecf",
"#q c #0b8976",
"bW c #0b89ff",
"g6 c #0c4484",
"hn c #0c5186",
"gt c #0c5bac",
"cf c #0c6c32",
"ek c #0d576d",
"c2 c #0d7534",
"ec c #0d7fff",
"bQ c #0d85ff",
"cd c #0d8aff",
"ho c #0e558c",
"gs c #0e57aa",
"c8 c #0e78fa",
"dT c #0e8260",
"cA c #0f507d",
".7 c #0f5285",
"bn c #0f80ff",
"aY c #0f96ff",
"a8 c #0fa2ff",
"#P c #0fbf41",
"he c #10548e",
"#Q c #109461",
"#s c #11699b",
"bS c #117532",
"dN c #118cff",
"cq c #12544d",
"e2 c #1255c4",
"ge c #125aa4",
".5 c #128afa",
"eY c #12a816",
"g2 c #133e63",
"gK c #135185",
"dU c #13616d",
"ez c #136ae1",
"cl c #1382ff",
"cK c #138dff",
"gk c #155393",
"fS c #15549b",
"gO c #155999",
"ey c #156ee7",
"#r c #1585a1",
"fW c #1585af",
"cV c #158eff",
".J c #1594ff",
"#o c #15efc8",
"gn c #166fc2",
"gd c #1756a3",
"gP c #175fa9",
"go c #1767b9",
"cX c #178bf7",
"cy c #17c0ff",
"gU c #186a9e",
".w c #191137",
"fs c #195fad",
"gW c #196679",
".4 c #198bff",
".I c #19a0ff",
"fR c #1a5aa2",
"fw c #1a779e",
"bP c #1b9cff",
"aF c #1ba1ff",
"hf c #1c486e",
"ab c #1cd8cd",
"gX c #1d57b7",
"gQ c #1d67b3",
"ee c #1d84f7",
"c9 c #1d92ff",
"bv c #1d9dff",
"cF c #1da7ff",
"eK c #1e6bd4",
"ad c #1ea62b",
"e8 c #1f4065",
"gV c #1f6b46",
"eo c #1f77e3",
"fy c #1f98ff",
"dl c #1f9dff",
"c6 c #1fa3ff",
"e9 c #1fb2ff",
"#O c #1feb5d",
"g1 c #205790",
"cW c #2194ff",
"du c #219eff",
"bx c #21aeff",
"eX c #21d94c",
"ac c #21dd3c",
"gu c #23609f",
"dj c #2390ff",
"dk c #239aff",
"ak c #23c3ff",
"gJ c #2461a0",
"dX c #2481ea",
"fQ c #2666ae",
"dw c #268af0",
"fP c #2763ad",
".v c #2778c3",
"ed c #2797ff",
"dO c #279cff",
"eb c #27a3d7",
"dV c #27abff",
"fq c #296ab3",
".G c #29b1ff",
".K c #29b6ff",
".H c #2bb2ff",
"#j c #2bcfff",
".L c #2caafa",
"di c #2d95ff",
"cu c #2dadff",
"ax c #2de94c",
"fN c #2e5fa2",
"e1 c #2e93e0",
"dh c #2f9bff",
"cx c #2fa9ff",
"cc c #2faeff",
"dL c #3192ff",
"cU c #31b9ff",
"fO c #3261a2",
".6 c #3293bc",
".M c #3293ee",
"gI c #3362a1",
"gY c #3363a5",
"fc c #339dff",
"g0 c #3563a1",
"f0 c #359eff",
"fa c #35a7ff",
"bO c #35b5ff",
"ew c #35c8ff",
"eZ c #35cb4e",
"al c #36ec76",
"gH c #3761a1",
"fA c #379fff",
"dg c #37adff",
"ca c #37d7ff",
"gy c #38629a",
"#M c #38dfee",
"#N c #38f689",
"gx c #396299",
"bm c #39bbff",
"cb c #39c0ff",
"fB c #3ba0ff",
"eN c #3baaff",
"bN c #3baeff",
".o c #3bb7ff",
"gG c #3c639e",
"gZ c #3d639b",
"fM c #3da188",
"aX c #3db4ff",
"dK c #3db8ff",
"gF c #3f64a7",
"f4 c #3f9eff",
"em c #3fbdff",
"gE c #405da8",
"gv c #4169a5",
"f1 c #41a8ff",
"#n c #41d4ff",
"e0 c #41ef5a",
"aH c #42ee5b",
"fZ c #43a9ff",
".q c #43baff",
"bk c #43c3ff",
"bY c #43c8ff",
".2 c #45aeff",
"fp c #45af83",
"a6 c #45bbff",
"av c #45bfff",
"cT c #45c4ff",
"gb c #4676ac",
"dI c #46ccd8",
"bl c #47b3ff",
"ga c #4970a5",
"gc c #4978b9",
"fE c #49a3ff",
"gz c #4a64a0",
"fz c #4bacff",
"g# c #4c819c",
"dH c #4cf0ea",
"#Y c #4ee6f0",
"fY c #4faeff",
".p c #4fbfff",
"dJ c #4fccdb",
"c. c #4ff5f7",
"#H c #4ff7d2",
"ea c #50dea4",
"bM c #50eeec",
".s c #51bfff",
"cI c #51c4ff",
".r c #51c8ff",
"ck c #53ccff",
"e. c #53df77",
"dz c #56ddfa",
"ff c #58aefe",
".t c #58c2fe",
"gA c #5979b5",
".n c #59c7e3",
"eQ c #5ab3fe",
"#m c #5ac2fe",
"#y c #5ad6fe",
"fb c #5cb8fe",
".1 c #5cbffe",
"aT c #5cc7fe",
"aa c #5ccefe",
"gw c #5e7baa",
"gD c #5e8466",
"#L c #5ebcfe",
"#i c #5ec0fe",
"d9 c #5ef869",
"#G c #5ffdd2",
"b9 c #60dbfe",
".j c #628c89",
"fd c #64bbfe",
"eM c #64c2fe",
"bj c #65eef7",
".0 c #66bcfe",
"aW c #66c7fe",
"bK c #67ecf7",
"#I c #67f3b6",
"g. c #68ae72",
"aU c #68c4fe",
"a# c #6ac1fe",
".i c #6ac8c5",
"fo c #6aee6d",
"fL c #6be15f",
"a. c #6be1f7",
"aV c #6cc5fe",
"c# c #6cf0ad",
"f3 c #6eb9fe",
"#l c #6edefe",
".F c #70cafe",
".u c #70dbfe",
"#k c #70fee1",
"df c #72c1fe",
"bi c #74ccfe",
"fg c #74cffe",
"gB c #769a94",
"a9 c #76fe89",
"#W c #77ed98",
"fm c #78e466",
"#z c #78f1f6",
"#Z c #79fdbd",
"d3 c #7ac5fe",
"bJ c #7ad7fe",
"gC c #7ba15d",
"#D c #7bf993",
"dG c #7cecce",
"e# c #7deb9c",
".Z c #7ec0fe",
"fC c #7eccfe",
".h c #7ff1ed",
"#K c #7ff1ef",
"dF c #80e8af",
"d2 c #81ceff",
"fn c #81f167",
"d. c #83e8f7",
"f2 c #85c7ff",
".E c #85d8f3",
"d1 c #85deff",
"fF c #86dae4",
"cn c #87dcff",
".D c #88ddea",
"fD c #89c6ff",
"eO c #89ceff",
".d c #89d4ff",
".B c #89e1e9",
"by c #89f1d5",
"#e c #8aecb1",
"dB c #8dd3ff",
"cS c #8dddff",
"de c #8fd1ff",
"dA c #8fd6ff",
"#V c #8ffde2",
".g c #8ffffb",
"#F c #91f9c2",
".c c #93dfff",
"fK c #93f670",
"#C c #93fbb5",
".e c #95e2ff",
"bh c #95e5ff",
"aS c #95f7ea",
"b1 c #96f3fe",
".f c #97efff",
".C c #98dfe6",
"#X c #98fac4",
"b8 c #99f2ff",
"fl c #99f470",
"#7 c #9afa84",
"#6 c #9dfc8e",
"#h c #9edbfe",
"cR c #9ee2fe",
"eW c #9efe78",
"#a c #9fe0f1",
"fJ c #9ff86e",
"eP c #a0d5fe",
"#d c #a2f2d7",
"a5 c #a2f7fe",
"#E c #a3fd97",
"cQ c #a4ddfe",
"#b c #a4e8fe",
".S c #a4e9fa",
"#9 c #a4fc9a",
"#A c #a4fedb",
"cL c #a6ebfe",
"f5 c #a7ebdd",
".m c #a8e2d2",
"f9 c #a9f37d",
"fe c #aaddfe",
"eV c #aafe66",
"#0 c #aafeb4",
"aE c #abf6ff",
"bZ c #ace3fa",
"#x c #aceebc",
"da c #acf4e2",
"#B c #adfbe9",
"#g c #aff1e4",
"au c #aff8ff",
"cP c #b1eaff",
"aj c #b1f5ff",
"am c #b2f8e0",
"d4 c #b3e1ff",
"dd c #b3ecfd",
".z c #b3f3e5",
"eR c #b3f7e6",
"co c #b3ffb1",
"d# c #b5e7ff",
"bI c #b5fcff",
"fI c #b6f799",
"dC c #b6faf7",
"dE c #b6fd97",
"#c c #b7ebff",
"#1 c #b7ffc8",
".l c #b8eae3",
"#f c #b8f3b3",
"#8 c #b9ff93",
".A c #baecd7",
"## c #baecfe",
".Y c #bcd9fe",
"d8 c #bcfe76",
"d7 c #bcff81",
"f7 c #bdfb9b",
"eU c #bef9a7",
"fk c #befd9b",
"#w c #c1f1dc",
".R c #c1f1e5",
"bL c #c1fe80",
"d5 c #c3f9d7",
"f8 c #c3ff9b",
"bA c #c4feea",
"ay c #c7fde4",
"dD c #c8fdc1",
".W c #c9ecf3",
"cO c #cafcdf",
"#J c #cafea0",
".b c #ccfefe",
"b6 c #cdf5ff",
".k c #cef2ed",
".U c #d0e9f4",
".V c #d0ebf4",
"b2 c #d0fcc2",
"#. c #d1f3d7",
".Q c #d3f7ef",
"b7 c #d4f7fe",
"bG c #d7f4ff",
"#3 c #d8febe",
"d6 c #daffab",
"fj c #dbf9d1",
"dc c #dbfbf1",
"#2 c #dbffc5",
"b0 c #dcfea0",
"cN c #dcfed4",
"bg c #dcfee0",
".y c #ddf9ef",
"bz c #deffaf",
"cM c #e0fee8",
"bF c #e1f5ff",
"fH c #e1fad8",
"db c #e1ffc3",
"fh c #e2ffcf",
"aQ c #e3ffd5",
"bH c #e3fff8",
"fG c #e5ffc7",
".X c #e6eef2",
".T c #eaf2f6",
"aR c #eaffb1",
"bf c #ebfdeb",
"#5 c #ebfebc",
"aI c #ebffe9",
"be c #edf9ff",
"b# c #edfbed",
".a c #f1fafb",
"b5 c #f1fbfd",
"#4 c #f1ffc7",
"eS c #f1ffd7",
"eT c #f2fcf4",
"#v c #f3feff",
"bB c #f4ffe5",
"aP c #f4ffe7",
"fi c #f7ffe5",
"bE c #f8fbfc",
"aK c #f8fcfa",
"aL c #f8fcfb",
"bb c #f8fcfc",
"b. c #f8ffd7",
"aO c #f8ffed",
"ba c #f9fbf7",
"aN c #f9fcf6",
"bD c #f9fdfb",
"bc c #fafcf8",
"aM c #fafcfb",
"b4 c #fcfcfc",
"aJ c #fdfafe",
"bC c #fdfefc",
"bd c #fefcfc",
".P c #fefefe",
"f6 c #feffe9",
"an c #ff0000",
"b3 c #fffdef",
".# c #ffffff",
"QtQtQtQtQtQtQtQtQtQtQt.#.a.b.c.d.e.f.g.h.i.jQtQtQtQtQtQtQtQtQtQtQtQt",
"QtQtQtQtQtQtQtQtQt.#.#.k.l.m.n.o.p.q.r.s.t.u.v.w.xQtQtQtQtQtQtQtQtQt",
"QtQtQtQtQtQtQtQt.#.y.z.A.B.C.D.E.F.G.H.I.J.K.L.M.N.OQtQtQtQtQtQtQtQt",
"QtQtQtQtQtQt.#.P.Q.R.S.T.U.V.W.X.Y.Z.0.1.2.3.4.5.6.7.8.9QtQtQtQtQtQt",
"QtQtQtQtQt.P#.###a#b#c#d#e#f#g#h#i#j#k#l#m#n#o#p#q#r#s#t#uQtQtQtQtQt",
"QtQtQtQt#v#w#x#y#z#A#B#C#D#E#F#G#H#I#J#K#L#M#N#O#P#Q#R#S#T#UQtQtQtQt",
"QtQtQtQt#V#W#X#Y#Z#0#1#2#3#4#5#6#7#8#9a.a#aa.HabacadaeafagahaiQtQtQt",
"QtQtQtajakalamananananananananananananananananananaoaoapaqarasatQtQt",
"QtQtauavawaxayanananananananananananananananananananazaAaBaCaDaiQtQt",
"QtQtaEaFaGaHaIaJaKaLaMaNaOaPaQaRaSaTaUaVaWaXaY.JananaZa0a1a2a3a4QtQt",
"Qta5a6a7a8a9b.b#babbaKbcbdbebfbgbhbibjbkblbm.IbnananbobpbqbrbsbtbuQt",
"Qta5bvbwbxbybzbAbBbCbDbEbFbGbHbIbJbKbLbMbNbObPbQananbRbSbTbUbVbua4bu",
"Qt#lbWbXbYbZb0b1b2b3b4b5b6b7b6b8b9c.c#cacbccaYcdanancecfcgchcicja4bu",
"Qtckclcmbxcncob1anananananananananananananananananancpcqcrcsctcja4bu",
"QtcucvcwcxbPcyananananananananananananananananananczczcAcBcCcDcEa4bu",
"QtcFcGcHcIcJcKanancLcMcNcOcPcQcRcScTcU.GbvcVcWcXcYcZc0c1c2c3c4c5a4bu",
"Qtc6c7c8aXbwc9anand.d#dadbdcdddedfdgdhdidjdkdldmbndndodpdqdrdsdta4bu",
"Qtdudvdwdxdy.3anandzdAdBdCdDdEdFdGdHdIdJdKdLdMdNdOdPdQdRdSdTdUc5a4bu",
"QtdVdWdXdYdZd0anand1d2d3d4d5d6d7d8d9e.e#eaebecedeeefegeheiejekela4bu",
"QtemeneodYepeqananananananananananananananananananerereseteuevaia4bu",
"QtewexeyezeAeBeBananananananananananananananananananeCeDeEeFeGeHbubu",
"QteIbWeJeKeLcWeMeNeOePeQeReSeTeUeVeWeXeYeZe0e1e2anane3e4e5e6e7asbubu",
"Qte8e9f.f#enfafbfcfdfefffgfhfifjfkflfmfnfofpfqfrananfsftfufv#ua4bubu",
"QtQtfwbxeqfxfyfzfAfBfCfDfEfFfGfHfIfJfKfLfMfNfOfPananfQfRfSfTfUbuaibu",
"QtQtfVfWcKfX.3fYfZf0f1f2f3f4f5f6f7f8f9g.g#gagbgcanangdgegfeHa4bu#UQt",
"QtQtQtggghgigjananananananananananananananananananangkglbt#ubuaiQtQt",
"QtQtQtaDgmgngoanananananananananananananananananangpgpgqfUbubu#UQtQt",
"QtQtQtQt#ugrgsgtgugvgwgxgygzgAgBgCgDgEgFgGgHgIgJgKgLdtfUa4buaiQtQtQt",
"QtQtQtQtQteHgMgNgOgPgQgRgRgSgTgUgVgWgXgYgZg0g1g2g3ahasbububu#UQtQtQt",
"QtQtQtQtQtaibtg4g5g6g7g8g9h.h#hahbhchdeghehfhghha4#ubububuaiQtQtQtQt",
"QtQtQtQtQtQtQt#ua4hihjhkhlhmhnhohphqhrhshthubufUa4bubuai#UQtQtQtQtQt",
"QtQtQtQtQtQtQtQtbuasbteHaDhv.O.O.OhwaDeHbtasa4bububuaiQtQtQtQtQtQtQt",
"QtQtQtQtQtQtQtQtQt#Uaibububububububububububububububu#UQtQtQtQtQtQtQt",
"QtQtQtQtQtQtQtQtQtQtQtbubububububububububububububuQtQtQtQtQtQtQtQtQt"};
