/* XPM */
static char * display_iss60_zone_xpm[] = {
"34 34 363 2",
"  	c None",
". 	c #FEFEFE",
"+ 	c #F7F7F7",
"@ 	c #F2F2F2",
"# 	c #D0D0D0",
"$ 	c #C6C6C6",
"% 	c #D2D2D2",
"& 	c #DCDCDC",
"* 	c #E6E6E6",
"= 	c #D8D8D8",
"- 	c #B3B3B3",
"; 	c #818181",
"> 	c #E9E9E9",
", 	c #DEDEDE",
"' 	c #D3D3D3",
") 	c #B0B0B0",
"! 	c #A0A0A0",
"~ 	c #AAAAAA",
"{ 	c #A5A5A5",
"] 	c #B2B2B2",
"^ 	c #ABABAB",
"/ 	c #AEAEAE",
"( 	c #C5C5C5",
"_ 	c #6B6B6B",
": 	c #141414",
"< 	c #020202",
"[ 	c #F1F1F1",
"} 	c #E3E3E3",
"| 	c #CDCDCD",
"1 	c #CFCFCF",
"2 	c #CACACA",
"3 	c #C7C7C7",
"4 	c #B9B9B9",
"5 	c #989898",
"6 	c #9A9A9A",
"7 	c #898989",
"8 	c #7F7F7F",
"9 	c #9C9C9C",
"0 	c #949494",
"a 	c #848484",
"b 	c #292929",
"c 	c #FDFDFD",
"d 	c #EDEDED",
"e 	c #E5E5E5",
"f 	c #DADADA",
"g 	c #EFEFEF",
"h 	c #EBEBEB",
"i 	c #D4D4D4",
"j 	c #B5B5B5",
"k 	c #ADADAD",
"l 	c #6F6F6F",
"m 	c #7A7A7A",
"n 	c #777777",
"o 	c #808080",
"p 	c #464646",
"q 	c #0B0B0B",
"r 	c #E8E8E8",
"s 	c #E1E1E1",
"t 	c #D9D9D9",
"u 	c #E0E0E0",
"v 	c #D1D1D1",
"w 	c #AFAFAF",
"x 	c #B6B6B6",
"y 	c #BCBCBC",
"z 	c #6E6E6E",
"A 	c #595959",
"B 	c #0C0C0C",
"C 	c #0024FF",
"D 	c #FAFAFA",
"E 	c #B5BCE9",
"F 	c #2D4AF7",
"G 	c #0327FD",
"H 	c #082AFD",
"I 	c #2946FA",
"J 	c #B1B9EC",
"K 	c #DFDFDF",
"L 	c #D6D6D6",
"M 	c #B2B9E6",
"N 	c #2E4AF8",
"O 	c #0427FE",
"P 	c #2542F6",
"Q 	c #B3BCEE",
"R 	c #BBBBBB",
"S 	c #7382DB",
"T 	c #1837F5",
"U 	c #0225FD",
"V 	c #0D2DEE",
"W 	c #495287",
"X 	c #3B3B3B",
"Y 	c #010205",
"Z 	c #011693",
"` 	c #E2E2E2",
" .	c #213FF6",
"..	c #0629FE",
"+.	c #6C7DDE",
"@.	c #8794E8",
"#.	c #596FF4",
"$.	c #A4AEF0",
"%.	c #2846FD",
"&.	c #7B8BED",
"*.	c #8795E8",
"=.	c #5A70F5",
"-.	c #9DA8E9",
";.	c #7784D0",
">.	c #3951E3",
",.	c #6B78C8",
"'.	c #3E50BF",
").	c #47508A",
"!.	c #575757",
"~.	c #081980",
"{.	c #021691",
"].	c #A4A4A4",
"^.	c #0326FD",
"/.	c #1031FD",
"(.	c #C0C5E7",
"_.	c #F5F5F5",
":.	c #F6F6F6",
"<.	c #FBFBFB",
"[.	c #0428FE",
"}.	c #1132FE",
"|.	c #C5CAEC",
"1.	c #E7E7E7",
"2.	c #CBCBCB",
"3.	c #A9A9A9",
"4.	c #2541ED",
"5.	c #1A39F0",
"6.	c #ADAEB2",
"7.	c #B1B2BD",
"8.	c #4F4F4F",
"9.	c #0D2BE2",
"0.	c #0022F0",
"a.	c #010202",
"b.	c #040506",
"c.	c #2745FB",
"d.	c #A8A8A8",
"e.	c #757575",
"f.	c #2F49EB",
"g.	c #1939FE",
"h.	c #687DFD",
"i.	c #EAECFB",
"j.	c #3F5AFB",
"k.	c #1737FC",
"l.	c #5B70F0",
"m.	c #A7A9B8",
"n.	c #0427FA",
"o.	c #0F2FF2",
"p.	c #0729FA",
"q.	c #1A36E3",
"r.	c #343852",
"s.	c #333333",
"t.	c #0125FA",
"u.	c #0624DD",
"v.	c #050505",
"w.	c #2644FA",
"x.	c #8A8A8A",
"y.	c #B2B4C2",
"z.	c #788AFB",
"A.	c #304DFD",
"B.	c #0125FE",
"C.	c #5A71FD",
"D.	c #F9F9F9",
"E.	c #E9EBF9",
"F.	c #7789FA",
"G.	c #2F4CFC",
"H.	c #4057E3",
"I.	c #B4B4B4",
"J.	c #4E5CB0",
"K.	c #4456C3",
"L.	c #162EC0",
"M.	c #2E2E2E",
"N.	c #0124FA",
"O.	c #0C2AE3",
"P.	c #030303",
"Q.	c #1B39EF",
"R.	c #727272",
"S.	c #888888",
"T.	c #D1D2D7",
"U.	c #D1D6F9",
"V.	c #304DFE",
"W.	c #FCFCFC",
"X.	c #F0F1F6",
"Y.	c #F3F3F3",
"Z.	c #B2B8DA",
"`.	c #2745F5",
" +	c #A1A1A1",
".+	c #1836F1",
"++	c #1231EE",
"@+	c #707070",
"#+	c #787980",
"$+	c #112EDE",
"%+	c #505050",
"&+	c #0927DF",
"*+	c #0426F4",
"=+	c #181919",
"-+	c #010203",
";+	c #0022F2",
">+	c #1634EA",
",+	c #5E5E5E",
"'+	c #959595",
")+	c #1737FA",
"!+	c #7083F8",
"~+	c #97A4F4",
"{+	c #6F83FC",
"]+	c #F0F0F0",
"^+	c #1A3AFD",
"/+	c #7386FB",
"(+	c #95A3F2",
"_+	c #576BE4",
":+	c #536AF6",
"<+	c #CCCCCC",
"[+	c #4F61CD",
"}+	c #0124FE",
"|+	c #3D4EB3",
"1+	c #3247C4",
"2+	c #263AB7",
"3+	c #1D2E97",
"4+	c #1529A3",
"5+	c #011590",
"6+	c #02137B",
"7+	c #1331E7",
"8+	c #656565",
"9+	c #4D64F0",
"0+	c #1C3CFC",
"a+	c #0326FE",
"b+	c #0B2DFE",
"c+	c #4A64FD",
"d+	c #E2E5FB",
"e+	c #F8F8F8",
"f+	c #ECECEC",
"g+	c #566DF9",
"h+	c #092BFC",
"i+	c #3D57F0",
"j+	c #B8BCD1",
"k+	c #A7A7A7",
"l+	c #949499",
"m+	c #3449CA",
"n+	c #0628F7",
"o+	c #0527F8",
"p+	c #2037C2",
"q+	c #40424C",
"r+	c #525252",
"s+	c #26262A",
"t+	c #1B30AF",
"u+	c #0325F4",
"v+	c #0022F1",
"w+	c #011695",
"x+	c #030407",
"y+	c #626262",
"z+	c #EEEEEE",
"A+	c #C2C2C2",
"B+	c #A6A6A6",
"C+	c #828282",
"D+	c #565656",
"E+	c #424242",
"F+	c #444444",
"G+	c #222222",
"H+	c #474747",
"I+	c #494949",
"J+	c #070707",
"K+	c #040404",
"L+	c #969696",
"M+	c #646464",
"N+	c #5C5C5C",
"O+	c #939393",
"P+	c #868686",
"Q+	c #9F9F9F",
"R+	c #A3A3A3",
"S+	c #909090",
"T+	c #8F8F8F",
"U+	c #7C7C7C",
"V+	c #414141",
"W+	c #454545",
"X+	c #404040",
"Y+	c #3F3F3F",
"Z+	c #686868",
"`+	c #DDDDDD",
" @	c #F4F4F4",
".@	c #ACACAC",
"+@	c #7B7B7B",
"@@	c #787878",
"#@	c #676767",
"$@	c #5B5B5B",
"%@	c #393939",
"&@	c #585858",
"*@	c #4A4A4A",
"=@	c #8C8C8C",
"-@	c #5A5A5A",
";@	c #696969",
">@	c #9E9E9E",
",@	c #363636",
"'@	c #3C3C3C",
")@	c #060606",
"!@	c #5D5D5D",
"~@	c #636363",
"{@	c #C9C9C9",
"]@	c #E4E4E4",
"^@	c #606060",
"/@	c #797979",
"(@	c #3E3E3E",
"_@	c #515151",
":@	c #545454",
"<@	c #737373",
"[@	c #7D7D7D",
"}@	c #C0C0C0",
"|@	c #EAEAEA",
"1@	c #B8B8B8",
"2@	c #BABABA",
"3@	c #8B8B8B",
"4@	c #858585",
"5@	c #484848",
"6@	c #535353",
"7@	c #838383",
"8@	c #DBDBDB",
"9@	c #B7B7B7",
"0@	c #343434",
"a@	c #3A3A3A",
"b@	c #616161",
"c@	c #5F5F5F",
"d@	c #666666",
"e@	c #929292",
"f@	c #999999",
"g@	c #BDBDBD",
"h@	c #7E7E7E",
"i@	c #353535",
"j@	c #202020",
"k@	c #3D3D3D",
"l@	c #181818",
"m@	c #4C4C4C",
"n@	c #B1B1B1",
"o@	c #979797",
"p@	c #4D4D4D",
"q@	c #272727",
"r@	c #252525",
"s@	c #BEBEBE",
"t@	c #C3C3C3",
"u@	c #CECECE",
"v@	c #2A2A2A",
"w@	c #8E8E8E",
"x@	c #4B4B4B",
"y@	c #6A6A6A",
"z@	c #717171",
"A@	c #6D6D6D",
"B@	c #4E4E4E",
"C@	c #1B1B1B",
"D@	c #010101",
"E@	c #C4C4C4",
"F@	c #747474",
"G@	c #555555",
"H@	c #878787",
"I@	c #8D8D8D",
"J@	c #303030",
"K@	c #080808",
"L@	c #767676",
"M@	c #919191",
"N@	c #242424",
"O@	c #0A0A0A",
"P@	c #373737",
"Q@	c #171717",
"R@	c #383838",
"S@	c #2F2F2F",
"T@	c #313131",
"U@	c #232323",
"V@	c #0E0E0E",
"                      . + @ # $ % & * = - ;                         ",
"                  . . > , ' ) ! ~ { ] ^ / ( _ : <                   ",
"                . [ } , | 1 2 3 4 5 6 7 8 9 0 a b <                 ",
"            . c d e f g } e } h i j k k 9 l m n o p q <             ",
"          c r s % t u , v u s 1 / w & 3 w x y 8 _ z A B <           ",
"  C C   D E F G H I J K L M N O H P Q = ^ R S T U V W X Y Z C C C   ",
"  C C   `  ...+.@.#.$.@ g %...&.*.=.-.3 ] ;.C >.,.'.).!.~.C {.C C   ",
"  C C * ].^./.(.d _.:.<.+ [.}.|.1.h 2.3.6 4.5.6.7.o A 8.9.0.a.b.C C ",
"  C c.d.e.f.C C g.h.i.D + j.C C k.l.m.d.6 n.o.p.C q.r.s.t.u.< v.C C ",
"  C w.x.e.y.z.A.B.C C.D.<.E.F.G.B.C H.I.j ^.U J.K.C L.M.N.O.q P.C C ",
"  C Q.R.S.T.D.:.U.C V.D W.X._.Y.Z.C `.^  +.+++@+#+C $+%+&+*+=+-+;+C ",
"  C >+,+'+)+!+~+{+C C.D.]+^+/+(+_+C :+<+6 [+}+|+1+C 2+A 3+C 4+5+C 6+",
"  C 7+8+w 9+0+a+b+c+d+e+f+g+0+a+h+i+j+x k+l+m+n+o+p+q+r+s+t+u+v+w+x+",
"  I.R.y+'+2.r % ` <.<.+ z+e t A+- ~ 9 B+A+C+e.S.o D+E+F+G+H+I+J+P.K+",
"  L+M+N+O+P+Q+% # h D D.g s 2 x R+L+L+S+T+U+8 P+o ,+V+W+V+X+Y+J+P.K+",
"  T+M+D+w Z+m ^ x `+ @@ z+, % i | .@! 5 S.+@C+@@#@$@%@%+&@*@H+v.P.K+",
"  =@-@;@>@,+o a { v `+C C C C C C C C C C C C C C $@,@'@%@!.8.)@P.K+",
"  x.r++@!@~@l z 8 A+{@C > h ]@<+# 2./ )  +a ^@/@7 C (@_@H+M+%+v.P.K+",
"  0 :@<@&@#@8+#@[@<+}@C = |@]+* ]@2.1@| 2@3@z 4@e.F+C 8.5@-@H+v.P.K+",
"  B+D+_ &@,+6@!@7@8@R C 1.]+1.u e f 9@~ ].L++@; ^@V+0@C G+a@%@v.P.K+",
"  .@b@y+c@%+d@e@f@% g@C g e+ @e ` `+.@a h@! f@l r+!.i@j@C k@l@< K+K+",
"  ~@e.c@b@m@C+n@o@A+<+C * e+e+* u , k+U+ +g@C+p@F+$@q@l@r@C q < K+K+",
"  C C C C C C C C C C C s@ @D g 1.L t@u@3 0 c@*@F+c@:@%@F+v@C P.K+K+",
"  C 8+'+6@%+a 9 w@S+g@y '+3  @]+s t L y S.!.-@-@N+d@N+%+x@q P.C v.K+",
"  C < l m 8.l >@5 w@o@y k S+f W.* |@t 6 n y@z z@A@b@m@B@C@< P.C K+  ",
"  C   D@c@&@,+; >@'+L+{ {@9@E@]+v }@6 [@m n F@_ y+G@I+M.< < K+C     ",
"  C   < M.b@-@:@[@H@+@z@o I@4 d.; a F@Z+A@;@^@-@r+x@J@K@P.K+K+C     ",
"  C     < G+m@8.D+~@L@!@N+b@e.M@O+@@$@^@!@$@$@!.p N@)@P.P.K+v.C     ",
"  C       < O@J@B@6@$@%@%@Y+*@$@!.G@_@$@!@N+B@P@Q@< < K+K+K+K+C     ",
"  C       v.< v.r@X V+R@X b S@T@j@U@S@k@I+Y+q@V@P.< K+K+K+v.  C     ",
"  C C C C C C C C C C C C C C C C C C C C C C C C C C C C C C C     ",
"                K+< < < < < < < < < < < < < P.K+K+K+v.              ",
"                  K+v.K+K+K+K+K+K+K+K+K+K+K+K+K+K+K+K+              ",
"                      K+K+K+K+K+K+K+K+K+K+K+K+K+K+                  "};
