/* XPM */
static char *displayshape[]={
"34 34 604 2",
"Qt c None",
"d3 c #000024",
"aC c #000028",
"bw c #000126",
"#u c #000128",
"be c #00012a",
"fj c #000226",
"bx c #00022a",
"#U c #00022c",
"ai c #00032c",
"aD c #00032e",
"c8 c #00042a",
"cj c #00042c",
"g7 c #00042e",
"ct c #00052c",
"c. c #00062c",
"bQ c #000630",
"hl c #000634",
"aB c #000732",
"gt c #000836",
".8 c #000a3c",
"gP c #000b36",
"bd c #000b38",
"eu c #000b3a",
"fi c #000b3c",
"#t c #000c3a",
"hx c #000d3c",
"hk c #000f3a",
"ag c #001142",
"hm c #00174c",
"d2 c #001b52",
"er c #001d44",
"bv c #001d4c",
"fJ c #001e5a",
"hw c #002358",
"dZ c #00264c",
"d0 c #002832",
"he c #00292e",
"hf c #002958",
"hv c #002a5a",
"dw c #002b44",
"es c #002c5a",
"bX c #002e1e",
"aW c #002e62",
"hn c #002e68",
"eq c #002e6c",
"dv c #00316e",
"hb c #00325c",
"bN c #003614",
"hc c #003770",
"hg c #00377c",
"ho c #003974",
"bG c #003a66",
"hu c #003a70",
"hd c #003b64",
"aU c #003b84",
"ba c #003c40",
"hp c #003d6c",
"co c #003f86",
"h# c #004280",
"gU c #00428c",
"eT c #004294",
"ce c #004396",
"ha c #00458c",
"ey c #0046d6",
"aT c #00478a",
"dx c #004866",
"d1 c #00488c",
"c3 c #004892",
"cz c #004994",
"gV c #00499c",
"b5 c #004ba8",
"b# c #004dac",
"dt c #004e96",
"bV c #004f98",
"c2 c #004fa8",
"eo c #00509a",
"b9 c #005160",
"eU c #0051a4",
"bF c #005451",
"et c #0054aa",
"d7 c #0054de",
"bL c #00557c",
"cB c #005692",
"c5 c #00569e",
"gW c #0056c0",
"fn c #0059de",
"bb c #005a40",
"ci c #005a6a",
"eX c #005ae2",
"bZ c #005b72",
"c4 c #005bc2",
"dD c #005bd6",
"cv c #005de8",
"db c #005eea",
"az c #005fa8",
"aA c #005fb8",
"cF c #0060e2",
"cb c #0062e8",
"d. c #0063ea",
"cH c #0064ec",
"b. c #0065ee",
"bu c #00668c",
"aV c #0066ae",
"fM c #0067da",
"cl c #0067f4",
"b2 c #006aee",
"cx c #006bf0",
"bz c #006cf2",
"d5 c #006cfe",
"af c #006d96",
"bq c #006df4",
"dA c #0071f0",
"bT c #0072f2",
"bC c #007462",
"cy c #0074f6",
"ca c #0075f8",
"br c #007664",
"bI c #0076ee",
"#R c #0077a8",
"dE c #0077f0",
"d4 c #0079be",
"cd c #007af6",
"a0 c #008cee",
"aG c #0090da",
"dq c #0093fa",
"#p c #00a681",
"ah c #010026",
".9 c #010028",
"cq c #014d28",
"fK c #02001a",
"hz c #020022",
"aX c #020024",
"#T c #020028",
"eV c #02307c",
"bE c #025000",
"bP c #02577e",
"bO c #02582f",
"fL c #0270d6",
"cr c #027254",
"cJ c #0276f8",
"cK c #0277fa",
"ay c #027845",
"fk c #03001e",
".O c #030022",
"hy c #030024",
".x c #030026",
"du c #033d7f",
"#S c #034685",
"h. c #034e8d",
"b1 c #0374ff",
"ex c #037aff",
"g6 c #041a46",
"gu c #042766",
"dY c #043e86",
"dy c #044578",
"fN c #046df0",
"g8 c #052965",
".N c #052e73",
"f8 c #053577",
"da c #056ceb",
"cI c #0577f7",
"bh c #0586ff",
"aS c #059f92",
"gO c #062954",
"bt c #074d0a",
"bY c #075f2a",
"bc c #076089",
".3 c #0782ff",
"gQ c #083778",
"hs c #085088",
"b7 c #085821",
"ch c #086234",
"c6 c #087463",
"hj c #092d5d",
"cs c #096275",
"ht c #0a4d86",
"b8 c #0a5421",
"cA c #0a5dba",
"cf c #0a5ea6",
"bs c #0a6a2c",
"ae c #0a7e51",
"f7 c #0b356d",
"gs c #0b3769",
"cp c #0b4587",
"eQ c #0b55b1",
"#q c #0b8976",
"bH c #0b89ff",
"g9 c #0c4484",
"hq c #0c5186",
"gw c #0c5bac",
"dX c #0c65c0",
"bM c #0c6c32",
"c7 c #0d576d",
"cg c #0d7534",
"cZ c #0d7fff",
"ax c #0db10d",
"hr c #0e558c",
"gv c #0e57aa",
"cm c #0e78fa",
"cC c #0e8260",
"b6 c #0f507d",
".7 c #0f5285",
"bi c #0fa2ff",
"#P c #0fbf41",
"hh c #10548e",
"#Q c #109461",
"#s c #11699b",
"ep c #116abd",
"bD c #117532",
"cL c #1192ff",
"aQ c #11b9f7",
"dT c #11d552",
"bW c #12544d",
"en c #1255c4",
"fI c #125aa4",
".5 c #128afa",
"ej c #12a816",
"g5 c #133e63",
"gN c #135185",
"cD c #13616d",
"dC c #136ae1",
"bS c #1382ff",
"fm c #138dff",
"f6 c #155393",
"fh c #15549b",
"gR c #155999",
"dB c #156ee7",
"#r c #1585a1",
"fl c #1585af",
".J c #1594ff",
"#o c #15efc8",
"f9 c #166fc2",
"fH c #1756a3",
"gS c #175fa9",
"g. c #1767b9",
"gX c #186a9e",
".w c #191137",
"eS c #195fad",
"gZ c #196679",
".4 c #198bff",
".I c #19a0ff",
"fg c #1a5aa2",
"eW c #1a779e",
"gr c #1b558b",
"b4 c #1b9cff",
"aZ c #1ba1ff",
"hi c #1c486e",
"dS c #1ca630",
"ab c #1cd8cd",
"g0 c #1d57b7",
"f5 c #1d5ea7",
"gT c #1d67b3",
"c1 c #1d84f7",
"dc c #1d97ff",
"by c #1d9dff",
"c# c #1da7ff",
"g# c #1e5cba",
"d6 c #1e6bd4",
"ad c #1ea62b",
"ev c #1f4065",
"gY c #1f6b46",
"d# c #1f77e3",
"eY c #1f98ff",
"ck c #1fa3ff",
"ew c #1fb2ff",
"#O c #1feb5d",
"g4 c #205790",
"dW c #205aaa",
"av c #20d9e0",
"d8 c #2194ff",
"cu c #219eff",
"bA c #21aeff",
"ei c #21d94c",
"ac c #21dd3c",
"ds c #2268d0",
"dV c #227bf4",
"aR c #22e4d4",
"gx c #23609f",
"ak c #23c3ff",
"gq c #245aa4",
"gM c #2461a0",
"cG c #2481ea",
"dp c #24c251",
"fd c #2665ac",
"ff c #2666ae",
"cw c #268af0",
"dR c #26ac14",
"fc c #2763ad",
".v c #2778c3",
"c0 c #2797ff",
"a9 c #279cff",
"cY c #27a3d7",
"cE c #27abff",
"dQ c #27df52",
"eP c #296ab3",
".G c #29b1ff",
".K c #29b6ff",
"aw c #29f34b",
".H c #2bb2ff",
"#j c #2bcfff",
"eR c #2c68ac",
".L c #2caafa",
"fG c #2d6bb1",
"dr c #2d90ff",
"b0 c #2dadff",
"aH c #2de94c",
"fa c #2e5fa2",
"gp c #2e63a4",
"em c #2e93e0",
"fO c #2f90fd",
"b3 c #2fa9ff",
"gd c #307be2",
"f4 c #316bad",
"dF c #31a5ff",
"dU c #31afff",
"fb c #3261a2",
".6 c #3293bc",
".M c #3293ee",
"gL c #3362a1",
"g1 c #3363a5",
"eB c #339dff",
"g3 c #3563a1",
"fq c #359eff",
"ez c #35a7ff",
"dz c #35c8ff",
"ek c #35cb4e",
"go c #3668a6",
"fe c #366fb0",
"al c #36ec76",
"gK c #3761a1",
"e0 c #379fff",
"gB c #38629a",
"#M c #38dfee",
"#N c #38f689",
"gA c #396299",
"dG c #39adff",
"e1 c #3ba0ff",
"e. c #3baaff",
".o c #3bb7ff",
"gJ c #3c639e",
"gc c #3c85e0",
"g2 c #3d639b",
"f# c #3da188",
"cn c #3db4ff",
"gI c #3f64a7",
"f3 c #3f74af",
"fu c #3f9eff",
"fQ c #3fa7ff",
"c9 c #3fbdff",
"gH c #405da8",
"do c #40ce40",
"gy c #4169a5",
"gn c #4171b3",
"fF c #4175b5",
"fr c #41a8ff",
"#n c #41d4ff",
"el c #41ef5a",
"a1 c #42ee5b",
"fP c #43a4ff",
"fp c #43a9ff",
".q c #43baff",
"bJ c #43c8ff",
"dm c #43e365",
".2 c #45aeff",
"eO c #45af83",
"bg c #45bbff",
"aF c #45bfff",
"fD c #4676ac",
"ge c #468ade",
"au c #47bcff",
"ga c #4886d2",
"fC c #4970a5",
"fE c #4978b9",
"e3 c #49a3ff",
"gC c #4a64a0",
"gl c #4a6dac",
"eZ c #4bacff",
"dn c #4bd440",
"fB c #4c819c",
"gm c #4d74a5",
"f2 c #4d7ab7",
"#Y c #4ee6f0",
"fo c #4faeff",
".p c #4fbfff",
"#H c #4ff7d2",
"cX c #50dea4",
"gk c #517e89",
"gb c #5190e5",
".s c #51bfff",
"cc c #51c4ff",
".r c #51c8ff",
"bR c #53ccff",
"cV c #53df77",
"f1 c #557db3",
"eE c #58aefe",
".t c #58c2fe",
"gD c #5979b5",
"f0 c #5981a9",
".n c #59c7e3",
"fZ c #5a859e",
"eb c #5ab3fe",
"#m c #5ac2fe",
"#y c #5ad6fe",
"gi c #5b944e",
"fR c #5cb4fe",
"eA c #5cb8fe",
".1 c #5cbffe",
"aa c #5ccefe",
"gz c #5e7baa",
"gG c #5e8466",
"#L c #5ebcfe",
"#i c #5ec0fe",
"cU c #5ef869",
"#G c #5ffdd2",
"gj c #609646",
".j c #628c89",
"eC c #64bbfe",
"d9 c #64c2fe",
"gf c #6692ea",
".0 c #66bcfe",
"#I c #67f3b6",
"fA c #68ae72",
"a# c #6ac1fe",
".i c #6ac8c5",
"eN c #6aee6d",
"f. c #6be15f",
"a. c #6be1f7",
"ft c #6eb9fe",
"df c #6ec3fe",
"#l c #6edefe",
"dJ c #70c0fe",
".F c #70cafe",
".u c #70dbfe",
"#k c #70fee1",
"fY c #71ac6e",
"eF c #74cffe",
"gE c #769a94",
"bj c #76fe89",
"#W c #77ed98",
"de c #78cafe",
"eL c #78e466",
"#z c #78f1f6",
"#Z c #79fdbd",
"cO c #7ac5fe",
"gF c #7ba15d",
"#D c #7bf993",
"cW c #7deb9c",
".Z c #7ec0fe",
"dI c #7eccfe",
".h c #7ff1ed",
"#K c #7ff1ef",
"cN c #81ceff",
"eM c #81f167",
"dl c #81fbac",
"gh c #82bd5f",
"gg c #84c8c6",
"fs c #85c7ff",
".E c #85d8f3",
"cM c #85deff",
"e4 c #86dae4",
"bU c #87dcff",
".D c #88ddea",
"e2 c #89c6ff",
"e# c #89ceff",
".d c #89d4ff",
".B c #89e1e9",
"bB c #89f1d5",
"#e c #8aecb1",
"fT c #8bbfff",
"fU c #8bd7c6",
"#V c #8ffde2",
".g c #8ffffb",
"#F c #91f9c2",
".c c #93dfff",
"e9 c #93f670",
"#C c #93fbb5",
"fX c #94d866",
"dP c #94fe86",
".e c #95e2ff",
"fS c #97d4ff",
".f c #97efff",
".C c #98dfe6",
"#X c #98fac4",
"eK c #99f470",
"#7 c #9afa84",
"dH c #9be1ff",
"#6 c #9dfc8e",
"#h c #9edbfe",
"eh c #9efe78",
"#a c #9fe0f1",
"e8 c #9ff86e",
"ea c #a0d5fe",
"#d c #a2f2d7",
"bf c #a2f7fe",
"#E c #a3fd97",
"#b c #a4e8fe",
".S c #a4e9fa",
"dd c #a4eafe",
"#9 c #a4fc9a",
"#A c #a4fedb",
"fv c #a7ebdd",
".m c #a8e2d2",
"dj c #a8fe74",
"fz c #a9f37d",
"eD c #aaddfe",
"eg c #aafe66",
"#0 c #aafeb4",
"aY c #abf6ff",
"bK c #ace3fa",
"#x c #aceebc",
"#B c #adfbe9",
"#g c #aff1e4",
"aE c #aff8ff",
"aj c #b1f5ff",
"am c #b2f8e0",
"fW c #b3e1a3",
"cP c #b3e1ff",
".z c #b3f3e5",
"ec c #b3f7e6",
"an c #b5f0ff",
"dO c #b5fe66",
"e7 c #b6f799",
"#c c #b7ebff",
"#1 c #b7ffc8",
".l c #b8eae3",
"#f c #b8f3b3",
"dN c #b8fc8e",
"#8 c #b9ff93",
".A c #baecd7",
"## c #baecfe",
"dk c #bafe7e",
".Y c #bcd9fe",
"cT c #bcfe76",
"cS c #bcff81",
"fx c #bdfb9b",
"di c #bdfda1",
"ef c #bef9a7",
"eJ c #befd9b",
"#w c #c1f1dc",
".R c #c1f1e5",
"cQ c #c3f9d7",
"fy c #c3ff9b",
"dg c #c4f1fc",
"aI c #c7fde4",
"ao c #c8faf8",
".W c #c9ecf3",
"#J c #cafea0",
".b c #ccfefe",
".k c #cef2ed",
".U c #d0e9f4",
".V c #d0ebf4",
"dK c #d0faf0",
"#. c #d1f3d7",
".Q c #d3f7ef",
"#3 c #d8febe",
"cR c #daffab",
"eI c #dbf9d1",
"dh c #dbfbdc",
"#2 c #dbffc5",
".y c #ddf9ef",
"aJ c #e0f7fe",
"e6 c #e1fad8",
"eG c #e2ffcf",
"fV c #e4fdaf",
"dM c #e5fce4",
"e5 c #e5ffc7",
".X c #e6eef2",
".T c #eaf2f6",
"#5 c #ebfebc",
"a2 c #ebffe9",
"ap c #ecfaf6",
"bl c #edfbed",
"aO c #edffd9",
"aq c #effde9",
".a c #f1fafb",
"#4 c #f1ffc7",
"ed c #f1ffd7",
"ee c #f2fcf4",
"dL c #f2fede",
"as c #f2ffcf",
"#v c #f3feff",
"eH c #f7ffe5",
"a4 c #f8fcfa",
"a5 c #f8fcfb",
"bn c #f8fcfc",
"bk c #f8ffd7",
"a8 c #f8ffed",
"bm c #f9fbf7",
"aK c #f9fbfd",
"a7 c #f9fcf6",
"aN c #f9fef0",
"bo c #fafcf8",
"a6 c #fafcfb",
"ar c #faffe1",
"aM c #fcfcfc",
"a3 c #fdfafe",
"aL c #fefbff",
"bp c #fefcfc",
".P c #fefefe",
"fw c #feffe9",
"at c #ff0000",
"aP c #ffc0c0",
".# c #ffffff",
"QtQtQtQtQtQtQtQtQtQtQt.#.a.b.c.d.e.f.g.h.i.jQtQtQtQtQtQtQtQtQtQtQtQt",
"QtQtQtQtQtQtQtQtQt.#.#.k.l.m.n.o.p.q.r.s.t.u.v.w.xQtQtQtQtQtQtQtQtQt",
"QtQtQtQtQtQtQtQt.#.y.z.A.B.C.D.E.F.G.H.I.J.K.L.M.N.OQtQtQtQtQtQtQtQt",
"QtQtQtQtQtQt.#.P.Q.R.S.T.U.V.W.X.Y.Z.0.1.2.3.4.5.6.7.8.9QtQtQtQtQtQt",
"QtQtQtQtQt.P#.###a#b#c#d#e#f#g#h#i#j#k#l#m#n#o#p#q#r#s#t#uQtQtQtQtQt",
"QtQtQtQt#v#w#x#y#z#A#B#C#D#E#F#G#H#I#J#K#L#M#N#O#P#Q#R#S#T#UQtQtQtQt",
"QtQtQtQt#V#W#X#Y#Z#0#1#2#3#4#5#6#7#8#9a.a#aa.HabacadaeafagahaiQtQtQt",
"QtQtQtajakalamanaoapaqarasatatatatatatatatatauavawaxayazaAaBaCaDQtQt",
"QtQtaEaFaGaHaIaJaKaLaMaNaOataPaPaPaPaPaPaPatataQaRaSaTaUaVaWaXaiQtQt",
"QtQtaYaZa0a1a2a3a4a5a6a7a8ataPaPaPaPaPaPaPaPatata9b.b#babbbcbdbeQtQt",
"Qtbfbgbhbibjbkblbmbna4bobpataPaPaPaPaPaPaPaPaPatatbqbrbsbtbubvbwbxQt",
"QtbfbybzbAbBatatatatatatatataPaPaPaPaPaPaPaPaPaPatatbCbDbEbFbGbxbebx",
"Qt#lbHbIbJbKataPaPaPaPaPaPaPaPaPaPaPaPaPaPaPaPaPaPatbLbMbNbObPbQbebx",
"QtbRbSbTbAbUataPaPaPaPaPaPaPaPaPaPaPaPaPaPaPaPaPaPatbVbWbXbYbZbQbebx",
"Qtb0b1b2b3b4ataPaPaPaPaPaPaPaPaPaPaPaPaPaPaPaPaPaPatb5b6b7b8b9c.bebx",
"Qtc#cacbcccdataPaPaPaPaPaPaPaPaPaPaPaPaPaPaPaPaPaPatcecfcgchcicjbebx",
"QtckclcmcnbzataPaPaPaPaPaPaPaPaPaPaPaPaPaPaPaPaPaPatcocpcqcrcsctbebx",
"QtcucvcwcxcyatatatatatatatatatatatatatatatatatatatatczcAcBcCcDcjbebx",
"QtcEcFcGcHcIcJcKcLcMcNcOcPcQcRcScTcUcVcWcXcYcZc0c1c2c3c4c5c6c7c8bebx",
"Qtc9d.d#cHdadbcxdcdddedfdgdhdidjdkdldmdndodpdqdrdsdtdudvdwdxdyaibebx",
"QtdzdAdBdCdDdEdFdGdHdIdJdKdLdMdNdOdPdQdRdSdTdUdVdWdXdYdZd0d1d2d3bxbx",
"Qtd4bHd5d6d7d8d9e.e#eaebecedeeefegeheiejekelemeneoepeqereseteuaCbxbx",
"Qtevewexeyd.ezeAeBeCeDeEeFeGeHeIeJeKeLeMeNeOePeQeoeReSeTeUeV#ubebxbx",
"QtQteWbAdbeXeYeZe0e1dIe2e3e4e5e6e7e8e9f.f#fafbfcfdfefffgfhfifjbxaibx",
"QtQtfkflfmfn.3fofpfqfrfsftfufvfwfxfyfzfAfBfCfDfEfFfGfHfIfJd3bebx#UQt",
"QtQtQtfKfLfMfNfOfofPfQfRfSfTfUfVfWfXfYfZf0f1f2f3f4f5f6f7bw#ubxaiQtQt",
"QtQtQtaXf8f9g.g#gagbgcgdgegfggghgigjgkglgmgngogpgqgrgsgtfjbxbx#UQtQt",
"QtQtQtQt#ugugvgwgxgygzgAgBgCgDgEgFgGgHgIgJgKgLgMgNgOctfjbebxaiQtQtQt",
"QtQtQtQtQtd3gPgQgRgSgTgUgUgVgWgXgYgZg0g1g2g3g4g5g6ahaCbxbxbx#UQtQtQt",
"QtQtQtQtQtaibwg7g8g9h.h#hahbhchdhehfhgc3hhhihjhkbe#ubxbxbxaiQtQtQtQt",
"QtQtQtQtQtQtQt#ubehlhmhnhohphqhrhshthuhvhwhxbxfjbebxbxai#UQtQtQtQtQt",
"QtQtQtQtQtQtQtQtbxaCbwd3aXhy.O.O.OhzaXd3bwaCbebxbxbxaiQtQtQtQtQtQtQt",
"QtQtQtQtQtQtQtQtQt#Uaibxbxbxbxbxbxbxbxbxbxbxbxbxbxbx#UQtQtQtQtQtQtQt",
"QtQtQtQtQtQtQtQtQtQtQtbxbxbxbxbxbxbxbxbxbxbxbxbxbxQtQtQtQtQtQtQtQtQt"};
