/* XPM */
static char * display_ace_area_xpm[] = {
"34 34 300 2",
"  	c None",
". 	c #FEFEFE",
"+ 	c #F7F7F7",
"@ 	c #F2F2F2",
"# 	c #D0D0D0",
"$ 	c #C6C6C6",
"% 	c #D2D2D2",
"& 	c #DCDCDC",
"* 	c #E6E6E6",
"= 	c #D8D8D8",
"- 	c #B3B3B3",
"; 	c #818181",
"> 	c #E9E9E9",
", 	c #DEDEDE",
"' 	c #D3D3D3",
") 	c #B0B0B0",
"! 	c #A0A0A0",
"~ 	c #AAAAAA",
"{ 	c #A5A5A5",
"] 	c #B2B2B2",
"^ 	c #ABABAB",
"/ 	c #AEAEAE",
"( 	c #C5C5C5",
"_ 	c #6B6B6B",
": 	c #141414",
"< 	c #020202",
"[ 	c #F1F1F1",
"} 	c #E3E3E3",
"| 	c #CDCDCD",
"1 	c #CFCFCF",
"2 	c #CACACA",
"3 	c #C7C7C7",
"4 	c #B9B9B9",
"5 	c #989898",
"6 	c #9A9A9A",
"7 	c #898989",
"8 	c #7F7F7F",
"9 	c #9C9C9C",
"0 	c #949494",
"a 	c #848484",
"b 	c #292929",
"c 	c #FDFDFD",
"d 	c #EDEDED",
"e 	c #E5E5E5",
"f 	c #DADADA",
"g 	c #EFEFEF",
"h 	c #EBEBEB",
"i 	c #D4D4D4",
"j 	c #B5B5B5",
"k 	c #ADADAD",
"l 	c #6F6F6F",
"m 	c #7A7A7A",
"n 	c #777777",
"o 	c #808080",
"p 	c #464646",
"q 	c #0B0B0B",
"r 	c #E8E8E8",
"s 	c #E1E1E1",
"t 	c #D9D9D9",
"u 	c #E0E0E0",
"v 	c #D1D1D1",
"w 	c #AFAFAF",
"x 	c #B6B6B6",
"y 	c #BCBCBC",
"z 	c #6E6E6E",
"A 	c #595959",
"B 	c #0C0C0C",
"C 	c #FAFAFA",
"D 	c #E4E4E4",
"E 	c #DBDBDB",
"F 	c #BEBEBE",
"G 	c #7EE77C",
"H 	c #06FF00",
"I 	c #BDE3BC",
"J 	c #D6D6D6",
"K 	c #D7D7D7",
"L 	c #93DD92",
"M 	c #2FF52B",
"N 	c #0CFE06",
"O 	c #13FC0D",
"P 	c #3BE337",
"Q 	c #BBBBBB",
"R 	c #C3C3C3",
"S 	c #040404",
"T 	c #E2E2E2",
"U 	c #CCCCCC",
"V 	c #38F634",
"W 	c #07FE01",
"X 	c #7EF87B",
"Y 	c #F3F3F3",
"Z 	c #A1E8A0",
"` 	c #06FE00",
" .	c #24FB1E",
"..	c #86ED84",
"+.	c #76DE73",
"@.	c #2BEE26",
"#.	c #B8B8B8",
"$.	c #17F512",
"%.	c #55AB53",
"&.	c #41973F",
"*.	c #3B9038",
"=.	c #101010",
"-.	c #050505",
";.	c #A4A4A4",
">.	c #CCE5CB",
",.	c #58FB54",
"'.	c #1EFE19",
").	c #2FFE2A",
"!.	c #F4F4F4",
"~.	c #39F934",
"{.	c #C7EEC6",
"].	c #CBCBCB",
"^.	c #A9A9A9",
"/.	c #999A99",
"(.	c #ACACAC",
"_.	c #A7A7A7",
":.	c #22F41D",
"<.	c #768975",
"[.	c #526652",
"}.	c #495C48",
"|.	c #505050",
"1.	c #080808",
"2.	c #A8A8A8",
"3.	c #757575",
"4.	c #B4B4B4",
"5.	c #EEEEEE",
"6.	c #8AF788",
"7.	c #ACFCAA",
"8.	c #6DFD6A",
"9.	c #CFF8CE",
"0.	c #F0F0F0",
"a.	c #0EFE08",
"b.	c #22FB1D",
"c.	c #8D8D8D",
"d.	c #8F8F8F",
"e.	c #545454",
"f.	c #272727",
"g.	c #8A8A8A",
"h.	c #3DFD38",
"i.	c #0BFE05",
"j.	c #D1FAD0",
"k.	c #A2FCA0",
"l.	c #7FFD7C",
"m.	c #F9F9F9",
"n.	c #F5F5F5",
"o.	c #22FA1C",
"p.	c #9E9E9E",
"q.	c #16F011",
"r.	c #428541",
"s.	c #327531",
"t.	c #236521",
"u.	c #444444",
"v.	c #4E4E4E",
"w.	c #030303",
"x.	c #727272",
"y.	c #888888",
"z.	c #DDF9DC",
"A.	c #2CFE27",
"B.	c #F6F6F6",
"C.	c #3CFC38",
"D.	c #A0C59F",
"E.	c #A0A1A0",
"F.	c #A3A3A3",
"G.	c #19E814",
"H.	c #5E5E5E",
"I.	c #5B5B5B",
"J.	c #383838",
"K.	c #525252",
"L.	c #191919",
"M.	c #959595",
"N.	c #87F785",
"O.	c #79FC76",
"P.	c #AEFCAC",
"Q.	c #ADFBAB",
"R.	c #4EFD4A",
"S.	c #C3F0C2",
"T.	c #ABF1A9",
"U.	c #22F81D",
"V.	c #8BF088",
"W.	c #7AE178",
"X.	c #26E821",
"Y.	c #868686",
"Z.	c #12F00D",
"`.	c #449A42",
" +	c #3C923A",
".+	c #393939",
"++	c #414141",
"@+	c #303030",
"#+	c #656565",
"$+	c #37FB32",
"%+	c #DAEFDA",
"&+	c #FBFBFB",
"*+	c #A6FAA4",
"=+	c #76F773",
"-+	c #ECECEC",
";+	c #DFDFDF",
">+	c #89D488",
",+	c #0AFD04",
"'+	c #0FFA09",
")+	c #39E335",
"!+	c #979797",
"~+	c #474747",
"{+	c #070707",
"]+	c #626262",
"^+	c #C2C2C2",
"/+	c #A6A6A6",
"(+	c #828282",
"_+	c #565656",
":+	c #424242",
"<+	c #222222",
"[+	c #494949",
"}+	c #969696",
"|+	c #646464",
"1+	c #5C5C5C",
"2+	c #939393",
"3+	c #9F9F9F",
"4+	c #909090",
"5+	c #7C7C7C",
"6+	c #454545",
"7+	c #404040",
"8+	c #3F3F3F",
"9+	c #686868",
"0+	c #DDDDDD",
"a+	c #7B7B7B",
"b+	c #787878",
"c+	c #676767",
"d+	c #585858",
"e+	c #4A4A4A",
"f+	c #8C8C8C",
"g+	c #5A5A5A",
"h+	c #696969",
"i+	c #363636",
"j+	c #3C3C3C",
"k+	c #575757",
"l+	c #4F4F4F",
"m+	c #060606",
"n+	c #5D5D5D",
"o+	c #636363",
"p+	c #C9C9C9",
"q+	c #A1A1A1",
"r+	c #606060",
"s+	c #797979",
"t+	c #3E3E3E",
"u+	c #515151",
"v+	c #737373",
"w+	c #7D7D7D",
"x+	c #C0C0C0",
"y+	c #EAEAEA",
"z+	c #BABABA",
"A+	c #8B8B8B",
"B+	c #858585",
"C+	c #484848",
"D+	c #535353",
"E+	c #838383",
"F+	c #E7E7E7",
"G+	c #B7B7B7",
"H+	c #343434",
"I+	c #3A3A3A",
"J+	c #616161",
"K+	c #5F5F5F",
"L+	c #666666",
"M+	c #929292",
"N+	c #999999",
"O+	c #BDBDBD",
"P+	c #F8F8F8",
"Q+	c #7E7E7E",
"R+	c #353535",
"S+	c #202020",
"T+	c #3D3D3D",
"U+	c #181818",
"V+	c #4C4C4C",
"W+	c #B1B1B1",
"X+	c #4D4D4D",
"Y+	c #252525",
"Z+	c #CECECE",
"`+	c #2A2A2A",
" @	c #8E8E8E",
".@	c #4B4B4B",
"+@	c #FCFCFC",
"@@	c #6A6A6A",
"#@	c #717171",
"$@	c #6D6D6D",
"%@	c #1B1B1B",
"&@	c #010101",
"*@	c #C4C4C4",
"=@	c #747474",
"-@	c #555555",
";@	c #2E2E2E",
">@	c #878787",
",@	c #767676",
"'@	c #919191",
")@	c #242424",
"!@	c #0A0A0A",
"~@	c #373737",
"{@	c #171717",
"]@	c #3B3B3B",
"^@	c #2F2F2F",
"/@	c #313131",
"(@	c #232323",
"_@	c #0E0E0E",
"                      . + @ # $ % & * = - ;                         ",
"                  . . > , ' ) ! ~ { ] ^ / ( _ : <                   ",
"                . [ } , | 1 2 3 4 5 6 7 8 9 0 a b <                 ",
"            . c d e f g } e } h i j k k 9 l m n o p q <             ",
"          c r s % t u , v u s 1 / w & 3 w x y 8 _ z A B <           ",
"        C D E F G H H I J u , K L M N O P Q R H H H H H < S         ",
"        T U u ( V W H X g + Y Z `  ...+.@.#.6 H $.%.&.*.=.< -.      ",
"      * ;.Q * >.W ,.'.).+ !.Y ~.` {.].^./.(._.H :.<.[.}.|.1.< -.    ",
"    r 2.3.4.5.6.H 7.8.H 9.@ 0.a.b.E - 2.6 c.d.H H H H H e.f.< -.    ",
"    e g.3.F + h.i.j.k.H l.m.n.a.o.- 4.4.j p.o H q.r.s.t.u.v.q w.    ",
"  D { x.y.K z.` H H H H A.B.n.C.` D.# ^ E.F.7 H G.H.I.|.J.K.L.< S   ",
"  D y.H.M.= N.H O.P.Q.R.H S.+ T.` U.V.W.X.p.Y.H Z.`. + +.+++@+S w.S ",
"  3 3.#+w = $+` %+&+&+*+H =+-+;+>+M ,+'+)+!+o H H H H H f.++~+{+w.S ",
"  4.x.]+M.].r % T &+&++ 5.e t ^+- ~ 9 /+^+(+3.y.o _+:+u.<+~+[+{+w.S ",
"  }+|+1+2+Y.3+% # h C m.g s 2 x F.}+}+4+d.5+8 Y.o H.++6+++7+8+{+w.S ",
"  d.|+_+w 9+m ^ x 0+!.@ 5., % i | (.! 5 y.a+(+b+c+I..+|.d+e+~+-.w.S ",
"  f+g+h+p.H.o a { v 0+H H H H H H H H H H H H H H I.i+j+.+k+l+m+w.S ",
"  g.K.a+n+o+l z 8 ^+p+H > h D U # ]./ ) q+a r+s+7 H t+u+~+|+|.-.w.S ",
"  0 e.v+d+c+#+c+w+U x+H = y+0.* D ].#.| z+A+z B+3.u.H l+C+g+~+-.w.S ",
"  /+_+_ d+H.D+n+E+E Q H F+0.F+u e f G+~ ;.}+a+; r+++H+H <+I+.+-.w.S ",
"  (.J+]+K+|.L+M+N+% O+H g P+!.e T 0+(.a Q+! N+l K.k+R+S+H T+U+< S S ",
"  o+3.K+J+V+(+W+!+^+U H * P+P+* u , _.5+q+O+(+X+u.I.f.U+Y+H q < S S ",
"  H H H H H H H H H H H F !.C g F+J R Z+3 0 K+e+u.K+e..+u.`+H w.S S ",
"  H #+M.D+|.a 9  @4+O+y M.3 !.0.s t J y y.k+g+g+1+L+1+|..@q w.H -.S ",
"  H < l m l+l p.5  @!+y k 4+f +@* y+t 6 n @@z #@$@J+V+v.%@< w.H S   ",
"  H   &@K+d+H.; p.M.}+{ p+G+*@0.v x+6 w+m n =@_ ]+-@[+;@< < S H     ",
"  H   < ;@J+g+e.w+>@a+#@o c.4 2.; a =@9+$@h+r+g+K..@@+1.w.S S H     ",
"  H     < <+V+l+_+o+,@n+1+J+3.'@2+b+I.r+n+I.I.k+p )@m+w.w.S -.H     ",
"  H       < !@@+v.D+I..+.+8+e+I.k+-@u+I.n+1+v.~@{@< < S S S S H     ",
"  H       -.< -.Y+]@++J.]@b ^@/@S+(@^@T+[+8+f._@w.< S S S -.  H     ",
"  H H H H H H H H H H H H H H H H H H H H H H H H H H H H H H H     ",
"                S < < < < < < < < < < < < < w.S S S -.              ",
"                  S -.S S S S S S S S S S S S S S S S               ",
"                      S S S S S S S S S S S S S S                   "};
