/* XPM */
static char * displayllz_xpm[] = {
"34 34 716 2",
"  	c None",
". 	c #FFFFFF",
"+ 	c #F1FAFB",
"@ 	c #CCFEFE",
"# 	c #93DFFF",
"$ 	c #89D4FF",
"% 	c #95E2FF",
"& 	c #97EFFF",
"* 	c #8FFFFB",
"= 	c #7FF1ED",
"- 	c #6AC8C5",
"; 	c #628C89",
"> 	c #CEF2ED",
", 	c #B8EAE3",
"' 	c #A8E2D2",
") 	c #59C7E3",
"! 	c #3BB7FF",
"~ 	c #4FBFFF",
"{ 	c #43BAFF",
"] 	c #51C8FF",
"^ 	c #51BFFF",
"/ 	c #58C2FE",
"( 	c #70DBFE",
"_ 	c #2778C3",
": 	c #191137",
"< 	c #030026",
"[ 	c #DDF9EF",
"} 	c #B3F3E5",
"| 	c #BAECD7",
"1 	c #89E1E9",
"2 	c #98DFE6",
"3 	c #88DDEA",
"4 	c #85D8F3",
"5 	c #70CAFE",
"6 	c #29B1FF",
"7 	c #2BB2FF",
"8 	c #19A0FF",
"9 	c #1594FF",
"0 	c #29B6FF",
"a 	c #2CAAFA",
"b 	c #3293EE",
"c 	c #052E73",
"d 	c #030022",
"e 	c #FEFEFE",
"f 	c #D3F7EF",
"g 	c #C1F1E5",
"h 	c #A4E9FA",
"i 	c #EAF2F6",
"j 	c #D0E9F4",
"k 	c #D0EBF4",
"l 	c #C9ECF3",
"m 	c #E6EEF2",
"n 	c #BCD9FE",
"o 	c #7EC0FE",
"p 	c #66BCFE",
"q 	c #5CBFFE",
"r 	c #45AEFF",
"s 	c #0782FF",
"t 	c #198BFF",
"u 	c #128AFA",
"v 	c #3293BC",
"w 	c #0F5285",
"x 	c #000A3C",
"y 	c #010028",
"z 	c #D1F3D7",
"A 	c #BAECFE",
"B 	c #9FE0F1",
"C 	c #A4E8FE",
"D 	c #B7EBFF",
"E 	c #A2F2D7",
"F 	c #8AECB1",
"G 	c #B8F3B3",
"H 	c #AFF1E4",
"I 	c #9EDBFE",
"J 	c #5EC0FE",
"K 	c #2BCFFF",
"L 	c #70FEE1",
"M 	c #6EDEFE",
"N 	c #5AC2FE",
"O 	c #41D4FF",
"P 	c #15EFC8",
"Q 	c #00A681",
"R 	c #0B8976",
"S 	c #1585A1",
"T 	c #11699B",
"U 	c #000C3A",
"V 	c #000128",
"W 	c #F3FEFF",
"X 	c #C1F1DC",
"Y 	c #ACEEBC",
"Z 	c #5AD6FE",
"` 	c #78F1F6",
" .	c #A4FEDB",
"..	c #ADFBE9",
"+.	c #93FBB5",
"@.	c #7BF993",
"#.	c #A3FD97",
"$.	c #91F9C2",
"%.	c #5FFDD2",
"&.	c #4FF7D2",
"*.	c #67F3B6",
"=.	c #CAFEA0",
"-.	c #7FF1EF",
";.	c #5EBCFE",
">.	c #38DFEE",
",.	c #38F689",
"'.	c #1FEB5D",
").	c #0FBF41",
"!.	c #109461",
"~.	c #0077A8",
"{.	c #034685",
"].	c #020028",
"^.	c #00022C",
"/.	c #8FFDE2",
"(.	c #77ED98",
"_.	c #98FAC4",
":.	c #4EE6F0",
"<.	c #79FDBD",
"[.	c #AAFEB4",
"}.	c #B7FFC8",
"|.	c #DBFFC5",
"1.	c #D8FEBE",
"2.	c #F1FFC7",
"3.	c #EBFEBC",
"4.	c #9DFC8E",
"5.	c #9AFA84",
"6.	c #B9FF93",
"7.	c #A4FC9A",
"8.	c #6BE1F7",
"9.	c #6AC1FE",
"0.	c #5CCEFE",
"a.	c #1CD8CD",
"b.	c #21DD3C",
"c.	c #1EA62B",
"d.	c #0A7E51",
"e.	c #006D96",
"f.	c #001142",
"g.	c #010026",
"h.	c #00032C",
"i.	c #B1F5FF",
"j.	c #23C3FF",
"k.	c #36EC76",
"l.	c #B2F8E0",
"m.	c #B5F0FF",
"n.	c #C8FAF8",
"o.	c #ECFAF6",
"p.	c #EFFDE9",
"q.	c #FAFFE1",
"r.	c #F2FFCF",
"s.	c #EAFECA",
"t.	c #E8FEC0",
"u.	c #C4FF8F",
"v.	c #BFFF81",
"w.	c #CCFF8B",
"x.	c #54F4AE",
"y.	c #27C9FF",
"z.	c #35B0FF",
"A.	c #4DC2FF",
"B.	c #47BCFF",
"C.	c #20D9E0",
"D.	c #29F34B",
"E.	c #0DB10D",
"F.	c #027845",
"G.	c #005FA8",
"H.	c #005FB8",
"I.	c #000732",
"J.	c #000028",
"K.	c #00032E",
"L.	c #AFF8FF",
"M.	c #45BFFF",
"N.	c #0090DA",
"O.	c #2DE94C",
"P.	c #C7FDE4",
"Q.	c #E0F7FE",
"R.	c #F9FBFD",
"S.	c #FEFBFF",
"T.	c #FCFCFC",
"U.	c #F9FEF0",
"V.	c #EDFFD9",
"W.	c #E0FECC",
"X.	c #D9FEC0",
"Y.	c #DDFEAA",
"Z.	c #ACFAC4",
"`.	c #76F8F6",
" +	c #5CC7FE",
".+	c #51BBFF",
"++	c #29A2FF",
"@+	c #25A5FF",
"#+	c #11B9F7",
"$+	c #22E4D4",
"%+	c #059F92",
"&+	c #00478A",
"*+	c #003B84",
"=+	c #0066AE",
"-+	c #002E62",
";+	c #020024",
">+	c #ABF6FF",
",+	c #1BA1FF",
"'+	c #008CEE",
")+	c #42EE5B",
"!+	c #EBFFE9",
"~+	c #FDFAFE",
"{+	c #F8FCFA",
"]+	c #F8FCFB",
"^+	c #FAFCFB",
"/+	c #F9FCF6",
"(+	c #F8FFED",
"_+	c #F4FFE7",
":+	c #E3FFD5",
"<+	c #EAFFB1",
"[+	c #95F7EA",
"}+	c #68C4FE",
"|+	c #6CC5FE",
"1+	c #66C7FE",
"2+	c #3DB4FF",
"3+	c #0F96FF",
"4+	c #279CFF",
"5+	c #0065EE",
"6+	c #004DAC",
"7+	c #003C40",
"8+	c #005A40",
"9+	c #076089",
"0+	c #000B38",
"a+	c #00012A",
"b+	c #A2F7FE",
"c+	c #45BBFF",
"d+	c #0586FF",
"e+	c #0FA2FF",
"f+	c #76FE89",
"g+	c #F8FFD7",
"h+	c #EDFBED",
"i+	c #F9FBF7",
"j+	c #F8FCFC",
"k+	c #FAFCF8",
"l+	c #FEFCFC",
"m+	c #EDF9FF",
"n+	c #EBFDEB",
"o+	c #DCFEE0",
"p+	c #95E5FF",
"q+	c #74CCFE",
"r+	c #65EEF7",
"s+	c #43C3FF",
"t+	c #47B3FF",
"u+	c #39BBFF",
"v+	c #0F80FF",
"w+	c #1D8DFF",
"x+	c #006DF4",
"y+	c #007664",
"z+	c #0A6A2C",
"A+	c #074D0A",
"B+	c #00668C",
"C+	c #001D4C",
"D+	c #000126",
"E+	c #00022A",
"F+	c #000000",
"G+	c #1A8DCF",
"H+	c #89F1D5",
"I+	c #DEFFAF",
"J+	c #C4FEEA",
"K+	c #F4FFE5",
"L+	c #FDFEFC",
"M+	c #B6C6CF",
"N+	c #D7F4FF",
"O+	c #E3FFF8",
"P+	c #B5FCFF",
"Q+	c #7AD7FE",
"R+	c #67ECF7",
"S+	c #0078F2",
"T+	c #007462",
"U+	c #117532",
"V+	c #025000",
"W+	c #005451",
"X+	c #003A66",
"Y+	c #36A2CF",
"Z+	c #ACE3FA",
"`+	c #DCFEA0",
" @	c #96F3FE",
".@	c #D0FCC2",
"+@	c #FFFDEF",
"@@	c #A6C6CF",
"#@	c #D4F7FE",
"$@	c #CDF5FF",
"%@	c #99F2FF",
"&@	c #60DBFE",
"*@	c #4FF5F7",
"=@	c #2F684B",
"-@	c #175D6F",
";@	c #18536F",
">@	c #144B6F",
",@	c #010F1A",
"'@	c #021A33",
")@	c #0065FC",
"!@	c #00557C",
"~@	c #0C6C32",
"{@	c #003614",
"]@	c #02582F",
"^@	c #02577E",
"/@	c #000630",
"(@	c #53CCFF",
"_@	c #87DCFF",
":@	c #B3FFB1",
"<@	c #8BE5FF",
"[@	c #A0F4FE",
"}@	c #FAFFE5",
"|@	c #AEC6CF",
"1@	c #BCF1FE",
"2@	c #A0E7FE",
"3@	c #37D2FF",
"4@	c #39C5FF",
"5@	c #3FB0FF",
"6@	c #29C5FF",
"7@	c #37EBDC",
"8@	c #136CB8",
"9@	c #000001",
"0@	c #01060A",
"a@	c #137ED8",
"b@	c #0061F2",
"c@	c #004F98",
"d@	c #12544D",
"e@	c #002E1E",
"f@	c #075F2A",
"g@	c #005B72",
"h@	c #2DADFF",
"i@	c #2689CF",
"j@	c #1B9CFF",
"k@	c #17C0FF",
"l@	c #55F7E2",
"m@	c #85E3FF",
"n@	c #C3F9E1",
"o@	c #B3C7CF",
"p@	c #BEEAFE",
"q@	c #7CDEFE",
"r@	c #4DCFFF",
"s@	c #31BDFF",
"t@	c #25AFFF",
"u@	c #2BADFF",
"v@	c #1FA8FF",
"w@	c #159CEB",
"x@	c #020D18",
"y@	c #105C98",
"z@	c #1795FF",
"A@	c #004BA8",
"B@	c #0F507D",
"C@	c #085821",
"D@	c #0A5421",
"E@	c #005160",
"F@	c #00062C",
"G@	c #1DA7FF",
"H@	c #419FCF",
"I@	c #007AF6",
"J@	c #138DFF",
"K@	c #19DB90",
"L@	c #58CDFE",
"M@	c #A6EBFE",
"N@	c #A3CCB5",
"O@	c #B1EAFF",
"P@	c #A4DDFE",
"Q@	c #9EE2FE",
"R@	c #8DDDFF",
"S@	c #45C4FF",
"T@	c #31B9FF",
"U@	c #08304E",
"V@	c #0A2D4F",
"W@	c #178BF7",
"X@	c #0776FF",
"Y@	c #0069E0",
"Z@	c #004396",
"`@	c #0A5EA6",
" #	c #0D7534",
".#	c #086234",
"+#	c #005A6A",
"@#	c #00042C",
"##	c #1FA3FF",
"$#	c #3192CF",
"%#	c #006CF2",
"&#	c #1D92FF",
"*#	c #00A0FC",
"=#	c #0FCCF5",
"-#	c #83E8F7",
";#	c #B6CF9E",
">#	c #DBFBF1",
",#	c #B3ECFD",
"'#	c #8FD1FF",
")#	c #72C1FE",
"!#	c #37ADFF",
"~#	c #2F9BFF",
"{#	c #1A5897",
"]#	c #030E18",
"^#	c #1C90EB",
"/#	c #0681FE",
"(#	c #006AE2",
"_#	c #003F86",
":#	c #0B4587",
"<#	c #014D28",
"[#	c #027254",
"}#	c #096275",
"|#	c #00052C",
"1#	c #219EFF",
"2#	c #0056C2",
"3#	c #0074F6",
"4#	c #0B7EFF",
"5#	c #0099FA",
"6#	c #56DDFA",
"7#	c #93CAC8",
"8#	c #C8FDC1",
"9#	c #B6FD97",
"0#	c #80E8AF",
"a#	c #7CECCE",
"b#	c #4CF0EA",
"c#	c #3BACB6",
"d#	c #030808",
"e#	c #2369B8",
"f#	c #036EFF",
"g#	c #118CFF",
"h#	c #0B5ECF",
"i#	c #004994",
"j#	c #0A5DBA",
"k#	c #005692",
"l#	c #0E8260",
"m#	c #13616D",
"n#	c #27ABFF",
"o#	c #001129",
"p#	c #011935",
"q#	c #001935",
"r#	c #1192FF",
"s#	c #85DEFF",
"t#	c #1F272D",
"u#	c #2A352E",
"v#	c #2F3724",
"w#	c #28371B",
"x#	c #BCFE76",
"y#	c #5EF869",
"z#	c #102B17",
"A#	c #081610",
"B#	c #10465D",
"C#	c #05376F",
"D#	c #10416F",
"E#	c #0C396B",
"F#	c #004FA8",
"G#	c #004892",
"H#	c #005BC2",
"I#	c #00569E",
"J#	c #087463",
"K#	c #0D576D",
"L#	c #00042A",
"M#	c #3FBDFF",
"N#	c #1D97FF",
"O#	c #A4EAFE",
"P#	c #BAFE7E",
"Q#	c #81FBAC",
"R#	c #004E96",
"S#	c #033D7F",
"T#	c #00316E",
"U#	c #002B44",
"V#	c #004866",
"W#	c #044578",
"X#	c #35C8FF",
"Y#	c #0071F0",
"Z#	c #156EE7",
"`#	c #136AE1",
" $	c #005BD6",
".$	c #0077F0",
"+$	c #31A5FF",
"@$	c #39ADFF",
"#$	c #9BE1FF",
"$$	c #7ECCFE",
"%$	c #70C0FE",
"&$	c #D0FAF0",
"*$	c #F2FEDE",
"=$	c #E5FCE4",
"-$	c #B8FC8E",
";$	c #B5FE66",
">$	c #94FE86",
",$	c #27DF52",
"'$	c #26AC14",
")$	c #1CA630",
"!$	c #11D552",
"~$	c #31AFFF",
"{$	c #227BF4",
"]$	c #205AAA",
"^$	c #0C65C0",
"/$	c #043E86",
"($	c #00264C",
"_$	c #002832",
":$	c #00488C",
"<$	c #001B52",
"[$	c #000024",
"}$	c #0079BE",
"|$	c #0B89FF",
"1$	c #006CFE",
"2$	c #1E6BD4",
"3$	c #0054DE",
"4$	c #2194FF",
"5$	c #64C2FE",
"6$	c #3BAAFF",
"7$	c #89CEFF",
"8$	c #A0D5FE",
"9$	c #5AB3FE",
"0$	c #B3F7E6",
"a$	c #F1FFD7",
"b$	c #F2FCF4",
"c$	c #BEF9A7",
"d$	c #AAFE66",
"e$	c #9EFE78",
"f$	c #21D94C",
"g$	c #12A816",
"h$	c #35CB4E",
"i$	c #41EF5A",
"j$	c #2E93E0",
"k$	c #1255C4",
"l$	c #00509A",
"m$	c #116ABD",
"n$	c #002E6C",
"o$	c #001D44",
"p$	c #002C5A",
"q$	c #0054AA",
"r$	c #000B3A",
"s$	c #1F4065",
"t$	c #1FB2FF",
"u$	c #037AFF",
"v$	c #0046D6",
"w$	c #0063EA",
"x$	c #35A7FF",
"y$	c #5CB8FE",
"z$	c #339DFF",
"A$	c #64BBFE",
"B$	c #AADDFE",
"C$	c #58AEFE",
"D$	c #74CFFE",
"E$	c #E2FFCF",
"F$	c #F7FFE5",
"G$	c #DBF9D1",
"H$	c #BEFD9B",
"I$	c #99F470",
"J$	c #78E466",
"K$	c #81F167",
"L$	c #6AEE6D",
"M$	c #45AF83",
"N$	c #296AB3",
"O$	c #0B55B1",
"P$	c #2C68AC",
"Q$	c #195FAD",
"R$	c #004294",
"S$	c #0051A4",
"T$	c #02307C",
"U$	c #1A779E",
"V$	c #21AEFF",
"W$	c #005EEA",
"X$	c #005AE2",
"Y$	c #1F98FF",
"Z$	c #4BACFF",
"`$	c #379FFF",
" %	c #3BA0FF",
".%	c #89C6FF",
"+%	c #49A3FF",
"@%	c #86DAE4",
"#%	c #E5FFC7",
"$%	c #E1FAD8",
"%%	c #B6F799",
"&%	c #9FF86E",
"*%	c #93F670",
"=%	c #6BE15F",
"-%	c #3DA188",
";%	c #2E5FA2",
">%	c #3261A2",
",%	c #2763AD",
"'%	c #2665AC",
")%	c #366FB0",
"!%	c #2666AE",
"~%	c #1A5AA2",
"{%	c #15549B",
"]%	c #000B3C",
"^%	c #000226",
"/%	c #03001E",
"(%	c #1585AF",
"_%	c #0059DE",
":%	c #4FAEFF",
"<%	c #43A9FF",
"[%	c #359EFF",
"}%	c #41A8FF",
"|%	c #85C7FF",
"1%	c #6EB9FE",
"2%	c #3F9EFF",
"3%	c #A7EBDD",
"4%	c #FEFFE9",
"5%	c #BDFB9B",
"6%	c #C3FF9B",
"7%	c #A9F37D",
"8%	c #68AE72",
"9%	c #4C819C",
"0%	c #4970A5",
"a%	c #4676AC",
"b%	c #4978B9",
"c%	c #4175B5",
"d%	c #2D6BB1",
"e%	c #1756A3",
"f%	c #125AA4",
"g%	c #001E5A",
"h%	c #02001A",
"i%	c #0270D6",
"j%	c #0067DA",
"k%	c #046DF0",
"l%	c #2F90FD",
"m%	c #43A4FF",
"n%	c #3FA7FF",
"o%	c #5CB4FE",
"p%	c #97D4FF",
"q%	c #8BBFFF",
"r%	c #8BD7C6",
"s%	c #E4FDAF",
"t%	c #B3E1A3",
"u%	c #94D866",
"v%	c #71AC6E",
"w%	c #5A859E",
"x%	c #5981A9",
"y%	c #557DB3",
"z%	c #4D7AB7",
"A%	c #3F74AF",
"B%	c #316BAD",
"C%	c #1D5EA7",
"D%	c #155393",
"E%	c #0B356D",
"F%	c #053577",
"G%	c #166FC2",
"H%	c #1767B9",
"I%	c #1E5CBA",
"J%	c #4886D2",
"K%	c #5190E5",
"L%	c #3C85E0",
"M%	c #307BE2",
"N%	c #468ADE",
"O%	c #6692EA",
"P%	c #84C8C6",
"Q%	c #82BD5F",
"R%	c #5B944E",
"S%	c #609646",
"T%	c #517E89",
"U%	c #4A6DAC",
"V%	c #4D74A5",
"W%	c #4171B3",
"X%	c #3668A6",
"Y%	c #2E63A4",
"Z%	c #245AA4",
"`%	c #1B558B",
" &	c #0B3769",
".&	c #000836",
"+&	c #042766",
"@&	c #0E57AA",
"#&	c #0C5BAC",
"$&	c #23609F",
"%&	c #4169A5",
"&&	c #5E7BAA",
"*&	c #396299",
"=&	c #38629A",
"-&	c #4A64A0",
";&	c #5979B5",
">&	c #769A94",
",&	c #7BA15D",
"'&	c #5E8466",
")&	c #405DA8",
"!&	c #3F64A7",
"~&	c #3C639E",
"{&	c #3761A1",
"]&	c #3362A1",
"^&	c #2461A0",
"/&	c #135185",
"(&	c #062954",
"_&	c #000B36",
":&	c #083778",
"<&	c #155999",
"[&	c #175FA9",
"}&	c #1D67B3",
"|&	c #00428C",
"1&	c #00499C",
"2&	c #0056C0",
"3&	c #186A9E",
"4&	c #1F6B46",
"5&	c #196679",
"6&	c #1D57B7",
"7&	c #3363A5",
"8&	c #3D639B",
"9&	c #3563A1",
"0&	c #205790",
"a&	c #133E63",
"b&	c #041A46",
"c&	c #00042E",
"d&	c #052965",
"e&	c #0C4484",
"f&	c #034E8D",
"g&	c #004280",
"h&	c #00458C",
"i&	c #00325C",
"j&	c #003770",
"k&	c #003B64",
"l&	c #00292E",
"m&	c #002958",
"n&	c #00377C",
"o&	c #10548E",
"p&	c #1C486E",
"q&	c #092D5D",
"r&	c #000F3A",
"s&	c #000634",
"t&	c #00174C",
"u&	c #002E68",
"v&	c #003974",
"w&	c #003D6C",
"x&	c #0C5186",
"y&	c #0E558C",
"z&	c #085088",
"A&	c #0A4D86",
"B&	c #003A70",
"C&	c #002A5A",
"D&	c #002358",
"E&	c #000D3C",
"F&	c #030024",
"G&	c #020022",
"                      . + @ # $ % & * = - ;                         ",
"                  . . > , ' ) ! ~ { ] ^ / ( _ : <                   ",
"                . [ } | 1 2 3 4 5 6 7 8 9 0 a b c d                 ",
"            . e f g h i j k l m n o p q r s t u v w x y             ",
"          e z A B C D E F G H I J K L M N O P Q R S T U V           ",
"        W X Y Z `  ...+.@.#.$.%.&.*.=.-.;.>.,.'.).!.~.{.].^.        ",
"        /.(._.:.<.[.}.|.1.2.3.4.5.6.7.8.9.0.7 a.b.c.d.e.f.g.h.      ",
"      i.j.k.l.m.n.o.p.q.r.s.t.u.v.w.x.y.z.A.B.C.D.E.F.G.H.I.J.K.    ",
"    L.M.N.O.P.Q.R.S.T.U.V.W.X.Y.Z.`. +.+z.++@+#+$+%+&+*+=+-+;+h.    ",
"    >+,+'+)+!+~+{+]+^+/+(+_+:+<+[+ +}+|+1+2+3+9 4+5+6+7+8+9+0+a+    ",
"  b+c+d+e+f+g+h+i+j+{+k+l+m+n+o+p+q+r+s+t+u+8 v+w+x+y+z+A+B+C+D+E+  ",
"  b+F+F+G+H+I+J+K+L+F+F+M+N+O+P+Q+R+F+F+F+F+F+F+F+S+T+U+V+W+X+E+a+E+",
"  M F+F+Y+Z+`+ @.@+@F+F+@@#@$@%@&@*@=@-@;@>@,@F+'@)@!@~@{@]@^@/@a+E+",
"  (@F+F+G+_@:@<@[@}@F+F+|@1@2@&@3@4@5@6@7@8@9@0@a@b@c@d@e@f@g@/@a+E+",
"  h@F+F+i@j@k@l@m@n@F+F+o@p@q@r@s@t@u@v@w@x@F+y@z@x+A@B@C@D@E@F@a+E+",
"  G@F+F+H@I@J@K@L@M@F+F+N@O@P@Q@R@S@T@6 U@F+V@W@X@Y@Z@`@ #.#+#@#a+E+",
"  ##F+F+$#%#&#*#=#-#F+F+;#>#,#'#)#!#~#{#F+]#^#/#v+(#_#:#<#[#}#|#a+E+",
"  1#F+F+2#3#s 4#5#6#F+F+7#8#9#0#a#b#c#d#9@e#f#g#4+h#i#j#k#l#m#@#a+E+",
"  n#F+F+o#p#q#q#r#s#F+F+t#u#v#w#x#y#z#F+A#B#C#D#E#F#G#H#I#J#K#L#a+E+",
"  M#F+F+F+F+F+F+N#O#F+F+F+F+F+F+P#Q#F+F+F+F+F+F+F+R#S#T#U#V#W#h.a+E+",
"  X#Y#Z#`# $.$+$@$#$$$%$&$*$=$-$;$>$,$'$)$!$~${$]$^$/$($_$:$<$[$E+E+",
"  }$|$1$2$3$4$5$6$7$8$9$0$a$b$c$d$e$f$g$h$i$j$k$l$m$n$o$p$q$r$J.E+E+",
"  s$t$u$v$w$x$y$z$A$B$C$D$E$F$G$H$I$J$K$L$M$N$O$l$P$Q$R$S$T$V a+E+E+",
"    U$V$W$X$Y$Z$`$ %$$.%+%@%#%$%%%&%*%=%-%;%>%,%'%)%!%~%{%]%^%E+h.E+",
"    /%(%J@_%s :%<%[%}%|%1%2%3%4%5%6%7%8%9%0%a%b%c%d%e%f%g%[$a+E+^.  ",
"      h%i%j%k%l%:%m%n%o%p%q%r%s%t%u%v%w%x%y%z%A%B%C%D%E%D+V E+h.    ",
"      ;+F%G%H%I%J%K%L%M%N%O%P%Q%R%S%T%U%V%W%X%Y%Z%`% &.&^%E+E+^.    ",
"        V +&@&#&$&%&&&*&=&-&;&>&,&'&)&!&~&{&]&^&/&(&|#^%a+E+h.      ",
"          [$_&:&<&[&}&|&|&1&2&3&4&5&6&7&8&9&0&a&b&g.J.E+E+E+^.      ",
"          h.D+c&d&e&f&g&h&i&j&k&l&m&n&G#o&p&q&r&a+V E+E+E+h.        ",
"              V a+s&t&u&v&w&x&y&z&A&B&C&D&E&E+^%a+E+E+h.^.          ",
"                E+J.D+[$;+F&d d d G&;+[$D+J.a+E+E+E+h.              ",
"                  ^.h.E+E+E+E+E+E+E+E+E+E+E+E+E+E+E+^.              ",
"                      E+E+E+E+E+E+E+E+E+E+E+E+E+E+                  "};
