/* XPM */
static char *edit_vertex_cursor[]={
"32 32 4 1",
". c None",
"a c #000000",
"b c #342b1d",
"# c #ffffff",
".............................#a#",
"............................#a##",
"...........................#a###",
"..........................#a###a",
".........................#a###a#",
"........................#a###a#a",
".......................#a###a#a#",
"......................#a###a#a#a",
".....................#a###a#a#a#",
"....................#a###a#a#a#a",
"...................#a###a#a#a#aa",
"..................#a###a#a#a#aaa",
".................#a###a#a#a#aaaa",
"................#a#a#a#a#a#aaaa#",
"................#a#aa#a#a#aaaa#.",
"...............#a###aa#a#aaaa#..",
"...............#a##a#aaaaaaa#...",
"..............#a##a#aaaaaaa#....",
"..............#a#a#a#aaaaa#.....",
".............#a###aaaaaaa#......",
".............#a#aaaaaaaa#.......",
"............#a##aaaaaa##........",
"............#a#aaaaa##..........",
"...........#abaaaa##............",
"..........#aaaaa##..............",
"..........#aaa##................",
"..........#a##..................",
"...........#....................",
"................................",
"................................",
"................................",
"................................"};
