/* XPM */
static char *edit_poly[]={
"32 32 391 2",
"Qt c None",
".o c #000000",
"ee c #0a0a06",
"aR c #0d0703",
"ae c #100801",
"bl c #120502",
"d7 c #161612",
"bD c #171413",
"aF c #180a01",
"b9 c #1f1a17",
"ar c #210f01",
"#3 c #211001",
"a6 c #21100e",
"ed c #2a2622",
"c. c #2b211c",
"cj c #2d251d",
"ea c #2d2921",
"eb c #2d2925",
"cX c #2e261a",
"dN c #2e261e",
"cD c #2e2a1e",
"e# c #2e2a22",
"e. c #2e2a26",
"cp c #2e2e2f",
"ec c #322a1e",
"d8 c #322a22",
"d9 c #322e2a",
"bI c #342b1d",
"bk c #3e3e3e",
"dO c #3f3f3f",
"bJ c #443e37",
"bC c #443e3a",
".l c #484848",
"bB c #494536",
"b8 c #4a4533",
".k c #4a4a4a",
"cI c #4f4a37",
".j c #515151",
"dd c #545454",
"bn c #554c40",
"cY c #555555",
".i c #585858",
"b1 c #595959",
"bi c #5b4728",
"bA c #5c4c36",
"bj c #5e4836",
"bo c #5e5e5e",
"a8 c #5f5f5f",
".h c #606060",
"a4 c #624f30",
".g c #626262",
"bm c #645d52",
".f c #656565",
"#o c #666666",
".e c #676767",
"#x c #686868",
"#n c #696969",
".d c #6a6a6a",
"ct c #6b6359",
"cs c #6b645b",
".7 c #6b6b6b",
".X c #6c6c6c",
".P c #6d6d6d",
"a7 c #6e6454",
".B c #6e6e6e",
".c c #6f6f6f",
"cu c #70685b",
"cL c #70685d",
".x c #707070",
"cr c #716a60",
"a3 c #734629",
".C c #764e2a",
".t c #764f2b",
".b c #777777",
"cv c #786e60",
"c6 c #7a7163",
".p c #7a7a7a",
".Q c #7b5128",
"aQ c #7d3d15",
"bG c #7d6f5c",
".a c #7d7d7d",
"#G c #803a04",
"bz c #804f2f",
".I c #805430",
"bR c #807255",
"cw c #817765",
"#R c #833b04",
"bh c #83542f",
".Z c #835829",
"a5 c #843c1c",
".# c #868686",
".8 c #885a2f",
"bE c #887e6e",
"bS c #8a8b8b",
"#2 c #8b4004",
"cC c #8b775a",
"cx c #8b7f6c",
"bL c #8b8172",
"bK c #8b8b8b",
"d0 c #8c7c66",
"bF c #8c8272",
"bT c #8c8274",
"cq c #8c8c8c",
"ad c #8d4004",
"dm c #8d8270",
"bU c #8d8473",
"c# c #8d8577",
"bM c #8e8374",
"ca c #8e8475",
"bV c #918775",
"cb c #928777",
".n c #939393",
"aE c #944504",
"a2 c #94511c",
"cy c #948670",
"bN c #968a78",
"cc c #998e7b",
"bW c #9b8e7c",
"by c #9c5630",
"cz c #9d8d76",
"cM c #9d9181",
"dE c #9f917e",
"bQ c #a08d6f",
"bg c #a15e3a",
"aP c #a24d0f",
"cA c #a29177",
"bO c #a2957f",
"#Q c #a34e04",
"cB c #a39178",
"cd c #a39682",
"ac c #a44a04",
"cK c #a49989",
"aq c #a54b04",
"cN c #a59986",
"aO c #a6550d",
"#1 c #a74c04",
"c5 c #a79b8a",
"aD c #a84d03",
"#w c #a84f04",
"#F c #aa5004",
"bX c #aa9b84",
"a1 c #ab6539",
"#f c #af723a",
"b0 c #b09978",
"bP c #b0a188",
"co c #b1aba2",
"ce c #b2a28b",
"cO c #b2a58f",
"cn c #b2ada4",
"c7 c #b3a591",
"cm c #b3aea8",
"bH c #b48e6c",
"cl c #b4b0a9",
"ba c #b5b1ab",
"ck c #b5b2ad",
"au c #b6b3af",
"b# c #b6b4b1",
"#P c #b75604",
"b7 c #b79f7c",
"c4 c #b7ab99",
"af c #b7b5b3",
"b. c #b7b6b5",
"#0 c #b85804",
"#E c #b85904",
"#4 c #b8b6b6",
"a9 c #b8b8b7",
"aC c #b95600",
".Y c #b9b9b9",
"ap c #ba5904",
".s c #bababa",
"aN c #bb602e",
"ci c #bba17e",
"cJ c #bbb0a0",
"dM c #bc9c6d",
"dt c #bc9f71",
"bY c #bcab91",
"dl c #bcae98",
"dc c #be9e75",
"cW c #bea279",
"d5 c #bea481",
"dZ c #bea98e",
"dY c #bead92",
"d6 c #bfa37c",
"cP c #bfaf97",
"d4 c #c0a583",
"c8 c #c0b19a",
"aL c #c18064",
"d3 c #c1aa86",
"dX c #c1af97",
"d2 c #c2ab8b",
"d1 c #c2ab8d",
"#m c #c35f04",
"cf c #c3b095",
"dW c #c3b39c",
"a0 c #c57e5d",
"dk c #c5b6a1",
"dV c #c5b7a0",
"dU c #c6b8a3",
"dT c #c6b9a9",
"dS c #c6bbab",
"dP c #c6c2b6",
"aM c #c76227",
"bx c #c77e5c",
"dR c #c7bfb4",
"dQ c #c8c1b7",
".m c #c9c9c9",
"bZ c #cab99d",
"cQ c #cbba9e",
"bf c #cc8062",
"c9 c #ccbba1",
"dn c #cebea5",
"cg c #d3bd9e",
"c3 c #d3c8b4",
"dD c #d4c6ac",
"cR c #d6c1a3",
"dC c #d6c8b2",
"d. c #d7c4a6",
"do c #d8c5ab",
"dj c #d8c9b5",
"aK c #dc946e",
"ch c #dcc5a3",
"cS c #dcc6a4",
"d# c #ddc7a9",
"dp c #decaab",
"a. c #e07733",
"ay c #e07950",
"dF c #e0cdb2",
"cT c #e1c9a5",
"da c #e1caa7",
"dG c #e1cdae",
"#H c #e29558",
"be c #e29a7e",
"cV c #e2c69e",
"dL c #e2caa2",
"dK c #e2caa6",
"dq c #e2cbac",
"al c #e37630",
"cU c #e3c8a2",
"db c #e3cba6",
"dr c #e3cca8",
"dB c #e3d4c1",
"ds c #e4cca7",
"dH c #e4d0b0",
"az c #e56430",
"#W c #e5884c",
"aZ c #e69e7c",
"dJ c #e6ceaa",
"dI c #e6ceae",
"aB c #e76d24",
"#O c #e77604",
"dA c #e7dfcf",
"di c #e8dac6",
"c2 c #e8dac8",
"#y c #e99d53",
"#p c #e99d54",
"ao c #ea7a00",
".u c #ea9d53",
".0 c #ea9d54",
".J c #eb9d53",
".D c #eb9d54",
"bw c #eb9e77",
"#v c #ec7804",
"#D c #ee7a04",
"dz c #eee2ce",
"dx c #eee6da",
"dw c #eeeade",
"#V c #efc1ae",
"dh c #efe1ce",
"#J c #f0ad82",
"c1 c #f0e5d3",
"am c #f1780a",
"#l c #f17b04",
"#Z c #f17c03",
"ax c #f1ad8c",
"dg c #f1e6d4",
"cH c #f1e7d8",
"#9 c #f2af97",
"dy c #f2e2ce",
"df c #f2e8d7",
"c0 c #f2e8d9",
"dv c #f2eade",
"du c #f2eee6",
"aA c #f3712f",
"de c #f3eadc",
"cG c #f3ebdc",
"b6 c #f4ede1",
"cZ c #f5eee4",
"cF c #f5efe6",
"b5 c #f5f0e6",
".L c #f6ddae",
".F c #f6eab7",
"bt c #f6f1e7",
"a# c #f78403",
"ak c #f7ac84",
"#I c #f7bb7a",
".S c #f7deb0",
"cE c #f7f1e8",
"bv c #f8d1be",
"b4 c #f8f1e9",
"aV c #f8f3eb",
"bs c #f8f4eb",
"aJ c #f9b99a",
".z c #f9efbc",
"b3 c #f9f4ee",
"br c #f9f5ee",
"aG c #f9f5f0",
"aU c #f9f6f0",
"ag c #fab28f",
"#T c #fadcbb",
"b2 c #faf6f1",
"bq c #faf7f3",
"aT c #faf8f3",
"at c #faf8f5",
"#d c #fb8104",
".y c #fbb168",
".9 c #fbb169",
"#S c #fbb390",
"bb c #fbb490",
"aS c #fbf9f8",
"as c #fbfaf8",
"#K c #fcab7f",
".E c #fcb269",
"#g c #fcb26a",
"#5 c #fcfaf9",
"bp c #fcfbfb",
".U c #fd7d00",
"#a c #fd7e00",
"#B c #fd7f00",
"#X c #fd8000",
".4 c #fd8300",
".V c #fd8400",
".O c #fd8401",
"#t c #fd8500",
"#Y c #fd8502",
"#L c #fd8503",
"#b c #fd8504",
"#M c #fd8704",
"#s c #fd932e",
"#A c #fd9524",
"#i c #fd982e",
"## c #fda141",
".A c #fda732",
"#q c #fdb36a",
".v c #fdb46a",
"#z c #fdbe7a",
"#r c #fdd49c",
"#. c #fddcb1",
".3 c #fe7f00",
"#u c #fe8604",
".H c #fe8800",
"#j c #fe8804",
".R c #feb369",
".K c #feb36a",
"#h c #fecd9f",
".1 c #fed7b7",
"#8 c #fee2cd",
".r c #fefefe",
"#e c #ff0000",
"an c #ff7b16",
".W c #ff8601",
".5 c #ff8701",
"aa c #ff8703",
".N c #ff8900",
"#C c #ff8b04",
"#c c #ff8c01",
"#N c #ff8d03",
"#k c #ff8e04",
"ab c #ff9002",
".6 c #ff9101",
".2 c #ffa030",
".T c #ffa036",
".M c #ffa13a",
".G c #ffa630",
"aj c #ffc0a0",
"aY c #ffc9ad",
"bd c #ffc9b0",
"#6 c #ffd0a8",
"aI c #ffd1b1",
"bu c #ffd2aa",
"aW c #ffd3aa",
"aw c #ffd7b5",
"aX c #ffeace",
"ai c #ffeed8",
"bc c #fff5dc",
"av c #fff7df",
"#7 c #fff9f0",
"#U c #fffbdf",
".w c #fffecc",
"ah c #fffff4",
"aH c #fffff5",
".q c #ffffff",
"QtQtQt.#.a.b.c.d.e.f.g.h.i.j.k.l.l.j.j.j.j.j.j.j.j.j.j.jQtQtQtQt",
"QtQtQt.b.m.m.m.m.m.m.m.m.m.m.m.n.m.m.m.m.m.m.m.m.m.m.m.jQtQt.o.o",
"QtQtQt.p.m.q.q.q.q.q.q.q.q.r.q.s.q.q.q.q.q.q.q.q.q.q.m.j.t.u.v.w",
"QtQtQt.x.m.q.q.q.q.q.q.q.q.r.q.s.q.q.q.q.q.q.q.q.q.q.m.t.u.y.z.A",
"QtQtQt.B.m.q.q.q.q.q.q.q.q.r.q.s.q.q.q.q.q.q.q.q.q.q.C.D.E.F.G.H",
"QtQtQt.B.m.q.q.q.q.q.q.q.q.r.q.s.q.q.q.q.q.q.q.q.q.I.J.K.L.M.N.O",
"QtQtQt.P.m.q.q.q.q.q.q.q.q.r.q.s.q.q.q.q.q.q.q.q.Q.u.R.S.T.U.V.W",
"QtQtQt.X.n.s.s.s.s.s.s.s.s.Y.s.s.s.s.s.s.s.s.s.Z.0.R.1.2.3.4.5.6",
"QtQtQt.7.m.q.q.q.q.q.q.q.q.r.q.s.q.q.q.q.q.q.8.0.9#.###a.V#b#c#d",
"QtQtQt.d.m.q.q.q#e#e#e#e#e#e#e#e#e#e#e#e.q#f.u#g#h#i#a.V#j#k#l#m",
"QtQtQt#n.m.q.q.q#e.s.s.s.s.s.s#o.s.s.s.s#e#p#q#r#s.U#t#u#k#v#m#w",
"QtQtQt#x.m.q.q.q#e.s.s.s.s.s.s#o.s.s.s.8#y#e#z#A#B#t#u#C#D#E#F#G",
"QtQtQt#o.m.q.q.q#e.s.q.q.q.q.q.s.q.q#H#I#J#K#e#e#L#M#N#O#P#Q#R.o",
"QtQtQt#o.n.s.s.s#e#o.s.s.s.s.s.s.s#S#T#U#V#W#X#Y#e#k#Z#0#1#2#3.o",
"QtQtQt.f.m.q.q.q#e.s.q.q.q.q.q#4#5#6#7#8#9a.a#aaab#e#eacadae.o.o",
"Qt#e#e#e#e#e#e#e#e.s.q.q.q.q#5afagahaiajakalamanaoapaq#ear.o.o.o",
"Qt#eQt.o#o.s.s.s.s.s.q.q.qasatau#6avawaxayazaAaBaCaDaEaF#e#e.o.o",
"Qt#eQt.o#o.s.s.s.s.s.q.rasataGagaHaIaJaKaLaMaNaOaPaQaR.o.o#e.o.o",
"Qt#eQt.h.m.q.q.q.q.q.raSaTaUaVaWaXaYaZa0a1a2a3a4a5a6a7.o.o#e.o.o",
"Qt#eQta8.n.s.s.s.sa9b.b#aubabbbcbdbebfbgbhbibjbkblbmbn.o.o#e.o.o",
"Qt#eQtbo.m.q.q.qbpasbqbrbsbtbubvbwbxbybzbAbBbCbDbEbFbG.o.o#e.o.o",
"Qt#e#e#e#e#e#e#e#e#e#e#e#e#e#e#e#e#e#e#e#e#e#e#e#e#e#e#e#e#e.oQt",
"QtQtQt.o#o.m.m.m.m.m.m.m.mbHbgbgbIbIbJ.obKbLbMbNbObPbQ.o.o.oQtQt",
"QtQtQt.o#o.m.m.m.m.m.m.mbRbIbIbI.o.obSbTbUbVbWbXbYbZb0.o.oQtQtQt",
"QtQtQtb1.m#5b2b3b4b5b6b7b8b9c..obSc#cacbcccdcecfcgchcicjQtQtQtQt",
"QtQtQtb1.nafckclcmcncocp.o.ocqcrcsctcucvcwcxcyczcAcBcCcDQtQtQtQt",
"QtQtQt.i.maGcEcFb6cGcHcIbKcJcKcLcMcNcOcPcQcRcScTcUcVcWcXQtQtQtQt",
"QtQtQtcY.maVcZb6cGc0c1c2c3c4c5c6c7c8c9d.d#dadbcUcUcVdccXQtQtQtQt",
"QtQtQtdd.mcEb6dedfdgdhdidjdkdldmdndodpdqdrdscUcUcUcVdtcXQtQtQtQt",
"QtQtQt.k.mdudvdwdxdydzdAdBdCdDdEdFdGdHdIdJdKdLcVcVcVdMdNQtQtQtQt",
"QtQtQtdOdPdQdRdSdTdUdVdWdXdYdZd0d1d2d3d4d5d6cWdcdtdMdMcXQtQtQtQt",
"QtQtQtd7d8d9d8d9e.d8d9e.e#eaebdNdNd8dNeccXedcDcDcXcDcXeeQtQtQtQt"};
