/* XPM */
static char *move_vertex[]={
"32 32 104 2",
"Qt c None",
"#x c #000000",
".# c #020202",
"#y c #071e0f",
".5 c #092212",
"#q c #0c3326",
"#F c #0e371e",
".4 c #0e3d1c",
".9 c #0e3d1e",
"#D c #102317",
"#E c #112217",
"#G c #12271a",
"#u c #124929",
"#H c #13301c",
"#p c #134c28",
"#d c #135628",
".0 c #153620",
"#I c #153c21",
".3 c #17602f",
".P c #185f2e",
".T c #186736",
"#J c #194026",
"#i c #196e35",
".C c #1a6936",
".h c #1a6938",
"#m c #1d7a42",
".Y c #1e6b3b",
".U c #1f8648",
"#j c #208348",
".6 c #208548",
"#K c #21462d",
"#c c #219648",
"#n c #239854",
".W c #24974d",
".K c #25a653",
".S c #266b40",
".X c #27a447",
".p c #299451",
".L c #2b9252",
".q c #2c974f",
"#k c #2e9f5e",
".Q c #318448",
".2 c #319251",
".x c #33aa60",
".R c #347349",
".v c #35985a",
".o c #369d62",
".E c #379857",
".F c #37a65e",
".y c #389b60",
"#o c #3ba465",
"#t c #3baa62",
"#s c #3db264",
".H c #3fb86d",
".w c #41a46b",
"#r c #41b66d",
"#w c #42af69",
"#l c #439a68",
".i c #447554",
"#v c #44ad6e",
"#C c #45b46c",
".e c #477857",
".G c #47ae6b",
"## c #497659",
".a c #4a7957",
".n c #4a7959",
"#h c #4a835f",
".I c #4abd72",
".J c #4bc674",
".D c #4e7f5d",
".V c #4ec375",
"#B c #51c274",
".1 c #56a16d",
"#. c #59c67a",
".m c #5db275",
".z c #5eb178",
"#z c #60c97e",
"#A c #66cb82",
".M c #6ab385",
"#e c #6dbe82",
".l c #76c98d",
".r c #77c892",
"#b c #7bb88c",
"#g c #86c39e",
".8 c #8bc8ab",
".A c #8fbea0",
".N c #95c2a7",
".j c #99bea2",
".f c #9dbea8",
".b c #9dccab",
".k c #a7dab5",
".s c #a8d9b7",
"#f c #a8e3c1",
"#a c #b1e0ca",
".c c #c4ddcb",
".B c #dcede2",
".Z c #dfeae2",
".t c #dfeee4",
".d c #e0ebe3",
".7 c #f2f7f4",
".g c #f4f7f5",
".O c #f7faf8",
".u c #f8fbf9",
"#L c #ff0000",
"QtQtQtQtQtQtQtQtQtQtQtQtQtQtQtQtQtQtQtQtQtQtQtQtQtQtQtQtQtQtQtQt",
"QtQtQtQtQtQtQtQtQtQtQtQtQtQtQtQtQtQtQtQtQtQtQtQtQtQtQtQtQtQtQtQt",
"QtQtQtQtQtQtQtQtQtQtQtQtQtQtQtQtQtQtQtQtQtQtQtQtQtQtQtQtQtQtQtQt",
"QtQtQtQtQtQtQtQtQtQt.#.#.#.#.#.#QtQtQtQtQtQtQtQtQtQtQtQtQtQtQtQt",
"QtQtQtQtQtQtQt.#.#.#.a.b.c.d.c.a.#.#QtQtQtQtQtQtQtQtQtQtQtQtQtQt",
"QtQtQtQtQt.#.#.e.f.c.d.d.d.d.d.d.g.h.#.#QtQtQtQtQtQtQtQtQtQtQtQt",
"QtQtQtQt.#.i.j.d.d.k.l.m.m.m.l.k.d.c.g.h.#.#QtQtQtQtQtQtQtQtQtQt",
"QtQtQt.#.n.j.d.k.m.o.p.p.p.p.p.q.m.r.s.t.u.h.#QtQtQtQtQtQtQt.#Qt",
"QtQtQt.#.j.d.k.m.o.v.w.x.x.x.w.q.p.y.z.A.B.u.C.#QtQtQtQtQt.#.#Qt",
"QtQt.#.D.d.k.m.E.F.G.H.I.J.J.J.H.K.o.L.M.N.B.O.h.#QtQtQt.#.P.#Qt",
"QtQt.#.d.l.m.F.Q.R.S.T.T.T.T.T.U.V.H.K.W.X.N.B.g.Y.#Qt.#.P.Z.#Qt",
"QtQt.0.b.1.2.3.4.4.5.#.#.#.#.#.4.4.6.V.H.W.X.A.t.7.Y.#.P.Z.8.#Qt",
"Qt.#.d.m.Q.3.4.5.#.#QtQtQtQtQt.#.#.9.T.6#..W.X.z.s.Z##.Z#a#b.#Qt",
"Qt.#.b#c#d.4.5.#QtQtQtQtQtQtQtQtQt.#.#.T.6#..W.X#e#e#f#g#b#h.#Qt",
"Qt.#.m#i.4.5.#QtQtQtQtQtQtQtQtQtQtQtQt.#.9#j#..W#k#k#k#k#l.P.#Qt",
"Qt.##c#d.5.5.#QtQtQtQtQtQtQtQtQtQtQtQtQt.#.9#m.V#k#n#n#n#o#p.#Qt",
"Qt.##d.4.5.#QtQtQtQtQtQtQtQtQtQtQtQtQtQtQt.##q#r#s#k#k#k#t#u.#Qt",
"Qt.#.4.5.5.#QtQtQtQtQtQtQtQtQtQtQtQtQtQt.#.P.Z.8#v#v#v#v#w#u.#Qt",
"QtQt#x.5#y#xQtQtQtQtQtQtQtQtQtQtQtQtQt.#.P.Z.8#z#A#B#C#C#w#u.#Qt",
"QtQt#x#D#E#E#xQtQtQtQtQtQtQtQtQtQtQt.#.P.Z.8#h.P#u#u#u#u#u#F.#Qt",
"QtQtQt#x#G#G#xQtQtQtQtQtQtQtQtQtQt.#.#.#.#.#.#.#.#.#.#.#.#.#.#Qt",
"QtQtQt#x#H#H#H#xQtQtQtQtQtQtQtQtQtQtQtQtQtQtQtQtQtQtQtQtQtQtQtQt",
"QtQtQtQt#x.0.0.0#xQtQtQtQtQtQtQtQtQtQtQtQtQtQtQtQtQtQtQtQtQtQtQt",
"QtQtQtQtQt#x#I#I#I#xQtQtQtQtQtQtQtQtQtQtQtQtQtQtQtQtQtQtQtQtQtQt",
"QtQtQtQtQtQt#x#J#J#J#xQtQtQtQtQtQt#x#x#xQtQtQtQtQtQtQtQtQtQtQtQt",
"QtQtQtQtQtQtQt#x#x#K#K#x#xQtQtQt#x#x#x#x#xQtQtQtQtQtQtQtQtQtQtQt",
"QtQtQtQtQtQtQtQtQt#x#x#x#K#x#x#x#x#x#x#x#x#xQtQtQtQtQtQtQtQtQtQt",
"QtQtQtQtQtQtQtQtQtQtQtQt#x#x#x#x#x#x#x#x#x#x#L#L#L#L#L#L#L#L#L#L",
"QtQtQtQtQtQtQtQtQtQtQtQtQtQtQt#x#x#x#x#x#x#x#L#L#L#L#L#L#L#L#L#L",
"QtQtQtQtQtQtQtQtQtQtQtQtQtQtQt#L#x#x#x#x#xQtQtQtQtQtQtQtQtQtQtQt",
"QtQtQtQtQtQtQtQtQtQtQtQtQtQt#L#LQt#x#x#xQtQtQtQtQtQtQtQtQtQtQtQt",
"QtQtQtQtQtQtQtQtQtQtQtQtQt#L#LQtQtQtQtQtQtQtQtQtQtQtQtQtQtQtQtQt"};
