/* XPM */
static char *move_area[]={
"32 32 172 2",
".b c None",
".e c None",
"aL c None",
"aO c None",
"aJ c None",
"#v c None",
"#3 c None",
".g c None",
"#6 c None",
"ak c None",
"#K c None",
"al c None",
".m c None",
".i c None",
"ad c None",
"au c None",
".r c None",
"#U c None",
".t c None",
".h c None",
".s c None",
"#T c None",
"aC c None",
"ao c None",
"aM c None",
".d c None",
"#t c None",
".l c None",
"az c None",
".p c None",
".f c None",
"Qt c None",
".c c None",
"as c None",
"#2 c None",
"#8 c None",
".o c None",
"aj c None",
"ar c None",
".n c None",
"aw c None",
"am c None",
"ax c None",
"aG c None",
"ae c None",
"#J c None",
"ag c None",
"## c None",
"at c None",
"#7 c None",
"ap c None",
"av c None",
"aI c None",
"#u c None",
"ai c None",
".# c None",
"aq c None",
"ay c None",
"aK c None",
"aN c None",
".a c None",
"#L c None",
".q c None",
"aF c None",
"#w c None",
"aP c None",
"aA c None",
".j c None",
".k c None",
"#4 c #000000",
".u c #020202",
"#5 c #071e0f",
"#p c #092212",
"#V c #0c3326",
"af c #0e371e",
"#o c #0e3d1c",
"#x c #0e3d1e",
"ab c #102317",
"ac c #112217",
"ah c #12271a",
"#Z c #124929",
"an c #13301c",
"#S c #134c28",
"#D c #135628",
"#k c #153620",
"aB c #153c21",
"#n c #17602f",
"#. c #185f2e",
"#d c #186736",
"aE c #194026",
"#I c #196e35",
".X c #1a6936",
".C c #1a6938",
"#P c #1d7a42",
"#i c #1e6b3b",
"#e c #1f8648",
"#M c #208348",
"#q c #208548",
"aH c #21462d",
"#C c #219648",
"#Q c #239854",
"#g c #24974d",
".5 c #25a653",
"#c c #266b40",
"#h c #27a447",
".K c #299451",
".6 c #2b9252",
".L c #2c974f",
"#N c #2e9f5e",
"#a c #318448",
"#m c #319251",
".S c #33aa60",
"#b c #347349",
".Q c #35985a",
".J c #369d62",
".Z c #379857",
".0 c #37a65e",
".T c #389b60",
"#R c #3ba465",
"#Y c #3baa62",
"#X c #3db264",
".2 c #3fb86d",
".R c #41a46b",
"#W c #41b66d",
"#1 c #42af69",
"#O c #439a68",
".D c #447554",
"#0 c #44ad6e",
"aa c #45b46c",
".z c #477857",
".1 c #47ae6b",
"#z c #497659",
".v c #4a7957",
".I c #4a7959",
"#H c #4a835f",
".3 c #4abd72",
".4 c #4bc674",
".Y c #4e7f5d",
"#f c #4ec375",
"a# c #51c274",
"#l c #56a16d",
"#y c #59c67a",
".H c #5db275",
".U c #5eb178",
"#9 c #60c97e",
"a. c #66cb82",
".7 c #6ab385",
"#E c #6dbe82",
".G c #76c98d",
".M c #77c892",
"#B c #7bb88c",
"#G c #86c39e",
"#s c #8bc8ab",
".V c #8fbea0",
".8 c #95c2a7",
".E c #99bea2",
".A c #9dbea8",
".w c #9dccab",
".F c #a7dab5",
".N c #a8d9b7",
"#F c #a8e3c1",
"#A c #b1e0ca",
".x c #c4ddcb",
".W c #dcede2",
"#j c #dfeae2",
".O c #dfeee4",
".y c #e0ebe3",
"#r c #f2f7f4",
".B c #f4f7f5",
".9 c #f7faf8",
".P c #f8fbf9",
"aD c #ff0000",
"Qt.#Qt.#.a.b.b.b.c.b.d.b.e.b.f.b.a.b.g.b.b.b.b.b.b.b.c.b.h.b.i.b",
".g.b.j.b.k.b.l.b.m.b.n.b.o.b.p.b.k.b.q.b.j.b.j.b.r.b.b.b.b.b.s.b",
".t.#.t.#.b.b.b.b.b.b.b.b.b.b.b.b.b.b.b.b.b.b.b.b.b.b.b.b.b.b.b.b",
".b.b.b.b.b.b.b.b.b.b.u.u.u.u.u.u.b.b.b.b.b.b.b.b.b.b.b.b.b.b.b.b",
".b.b.b.b.b.b.b.u.u.u.v.w.x.y.x.v.u.u.b.b.b.b.b.b.b.b.b.b.b.b.b.b",
".b.b.b.b.b.u.u.z.A.x.y.y.y.y.y.y.B.C.u.u.b.b.b.b.b.b.b.b.b.b.b.b",
".b.b.b.b.u.D.E.y.y.F.G.H.H.H.G.F.y.x.B.C.u.u.b.b.b.b.b.b.b.b.b.b",
".b.b.b.u.I.E.y.F.H.J.K.K.K.K.K.L.H.M.N.O.P.C.u.b.b.b.b.b.b.b.u.b",
".b.b.b.u.E.y.F.H.J.Q.R.S.S.S.R.L.K.T.U.V.W.P.X.u.b.b.b.b.b.u.u.b",
".b.b.u.Y.y.F.H.Z.0.1.2.3.4.4.4.2.5.J.6.7.8.W.9.C.u.b.b.b.u#..u##",
".b.b.u.y.G.H.0#a#b#c#d#d#d#d#d#e#f.2.5#g#h.8.W.B#i.u.b.u#.#j.u.b",
".b.b#k.w#l#m#n#o#o#p.u.u.u.u.u#o#o#q#f.2#g#h.V.O#r#i.u#.#j#s.u#t",
".b.u.y.H#a#n#o#p.u.u.a#u.a#v#w.u.u#x#d#q#y#g#h.U.N#j#z#j#A#B.u.b",
".b.u.w#C#D#o#p.u.b.b.b.b.b.b.b.b.b.u.u#d#q#y#g#h#E#E#F#G#B#H.u.b",
".a.u.H#I#o#p.u#J.h#J.h#J.h#J#K#L.a#u.a.u#x#M#y#g#N#N#N#N#O#..u.b",
".b.u#C#D#p#p.u.b.b.b.b.b.b.b.b.b.b.b.b.b.u#x#P#f#N#Q#Q#Q#R#S.u#u",
"#T.u#D#o#p.u#T#U#T#U#T#U#T#U#K#L.h#J#T#U.a.u#V#W#X#N#N#N#Y#Z.u.b",
".b.u#o#p#p.u.b.b.b.b.b.b.b.b.b.b.b.b.b.b.u#.#j#s#0#0#0#0#1#Z.u#2",
"#3.b#4#p#5#4#6#7.s.p.s.p.s.p.m#8#T#U.h.u#.#j#s#9a.a#aaaa#1#Z.u.b",
".b.b#4abacac#4.b.b.badae.b.b.b.b.b.b.u#.#j#s#H#.#Z#Z#Z#Z#Zaf.u.t",
"ag.b.b#4ahah#4.bai.bai.bai.baj.bak.u.u.u.u.u.u.u.u.u.u.u.u.u.u.b",
"alam.b#4ananan#4adae.bao.b.b.b.b.b.b.b.bapaq.b.b.b#Karas.rat#U.b",
"au.bav.b#4#k#k#k#4.b.b.b.b.bau.bau.baw.b.m#8ax.kay.baz.b.baA.a.b",
".b.balam.b#4aBaBaB#4.baC.b.b.b.b.baDaDaDaDaDaDaDaDaDaDaDaDaDaDaD",
".b.b.b.b.b.b#4aEaEaE#4.b.b.b.b.b.baDaDaDaDaDaDaDaDaDaDaDaDaDaDaD",
"aF.b.baoakaG.b#4#4aHaH#4#4.b.b.b.baDaD.b.b.b.q.b.k.b#U.baI.baDaD",
".b.b.b.b.b.b.b.b.b#4#4#4aH#4#4.b.baDaD.b.b.b#U.baw.b.m#8ay.baDaD",
".baJ.baJ.b.baKaCaL.b.b.b#4#4#4#4#4aDaD.b.a#u.p.b#U.baI.b.b.baDaD",
".b.b.b.b.b.b.b.b.b.b.b.b.b.b.b.b.baDaD.b.b.b.b.b#U.baM.b.m#8aDaD",
".iaN.iaN.iaN.iaNaOaw.rat.b.b.b.b.baDaD.b.q.b.k.baI.baI.b.b.baDaD",
".b.b.b.b.b.b.b.b.b.b.b.b.b.b.b.b.baDaDaDaDaDaDaDaDaDaDaDaDaDaDaD",
".iaN.iaN.iaN.iaN.o#2aP.b.b.b.b.b.baDaDaDaDaDaDaDaDaDaDaDaDaDaDaD"};
