/* XPM */
static char *move_vertex_cursor[]={
"32 32 5 1",
". c None",
"a c #000000",
"c c #092212",
"b c #e0ebe3",
"# c #ffffff",
"................................",
"................................",
"..........######................",
".......###aaaaaa##..............",
".....##aaa###b##aa##............",
"....#aa###########aa##..........",
"...#a####a#a#a#a####aa#.......#.",
"..#a##a#a#a#a#a#a#####a#.....#a#",
"..#a#a#a#a#a#a#a#a#a###a#...#aa#",
".#a###a#a#a#a#a#a#a#a###a#.#a#a#",
".#a##a#a###a#a#a#a#a#a###a#a##a#",
".#a#a#a#aaaaaaaaa#a#a#a###a#a#a#",
"#a#a#a#aaa#####aaa#a#a#a###a##a#",
"#a##a#ca##.....##aa#a#a#a#a###a#",
"#a#a#aa#.........##a#a#a#a#a##a#",
"#aa#aaa#...........#a#a#a#a#a#a#",
"#a#a#a#.............#a#a#a#a##a#",
"#aa#aa#............#a#a#a#a###a#",
".#aa#a#...........#a#a#a#a#a##a#",
".#a#a#a#.........#a#a#a#a#a#a#a#",
"..#a#aa#........#aaaaaaaaaaaaaa#",
"..#aa#aa#......#################",
"...#aa#aa#......................",
"....#aa#aa#.....................",
".....#aa#aa##...................",
"......#aaaaaa###................",
".......##aaaaaaa#...............",
".........###aaa#................",
"............###.................",
"................................",
"................................",
"................................"};
