/* XPM */
static char *unlink[] = {
/* columns rows colors chars-per-pixel */
"32 32 199 2",
"   c black",
".  c #050609",
"X  c #0A0A0D",
"o  c #1F190C",
"O  c #0A0B12",
"+  c #0E0F16",
"@  c #1F1E11",
"#  c #12131D",
"$  c #3F3517",
"%  c #3F351B",
"&  c #3F381F",
"*  c #000B21",
"=  c #151624",
"-  c #1C1D2A",
";  c #1F2236",
":  c #25262B",
">  c #3F3E24",
",  c #272935",
"<  c #23263A",
"1  c #26283C",
"2  c #7F6936",
"3  c #7F6F3C",
"4  c #011643",
"5  c #252F4C",
"6  c #2A2D48",
"7  c #2B2E49",
"8  c #2D304B",
"9  c #2E314B",
"0  c #30334E",
"q  c #35384A",
"w  c #3E3F48",
"e  c #3B3D4F",
"r  c #333650",
"t  c #363953",
"y  c #383B55",
"u  c #3B3E57",
"i  c #022165",
"p  c #273662",
"a  c #3D405A",
"s  c #3F446C",
"d  c #4B4C57",
"f  c #40435C",
"g  c #43465E",
"h  c #7F7542",
"j  c #7F7643",
"k  c #454861",
"l  c #40446D",
"z  c #42476F",
"x  c #575965",
"c  c #53566E",
"v  c #4B507B",
"b  c #595C77",
"n  c #52577E",
"m  c #5F6171",
"M  c #646674",
"N  c #FFDB75",
"B  c #FFDD77",
"V  c #FFEC7D",
"C  c #032C87",
"Z  c #274A99",
"A  c #34549F",
"S  c #585C87",
"D  c #555B91",
"F  c #565C92",
"G  c #575D92",
"H  c #575D93",
"J  c #595F94",
"K  c #595F95",
"L  c #5F6383",
"P  c #5F6491",
"I  c #5B6196",
"U  c #5C6297",
"Y  c #5D6398",
"T  c #5D6399",
"R  c #5E6499",
"E  c #666684",
"W  c #63678C",
"Q  c #666A8F",
"!  c #6A6E8F",
"~  c #707282",
"^  c #60669B",
"/  c #61679B",
"(  c #61679C",
")  c #62689D",
"_  c #6F7397",
"`  c #7D7F91",
"'  c #73779B",
"]  c #4259A0",
"[  c #445CA2",
"{  c #475EA4",
"}  c #4961A7",
"|  c #656BA0",
" . c #666CA0",
".. c #666CA1",
"X. c #676DA1",
"o. c #676DA2",
"O. c #6A70A4",
"+. c #6B71A5",
"@. c #6B71A6",
"#. c #6C72A6",
"$. c #6E74A8",
"%. c #6F75A9",
"&. c #7076A9",
"*. c #7076AA",
"=. c #7177AA",
"-. c #7177AB",
";. c #7278AB",
":. c #7278AC",
">. c #7379AC",
",. c #7379AD",
"<. c #747AAD",
"1. c #747AAE",
"2. c #757BAE",
"3. c #757BAF",
"4. c #767CAF",
"5. c #777DB0",
"6. c #777DB1",
"7. c #787EB1",
"8. c #797FB2",
"9. c #857E86",
"0. c #7A80B3",
"q. c #7B81B3",
"w. c #7B81B4",
"e. c #7C82B4",
"r. c #7C82B5",
"t. c #7D83B5",
"y. c #7D83B6",
"u. c #7F85B8",
"i. c #898B99",
"p. c #8C8D9B",
"a. c #99939A",
"s. c #8A8DA6",
"d. c #9C9FAB",
"f. c #8086B8",
"g. c #8086B9",
"h. c #8187B9",
"j. c #8288B9",
"k. c #8288BA",
"l. c #848ABC",
"z. c #858BBC",
"x. c #858BBD",
"c. c #868CBD",
"v. c #868CBE",
"b. c #878DBE",
"n. c #9FA0AC",
"m. c #FFE781",
"M. c #FFE882",
"N. c #FFE983",
"B. c #FFEA84",
"V. c #FFF083",
"C. c #FFF48E",
"Z. c #FFF58F",
"A. c #FFF690",
"S. c #888EC0",
"D. c #898FC0",
"F. c #898FC1",
"G. c #8A90C1",
"H. c #8A90C2",
"J. c #8B91C2",
"K. c #8C92C3",
"L. c #8C92C4",
"P. c #8D93C4",
"I. c #8E94C5",
"U. c #8F95C6",
"Y. c #9096C7",
"T. c #9197C7",
"R. c #9197C8",
"E. c #9298C8",
"W. c #9298C9",
"Q. c #9399C9",
"!. c #9399CA",
"~. c #959BCB",
"^. c #959BCC",
"/. c #969CCC",
"(. c #969CCD",
"). c #979DCD",
"_. c #9A9FCB",
"`. c #989ECE",
"'. c #9DA2CE",
"]. c #9BA1D0",
"[. c #9BA1D1",
"{. c #9CA2D1",
"}. c #9CA2D2",
"|. c #AFB2CB",
" X c #A0A6D1",
".X c #A3A9D4",
"XX c #A8ADD7",
"oX c #A7ACD8",
"OX c #A9AED9",
"+X c #ABB0D5",
"@X c #ACB1DB",
"#X c #AFB4DB",
"$X c #B9BEDF",
"%X c #B8BCE0",
"&X c #C0C4E4",
"*X c #C1C5E4",
"=X c #C5C9E6",
"-X c #C8CCE8",
";X c None",
/* pixels */
";X;X;X;X;X;X;X;X;X;X;X;X;X;X;X;X;X;X;X;X;X;X;X;X;X;X;X;X;X;X;X;X",
";X;X;X;X;X;X;X;X;X;X;X;X;X;X;X;X;X;X;X;X;X;X;X;X;X;X;X;X;X;X;X;X",
";X;X;X;X;X;X;X;X;X;X;X;X;X;X;X;X;X;X;X;X;X;X;X;X;X;X;X;X;X;X;X;X",
";X;X;X;X;X;X;X;X;X;X;X;X;X;X;X;X;X;X;X;X;X;X;X;X;X;X;X;X;X;X;X;X",
";X;X;X;X;X;X;X;X;X;X;X;X;X;X;X;X;X;X;X;X;X;X;X;X;X;X;X;X;X;X;X;X",
";X;X;X;X;X;X;X;X;X;X;X;X;X;X;X;X;X;X;X;X;X;X;X;X;X;X;X;X;X;X;X;X",
";X;X;X;X;X;X;X;X;X;X;X;X;X;X;X;X;X;X;X;X;X;X;X;X;X;X;X;X;X;X;X;X",
";X;X;X;X;X;X;X;X;X;X;X;X;X;X;X;X;X;X;X;X;X;X;X;X;X;X;X;X;X;X;X;X",
";X;X;X;X;X;X;X;X;X;X;X;X;X;X;X;X;X;X;X;X;X;X      ;X;X;X;X;X;X;X",
";X;X;X;X;X;X;X;X;X  : x M M M d   ;X;X;X;X;Xq _ ' e   ;X;X;X;X;X",
";X;X;X;X;X;X;X  w |.-X-X-X*X$Xs.  ;X;X;X;X;Xk U.~.].b   ;X;X;X;X",
";X;X;X;X;X;X  ~ -X-X%XXX/.R.K.Q   ;X;X;X;X;Xg G.U.^.[., ;X;X;X;X",
";X;X;X;X;X  M -X=XOX[./.R.L.S.W       ;X;X;Xf z.G.Y./.!   ;X;X;X",
";X;X;X;X;X: -X=XoX[.(.E.P.S.l.n.M.N 2 ;X;X;Xa u.x.J.T./.X ;X;X;X",
";X        ` -X@X{.).W.P.D.l.u.d.Z.m.3 ;X;X;Xu 0.f.c.J.R.5 *   ;X",
"  i i i i -X&X}.).Q.I.F.l.f.w.a.V.C.h ;X;X;Xy 2.q.f.v.K.} C   ;X",
"  C C C Z -X#X`.!.I.F.x.f.w.5.E $ > @ ;X;X;Xt &.3.w.h.b.{ C   ;X",
"  C C C A -X.X!.U.G.x.g.e.5.:.n   ;X;X;X;X;Xr +.*.4.e.h.[ C   ;X",
"  C C C Z -X XU.H.c.h.r.6.>.$.L & % o ;X;X;X0 | +.=.4.r.] C   ;X",
"  i i i i -X'.J.v.h.t.7.,.$.O.p.B.B 2 ;X;X;X9 ^  .#.-.5.p 4   ;X",
";X        ` _.v.k.y.7.,.%.O. .i.A.N.3 ;X;X;X7 I / ..#.;.+ ;X;X;X",
";X;X;X;X;X: +Xk.y.8.<.%.+. .( 9.V Z.j ;X;X;X6 F U ( X.P   ;X;X;X",
";X;X;X;X;X  m j.8.1.&.+...) Y z       ;X;X;X6 D G U ) 1 ;X;X;X;X",
";X;X;X;X;X;X  c 2.*.@.X.) T J l   ;X;X;X;X;X6 D D H v   ;X;X;X;X",
";X;X;X;X;X;X;X  - S o.) R K D s   ;X;X;X;X;X6 D D s . ;X;X;X;X;X",
";X;X;X;X;X;X;X;X;X  # < 8 7 6 ;   ;X;X;X;X;XO = O   ;X;X;X;X;X;X",
";X;X;X;X;X;X;X;X;X;X;X;X;X;X;X;X;X;X;X;X;X;X;X;X;X;X;X;X;X;X;X;X",
";X;X;X;X;X;X;X;X;X;X;X;X;X;X;X;X;X;X;X;X;X;X;X;X;X;X;X;X;X;X;X;X",
";X;X;X;X;X;X;X;X;X;X;X;X;X;X;X;X;X;X;X;X;X;X;X;X;X;X;X;X;X;X;X;X",
";X;X;X;X;X;X;X;X;X;X;X;X;X;X;X;X;X;X;X;X;X;X;X;X;X;X;X;X;X;X;X;X",
";X;X;X;X;X;X;X;X;X;X;X;X;X;X;X;X;X;X;X;X;X;X;X;X;X;X;X;X;X;X;X;X",
";X;X;X;X;X;X;X;X;X;X;X;X;X;X;X;X;X;X;X;X;X;X;X;X;X;X;X;X;X;X;X;X"
};
