/* XPM */
static char *geo_modulate[]={
"34 34 785 2",
"Qt c None",
"gP c #000024",
"aK c #000028",
"b6 c #000126",
"#u c #000128",
"bD c #00012a",
"h9 c #000226",
"b7 c #00022a",
"#U c #00022c",
"ai c #00032c",
"aL c #00032e",
"fS c #00042a",
"er c #00042c",
"jV c #00042e",
"eV c #00052c",
"dZ c #00062c",
"c2 c #000630",
"ka c #000634",
"aJ c #000732",
"jh c #000836",
".8 c #000a3c",
"jD c #000b36",
"bC c #000b38",
"hg c #000b3a",
"h8 c #000b3c",
"#t c #000c3a",
"km c #000d3c",
"k# c #000f3a",
"ag c #001142",
"kb c #00174c",
"gO c #001b52",
"hd c #001d44",
"b5 c #001d4c",
"ix c #001e5a",
"kl c #002358",
"j4 c #00292e",
"j5 c #002958",
"kk c #002a5a",
"he c #002c5a",
"ba c #002e62",
"kc c #002e68",
"hc c #002e6c",
"j1 c #00325c",
"j2 c #003770",
"j6 c #00377c",
"kd c #003974",
"cy c #003a66",
"kj c #003a70",
"j3 c #003b64",
"b. c #003b84",
"bz c #003c40",
"ke c #003d6c",
"jZ c #004280",
"jI c #00428c",
"hF c #004294",
"j0 c #00458c",
"hk c #0046d6",
"a9 c #00478a",
"j7 c #004892",
"jJ c #00499c",
"by c #004dac",
"ha c #00509a",
"dY c #005160",
"hG c #0051a4",
"cx c #005451",
"hf c #0054aa",
"gT c #0054de",
"jK c #0056c0",
"ib c #0059de",
"bA c #005a40",
"eq c #005a6a",
"hK c #005ae2",
"du c #005b72",
"eX c #005de8",
"hJ c #005eea",
"aH c #005fa8",
"aI c #005fb8",
"fp c #0060e2",
"fU c #0063ea",
"bx c #0065ee",
"b4 c #00668c",
"b# c #0066ae",
"iA c #0067da",
"et c #0067f4",
"b9 c #006cf2",
"gR c #006cfe",
"af c #006d96",
"b0 c #006df4",
"gm c #0071f0",
"cu c #007462",
"d1 c #0075f8",
"b1 c #007664",
"#R c #0077a8",
"ct c #0078f2",
"gQ c #0079be",
"be c #008cee",
"aO c #0090da",
"#p c #00a681",
"ew c #00ff89",
"ah c #010026",
".9 c #010028",
"dt c #0143fe",
"dU c #01f6f9",
"dp c #01f6fb",
"fq c #01fe2f",
"fX c #01fe3b",
"fY c #01fe42",
"e1 c #01fe73",
"dl c #01fe87",
"eY c #01ff41",
"fr c #01ff42",
"iy c #02001a",
"ko c #020022",
"bb c #020024",
"#T c #020028",
"hH c #02307c",
"cw c #025000",
"c1 c #02577e",
"iz c #0270d6",
"aG c #027845",
"c9 c #02f9ef",
"fg c #02fb45",
"dz c #02fcb7",
"dQ c #02fd84",
"dx c #02fd88",
"i. c #03001e",
".O c #030022",
"kn c #030024",
".x c #030026",
"#S c #034685",
"dX c #034bf6",
"jY c #034e8d",
"dw c #0374ff",
"hj c #037aff",
"dn c #03fabd",
"eQ c #03facc",
"dT c #03faeb",
"gn c #03fc18",
"ey c #03fd85",
"c6 c #03fdbd",
"ex c #03fe90",
"jU c #041a46",
"ji c #042766",
"gk c #044578",
"iB c #046df0",
"fW c #04f32b",
"d2 c #04f56c",
"dA c #04f6c5",
"eh c #04f747",
"fj c #04f7ad",
"eP c #04f886",
"e0 c #04f970",
"jW c #052965",
".N c #052e73",
"iW c #053577",
"bG c #0586ff",
"a8 c #059f92",
"go c #05ec1b",
"c8 c #05f4e5",
"gK c #05f552",
"ei c #05f569",
"gg c #05f66e",
"gh c #05f688",
"ek c #05f6ad",
"ev c #05f76e",
"dk c #05f872",
"jC c #062954",
"ep c #0663ee",
"ds c #0675ea",
"dr c #06b0ea",
"fl c #06e6ec",
"en c #06e8f1",
"fL c #06ec36",
"gf c #06f04a",
"eR c #06f0e6",
"dB c #06f2c5",
"eZ c #06f358",
"gL c #06f36a",
"d5 c #06f3a6",
"eu c #06f453",
"fs c #06f454",
"dC c #06f4bd",
"do c #06f4de",
"fi c #06f587",
"fO c #06f5ac",
"b3 c #074d0a",
"bB c #076089",
".3 c #0782ff",
"eS c #07caf0",
"fu c #07e837",
"eN c #07f049",
"ft c #07f057",
"fM c #07f068",
"d4 c #07f1a5",
"dO c #07f24a",
"eO c #07f269",
"dP c #07f367",
"ej c #07f388",
"gM c #07f38c",
"dR c #07f3a3",
"dS c #07f3c8",
"fN c #07f48f",
"d. c #07f4de",
"jE c #083778",
"kh c #085088",
"eT c #087adc",
"fm c #089ee4",
"dq c #08d7f0",
"fK c #08dd1c",
"gp c #08df23",
"gq c #08e028",
"gJ c #08e32d",
"ge c #08e516",
"dj c #08e948",
"fh c #08ee58",
"d3 c #08ef94",
"c5 c #08ef9a",
"dm c #08f093",
"el c #08f3c9",
"k. c #092d5d",
"eU c #096275",
"dW c #0981de",
"eo c #099fdd",
"dV c #09ccef",
"e2 c #09ee57",
"ez c #09ee60",
"dy c #09ee97",
"d6 c #09ef90",
"d# c #09ef94",
"gi c #09efac",
"c7 c #09efcd",
"em c #09f0de",
"fk c #09f1d0",
"ki c #0a4d86",
"b2 c #0a6a2c",
"ae c #0a7e51",
"ff c #0ae224",
"gN c #0ae6cd",
"fP c #0aedce",
"iV c #0b356d",
"jg c #0b3769",
"hC c #0b55b1",
"#q c #0b8976",
"cz c #0b89ff",
"fQ c #0bb9df",
"fV c #0bcc22",
"gj c #0bd0d9",
"eM c #0bdc24",
"eg c #0bdc27",
"d7 c #0be65c",
"dD c #0be980",
"jX c #0c4484",
"kf c #0c5186",
"jk c #0c5bac",
"e3 c #0cd62b",
"dN c #0ce023",
"fR c #0d576d",
"cr c #0d85ff",
"aF c #0db10d",
"kg c #0e558c",
"jj c #0e57aa",
"fZ c #0ee51e",
"fJ c #0ef309",
".7 c #0f5285",
"bY c #0f80ff",
"bv c #0f96ff",
"bH c #0fa2ff",
"#P c #0fbf41",
"j8 c #10548e",
"#Q c #109461",
"fe c #10f50b",
"#s c #11699b",
"hb c #116abd",
"cv c #117532",
"a6 c #11b9f7",
"h# c #1255c4",
"iw c #125aa4",
".5 c #128afa",
"g7 c #12a816",
"di c #12e11a",
"jT c #133e63",
"jB c #135185",
"fn c #13616d",
"c4 c #1382ff",
"cs c #1388ff",
"ia c #138dff",
"eA c #13ce29",
"eL c #13f40d",
"iU c #155393",
"h7 c #15549b",
"jF c #155999",
"#r c #1585a1",
"i# c #1585af",
".J c #1594ff",
"#o c #15efc8",
"iX c #166fc2",
"gr c #16e50d",
"gI c #16f20b",
"gd c #16f607",
"iv c #1756a3",
"jG c #175fa9",
"iY c #1767b9",
"jL c #186a9e",
"ef c #18f20f",
".w c #191137",
"hE c #195fad",
"jN c #196679",
".4 c #198bff",
".I c #19a0ff",
"h6 c #1a5aa2",
"hI c #1a779e",
"jf c #1b558b",
"cq c #1b9cff",
"bd c #1ba1ff",
"j9 c #1c486e",
"ab c #1cd8cd",
"jO c #1d57b7",
"iT c #1d5ea7",
"jH c #1d67b3",
"bZ c #1d8dff",
"b8 c #1d9dff",
"d0 c #1da7ff",
"iZ c #1e5cba",
"gS c #1e6bd4",
"ad c #1ea62b",
"hh c #1f4065",
"jM c #1f6b46",
"hL c #1f98ff",
"es c #1fa3ff",
"hi c #1fb2ff",
"#O c #1feb5d",
"jS c #205790",
"aD c #20d9e0",
"fv c #20e00d",
"gU c #2194ff",
"eW c #219eff",
"c. c #21aeff",
"g6 c #21d94c",
"ac c #21dd3c",
"da c #22d82d",
"a7 c #22e4d4",
"jl c #23609f",
"ak c #23c3ff",
"je c #245aa4",
"jA c #2461a0",
"a5 c #25a5ff",
"dE c #25dd26",
"dM c #25f00d",
"h3 c #2665ac",
"h5 c #2666ae",
"h2 c #2763ad",
".v c #2778c3",
"bw c #279cff",
"fo c #27abff",
"az c #27c9ff",
"hB c #296ab3",
"a4 c #29a2ff",
".G c #29b1ff",
".K c #29b6ff",
"aE c #29f34b",
"gc c #2af605",
".H c #2bb2ff",
"#j c #2bcfff",
"hD c #2c68ac",
".L c #2caafa",
"iu c #2d6bb1",
"dv c #2dadff",
"d8 c #2dd819",
"e4 c #2de60c",
"aP c #2de94c",
"gH c #2df804",
"h0 c #2e5fa2",
"jd c #2e63a4",
"h. c #2e93e0",
"iC c #2f90fd",
"fI c #2ff407",
"i3 c #307be2",
"iS c #316bad",
"h1 c #3261a2",
".6 c #3293bc",
".M c #3293ee",
"jz c #3362a1",
"jP c #3363a5",
"hn c #339dff",
"fd c #34f405",
"jR c #3563a1",
"ie c #359eff",
"hl c #35a7ff",
"aA c #35b0ff",
"cp c #35b5ff",
"gl c #35c8ff",
"g8 c #35cb4e",
"jc c #3668a6",
"h4 c #366fb0",
"al c #36ec76",
"jy c #3761a1",
"hN c #379fff",
"eK c #37f307",
"jp c #38629a",
"#M c #38dfee",
"dh c #38eb0c",
"#N c #38f689",
"jo c #396299",
"bX c #39bbff",
"hO c #3ba0ff",
"gW c #3baaff",
"co c #3baeff",
".o c #3bb7ff",
"jx c #3c639e",
"i2 c #3c85e0",
"jQ c #3d639b",
"hZ c #3da188",
"bu c #3db4ff",
"jw c #3f64a7",
"iR c #3f74af",
"ii c #3f9eff",
"iE c #3fa7ff",
"fT c #3fbdff",
"jv c #405da8",
"gG c #40fe02",
"jm c #4169a5",
"jb c #4171b3",
"it c #4175b5",
"if c #41a8ff",
"#n c #41d4ff",
"g9 c #41ef5a",
"bf c #42ee5b",
"ee c #42f207",
"iD c #43a4ff",
"id c #43a9ff",
".q c #43baff",
"bV c #43c3ff",
".2 c #45aeff",
"hA c #45af83",
"bF c #45bbff",
"aN c #45bfff",
"ir c #4676ac",
"i4 c #468ade",
"eB c #46e70c",
"bW c #47b3ff",
"aC c #47bcff",
"i0 c #4886d2",
"iq c #4970a5",
"is c #4978b9",
"hR c #49a3ff",
"jq c #4a64a0",
"j# c #4a6dac",
"hM c #4bacff",
"ip c #4c819c",
"ja c #4d74a5",
"iQ c #4d7ab7",
"aB c #4dc2ff",
"gb c #4df307",
"#Y c #4ee6f0",
"ic c #4faeff",
".p c #4fbfff",
"#H c #4ff7d2",
"cn c #50eeec",
"j. c #517e89",
"i1 c #5190e5",
"a3 c #51bbff",
".s c #51bfff",
".r c #51c8ff",
"fH c #51f108",
"c3 c #53ccff",
"ay c #54f4ae",
"iP c #557db3",
"hq c #58aefe",
".t c #58c2fe",
"f0 c #58e20e",
"jr c #5979b5",
"iO c #5981a9",
".n c #59c7e3",
"iN c #5a859e",
"gZ c #5ab3fe",
"#m c #5ac2fe",
"#y c #5ad6fe",
"i8 c #5b944e",
"iF c #5cb4fe",
"hm c #5cb8fe",
".1 c #5cbffe",
"a2 c #5cc7fe",
"aa c #5ccefe",
"dL c #5dee0a",
"jn c #5e7baa",
"ju c #5e8466",
"#L c #5ebcfe",
"#i c #5ec0fe",
"#G c #5ffdd2",
"i9 c #609646",
"fc c #60f307",
".j c #628c89",
"ho c #64bbfe",
"gV c #64c2fe",
"c0 c #6585e4",
"cU c #65dec5",
"bU c #65eef7",
"i5 c #6692ea",
".0 c #66bcfe",
"bt c #66c7fe",
"cR c #66e7a9",
"cZ c #679ce0",
"cG c #67d9ac",
"cW c #67dee4",
"cE c #67e1e6",
"cD c #67e5e5",
"cC c #67e6dd",
"cA c #67e7bf",
"cV c #67e7e0",
"cl c #67ecf7",
"#I c #67f3b6",
"io c #68ae72",
"br c #68c4fe",
"cT c #68e3b8",
"cF c #68e6e0",
"cY c #69b1d7",
"cX c #69cde2",
"cP c #69d87a",
"cQ c #69df95",
"cS c #69dfad",
"a# c #6ac1fe",
".i c #6ac8c5",
"eJ c #6aed0a",
"hz c #6aee6d",
"cB c #6bdec7",
"hY c #6be15f",
"a. c #6be1f7",
"gF c #6bf308",
"bs c #6cc5fe",
"ih c #6eb9fe",
"#l c #6edefe",
".F c #70cafe",
".u c #70dbfe",
"#k c #70fee1",
"iM c #71ac6e",
"db c #71e90c",
"bT c #74ccfe",
"hr c #74cffe",
"js c #769a94",
"cH c #76d17e",
"ga c #76f407",
"a1 c #76f8f6",
"bI c #76fe89",
"cO c #77df6b",
"#W c #77ed98",
"hx c #78e466",
"#z c #78f1f6",
"#Z c #79fdbd",
"ck c #7ad7fe",
"fw c #7ae60e",
"jt c #7ba15d",
"#D c #7bf993",
"dg c #7ceb0a",
"dF c #7dea0b",
".Z c #7ec0fe",
"hP c #7eccfe",
"e5 c #7fe80e",
".h c #7ff1ed",
"#K c #7ff1ef",
"hy c #81f167",
"i7 c #82bd5f",
"gs c #82e210",
"fG c #82f407",
"ed c #83f00a",
"i6 c #84c8c6",
"ig c #85c7ff",
".E c #85d8f3",
"hS c #86dae4",
".D c #88ddea",
"hQ c #89c6ff",
"gX c #89ceff",
".d c #89d4ff",
".B c #89e1e9",
"c# c #89f1d5",
"#e c #8aecb1",
"iH c #8bbfff",
"iI c #8bd7c6",
"#V c #8ffde2",
".g c #8ffffb",
"#F c #91f9c2",
"d9 c #92eb0b",
".c c #93dfff",
"hX c #93f670",
"#C c #93fbb5",
"iL c #94d866",
"fb c #94f109",
".e c #95e2ff",
"bS c #95e5ff",
"bq c #95f7ea",
"iG c #97d4ff",
"cN c #97db67",
".f c #97efff",
".C c #98dfe6",
"#X c #98fac4",
"hw c #99f470",
"#7 c #9afa84",
"cI c #9cdc6c",
"gE c #9cef0a",
"#6 c #9dfc8e",
"#h c #9edbfe",
"g5 c #9efe78",
"#a c #9fe0f1",
"hW c #9ff86e",
"gY c #a0d5fe",
"eC c #a2e50f",
"#d c #a2f2d7",
"bE c #a2f7fe",
"dK c #a3ed0b",
"#E c #a3fd97",
"#b c #a4e8fe",
".S c #a4e9fa",
"#9 c #a4fc9a",
"#A c #a4fedb",
"g# c #a5f10a",
"ij c #a7ebdd",
".m c #a8e2d2",
"eI c #a8eb0d",
"in c #a9f37d",
"hp c #aaddfe",
"g4 c #aafe66",
"#0 c #aafeb4",
"bc c #abf6ff",
"#x c #aceebc",
"a0 c #acfac4",
"f1 c #adcc12",
"#B c #adfbe9",
"#g c #aff1e4",
"aM c #aff8ff",
"aj c #b1f5ff",
"am c #b2f8e0",
"iK c #b3e1a3",
".z c #b3f3e5",
"g0 c #b3f7e6",
"an c #b5f0ff",
"cj c #b5fcff",
"fx c #b6cd13",
"hV c #b6f799",
"#c c #b7ebff",
"fF c #b7ee0b",
"#1 c #b7ffc8",
".l c #b8eae3",
"#f c #b8f3b3",
"#8 c #b9ff93",
".A c #baecd7",
"## c #baecfe",
".Y c #bcd9fe",
"df c #bcef0b",
"cM c #bde06a",
"il c #bdfb9b",
"g3 c #bef9a7",
"hv c #befd9b",
"aw c #bfff81",
"#w c #c1f1dc",
".R c #c1f1e5",
"cm c #c1fe80",
"im c #c3ff9b",
"cb c #c4feea",
"av c #c4ff8f",
"e6 c #c5df0e",
"aQ c #c7fde4",
"cJ c #c8e26a",
"ao c #c8faf8",
".W c #c9ecf3",
"#J c #cafea0",
"gD c #cbef0c",
"ec c #cbf10b",
"dc c #cbf407",
"fa c #ccf00b",
".b c #ccfefe",
"ax c #ccff8b",
"gt c #cdb610",
".k c #cef2ed",
".U c #d0e9f4",
".V c #d0ebf4",
"#. c #d1f3d7",
"eD c #d3d50a",
".Q c #d3f7ef",
"cL c #d5e26a",
"ch c #d7f4ff",
"dG c #d8f308",
"#3 c #d8febe",
"f2 c #d9a00e",
"fy c #d9b50e",
"aY c #d9fec0",
"gC c #dacf0c",
"fE c #dad90c",
"hu c #dbf9d1",
"#2 c #dbffc5",
"e. c #dceb0a",
"bR c #dcfee0",
".y c #ddf9ef",
"aZ c #ddfeaa",
"cK c #dee768",
"g. c #def109",
"dJ c #def408",
"ca c #deffaf",
"f# c #dfcc0d",
"eH c #dfe50b",
"f9 c #e0bd0c",
"aR c #e0f7fe",
"aX c #e0fecc",
"cg c #e1f5ff",
"hU c #e1fad8",
"e7 c #e2c20c",
"eb c #e2db0d",
"hs c #e2ffcf",
"dH c #e3da0c",
"bo c #e3ffd5",
"ci c #e3fff8",
"dI c #e4dc0b",
"iJ c #e4fdaf",
"hT c #e5ffc7",
".X c #e6eef2",
"e# c #e8d008",
"au c #e8fec0",
"f3 c #e9790b",
".T c #eaf2f6",
"at c #eafeca",
"bp c #eaffb1",
"gu c #eb7509",
"bQ c #ebfdeb",
"#5 c #ebfebc",
"bg c #ebffe9",
"ap c #ecfaf6",
"bP c #edf9ff",
"bK c #edfbed",
"aW c #edffd9",
"gv c #ef4007",
"gA c #ef6a09",
"f8 c #ef8c0a",
"fz c #ef9c08",
"f. c #efac09",
"aq c #effde9",
"gw c #f02c06",
"gy c #f02f06",
"f4 c #f05f07",
"e9 c #f0a109",
"gB c #f0aa08",
"e8 c #f0ab08",
"fD c #f0b50a",
"de c #f0fc01",
"f7 c #f16108",
"eG c #f1d006",
".a c #f1fafb",
"#4 c #f1ffc7",
"g1 c #f1ffd7",
"gx c #f22604",
"fB c #f27406",
"g2 c #f2fcf4",
"as c #f2ffcf",
"fC c #f38606",
"#v c #f3feff",
"dd c #f4fb00",
"cc c #f4ffe5",
"bn c #f4ffe7",
"f5 c #f55006",
"ea c #f7dc05",
"ht c #f7ffe5",
"gz c #f84004",
"cf c #f8fbfc",
"bi c #f8fcfa",
"bj c #f8fcfb",
"bM c #f8fcfc",
"bJ c #f8ffd7",
"bm c #f8ffed",
"fA c #f98503",
"bL c #f9fbf7",
"aS c #f9fbfd",
"bl c #f9fcf6",
"ce c #f9fdfb",
"aV c #f9fef0",
"bN c #fafcf8",
"bk c #fafcfb",
"ar c #faffe1",
"aU c #fcfcfc",
"f6 c #fd5303",
"eE c #fdd202",
"bh c #fdfafe",
"cd c #fdfefc",
"eF c #fec801",
"aT c #fefbff",
"bO c #fefcfc",
".P c #fefefe",
"ik c #feffe9",
".# c #ffffff",
"QtQtQtQtQtQtQtQtQtQtQt.#.a.b.c.d.e.f.g.h.i.jQtQtQtQtQtQtQtQtQtQtQtQt",
"QtQtQtQtQtQtQtQtQt.#.#.k.l.m.n.o.p.q.r.s.t.u.v.w.xQtQtQtQtQtQtQtQtQt",
"QtQtQtQtQtQtQtQt.#.y.z.A.B.C.D.E.F.G.H.I.J.K.L.M.N.OQtQtQtQtQtQtQtQt",
"QtQtQtQtQtQt.#.P.Q.R.S.T.U.V.W.X.Y.Z.0.1.2.3.4.5.6.7.8.9QtQtQtQtQtQt",
"QtQtQtQtQt.P#.###a#b#c#d#e#f#g#h#i#j#k#l#m#n#o#p#q#r#s#t#uQtQtQtQtQt",
"QtQtQtQt#v#w#x#y#z#A#B#C#D#E#F#G#H#I#J#K#L#M#N#O#P#Q#R#S#T#UQtQtQtQt",
"QtQtQtQt#V#W#X#Y#Z#0#1#2#3#4#5#6#7#8#9a.a#aa.HabacadaeafagahaiQtQtQt",
"QtQtQtajakalamanaoapaqarasatauavawaxayazaAaBaCaDaEaFaGaHaIaJaKaLQtQt",
"QtQtaMaNaOaPaQaRaSaTaUaVaWaXaYaZa0a1a2a3aAa4a5a6a7a8a9b.b#babbaiQtQt",
"QtQtbcbdbebfbgbhbibjbkblbmbnbobpbqa2brbsbtbubv.JbwbxbybzbAbBbCbDQtQt",
"QtbEbFbGbHbIbJbKbLbMbibNbObPbQbRbSbTbUbVbWbX.IbYbZb0b1b2b3b4b5b6b7Qt",
"QtbEb8b9c.c#cacbcccdcecfcgchcicjckclcmcncocpcqcrcsctcucvcwcxcyb7bDb7",
"Qt#lczcAcBcCcDcEcFcGcHcIcJcKcLcMcNcOcPcQcRcScTcUcVcWcXcYcZc0c1c2bDb7",
"Qtc3c4c5c6c7c8c9d.d#dadbdcdddedfdgdhdidjdkdldmdndodpdqdrdsdtduc2bDb7",
"QtdvdwdxdydzdAdBdCdDdEdFdGdHdIdJdKdLdMdNdOdPdQdRdSdTdUdVdWdXdYdZbDb7",
"Qtd0d1d2dld3d4d5d6d7d8d9e.e#eaebecedeeefegeheiejekelemeneoepeqerbDb7",
"QteseteuevewexeyezeAeBeCeDeEeFeGeHeIeJeKeLeMeNeOePd4eQeReSeTeUeVbDb7",
"QteWeXeYeZe0e1e2e3e4e5e6e7e8e9f.f#fafbfcfdfefffgfhfifjfkflfmfnerbDb7",
"QtfofpfqfrfsftfufvfwfxfyfzfAfBfCfDfEfFfGfHfIfJfKfLfMfNfOfPfQfRfSbDb7",
"QtfTfUfVfWfXfYfZf0f1f2f3f4f5f6f7f8f9g.g#gagbgcgdgegfggghgigjgkaibDb7",
"QtglgmgngogpgqgrgsgtgugvgwgxgygzgAgBgCgDgEgFgGgHgIgJgKgLgMgNgOgPb7b7",
"QtgQczgRgSgTgUgVgWgXgYgZg0g1g2g3g4g5g6g7g8g9h.h#hahbhchdhehfhgaKb7b7",
"QthhhihjhkfUhlhmhnhohphqhrhshthuhvhwhxhyhzhAhBhChahDhEhFhGhH#ubDb7b7",
"QtQthIc.hJhKhLhMhNhOhPhQhRhShThUhVhWhXhYhZh0h1h2h3h4h5h6h7h8h9b7aib7",
"QtQti.i#iaib.3icidieifigihiiijikiliminioipiqirisitiuiviwixgPbDb7#UQt",
"QtQtQtiyiziAiBiCiciDiEiFiGiHiIiJiKiLiMiNiOiPiQiRiSiTiUiVb6#ub7aiQtQt",
"QtQtQtbbiWiXiYiZi0i1i2i3i4i5i6i7i8i9j.j#jajbjcjdjejfjgjhh9b7b7#UQtQt",
"QtQtQtQt#ujijjjkjljmjnjojpjqjrjsjtjujvjwjxjyjzjAjBjCeVh9bDb7aiQtQtQt",
"QtQtQtQtQtgPjDjEjFjGjHjIjIjJjKjLjMjNjOjPjQjRjSjTjUahaKb7b7b7#UQtQtQt",
"QtQtQtQtQtaib6jVjWjXjYjZj0j1j2j3j4j5j6j7j8j9k.k#bD#ub7b7b7aiQtQtQtQt",
"QtQtQtQtQtQtQt#ubDkakbkckdkekfkgkhkikjkkklkmb7h9bDb7b7ai#UQtQtQtQtQt",
"QtQtQtQtQtQtQtQtb7aKb6gPbbkn.O.O.OkobbgPb6aKbDb7b7b7aiQtQtQtQtQtQtQt",
"QtQtQtQtQtQtQtQtQt#Uaib7b7b7b7b7b7b7b7b7b7b7b7b7b7b7#UQtQtQtQtQtQtQt",
"QtQtQtQtQtQtQtQtQtQtQtb7b7b7b7b7b7b7b7b7b7b7b7b7b7QtQtQtQtQtQtQtQtQt"};
