/* XPM */
static char *wave_waterfall[]={
"32 32 51 1",
". c None",
"B c #000000",
"# c #020204",
"T c #0a060c",
"S c #1e1a14",
"L c #262624",
"M c #3a3a3c",
"U c #3e3e3c",
"V c #424244",
"R c #4a4a44",
"Q c #4a4a4c",
"N c #4e4e4c",
"O c #626264",
"y c #767674",
"G c #808080",
"A c #828284",
"W c #868684",
"P c #8e8e8c",
"F c #a0a0a0",
"K c #a6a6a4",
"I c #aaaaa4",
"H c #aaaaac",
"b c #aeaeac",
"z c #b2b2ac",
"x c #b2b2b4",
"w c #b6b6b4",
"v c #babab4",
"u c #bababc",
"t c #bebebc",
"s c #c2c2bc",
"r c #c2c2c4",
"E c #c3c3c3",
"q c #c6c6c4",
"p c #cacac4",
"o c #cacacc",
"n c #cececc",
"m c #d2d2cc",
"l c #d2d2d4",
"k c #d6d6d4",
"j c #dadad4",
"i c #dadadc",
"D c #dcdcdc",
"h c #dededc",
"g c #e2e2dc",
"J c #e2e2e4",
"f c #e6e6e4",
"e c #eaeae4",
"d c #eaeaec",
"c c #eeeeec",
"a c #fefefc",
"C c #ffffff",
".##############################.",
"#aaaaaaaaaaaaaaaaaaaaaaaaaaaaab#",
"#acccdeffghhijklmnnopqrsttuvwxy#",
"#accdeffghhjjkkmnnppqqsttvvwxzy#",
"#accAAAAAAAAAAAAAAAAAAAAAAAfxby#",
"#aceA##########BB##########azby#",
"#adeABCCCCDDDDEFFFGG#######abby#",
"#affABB##CCCCDEEBFFGG######aHIy#",
"#afJA#######CDDBEBF#GG#####aHIy#",
"#affA#######CDDBEBFF#G#####aIKy#",
"#aghA##BB####CDBEEBF#GG####aKKy#",
"#aJgA##BBB###CDD#EBF##G####aKKy#",
"#ahiA##B#B##BCCD#EBF##G####aKKy#",
"#ahhA##B#BBBBCCD#EBFF#G####aKKy#",
"#aijA#BB#BB#BCCD#EB#F#GG###aKKy#",
"#ajkA#B##BBBBBCD#EB#F##G###aKKy#",
"#ajkA#B###BBBBCD#EB#F##G###aKKy#",
"#aklABB####BBCCDDEEBFF#G###aKKy#",
"#akmA######CCCCDDEEEFFFGGBBaKKy#",
"#amlA#####CCCCCDDEEFFFFGGGBaKKy#",
"#annA######BB##############aKKy#",
"#amnbaaaaaaaaaaaaaaaaaaaaaaaKKy#",
"#anpqqrsttvwwxzbbbbbbbbbbbbbKKy#",
"#aoopqqttvuvwxzbHIbbbbbbbbbbKKy#",
"#byyyyyyyyyyyyyyyyyyyyyyyyyyyyy#",
".##############################.",
"........#LMNOPraaQRRQST.........",
"........#LMNOPrcactPOM#.........",
".....###UVVVVVVUUUVVVVV###......",
"....#jhhhhhhhhhhhhhhhhhhhl#.....",
"....#WWWAAAWAAWWWAWAAAAAAW#.....",
"....#######################....."};
