/* XPM */
static char *wave_monitor[]={
"32 32 48 1",
". c None",
"H c #00ff00",
"# c #020204",
"Q c #0a060c",
"P c #1e1a14",
"I c #262624",
"J c #3a3a3c",
"R c #3e3e3c",
"S c #424244",
"O c #4a4a44",
"N c #4a4a4c",
"K c #4e4e4c",
"L c #626264",
"y c #767674",
"A c #828284",
"T c #868684",
"M c #8e8e8c",
"G c #a6a6a4",
"E c #aaaaa4",
"D c #aaaaac",
"b c #aeaeac",
"z c #b2b2ac",
"x c #b2b2b4",
"w c #b6b6b4",
"v c #babab4",
"u c #bababc",
"t c #bebebc",
"s c #c2c2bc",
"r c #c2c2c4",
"q c #c6c6c4",
"p c #cacac4",
"o c #cacacc",
"n c #cececc",
"m c #d2d2cc",
"l c #d2d2d4",
"k c #d6d6d4",
"j c #dadad4",
"i c #dadadc",
"h c #dededc",
"g c #e2e2dc",
"F c #e2e2e4",
"f c #e6e6e4",
"e c #eaeae4",
"d c #eaeaec",
"c c #eeeeec",
"a c #fefefc",
"C c #ff0000",
"B c #ffff00",
".##############################.",
"#aaaaaaaaaaaaaaaaaaaaaaaaaaaaab#",
"#acccdeffghhijklmnnopqrsttuvwxy#",
"#accdeffghhjjkkmnnppqqsttvvwxzy#",
"#accAAAAAAAAAAAAAAAAAAAAAAAfxby#",
"#aceA##########BB##########azby#",
"#adeA##########BBB#########abby#",
"#affA#########CB#C#########aDEy#",
"#afFA##########CCB#########aDEy#",
"#affA#########BCCB#########aEGy#",
"#aghA##BB#####C##CB########aGGy#",
"#aFgA##BBB####B###B########aGGy#",
"#ahiA##B#B####B###B########aGGy#",
"#ahhA##B#BBH#BH###B########aGGy#",
"#aijA#BB##B#HH####B########aGGy#",
"#ajkA#B###B#HH####B########aGGy#",
"#ajkA#B###BHB#H###B########aGGy#",
"#aklABB####BB#####BB#######aGGy#",
"#akmA#######B######BBBBBBBBaGGy#",
"#amlA####################BBaGGy#",
"#annA######################aGGy#",
"#amnbaaaaaaaaaaaaaaaaaaaaaaaGGy#",
"#anpqqrsttvwwxzbbbbbbbbbbbbbGGy#",
"#aoopqqttvuvwxzbDEbbbbbbbbbbGGy#",
"#byyyyyyyyyyyyyyyyyyyyyyyyyyyyy#",
".##############################.",
"........#IJKLMraaNOONPQ.........",
"........#IJKLMrcactMLJ#.........",
".....###RSSSSSSRRRSSSSS###......",
"....#jhhhhhhhhhhhhhhhhhhhl#.....",
"....#TTTAAATAATTTATAAAAAAT#.....",
"....#######################....."};
