/* XPM */
static char *trackLine[]={
"32 32 8 1",
"c c #0000ff",
"b c #00ff00",
"e c #00ffff",
"a c #808080",
"d c #ff0000",
"# c #ff00ff",
"f c #ffff00",
". c #ffffff",
"................................",
"............#aaaaaaaa...........",
"..aa.......###aaaaaaaa..........",
".aabb.....###.......cc..........",
".aabbb...###.......ccc.....aa...",
".aa.bbb.###.......ccc.....ddaa..",
".aa..bbb##.......ccc.....dddaa..",
".aa...bbb.......ccc.....ddd.aa..",
".aa..##bbb.....ccc.....ddd..aa..",
".aa.###.bbb...ccc.....ddd...aa..",
".aa###...bbb.ccc.....ddd....aa..",
".aa##.....bbbcc.....ddd.....aa..",
"...........bbb.....ddd......aa..",
"..........ccbbb...ddd......eea..",
".........ccc.bbb.ddd......eee...",
"........ccc...bbddd......eee....",
".......ccc.....ddd......eee.....",
"......ccc.....dddbb....eee......",
".....ccc.....ddd.bbb..eee.......",
"....ccc.....ddd...bbbeee.....ff.",
"...ccc.....ddd.....bbbe......ff.",
"..ccc.....ddd......ebbb.....fff.",
"..cc.....ddd......eeebbb...fff..",
".aa.....ddd......eee..bbb.fff...",
".aa....ddd......eee....bbbff....",
".aa...ddd......eee......bbb.....",
".aa..ddd......eee......ffbbb....",
".aa.ddd......eee......fff.bbb...",
".aaadd......aee......fff...bb...",
"..aad.......aaaaaaaaaff.........",
".............aaaaaaaaa..........",
"................................"};
