/* XPM */
static char *add_feature_cursor[]={
"32 32 4 1",
". c None",
"a c #000000",
"b c #303030",
"# c #ffffff",
"...............#................",
"..............#a#...............",
"..............#a#...............",
"..............#a#...............",
"..............#a#...............",
"..............#a#...............",
"..............#a#...............",
"..............#a#...............",
"..............#a#...............",
"..............#a#...............",
"..............#a#...............",
"..............#b#...............",
".............#aaa#..............",
"............#a#a#a#.............",
".###########a#.a.#a############.",
"#aaaaaaaaaaaaaaaaaaaaaaaaaaaaaa#",
".###########a#.a.#a############.",
"............#a#a#a#.............",
".............#aaa#..............",
"..............#a#...............",
"..............#a#...............",
"..............#a#...............",
"..............#a#...............",
"..............#a#...............",
"..............#a#...............",
"..............#a#...............",
"..............#a#...............",
"..............#a#...............",
"..............#a#...............",
"..............#a#...............",
"..............#a#...............",
"...............#................"};
