/* XPM */
static char *brighten[]={
"32 32 144 2",
"Qt c None",
".g c #ffffff",
".q c #ffffff",
"#A c #000000",
"#K c #010101",
".H c #020202",
"ai c #0e1212",
"an c #121212",
"af c #161616",
"#2 c #22221e",
".M c #303030",
"#7 c #352929",
"am c #362a2a",
"ad c #423a36",
"#1 c #453f3e",
"aj c #463e3a",
"ac c #4d4642",
".e c #575757",
".f c #585858",
"#U c #5e562a",
"#8 c #5e5652",
"ah c #5f5753",
"#B c #606060",
"#V c #625a56",
".d c #626262",
"#L c #635b57",
".c c #636363",
".p c #646464",
"ak c #66564e",
".0 c #676767",
"#0 c #68645e",
"ab c #68655e",
"#J c #6b6b6b",
".b c #6c6c6c",
"al c #6e625a",
".W c #727272",
"#W c #75716a",
"#9 c #76726b",
".a c #787878",
"#C c #7d7d7d",
"ag c #7e7b73",
"#G c #7e7e7e",
"aa c #7f7c74",
"#Z c #807c74",
".# c #808080",
"#P c #827e76",
"a. c #858179",
"#v c #858585",
"#w c #868686",
"#M c #87817e",
"#F c #8c8c8c",
"a# c #8e8a83",
"#Y c #8e8b83",
"#X c #939089",
"#z c #939393",
"#n c #949494",
"#s c #969696",
"#N c #97968f",
"#p c #979797",
"#k c #989898",
"#f c #9b9b9b",
"#D c #9c9c9c",
".9 c #a1a1a1",
"#b c #a4a4a4",
".R c #a5a5a5",
"#h c #a7a7a7",
".Z c #a8a8a8",
"#i c #a9a9a9",
"#O c #adaaa4",
".5 c #aeaeae",
"#E c #afafaf",
".2 c #b0b0b0",
"#r c #b1b1b1",
".G c #b2b2b2",
"#I c #b4b4b4",
".y c #b5b5b5",
"#. c #b6b6b6",
".r c #b7b7b7",
".h c #b8b8b8",
".3 c #b9b9b9",
".V c #bababa",
".z c #bcbcbc",
".o c #bebebe",
"#m c #bfbfbf",
"#j c #c0c0c0",
"#T c #c1b9ad",
".Y c #c1c1c1",
"#6 c #c2baae",
"#o c #c2c2c2",
"#u c #c3c3c3",
".1 c #c4c4c4",
"#Q c #c5bdb1",
"#q c #c5c5c5",
"#3 c #c6beb2",
".x c #c7c7c7",
".Q c #c9c9c9",
".n c #cacaca",
"#t c #cbcbcb",
".6 c #cccccc",
"#x c #cdcdcd",
".8 c #cecece",
".4 c #cfcfcf",
"#a c #d0d0d0",
".m c #d1d1d1",
".P c #d2d2d2",
".w c #d3d3d3",
"#l c #d4d4d4",
".l c #d6d6d6",
"#e c #d7d7d7",
".F c #d8d8d8",
"#d c #d9d9d9",
".i c #dadada",
"#y c #dbdbdb",
".E c #dcdcdc",
"#5 c #ddd5c9",
".O c #dddddd",
"#4 c #ded6ca",
".k c #dedede",
"ae c #dfd7cb",
"#g c #dfdfdf",
".N c #e0e0e0",
".s c #e1e1e1",
"#R c #e2dace",
".j c #e2e2e2",
".I c #e3e3e3",
".D c #e4e4e4",
".A c #e5e5e5",
"#c c #e6e6e6",
".v c #e7e7e7",
".u c #e9e9e9",
".t c #eaeaea",
"#S c #eaeeea",
"## c #ededed",
".C c #eeeeee",
".7 c #f0f0f0",
".B c #f1f1f1",
".J c #f4f4f4",
".K c #f6f6f6",
".L c #f7f7f7",
".S c #f8f8f8",
".T c #fbfbfb",
".U c #fcfcfc",
".X c #fefefe",
"#H c #ffffff",
"QtQtQtQtQtQtQtQtQtQtQtQtQtQt.#.#.a.b.c.d.e.fQtQtQtQtQtQtQtQtQtQt",
"QtQtQtQtQtQtQtQtQtQtQt.g.#.#.h.i.j.k.l.m.n.o.d.pQtQtQtQtQtQtQtQt",
"QtQtQtQtQtQtQtQtQtQt.q.#.r.s.t.u.v.j.s.k.i.w.x.y.pQtQtQtQtQtQtQt",
"QtQtQtQtQtQtQtQtQtQt.#.z.A.B.B.B.C.t.D.s.k.E.F.m.G.HQtQtQtQtQtQt",
"QtQtQtQtQtQtQtQtQtQt.#.I.J.K.L.K.J.M.t.D.N.k.O.P.Q.R.HQtQtQtQtQt",
"QtQtQtQtQtQtQtQtQt.#.r.J.S.T.U.T.M.M.M.v.j.k.k.i.w.V.HQtQtQtQtQt",
"QtQtQtQtQtQtQtQtQt.W.N.K.T.X.X.M.M.M.M.M.I.k.k.O.w.Y.Z.HQtQtQtQt",
"QtQtQtQtQtQtQtQtQt.0.B.L.U.X.M.M.M.M.M.M.M.k.k.k.P.1.2.HQtQtQtQt",
"QtQtQtQtQtQtQtQt.f.3.B.K.T.X.M.M.M.M.M.M.M.k.k.k.P.4.5.HQtQtQtQt",
"QtQtQtQtQtQtQtQt.f.O.C.J.S.T.U.T.M.M.M.v.j.k.k.E.6.n.2.HQtQtQtQt",
"QtQtQtQtQtQtQtQt.f.w.t.7.J.K.L.K.M.M.M.D.N.k.k.l.8.V.9.HQtQtQtQt",
"QtQtQtQtQtQtQtQt.f#..D.t.C##.B.B.M.M.M.s.k.k.k#a.m.y#b.HQtQtQtQt",
"QtQtQtQtQtQtQtQtQt.f.s.D.v.u#c.u.M.M.M.k.k#d#e.4.Q.5#f.HQtQtQtQt",
"QtQtQtQtQtQtQtQtQt.f.8.O.j.I#g.I.M.M.M.k.i#d.w.x.h#h.HQtQtQtQtQt",
"QtQtQtQtQtQtQtQtQt.f#i.i.k.k.i.k.M.M.M.i.P#a.6#j.2#k.HQtQtQtQtQt",
"QtQtQtQtQtQtQtQtQtQt.f#l.P.k.i.k.M.M.M#a#l.Q#m#b#n.HQtQtQtQtQtQt",
"QtQtQtQtQtQtQtQtQtQt.f.Q.4.l.i.k.M.M.M.n.x#o.Z#p.HQtQtQtQtQtQtQt",
"QtQtQtQtQtQtQtQtQtQt.f#h#l.l#e.k.M.M.M#q.o#r#s.HQtQtQtQtQtQtQtQt",
"QtQtQtQtQtQtQtQtQtQtQt.f#t#a#e.k.M.M.M#u.G#h#v.HQtQtQtQtQtQtQtQt",
"QtQtQtQtQtQtQtQtQtQtQt.f.n.6.P.k.O.m.Q.h.9#w.HQtQtQtQtQtQtQtQtQt",
"QtQtQtQtQtQtQtQtQtQtQt.f#x#a#l.k#y.4#o#r#z.HQtQtQtQtQtQtQtQtQtQt",
"QtQtQtQtQtQtQtQtQtQtQt#A#B#C#D.r.O.6.3#E#F#AQtQtQtQtQtQtQtQtQtQt",
"QtQtQtQtQtQtQtQtQtQtQt.H#G.z#g#H.m#I#n#J#KQtQtQtQtQtQtQtQtQtQtQt",
"QtQtQtQtQtQtQtQtQtQtQt.H#L#M#N#O#H#g.z#C.HQtQtQtQtQtQtQtQtQtQtQt",
"QtQtQtQtQtQtQtQtQtQt.H#P#Q#R#H#H#S#R#T#P#UQtQtQtQtQtQtQtQtQtQtQt",
"QtQtQtQtQtQtQtQtQtQtQt.H#V#W#P#X#Y#Z#0#1#2QtQtQtQtQtQtQtQtQtQtQt",
"QtQtQtQtQtQtQtQtQtQt.H#P#3#4#H#H#S#5#6#7QtQtQtQtQtQtQtQtQtQtQtQt",
"QtQtQtQtQtQtQtQtQtQtQt#A#8#9a.a#aaabacad#AQtQtQtQtQtQtQtQtQtQtQt",
"QtQtQtQtQtQtQtQtQtQt.H#P#Qae#H#H#R#3#ZafQtQtQtQtQtQtQtQtQtQtQtQt",
"QtQtQtQtQtQtQtQtQtQtQt.H#V#P#P#Pagah#AQtQtQtQtQtQtQtQtQtQtQtQtQt",
"QtQtQtQtQtQtQtQtQtQtQtQtaiajakal#A#AamQtQtQtQtQtQtQtQtQtQtQtQtQt",
"QtQtQtQtQtQtQtQtQtQtQtQtQt.H.HanQtQtQtQtQtQtQtQtQtQtQtQtQtQtQtQt"};
