/* XPM */
static char *darken[]={
"32 32 144 2",
"Qt c None",
".g c #ffffff",
".q c #ffffff",
"#B c #000000",
"#K c #010101",
".H c #020202",
"ai c #0e1212",
"an c #121212",
"af c #161616",
"#2 c #22221e",
".M c #303030",
"#7 c #352929",
"am c #362a2a",
"ad c #423a36",
"#1 c #453f3e",
"aj c #463e3a",
"ac c #4d4642",
".e c #575757",
".f c #585858",
"#U c #5e562a",
"#8 c #5e5652",
"ah c #5f5753",
"#C c #606060",
"#V c #625a56",
".d c #626262",
"#L c #635b57",
".c c #636363",
".p c #646464",
"ak c #66564e",
".0 c #676767",
"#0 c #68645e",
"ab c #68655e",
"#J c #6b6b6b",
".b c #6c6c6c",
"al c #6e625a",
".W c #727272",
"#W c #75716a",
"#9 c #76726b",
".a c #787878",
"#D c #7d7d7d",
"ag c #7e7b73",
"#H c #7e7e7e",
"aa c #7f7c74",
"#Z c #807c74",
".# c #808080",
"#P c #827e76",
"a. c #858179",
"#w c #858585",
"#x c #868686",
"#M c #87817e",
"#G c #8c8c8c",
"a# c #8e8a83",
"#Y c #8e8b83",
"#X c #939089",
"#A c #939393",
"#o c #949494",
"#t c #969696",
"#N c #97968f",
"#q c #979797",
"#l c #989898",
"#g c #9b9b9b",
"#E c #9c9c9c",
"#. c #a1a1a1",
"#c c #a4a4a4",
".R c #a5a5a5",
"#i c #a7a7a7",
".Z c #a8a8a8",
"#j c #a9a9a9",
"#O c #adaaa4",
".6 c #aeaeae",
"#F c #afafaf",
".3 c #b0b0b0",
"#s c #b1b1b1",
".G c #b2b2b2",
"#I c #b4b4b4",
".y c #b5b5b5",
"## c #b6b6b6",
".r c #b7b7b7",
".h c #b8b8b8",
".4 c #b9b9b9",
".V c #bababa",
".z c #bcbcbc",
".o c #bebebe",
"#n c #bfbfbf",
"#k c #c0c0c0",
"#T c #c1b9ad",
".Y c #c1c1c1",
"#6 c #c2baae",
"#p c #c2c2c2",
"#v c #c3c3c3",
".2 c #c4c4c4",
"#Q c #c5bdb1",
"#r c #c5c5c5",
"#3 c #c6beb2",
".x c #c7c7c7",
".Q c #c9c9c9",
".n c #cacaca",
"#u c #cbcbcb",
".7 c #cccccc",
"#y c #cdcdcd",
".9 c #cecece",
".5 c #cfcfcf",
"#b c #d0d0d0",
".m c #d1d1d1",
".P c #d2d2d2",
".w c #d3d3d3",
"#m c #d4d4d4",
".l c #d6d6d6",
"#f c #d7d7d7",
".F c #d8d8d8",
"#e c #d9d9d9",
".i c #dadada",
"#z c #dbdbdb",
".E c #dcdcdc",
"#5 c #ddd5c9",
".O c #dddddd",
"#4 c #ded6ca",
".k c #dedede",
"ae c #dfd7cb",
"#h c #dfdfdf",
".N c #e0e0e0",
".s c #e1e1e1",
"#R c #e2dace",
".j c #e2e2e2",
".I c #e3e3e3",
".D c #e4e4e4",
".A c #e5e5e5",
"#d c #e6e6e6",
".v c #e7e7e7",
".u c #e9e9e9",
".t c #eaeaea",
"#S c #eaeeea",
"#a c #ededed",
".C c #eeeeee",
".8 c #f0f0f0",
".B c #f1f1f1",
".J c #f4f4f4",
".K c #f6f6f6",
".L c #f7f7f7",
".S c #f8f8f8",
".T c #fbfbfb",
".U c #fcfcfc",
".X c #fefefe",
".1 c #ffffff",
"QtQtQtQtQtQtQtQtQtQtQtQtQtQt.#.#.a.b.c.d.e.fQtQtQtQtQtQtQtQtQtQt",
"QtQtQtQtQtQtQtQtQtQtQt.g.#.#.h.i.j.k.l.m.n.o.d.pQtQtQtQtQtQtQtQt",
"QtQtQtQtQtQtQtQtQtQt.q.#.r.s.t.u.v.j.s.k.i.w.x.y.pQtQtQtQtQtQtQt",
"QtQtQtQtQtQtQtQtQtQt.#.z.A.B.B.B.C.t.D.s.k.E.F.m.G.HQtQtQtQtQtQt",
"QtQtQtQtQtQtQtQtQtQt.#.I.J.K.L.K.M.M.M.D.N.k.O.P.Q.R.HQtQtQtQtQt",
"QtQtQtQtQtQtQtQtQt.#.r.J.S.T.U.T.M.M.M.v.j.k.k.i.w.V.HQtQtQtQtQt",
"QtQtQtQtQtQtQtQtQt.W.N.K.T.X.X.X.M.M.M.u.I.k.k.O.w.Y.Z.HQtQtQtQt",
"QtQtQtQtQtQtQtQtQt.0.B.L.U.X.1.X.M.M.M.t.I.k.k.k.P.2.3.HQtQtQtQt",
"QtQtQtQtQtQtQtQt.f.4.B.K.T.X.X.X.M.M.M.u.I.k.k.k.P.5.6.HQtQtQtQt",
"QtQtQtQtQtQtQtQt.f.O.C.J.S.T.U.T.M.M.M.v.j.k.k.E.7.n.3.HQtQtQtQt",
"QtQtQtQtQtQtQtQt.f.w.t.8.J.K.L.K.M.M.M.D.N.k.k.l.9.V#..HQtQtQtQt",
"QtQtQtQtQtQtQtQt.f##.D.t.C#a.B.B.M.M.M.s.k.k.k#b.m.y#c.HQtQtQtQt",
"QtQtQtQtQtQtQtQtQt.f.s.D.v.u#d.u.M.M.M.k.k#e#f.5.Q.6#g.HQtQtQtQt",
"QtQtQtQtQtQtQtQtQt.f.9.O.j.I#h.I.M.M.M.k.i#e.w.x.h#i.HQtQtQtQtQt",
"QtQtQtQtQtQtQtQtQt.f#j.i.k.M.M.M.M.M.M.M.M.M.7#k.3#l.HQtQtQtQtQt",
"QtQtQtQtQtQtQtQtQtQt.f#m.P.k.M.M.M.M.M.M.M.Q#n#c#o.HQtQtQtQtQtQt",
"QtQtQtQtQtQtQtQtQtQt.f.Q.5.l.i.M.M.M.M.M.x#p.Z#q.HQtQtQtQtQtQtQt",
"QtQtQtQtQtQtQtQtQtQt.f#i#m.l#f.k.M.M.M#r.o#s#t.HQtQtQtQtQtQtQtQt",
"QtQtQtQtQtQtQtQtQtQtQt.f#u#b#f.k.k.M.5#v.G#i#w.HQtQtQtQtQtQtQtQt",
"QtQtQtQtQtQtQtQtQtQtQt.f.n.7.P.k.O.m.Q.h#.#x.HQtQtQtQtQtQtQtQtQt",
"QtQtQtQtQtQtQtQtQtQtQt.f#y#b#m.k#z.5#p#s#A.HQtQtQtQtQtQtQtQtQtQt",
"QtQtQtQtQtQtQtQtQtQtQt#B#C#D#E.r.O.7.4#F#G#BQtQtQtQtQtQtQtQtQtQt",
"QtQtQtQtQtQtQtQtQtQtQt.H#H.z#h.1.m#I#o#J#KQtQtQtQtQtQtQtQtQtQtQt",
"QtQtQtQtQtQtQtQtQtQtQt.H#L#M#N#O.1#h.z#D.HQtQtQtQtQtQtQtQtQtQtQt",
"QtQtQtQtQtQtQtQtQtQt.H#P#Q#R.1.1#S#R#T#P#UQtQtQtQtQtQtQtQtQtQtQt",
"QtQtQtQtQtQtQtQtQtQtQt.H#V#W#P#X#Y#Z#0#1#2QtQtQtQtQtQtQtQtQtQtQt",
"QtQtQtQtQtQtQtQtQtQt.H#P#3#4.1.1#S#5#6#7QtQtQtQtQtQtQtQtQtQtQtQt",
"QtQtQtQtQtQtQtQtQtQtQt#B#8#9a.a#aaabacad#BQtQtQtQtQtQtQtQtQtQtQt",
"QtQtQtQtQtQtQtQtQtQt.H#P#Qae.1.1#R#3#ZafQtQtQtQtQtQtQtQtQtQtQtQt",
"QtQtQtQtQtQtQtQtQtQtQt.H#V#P#P#Pagah#BQtQtQtQtQtQtQtQtQtQtQtQtQt",
"QtQtQtQtQtQtQtQtQtQtQtQtaiajakal#B#BamQtQtQtQtQtQtQtQtQtQtQtQtQt",
"QtQtQtQtQtQtQtQtQtQtQtQtQt.H.HanQtQtQtQtQtQtQtQtQtQtQtQtQtQtQtQt"};
