/* XPM */
static char *deletefeature[]={
"32 32 5 1",
". c None",
"# c #000000",
"b c #c00000",
"a c #ff0000",
"c c #ffffff",
"...............#................",
"...............#................",
"..a............#................",
"..ba........aaacaaa.............",
"..baa.....aacccacccaa...bbbb....",
"...baaa.aacccccacccccabbbaaa....",
"....baaaaccccccaccccbbbaaaaa....",
"....bbaaaacccaacaacbbaaaaaa.....",
".....bbaaaaaaaacaabbaaaaaa......",
".....abaaaaaaaacabbbaaacca......",
"....acbbbaaaaccabbbaaacccca.....",
"....acccbaaaaacbbaaaaaaccca.....",
"...accccbbaaaaabaaaaaaacccca....",
"...acccaabbaaaaaaaaccaaaccca....",
"...acccaaabbaaaaaaaccaaaccca....",
"###caaacccabbaaaaacaacccaaac###.",
"...acccaaabbaaaaaaaccaaaccca....",
"...acccaabbaaaabbaaacaaaccca....",
"...accccbbaaaaacbbaaaaacccca....",
"....accbbaaacccacbbaaaaccca.....",
"....acbbaaaaaccaccbbaaaccca.....",
".....abaaaaaaaacaaabbaaaca......",
".....bbaaccaaaacaaaabbaaaa......",
"....bbaacccccaacaacccbbaaa......",
"....baaaaccccccaccccccbbaaa.....",
"...bbaa.aacccccacccccaabbaa.....",
"...baa....aacccacccaa...bbaa....",
"...ba.......aaacaaa......bbaa...",
"...............#..........baa...",
"...............#...........bba..",
"...............#................",
"................................"};
