/* XPM */
static char *editfeature[]={
"32 32 208 2",
"Qt c None",
"aZ c #000000",
"aY c #000000",
".# c #000000",
"bc c #000002",
"ar c #0d0703",
"#U c #100801",
"aN c #120502",
"bi c #131516",
"aX c #171413",
"ag c #180a01",
"bk c #1f1a17",
"#7 c #210f01",
"#H c #211001",
"aC c #21100e",
"a7 c #26251f",
"bl c #2b211c",
"bm c #2e2e2f",
"be c #342b1d",
"bh c #382f24",
"aM c #3e3e3e",
"bb c #443e37",
"aW c #443e3a",
"aV c #494536",
"bj c #4a4533",
"bn c #4f4a37",
"aK c #5b4728",
"aU c #5c4c36",
"aL c #5e4836",
"aA c #624f30",
"ba c #644533",
"a6 c #675242",
"bf c #6e4c36",
"az c #734629",
".j c #764e2a",
".a c #764f2b",
".w c #7b5128",
"bg c #7b5848",
"aq c #7d3d15",
"#6 c #7f3903",
"#i c #803a04",
"aT c #804f2f",
".p c #805430",
"b# c #805a42",
"bd c #807255",
"#v c #833b04",
"a5 c #834f31",
"aJ c #83542f",
".D c #835829",
"aB c #843c1c",
".L c #885a2f",
"#G c #8b4004",
"#T c #8d4004",
"af c #944504",
"ay c #94511c",
"a4 c #965534",
"aS c #9c5630",
"aI c #a15e3a",
"ap c #a24d0f",
"#u c #a34e04",
".1 c #a35e28",
"#S c #a44a04",
"#5 c #a54b04",
"ao c #a6550d",
"#F c #a74c04",
"ae c #a84d03",
".9 c #a84f04",
"#h c #aa5004",
"ax c #ab6539",
".T c #af723a",
"a8 c #b48e6c",
"#t c #b75604",
"#E c #b85804",
"#g c #b85904",
"#. c #b8824c",
"ad c #b95600",
"#R c #b95804",
"#4 c #ba5904",
"an c #bb602e",
"al c #c18064",
".0 c #c35f04",
"aw c #c57e5d",
"am c #c76227",
"aR c #c77e5c",
"b. c #c7825b",
"aH c #cc8062",
"a3 c #d18260",
"a9 c #db9770",
"ak c #dc946e",
"#M c #e07733",
"a# c #e07950",
"#j c #e29558",
"aG c #e29a7e",
"#0 c #e37630",
"aa c #e56430",
"#A c #e5884c",
"av c #e69e7c",
"ac c #e76d24",
"#s c #e77604",
"## c #e99d53",
".2 c #e99d54",
"#3 c #ea7a00",
".b c #ea9d53",
".E c #ea9d54",
"a2 c #eaa282",
"#Q c #eb7a04",
".q c #eb9d53",
".k c #eb9d54",
"aQ c #eb9e77",
".8 c #ec7804",
"#f c #ee7a04",
"#z c #efc1ae",
"#l c #f0ad82",
"#1 c #f1780a",
".Z c #f17b04",
"#D c #f17c03",
"a. c #f1ad8c",
"#L c #f2af97",
"ab c #f3712f",
".s c #f6ddae",
".m c #f6eab7",
"#N c #f78403",
"#Z c #f7ac84",
"#k c #f7bb7a",
".y c #f7deb0",
"aP c #f8d1be",
"aj c #f9b99a",
".h c #f9efbc",
"#V c #fab28f",
"#x c #fadcbb",
".S c #fb8104",
".g c #fbb168",
".M c #fbb169",
"#w c #fbb390",
"aD c #fbb490",
"#m c #fcab7f",
".l c #fcb269",
".U c #fcb26a",
".A c #fd7d00",
".P c #fd7e00",
"#d c #fd7f00",
"#o c #fd8000",
".I c #fd8300",
".B c #fd8400",
".v c #fd8401",
".6 c #fd8500",
"#B c #fd8502",
"#p c #fd8503",
".Q c #fd8504",
"#q c #fd8704",
".5 c #fd932e",
"#c c #fd9524",
".W c #fd982e",
".O c #fda141",
".i c #fda732",
".3 c #fdb36a",
".c c #fdb46a",
"#a c #fdb47e",
"a0 c #fdb492",
"#b c #fdbe7a",
".4 c #fdd49c",
".N c #fddcb1",
".H c #fe7f00",
".7 c #fe8604",
".o c #fe8800",
".X c #fe8804",
".x c #feb369",
".r c #feb36a",
".V c #fecd9f",
".F c #fed7b7",
"#K c #fee2cd",
".e c #ff0000",
"#2 c #ff7b16",
".C c #ff8601",
"#C c #ff8604",
".J c #ff8701",
"#O c #ff8703",
".u c #ff8900",
"#e c #ff8b04",
".R c #ff8c01",
"#r c #ff8d03",
"#n c #ff8d17",
".Y c #ff8e04",
"#P c #ff9002",
".K c #ff9101",
".G c #ffa030",
".z c #ffa036",
".t c #ffa13a",
".n c #ffa630",
"#Y c #ffc0a0",
"au c #ffc9ad",
"aF c #ffc9b0",
"#I c #ffd0a8",
"ai c #ffd1b1",
"aO c #ffd2aa",
"as c #ffd3aa",
"#9 c #ffd7b5",
"a1 c #ffe1c9",
"at c #ffeace",
"#X c #ffeed8",
"aE c #fff5dc",
"#8 c #fff7df",
"#J c #fff9f0",
"#y c #fffbdf",
".d c #fffecc",
"#W c #fffff4",
"ah c #fffff5",
".f c #ffffff",
"QtQtQtQtQtQtQtQtQtQtQtQtQtQtQt.#QtQtQtQtQtQtQtQtQtQtQtQtQtQt.a.b",
"QtQtQtQtQtQtQtQtQtQtQtQtQtQtQt.#QtQtQtQtQtQtQtQtQtQtQtQtQt.a.b.c",
"QtQtQtQtQtQtQtQtQtQtQtQtQtQtQt.#QtQtQtQtQtQtQtQtQtQtQtQt.a.b.c.d",
"QtQtQtQtQtQtQtQtQtQtQtQt.e.e.e.f.e.e.eQtQtQtQtQtQtQtQt.a.b.g.h.i",
"QtQtQtQtQtQtQtQtQtQt.e.e.f.f.f.e.f.f.f.e.eQtQtQtQtQt.j.k.l.m.n.o",
"QtQtQtQtQtQtQtQt.e.e.f.f.f.f.f.e.f.f.f.f.f.e.eQtQt.p.q.r.s.t.u.v",
"QtQtQtQtQtQtQt.e.e.f.f.f.f.f.f.e.f.f.f.f.f.f.e.e.w.b.x.y.z.A.B.C",
"QtQtQtQtQtQt.e.e.f.f.f.f.f.e.e.f.e.e.f.f.f.f.f.D.E.x.F.G.H.I.J.K",
"QtQtQtQtQt.e.e.f.f.f.f.e.e.e.e.f.e.e.e.e.f.f.L.E.M.N.O.P.B.Q.R.S",
"QtQtQtQtQt.e.f.f.f.f.e.e.e.e.e.f.e.e.e.e.e.T.b.U.V.W.P.B.X.Y.Z.0",
"QtQtQtQt.e.f.f.f.f.e.e.e.e.f.f.e.f.f.e.e.1.2.3.4.5.A.6.7.Y.8.0.9",
"QtQtQtQt.e.f.f.f.e.e.e.e.f.f.f.e.f.f.f#.###a#b#c#d.6.7#e#f#g#h#i",
"QtQtQt.e.f.f.f.f.e.e.e.f.f.f.e.f.e.f#j#k#l#m#n#o#p#q#r#s#t#u#v.#",
"QtQtQt.e.f.f.f.e.e.e.f.f.f.e.e.f.e#w#x#y#z#A#o#B#C.Y#D#E#F#G#HQt",
"QtQtQt.e.f.f.f.e.e.e.f.f.e.e.e.f.e#I#J#K#L#M#N#O#P#Q#R#S#T#UQtQt",
".#.#.#.f.e.e.e.f.f.f.e.e.f.f.f.e#V#W#X#Y#Z#0#1#2#3#4#5#6#7.#.#Qt",
"QtQtQt.e.f.f.f.e.e.e.f.f.e.e.e.f#I#8#9a.a#aaabacadaeafagQtQtQtQt",
"QtQtQt.e.f.f.f.e.e.e.f.f.f.e.e#Vahaiajakalamanaoapaqar.eQtQtQtQt",
"QtQtQt.e.f.f.f.f.e.e.e.f.f.f.easatauavawaxayazaAaBaC.f.eQtQtQtQt",
"QtQtQtQt.e.f.f.f.e.e.e.e.f.faDaEaFaGaHaIaJaKaLaMaN.f.eQtQtQtQtQt",
"QtQtQtQt.e.f.f.f.f.e.e.e.e.faOaPaQaRaSaTaUaVaWaX.f.f.eQtQtQtaYaZ",
"QtQtQtQtQt.e.f.f.f.f.e.e.ea0a1a2a3a4a5a6a7.#.f.f.f.eQtQtQtQtaZQt",
"QtQtQtQtQt.e.e.f.f.f.f.e.ea8a9b.b#babbbc.f.f.f.f.e.eQtQtQtQtQtQt",
"QtQtQtQtQtQt.e.e.f.f.f.fbdbebfbgbhbi.f.f.f.f.f.e.eQtQtQtQtQtQtQt",
"QtQtQtQtQtQtQt.e.e.f.f.fbjbkbl.#.f.f.f.f.f.f.e.eQtQtQtQtQtQtQtQt",
"QtQtQtQtQtQtQtQt.e.e.fbm.#.#.f.e.f.f.f.f.f.e.eQtQtQtQtQtQtQtQtQt",
"QtQtQtQtQtQtQtQtQtQt.ebn.f.f.f.e.f.f.f.e.eQtQtQtQtQtQtQtQtQtQtQt",
"QtQtQtQtQtQtQtQtQtQtQtQt.e.e.e.f.e.e.eQtQtQtQtQtQtQtQtQtQtQtQtQt",
"QtQtQtQtQtQtQtQtQtQtQtQtQtQtQt.#QtQtQtQtQtQtQtQtQtQtQtQtQtQtQtQt",
"QtQtQtQtQtQtQtQtQtQtQtQtQtQtQt.#QtQtQtQtQtQtQtQtQtQtQtQtQtQtQtQt",
"QtQtQtQtQtQtQtQtQtQtQtQtQtQtQt.#QtQtQtQtQtQtQtQtQtQtQtQtQtQtQtQt",
"QtQtQtQtQtQtQtQtQtQtQtQtQtQtQtQtQtQtQtQtQtQtQtQtQtQtQtQtQtQtQtQt"};
