/* XPM */
static char *pencil_cursor[]={
"32 32 6 1",
"# c None",
". c None",
"b c #000000",
"d c #fff7df",
"c c #fffff4",
"a c #ffffff",
"...............#.............aba",
"...............#............abaa",
"...............###.........abaaa",
"...........########.......abaaab",
"..........###########....abaaaba",
".....#.###########.####.abaaabab",
".....#.################abaaababa",
".....####.##########..abaaababab",
".....###..###########abaaabababb",
".....###.###########abaaabababbb",
"....###.###########abaaabababbbb",
"...###.######.##..abaaabababbbbb",
"...##.###########abaaabababbbbbb",
"...##.##########abaaabababbbbbba",
".##############abbbbaababbbbbba.",
"###############abcabababbbbbba#.",
"...##.#########abdabbabbbbbba##.",
"...###########abaaaabbbbbbba##..",
"...###.######abbaaababbbbba##...",
"...###.######abaaababbbbba##....",
"...##########abaabbbbbbba##.....",
"...####.####abaaabbbbbaa###.....",
"...######.##ababbbbbaa####......",
"...##.#####abbbbbbaa#.###.......",
"...#...####abbbbaa######........",
"...##..###abbbaa#..####.........",
"....#..#.abbaa########..........",
".....#.#..aa#########...........",
".....##......#.#..##............",
"......##...##..#................",
".......#####...#................",
"...............#................"};
