/* XPM */
static char *examGSF[]={
"32 32 248 2",
"aI c #000065",
"#F c #000144",
"bN c #001f10",
"#o c #002100",
"a8 c #00252b",
"aC c #00253d",
"be c #002689",
"bX c #0030ad",
".L c #00373a",
"au c #00413f",
".W c #004812",
"bl c #004e76",
"bS c #00550a",
"#Y c #005578",
"#s c #006268",
".M c #00754b",
"bU c #007552",
"bF c #007719",
"#. c #007b2a",
".X c #00853a",
"by c #008977",
"aQ c #008ed3",
"aF c #0093b8",
".B c #009465",
"aM c #009d74",
".Y c #00a97e",
"bo c #00aa3c",
"ac c #00ab99",
"aN c #00c4c5",
"ab c #00d4e3",
"aR c #00d7b8",
"aZ c #00d8f8",
"bc c #00dbe4",
"#Z c #00ead1",
"#L c #00fdfe",
"#b c #011779",
"bV c #0123b1",
"bb c #012584",
"bC c #01336a",
"bD c #013977",
".m c #013b5b",
"#X c #014989",
"bk c #015239",
"ah c #0157b6",
".J c #018225",
"#C c #01beef",
"av c #01d2c9",
"aV c #01ded5",
"#K c #01ecfc",
"#B c #01f4fe",
"a1 c #025843",
"aE c #028341",
"aP c #0299c8",
".C c #02b692",
"ao c #02b6db",
"#R c #02d4ed",
"#J c #02dcec",
"#z c #02e7f7",
"#n c #03002b",
".5 c #030706",
"bh c #030a5b",
"#g c #030c89",
".2 c #031585",
".n c #032e8d",
"#j c #033d0c",
"aU c #035497",
"#W c #036896",
"#0 c #037898",
"#2 c #03a4ce",
"#V c #03b6c9",
"bG c #03ba77",
"#P c #03d5f0",
"an c #03dcf2",
"#Q c #03e3f5",
".A c #041843",
"bO c #041886",
"aa c #045764",
"a7 c #0466b0",
"b# c #0481c6",
"bm c #048b6e",
"#I c #049984",
"## c #04b458",
".4 c #050023",
".I c #050638",
"#c c #051a8b",
"bu c #05285a",
"bw c #054100",
"aj c #0571a9",
".Z c #057888",
"bn c #060b68",
"br c #061427",
"#r c #061a6b",
".N c #064396",
".D c #0685ab",
"bT c #069627",
"#N c #06c9e9",
"#a c #07486f",
"#E c #0777b6",
"#6 c #077ac7",
"ad c #078f02",
"aG c #07a4b9",
"#y c #07a6d9",
"#D c #07cef2",
"#A c #07f6f7",
"#e c #080875",
"#G c #081716",
"bp c #082376",
"ak c #08358b",
"ay c #0846a7",
"#M c #08d0ec",
"bq c #090c4c",
"bg c #091888",
".F c #0a085b",
".z c #0a0a96",
"bz c #0a105e",
"#4 c #0ab4dd",
"#v c #0b0266",
"aq c #0b0273",
"#f c #0b0b8c",
"bi c #0b3514",
"ax c #0b3598",
"#H c #0b6518",
"#7 c #0b9cce",
".R c #0c0354",
".E c #0c2488",
"ag c #0c65a7",
"al c #0c94ca",
"a6 c #0ce39d",
"ba c #0d007b",
"ap c #0d0184",
".V c #0d022a",
"bt c #0d026e",
"bK c #0d0b7b",
"bv c #0d1178",
"#h c #0d1597",
"ae c #0d3a49",
"a5 c #0d58a8",
"b0 c #0e004f",
"bY c #0e048c",
".t c #0e658c",
"bR c #0f0f16",
".9 c #100126",
".G c #100977",
".1 c #10226f",
"a3 c #105594",
".K c #109a3c",
"bd c #10dcd2",
".S c #111c0b",
"bZ c #12288e",
".s c #1263a9",
"#3 c #1290c2",
"af c #130165",
".x c #130273",
".P c #130d86",
"am c #131799",
".j c #131999",
"#t c #135688",
"aK c #14016d",
".H c #140183",
"bJ c #140191",
".o c #14028b",
".Q c #141a69",
"aS c #14b761",
"#i c #15003a",
"bE c #150047",
"aL c #15017c",
"bL c #150648",
"az c #150b7e",
"bW c #151739",
"b. c #152493",
"aB c #153398",
"aY c #155cb5",
"#O c #1579bb",
".p c #160158",
"bQ c #160a6b",
"#1 c #1632b2",
".u c #163887",
".7 c #166b94",
".0 c #171b72",
".i c #17249e",
"ai c #1757a9",
"#m c #18015c",
"bx c #18d726",
"aw c #18e49b",
"#8 c #19349a",
"bM c #196e00",
".d c #1a0a7d",
"aH c #1a373b",
"#5 c #1a61b5",
"a2 c #1aa56a",
".3 c #1b138a",
"bf c #1b1587",
"#d c #1b2387",
"ar c #1b2511",
"aJ c #1b4ea9",
"aA c #1c006c",
".y c #1c0188",
".w c #1c0274",
"b1 c #1c0a81",
".O c #1c0b8d",
"aO c #1c263c",
"#q c #1c7167",
".h c #1d007c",
".g c #1d0182",
".l c #1e0265",
"as c #1ea780",
"a9 c #1f30a3",
"bI c #203484",
"#p c #20c01e",
"#w c #210b8a",
"#x c #21198a",
".k c #220082",
".r c #221b90",
".a c #23017c",
".b c #23087c",
"Qt c #230c83",
"#S c #235d54",
"#u c #24006c",
".v c #240175",
"bP c #24018c",
".8 c #250059",
".q c #250064",
"#9 c #261806",
"a0 c #27a63e",
".c c #290174",
".e c #290282",
".# c #2a027c",
"a4 c #2a0389",
"aD c #2a8f2e",
"#l c #2b35af",
".f c #2c0877",
".U c #2c9459",
"aX c #2c9a86",
"bA c #324f00",
"bH c #35230a",
"bj c #367c00",
"#U c #37fab6",
"aT c #396c0e",
".6 c #39a316",
"#k c #3aa873",
"bs c #3f7a3d",
"at c #478f53",
"a# c #55cc93",
"aW c #5c7e02",
".T c #81b305",
"bB c #827136",
"#T c #82b442",
"a. c #906800",
"QtQtQtQtQtQtQtQtQtQtQtQtQtQtQtQtQtQtQtQtQtQtQtQtQtQtQtQtQtQtQtQt",
"Qt.#QtQt.#Qt.a.#.b.b.b.b.b.b.b.b.b.b.c.a.b.#.b.b.b.b.d.e.b.b.#.f",
".a.g.a.a.h.a.a.a.g.g.h.h.a.h.g.h.h.h.i.j.h.g.a.a.a.g.h.g.g.a.a.k",
".h.a.a.g.g.k.a.g.g.a.a.a.a.a.a.a.a.l.m.n.g.a.g.a.g.g.a.#.h.k.e.a",
".a.a.c.h.a.a.g.a.a.g.a.a.g.g.g.o.g.c.p.q.g.a.a.g.a.a.a.a.a.a.k.e",
".#.r.s.t.u.v.h.k.a.a.a.k.a.a.w.x.h.y.k.y.a.h.z.z.a.g.k.e.a.a.a.k",
".a.A.B.B.C.D.g.g.g.y.y.a.a.k.a.a.g.h.c.h.y.E.F.G.g.h.g.H.k.k.a.a",
".k.I.J.K.L.M.C.D.N.w.g.O.P.o.y.g.H.k.e.c.F.Q.h.h.h.g.a.h.k.a.g.a",
".a.R.S.T.U.V.W.X.Y.Z.0.1.1.2.3.c.a.a.e.a.x.P.w.y.#.a.a.g.y.a.h.o",
".a.a.4.5.6.7.8.9.5#.###a.2#b#c#d.v.g.g.h#e#f.v.a.k.a.v#g#h.a.h.h",
".a.a.v#i#j#k#l.##m#n#o#p#q#r#s#t.r.v.b#u#v.P.OQtQt#w.v.F.d.d.g.#",
".a.##x#y#z#A#B#C#D#E#F#G#H#I#J#K#L#M#N#O.8#E#B#P#P#Q#K#z#Q#M#x.a",
".a#x#M#L#R#S#T#U#L#V#W#X#Y#L#Z#0#1#2#L#N.g#x#3#B#L#4#5#6#R#L#O.q",
".c#7#L#K#8#i#9a.a##Laa#Wab#Lacadaeafag#Lah.y.u#B#Lai.qajakal#z.b",
"aman#Laoap.oaq.Varasatauav#B#K#Zaw.7#x.0#Yaxay#K#Laiaz#Lai.caiQt",
"ax#K#LalaAazazaBaC#GaDaEaF#L#B#B#K#L#KaGaHaI#X#B#B#K#B#LaJ.c.v.a",
"#8#K#LalaKaLak#B#B#B#L.C.JaMaN#J#B#L#B#L#VaO.u#B#BaP#6#LaJ.cQt.#",
".3#J#L#4aA.w.aaB#Q#LaQ.AaRaSaTaUaU#0ab#BaVaWaX#K#LaUaq#PaY.c.e.g",
".v#7#L#K#8.c.h.3aZ#LaU.Fao#Aa0a1aI#n.t#L#V#9a2#B#La3.8#d#fa4.a#u",
".h#d#Q#LanaYa5#R#L#LagaKa5#L#Aa6#Wa7ab#L#Xa8aR#B#B#Ca9#u.w.e.ea4",
".g.hb.#y#K#L#B#2b##La7babbbcaPaZ#L#LbdaGbeaj#Kabbc#L#7.a.a.a.a.a",
".h.h.wba.3bfazaK.x.E#e#v.2bg#vbhaCbibjbk.n#rbl.Aa1bmap.a.aap.k.a",
".g.a.h.w.a.h.w.h.h.v.q#rbb.GaLbn#b.4#obo.Z#bbpbqbr.Wbsa4.h.w.a.v",
".h.g.a.a.g.H.o#f.a.O.j.Rbt.h.wbu#rbv.Ibwbxby#c.Hbz.IbAbBam.e.#.a",
".a.g.g.a.w.d.xaL.abp.nap.H.hbvbC#mbDbgbE#obFbG.N.G.V.5bHbI.a.a.g",
".a.hapbJ.hbK.w.gaKbubpaAbaap.Raz.vbL.wQt.d#FbMbx#I.sbhbN.t.e.b.a",
".h.caf.w.x.d.yaKbO#v.xamaz#f.hbg.ybP.c.0bQbQ.pbRbSbT##bU#W#w.a.a",
".c.#.#.##u.w.HaKbObV#gbebK.Gbtaq.wbJ.a.w.g.cbP.e.vbLbWbrae.d.#.#",
".g.h.a.y.e.h.Hbtbhbb#bbnbXbYaK#fbZbabY.P.g.g.a.a.Q#xbP.aaL.#a4.a",
".g.v.c.a.HbaaL.w.F#vaKb0bC#f.wbq#r.vaf.w.a.H.H#f.w.w.a.c.ha4.a.a",
".a.#.e.#.v.b.cbZb.#ub1.h#e.v.b.b.b#w.#.a.b.#.lbQ.O#w.eQt.b.f.#.#",
".a.a.a.a.a.a.a.a.a.a.a.a.a.a.a.a.a.a.a.a.a.a.a.a.a.a.a.a.a.a.a.a"};
