/* XPM */
static char *fileopen[]={
"32 32 530 2",
".# c None",
"Qt c None",
".l c #000000",
".e c #000000",
"#C c #000000",
".u c #000000",
".P c #000000",
"fe c #000000",
".d c #000000",
"fX c #000000",
".0 c #000000",
".k c #000000",
"eS c #000000",
"gp c #000000",
"gl c #000000",
"fC c #000000",
"de c #000000",
".v c #878fbd",
"#N c #000000",
".F c #000000",
"go c #000000",
"fq c #000000",
"cP c #000000",
"#j c #000000",
"gk c #000000",
"d2 c #000000",
".t c #000000",
"fd c #000000",
".a c #7c85b3",
"#V c #000000",
"fW c #000000",
"dC c #000000",
"gn c #000000",
"eR c #000000",
"bX c #000000",
"dd c #000000",
"#B c #002575",
"fB c #000000",
".m c #818ab8",
"et c #000000",
"bw c #000000",
"cO c #000000",
"gm c #000000",
"d1 c #000000",
"fp c #000000",
"a7 c #000000",
"gj c #000000",
".Z c #373c5b",
".Q c #878eba",
".O c #0344a6",
".j c #4d5376",
"fc c #000823",
"cm c #001240",
"aa c #0031a2",
"dB c #001552",
"fV c #00114d",
"aG c #002375",
"## c #1349a4",
".f c #8189b9",
".w c #858dbb",
"a# c #0034a7",
"a. c #0036a8",
".c c #767fb1",
"eQ c #001c74",
"bW c #002177",
"#9 c #0036a4",
".E c #596190",
"#M c #053596",
"#a c #868bb7",
"fA c #001b78",
"aq c #002f9d",
"#8 c #05389b",
"#A c #2c4c98",
"dc c #00258d",
"#U c #4d5b98",
"es c #00238f",
".G c #0a56c2",
".b c #7f85b8",
".H c #0953bf",
".N c #054bba",
".M c #064dbb",
".L c #074ebc",
".K c #074fbc",
".J c #0850bd",
".I c #0851be",
"bv c #002c98",
"#i c #606aa4",
"aE c #568fe7",
".n c #818ab9",
"cL c #001bae",
".s c #6d77ac",
"cj c #001bae",
"cN c #002ba0",
"fo c #00249a",
"bU c #001daf",
"ck c #001ead",
".R c #868ebc",
"dZ c #0022ad",
"a5 c #0027b1",
"aD c #5f9cef",
"gi c #00239c",
"cM c #0025ad",
"cK c #001eb2",
"ao c #4e80d4",
"an c #4f81d5",
"ci c #0023b3",
"eq c #082ab1",
"er c #0028a9",
"db c #0028aa",
"d0 c #0029a3",
".Y c #757eb5",
"bT c #0029b5",
"bu c #002baf",
"bV c #002dab",
"ap c #0b47b6",
"aF c #003db1",
"bt c #032cb7",
"fU c #0025a3",
"gh c #0026a4",
"fb c #0027a5",
"gg c #0029a6",
"gf c #002aa6",
"dA c #002ca8",
"ge c #002ea9",
"cJ c #002ec0",
"cl c #002faa",
"da c #002fc1",
"a6 c #0032ac",
"fD c #0043b7",
"fY c #0044b8",
"ch c #032cb8",
"c9 c #053ac7",
"cI c #0632be",
"d. c #073cc9",
"d# c #073dca",
"dx c #0745d3",
"cq c #0752c1",
"eP c #083aaa",
"dY c #083fcc",
"dz c #0840cd",
"dV c #084ddb",
"cH c #0936c0",
"dy c #0946d4",
"dw c #0947d5",
"dW c #0950df",
"b# c #0954c2",
"dX c #0a4edc",
"fs c #0c52c0",
"gd c #0d43ae",
"ag c #0d4dba",
"#. c #0f54c1",
"ep c #1038bc",
"ew c #1158c2",
"bS c #123fc3",
"fZ c #1253bf",
"c8 c #134cd4",
"fz c #1442ac",
"eV c #1458c1",
"cg c #153dc2",
"dG c #155ac3",
"eo c #1a43c3",
"en c #1b45c4",
"a4 c #1c66df",
"em c #1d4ccb",
"cG c #1d4fd3",
"aW c #1d58bf",
"el c #1e53d4",
"ek c #1f5adc",
"dU c #1f62e2",
"dh c #1f65c9",
"ej c #2061e3",
"b0 c #2067cb",
"cF c #215add",
"dv c #2163e6",
"fE c #2361c4",
"c7 c #2462e3",
"fr c #2465ca",
"cE c #2563e3",
"ff c #2667ca",
"cf c #2758d4",
"ei c #2865e0",
"eT c #2868cb",
"aK c #2964c1",
"gc c #2a58b5",
"eu c #2a69cb",
"aw c #2b62c3",
"ce c #2b65df",
"c6 c #2b6ce9",
"gb c #2c5bb8",
"d3 c #2c6ccc",
"#7 c #2f56b0",
"dD c #2f6dcc",
"ga c #305eba",
"cd c #306de6",
"cD c #306fea",
"df c #316fcd",
"g# c #3261bd",
"bs c #326de0",
"cQ c #3370cd",
"g. c #3464bf",
"cn c #3572ce",
"bA c #3675cf",
"f9 c #3867c2",
"eh c #386fe0",
"bY c #3873ce",
"cc c #3877ec",
"du c #3877ed",
"f8 c #3a6bc4",
"bx c #3a75cf",
"aV c #3b6fc9",
"f7 c #3c6dc7",
"a8 c #3c77cf",
"c5 c #3c79ec",
"f6 c #3d6fc8",
"aU c #3d71ca",
"ah c #3d75ce",
"bR c #3d7be9",
"fg c #3d80d8",
"aT c #3e72cb",
"aH c #3e79d1",
"f5 c #3f70c9",
"f4 c #3f71ca",
"aS c #3f75cc",
"f3 c #4072ca",
"f2 c #4073cb",
"aR c #4077cd",
"ar c #407ad1",
"f1 c #4275cc",
"f0 c #4276cc",
"cC c #427ded",
"aQ c #4378ce",
"ab c #437bd2",
"dT c #4381f0",
"aP c #447acf",
"aO c #457cd1",
"#W c #457dd2",
"cb c #4583f0",
"aN c #467dd2",
"#O c #467fd3",
"aM c #4780d3",
"dt c #4784f0",
"#D c #4880d3",
"aL c #4881d3",
"#k c #4881d4",
".1 c #4982d4",
"ax c #4a7fd4",
"aX c #4c80d4",
"c4 c #4c87f1",
"bQ c #4d96fa",
"a1 c #509eff",
"cB c #518cf1",
"d5 c #518ddb",
"bq c #519fff",
"am c #5282d5",
"dS c #528ef3",
"a0 c #529fff",
"a2 c #52a0ff",
"fn c #536fb8",
"cT c #5389d6",
"ca c #5490f3",
"a3 c #56a3ff",
"ds c #5791f3",
"bp c #57a2ff",
"eg c #588ded",
"aJ c #5892dd",
"br c #58a5ff",
"#L c #5c6bae",
"c3 c #5c96f3",
"ak c #5d8edc",
"aj c #5d8edd",
"cS c #5d98e0",
"al c #5e8edc",
"bP c #5ea6ff",
"ai c #6190dd",
"cA c #6199f4",
"dR c #629bf5",
"c# c #649ef5",
"aZ c #64aaff",
"d6 c #6592d9",
"dr c #669ff6",
"ef c #689cf2",
"bo c #6baeff",
"c2 c #6ca3f6",
"bO c #6cafff",
"cz c #70a6f7",
"dQ c #70a8f9",
"#4 c #7192d4",
"#3 c #7194d5",
"#5 c #7295d5",
"bz c #73ace9",
"fh c #769edd",
"ee c #76a8f5",
"dq c #76acfa",
"aC c #76adf9",
"#6 c #7899d8",
"bN c #79b9ff",
"#u c #7a8abe",
"ec c #7aaaf0",
"c1 c #7aaffa",
"eU c #7ab4f1",
"dO c #7fb4f6",
"cy c #80b4fa",
"dP c #80b6fc",
"c. c #81b7fc",
"dN c #81b8f6",
".i c #828bbc",
"#z c #838cc0",
"ed c #83b4f9",
".9 c #83b8f1",
"#t c #84aee2",
"dp c #84b8fc",
"dn c #85b7f3",
"bM c #86c2ff",
".g c #878fbe",
"aA c #87beff",
"c0 c #89bdfc",
".x c #8c94c0",
"az c #8dc1ff",
"aB c #8dc3ff",
"fa c #909ac3",
"cx c #90c2fd",
"fT c #9198aa",
"do c #91c3fe",
"#R c #929cc4",
"b9 c #92c4fe",
"eb c #95c6fd",
"bL c #95cbff",
"dM c #96cfff",
".D c #979fc9",
"cZ c #97c8ff",
"dm c #97cdff",
"#b c #989fc7",
"ae c #99a0c4",
"cX c #99c7f2",
"#F c #9aafd6",
"#G c #9ca2c8",
"cY c #9cccfe",
"fS c #9fa2ac",
"#Z c #9fafd3",
"at c #9fb2d6",
"di c #a0c0ec",
"b1 c #a1c1ed",
"bl c #a1c3f2",
"fR c #a2a4ae",
".o c #a2a9cd",
"bK c #a2d4ff",
"dL c #a2d9ff",
"fQ c #a4a8b0",
"bk c #a5c7f3",
"ea c #a5d2ff",
"cp c #a6d5fb",
"dl c #a6ddff",
"#0 c #a8adcd",
"bj c #aacaf3",
"bm c #aacaf7",
"dF c #aad6fb",
"fP c #abadb6",
"#T c #abb2d5",
"bi c #adccf3",
"b8 c #add9ff",
"dK c #ade1ff",
".S c #aeb4d4",
"ba c #aec9f0",
"b. c #aeddff",
"e# c #afdbff",
"bJ c #afdeff",
"#Q c #b0d2f2",
"bh c #b2cff4",
"eO c #b3b3c9",
"fO c #b3b5be",
"ay c #b4d8ff",
"#s c #b4e6ff",
"bg c #b6d3f4",
"#E c #b6e3ff",
"eN c #b7b7cc",
"ex c #b7cdf1",
"aY c #b7dbff",
"dJ c #b8e7ff",
"#r c #b8e8ff",
"f# c #b9b9cd",
"#h c #b9bedd",
"e. c #b9e2ff",
"fN c #babdc4",
"bb c #baceef",
"bf c #bad6f5",
"bn c #baddff",
"dk c #bae8ff",
"eM c #bcbcce",
"fy c #bdbdd1",
"#2 c #bdc9e9",
"ad c #bde0fb",
"bI c #bde7ff",
"f. c #bebed1",
"af c #becbeb",
"ev c #beeaff",
"#q c #beebff",
"fm c #bfbfd2",
"be c #bfd8f5",
"cv c #bfddf2",
"eL c #c0c0d2",
"e9 c #c1c1d4",
"#v c #c1c6de",
"d9 c #c1e8ff",
"d4 c #c1ecff",
"cW c #c1edff",
"fM c #c2c4cb",
"#p c #c2edff",
"fl c #c3c3d5",
"bd c #c3d8f6",
"#Y c #c3ebff",
"eK c #c4c4d5",
"dE c #c4edff",
"fx c #c6c6d6",
"e8 c #c6c6d7",
"b4 c #c6d5ea",
"cu c #c6e3f9",
"bc c #c7dbf6",
"#o c #c7f1ff",
"eJ c #c8c8d8",
"d8 c #c8ebff",
"dg c #c8efff",
"fw c #cacad9",
"e7 c #cacadb",
"au c #cacee3",
".8 c #caefff",
"fL c #cbccd3",
"#S c #cbcee3",
".h c #cbcfe6",
"bH c #cbf0ff",
"#n c #cbf3ff",
"eI c #ccccdc",
"cR c #ccf1ff",
"e6 c #cecedd",
"co c #cff2ff",
"#m c #cff5ff",
"eH c #d1d1df",
"cw c #d1f4ff",
".r c #d2d5e9",
".7 c #d2f2ff",
"b7 c #d2f5ff",
"e5 c #d3d3e0",
"fK c #d3d4d9",
"bZ c #d3f3ff",
"dI c #d4f3ff",
"eG c #d5d5e2",
"d7 c #d6f2ff",
"by c #d6f5ff",
"e4 c #d7d7e3",
"ft c #d7e5fa",
"bC c #d8dff1",
".6 c #d8f5ff",
"bG c #d8faff",
"eF c #d9d9e6",
"a9 c #d9f6ff",
"fJ c #dbdce0",
"e3 c #dcdce7",
".y c #dddfef",
"aI c #ddf9ff",
"fk c #dedee8",
"eE c #dedee9",
"av c #dee2f4",
"fv c #dfdfea",
"#c c #dfe1f0",
"#K c #dfe1f2",
".5 c #dff9ff",
"ct c #dffaff",
"b6 c #dffeff",
"e2 c #e0e0ea",
"as c #e0faff",
"fj c #e1e1eb",
"b3 c #e1f4ff",
"eD c #e2e2eb",
"fI c #e2e3e8",
"e1 c #e3e3ed",
"ac c #e3fbff",
"#y c #e5e5f3",
"eC c #e6e6ef",
"cV c #e6fcff",
"bF c #e6ffff",
".4 c #e7fcff",
"#X c #e7fdff",
"e0 c #e8e8f1",
"#f c #e8e8f5",
"#H c #e8eaf5",
"bD c #e8f1fb",
"eB c #eaeaf2",
".B c #eaeaf6",
"fH c #eaebef",
"#P c #eafeff",
"b5 c #eaffff",
"#J c #ebebf7",
"dH c #ebf9ff",
"cs c #ebfdff",
".3 c #ebffff",
"fu c #ececf3",
"eZ c #ececf4",
".W c #ececf7",
".A c #ededf9",
"cr c #edf9ff",
"#l c #edffff",
"eA c #efeff5",
".V c #f0f0fa",
".p c #f0f1fa",
"dj c #f0ffff",
"eY c #f1f1f6",
"fG c #f2f3f5",
"#1 c #f2f3fb",
"b2 c #f2ffff",
"ez c #f3f3f9",
"#e c #f3f3fc",
".X c #f3f4fc",
"bE c #f3ffff",
"eX c #f5f5fa",
".U c #f5f5fd",
"#g c #f6f6fe",
"ey c #f7f7fc",
".q c #f7f7fe",
"cU c #f7ffff",
"#x c #f9f9ff",
"eW c #fafafd",
"bB c #faffff",
"fF c #fbfbfd",
".z c #fbfbff",
".T c #fbfcff",
".2 c #fbffff",
"fi c #fcfcfe",
"#w c #fcfcff",
"#d c #fdfdff",
"#I c #fefeff",
".C c #ffffff",
"QtQtQtQtQtQtQtQtQtQtQtQtQtQtQtQtQtQtQtQtQtQtQtQtQtQtQtQtQtQtQtQt",
"QtQtQtQtQtQtQtQtQtQtQtQtQtQtQtQtQtQtQtQtQtQtQtQtQtQtQtQtQtQtQtQt",
"Qt.#.#.#.#.#.#.#.#.#.#.#.#.#.#.#.#.#.#.a.b.c.d.e.#.#.#.#.#.#.#.#",
"Qt.#.#.#.#.#.#.#.#.#.#.#.#.#.#.#.#.#.f.g.h.i.j.k.l.#.#.#.#.#.#.#",
"Qt.#.#.#.#.#.#.#.#.#.#.#.#.#.#.#.m.n.o.p.q.r.s.t.u.#.#.#.#.#.#.#",
"Qt.#.#.#.#.#.#.#.#.#.#.#.#.#.v.w.x.y.z.A.B.C.D.E.F.e.#.#.#.#.#.#",
"Qt.G.H.I.J.K.L.M.M.N.O.P.l.Q.R.S.T.U.V.A.B.W.X.Y.Z.0.l.#.#.#.#.#",
"Qt.1.2.3.4.5.6.7.8.9#.###a#b#c#d.U#e.V.A.B#f#g#h#i#j.u.#.#.#.#.#",
"Qt#k#l#m#n#o#p#q#r#s#t#u#v#d#w#x.U#e.V.A.B#f#y.C#z#A#B#C.l.#.#.#",
"Qt#D#l#m#n#o#p#q#E#F#G#H.C#I.z#x.U#e.V.A.B#f#y#J#K#L#M#N#C.#.#.#",
"Qt#O#P#m#n#o#p#Q#R#S.C.C.C#I.z#x.U#e.V.A.B#f#y#y#x#T#U#V.d.#.#.#",
"Qt#W#X#m#n#Y#Z#0#1.C.C.C.C#I.z#x.U#e.V.A.B#2#3#4#5#6#7#8#9a.a#aa",
"Qtabac#m#nadae.C.C.C.C.C.C#I.z#x.U#e.V.Aafagahaiajakalamanaoapaq",
"Qtaras#m#n#oatau.C.C.C.C.C#I.z#x.U#e.VavawaxayazaAaAaBaCaDaEaFaG",
"QtaHaI#m#n#oaJaKaLaMaNaOaPaQaRaSaTaUaVaWaXaYaZa0a1a1a2a3a4a5a6a7",
"Qta8a9#m#nb.b#babbbcbdbebfbgbhbibjbkblbmbnbobpa1a1bqbrbsbtbubvbw",
"Qtbxby#m#nbzbAbBbCbDbEbFbGbHbIbJbKbLbMbNbObPa0a1bQbRbSbTbUbVbWbX",
"QtbYbZ#m#nb0b1b2b3b4b5b6b7#Yb8b9c.c#cacbcccdcecfcgchcicjckclcm#V",
"Qtcnco#mcpcqcrcsctcucvcwb8cxcyczcAcBcCcDcEcFcGcHcIcJcKcLcMcNcOcP",
"QtcQcR#mcScTcUcVbGcWcXcYcZc0c1c2c3c4c5c6c7c8c9d.d#dacKcLdbdcddde",
"Qtdfdg#mdhdidja9dkdldmdndodpdqdrdsdtdudvdwdxdydzd#dacKcLdAdBdC.0",
"QtdDdEdFdGdHdIdJdKdLdMdNdOdPdQdRdSdTdUdVdWdXdydYd#dacKdZd0d1d2#C",
"Qtd3d4d5d6d7d8d9e.e#eaebecedeeefegeheiejekelemeneoepeqereset.F.l",
"Qteuevewex.C.C.C.C#weyezeAeBeCeDeEeFeGeHeIeJeKeLeMeNeOePeQeReS.#",
"QteTeUeV.C.C.C.C.C#IeWeXeYeZe0e1e2e3e4e5e6e7e8e9f.f#fafbfcfdfe.#",
"Qtfffgfh.C.C.C.C.C.CfieyezeAeBeCfjfkeFeGeHeIeJflfmeMfnfofpfq.e.#",
"Qtfrfsft.C.C.C.C.C.C#deWeXeYfue0e1fve3e4e5e6fwfxe9fyfzfAfBfC.#.#",
"QtfDfE.C.C.C.C.C.C.C.CfFfGfHfIfJfKfLfMfNfOfPfQfRfSfTfUfVfWfX.#.#",
"QtfYfZf0f1f2f3f4f5f6f7f8f9g.g#gagbgcgdgedAgfggfbghfUgigjgk#C.#.#",
"QtgleRfpfpfpfpfpfpfpfpfpfpfpfpfpfpfpfpfpfpfpfpfpfpfpgmgnfC.l.#.#",
"Qt.uglgogogogogogogogogogogogogogogogogogogogogogogo.Fgp#C.#.#.#",
"QtQtQtQtQtQtQtQtQtQtQtQtQtQtQtQtQtQtQtQtQtQtQtQtQtQtQtQtQtQtQtQt"};
