/* XPM */
static char *other[]={
"32 32 84 2",
"Qt c #ffffff",
".g c #000000",
".F c #0c0c0c",
".p c #353535",
"#o c #494949",
"#i c #616161",
"#q c #666666",
"#l c #787878",
".B c #7f7f7f",
".L c #808080",
".1 c #818181",
".5 c #848484",
"#p c #868686",
".2 c #878787",
".S c #888888",
"#g c #8a8a8a",
"#n c #8b8b8b",
".w c #8c8c8c",
".o c #919191",
".q c #929292",
".N c #939393",
".V c #969696",
"## c #989898",
"#b c #999999",
".Q c #9a9a9a",
".Z c #9b9b9b",
"#a c #9d9d9d",
".t c #9e9e9e",
".C c #a0a0a0",
".z c #a4a4a4",
".E c #a5a5a5",
".8 c #a7a7a7",
".h c #a8a8a8",
".K c #a9a9a9",
"#r c #aaaaaa",
".0 c #ababab",
".b c #acacac",
".X c #aeaeae",
"#h c #afafaf",
".G c #b1b1b1",
".9 c #b5b5b5",
"#k c #b6b6b6",
".Y c #bababa",
".n c #bdbdbd",
".l c #c5c5c5",
"#m c #c7c7c7",
".j c #cacaca",
".3 c #cbcbcb",
".k c #cccccc",
"#j c #d2d2d2",
".r c #d3d3d3",
".T c #d4d4d4",
".6 c #d6d6d6",
".M c #d9d9d9",
".I c #dadada",
".x c #dbdbdb",
"#e c #dcdcdc",
".m c #dddddd",
".u c #dedede",
".P c #dfdfdf",
".i c #e0e0e0",
".c c #e1e1e1",
".A c #e2e2e2",
"#c c #e3e3e3",
".4 c #e4e4e4",
".H c #e5e5e5",
"#. c #e6e6e6",
".e c #e7e7e7",
".R c #e8e8e8",
".J c #e9e9e9",
".7 c #eeeeee",
".U c #efefef",
".# c #f0f0f0",
".W c #f1f1f1",
".s c #f2f2f2",
".v c #f3f3f3",
".a c #f4f4f4",
".d c #f5f5f5",
"#d c #f6f6f6",
".D c #f8f8f8",
".O c #fbfbfb",
"#f c #fdfdfd",
".y c #fefefe",
".f c #ffffff",
"QtQtQtQtQtQtQtQtQtQtQtQt.#QtQtQtQtQtQtQtQtQtQtQtQtQtQtQtQtQtQtQt",
"QtQtQtQtQt.a.aQtQtQtQt.b.c.dQtQtQtQtQtQtQtQtQtQtQtQtQtQtQtQtQtQt",
"QtQtQt.a.a.a.a.e.fQtQt.g.h.i.fQtQtQtQtQtQtQtQtQtQtQtQtQtQtQtQtQt",
"QtQt.a.a.j.j.k.l.m.#.nQt.g.o.i.dQtQtQtQtQtQtQtQtQtQtQtQtQtQtQtQt",
"Qt.a.a.j.j.p.p.p.q.r.sQtQt.g.t.u.vQtQtQtQtQtQtQtQtQtQtQtQtQtQtQt",
"Qt.a.j.j.p.p.pQt.p.w.x.yQtQt.g.z.A.fQtQtQtQtQtQtQtQtQtQtQtQtQtQt",
"Qt.a.j.p.pQtQtQtQt.g.B.x.sQtQt.g.C.u.DQtQtQtQtQtQtQtQtQtQtQtQtQt",
"Qt.a.j.pQtQtQtQtQtQt.g.w.r.#QtQt.g.E.c.sQtQtQtQtQtQtQtQtQtQtQtQt",
"Qt.a.j.pQtQtQtQtQtQtQt.F.q.m.fQtQt.g.G.H.fQtQtQtQtQtQtQtQtQtQtQt",
"Qt.I.J.KQtQtQtQt.fQtQtQt.g.L.M.dQtQt.g.N.m.OQtQtQtQtQtQtQtQtQtQt",
"Qt.K.P.#QtQtQt.Q.R.vQtQtQt.g.S.T.UQtQt.g.V.A.WQtQtQtQtQtQtQtQtQt",
"Qt.g.X.P.OQtQt.g.Y.e.OQtQtQt.g.V.M.OQtQt.g.b.A.OQtQtQtQtQtQtQtQt",
"QtQt.g.Z.T.xQtQt.g.0.i.fQtQtQt.g.1.M.DQtQt.g.V.m.fQtQtQtQtQtQtQt",
"QtQtQt.g.2.3.4QtQt.g.Q.H.aQtQtQt.g.5.6.7QtQt.g.N.H.sQtQtQtQtQtQt",
"QtQtQtQt.g.8.m.DQtQt.g.9#..DQtQtQt.g##.6.DQtQt.g.0.P.DQtQtQtQtQt",
"QtQtQtQtQt.g#a.x.fQtQt.g.X.c.fQtQtQt.g.5.M.OQtQt.g#b.u.fQtQtQtQt",
"QtQtQtQtQtQt.g#a.c.WQtQt.g.8#c#dQtQtQt.g.1.M.UQtQt.g.o.A.vQtQtQt",
"QtQtQtQtQtQtQt.g.8#e.dQtQt.g.K.4#dQtQtQt.g.V.T.dQtQt.g.z.u.dQtQt",
"QtQtQtQtQtQtQtQt.g.C.m#fQtQt.g.K#c.fQtQtQt.g.S.M.fQtQt.g.t.i.fQt",
"QtQtQtQtQtQtQtQtQt.g.S.u.sQtQt.g#b.c.DQtQtQt.g#g.fQtQtQt.g.o.i.d",
"QtQtQtQtQtQtQtQtQtQt.g.E#e.sQtQt.g#h#..aQtQtQt#i.#QtQtQtQt.g.l#j",
"QtQtQtQtQtQtQtQtQtQtQt.g.E.u#fQtQt.g#k.H.fQt#l.o#mQtQtQtQtQt.m#n",
"QtQtQtQtQtQtQtQtQtQtQtQt.g#b.m.dQtQt.g.8.6.l.G.w#oQtQtQtQtQt.m#o",
"QtQtQtQtQtQtQtQtQtQtQtQtQt.g.N.M.WQtQt.g#p#p#p#q.gQtQtQtQt.f.m#o",
"QtQtQtQtQtQtQtQtQtQtQtQtQtQt.g.t.c.fQtQt.g.g.g.gQtQtQtQtQt.f.m#o",
"QtQtQtQtQtQtQtQtQtQtQtQtQtQtQt.g.Q.x.DQtQtQtQtQtQtQtQtQt.f.m#n.g",
"QtQtQtQtQtQtQtQtQtQtQtQtQtQtQtQt.g.C.m.#QtQtQtQtQtQtQt.f.m#n#n.g",
"QtQtQtQtQtQtQtQtQtQtQtQtQtQtQtQtQt.g#r.P.OQtQtQtQtQt.f.m#n#n.gQt",
"QtQtQtQtQtQtQtQtQtQtQtQtQtQtQtQtQtQt.g.Z.x.O.f.fQt.f.m#n#n.g.gQt",
"QtQtQtQtQtQtQtQtQtQtQtQtQtQtQtQtQtQtQt.g#n.m.m.m.m.m#n#n.g.gQtQt",
"QtQtQtQtQtQtQtQtQtQtQtQtQtQtQtQtQtQtQt.g.g.g.g#n#n#n.g.gQtQtQtQt",
"QtQtQtQtQtQtQtQtQtQtQtQtQtQtQtQtQtQtQtQtQtQt.g.g.g.gQtQtQtQtQtQt"};
