/* XPM */
static char *avg[]={
"32 32 124 2",
"Qt c None",
".# c None",
".k c #000000",
".c c #000000",
".d c #000000",
".b c #000000",
".l c #000000",
".s c #000000",
".r c #000000",
".y c #000000",
"#c c #000000",
".q c #000000",
".e c #000000",
".0 c #000000",
"#. c #000000",
".f c #000000",
"#l c #000000",
".j c #000000",
"#2 c #000000",
".i c #000000",
".1 c #000000",
".9 c #000000",
".8 c #000000",
".7 c #000000",
".a c #000000",
".Z c #000101",
"#P c #010001",
".T c #010304",
"#X c #03060c",
"#4 c #050b12",
"#F c #05151e",
"#1 c #060f19",
".R c #06101d",
"#y c #06141d",
"#C c #06141f",
"#t c #071620",
".x c #071728",
".L c #07182a",
"#k c #071c2c",
"#j c #081c2d",
".p c #081e31",
".h c #0a121f",
"#i c #0a1929",
".6 c #0a263b",
"#b c #0a273b",
"#O c #0b293e",
"#o c #0d324c",
"#G c #0d3652",
"#L c #0e5775",
"#U c #0e8fb6",
"#I c #0e94b9",
".O c #0e97bf",
"#Z c #0e9ec3",
".H c #0ea0c5",
"#z c #0eadcb",
".Y c #0f5d7e",
"#0 c #0fa0c4",
".Q c #105375",
"#W c #106589",
"#5 c #10698f",
"#M c #114560",
".U c #114760",
".3 c #1197b9",
".M c #124c6d",
".g c #124d6f",
".J c #1290b5",
"#K c #1299bb",
".K c #135476",
".v c #1390b4",
"#N c #144059",
"#h c #14839f",
"#3 c #14a5c9",
".m c #155474",
".w c #155678",
".D c #155a7a",
".X c #159abc",
"#V c #15c1da",
".o c #17587a",
"#e c #178eac",
"#n c #18425f",
".t c #194a6a",
".G c #19b3ce",
".z c #1b4b6a",
".E c #1b4f6f",
"#J c #1bbad1",
".P c #1ca2c3",
"#E c #1f95b2",
".S c #20374f",
".5 c #2294b1",
".W c #22bad1",
"#m c #254a64",
"#B c #2695b1",
"#a c #2a98b3",
"#x c #2b91ae",
"#d c #2cc7d5",
"#Q c #337f9e",
".C c #3cd7e1",
"#A c #40d1db",
".4 c #43d5de",
"#D c #46dbe6",
".I c #48dfe9",
"#T c #54bdd7",
"#g c #58acc5",
".B c #59c3da",
"#v c #5fc0d8",
"#s c #64a3bd",
".F c #71d1e0",
"#f c #80c2db",
".n c #819eba",
"#w c #8fcce2",
".V c #9ddeee",
"#p c #a0cbdf",
"#S c #a7dcec",
"#H c #bfdfee",
".2 c #cdebf6",
"#r c #d3e5f0",
".u c #ddeff8",
"#R c #dfeff8",
"#u c #e0f1fb",
".N c #e2f0f9",
"#q c #eff3fc",
"## c #fdfafd",
".A c #fdfcfd",
"#Y c #ffffff",
"QtQtQtQtQtQtQtQtQtQtQtQtQtQtQtQtQt.#.#.#.#.#.#.#.#.#.#.#.#.#.#.#",
"QtQtQt.a.a.a.a.a.a.a.a.a.a.b.cQtQt.#.#.#.#.#.#.#.#.#.#.#.#.#.#.#",
"QtQtQt.d.e.f.f.g.h.i.j.f.f.e.dQtQt.#.#.#.#.#.#.#.#.#.#.#.#.#.#.#",
"QtQtQt.k.b.l.m.n.o.p.q.r.s.b.cQtQt.#.#.#.#.#.#.#.#.#.#.#.#.#.#.#",
"QtQtQtQtQt.t.n.u.v.w.x.y.cQtQtQtQt.#.#.#.#.#.#.#.#.#.#.#.#.#.#.#",
"QtQtQtQt.z.n.A.B.C.v.D.x.y.cQtQtQt.#.#.#.#.#.#.#.#.#.#.#.#.#.#.#",
"QtQtQt.E.n.A.F.G.H.I.J.K.L.y.cQtQt.#.#.#.#.#.#.#.#.#.#.#.#.#.#.#",
"QtQt.M.n.N.B.G.O.O.H.C.P.Q.R.y.cQt.#.#.#.#.#.#.#.#.#.#.#.#.#.#.#",
"Qt.Q.S.T.a.U.V.O.W.X.Y.Z.a.a.a.y.c.#.#.#.#.#.#.#.#.#.#.#.#.#.#.#",
"Qt.d.0.i.1.Q.2.3.4.5.6.7.8.9.i#..d.#.#.#.#.#.#.#.#.#.#.#.#.#.#.#",
"Qt.k.b.l.s.Q##.3.4#a#b.8#c.s.s.b.c.#.#.#.#.#.#.#.#.#.#.#.#.#.#.#",
"QtQtQtQtQt.Q.2.3#d#e#b.9.sQtQtQtQt.#.#.#.#.#.#.#.#.#.#.#.#.#.#.#",
"QtQtQtQtQt.Q#f#g.W#h.a.9.sQtQtQtQt.#.#.#.#.#.#.#.#.#.#.#.#.#.#.#",
"QtQtQtQtQt.Q#i#j#k.a.a.9.sQtQtQtQt.#.#.#.#.#.#.#.#.#.#.#.#.#.#.#",
"QtQtQtQtQt.b#l.1.9.9.9.j.bQtQtQtQt.#.#.#.#.#.#.#.#.#.#.#.#.#.#.#",
"QtQtQtQtQt.k.b.l.s.s.s.b.cQtQtQtQtQtQtQtQtQtQtQtQtQtQtQtQtQtQtQt",
".#.#.#.#.#.#.#.#.#.#.#.#.#.#.#QtQtQtQtQtQtQtQtQtQtQtQtQtQtQtQtQt",
".#.#.#.#.#.#.#.#.#.#.#.#.#.#.#QtQtQtQtQt.g.g.g#m#n#o.b.cQtQtQtQt",
".#.#.#.#.#.#.#.#.#.#.#.#.#.#.#QtQtQtQtQt.g#p#q#r#s#t.j.bQtQtQtQt",
".#.#.#.#.#.#.#.#.#.#.#.#.#.#.#QtQtQtQtQt.g#u#v#w#x#y.9.sQtQtQtQt",
".#.#.#.#.#.#.#.#.#.#.#.#.#.#.#QtQtQtQtQt.g#q#z#A#B#C.9.sQtQtQtQt",
".#.#.#.#.#.#.#.#.#.#.#.#.#.#.#QtQtQtQtQt#m#u.O#D#E#F.9.sQtQtQtQt",
".#.#.#.#.#.#.#.#.#.#.#.#.#.#.#Qt#G.g.g#m#m#H#I#J#K#L#M#N#O#P.b.c",
".#.#.#.#.#.#.#.#.#.#.#.#.#.#.#Qt.d#G#Q#R#S#T#U.O#V.I.P#W#X.i#..d",
".#.#.#.#.#.#.#.#.#.#.#.#.#.#.#Qt.k.y#G#Q#Y#Z.O#0.I.P#W#1.7#2.y.c",
".#.#.#.#.#.#.#.#.#.#.#.#.#.#.#QtQt.k.y#G#Q#Y#3.I.P#W#4.7#2.y.cQt",
".#.#.#.#.#.#.#.#.#.#.#.#.#.#.#QtQtQt.k.y#G#Q#R.P#W#4.7#2.y.cQtQt",
".#.#.#.#.#.#.#.#.#.#.#.#.#.#.#QtQtQtQt.k.y#G#5#W#1.7#2.y.cQtQtQt",
".#.#.#.#.#.#.#.#.#.#.#.#.#.#.#QtQtQtQtQt.k.y#G#X.7#2.y.cQtQtQtQt",
".#.#.#.#.#.#.#.#.#.#.#.#.#.#.#QtQtQt.a.a.a.a.a.a.a.a.a.a.b.cQtQt",
".#.#.#.#.#.#.#.#.#.#.#.#.#.#.#QtQtQt.d.e.f.f#l.i.i.j.f.f.e.dQtQt",
".#.#.#.#.#.#.#.#.#.#.#.#.#.#.#QtQtQt.k.b.l.s.s.s.s.s.s.s.b.cQtQt"};
