/* XPM */
static char *mode_dot[]={
"32 32 2 1",
". c None",
"# c #ff0000",
"................................",
"................................",
"................................",
".....##.........................",
".....##.........................",
"........##......................",
"...##...##......................",
"...##...........................",
".........##.....................",
"...##....##.....................",
"...##...............##..........",
".........##.........##..........",
"..##.....##........##...........",
"..##...............##.##........",
"..........##..........##........",
".##.......##......##............",
".##...............##...##.......",
"..........##...........##.......",
".##.......##......##............",
".##...............##...##.......",
"...........##..........##.......",
"##.........##.##.##.............",
"##............##.##....##.......",
".......................##.......",
"##..............................",
"##.......................##.....",
".........................##.....",
"...........................##...",
"...........................####.",
".............................###",
"...............................#",
"................................"};
