/* XPM */
static char *prefs[]={
"34 34 161 2",
"Qt c None",
".# c #000000",
"ae c #010101",
".Z c #020202",
"#J c #020204",
".C c #020609",
"#t c #020e0c",
"#1 c #021214",
".0 c #0a1a1c",
".D c #0e1e1c",
"#. c #122a24",
".N c #123234",
".e c #171717",
".3 c #2a6a68",
"#V c #303031",
"aq c #322109",
"#I c #367e80",
"au c #373738",
"#7 c #39393a",
".u c #3a3a3b",
"#g c #3a8280",
"ap c #3b3b3c",
"#d c #3e3e3f",
"#i c #3e8688",
"#m c #3f3f40",
"ac c #424243",
"ai c #434344",
"#U c #454547",
".M c #464647",
".Y c #464648",
"#Q c #468e90",
".A c #474749",
".2 c #4a9290",
".t c #4b4b4b",
".L c #4d4d4e",
"ab c #4e4e4f",
".9 c #4e9698",
".7 c #4f4f50",
"at c #4f4f51",
".d c #505050",
"#L c #515152",
".Q c #529a98",
".X c #535353",
"#Z c #553910",
"aC c #569ea0",
".B c #575757",
".H c #575758",
"#c c #575759",
"#T c #595959",
"#6 c #5a5a5b",
"#P c #5aa2a0",
".W c #5b5b5c",
"#e c #5d5d5d",
"aw c #5ea6a8",
".v c #5f5f5f",
".f c #606060",
"#K c #626262",
"#G c #62aaa8",
"#o c #635920",
".G c #636363",
".F c #646464",
".n c #696969",
".I c #6b6b6b",
"#B c #6c6c6c",
".K c #6d6d6d",
".c c #6e6e6e",
"#s c #6eb6b8",
".m c #707070",
"#H c #72bab8",
"#C c #737373",
"#0 c #76bec0",
".z c #787878",
".a c #797979",
"#A c #7ac2c0",
".s c #7c7c7c",
".b c #7d7d7d",
"#N c #7e6f29",
"am c #7e7e7e",
".P c #7ec6c8",
".V c #7f7f7f",
"an c #808080",
"aE c #815719",
"#W c #815b20",
"#x c #82cac8",
".o c #838383",
".R c #858585",
"aB c #866327",
".w c #868686",
"#l c #878787",
"az c #886f2d",
".l c #898989",
"#D c #8a8a8a",
"#q c #8aced0",
"#2 c #8d8d8d",
"#h c #8ed2d0",
"af c #8f8f8f",
"aj c #916b34",
"#Y c #916f34",
".6 c #919191",
"#M c #928237",
"ao c #929292",
"#p c #92d6d8",
"#u c #939393",
"aa c #959595",
".E c #969696",
"as c #99743a",
"#5 c #999999",
"#f c #9adae0",
"#b c #9d9d9d",
"al c #9e7641",
".1 c #9edee0",
"#j c #a2a2a2",
".J c #a4a4a4",
".S c #a5a5a5",
"#S c #a6a6a6",
"aA c #a78446",
".k c #a7a7a7",
".r c #aaaaaa",
"#y c #aadada",
"#n c #ac993f",
"#R c #acacac",
"ag c #adadad",
".8 c #aededa",
"#O c #afe8ed",
"ay c #b18858",
"#k c #b1b1b1",
"#z c #b2e2e2",
".x c #b3b3b3",
"ak c #b48b57",
"ad c #b48d5b",
"#X c #b49257",
".U c #b5b5b5",
"av c #b68f63",
".h c #b6b6b6",
"#r c #b6e6e2",
"ar c #b78b58",
"a. c #b79658",
"#v c #b8b8b8",
"#a c #bbbbbb",
"#E c #bda44c",
".j c #c5c5c5",
".i c #c6c6c6",
"#F c #c6eef2",
"ah c #cacaca",
".T c #cccccc",
"#4 c #cdcdcd",
"#3 c #d0d0d0",
".y c #d2d2d2",
"#8 c #d3b186",
"#w c #d3bf7a",
".5 c #d3d3d3",
"## c #d4d4d4",
"ax c #d5b58c",
".g c #d6d6d6",
".4 c #dadada",
".O c #e8f2f2",
"aD c #ebd4b3",
".q c #ececec",
"#9 c #f0e0c8",
"a# c #fafafa",
".p c #ffffff",
"QtQtQtQtQtQtQtQtQtQtQtQtQtQtQt.#.#.#.#.#.#.#QtQtQtQtQtQtQtQtQtQtQtQt",
"QtQtQtQtQtQtQtQtQtQtQtQtQt.#.#.a.b.b.b.c.d.e.#QtQtQtQtQtQtQtQtQtQtQt",
"QtQtQtQtQtQtQtQtQtQtQtQt.#.f.a.g.h.i.j.k.l.m.#.#QtQtQtQtQtQtQtQtQtQt",
"QtQtQtQtQtQtQtQtQtQtQt.#.n.o.p.p.q.r.s.t.u.u.v.#QtQtQtQtQtQtQtQtQtQt",
"QtQtQtQtQtQtQtQt.#.#.#.#.w.x.y.p.z.A.t.B.#.#Qt.#.C.C.D.#QtQtQtQtQtQt",
"QtQtQtQtQtQtQt.#.E.f.F.G.H.I.J.K.L.M.#.#.#QtQt.N.O.P.Q.CQtQtQtQtQtQt",
"QtQtQtQtQtQt.#.v.R.S.T.U.V.W.X.Y.M.#.ZQtQtQt.0.O.1.2.3.CQtQtQtQtQtQt",
"QtQtQtQtQt.#.E.m.4.p.q.5.6.G.7.u.#.#QtQtQt.C.O.8.9.3.C.#Qt.0#..#QtQt",
"QtQtQtQtQt.#.f##.q.p.p#a#b#c#d#e.#QtQtQt.C.O#f#g.3.C.#Qt.C#h#i.DQtQt",
"QtQtQtQtQt.#.f#j##.q#k#l#m#n#o.#.#QtQtQt.C#p.8#g.C.#Qt.C#q#r#s#tQtQt",
"QtQtQtQtQt.#.a#u#v#k#l#m.p#w#n#o.#QtQtQt.C#x#y#z#g.C.C#x.O#A#i#tQtQt",
"Qt.#.#.#.##B#C#l#D.E#c#E#w.p#w#n#o.#QtQt.C#F#x#s#h#G.1.O#H#I.3#JQtQt",
".#.f.R.l.I#K.t.G#L.M#o#M#E#w.p#M#N#o.#.C.O#O#x#P#H#h#x#s#Q.3.C.#QtQt",
".f#R.q.T#S#l#T#U#V.A.##o#M#E#M#W#X#Y#Z.O#O#0.Q#I#g#g#g#g#1.C.#QtQtQt",
"#K#2#3.p#4#5#6#7.#.#.#.##o#N#N#8#9a.#Y#Z#0.2#I.3#J.C.C.C.#QtQtQtQtQt",
".#.f#l#3a#aaabac.#QtQt.#.##o#Wad#8#9#X#Y#Z#I.3#J.#QtQtQtQtQtQtQtQtQt",
".#ae#eafagah#6ai.#QtQtQt.#.##Zajad#8#9akal#Z#J.#QtQtQtQtQtQtQtQtQtQt",
"Qt.#am.Fanao.nap.#QtQtQtQt.##Jaqajad#8#9aras#Z.#QtQtQtQtQtQtQtQtQtQt",
"Qt.#.#.#atau.Y.#.#QtQtQt.##J.O#Oaqajad#8#9avaj#Z.#QtQtQtQtQtQtQtQtQt",
"QtQt.#.#.#.#.#.#QtQtQt.#.##F#O#sawaqajadax#9ayaz#Z.#QtQtQtQtQtQtQtQt",
"QtQtQtQt.#.#.#QtQtQt.#.C.O#O.Paw#I#Jaqajad#8#9aAaB#Z.#QtQtQtQtQtQtQt",
"QtQtQtQtQtQtQtQtQt.#.C.O#O#Aaw#I.3#J.#aqajad#8#9aAaB#Z.#QtQtQtQtQtQt",
"QtQtQtQtQtQtQtQt.#.C.O#O#GaC#I.3#J.#Qt.#aqajad#8aDayaz#Z.#QtQtQtQtQt",
"QtQtQtQtQtQtQt.#.C.O#O#H.Q#I.3#J.#QtQtQt.#aqajad#8aD#X#Y#Z.#QtQtQtQt",
"QtQtQtQtQtQt.#.C.O#O#A.Q#I.3.C.#QtQtQtQtQt.#aqajad#8aDa.#W#Z.#QtQtQt",
"QtQtQtQtQtQt.C.O#O.PaC#I.3.C.#QtQtQtQtQtQtQt.#aqajad#8aDaAaE#Z.#QtQt",
"QtQtQtQtQtQt.C#F#x#P#I.3.C.#QtQtQtQtQtQtQtQtQt.#aqajad#8#X#Yaq.#QtQt",
"QtQtQtQtQtQt.C#OaC#I.3.C.#QtQtQtQtQtQtQtQtQtQtQt.#aqaja.al#Zaq.#QtQt",
"QtQtQtQtQtQt.#.C.C.D.C.#QtQtQtQtQtQtQtQtQtQtQtQtQt.#aqaj#Z#Z#Z.#QtQt",
"QtQtQtQtQtQtQtQtQtQtQtQtQtQtQtQtQtQtQtQtQtQtQtQtQtQt.#aqaq#Z.#.#QtQt",
"QtQtQtQtQtQtQtQtQtQtQtQtQtQtQtQtQtQtQtQtQtQtQtQtQtQtQt.#.#.#.#QtQtQt",
"QtQtQtQtQtQtQtQtQtQtQtQtQtQtQtQtQtQtQtQtQtQtQtQtQtQtQtQtQtQtQtQtQtQt",
"QtQtQtQtQtQtQtQtQtQtQtQtQtQtQtQtQtQtQtQtQtQtQtQtQtQtQtQtQtQtQtQtQtQt",
"QtQtQtQtQtQtQtQtQtQtQtQtQtQtQtQtQtQtQtQtQtQtQtQtQtQtQtQtQtQtQtQtQtQt"};
