/* XPM */
static char * attr03_xpm[] = {
"32 32 535 2",
"  	c None",
". 	c #693D1A",
"+ 	c #6A3A1E",
"@ 	c #69381E",
"# 	c #6D3D21",
"$ 	c #724224",
"% 	c #724124",
"& 	c #703D1F",
"* 	c #5B2F16",
"= 	c #4C2713",
"- 	c #1F0A0A",
"; 	c #000000",
"> 	c #66391E",
", 	c #6F3D22",
"' 	c #82502F",
") 	c #9E7444",
"! 	c #B9965A",
"~ 	c #CCAD6C",
"{ 	c #D7BC79",
"] 	c #D8C07B",
"^ 	c #D0B670",
"/ 	c #B09362",
"( 	c #946A3F",
"_ 	c #73431F",
": 	c #3D2010",
"< 	c #55301C",
"[ 	c #683B21",
"} 	c #946539",
"| 	c #C49F54",
"1 	c #CAC361",
"2 	c #FEE589",
"3 	c #FFF194",
"4 	c #FFF39A",
"5 	c #FFF89D",
"6 	c #F8EFA8",
"7 	c #BEC7D2",
"8 	c #B0C0EA",
"9 	c #A6B2DA",
"0 	c #A9A094",
"a 	c #9C7144",
"b 	c #5D321A",
"c 	c #160B05",
"d 	c #452E17",
"e 	c #562F1B",
"f 	c #8A582F",
"g 	c #D3A657",
"h 	c #FFDA73",
"i 	c #ADD264",
"j 	c #64BA54",
"k 	c #E6D277",
"l 	c #FFE98F",
"m 	c #FFEC91",
"n 	c #F1E39C",
"o 	c #96A6E4",
"p 	c #B5C6FF",
"q 	c #D6E1FF",
"r 	c #CFDCFF",
"s 	c #9CB3FE",
"t 	c #C5CBBC",
"u 	c #B69761",
"v 	c #64361C",
"w 	c #110505",
"x 	c #341E0F",
"y 	c #744226",
"z 	c #B38041",
"A 	c #FECC65",
"B 	c #F1D764",
"C 	c #A4C24F",
"D 	c #A3DDA8",
"E 	c #B7D6A3",
"F 	c #E2CD6C",
"G 	c #F6E385",
"H 	c #FEEC8D",
"I 	c #DBD0A5",
"J 	c #85A1FF",
"K 	c #A7C0FF",
"L 	c #A2BBFF",
"M 	c #A4BDFF",
"N 	c #99B3FF",
"O 	c #B8C2C7",
"P 	c #FFFFBD",
"Q 	c #AD8C5F",
"R 	c #552B15",
"S 	c #6C4023",
"T 	c #CE9A47",
"U 	c #F0D059",
"V 	c #8CBD40",
"W 	c #62B94D",
"X 	c #76CB7A",
"Y 	c #A8E1AC",
"Z 	c #87CB7E",
"` 	c #96C96F",
" .	c #60B546",
"..	c #D9D176",
"+.	c #FDED94",
"@.	c #B3B8BD",
"#.	c #638BFD",
"$.	c #658EFF",
"%.	c #5F87FB",
"&.	c #C4C9B9",
"*.	c #FFFFBF",
"=.	c #F5F2B3",
"-.	c #8C5F3B",
";.	c #281309",
">.	c #120606",
",.	c #734524",
"'.	c #DCA446",
").	c #FFD65E",
"!.	c #8EB331",
"~.	c #24AF38",
"{.	c #68C96D",
"].	c #6FCA6F",
"^.	c #76CD78",
"/.	c #66C76F",
"(.	c #85B454",
"_.	c #F0DA83",
":.	c #FFF28F",
"<.	c #DAD2A6",
"[.	c #4271FC",
"}.	c #3E71FF",
"|.	c #3F72FF",
"1.	c #386EFF",
"2.	c #5C81EB",
"3.	c #DFE3BA",
"4.	c #FFFFC6",
"5.	c #C5AB78",
"6.	c #532A15",
"7.	c #7A4A25",
"8.	c #DEA340",
"9.	c #FFCD50",
"0.	c #FFCB57",
"a.	c #DAC04D",
"b.	c #4AA728",
"c.	c #2BB02F",
"d.	c #38B538",
"e.	c #3EB73E",
"f.	c #3BB63E",
"g.	c #7BB045",
"h.	c #F5D67F",
"i.	c #FFEB8B",
"j.	c #E9DA9B",
"k.	c #577EF2",
"l.	c #3A6FFF",
"m.	c #3D70FF",
"n.	c #4471F7",
"o.	c #5377E9",
"p.	c #C6CCB7",
"q.	c #FFFFC1",
"r.	c #EBE2A4",
"s.	c #794A27",
"t.	c #0A0500",
"u.	c #633C1E",
"v.	c #AB802F",
"w.	c #554318",
"x.	c #181207",
"y.	c #050301",
"z.	c #171208",
"A.	c #433E18",
"B.	c #067F04",
"C.	c #08A409",
"D.	c #0BA50E",
"E.	c #0DA30E",
"F.	c #9FB94E",
"G.	c #C4B06A",
"H.	c #51492B",
"I.	c #211E14",
"J.	c #030409",
"K.	c #000103",
"L.	c #030610",
"M.	c #151C2F",
"N.	c #726F55",
"O.	c #E3DFA2",
"P.	c #FDFBB6",
"Q.	c #FFFFC0",
"R.	c #FCFAB8",
"S.	c #91643A",
"T.	c #1D0D05",
"U.	c #482C15",
"V.	c #7D521E",
"W.	c #030100",
"X.	c #000200",
"Y.	c #006600",
"Z.	c #009A00",
"`.	c #009C00",
" +	c #26A213",
".+	c #7C723F",
"++	c #3C3C2A",
"@+	c #FEFDB8",
"#+	c #FFFFBE",
"$+	c #FFFEBC",
"%+	c #A17848",
"&+	c #1F0F04",
"*+	c #1E0F07",
"=+	c #8B5C23",
"-+	c #080501",
";+	c #7C571C",
">+	c #B9792D",
",+	c #7B602A",
"'+	c #050602",
")+	c #899D3A",
"!+	c #47A420",
"~+	c #18980B",
"{+	c #7C7C3E",
"]+	c #71653C",
"^+	c #A8975C",
"/+	c #BFB16B",
"(+	c #B2A465",
"_+	c #3F3D2F",
":+	c #CDCA93",
"<+	c #A67D4A",
"[+	c #220F04",
"}+	c #623E1B",
"|+	c #694D15",
"1+	c #522B28",
"2+	c #FC7563",
"3+	c #FD5656",
"4+	c #EF6C2E",
"5+	c #4A401A",
"6+	c #776435",
"7+	c #FDD471",
"8+	c #E5CA6C",
"9+	c #F8D97B",
"0+	c #FFE384",
"a+	c #FFE58B",
"b+	c #FFE891",
"c+	c #FFEC96",
"d+	c #F4E994",
"e+	c #C4C08A",
"f+	c #FFFFBC",
"g+	c #FEFDBB",
"h+	c #A47742",
"i+	c #241206",
"j+	c #1F1306",
"k+	c #B36A24",
"l+	c #311B07",
"m+	c #95484A",
"n+	c #FF8084",
"o+	c #FF6972",
"p+	c #EC4C24",
"q+	c #907833",
"r+	c #332A15",
"s+	c #FFD972",
"t+	c #FFDD79",
"u+	c #FFDE7D",
"v+	c #FFE182",
"w+	c #FFE489",
"x+	c #FFE78E",
"y+	c #ECD988",
"z+	c #837A4F",
"A+	c #2A281C",
"B+	c #FAF5AF",
"C+	c #FFFFBB",
"D+	c #FAF5B4",
"E+	c #9A6833",
"F+	c #1C0F05",
"G+	c #5B3D18",
"H+	c #E78422",
"I+	c #0D0100",
"J+	c #AF1414",
"K+	c #FF1D1E",
"L+	c #FF0B15",
"M+	c #E96229",
"N+	c #AA8E3C",
"O+	c #0F0C06",
"P+	c #FFD76E",
"Q+	c #FFD974",
"R+	c #FFDD7A",
"S+	c #FFE080",
"T+	c #2B2616",
"U+	c #060503",
"V+	c #6F6947",
"W+	c #ECE39E",
"X+	c #FFF9B1",
"Y+	c #EBDE9D",
"Z+	c #8E5B27",
"`+	c #070300",
" @	c #A36924",
".@	c #FDB526",
"+@	c #020100",
"@@	c #B60000",
"#@	c #F3260C",
"$@	c #EA591F",
"%@	c #EBA140",
"&@	c #B5913D",
"*@	c #030201",
"=@	c #FFD66D",
"-@	c #FFD973",
";@	c #FFDC79",
">@	c #FFDF7F",
",@	c #1E1C13",
"'@	c #C8C085",
")@	c #FFF8AF",
"!@	c #DBC07D",
"~@	c #724416",
"{@	c #2D190C",
"]@	c #D08A25",
"^@	c #FFB423",
"/@	c #0D0A02",
"(@	c #AF0000",
"_@	c #F51D0A",
":@	c #EEBC44",
"<@	c #FECB4E",
"[@	c #AD8738",
"}@	c #0F0C05",
"|@	c #FFD46B",
"1@	c #FFD871",
"2@	c #FFDB78",
"3@	c #CEB66A",
"4@	c #C1AC67",
"5@	c #A2925A",
"6@	c #2F2B1B",
"7@	c #1A1811",
"8@	c #F8F1A9",
"9@	c #FFFDB7",
"0@	c #C89B57",
"a@	c #502E0E",
"b@	c #4F3112",
"c@	c #EDA027",
"d@	c #FFB221",
"e@	c #312307",
"f@	c #88290C",
"g@	c #F2230B",
"h@	c #EE8932",
"i@	c #FFCC4D",
"j@	c #92712E",
"k@	c #332914",
"l@	c #FFD469",
"m@	c #FFD770",
"n@	c #FFDA76",
"o@	c #FFDD7C",
"p@	c #FFE082",
"q@	c #FFE488",
"r@	c #FFE68E",
"s@	c #E3D083",
"t@	c #C6C287",
"u@	c #F9EFA7",
"v@	c #B07835",
"w@	c #301C09",
"x@	c #774E1C",
"y@	c #F9AD2B",
"z@	c #FFB020",
"A@	c #755612",
"B@	c #4A3510",
"C@	c #F39530",
"D@	c #EB9835",
"E@	c #FFC74B",
"F@	c #4E3C18",
"G@	c #76602D",
"H@	c #FFD368",
"I@	c #F8D470",
"J@	c #FFE081",
"K@	c #FFE387",
"L@	c #FFE68C",
"M@	c #E5D183",
"N@	c #C2C187",
"O@	c #E3C87F",
"P@	c #915B1E",
"Q@	c #0A0300",
"R@	c #895E24",
"S@	c #FFB52E",
"T@	c #FFAE20",
"U@	c #DD9D20",
"V@	c #7D5F1D",
"W@	c #BC8F31",
"X@	c #7B5D22",
"Y@	c #0A0803",
"Z@	c #DFB555",
"`@	c #FFD267",
" #	c #FFD66C",
".#	c #18140A",
"+#	c #726135",
"@#	c #AD9755",
"##	c #C0AA63",
"$#	c #A49358",
"%#	c #312C1B",
"&#	c #0A0906",
"*#	c #F1E9A1",
"=#	c #CB974B",
"-#	c #5C3811",
";#	c #936729",
">#	c #FFB931",
",#	c #FFAE1F",
"'#	c #FFAE22",
")#	c #9F7219",
"!#	c #020200",
"~#	c #030200",
"{#	c #A48239",
"]#	c #FFD062",
"^#	c #FFD264",
"/#	c #FFD56B",
"(#	c #010000",
"_#	c #9C9565",
":#	c #EBCF82",
"<#	c #AA6D24",
"[#	c #1C1004",
"}#	c #966D2E",
"|#	c #FFBD39",
"1#	c #FFAD1E",
"2#	c #FFAE21",
"3#	c #FFB126",
"4#	c #C98E22",
"5#	c #533B10",
"6#	c #171005",
"7#	c #161208",
"8#	c #534623",
"9#	c #CAA044",
"0#	c #FFC955",
"a#	c #FFD163",
"b#	c #7A6635",
"c#	c #3C331B",
"d#	c #141109",
"e#	c #080704",
"f#	c #231F13",
"g#	c #5D5434",
"h#	c #C9B670",
"i#	c #956B2F",
"j#	c #FFC447",
"k#	c #FFAC1C",
"l#	c #FFAF24",
"m#	c #FFB32A",
"n#	c #FFB830",
"o#	c #F5B036",
"p#	c #C98F38",
"q#	c #956728",
"r#	c #C0872E",
"s#	c #FFD870",
"t#	c #FFE385",
"u#	c #FFEA93",
"v#	c #FFF39E",
"w#	c #EBC268",
"x#	c #AC6E21",
"y#	c #181104",
"z#	c #281605",
"A#	c #DDA542",
"B#	c #FFCD55",
"C#	c #FFCF5F",
"D#	c #FFD96E",
"E#	c #FFE07A",
"F#	c #FFDE7A",
"G#	c #FFDF7D",
"H#	c #FFE284",
"I#	c #FFE88D",
"J#	c #FFEC94",
"K#	c #C9852B",
"L#	c #634114",
"M#	c #F8CB6A",
"N#	c #FFBA32",
"O#	c #FFAC1E",
"P#	c #FFAF21",
"Q#	c #FFB527",
"R#	c #E69E2C",
"S#	c #442C0F",
"T#	c #FFCB52",
"U#	c #FED064",
"V#	c #F4C666",
"W#	c #EDC063",
"X#	c #FCD475",
"Y#	c #FFE687",
"Z#	c #FFE789",
"`#	c #FFE588",
" $	c #FBDB7F",
".$	c #E9B353",
"+$	c #C28027",
"@$	c #533610",
"#$	c #271504",
"$$	c #DCAC55",
"%$	c #FFD466",
"&$	c #FFAB1B",
"*$	c #FFB526",
"=$	c #BC7E23",
"-$	c #030000",
";$	c #150A00",
">$	c #D29432",
",$	c #FFCB51",
"'$	c #D79B3C",
")$	c #774D16",
"!$	c #472C0B",
"~$	c #563912",
"{$	c #8C6629",
"]$	c #C59645",
"^$	c #D29B41",
"/$	c #BD812B",
"($	c #8B5A19",
"_$	c #2F1F08",
":$	c #996922",
"<$	c #FFE086",
"[$	c #FFC448",
"}$	c #FFAA18",
"|$	c #FFB625",
"1$	c #A5701D",
"2$	c #704914",
"3$	c #F3AF3D",
"4$	c #FFCA50",
"5$	c #E3A138",
"6$	c #1F1002",
"7$	c #0D0800",
"8$	c #341D03",
"9$	c #DEA648",
"0$	c #FFC144",
"a$	c #FFAF19",
"b$	c #DB9521",
"c$	c #2D1D08",
"d$	c #482400",
"e$	c #A96F21",
"f$	c #CF8E2B",
"g$	c #FEC145",
"h$	c #FFBF46",
"i$	c #8B5E1C",
"j$	c #69440F",
"k$	c #F0B958",
"l$	c #FFF0A0",
"m$	c #FFB52B",
"n$	c #E19621",
"o$	c #D48D24",
"p$	c #E79E2D",
"q$	c #FFCE60",
"r$	c #B77E25",
"s$	c #FBD87E",
"t$	c #FFD05C",
"u$	c #503309",
"v$	c #C18224",
"w$	c #F1B952",
"x$	c #FCE490",
"y$	c #FAE28E",
"z$	c #F9CE6F",
"A$	c #EEAA3D",
"B$	c #56380F",
"C$	c #0C0800",
"D$	c #56380B",
"E$	c #966216",
"F$	c #C28425",
"G$	c #D28F2A",
"H$	c #AE741C",
"I$	c #53360D",
"J$	c #0B0800",
"                              . + @ # $ % & * = -               ",
"                        ; > , ' ) ! ~ { ] ^ / ( _ : ;           ",
"                      < [ } | 1 2 3 4 5 6 7 8 9 0 a b c         ",
"                  d e f g h i j k l m n o p q r s t u v w       ",
"                x y z A B C D E F G H I J K L M N O P Q R ;     ",
"              w S T U V W X Y Z `  ...+.@.#.$.$.%.&.*.=.-.;.    ",
"            >.,.'.).!.~.{.].].^./.(._.:.<.[.}.|.1.2.3.4.5.6.;   ",
"          - 7.8.9.0.a.b.c.d.e.f.g.h.i.j.k.l.|.m.n.o.p.q.r.s.t.  ",
"        ; u.v.w.x.y.z.A.B.C.D.E.F.G.H.I.J.K.L.M.N.O.P.Q.R.S.T.  ",
"        U.V.W.; ; ; ; ; X.Y.Z.`. +.+; ; ; ; ; ; ; ++@+#+$+%+&+  ",
"      *+=+-+; ; ;+>+,+; ; '+)+!+~+{+]+^+/+(+_+; ; ; :+#+$+<+[+  ",
"      }+|+; ; 1+2+3+4+5+; ; 6+7+8+9+0+a+b+c+d+; ; ; e+f+g+h+i+  ",
"    j+k+l+; ; m+n+o+p+q+; ; r+s+t+u+v+w+x+y+z+; ; A+B+C+D+E+F+  ",
"    G+H+I+; ; J+K+L+M+N+; ; O+P+Q+R+S+T+; ; ; U+V+W+X+P Y+Z+`+  ",
"  ;  @.@+@; ; @@#@$@%@&@; ; *@=@-@;@>@T+; ; ; ; ,@'@)@#+!@~@;   ",
"  {@]@^@/@; ; (@_@:@<@[@; ; }@|@1@2@u+3@4@5@6@; ; 7@8@9@0@a@;   ",
"  b@c@d@e@; ; f@g@h@i@j@; ; k@l@m@n@o@p@q@r@s@; ; ; t@u@v@w@    ",
"  x@y@z@A@; ; B@C@D@E@F@; ; G@H@P+I@R+J@K@L@M@; ; ; N@O@P@Q@    ",
"  R@S@T@U@`+; ; V@W@X@; ; Y@Z@`@ #.#+#@###$#%#; ; &#*#=#-#;     ",
"  ;#>#,#'#)#!#; ; ; ; ; ~#{#]#^#/#; ; ; ; ; ; ; (#_#:#<#[#      ",
"  }#|#1#2#3#4#5#6#y.7#8#9#0#]#a#l@b#c#d#*@e#f#g#h#:#<#<#[#      ",
"  i#j#k#2#l#m#n#o#p#q#r#2#s#]#s#s#s#s#s#s#t#a+u#v#w#x#y#        ",
"  i#k#2#2#2#2#2#2#q#q#z#A#B#]#C#D#E#F#R+G#H#I#J#w#K#; ;         ",
"  L#M#N#O#P#Q#R#S#;   ; r#T#]#U#V#W#X#Y#Z#`# $.$+$@$            ",
"  #$$$%$&$T@*$=$-$    ;$>$,$]#'$)$!$~${$]$^$/$($_$;             ",
"  ; :$<$[$}$|$1$;     2$3$4$5$)$; ; ; ; Q@6$7$; ;               ",
"    8$9$c+0$a$b$c$d$e$f$g$h$i$;                                 ",
"    ; j$k$l$%$m$n$o$p$p$q$r$;                                   ",
"      ; j$k$l$s$s$s$s$t$q$r$;                                   ",
"        ; u$v$w$s$x$y$z$A$B$;                                   ",
"            C$D$E$F$G$H$I$;                                     ",
"              ; ; `+J$; ;                                       "};
