/* XPM */
static char * attr08_xpm[] = {
"32 32 527 2",
"  	c None",
". 	c #693D1A",
"+ 	c #6A3A1E",
"@ 	c #69381E",
"# 	c #6D3D21",
"$ 	c #724224",
"% 	c #724124",
"& 	c #703D1F",
"* 	c #5B2F16",
"= 	c #4C2713",
"- 	c #1F0A0A",
"; 	c #000000",
"> 	c #66391E",
", 	c #6F3D22",
"' 	c #82502F",
") 	c #9E7444",
"! 	c #B9965A",
"~ 	c #CCAD6C",
"{ 	c #D7BC79",
"] 	c #D8C07B",
"^ 	c #D0B670",
"/ 	c #B09362",
"( 	c #946A3F",
"_ 	c #73431F",
": 	c #3D2010",
"< 	c #55301C",
"[ 	c #683B21",
"} 	c #946539",
"| 	c #C49F54",
"1 	c #CAC361",
"2 	c #FEE589",
"3 	c #FFF194",
"4 	c #FFF39A",
"5 	c #FFF89D",
"6 	c #F8EFA8",
"7 	c #BEC7D2",
"8 	c #B0C0EA",
"9 	c #A6B2DA",
"0 	c #A9A094",
"a 	c #9C7144",
"b 	c #5D321A",
"c 	c #160B05",
"d 	c #452E17",
"e 	c #562F1B",
"f 	c #8A582F",
"g 	c #D3A657",
"h 	c #FFDA73",
"i 	c #ADD264",
"j 	c #64BA54",
"k 	c #E6D277",
"l 	c #FFE98F",
"m 	c #FFEC91",
"n 	c #F1E39C",
"o 	c #96A6E4",
"p 	c #B5C6FF",
"q 	c #D6E1FF",
"r 	c #CFDCFF",
"s 	c #9CB3FE",
"t 	c #C5CBBC",
"u 	c #B69761",
"v 	c #64361C",
"w 	c #110505",
"x 	c #341E0F",
"y 	c #744226",
"z 	c #B38041",
"A 	c #FECC65",
"B 	c #F1D764",
"C 	c #A4C24F",
"D 	c #A3DDA8",
"E 	c #B7D6A3",
"F 	c #E2CD6C",
"G 	c #F6E385",
"H 	c #FEEC8D",
"I 	c #DBD0A5",
"J 	c #85A1FF",
"K 	c #A7C0FF",
"L 	c #A2BBFF",
"M 	c #A4BDFF",
"N 	c #99B3FF",
"O 	c #B8C2C7",
"P 	c #FFFFBD",
"Q 	c #AD8C5F",
"R 	c #552B15",
"S 	c #6C4023",
"T 	c #CE9A47",
"U 	c #F0D059",
"V 	c #8CBD40",
"W 	c #62B94D",
"X 	c #76CB7A",
"Y 	c #A8E1AC",
"Z 	c #87CB7E",
"` 	c #96C96F",
" .	c #60B546",
"..	c #D9D176",
"+.	c #FDED94",
"@.	c #B3B8BD",
"#.	c #638BFD",
"$.	c #658EFF",
"%.	c #5F87FB",
"&.	c #C4C9B9",
"*.	c #FFFFBF",
"=.	c #F5F2B3",
"-.	c #8C5F3B",
";.	c #281309",
">.	c #120606",
",.	c #734524",
"'.	c #DCA446",
").	c #FFD65E",
"!.	c #8EB331",
"~.	c #24AF38",
"{.	c #68C96D",
"].	c #6FCA6F",
"^.	c #76CD78",
"/.	c #66C76F",
"(.	c #85B454",
"_.	c #F0DA83",
":.	c #FFF28F",
"<.	c #DAD2A6",
"[.	c #4271FC",
"}.	c #3E71FF",
"|.	c #3F72FF",
"1.	c #386EFF",
"2.	c #5C81EB",
"3.	c #DFE3BA",
"4.	c #FFFFC6",
"5.	c #C5AB78",
"6.	c #532A15",
"7.	c #7A4A25",
"8.	c #DEA340",
"9.	c #FFCD50",
"0.	c #FFCB57",
"a.	c #DAC04D",
"b.	c #4AA728",
"c.	c #2BB02F",
"d.	c #38B538",
"e.	c #3EB73E",
"f.	c #3BB63E",
"g.	c #7BB045",
"h.	c #F5D67F",
"i.	c #FFEB8B",
"j.	c #E9DA9B",
"k.	c #577EF2",
"l.	c #3A6FFF",
"m.	c #3D70FF",
"n.	c #4471F7",
"o.	c #5377E9",
"p.	c #C6CCB7",
"q.	c #FFFFC1",
"r.	c #EBE2A4",
"s.	c #794A27",
"t.	c #0A0500",
"u.	c #633C1E",
"v.	c #AB802F",
"w.	c #554318",
"x.	c #181207",
"y.	c #050301",
"z.	c #171208",
"A.	c #433E18",
"B.	c #067F04",
"C.	c #08A409",
"D.	c #0BA50E",
"E.	c #0DA30E",
"F.	c #9FB94E",
"G.	c #FFE58A",
"H.	c #B1A15E",
"I.	c #47412C",
"J.	c #090C18",
"K.	c #010206",
"L.	c #010205",
"M.	c #0A0D16",
"N.	c #403F30",
"O.	c #A4A175",
"P.	c #FDFBB6",
"Q.	c #FFFFC0",
"R.	c #FCFAB8",
"S.	c #91643A",
"T.	c #1D0D05",
"U.	c #482C15",
"V.	c #7D521E",
"W.	c #030100",
"X.	c #000200",
"Y.	c #006600",
"Z.	c #009A00",
"`.	c #009C00",
" +	c #26A213",
".+	c #7C723F",
"++	c #8B8A64",
"@+	c #FFFFBE",
"#+	c #FFFEBC",
"$+	c #A17848",
"%+	c #1F0F04",
"&+	c #1E0F07",
"*+	c #8B5C23",
"=+	c #080501",
"-+	c #7C571C",
";+	c #B9792D",
">+	c #7B602A",
",+	c #050602",
"'+	c #899D3A",
")+	c #47A420",
"!+	c #18980B",
"~+	c #101008",
"{+	c #38341F",
"]+	c #B2A465",
"^+	c #958F70",
"/+	c #2A2A23",
"(+	c #171610",
"_+	c #A67D4A",
":+	c #220F04",
"<+	c #623E1B",
"[+	c #694D15",
"}+	c #522B28",
"|+	c #FC7563",
"1+	c #FD5656",
"2+	c #EF6C2E",
"3+	c #4A401A",
"4+	c #776435",
"5+	c #FDD471",
"6+	c #E5CA6C",
"7+	c #0B0A05",
"8+	c #AB9B61",
"9+	c #FFEC96",
"0+	c #FFF49B",
"a+	c #AAA46B",
"b+	c #0B0A07",
"c+	c #FFFFBC",
"d+	c #FEFDBB",
"e+	c #A47742",
"f+	c #241206",
"g+	c #1F1306",
"h+	c #B36A24",
"i+	c #311B07",
"j+	c #95484A",
"k+	c #FF8084",
"l+	c #FF6972",
"m+	c #EC4C24",
"n+	c #907833",
"o+	c #332A15",
"p+	c #FFD972",
"q+	c #FFDD79",
"r+	c #746438",
"s+	c #38321F",
"t+	c #B2A467",
"u+	c #B2A66B",
"v+	c #363322",
"w+	c #696649",
"x+	c #FFFFBB",
"y+	c #FAF5B4",
"z+	c #9A6833",
"A+	c #1C0F05",
"B+	c #5B3D18",
"C+	c #E78422",
"D+	c #0D0100",
"E+	c #AF1414",
"F+	c #FF1D1E",
"G+	c #FF0B15",
"H+	c #E96229",
"I+	c #AA8E3C",
"J+	c #0F0C06",
"K+	c #FFD76E",
"L+	c #FFD974",
"M+	c #FEDC79",
"N+	c #9F8B4F",
"O+	c #282315",
"P+	c #13120C",
"Q+	c #8E885F",
"R+	c #FCF6AE",
"S+	c #EBDE9D",
"T+	c #8E5B27",
"U+	c #070300",
"V+	c #A36924",
"W+	c #FDB526",
"X+	c #020100",
"Y+	c #B60000",
"Z+	c #F3260C",
"`+	c #EA591F",
" @	c #EBA140",
".@	c #B5913D",
"+@	c #030201",
"@@	c #FFD66D",
"#@	c #FFD973",
"$@	c #F6D474",
"%@	c #5F532F",
"&@	c #020101",
"*@	c #383525",
"=@	c #DBD496",
"-@	c #DBC07D",
";@	c #724416",
">@	c #2D190C",
",@	c #D08A25",
"'@	c #FFB423",
")@	c #0D0A02",
"!@	c #AF0000",
"~@	c #F51D0A",
"{@	c #EEBC44",
"]@	c #FECB4E",
"^@	c #AD8738",
"/@	c #0F0C05",
"(@	c #FFD46B",
"_@	c #FFD871",
":@	c #665730",
"<@	c #37311D",
"[@	c #E3CD7F",
"}@	c #F1DE8C",
"|@	c #6E6642",
"1@	c #252319",
"2@	c #FBF9B4",
"3@	c #C89B57",
"4@	c #502E0E",
"5@	c #4F3112",
"6@	c #EDA027",
"7@	c #FFB221",
"8@	c #312307",
"9@	c #88290C",
"0@	c #F2230B",
"a@	c #EE8932",
"b@	c #FFCC4D",
"c@	c #92712E",
"d@	c #332914",
"e@	c #FFD469",
"f@	c #FFD770",
"g@	c #100D07",
"h@	c #A79559",
"i@	c #FFE68E",
"j@	c #FFEA94",
"k@	c #F0DF90",
"l@	c #C4BC83",
"m@	c #B07835",
"n@	c #301C09",
"o@	c #774E1C",
"p@	c #F9AD2B",
"q@	c #FFB020",
"r@	c #755612",
"s@	c #4A3510",
"t@	c #F39530",
"u@	c #EB9835",
"v@	c #FFC74B",
"w@	c #4E3C18",
"x@	c #76602D",
"y@	c #FFD368",
"z@	c #080603",
"A@	c #9A8951",
"B@	c #FFE68C",
"C@	c #FFE992",
"D@	c #E2D287",
"E@	c #AB9760",
"F@	c #915B1E",
"G@	c #0A0300",
"H@	c #895E24",
"I@	c #FFB52E",
"J@	c #FFAE20",
"K@	c #DD9D20",
"L@	c #7D5F1D",
"M@	c #BC8F31",
"N@	c #7B5D22",
"O@	c #0A0803",
"P@	c #DFB555",
"Q@	c #FFD267",
"R@	c #FFD66C",
"S@	c #3D331B",
"T@	c #1B170D",
"U@	c #A39258",
"V@	c #B5A466",
"W@	c #403B25",
"X@	c #050504",
"Y@	c #BE8D46",
"Z@	c #5C3811",
"`@	c #936729",
" #	c #FFB931",
".#	c #FFAE1F",
"+#	c #FFAE22",
"@#	c #9F7219",
"##	c #020200",
"$#	c #030200",
"%#	c #A48239",
"&#	c #FFD062",
"*#	c #FFD264",
"=#	c #FFD56B",
"-#	c #C5A656",
";#	c #090704",
">#	c #7D6E45",
",#	c #AA6D24",
"'#	c #1C1004",
")#	c #966D2E",
"!#	c #FFBD39",
"~#	c #FFAD1E",
"{#	c #FFAE21",
"]#	c #FFB126",
"^#	c #C98E22",
"/#	c #533B10",
"(#	c #171005",
"_#	c #161208",
":#	c #534623",
"<#	c #CAA044",
"[#	c #FFC955",
"}#	c #FFD163",
"|#	c #FFD66F",
"1#	c #D7B762",
"2#	c #63552F",
"3#	c #231E11",
"4#	c #070603",
"5#	c #040302",
"6#	c #17140C",
"7#	c #4C452A",
"8#	c #A4915B",
"9#	c #956B2F",
"0#	c #FFC447",
"a#	c #FFAC1C",
"b#	c #FFAF24",
"c#	c #FFB32A",
"d#	c #FFB830",
"e#	c #F5B036",
"f#	c #C98F38",
"g#	c #956728",
"h#	c #C0872E",
"i#	c #FFD870",
"j#	c #FFE385",
"k#	c #FFE58B",
"l#	c #FFEA93",
"m#	c #FFF39E",
"n#	c #EBC268",
"o#	c #AC6E21",
"p#	c #181104",
"q#	c #281605",
"r#	c #DDA542",
"s#	c #FFCD55",
"t#	c #FFCF5F",
"u#	c #FFD96E",
"v#	c #FFE07A",
"w#	c #FFDE7A",
"x#	c #FFDD7A",
"y#	c #FFDF7D",
"z#	c #FFE284",
"A#	c #FFE88D",
"B#	c #FFEC94",
"C#	c #C9852B",
"D#	c #634114",
"E#	c #F8CB6A",
"F#	c #FFBA32",
"G#	c #FFAC1E",
"H#	c #FFAF21",
"I#	c #FFB527",
"J#	c #E69E2C",
"K#	c #442C0F",
"L#	c #FFCB52",
"M#	c #FED064",
"N#	c #F4C666",
"O#	c #EDC063",
"P#	c #FCD475",
"Q#	c #FFE687",
"R#	c #FFE789",
"S#	c #FFE588",
"T#	c #FBDB7F",
"U#	c #E9B353",
"V#	c #C28027",
"W#	c #533610",
"X#	c #271504",
"Y#	c #DCAC55",
"Z#	c #FFD466",
"`#	c #FFAB1B",
" $	c #FFB526",
".$	c #BC7E23",
"+$	c #030000",
"@$	c #150A00",
"#$	c #D29432",
"$$	c #FFCB51",
"%$	c #D79B3C",
"&$	c #774D16",
"*$	c #472C0B",
"=$	c #563912",
"-$	c #8C6629",
";$	c #C59645",
">$	c #D29B41",
",$	c #BD812B",
"'$	c #8B5A19",
")$	c #2F1F08",
"!$	c #996922",
"~$	c #FFE086",
"{$	c #FFC448",
"]$	c #FFAA18",
"^$	c #FFB625",
"/$	c #A5701D",
"($	c #704914",
"_$	c #F3AF3D",
":$	c #FFCA50",
"<$	c #E3A138",
"[$	c #1F1002",
"}$	c #0D0800",
"|$	c #341D03",
"1$	c #DEA648",
"2$	c #FFC144",
"3$	c #FFAF19",
"4$	c #DB9521",
"5$	c #2D1D08",
"6$	c #482400",
"7$	c #A96F21",
"8$	c #CF8E2B",
"9$	c #FEC145",
"0$	c #FFBF46",
"a$	c #8B5E1C",
"b$	c #69440F",
"c$	c #F0B958",
"d$	c #FFF0A0",
"e$	c #FFB52B",
"f$	c #E19621",
"g$	c #D48D24",
"h$	c #E79E2D",
"i$	c #FFCE60",
"j$	c #B77E25",
"k$	c #FBD87E",
"l$	c #FFD05C",
"m$	c #503309",
"n$	c #C18224",
"o$	c #F1B952",
"p$	c #FCE490",
"q$	c #FAE28E",
"r$	c #F9CE6F",
"s$	c #EEAA3D",
"t$	c #56380F",
"u$	c #0C0800",
"v$	c #56380B",
"w$	c #966216",
"x$	c #C28425",
"y$	c #D28F2A",
"z$	c #AE741C",
"A$	c #53360D",
"B$	c #0B0800",
"                              . + @ # $ % & * = -               ",
"                        ; > , ' ) ! ~ { ] ^ / ( _ : ;           ",
"                      < [ } | 1 2 3 4 5 6 7 8 9 0 a b c         ",
"                  d e f g h i j k l m n o p q r s t u v w       ",
"                x y z A B C D E F G H I J K L M N O P Q R ;     ",
"              w S T U V W X Y Z `  ...+.@.#.$.$.%.&.*.=.-.;.    ",
"            >.,.'.).!.~.{.].].^./.(._.:.<.[.}.|.1.2.3.4.5.6.;   ",
"          - 7.8.9.0.a.b.c.d.e.f.g.h.i.j.k.l.|.m.n.o.p.q.r.s.t.  ",
"        ; u.v.w.x.y.z.A.B.C.D.E.F.G.H.I.J.K.L.M.N.O.P.Q.R.S.T.  ",
"        U.V.W.; ; ; ; ; X.Y.Z.`. +.+; ; ; ; ; ; ; ; ++@+#+$+%+  ",
"      &+*+=+; ; -+;+>+; ; ,+'+)+!+~+; ; {+]+^+/+; ; (+@+#+_+:+  ",
"      <+[+; ; }+|+1+2+3+; ; 4+5+6+7+; ; 8+9+0+a+; ; b+c+d+e+f+  ",
"    g+h+i+; ; j+k+l+m+n+; ; o+p+q+r+; ; s+t+u+v+; ; w+x+y+z+A+  ",
"    B+C+D+; ; E+F+G+H+I+; ; J+K+L+M+N+O+; ; ; ; P+Q+R+P S+T+U+  ",
"  ; V+W+X+; ; Y+Z+`+ @.@; ; +@@@#@$@%@&@; ; ; ; ; *@=@@+-@;@;   ",
"  >@,@'@)@; ; !@~@{@]@^@; ; /@(@_@:@; ; <@[@}@|@; ; 1@2@3@4@;   ",
"  5@6@7@8@; ; 9@0@a@b@c@; ; d@e@f@g@; ; h@i@j@k@; ; ; l@m@n@    ",
"  o@p@q@r@; ; s@t@u@v@w@; ; x@y@K+z@; ; A@B@C@D@; ; ; E@F@G@    ",
"  H@I@J@K@U+; ; L@M@N@; ; O@P@Q@R@S@; ; T@U@V@W@; ; X@Y@Z@;     ",
"  `@ #.#+#@###; ; ; ; ; $#%#&#*#=#-#;#; ; ; ; ; ; ; >#,#'#      ",
"  )#!#~#{#]#^#/#(#y._#:#<#[#&#}#e@|#1#2#3#4#5#6#7#8#,#,#'#      ",
"  9#0#a#{#b#c#d#e#f#g#h#{#i#&#i#i#i#i#i#i#j#k#l#m#n#o#p#        ",
"  9#a#{#{#{#{#{#{#g#g#q#r#s#&#t#u#v#w#x#y#z#A#B#n#C#; ;         ",
"  D#E#F#G#H#I#J#K#;   ; h#L#&#M#N#O#P#Q#R#S#T#U#V#W#            ",
"  X#Y#Z#`#J@ $.$+$    @$#$$$&#%$&$*$=$-$;$>$,$'$)$;             ",
"  ; !$~${$]$^$/$;     ($_$:$<$&$; ; ; ; G@[$}$; ;               ",
"    |$1$9+2$3$4$5$6$7$8$9$0$a$;                                 ",
"    ; b$c$d$Z#e$f$g$h$h$i$j$;                                   ",
"      ; b$c$d$k$k$k$k$l$i$j$;                                   ",
"        ; m$n$o$k$p$q$r$s$t$;                                   ",
"            u$v$w$x$y$z$A$;                                     ",
"              ; ; U+B$; ;                                       "};
