/* XPM */
static char * attr10_xpm[] = {
"32 32 511 2",
"  	c None",
". 	c #693D1A",
"+ 	c #6A3A1E",
"@ 	c #69381E",
"# 	c #6D3D21",
"$ 	c #724224",
"% 	c #724124",
"& 	c #703D1F",
"* 	c #5B2F16",
"= 	c #4C2713",
"- 	c #1F0A0A",
"; 	c #000000",
"> 	c #66391E",
", 	c #6F3D22",
"' 	c #82502F",
") 	c #9E7444",
"! 	c #B9965A",
"~ 	c #CCAD6C",
"{ 	c #D7BC79",
"] 	c #D8C07B",
"^ 	c #D0B670",
"/ 	c #B09362",
"( 	c #946A3F",
"_ 	c #73431F",
": 	c #3D2010",
"< 	c #55301C",
"[ 	c #683B21",
"} 	c #946539",
"| 	c #C49F54",
"1 	c #CAC361",
"2 	c #FEE589",
"3 	c #FFF194",
"4 	c #FFF39A",
"5 	c #FFF89D",
"6 	c #F8EFA8",
"7 	c #BEC7D2",
"8 	c #B0C0EA",
"9 	c #A6B2DA",
"0 	c #A9A094",
"a 	c #9C7144",
"b 	c #5D321A",
"c 	c #160B05",
"d 	c #452E17",
"e 	c #562F1B",
"f 	c #8A582F",
"g 	c #D3A657",
"h 	c #FFDA73",
"i 	c #ADD264",
"j 	c #64BA54",
"k 	c #E6D277",
"l 	c #FFE98F",
"m 	c #FFEC91",
"n 	c #F1E39C",
"o 	c #96A6E4",
"p 	c #B5C6FF",
"q 	c #D6E1FF",
"r 	c #CFDCFF",
"s 	c #9CB3FE",
"t 	c #C5CBBC",
"u 	c #B69761",
"v 	c #64361C",
"w 	c #110505",
"x 	c #341E0F",
"y 	c #744226",
"z 	c #B38041",
"A 	c #FECC65",
"B 	c #F1D764",
"C 	c #A4C24F",
"D 	c #A3DDA8",
"E 	c #B7D6A3",
"F 	c #E2CD6C",
"G 	c #F6E385",
"H 	c #FEEC8D",
"I 	c #DBD0A5",
"J 	c #85A1FF",
"K 	c #A7C0FF",
"L 	c #A2BBFF",
"M 	c #A4BDFF",
"N 	c #99B3FF",
"O 	c #B8C2C7",
"P 	c #FFFFBD",
"Q 	c #AD8C5F",
"R 	c #552B15",
"S 	c #6C4023",
"T 	c #CE9A47",
"U 	c #F0D059",
"V 	c #8CBD40",
"W 	c #62B94D",
"X 	c #76CB7A",
"Y 	c #A8E1AC",
"Z 	c #87CB7E",
"` 	c #96C96F",
" .	c #60B546",
"..	c #D9D176",
"+.	c #FDED94",
"@.	c #B3B8BD",
"#.	c #638BFD",
"$.	c #658EFF",
"%.	c #5F87FB",
"&.	c #C4C9B9",
"*.	c #FFFFBF",
"=.	c #F5F2B3",
"-.	c #8C5F3B",
";.	c #281309",
">.	c #120606",
",.	c #734524",
"'.	c #DCA446",
").	c #FFD65E",
"!.	c #8EB331",
"~.	c #24AF38",
"{.	c #68C96D",
"].	c #6FCA6F",
"^.	c #76CD78",
"/.	c #66C76F",
"(.	c #85B454",
"_.	c #F0DA83",
":.	c #FFF28F",
"<.	c #DAD2A6",
"[.	c #4271FC",
"}.	c #3E71FF",
"|.	c #3F72FF",
"1.	c #386EFF",
"2.	c #5C81EB",
"3.	c #DFE3BA",
"4.	c #FFFFC6",
"5.	c #C5AB78",
"6.	c #532A15",
"7.	c #7A4A25",
"8.	c #DEA340",
"9.	c #FFCD50",
"0.	c #FFCB57",
"a.	c #DAC04D",
"b.	c #4AA728",
"c.	c #2BB02F",
"d.	c #38B538",
"e.	c #3EB73E",
"f.	c #3BB63E",
"g.	c #7BB045",
"h.	c #F5D67F",
"i.	c #FFEB8B",
"j.	c #E9DA9B",
"k.	c #577EF2",
"l.	c #3A6FFF",
"m.	c #3D70FF",
"n.	c #4471F7",
"o.	c #5377E9",
"p.	c #C6CCB7",
"q.	c #FFFFC1",
"r.	c #EBE2A4",
"s.	c #794A27",
"t.	c #0A0500",
"u.	c #331F0F",
"v.	c #423112",
"w.	c #1A1407",
"x.	c #938835",
"y.	c #089F06",
"z.	c #08A409",
"A.	c #0BA50E",
"B.	c #0DA30E",
"C.	c #9FB94E",
"D.	c #FFE58A",
"E.	c #CBB86C",
"F.	c #4E4831",
"G.	c #080B15",
"H.	c #010205",
"I.	c #040917",
"J.	c #202C4A",
"K.	c #ADAA82",
"L.	c #EDE9A9",
"M.	c #FDFBB6",
"N.	c #FFFFC0",
"O.	c #FCFAB8",
"P.	c #91643A",
"Q.	c #1D0D05",
"R.	c #482C15",
"S.	c #7C862D",
"T.	c #009D00",
"U.	c #009C00",
"V.	c #009A00",
"W.	c #26A213",
"X.	c #92874B",
"Y.	c #030201",
"Z.	c #030302",
"`.	c #A7A775",
" +	c #FFFEB9",
".+	c #FFFFBE",
"++	c #FFFEBC",
"@+	c #A17848",
"#+	c #1F0F04",
"$+	c #1E0F07",
"%+	c #A06A29",
"&+	c #311F09",
"*+	c #65312E",
"=+	c #906028",
"-+	c #607F22",
";+	c #1A970A",
">+	c #81A934",
",+	c #9DB343",
"'+	c #47A420",
")+	c #148409",
"!+	c #060603",
"~+	c #010000",
"{+	c #7D7446",
"]+	c #BCAD6A",
"^+	c #68634E",
"/+	c #0A0906",
"(+	c #E0DDA0",
"_+	c #A67D4A",
":+	c #220F04",
"<+	c #623E1B",
"[+	c #E6A92F",
"}+	c #FFAD33",
"|+	c #FEB2B0",
"1+	c #FB847A",
"2+	c #AB923D",
"3+	c #E3BE55",
"4+	c #FFD068",
"5+	c #FFD872",
"6+	c #FDD471",
"7+	c #695C31",
"8+	c #544B2D",
"9+	c #FFE891",
"0+	c #FFEC96",
"a+	c #FFF49B",
"b+	c #504D32",
"c+	c #777554",
"d+	c #FFFFBC",
"e+	c #FEFDBB",
"f+	c #A47742",
"g+	c #241206",
"h+	c #1F1306",
"i+	c #B36A24",
"j+	c #FF9027",
"k+	c #FC732A",
"l+	c #FE6969",
"m+	c #FF7C80",
"n+	c #B4953F",
"o+	c #FFD261",
"p+	c #FFD265",
"q+	c #FFD46A",
"r+	c #FFD972",
"s+	c #312A17",
"t+	c #958550",
"u+	c #FFE78E",
"v+	c #FFEB94",
"w+	c #FFEE9A",
"x+	c #938A5C",
"y+	c #333223",
"z+	c #FFFFBB",
"A+	c #FAF5B4",
"B+	c #9A6833",
"C+	c #1C0F05",
"D+	c #5B3D18",
"E+	c #E78422",
"F+	c #FD1E12",
"G+	c #FF181D",
"H+	c #FF1E1E",
"I+	c #B4963F",
"J+	c #FFCE5D",
"K+	c #FFD063",
"L+	c #FFD468",
"M+	c #FFD76E",
"N+	c #0E0B06",
"O+	c #AF9B5B",
"P+	c #FFE68D",
"Q+	c #FFEA93",
"R+	c #FFED99",
"S+	c #ADA26B",
"T+	c #0F0E0A",
"U+	c #EBDE9D",
"V+	c #8E5B27",
"W+	c #070300",
"X+	c #A36924",
"Y+	c #FDB526",
"Z+	c #F47C1C",
"`+	c #F90E02",
" @	c #FF0000",
".@	c #B7933D",
"+@	c #FFCC5A",
"@@	c #FFD060",
"#@	c #FFD366",
"$@	c #FFD66D",
"%@	c #B6A15E",
"&@	c #FFE68B",
"*@	c #FFE992",
"=@	c #FFEB97",
"-@	c #B5A970",
";@	c #030202",
">@	c #DBC07D",
",@	c #724416",
"'@	c #2D190C",
")@	c #D08A25",
"!@	c #FFB423",
"~@	c #FDC02C",
"{@	c #F76519",
"]@	c #B78F3B",
"^@	c #FFCB59",
"/@	c #FFCE5F",
"(@	c #FFD165",
"_@	c #FFD46B",
":@	c #AF9B5A",
"<@	c #FFE489",
"[@	c #FFE78F",
"}@	c #FFEB95",
"|@	c #ADA169",
"1@	c #FFFDB7",
"2@	c #C89B57",
"3@	c #502E0E",
"4@	c #4F3112",
"5@	c #EDA027",
"6@	c #FFB221",
"7@	c #FFBB29",
"8@	c #FD721C",
"9@	c #EB4716",
"0@	c #B78E3A",
"a@	c #FFCE5E",
"b@	c #FFD064",
"c@	c #FFD469",
"d@	c #312915",
"e@	c #94824B",
"f@	c #FFE488",
"g@	c #FFE68E",
"h@	c #FFEA94",
"i@	c #928758",
"j@	c #F9EFA7",
"k@	c #B07835",
"l@	c #301C09",
"m@	c #774E1C",
"n@	c #F9AD2B",
"o@	c #FFB020",
"p@	c #FFBD28",
"q@	c #FF5213",
"r@	c #F70301",
"s@	c #E9A632",
"t@	c #B78E38",
"u@	c #FFC956",
"v@	c #FFCD5C",
"w@	c #FFD062",
"x@	c #FFD368",
"y@	c #756232",
"z@	c #524829",
"A@	c #FFE387",
"B@	c #FFE68C",
"C@	c #4E482E",
"D@	c #767552",
"E@	c #E3C87F",
"F@	c #915B1E",
"G@	c #0A0300",
"H@	c #895E24",
"I@	c #FFB52E",
"J@	c #FFAE20",
"K@	c #FFB625",
"L@	c #A95513",
"M@	c #9D4411",
"N@	c #AA7E24",
"O@	c #7E6126",
"P@	c #AF8939",
"Q@	c #AF8C3D",
"R@	c #FFD267",
"S@	c #DDB95D",
"T@	c #080603",
"U@	c #7D6E40",
"V@	c #BDA966",
"W@	c #7B6F45",
"X@	c #DED794",
"Y@	c #CB974B",
"Z@	c #5C3811",
"`@	c #936729",
" #	c #FFB931",
".#	c #FFAE1F",
"+#	c #FFAE22",
"@#	c #FFD264",
"##	c #FFD56B",
"$#	c #A18846",
"%#	c #A49C6A",
"&#	c #EBCF82",
"*#	c #AA6D24",
"=#	c #1C1004",
"-#	c #966D2E",
";#	c #FFBD39",
">#	c #FFAD1E",
",#	c #FFAE21",
"'#	c #FFD163",
")#	c #FFD66F",
"!#	c #C9AB5C",
"~#	c #534728",
"{#	c #17140B",
"]#	c #050402",
"^#	c #16140C",
"/#	c #534B2E",
"(#	c #CAB771",
"_#	c #956B2F",
":#	c #FFC447",
"<#	c #FFAC1C",
"[#	c #FFAF24",
"}#	c #FFB32A",
"|#	c #FFB830",
"1#	c #F5B036",
"2#	c #C98F38",
"3#	c #956728",
"4#	c #C0872E",
"5#	c #FFD870",
"6#	c #FFE385",
"7#	c #FFE58B",
"8#	c #FFF39E",
"9#	c #EBC268",
"0#	c #AC6E21",
"a#	c #181104",
"b#	c #281605",
"c#	c #DDA542",
"d#	c #FFCD55",
"e#	c #FFCF5F",
"f#	c #FFD96E",
"g#	c #FFE07A",
"h#	c #FFDE7A",
"i#	c #FFDD7A",
"j#	c #FFDF7D",
"k#	c #FFE284",
"l#	c #FFE88D",
"m#	c #FFEC94",
"n#	c #C9852B",
"o#	c #634114",
"p#	c #F8CB6A",
"q#	c #FFBA32",
"r#	c #FFAC1E",
"s#	c #FFAF21",
"t#	c #FFB527",
"u#	c #E69E2C",
"v#	c #442C0F",
"w#	c #FFCB52",
"x#	c #FED064",
"y#	c #F4C666",
"z#	c #EDC063",
"A#	c #FCD475",
"B#	c #FFE687",
"C#	c #FFE789",
"D#	c #FFE588",
"E#	c #FBDB7F",
"F#	c #E9B353",
"G#	c #C28027",
"H#	c #533610",
"I#	c #271504",
"J#	c #DCAC55",
"K#	c #FFD466",
"L#	c #FFAB1B",
"M#	c #FFB526",
"N#	c #BC7E23",
"O#	c #030000",
"P#	c #150A00",
"Q#	c #D29432",
"R#	c #FFCB51",
"S#	c #D79B3C",
"T#	c #774D16",
"U#	c #472C0B",
"V#	c #563912",
"W#	c #8C6629",
"X#	c #C59645",
"Y#	c #D29B41",
"Z#	c #BD812B",
"`#	c #8B5A19",
" $	c #2F1F08",
".$	c #996922",
"+$	c #FFE086",
"@$	c #FFC448",
"#$	c #FFAA18",
"$$	c #A5701D",
"%$	c #704914",
"&$	c #F3AF3D",
"*$	c #FFCA50",
"=$	c #E3A138",
"-$	c #1F1002",
";$	c #0D0800",
">$	c #341D03",
",$	c #DEA648",
"'$	c #FFC144",
")$	c #FFAF19",
"!$	c #DB9521",
"~$	c #2D1D08",
"{$	c #482400",
"]$	c #A96F21",
"^$	c #CF8E2B",
"/$	c #FEC145",
"($	c #FFBF46",
"_$	c #8B5E1C",
":$	c #69440F",
"<$	c #F0B958",
"[$	c #FFF0A0",
"}$	c #FFB52B",
"|$	c #E19621",
"1$	c #D48D24",
"2$	c #E79E2D",
"3$	c #FFCE60",
"4$	c #B77E25",
"5$	c #FBD87E",
"6$	c #FFD05C",
"7$	c #503309",
"8$	c #C18224",
"9$	c #F1B952",
"0$	c #FCE490",
"a$	c #FAE28E",
"b$	c #F9CE6F",
"c$	c #EEAA3D",
"d$	c #56380F",
"e$	c #0C0800",
"f$	c #56380B",
"g$	c #966216",
"h$	c #C28425",
"i$	c #D28F2A",
"j$	c #AE741C",
"k$	c #53360D",
"l$	c #0B0800",
"                              . + @ # $ % & * = -               ",
"                        ; > , ' ) ! ~ { ] ^ / ( _ : ;           ",
"                      < [ } | 1 2 3 4 5 6 7 8 9 0 a b c         ",
"                  d e f g h i j k l m n o p q r s t u v w       ",
"                x y z A B C D E F G H I J K L M N O P Q R ;     ",
"              w S T U V W X Y Z `  ...+.@.#.$.$.%.&.*.=.-.;.    ",
"            >.,.'.).!.~.{.].].^./.(._.:.<.[.}.|.1.2.3.4.5.6.;   ",
"          - 7.8.9.0.a.b.c.d.e.f.g.h.i.j.k.l.|.m.n.o.p.q.r.s.t.  ",
"        ; u.v.w.; ; ; x.y.z.A.B.C.D.E.F.G.H.I.J.K.L.M.N.O.P.Q.  ",
"        R.; ; ; ; ; ; S.T.U.V.U.W.X.Y.; ; ; ; ; Z.`. +.+++@+#+  ",
"      $+%+&+*+=+; ; ; -+;+>+,+'+)+!+; ~+{+]+^+; ; /+(+.+++_+:+  ",
"      <+[+}+|+1+; ; ; 2+3+4+5+6+7+; ; 8+9+0+a+b+; ; c+d+e+f+g+  ",
"    h+i+j+k+l+m+; ; ; n+o+p+q+r+s+; ; t+u+v+w+x+; ; y+z+A+B+C+  ",
"    D+E+F+G+H+H+; ; ; I+J+K+L+M+N+; ; O+P+Q+R+S+; ; T+P U+V+W+  ",
"  ; X+Y+Z+`+ @ @; ; ; .@+@@@#@$@Y.; ; %@&@*@=@-@; ; ;@.+>@,@;   ",
"  '@)@!@~@{@ @ @; ; ; ]@^@/@(@_@N+; ; :@<@[@}@|@; ; T+1@2@3@;   ",
"  4@5@6@7@8@ @9@; ; ; 0@0.a@b@c@d@; ; e@f@g@h@i@; ; y+j@k@l@    ",
"  m@n@o@p@q@r@s@; ; ; t@u@v@w@x@y@; ; z@A@B@*@C@; ; D@E@F@G@    ",
"  H@I@J@K@L@M@N@; ; ; O@P@Q@w@R@S@T@; ~+U@V@W@; ; /+X@Y@Z@;     ",
"  `@ #.#+#; ; ; ; ; ; ; ; ; w@@###$#Y.; ; ; ; ; Y.%#&#*#=#      ",
"  -#;#>#,#; ; ; ; ; ; ; ; ; w@'#c@)#!#~#{#]#^#/#(#&#*#*#=#      ",
"  _#:#<#,#[#}#|#1#2#3#4#,#5#w@5#5#5#5#5#5#6#7#Q+8#9#0#a#        ",
"  _#<#,#,#,#,#,#,#3#3#b#c#d#w@e#f#g#h#i#j#k#l#m#9#n#; ;         ",
"  o#p#q#r#s#t#u#v#;   ; 4#w#w@x#y#z#A#B#C#D#E#F#G#H#            ",
"  I#J#K#L#J@M#N#O#    P#Q#R#w@S#T#U#V#W#X#Y#Z#`# $;             ",
"  ; .$+$@$#$K@$$;     %$&$*$=$T#; ; ; ; G@-$;$; ;               ",
"    >$,$0+'$)$!$~${$]$^$/$($_$;                                 ",
"    ; :$<$[$K#}$|$1$2$2$3$4$;                                   ",
"      ; :$<$[$5$5$5$5$6$3$4$;                                   ",
"        ; 7$8$9$5$0$a$b$c$d$;                                   ",
"            e$f$g$h$i$j$k$;                                     ",
"              ; ; W+l$; ;                                       "};
