/* XPM */
static char *attr_filter[]={
"32 32 147 2",
".a c None",
"Qt c None",
".d c #080808",
".t c #070707",
".j c #050505",
".b c #070707",
".u c #090909",
".g c #020202",
".z c #030303",
".y c #020202",
".q c #020202",
".c c #010101",
".f c #010101",
".m c #000000",
".h c #000000",
".l c #000000",
".r c #000000",
".x c #000000",
".v c #010101",
"#Z c #020200",
"#W c #020202",
".I c #030303",
".F c #040000",
".D c #040404",
"#z c #050505",
"#o c #060606",
".X c #070707",
".G c #090909",
".Q c #0a0000",
"#A c #0b0b0b",
"#4 c #0c0802",
"#F c #0d0d0d",
"#Y c #0e0e0e",
".C c #0f0f0f",
".E c #101010",
"#5 c #110a02",
"#D c #140000",
".J c #141414",
".5 c #161616",
".B c #171717",
"#u c #180000",
".A c #181818",
"#i c #191919",
"#E c #1a1a1a",
".P c #1c0000",
".H c #1d0000",
"#P c #1d1d1d",
"#b c #1f1f1f",
".o c #200000",
"#K c #212121",
"#O c #232323",
".Y c #242424",
"#m c #280000",
"#N c #2b2b2b",
"#T c #2f0000",
"#J c #340000",
"#h c #350000",
".S c #353535",
"#3 c #393939",
".N c #3a3a3a",
".4 c #3b3b3b",
"#R c #3e3428",
"#w c #3f0000",
".R c #400000",
".9 c #404040",
"#L c #434343",
"#M c #444444",
".T c #464646",
"#I c #494949",
".O c #4e0000",
".i c #550000",
"#V c #565656",
".s c #5f0101",
"#X c #5f5f5f",
"a# c #646464",
"#0 c #696969",
"#Q c #717171",
"#p c #757575",
"#S c #760101",
"#t c #780101",
"aa c #787878",
".U c #7b7b7b",
"#H c #808080",
"#B c #828282",
"an c #868686",
"#2 c #878787",
"aq c #898989",
".6 c #8b8b8b",
".L c #8d8d8d",
"#v c #8f0000",
"#. c #929292",
".K c #939393",
"a. c #95928e",
"#7 c #959595",
"#G c #989898",
".M c #990000",
"#j c #999999",
"#8 c #9b9a98",
"#g c #9b9b9b",
"#q c #9e9e9e",
".3 c #9f9f9f",
"#l c #a00101",
".Z c #a0a0a0",
"am c #a1a1a1",
"#c c #a2a2a2",
".2 c #a3a3a3",
"ab c #a5a5a5",
".0 c #a6a6a6",
"#d c #a7a7a7",
"#r c #a8a8a8",
"#1 c #a9a6a3",
".1 c #a9a9a9",
"#e c #ababab",
"#s c #acacac",
"#6 c #aeaeae",
".8 c #afafaf",
"#f c #b0b0b0",
"ah c #b2b2b2",
"#x c #b3b3b3",
"ae c #b4b4b4",
"ap c #b5b5b5",
"ag c #b7b7b7",
"#y c #bababa",
"ao c #bbbbbb",
".7 c #bdbdbd",
"al c #bebebe",
".k c #bf0000",
".w c #c00101",
"#n c #c0c0c0",
".W c #c1c1c1",
"#U c #c2c2c2",
"ak c #c3c3c3",
"aj c #c4c4c4",
"ac c #c8c8c8",
"#a c #c9c9c9",
"ai c #cbcbcb",
"#9 c #cccccc",
"#k c #cecece",
"ad c #cfcfcf",
".e c #d00101",
"af c #d1d1d1",
".V c #d3d3d3",
"#C c #d80101",
".n c #ea0000",
"## c #eb0101",
".p c #f80101",
".# c #ff0000",
"QtQtQtQtQtQtQtQtQtQtQtQt.#.#.#.#.#.#QtQt.#QtQtQtQtQtQtQtQtQtQtQt",
"QtQtQtQtQtQtQtQtQt.a.#.a.a.b.c.c.d.#.e.f.c.d.a.#QtQtQtQtQtQtQtQt",
"QtQtQtQtQtQtQtQt.#.a.a.a.#.g.h.i.j.#.k.l.m.n.a.aQtQtQtQtQtQtQtQt",
"QtQtQtQtQtQt.#QtQt.#.a.a.#.k.o.i.n.p.q.r.s.t.a.a.#QtQtQtQtQtQtQt",
"QtQtQtQtQtQt.#QtQt.a.u.v.w.x.x.x.v.v.x.x.v.y.z.uQtQtQtQtQtQtQtQt",
"QtQtQtQtQtQtQt.x.A.B.C.D.o.E.F.G.A.H.G.I.J.o.x.v.xQtQtQtQtQtQtQt",
"QtQtQtQtQt.D.C.x.K.L.M.N.O.P.Q.R.i.O.P.Q.S.T.U.V.W.X.x.xQtQtQtQt",
"QtQtQtQt.Y.K.K.Z.0.1.2.1.3.4.5.6.7.8.9.H#.###a.V.V.V.V.xQtQtQtQt",
"QtQtQtQt#b.K#c#d.##e#f.##g#h#i#j#k#l.x#m.2.V.V.#.V.#.V#n#oQtQtQt",
"QtQtQtQt.x#p#q#r#s#e#..6#t.x#u#v.w#t.x#w.L.w#x.V.V.V.V#y#zQtQtQt",
"QtQtQtQt.x#A#B.Z.1#C.N.o#D.x.I#u#E.E.x#F.o#E#c.#.V.V.V.x.xQtQtQt",
"QtQtQtQtQt.x.J.K#G#H#I.i#J.x#K#L#M#N.x#O.T.T.V.V.V.x.x.xQtQtQtQt",
"QtQtQtQtQtQt.x.E.5#P#Q#j#R.x#S#####T.x#S#U.8#V#W.x.xQtQtQtQtQtQt",
"QtQtQtQtQtQtQt.x.V#X.I#Y#Z.D#0.##1.x#u#2.x.x.x#3.xQtQtQtQtQtQtQt",
"QtQtQtQtQtQtQtQt.x.V.W#x#4.v.I.x#5.x.x.v#Q#6#7.xQtQtQtQtQtQtQtQt",
"QtQtQtQtQtQtQtQtQt.X#n.V#8#H.W#9a.a#aa#r.8ab.x.aQtQtQtQtQtQtQtQt",
"QtQtQtQtQtQtQtQtQtQt.x#n#9#9#9#9#9ac#n#xab.xQtQtQtQtQtQtQtQtQtQt",
"QtQtQtQtQtQtQtQtQtQtQt.x.V.V.V.Vad#Uaeab.xQtQtQtQtQtQtQtQtQtQtQt",
"QtQtQtQtQtQtQtQtQtQtQtQt.x.V#kafacagah.xQtQtQtQtQtQtQtQtQtQtQtQt",
"QtQtQtQtQtQtQtQtQtQtQtQtQt#oadaiaj.0.xQtQtQtQtQtQtQtQtQtQtQtQtQt",
"QtQtQtQtQtQtQtQtQtQtQtQtQt#Yakakalam.xQtQtQtQtQtQtQtQtQtQtQtQtQt",
"QtQtQtQtQtQtQtQtQtQtQtQtQt.xaf#naean.xQtQtQtQtQtQtQtQtQtQtQtQtQt",
"QtQtQtQtQtQtQtQtQtQtQtQtQt.xafaoapaq.xQtQtQtQtQtQtQtQtQtQtQtQtQt",
"QtQtQtQtQtQtQtQtQtQtQtQtQtQt.x.x.x.xQtQtQtQtQtQtQtQtQtQtQtQtQtQt",
"QtQtQtQtQtQtQtQtQtQtQtQtQtQtQt.#.#QtQtQtQtQtQtQtQtQtQtQtQtQtQtQt",
"QtQtQtQtQtQtQtQtQtQtQtQtQtQtQt.#.#QtQtQtQtQtQtQtQtQtQtQtQtQtQtQt",
"QtQtQtQtQtQtQtQtQtQtQtQtQtQtQt.#.#QtQtQtQtQtQtQtQtQtQtQtQtQtQtQt",
"QtQtQtQtQtQtQtQtQtQtQtQtQtQtQt.#.#QtQtQtQtQtQtQtQtQtQtQtQtQtQtQt",
"QtQtQtQtQtQtQtQtQtQtQtQtQtQtQt.#.#QtQtQtQtQtQtQtQtQtQtQtQtQtQtQt",
"QtQtQtQtQtQtQtQtQtQtQtQtQtQtQt.#.#QtQtQtQtQtQtQtQtQtQtQtQtQtQtQt",
"QtQtQtQtQtQtQtQtQtQtQtQtQtQtQt.#.#QtQtQtQtQtQtQtQtQtQtQtQtQtQtQt",
"QtQtQtQtQtQtQtQtQtQtQtQtQtQtQt.#.#QtQtQtQtQtQtQtQtQtQtQtQtQtQtQt"};
