/* XPM */
static char * attr07_xpm[] = {
"32 32 526 2",
"  	c None",
". 	c #693D1A",
"+ 	c #6A3A1E",
"@ 	c #69381E",
"# 	c #6D3D21",
"$ 	c #724224",
"% 	c #724124",
"& 	c #703D1F",
"* 	c #5B2F16",
"= 	c #4C2713",
"- 	c #1F0A0A",
"; 	c #000000",
"> 	c #66391E",
", 	c #6F3D22",
"' 	c #82502F",
") 	c #9E7444",
"! 	c #B9965A",
"~ 	c #CCAD6C",
"{ 	c #D7BC79",
"] 	c #D8C07B",
"^ 	c #D0B670",
"/ 	c #B09362",
"( 	c #946A3F",
"_ 	c #73431F",
": 	c #3D2010",
"< 	c #55301C",
"[ 	c #683B21",
"} 	c #946539",
"| 	c #C49F54",
"1 	c #CAC361",
"2 	c #FEE589",
"3 	c #FFF194",
"4 	c #FFF39A",
"5 	c #FFF89D",
"6 	c #F8EFA8",
"7 	c #BEC7D2",
"8 	c #B0C0EA",
"9 	c #A6B2DA",
"0 	c #A9A094",
"a 	c #9C7144",
"b 	c #5D321A",
"c 	c #160B05",
"d 	c #452E17",
"e 	c #562F1B",
"f 	c #8A582F",
"g 	c #D3A657",
"h 	c #FFDA73",
"i 	c #ADD264",
"j 	c #64BA54",
"k 	c #E6D277",
"l 	c #FFE98F",
"m 	c #FFEC91",
"n 	c #F1E39C",
"o 	c #96A6E4",
"p 	c #B5C6FF",
"q 	c #D6E1FF",
"r 	c #CFDCFF",
"s 	c #9CB3FE",
"t 	c #C5CBBC",
"u 	c #B69761",
"v 	c #64361C",
"w 	c #110505",
"x 	c #341E0F",
"y 	c #744226",
"z 	c #B38041",
"A 	c #FECC65",
"B 	c #F1D764",
"C 	c #A4C24F",
"D 	c #A3DDA8",
"E 	c #B7D6A3",
"F 	c #E2CD6C",
"G 	c #F6E385",
"H 	c #FEEC8D",
"I 	c #DBD0A5",
"J 	c #85A1FF",
"K 	c #A7C0FF",
"L 	c #A2BBFF",
"M 	c #A4BDFF",
"N 	c #99B3FF",
"O 	c #B8C2C7",
"P 	c #FFFFBD",
"Q 	c #AD8C5F",
"R 	c #552B15",
"S 	c #6C4023",
"T 	c #CE9A47",
"U 	c #F0D059",
"V 	c #8CBD40",
"W 	c #62B94D",
"X 	c #76CB7A",
"Y 	c #A8E1AC",
"Z 	c #87CB7E",
"` 	c #96C96F",
" .	c #60B546",
"..	c #D9D176",
"+.	c #FDED94",
"@.	c #B3B8BD",
"#.	c #638BFD",
"$.	c #658EFF",
"%.	c #5F87FB",
"&.	c #C4C9B9",
"*.	c #FFFFBF",
"=.	c #F5F2B3",
"-.	c #8C5F3B",
";.	c #281309",
">.	c #120606",
",.	c #734524",
"'.	c #DCA446",
").	c #FFD65E",
"!.	c #8EB331",
"~.	c #24AF38",
"{.	c #68C96D",
"].	c #6FCA6F",
"^.	c #76CD78",
"/.	c #66C76F",
"(.	c #85B454",
"_.	c #F0DA83",
":.	c #FFF28F",
"<.	c #DAD2A6",
"[.	c #4271FC",
"}.	c #3E71FF",
"|.	c #3F72FF",
"1.	c #386EFF",
"2.	c #5C81EB",
"3.	c #DFE3BA",
"4.	c #FFFFC6",
"5.	c #C5AB78",
"6.	c #532A15",
"7.	c #7A4A25",
"8.	c #DEA340",
"9.	c #FFCD50",
"0.	c #FFCB57",
"a.	c #DAC04D",
"b.	c #4AA728",
"c.	c #2BB02F",
"d.	c #38B538",
"e.	c #3EB73E",
"f.	c #3BB63E",
"g.	c #7BB045",
"h.	c #F5D67F",
"i.	c #FFEB8B",
"j.	c #E9DA9B",
"k.	c #577EF2",
"l.	c #3A6FFF",
"m.	c #3D70FF",
"n.	c #4471F7",
"o.	c #5377E9",
"p.	c #C6CCB7",
"q.	c #FFFFC1",
"r.	c #EBE2A4",
"s.	c #794A27",
"t.	c #0A0500",
"u.	c #633C1E",
"v.	c #AB802F",
"w.	c #554318",
"x.	c #181207",
"y.	c #050301",
"z.	c #171208",
"A.	c #433E18",
"B.	c #067F04",
"C.	c #08A409",
"D.	c #0BA50E",
"E.	c #0DA30E",
"F.	c #9FB94E",
"G.	c #FFFFC0",
"H.	c #FCFAB8",
"I.	c #91643A",
"J.	c #1D0D05",
"K.	c #482C15",
"L.	c #7D521E",
"M.	c #030100",
"N.	c #000200",
"O.	c #006600",
"P.	c #009A00",
"Q.	c #009C00",
"R.	c #26A213",
"S.	c #040302",
"T.	c #FFFFBE",
"U.	c #FFFEBC",
"V.	c #A17848",
"W.	c #1F0F04",
"X.	c #1E0F07",
"Y.	c #8B5C23",
"Z.	c #080501",
"`.	c #7C571C",
" +	c #B9792D",
".+	c #7B602A",
"++	c #050602",
"@+	c #899D3A",
"#+	c #47A420",
"$+	c #18980B",
"%+	c #939349",
"&+	c #C3AF68",
"*+	c #C3AF6B",
"=+	c #C3B56E",
"-+	c #C3B36E",
";+	c #A39C7B",
">+	c #21201B",
",+	c #5C5A42",
"'+	c #A67D4A",
")+	c #220F04",
"!+	c #623E1B",
"~+	c #694D15",
"{+	c #522B28",
"]+	c #FC7563",
"^+	c #FD5656",
"/+	c #EF6C2E",
"(+	c #4A401A",
"_+	c #776435",
":+	c #FDD471",
"<+	c #E5CA6C",
"[+	c #F8D97B",
"}+	c #FFE384",
"|+	c #FFE58B",
"1+	c #FFE891",
"2+	c #FFEC96",
"3+	c #CFC67D",
"4+	c #D0CC92",
"5+	c #FFFFBC",
"6+	c #FEFDBB",
"7+	c #A47742",
"8+	c #241206",
"9+	c #1F1306",
"0+	c #B36A24",
"a+	c #311B07",
"b+	c #95484A",
"c+	c #FF8084",
"d+	c #FF6972",
"e+	c #EC4C24",
"f+	c #907833",
"g+	c #332A15",
"h+	c #FFD972",
"i+	c #FFDD79",
"j+	c #FFDE7D",
"k+	c #FFE182",
"l+	c #FFE489",
"m+	c #FFE78E",
"n+	c #FFEB94",
"o+	c #5B5436",
"p+	c #46432F",
"q+	c #FFFAB3",
"r+	c #FFFFBB",
"s+	c #FAF5B4",
"t+	c #9A6833",
"u+	c #1C0F05",
"v+	c #5B3D18",
"w+	c #E78422",
"x+	c #0D0100",
"y+	c #AF1414",
"z+	c #FF1D1E",
"A+	c #FF0B15",
"B+	c #E96229",
"C+	c #AA8E3C",
"D+	c #0F0C06",
"E+	c #FFD76E",
"F+	c #FFD974",
"G+	c #FFDD7A",
"H+	c #FFE080",
"I+	c #FFE386",
"J+	c #FFE68D",
"K+	c #E3D082",
"L+	c #050403",
"M+	c #BCB57E",
"N+	c #FFF9B1",
"O+	c #EBDE9D",
"P+	c #8E5B27",
"Q+	c #070300",
"R+	c #A36924",
"S+	c #FDB526",
"T+	c #020100",
"U+	c #B60000",
"V+	c #F3260C",
"W+	c #EA591F",
"X+	c #EBA140",
"Y+	c #B5913D",
"Z+	c #030201",
"`+	c #FFD66D",
" @	c #FFD973",
".@	c #FFDC79",
"+@	c #FFDF7F",
"@@	c #FFE285",
"#@	c #FFE68B",
"$@	c #736941",
"%@	c #312E1F",
"&@	c #FFF5AA",
"*@	c #FFF8AF",
"=@	c #DBC07D",
"-@	c #724416",
";@	c #2D190C",
">@	c #D08A25",
",@	c #FFB423",
"'@	c #0D0A02",
")@	c #AF0000",
"!@	c #F51D0A",
"~@	c #EEBC44",
"{@	c #FECB4E",
"]@	c #AD8738",
"^@	c #0F0C05",
"/@	c #FFD46B",
"(@	c #FFD871",
"_@	c #FFDB78",
":@	c #FFE284",
"<@	c #F1D781",
"[@	c #0E0C07",
"}@	c #A69C68",
"|@	c #FFF4A7",
"1@	c #FFF8AE",
"2@	c #FFFDB7",
"3@	c #C89B57",
"4@	c #502E0E",
"5@	c #4F3112",
"6@	c #EDA027",
"7@	c #FFB221",
"8@	c #312307",
"9@	c #88290C",
"0@	c #F2230B",
"a@	c #EE8932",
"b@	c #FFCC4D",
"c@	c #92712E",
"d@	c #332914",
"e@	c #FFD469",
"f@	c #FFD770",
"g@	c #FFDA76",
"h@	c #FFDD7C",
"i@	c #FFE082",
"j@	c #8A7B49",
"k@	c #201D13",
"l@	c #FCED9E",
"m@	c #FFF4A6",
"n@	c #FFFAAF",
"o@	c #F9EFA7",
"p@	c #B07835",
"q@	c #301C09",
"r@	c #774E1C",
"s@	c #F9AD2B",
"t@	c #FFB020",
"u@	c #755612",
"v@	c #4A3510",
"w@	c #F39530",
"x@	c #EB9835",
"y@	c #FFC74B",
"z@	c #4E3C18",
"A@	c #76602D",
"B@	c #FFD368",
"C@	c #FFDA74",
"D@	c #FADB7E",
"E@	c #1C180E",
"F@	c #918657",
"G@	c #FFF09F",
"H@	c #FFFEB2",
"I@	c #E3C87F",
"J@	c #915B1E",
"K@	c #0A0300",
"L@	c #895E24",
"M@	c #FFB52E",
"N@	c #FFAE20",
"O@	c #DD9D20",
"P@	c #7D5F1D",
"Q@	c #BC8F31",
"R@	c #7B5D22",
"S@	c #0A0803",
"T@	c #DFB555",
"U@	c #FFD267",
"V@	c #FFD66C",
"W@	c #A18C4F",
"X@	c #12100A",
"Y@	c #F4E18F",
"Z@	c #FFEE9D",
"`@	c #FEF6AA",
" #	c #CB974B",
".#	c #5C3811",
"+#	c #936729",
"@#	c #FFB931",
"##	c #FFAE1F",
"$#	c #FFAE22",
"%#	c #9F7219",
"&#	c #020200",
"*#	c #030200",
"=#	c #A48239",
"-#	c #FFD062",
";#	c #FFD264",
">#	c #FFD56B",
",#	c #FFD870",
"'#	c #FFDB76",
")#	c #2E2816",
"!#	c #7C7045",
"~#	c #FFEB95",
"{#	c #FFED9B",
"]#	c #EBCF82",
"^#	c #AA6D24",
"/#	c #1C1004",
"(#	c #966D2E",
"_#	c #FFBD39",
":#	c #FFAD1E",
"<#	c #FFAE21",
"[#	c #FFB126",
"}#	c #C98E22",
"|#	c #533B10",
"1#	c #171005",
"2#	c #161208",
"3#	c #534623",
"4#	c #CAA044",
"5#	c #FFC955",
"6#	c #FFD163",
"7#	c #FFD66F",
"8#	c #B99E54",
"9#	c #080704",
"0#	c #E9D382",
"a#	c #FFE88F",
"b#	c #956B2F",
"c#	c #FFC447",
"d#	c #FFAC1C",
"e#	c #FFAF24",
"f#	c #FFB32A",
"g#	c #FFB830",
"h#	c #F5B036",
"i#	c #C98F38",
"j#	c #956728",
"k#	c #C0872E",
"l#	c #FFE385",
"m#	c #FFEA93",
"n#	c #FFF39E",
"o#	c #EBC268",
"p#	c #AC6E21",
"q#	c #181104",
"r#	c #281605",
"s#	c #DDA542",
"t#	c #FFCD55",
"u#	c #FFCF5F",
"v#	c #FFD96E",
"w#	c #FFE07A",
"x#	c #FFDE7A",
"y#	c #FFDF7D",
"z#	c #FFE88D",
"A#	c #FFEC94",
"B#	c #C9852B",
"C#	c #634114",
"D#	c #F8CB6A",
"E#	c #FFBA32",
"F#	c #FFAC1E",
"G#	c #FFAF21",
"H#	c #FFB527",
"I#	c #E69E2C",
"J#	c #442C0F",
"K#	c #FFCB52",
"L#	c #FED064",
"M#	c #F4C666",
"N#	c #EDC063",
"O#	c #FCD475",
"P#	c #FFE687",
"Q#	c #FFE789",
"R#	c #FFE588",
"S#	c #FBDB7F",
"T#	c #E9B353",
"U#	c #C28027",
"V#	c #533610",
"W#	c #271504",
"X#	c #DCAC55",
"Y#	c #FFD466",
"Z#	c #FFAB1B",
"`#	c #FFB526",
" $	c #BC7E23",
".$	c #030000",
"+$	c #150A00",
"@$	c #D29432",
"#$	c #FFCB51",
"$$	c #D79B3C",
"%$	c #774D16",
"&$	c #472C0B",
"*$	c #563912",
"=$	c #8C6629",
"-$	c #C59645",
";$	c #D29B41",
">$	c #BD812B",
",$	c #8B5A19",
"'$	c #2F1F08",
")$	c #996922",
"!$	c #FFE086",
"~$	c #FFC448",
"{$	c #FFAA18",
"]$	c #FFB625",
"^$	c #A5701D",
"/$	c #704914",
"($	c #F3AF3D",
"_$	c #FFCA50",
":$	c #E3A138",
"<$	c #1F1002",
"[$	c #0D0800",
"}$	c #341D03",
"|$	c #DEA648",
"1$	c #FFC144",
"2$	c #FFAF19",
"3$	c #DB9521",
"4$	c #2D1D08",
"5$	c #482400",
"6$	c #A96F21",
"7$	c #CF8E2B",
"8$	c #FEC145",
"9$	c #FFBF46",
"0$	c #8B5E1C",
"a$	c #69440F",
"b$	c #F0B958",
"c$	c #FFF0A0",
"d$	c #FFB52B",
"e$	c #E19621",
"f$	c #D48D24",
"g$	c #E79E2D",
"h$	c #FFCE60",
"i$	c #B77E25",
"j$	c #FBD87E",
"k$	c #FFD05C",
"l$	c #503309",
"m$	c #C18224",
"n$	c #F1B952",
"o$	c #FCE490",
"p$	c #FAE28E",
"q$	c #F9CE6F",
"r$	c #EEAA3D",
"s$	c #56380F",
"t$	c #0C0800",
"u$	c #56380B",
"v$	c #966216",
"w$	c #C28425",
"x$	c #D28F2A",
"y$	c #AE741C",
"z$	c #53360D",
"A$	c #0B0800",
"                              . + @ # $ % & * = -               ",
"                        ; > , ' ) ! ~ { ] ^ / ( _ : ;           ",
"                      < [ } | 1 2 3 4 5 6 7 8 9 0 a b c         ",
"                  d e f g h i j k l m n o p q r s t u v w       ",
"                x y z A B C D E F G H I J K L M N O P Q R ;     ",
"              w S T U V W X Y Z `  ...+.@.#.$.$.%.&.*.=.-.;.    ",
"            >.,.'.).!.~.{.].].^./.(._.:.<.[.}.|.1.2.3.4.5.6.;   ",
"          - 7.8.9.0.a.b.c.d.e.f.g.h.i.j.k.l.|.m.n.o.p.q.r.s.t.  ",
"        ; u.v.w.x.y.z.A.B.C.D.E.F.; ; ; ; ; ; ; ; ; ; G.H.I.J.  ",
"        K.L.M.; ; ; ; ; N.O.P.Q.R.; ; ; ; ; ; ; ; ; S.T.U.V.W.  ",
"      X.Y.Z.; ; `. +.+; ; ++@+#+$+%+&+*+=+-+;+>+; ; ,+T.U.'+)+  ",
"      !+~+; ; {+]+^+/+(+; ; _+:+<+[+}+|+1+2+3+; ; ; 4+5+6+7+8+  ",
"    9+0+a+; ; b+c+d+e+f+; ; g+h+i+j+k+l+m+n+o+; ; p+q+r+s+t+u+  ",
"    v+w+x+; ; y+z+A+B+C+; ; D+E+F+G+H+I+J+K+L+; ; M+N+P O+P+Q+  ",
"  ; R+S+T+; ; U+V+W+X+Y+; ; Z+`+ @.@+@@@#@$@; ; %@&@*@T.=@-@;   ",
"  ;@>@,@'@; ; )@!@~@{@]@; ; ^@/@(@_@j+:@<@[@; ; }@|@1@2@3@4@;   ",
"  5@6@7@8@; ; 9@0@a@b@c@; ; d@e@f@g@h@i@j@; ; k@l@m@n@o@p@q@    ",
"  r@s@t@u@; ; v@w@x@y@z@; ; A@B@E+C@G+D@E@; ; F@G@m@H@I@J@K@    ",
"  L@M@N@O@Q+; ; P@Q@R@; ; S@T@U@V@ @_@W@; ; X@Y@Z@m@`@ #.#;     ",
"  +#@###$#%#&#; ; ; ; ; *#=#-#;#>#,#'#)#; ; !#~#{#m@]#^#/#      ",
"  (#_#:#<#[#}#|#1#y.2#3#4#5#-#6#e@7#8#; ; 9#0#a#a#]#^#^#/#      ",
"  b#c#d#<#e#f#g#h#i#j#k#<#,#-#,#,#,#,#,#,#l#|+m#n#o#p#q#        ",
"  b#d#<#<#<#<#<#<#j#j#r#s#t#-#u#v#w#x#G+y#:@z#A#o#B#; ;         ",
"  C#D#E#F#G#H#I#J#;   ; k#K#-#L#M#N#O#P#Q#R#S#T#U#V#            ",
"  W#X#Y#Z#N@`# $.$    +$@$#$-#$$%$&$*$=$-$;$>$,$'$;             ",
"  ; )$!$~${$]$^$;     /$($_$:$%$; ; ; ; K@<$[$; ;               ",
"    }$|$2+1$2$3$4$5$6$7$8$9$0$;                                 ",
"    ; a$b$c$Y#d$e$f$g$g$h$i$;                                   ",
"      ; a$b$c$j$j$j$j$k$h$i$;                                   ",
"        ; l$m$n$j$o$p$q$r$s$;                                   ",
"            t$u$v$w$x$y$z$;                                     ",
"              ; ; Q+A$; ;                                       "};
