/* XPM */
static char *color_by_depth[]={
"32 32 616 2",
"Qt c None",
".j c #000000",
"az c #000000",
"gn c #000000",
"gH c #000000",
"g1 c #482400",
"c5 c #000000",
"aa c #000000",
".P c #452e17",
"#s c #000000",
"hr c #000000",
".x c #000000",
"eZ c #000000",
"hL c #000000",
"gN c #000000",
"gB c #150a00",
".i c #1f0a0a",
".# c #693d1a",
"hI c #000000",
"bo c #1e0f07",
".9 c #341e0f",
"dt c #000000",
"ce c #1f1306",
"#P c #120606",
".8 c #110505",
"#t c #110505",
".O c #160b05",
"gT c #000000",
"ay c #0a0500",
"gu c #271504",
"f6 c #000000",
"hB c #0c0800",
"du c #2d190c",
"g0 c #2d1d08",
".y c #55301c",
"gA c #030000",
"hK c #000000",
"c4 c #070300",
"eA c #0a0300",
".k c #66391e",
"gV c #341d03",
"hJ c #0b0800",
".a c #6a3a1e",
"aZ c #1d0d05",
"cG c #1c0f05",
"g2 c #a96f21",
"f7 c #281605",
".h c #4c2713",
"fk c #1c1004",
"#O c #281309",
"a0 c #482c15",
"dR c #4f3112",
"bn c #1f0f04",
"bN c #220f04",
"cd c #241206",
".w c #3d2010",
"gf c #634114",
"gO c #704914",
"hg c #301e08",
"ec c #301c09",
"hs c #503309",
"cH c #5b3d18",
".Q c #562f1b",
".b c #69381e",
"g8 c #69440f",
"ed c #774e1c",
"f5 c #321f0a",
"hC c #56380b",
".g c #5b2f16",
"bO c #623e1b",
"gm c #442c0f",
"hA c #56380f",
"hh c #744b10",
"fY c #8c6227",
".l c #6f3d22",
"hH c #53360d",
"aA c #633c1e",
"dQ c #502e0e",
"gS c #53350e",
"eB c #895e24",
".z c #683b21",
"fl c #966d2e",
"e0 c #936729",
"fD c #956b2f",
"eY c #5c3811",
"#. c #744226",
"gI c #996922",
"#r c #552b15",
".N c #5d321a",
"a# c #532a15",
"ab c #7a4a25",
"hb c #d48d24",
"hD c #966216",
"g6 c #8b5e1c",
"#u c #6c4023",
"gM c #a5701d",
".c c #6d3d21",
"c6 c #a36924",
"go c #c0872e",
"#Q c #734524",
"ds c #724416",
".f c #703d1f",
".7 c #64361c",
".v c #73431f",
"fL c #956728",
"ha c #e19621",
"hG c #ae741c",
"bp c #a06a29",
".m c #82502f",
"hp c #b77e25",
"ht c #c18224",
"gC c #d29432",
".e c #724124",
".d c #724224",
"gz c #bc7e23",
"gZ c #db9521",
"hE c #c28425",
"ez c #915b1e",
"cf c #b36a24",
"g3 c #cf8e2b",
"f8 c #dda542",
"ax c #794a27",
"f4 c #b77b27",
"fM c #c6994a",
".R c #8a582f",
"c3 c #8e5b27",
"gv c #dcac55",
"fj c #aa6d24",
"dv c #d08a25",
"hF c #d28f2a",
"gW c #dea648",
"hq c #000000",
"b. c #009a00",
"a9 c #009c00",
"a8 c #009d00",
"do c #010001",
"gG c #010101",
"aH c #089f06",
"aI c #08a409",
"aJ c #0ba50e",
"cV c #0d3652",
"fw c #0d3d5c",
"aK c #0da30e",
"cW c #0e3753",
"eu c #0e87a9",
"eS c #0e8bae",
"fT c #0e8fb6",
"gc c #0e91b7",
"fS c #0e91b8",
"fe c #0e94b9",
"d8 c #0e95b7",
"fU c #0e97bf",
"fA c #0e9dc2",
"gt c #0e9ec3",
"gb c #0e9fc4",
"fd c #0eadcb",
"fV c #0eb0cd",
"fC c #0f90b5",
"fX c #106589",
"eU c #116c92",
"fg c #137194",
"dN c #14678d",
"fB c #15c1da",
"gd c #17abd0",
"bB c #18980b",
"fb c #1a415b",
"bx c #1a970a",
"cZ c #1b415c",
"fW c #1ca2c3",
"dn c #1f779c",
"d9 c #20c2d5",
"fz c #24a9cb",
"#U c #24af38",
"cX c #254a63",
"b# c #26a213",
"ff c #26c3d5",
"ah c #2bb02f",
"cY c #30536b",
"aQ c #3368ff",
"fN c #337f9e",
"aR c #366eff",
"#6 c #386eff",
"ai c #38b538",
"aq c #3a6fff",
"bf c #3b68f7",
"ak c #3bb63e",
"ar c #3d70ff",
"d7 c #3db9d3",
"#4 c #3e71ff",
"aj c #3eb73e",
"#5 c #3f72ff",
"ev c #40d1db",
"#3 c #4271fc",
"as c #4471f7",
"eR c #44c0d7",
"eT c #46dbe6",
"bA c #47a420",
"ge c #48dfe9",
"ag c #4aa728",
"at c #5377e9",
"ap c #577ef2",
"ga c #59c3da",
"aP c #5c7ae6",
"#7 c #5c81eb",
"#J c #5f87fb",
"et c #5fc0d6",
"#D c #60b546",
"#y c #62b94d",
"#H c #638bfd",
"aS c #6486e1",
".V c #64ba54",
"#I c #658eff",
"#Y c #66c76f",
"#V c #68c96d",
"bg c #6a87d7",
"fy c #6bbed8",
"#W c #6fca6f",
"#z c #76cb7a",
"#X c #76cd78",
"al c #7bb045",
"fc c #7bc6de",
"dL c #7cc9de",
"be c #7e8fcd",
"dK c #7fbdd5",
"fO c #80b6d0",
"by c #81a934",
"#j c #85a1ff",
"#Z c #85b454",
"bw c #87b130",
"#B c #87cb7e",
"#N c #8c5f3b",
"#x c #8cbd40",
"#T c #8eb331",
"dJ c #8fcada",
"dM c #8fcce2",
"aY c #91643a",
".A c #946539",
".u c #946a3f",
"di c #94c1d5",
".0 c #96a6e4",
"fQ c #96c3d7",
"#C c #96c96f",
"fP c #98c7d9",
"#n c #99b3ff",
"cF c #9a6833",
".M c #9c7144",
".4 c #9cb3fe",
"bz c #9db343",
".n c #9e7444",
"aL c #9fb94e",
"bm c #a17848",
"#l c #a2bbff",
"#d c #a3dda8",
"cc c #a47742",
"#m c #a4bdff",
"#c c #a4c24f",
"bM c #a67d4a",
".K c #a6b2da",
"#k c #a7c0ff",
"fR c #a7d7e7",
"#A c #a8e1ac",
".L c #a9a094",
"g# c #a9cdde",
"#q c #ad8c5f",
".U c #add264",
"a7 c #aebc3f",
"eb c #b07835",
".t c #b09362",
".J c #b0c0ea",
"## c #b38041",
"#G c #b3b8bd",
".1 c #b5c6ff",
"eQ c #b5deec",
".6 c #b69761",
"#e c #b7d6a3",
"#o c #b8c2c7",
".o c #b9965a",
"gU c #bcdeeb",
"d6 c #bce2ec",
".I c #bec7d2",
"fx c #c0dfee",
"bC c #c1c160",
"a1 c #c38030",
".B c #c49f54",
"#K c #c4c9b9",
"a. c #c5ab78",
".5 c #c5cbbc",
"au c #c6ccb7",
"dP c #c89b57",
"fK c #c98f38",
".C c #cac361",
"eX c #cb974b",
"bI c #cbc7a6",
".p c #ccad6c",
"dj c #cde1ec",
"#v c #ce9a47",
"aG c #cebe4b",
"es c #cee9f2",
".3 c #cfdcff",
".s c #d0b670",
".S c #d3a657",
"dm c #d3e5f0",
"bH c #d6cda1",
".2 c #d6e1ff",
"gF c #d79b3c",
".q c #d7bc79",
"aB c #d8a13c",
".r c #d8c07b",
"#E c #d9d176",
"aT c #d9d5a3",
"af c #dac04d",
"#2 c #dad2a6",
"dI c #daedf7",
"dr c #dbc07d",
"#i c #dbd0a5",
"#R c #dca446",
"gs c #dcedf3",
"g7 c #ddeff8",
"ac c #dea340",
"#8 c #dfe3ba",
"dl c #dfebf5",
"g. c #dfeff8",
"dk c #e1ebf2",
"#f c #e2cd6c",
"gR c #e3a138",
"bX c #e3be55",
"ey c #e3c87f",
"ba c #e4d275",
"eG c #e5641a",
"b1 c #e5ca6c",
"gl c #e69e2c",
"bP c #e6a92f",
".W c #e6d277",
"bd c #e6d695",
"cI c #e78422",
"hc c #e79e2d",
"cO c #e96229",
"ej c #e9a632",
"hf c #e9a738",
"ao c #e9da9b",
"da c #ea591f",
"dW c #eb4716",
"el c #eb9835",
"db c #eba140",
"hi c #ebae47",
"fi c #ebcf82",
"c2 c #ebde9d",
"aw c #ebe2a4",
"cm c #ec4c24",
"aO c #ecda94",
"bs c #ed9d42",
"dS c #eda027",
"aU c #ede9a9",
"dY c #ee8932",
"hz c #eeaa3d",
"dA c #eebc44",
"bV c #ef6c2e",
"bW c #efcc56",
"g9 c #f0b958",
"#w c #f0d059",
"#0 c #f0da83",
"hu c #f1b952",
"#b c #f1d764",
".Z c #f1e39c",
"dX c #f2230b",
"d# c #f3260c",
"ek c #f39530",
"gP c #f3af3d",
"c8 c #f47c1c",
"dz c #f51d0a",
"fJ c #f5b036",
"am c #f5d67f",
"#M c #f5f2b3",
"#g c #f6e385",
"ei c #f70301",
"dy c #f76519",
"eF c #f77c1c",
"gg c #f8cb6a",
"b2 c #f8d97b",
".H c #f8efa8",
"c9 c #f90e02",
"ee c #f9ad2b",
"eH c #f9b935",
"a3 c #f9ba41",
"hy c #f9ce6f",
"ea c #f9efa7",
"hx c #fae28e",
"bJ c #faf1a6",
"cE c #faf5b4",
"bS c #fb847a",
"bq c #fba331",
"bu c #fba53e",
"hd c #fbb638",
"e5 c #fbba2f",
"cn c #fbd159",
"cP c #fbd259",
"hv c #fbd87e",
"ch c #fc732a",
"bT c #fc7563",
"br c #fc7a73",
"f3 c #fcb22f",
"hw c #fce490",
"bh c #fcf2a2",
"aX c #fcfab8",
"cJ c #fd1e12",
"bU c #fd5656",
"dV c #fd721c",
"bt c #fdb33a",
"c7 c #fdb526",
"e4 c #fdb628",
"dx c #fdc02c",
"gE c #fdc754",
"b0 c #fdd471",
"hj c #fde692",
"#F c #fded94",
"aV c #fdfbb6",
"gr c #fdfcfd",
"ci c #fe6969",
"bR c #feb2b0",
"g4 c #fec145",
"eJ c #fec243",
"bv c #fec758",
"dB c #fecb4e",
"#a c #fecc65",
".D c #fee589",
"#h c #feec8d",
"eW c #fef6aa",
"d5 c #fefbfe",
"cb c #fefdbb",
"d. c #ff0000",
"cN c #ff0b15",
"cK c #ff181d",
"cM c #ff1d1e",
"cL c #ff1e1e",
"eh c #ff5213",
"cl c #ff6972",
"cj c #ff7c80",
"a2 c #ff8026",
"ck c #ff8084",
"cg c #ff9027",
"gL c #ffaa18",
"gx c #ffab1b",
"fF c #ffac1c",
"gi c #ffac1e",
"fn c #ffad1e",
"bQ c #ffad33",
"e2 c #ffae1f",
"eD c #ffae20",
"fo c #ffae21",
"e3 c #ffae22",
"gY c #ffaf19",
"f0 c #ffaf1f",
"gj c #ffaf21",
"f1 c #ffaf22",
"fG c #ffaf24",
"ef c #ffb020",
"fp c #ffb126",
"dT c #ffb221",
"fH c #ffb32a",
"dw c #ffb423",
"f2 c #ffb429",
"gy c #ffb526",
"gk c #ffb527",
"h# c #ffb52b",
"fq c #ffb52c",
"eC c #ffb52e",
"eE c #ffb625",
"fr c #ffb732",
"fI c #ffb830",
"e6 c #ffb834",
"e1 c #ffb931",
"gh c #ffba32",
"dU c #ffbb29",
"fs c #ffbc38",
"e7 c #ffbc3a",
"eg c #ffbd28",
"fm c #ffbd39",
"e8 c #ffbf3f",
"g5 c #ffbf46",
"gX c #ffc144",
"eI c #ffc23d",
"e9 c #ffc246",
"eK c #ffc248",
"fE c #ffc447",
"gK c #ffc448",
"ft c #ffc44b",
"he c #ffc545",
"aD c #ffc54c",
"eL c #ffc54e",
"hm c #ffc64a",
"em c #ffc74b",
"en c #ffc74f",
"d0 c #ffc751",
"a4 c #ffc84c",
"f. c #ffc851",
"aE c #ffc852",
"dC c #ffc853",
"eM c #ffc954",
"eo c #ffc956",
"aC c #ffca48",
"gQ c #ffca50",
"gD c #ffcb51",
"gp c #ffcb52",
"ae c #ffcb57",
"dD c #ffcb59",
"fZ c #ffcb5b",
"dZ c #ffcc4d",
"a5 c #ffcc53",
"gq c #ffcc58",
"dd c #ffcc5a",
"ad c #ffcd50",
"f9 c #ffcd55",
"dc c #ffcd56",
"ep c #ffcd5c",
"cQ c #ffce5d",
"d1 c #ffce5e",
"dE c #ffce5f",
"ho c #ffce60",
"a6 c #ffcf5c",
"aF c #ffcf5e",
"eN c #ffcf60",
"hn c #ffd05c",
"de c #ffd060",
"eq c #ffd062",
"cR c #ffd063",
"d2 c #ffd064",
"bY c #ffd068",
"dF c #ffd165",
"co c #ffd261",
"f# c #ffd264",
"cp c #ffd265",
"eO c #ffd267",
"df c #ffd366",
"fu c #ffd367",
"er c #ffd368",
"gw c #ffd466",
"cS c #ffd468",
"d3 c #ffd469",
"cq c #ffd46a",
"dG c #ffd46b",
"fa c #ffd56b",
"#S c #ffd65e",
"eP c #ffd66c",
"dg c #ffd66d",
"cT c #ffd76e",
"d4 c #ffd770",
"dH c #ffd871",
"bZ c #ffd872",
"fv c #ffd96d",
"cr c #ffd972",
"dh c #ffd973",
"cU c #ffd974",
".T c #ffda73",
"cs c #ffdd79",
"ct c #ffde7d",
"hl c #ffdf78",
"gJ c #ffe086",
"cu c #ffe182",
"b3 c #ffe384",
"cv c #ffe489",
"bD c #ffe589",
"aM c #ffe58a",
"b4 c #ffe58b",
"bb c #ffe68a",
"bE c #ffe68c",
"cw c #ffe78e",
"aN c #ffe888",
"b5 c #ffe891",
".X c #ffe98f",
"bc c #ffeb8a",
"an c #ffeb8b",
"bG c #ffeb91",
"cx c #ffeb94",
".Y c #ffec91",
"b6 c #ffec96",
"bF c #ffed90",
"cy c #ffee9a",
"hk c #ffef9c",
"h. c #fff0a0",
".E c #fff194",
"cz c #fff1a1",
"#1 c #fff28f",
"ew c #fff2a5",
".F c #fff39a",
"eV c #fff3a4",
"b7 c #fff49b",
"e. c #fff4a6",
"cA c #fff4a7",
"b9 c #fff5a9",
"dp c #fff5aa",
"b8 c #fff6a1",
"c0 c #fff6ab",
"cB c #fff7ad",
".G c #fff89d",
"fh c #fff8a8",
"c. c #fff8ae",
"dq c #fff8af",
"c1 c #fff9b1",
"e# c #fffaaf",
"bK c #fffab1",
"cC c #fffab3",
"c# c #fffbb4",
"bL c #fffcb7",
"dO c #fffdb7",
"ex c #fffeb2",
"bj c #fffeb9",
"bl c #fffebc",
"bi c #ffffb3",
"cD c #ffffbb",
"ca c #ffffbc",
"#p c #ffffbd",
"bk c #ffffbe",
"#L c #ffffbf",
"aW c #ffffc0",
"av c #ffffc1",
"#9 c #ffffc6",
"QtQtQtQtQtQtQtQtQtQtQtQtQtQtQt.#.a.b.c.d.e.f.g.h.iQtQtQtQtQtQtQt",
"QtQtQtQtQtQtQtQtQtQtQtQt.j.k.l.m.n.o.p.q.r.s.t.u.v.w.xQtQtQtQtQt",
"QtQtQtQtQtQtQtQtQtQtQt.y.z.A.B.C.D.E.F.G.H.I.J.K.L.M.N.OQtQtQtQt",
"QtQtQtQtQtQtQtQtQt.P.Q.R.S.T.U.V.W.X.Y.Z.0.1.2.3.4.5.6.7.8QtQtQt",
"QtQtQtQtQtQtQtQt.9#.###a#b#c#d#e#f#g#h#i#j#k#l#m#n#o#p#q#r#sQtQt",
"QtQtQtQtQtQtQt#t#u#v#w#x#y#z#A#B#C#D#E#F#G#H#I#I#J#K#L#M#N#OQtQt",
"QtQtQtQtQtQt#P#Q#R#S#T#U#V#W#W#X#Y#Z#0#1#2#3#4#5#6#7#8#9a.a#aaQt",
"QtQtQtQtQt.iabacadaeafagahaiajakalamanaoapaq#5arasatauavawaxayQt",
"QtQtQtQtazaAaBaCaDaEaFaGaHaIaJaKaLaMaNaOaPaQaRaSaTaUaVaWaXaYaZQt",
"QtQtQtQta0a1a2a3a4a5a6a7a8a9b.a9b#babbbcbdbebfbgbhbibjbkblbmbnQt",
"QtQtQtbobpbqbrbsbtbubvbwbxbybzbAbBbCbDbEbFbGbHbIbJbKbLbkblbMbNQt",
"QtQtQtbObPbQbRbSbTbUbVbWbXbYbZb0b1b2b3b4b5b6b7b8b9c.c#cacbcccdQt",
"QtQtcecfcgchcicjckclcmcncocpcqcrcsctcucvcwcxcyczcAcBcCcDcEcFcGQt",
"QtQtcHcIcJcKcLcLcMcNcOcPcQcRcScTcUcVcWcXcYcZcVcVcVc0c1#pc2c3c4Qt",
"Qtc5c6c7c8c9d.d.d#dadbdcdddedfdgdhcVdidjdkdldmdndodpdqbkdrdsdtQt",
"Qtdudvdwdxdyd.d.dzdAdBdCdDdEdFdGdHcVdIdJdKdLdMdNdocAc.dOdPdQc5Qt",
"QtdRdSdTdUdVd.dWdXdYdZd0aed1d2d3d4cVd5d6d7d8d9dNdoe.e#eaebecQtQt",
"QtedeeefegeheiejekelemeneoepeqercTcVd5eseteuevdNdoewexeyezeAQtQt",
"QteBeCeDeEeFeGeHeIeJeKeLeMddeNeOePcVd5eQeReSeTeUdoeVeWeXeYeZQtQt",
"Qte0e1e2e3e4e5e6e7e8e9aDf.dDd1f#fafbd5fcfdfefffgdofhfifjfkQtQtQt",
"QtflfmfnfofpfqfrfsftfufvcVfwfwfwfwfwfxfyfzfAfBfCfwfwfwfwfwfwQtQt",
"QtfDfEfFfofGfHfIfJfKfLfMdFdofNfOfPfQfRfdfSfTfBfUfVfWfNfXdoQtQtQt",
"QtfYfZf0fof1f2f3f4f5f6f7f8f9dofNg.g#gagbgcfUgdfBgefWfXdoQtQtQtQt",
"QtgfggghgigjgkglgmeZQtgngogpgqdofNgrgsgagtfUfBgefWfXdoQtQtQtQtQt",
"QtgugvgwgxeDgygzgAQtQtgBgCgDgEgFgGfNgrgsgagagefWfXdoQtQtQtQtQtQt",
"QtgHgIgJgKgLeEgMgNQtQtgOgPgQgRgSgTdofNgrgUgefWfXdoQtQtQtQtQtQtQt",
"QtQtgVgWb6gXgYgZg0g1g2g3g4g5g6gTQtQtdofNg7fWfXdoQtQtQtQtQtQtQtQt",
"QtQt.jg8g9h.gwh#hahbhchdhehfhgQtQtQtQtdofNfXdoQtQtQtQtQtQtQtQtQt",
"QtQtQt.xhhhihjhkhlgqhmhnhohphqhqhqhqhqhqhqhqhqhqhqhqhqhqQtQtQtQt",
"QtQtQtQthrhshthuhvhwhxhyhzhAhqhqhqhqhqhqhqhqhqhqhqhqhqhqQtQtQtQt",
"QtQtQtQtQtQthBhChDhEhFhGhHgTQtQtQtQtQtQtQtQtQtQtQtQtQtQtQtQtQtQt",
"QtQtQtQtQtQtQt.jhIc4hJhKhLQtQtQtQtQtQtQtQtQtQtQtQtQtQtQtQtQtQtQt"};
