/* XPM */
static char * contour[] = {
"32 32 807 2",
"  	c None",
". 	c #000000",
"+ 	c #000510",
"@ 	c #395143",
"# 	c #792A1F",
"$ 	c #640700",
"% 	c #7E1D12",
"& 	c #951300",
"* 	c #3B170E",
"= 	c #772C00",
"- 	c #7B6509",
"; 	c #535819",
"> 	c #403400",
", 	c #36220B",
"' 	c #5E2300",
") 	c #3A0D00",
"! 	c #6A1600",
"~ 	c #73691F",
"{ 	c #245A1A",
"] 	c #246D10",
"^ 	c #2B3C0D",
"/ 	c #544C00",
"( 	c #2C350F",
"_ 	c #16440E",
": 	c #243C31",
"< 	c #103E18",
"[ 	c #FFFFFF",
"} 	c #076219",
"| 	c #20544A",
"1 	c #0D4646",
"2 	c #0F372C",
"3 	c #0D6546",
"4 	c #074C4F",
"5 	c #28441A",
"6 	c #68504A",
"7 	c #3B2525",
"8 	c #53190B",
"9 	c #3D0902",
"0 	c #7B8C9F",
"a 	c #A23F55",
"b 	c #6D3A1B",
"c 	c #64310D",
"d 	c #B99113",
"e 	c #978700",
"f 	c #826212",
"g 	c #7E582C",
"h 	c #5A2B0C",
"i 	c #621500",
"j 	c #512D19",
"k 	c #63663E",
"l 	c #336721",
"m 	c #335D22",
"n 	c #404A24",
"o 	c #767417",
"p 	c #4F8922",
"q 	c #0BA508",
"r 	c #2EB135",
"s 	c #313F3A",
"t 	c #0B8124",
"u 	c #2F926C",
"v 	c #083657",
"w 	c #0B4651",
"x 	c #305064",
"y 	c #213A51",
"z 	c #785457",
"A 	c #79401C",
"B 	c #493D24",
"C 	c #30231B",
"D 	c #31251D",
"E 	c #4E444F",
"F 	c #8B6495",
"G 	c #C28D73",
"H 	c #AE6C28",
"I 	c #724F01",
"J 	c #8E6616",
"K 	c #9B5016",
"L 	c #B14300",
"M 	c #802A00",
"N 	c #882800",
"O 	c #9B7A2D",
"P 	c #2F6020",
"Q 	c #1B431D",
"R 	c #184012",
"S 	c #57791B",
"T 	c #65811B",
"U 	c #378220",
"V 	c #046803",
"W 	c #337343",
"X 	c #25504F",
"Y 	c #304D42",
"Z 	c #295A62",
"` 	c #1B406C",
" .	c #17676C",
"..	c #20709A",
"+.	c #1C87AE",
"@.	c #381200",
"#.	c #903B00",
"$.	c #967516",
"%.	c #8E7A00",
"&.	c #44460A",
"*.	c #2B2623",
"=.	c #49332B",
"-.	c #679069",
";.	c #BD723F",
">.	c #5D4E1F",
",.	c #AC3C09",
"'.	c #962000",
").	c #6E2200",
"!.	c #5B1A00",
"~.	c #844315",
"{.	c #7E741F",
"].	c #429048",
"^.	c #2F623A",
"/.	c #395329",
"(.	c #818E29",
"_.	c #9EBB1B",
":.	c #44C018",
"<.	c #038411",
"[.	c #377183",
"}.	c #184A83",
"|.	c #0B3D82",
"1.	c #18556C",
"2.	c #1D677A",
"3.	c #1FB9A7",
"4.	c #362D1B",
"5.	c #68441A",
"6.	c #9A740F",
"7.	c #8C7600",
"8.	c #908900",
"9.	c #4C400B",
"0.	c #30140D",
"a.	c #61362C",
"b.	c #6C4B23",
"c.	c #4C4C11",
"d.	c #4C1F14",
"e.	c #422618",
"f.	c #788B23",
"g.	c #239D50",
"h.	c #073821",
"i.	c #344C34",
"j.	c #434B38",
"k.	c #293B0E",
"l.	c #368B19",
"m.	c #1B8396",
"n.	c #268994",
"o.	c #1EAD8B",
"p.	c #1D477D",
"q.	c #236591",
"r.	c #0C526E",
"s.	c #254B52",
"t.	c #099271",
"u.	c #585A00",
"v.	c #323000",
"w.	c #605100",
"x.	c #957B00",
"y.	c #846500",
"z.	c #9E6E16",
"A.	c #6A2B0B",
"B.	c #8E2702",
"C.	c #787036",
"D.	c #50533A",
"E.	c #3A3828",
"F.	c #302B18",
"G.	c #387A15",
"H.	c #298220",
"I.	c #1EA072",
"J.	c #369986",
"K.	c #268476",
"L.	c #0C646A",
"M.	c #154177",
"N.	c #293A4E",
"O.	c #0E7295",
"P.	c #134156",
"Q.	c #174F3C",
"R.	c #8F8C00",
"S.	c #767100",
"T.	c #765F0B",
"U.	c #B67D31",
"V.	c #B56D1D",
"W.	c #8B390D",
"X.	c #9D2700",
"Y.	c #965218",
"Z.	c #B2A813",
"`.	c #82A23E",
" +	c #2F5A2E",
".+	c #427228",
"++	c #395231",
"@+	c #406233",
"#+	c #296647",
"$+	c #105E40",
"%+	c #2E7D44",
"&+	c #4B8218",
"*+	c #1D6F76",
"=+	c #367A6B",
"-+	c #1DA696",
";+	c #1C495C",
">+	c #143A8B",
",+	c #001759",
"'+	c #233B54",
")+	c #0A5D80",
"!+	c #405456",
"~+	c #DC7619",
"{+	c #D3771B",
"]+	c #89611F",
"^+	c #924709",
"/+	c #8D2D00",
"(+	c #491A00",
"_+	c #621906",
":+	c #905B23",
"<+	c #BA8F00",
"[+	c #C2C215",
"}+	c #46BD28",
"|+	c #1C4915",
"1+	c #1C392E",
"2+	c #356434",
"3+	c #3A6408",
"4+	c #4D8708",
"5+	c #2F7E46",
"6+	c #3C7265",
"7+	c #24A94D",
"8+	c #3DAE84",
"9+	c #3E5452",
"0+	c #166064",
"a+	c #0E89B2",
"b+	c #2EC1DC",
"c+	c #2D74B0",
"d+	c #1F415F",
"e+	c #1D5B81",
"f+	c #203157",
"g+	c #911800",
"h+	c #9D2504",
"i+	c #9F5011",
"j+	c #5D2306",
"k+	c #813A0F",
"l+	c #44391C",
"m+	c #272216",
"n+	c #322100",
"o+	c #594500",
"p+	c #71731C",
"q+	c #579236",
"r+	c #3BC14B",
"s+	c #2B4844",
"t+	c #4C534D",
"u+	c #3D5627",
"v+	c #357D18",
"w+	c #288851",
"x+	c #386152",
"y+	c #13932E",
"z+	c #31AE5F",
"A+	c #355376",
"B+	c #183644",
"C+	c #1AB877",
"D+	c #057D5D",
"E+	c #19CCA7",
"F+	c #2593A9",
"G+	c #1D355C",
"H+	c #002075",
"I+	c #782307",
"J+	c #2B251F",
"K+	c #74390C",
"L+	c #6E5631",
"M+	c #7B5B14",
"N+	c #5B5618",
"O+	c #545A23",
"P+	c #2B311C",
"Q+	c #35431B",
"R+	c #5C7A14",
"S+	c #88C610",
"T+	c #8DD720",
"U+	c #41A280",
"V+	c #236679",
"W+	c #062A75",
"X+	c #262D28",
"Y+	c #30552F",
"Z+	c #31A879",
"`+	c #299753",
" @	c #21BC41",
".@	c #0C955A",
"+@	c #166A84",
"@@	c #174C5F",
"#@	c #20843D",
"$@	c #188F49",
"%@	c #00AE63",
"&@	c #326D7F",
"*@	c #17205F",
"=@	c #6E491D",
"-@	c #4A5329",
";@	c #795D39",
">@	c #7C5C27",
",@	c #8B7205",
"'@	c #1D3E1B",
")@	c #606E2F",
"!@	c #8D9C27",
"~@	c #9EB32E",
"{@	c #3FBC54",
"]@	c #239884",
"^@	c #001E6A",
"/@	c #32774B",
"(@	c #086C1A",
"_@	c #1C722D",
":@	c #247B5E",
"<@	c #134463",
"[@	c #254948",
"}@	c #104E2B",
"|@	c #157F3F",
"1@	c #474022",
"2@	c #43C016",
"3@	c #28351A",
"4@	c #21BA2B",
"5@	c #1CBF40",
"6@	c #50D857",
"7@	c #15398E",
"8@	c #00166F",
"9@	c #4B6A54",
"0@	c #205F34",
"a@	c #014B3A",
"b@	c #1A7586",
"c@	c #235689",
"d@	c #2F4842",
"e@	c #007A31",
"f@	c #009139",
"g@	c #2CA38B",
"h@	c #2A1B98",
"i@	c #210087",
"j@	c #596120",
"k@	c #4BA417",
"l@	c #5A8900",
"m@	c #6BB310",
"n@	c #2BCD2B",
"o@	c #3A7062",
"p@	c #2A5731",
"q@	c #52DC1F",
"r@	c #31762F",
"s@	c #3E7A14",
"t@	c #5DC30F",
"u@	c #081778",
"v@	c #000B74",
"w@	c #1E8278",
"x@	c #20CDC3",
"y@	c #3B6F7F",
"z@	c #2F2BAA",
"A@	c #230078",
"B@	c #335E21",
"C@	c #2E7423",
"D@	c #157A24",
"E@	c #2F5A31",
"F@	c #294F15",
"G@	c #39481B",
"H@	c #346419",
"I@	c #18880C",
"J@	c #3DA662",
"K@	c #40584A",
"L@	c #176323",
"M@	c #022205",
"N@	c #263519",
"O@	c #528C0A",
"P@	c #1C6017",
"Q@	c #1C2819",
"R@	c #315B1B",
"S@	c #00067A",
"T@	c #000682",
"U@	c #151731",
"V@	c #296056",
"W@	c #2A4345",
"X@	c #313A53",
"Y@	c #174C13",
"Z@	c #1E6A21",
"`@	c #219040",
" #	c #316E3D",
".#	c #187F0E",
"+#	c #015300",
"@#	c #1A3D14",
"##	c #0E6212",
"$#	c #2C7B4C",
"%#	c #224558",
"&#	c #5E7786",
"*#	c #425349",
"=#	c #212A26",
"-#	c #2D3B2A",
";#	c #0A620E",
">#	c #006A0B",
",#	c #033E0C",
"'#	c #18954C",
")#	c #000278",
"!#	c #01017D",
"~#	c #03007A",
"{#	c #164351",
"]#	c #1D71A9",
"^#	c #030870",
"/#	c #3D378C",
"(#	c #282D40",
"_#	c #20008D",
":#	c #250083",
"<#	c #1A5636",
"[#	c #3D4B4E",
"}#	c #324D40",
"|#	c #163E3D",
"1#	c #344438",
"2#	c #16471F",
"3#	c #2C3C4F",
"4#	c #3B534E",
"5#	c #385544",
"6#	c #205732",
"7#	c #16642F",
"8#	c #195936",
"9#	c #1F4B3E",
"0#	c #030082",
"a#	c #04007F",
"b#	c #060084",
"c#	c #16212B",
"d#	c #1D0775",
"e#	c #220B7E",
"f#	c #1B007B",
"g#	c #28007D",
"h#	c #2A7566",
"i#	c #1A5D98",
"j#	c #0A2B64",
"k#	c #1A345D",
"l#	c #3A554B",
"m#	c #395357",
"n#	c #0C2776",
"o#	c #00197C",
"p#	c #1A5331",
"q#	c #0E703D",
"r#	c #05007A",
"s#	c #070080",
"t#	c #090080",
"u#	c #13007E",
"v#	c #1A0081",
"w#	c #1D0081",
"x#	c #250781",
"y#	c #42358D",
"z#	c #291583",
"A#	c #26098E",
"B#	c #2A0076",
"C#	c #15B063",
"D#	c #23AEB5",
"E#	c #1B5794",
"F#	c #354548",
"G#	c #0F2075",
"H#	c #001780",
"I#	c #00147C",
"J#	c #000E7E",
"K#	c #000B7E",
"L#	c #000769",
"M#	c #2D727D",
"N#	c #0A0F74",
"O#	c #08008C",
"P#	c #0A0084",
"Q#	c #251596",
"R#	c #180081",
"S#	c #20007E",
"T#	c #230579",
"U#	c #261668",
"V#	c #2B1784",
"W#	c #281777",
"X#	c #2A1572",
"Y#	c #320079",
"Z#	c #359B5A",
"`#	c #2A8371",
" $	c #2198BC",
".$	c #00187B",
"+$	c #00137E",
"@$	c #000F7B",
"#$	c #000F70",
"$$	c #00127C",
"%$	c #001080",
"&$	c #000C85",
"*$	c #000981",
"=$	c #000582",
"-$	c #000383",
";$	c #01016D",
">$	c #020054",
",$	c #010066",
"'$	c #000173",
")$	c #010089",
"!$	c #07008A",
"~$	c #25168E",
"{$	c #15007E",
"]$	c #1F0079",
"^$	c #25007D",
"/$	c #2D1B71",
"($	c #2C1A7E",
"_$	c #3F8C5C",
":$	c #5F8E7F",
"<$	c #155D63",
"[$	c #133B97",
"}$	c #001485",
"|$	c #00128A",
"1$	c #03137B",
"2$	c #010D75",
"3$	c #000B7F",
"4$	c #000983",
"5$	c #000681",
"6$	c #00017F",
"7$	c #030088",
"8$	c #070074",
"9$	c #030077",
"0$	c #02007A",
"a$	c #030083",
"b$	c #2E2196",
"c$	c #15007D",
"d$	c #1D007A",
"e$	c #260080",
"f$	c #2A0082",
"g$	c #24006C",
"h$	c #2F29A3",
"i$	c #383887",
"j$	c #126434",
"k$	c #208E5A",
"l$	c #2D4464",
"m$	c #112D80",
"n$	c #00168E",
"o$	c #000F7F",
"p$	c #1D3C70",
"q$	c #10217F",
"r$	c #00087E",
"s$	c #000781",
"t$	c #000385",
"u$	c #010084",
"v$	c #020081",
"w$	c #050088",
"x$	c #06008A",
"y$	c #07007D",
"z$	c #050081",
"A$	c #2B1F85",
"B$	c #19026F",
"C$	c #1E0077",
"D$	c #2A007A",
"E$	c #2D0088",
"F$	c #13718B",
"G$	c #2060D3",
"H$	c #261966",
"I$	c #27007F",
"J$	c #001B8B",
"K$	c #00178D",
"L$	c #00118D",
"M$	c #000D91",
"N$	c #000888",
"O$	c #00037F",
"P$	c #000183",
"Q$	c #010186",
"R$	c #040087",
"S$	c #060082",
"T$	c #080082",
"U$	c #080084",
"V$	c #33268F",
"W$	c #311D9D",
"X$	c #2B118D",
"Y$	c #250B7B",
"Z$	c #29007A",
"`$	c #2E0082",
" %	c #2C0079",
".%	c #27006C",
"+%	c #2C9BA6",
"@%	c #1598D0",
"#%	c #2329B0",
"$%	c #341985",
"%%	c #001D6F",
"&%	c #002385",
"*%	c #001E89",
"=%	c #001781",
"-%	c #001175",
";%	c #00117E",
">%	c #000E86",
",%	c #000B88",
"'%	c #000787",
")%	c #000481",
"!%	c #000181",
"~%	c #030081",
"{%	c #080081",
"]%	c #090084",
"^%	c #271A91",
"/%	c #221471",
"(%	c #1F1C62",
"_%	c #2E2EA2",
":%	c #08B58A",
"<%	c #2298AC",
"[%	c #3F4098",
"}%	c #2E1781",
"|%	c #002283",
"1%	c #002086",
"2%	c #001C89",
"3%	c #00168A",
"4%	c #001185",
"5%	c #000878",
"6%	c #000783",
"7%	c #000382",
"8%	c #010080",
"9%	c #020086",
"0%	c #040080",
"a%	c #06007F",
"b%	c #070082",
"c%	c #0A0083",
"d%	c #302492",
"e%	c #241293",
"f%	c #1C008B",
"g%	c #20008A",
"h%	c #3933AB",
"i%	c #2D1877",
"j%	c #48656B",
"k%	c #089F6E",
"l%	c #1CA397",
"m%	c #3634A2",
"n%	c #20065C",
"o%	c #002083",
"p%	c #001D83",
"q%	c #001884",
"r%	c #001488",
"s%	c #000F82",
"t%	c #000B89",
"u%	c #000687",
"v%	c #000480",
"w%	c #010182",
"x%	c #020082",
"y%	c #040084",
"z%	c #09007D",
"A%	c #2F2293",
"B%	c #160483",
"C%	c #15008B",
"D%	c #1F008A",
"E%	c #1A0061",
"F%	c #1E1C6C",
"G%	c #2771CC",
"H%	c #477DA6",
"I%	c #3E3D9A",
"J%	c #331A5A",
"K%	c #307E6A",
"L%	c #0A7154",
"M%	c #217479",
"N%	c #3C7ADC",
"O%	c #4465A4",
"P%	c #001E84",
"Q%	c #001A86",
"R%	c #001481",
"S%	c #001084",
"T%	c #000883",
"U%	c #000586",
"V%	c #01017B",
"W%	c #03007E",
"X%	c #050082",
"Y%	c #070083",
"Z%	c #090083",
"`%	c #0B0084",
" &	c #23148F",
".&	c #120082",
"+&	c #130084",
"@&	c #170082",
"#&	c #230096",
"$&	c #313244",
"%&	c #24A38E",
"&&	c #21CBB3",
"*&	c #317DB7",
"=&	c #3F2A56",
"-&	c #2A5E4E",
";&	c #099E76",
">&	c #12A278",
",&	c #1DC7B1",
"'&	c #006781",
")&	c #001A81",
"!&	c #001581",
"~&	c #001285",
"{&	c #000D84",
"]&	c #000581",
"^&	c #010187",
"/&	c #070076",
"(&	c #08007C",
"_&	c #08007F",
":&	c #0A0082",
"<&	c #130783",
"[&	c #110080",
"}&	c #120080",
"|&	c #140082",
"1&	c #160086",
"2&	c #1B0086",
"3&	c #22008E",
"4&	c #231270",
"5&	c #405557",
"6&	c #0A7966",
"7&	c #266466",
"8&	c #1B3F6F",
"9&	c #3F4998",
"0&	c #4D6D79",
"a&	c #148467",
"b&	c #007454",
"c&	c #216866",
"d&	c #003C4D",
"e&	c #001683",
"f&	c #001281",
"g&	c #000E80",
"h&	c #00057F",
"i&	c #000286",
"j&	c #08008D",
"k&	c #120781",
"l&	c #0B007E",
"m&	c #110083",
"n&	c #130083",
"o&	c #150080",
"p&	c #180080",
"q&	c #1C0089",
"r&	c #22008F",
"s&	c #1B0058",
"t&	c #323438",
"u&	c #19656B",
"v&	c #203C5E",
"w&	c #19174F",
"x&	c #348E76",
"y&	c #069F55",
"z&	c #009B58",
"A&	c #00A168",
"B&	c #17B89D",
"C&	c #00658E",
"D&	c #00127F",
"E&	c #00097F",
"F&	c #000683",
"G&	c #02007F",
"H&	c #060087",
"I&	c #0A0086",
"J&	c #0F0288",
"K&	c #120085",
"L&	c #130080",
"M&	c #14007F",
"N&	c #160083",
"O&	c #190085",
"P&	c #1B0082",
"Q&	c #1D0085",
"R&	c #21008B",
"S&	c #3A3357",
"T&	c #273F4C",
"U&	c #2A305F",
"V&	c #4C5F7D",
"W&	c #06613B",
"X&	c #007C3C",
"Y&	c #009C53",
"Z&	c #007E53",
"`&	c #15B394",
" *	c #156B8E",
".*	c #000D80",
"+*	c #000980",
"@*	c #000381",
"#*	c #010085",
"$*	c #050083",
"%*	c #080085",
"&*	c #150084",
"**	c #170084",
"=*	c #170081",
"-*	c #190081",
";*	c #1B0081",
">*	c #1D0082",
",*	c #1E0081",
"'*	c #210082",
")*	c #27008E",
"!*	c #2A0063",
"~*	c #160F24",
"{*	c #3B487E",
"]*	c #356C67",
"^*	c #005936",
"/*	c #007441",
"(*	c #007E4A",
"_*	c #0A775A",
":*	c #1D5E5A",
"<*	c #0C98B4",
"[*	c #000982",
"}*	c #000482",
"|*	c #00017E",
"1*	c #010081",
"2*	c #1B0B86",
"3*	c #150385",
"4*	c #150082",
"5*	c #160082",
"6*	c #18007F",
"7*	c #1A0084",
"8*	c #1C0081",
"9*	c #1E0083",
"0*	c #200084",
"a*	c #220085",
"b*	c #270088",
"c*	c #482FB1",
"d*	c #330067",
"e*	c #354157",
"f*	c #334242",
"g*	c #0C4D37",
"h*	c #006840",
"i*	c #008553",
"j*	c #09B78B",
"k*	c #0E5E6B",
"l*	c #1A405E",
"m*	c #000283",
"n*	c #080083",
"o*	c #170586",
"p*	c #190080",
"q*	c #1A007E",
"r*	c #1D0083",
"s*	c #1F007F",
"t*	c #220080",
"u*	c #240080",
"v*	c #2A0087",
"w*	c #231442",
"x*	c #410080",
"y*	c #300156",
"z*	c #2C2931",
"A*	c #266454",
"B*	c #006847",
"C*	c #006F4C",
"D*	c #0F8C71",
"E*	c #158BA7",
"F*	c #205AA4",
". + @ # $ % & * = - ; > , ' ) ! ~ { ] ^ / ( _ : < [ } | 1 2 3 4 ",
"5 6 7 8 9 0 a b c d e f g h i j k l m n o p q r s [ t u v w x y ",
"z A B C D E F G H I J K L M N O P Q R S T U V W X [ Y Z `  ...+.",
"@.#.$.%.&.*.=.-.;.>.,.'.).!.~.{.].^./.(._.:.<.[ [ [ [.}.|.1.2.3.",
"4.5.6.7.8.9.0.a.b.c.d.e.[ [ [ f.g.h.i.j.k.l.[ [ m.n.o.p.q.r.s.t.",
"u.v.w.x.y.z.A.B.C.D.E.[ [ F.[ [ [ [ [ [ G.H.[ I.J.K.L.M.N.O.P.Q.",
"R.S.T.U.V.W.X.Y.Z.`. +[ .+++@+#+$+%+&+[ [ [ [ *+=+-+;+>+,+'+)+!+",
"~+{+]+^+/+(+_+:+<+[+}+[ [ |+[ [ 1+2+3+4+5+6+7+8+9+0+a+b+c+d+e+f+",
"g+h+i+j+k+l+m+n+o+p+q+r+[ s+[ [ [ t+u+v+w+x+y+z+A+B+C+D+E+F+G+H+",
"I+J+K+L+M+N+O+P+Q+R+S+T+[ U+V+[ W+[ X+Y+Z+`+ @.@+@@@#@$@%@&@*@[ ",
"=@-@;@>@,@[ [ [ '@)@!@~@[ {@]@[ [ ^@[ [ /@(@_@:@<@[@}@|@[ [ [ [ ",
"[ [ [ 1@[ [ 2@[ [ [ [ 3@[ 4@5@6@[ 7@8@[ 9@0@a@b@c@d@e@f@[ g@h@i@",
"j@k@[ [ [ l@m@n@o@p@[ [ [ q@r@s@t@[ u@v@[ [ w@x@[ [ [ [ [ y@z@A@",
"B@C@D@E@F@G@H@I@J@K@L@M@N@O@P@Q@R@[ [ S@T@[ [ [ [ U@V@W@X@[ [ [ ",
"Y@Z@`@ #.#+#@###$#%#&#*#=#-#;#>#,#'#[ )#!#~#{#]#^#/#(#[ [ [ _#:#",
"<#[#}#|#1#2#[ [ [ [ [ 3#4#5#6#7#8#9#[ 0#a#b#c#[ [ [ [ [ d#e#f#g#",
"h#i#j#k#l#[ [ m#n#o#[ [ [ [ p#q#[ [ [ r#s#t#[ [ u#v#w#x#y#z#A#B#",
"C#D#E#[ [ [ F#G#H#I#J#K#L#[ [ [ [ M#N#O#P#[ [ Q#R#S#T#U#V#W#X#Y#",
"Z#`# $[ .$+$@$#$$$%$&$*$=$-$;$>$,$'$)$!$[ [ ~${$]$^$/$($[ [ [ [ ",
"_$:$<$[ [$}$|$1$2$3$4$5$-$6$7$8$9$0$a$[ [ b$c$d$e$f$g$[ [ h$i$[ ",
"j$k$l$[ m$n$o$p$q$r$s$t$u$v$w$x$y$z$[ [ A$B$C$e$f$D$E$[ F$G$H$I$",
"[ [ [ [ J$K$L$M$N$T@O$P$Q$R$S$T$U$[ [ V$W$X$Y$Z$`$ %.%[ +%@%#%$%",
"%%&%*%=%-%;%>%,%'%)%!%v$~%b#{%]%[ [ ^%/%(%_%[ [ [ [ [ [ :%<%[%}%",
"|%1%2%3%4%&$5%6%7%8%9%0%a%b%c%[ [ d%e%f%g%[ [ h%i%[ [ j%k%l%m%n%",
"o%p%q%r%s%t%u%v%w%x%y%T$z%P#[ [ A%B%C%D%E%[ F%G%H%I%J%K%L%M%N%O%",
"P%Q%R%S%&$T%U%V%W%X%Y%Z%`%[ [  &.&+&@&#&[ [ $&%&&&*&=&-&;&>&,&'&",
")&!&~&{&*$]&^&/&(&_&:&<&[ [ [&}&|&1&2&3&[ 4&5&6&7&8&9&0&a&b&c&d&",
"e&f&g&*$h&i&a$j&k&l&[ [ [ m&n&o&@&p&q&r&[ s&t&u&v&w&x&y&z&A&B&C&",
"D&g&E&F&P$G&H&I&J&[ [ K&L&M&N&R#O&P&Q&R&[ [ S&T&U&V&W&X&Y&Z&`& *",
".*+*5$@*#*$*%*[ [ [ n&M&&***=*-*;*>*,*'*)*[ !*~*{*]*^*/*(*_*:*<*",
"[*}*|*1*0%U$[ [ 2*3*4*5*6*-*7*8*w#9*0*a*b*[ c*d*e*f*g*h*i*j*k*l*",
"h&m*v$a#n*`%[ o*M&1&R#R#p*q*r*,*s*a*t*u*v*[ w*x*y*z*A*B*C*D*E*F*"};
