/* XPM */
static char *displaynull[]={
"34 34 226 2",
"Qt c None",
".# c #000000",
".p c #000000",
".a c #000000",
".d c #000000",
".b c #000000",
"bn c #000000",
"bC c #000000",
"av c #000000",
"#G c #000000",
"bF c #000000",
"bD c #000000",
"aG c #000000",
"au c #000000",
"bE c #000000",
"bB c #000000",
"at c #000000",
"aR c #000000",
"#z c #000000",
"aW c #000000",
"as c #000000",
"ar c #000000",
"br c #000000",
"aF c #000000",
"bu c #000000",
"bA c #000000",
"bb c #000000",
"bv c #000000",
"bt c #000000",
"aE c #000000",
"bm c #000000",
"bg c #000000",
"bq c #000000",
"a9 c #000000",
"bw c #000000",
"bz c #000000",
"bj c #000000",
"aV c #000000",
"aD c #000000",
"a5 c #000000",
"bx c #000000",
"by c #000000",
"aC c #000000",
"aQ c #000000",
"bp c #000000",
"aB c #000000",
"bl c #000000",
"aA c #000000",
"aZ c #000000",
"aP c #000000",
"bk c #000000",
"a8 c #000000",
"aO c #000000",
"aN c #000000",
"aM c #000000",
"aL c #000000",
"aU c #000000",
".c c #000000",
"bo c #020202",
".m c #040404",
".Q c #0a0a0a",
".A c #0c0c0c",
".x c #121212",
".l c #2c2c2c",
".k c #303030",
"#J c #323232",
"ba c #343434",
".y c #353535",
"a7 c #363636",
"a# c #373737",
".g c #383838",
"#V c #393939",
"aT c #3a3a3a",
"af c #3b3b3b",
"#U c #3c3c3c",
"ay c #3d3d3d",
"#T c #3f3f3f",
"an c #404040",
"bf c #414141",
"#S c #424242",
"#l c #434343",
"#K c #444444",
"be c #454545",
"ao c #464646",
"#R c #474747",
"a4 c #484848",
"#W c #494949",
"#Q c #4a4a4a",
"#P c #4c4c4c",
"#y c #4d4d4d",
"az c #4e4e4e",
".N c #4f4f4f",
"#I c #505050",
"aJ c #515151",
"#O c #525252",
"#x c #535353",
"## c #545454",
"#A c #555555",
"ak c #575757",
".v c #585858",
"aj c #595959",
"#F c #5b5b5b",
"am c #5c5c5c",
"#w c #5e5e5e",
"#5 c #606060",
"aq c #616161",
"ah c #636363",
"#E c #646464",
"a. c #656565",
"ax c #666666",
"a3 c #676767",
"b# c #686868",
"#9 c #696969",
"#k c #6b6b6b",
"aK c #6c6c6c",
"#H c #6f6f6f",
"aI c #707070",
"ae c #717171",
"a0 c #727272",
"#D c #737373",
"aw c #747474",
"bs c #757575",
"ai c #767676",
"#4 c #777777",
"a2 c #787878",
"aS c #797979",
"#3 c #7a7a7a",
"#C c #7b7b7b",
".S c #7c7c7c",
"aH c #7d7d7d",
".4 c #7e7e7e",
"ad c #7f7f7f",
".P c #808080",
"#a c #818181",
".T c #828282",
"#B c #838383",
"#b c #848484",
"#6 c #868686",
".D c #878787",
"ac c #888888",
"al c #898989",
".C c #8a8a8a",
"#i c #8b8b8b",
"ag c #8c8c8c",
"#2 c #8d8d8d",
".W c #8e8e8e",
"aa c #8f8f8f",
".U c #909090",
"aY c #919191",
".E c #929292",
".5 c #939393",
".V c #949494",
".F c #959595",
".G c #969696",
".2 c #979797",
"#1 c #989898",
"#h c #9a9a9a",
".B c #9b9b9b",
".O c #9c9c9c",
".3 c #9d9d9d",
".q c #9e9e9e",
".w c #a0a0a0",
".H c #a2a2a2",
"#d c #a3a3a3",
"#g c #a5a5a5",
".X c #a6a6a6",
"#c c #a8a8a8",
".R c #a9a9a9",
".r c #ababab",
"bi c #adadad",
"#e c #aeaeae",
".I c #afafaf",
"#j c #b0b0b0",
".1 c #b1b1b1",
"ap c #b2b2b2",
".h c #b3b3b3",
"#m c #b4b4b4",
"#X c #b5b5b5",
"a1 c #b6b6b6",
".s c #b7b7b7",
"#8 c #b8b8b8",
"ab c #b9b9b9",
".o c #bababa",
".J c #bbbbbb",
"#. c #bcbcbc",
"#v c #bebebe",
".i c #bfbfbf",
"aX c #c0c0c0",
"a6 c #c2c2c2",
"#n c #c3c3c3",
".t c #c4c4c4",
"#u c #c5c5c5",
".n c #c8c8c8",
"#t c #cbcbcb",
".j c #cccccc",
"#f c #cdcdcd",
".9 c #cfcfcf",
".u c #d0d0d0",
"#s c #d2d2d2",
".K c #d4d4d4",
"#o c #d5d5d5",
".Y c #d8d8d8",
"bc c #dbdbdb",
".z c #dcdcdc",
".e c #dddddd",
"#r c #dedede",
"#0 c #dfdfdf",
".L c #e1e1e1",
"#L c #e3e3e3",
"#N c #e4e4e4",
".Z c #e5e5e5",
".7 c #e9e9e9",
"#q c #ebebeb",
".M c #ededed",
"#M c #eeeeee",
".0 c #f1f1f1",
"#p c #f2f2f2",
".f c #f4f4f4",
".8 c #f6f6f6",
"bh c #f7f7f7",
"#Z c #f8f8f8",
"b. c #f9f9f9",
"#7 c #fafafa",
"bd c #fbfbfb",
"#Y c #fefefe",
".6 c #ffffff",
"QtQtQtQtQtQtQtQtQtQtQtQtQt.#.a.a.#QtQtQtQtQtQtQtQtQtQtQtQtQtQtQtQtQt",
"QtQtQtQtQtQtQtQt.#.a.a.a.b.c.cQtQtQtQt.a.#QtQtQtQtQtQtQtQtQtQtQtQtQt",
"QtQtQtQtQt.#.a.d.c.c.c.c.c.e.f.g.c.c.cQtQtQt.a.a.#QtQtQtQtQtQtQtQtQt",
"QtQtQt.#.a.c.c.c.h.i.j.k.e.l.k.f.m.n.o.c.c.c.cQtQtQtQtQtQtQtQtQtQtQt",
"QtQt.p.c.c.q.r.s.t.u.e.v.w.x.y.l.z.A.B.C.D.E.F.c.cQtQtQtQtQtQtQtQtQt",
"Qt.#.c.G.H.I.J.n.K.L.M.g.l.N.O.P.h.Q.R.S.T.U.O.V.W.cQtQtQtQtQtQtQtQt",
"Qt.a.c.X.h.i.j.Y.Z.0.M.Y.1.2.3.P.c.c.T.S.4.5.B.E.E.cQtQtQtQtQtQtQtQt",
"Qt.a.c.6.6.u.e.7.8.7.e.9#..R.r.g.k###a#b.U.w.E#c#d.cQtQtQtQtQtQtQtQt",
"Qt.d.c#e#f.6.6.6.Z.Y.j.i.h#g#h.W.G#h.2#i.I.s#j#k#l.cQtQtQtQtQtQtQtQt",
"Qt.a.c.r#m.J#n#o.6.6#p#q.Z#r.Y#s#t#u#v#.#b#w#x#y#l.cQtQtQtQtQtQtQtQt",
"Qt.a#z.c#A.J#n#f#n.J.h.r#d.B.5#i#B#C#D#k#E#F#x.k.cQtQtQtQtQtQtQtQtQt",
"Qt.##G.c.i#A#A#D#n.J.h.r#d.B.5#i#B#C#D#H#I#J.k#K.cQtQtQtQtQtQtQtQtQt",
"QtQt.b.c#L#M#N.s#O###O.N#P#Q#R#K#S#T#U#V#O#####W.cQtQtQtQtQtQtQtQtQt",
"QtQt.d.c#L#X.s#Y#Z#p.7#0#s.t#m#d#1#2#3#4#k#5#V#W.cQtQtQtQtQtQtQtQtQt",
"QtQt.d.c#L#6#6#2#7#8#B#0#s.t#9#d#1#2#Ia.#k#Ta#.y.cQtQtQtQtQtQtQtQtQt",
"QtQt.d.c#L#6aaab#7acadad.eaea.#5.h#A#y#Q#k#Taf#W.cQtQtQtQtQtQtQtQtQt",
"QtQt.d.c#Lag.2ab#7ac.D#g.eae#kad.h#A#Oah#k#S#T#W.cQtQtQtQtQtQtQtQtQt",
"QtQt.d.c#Lag.wab#7.Waa#g.eaiaead.hajakah#k#S#S#W.cQtQtQtQtQtQtQtQtQt",
"QtQt.d.c#Lal.Rab#7.W#1#g.eai#4ad.hajamah#kanao#W.c.a.a.p.#.#QtQtQtQt",
"QtQt.d.c#L#bapab#7#i.w#g.eai.Sad.hakaqah#k#T#Q#W.carasatauav.d.#QtQt",
"QtQt.d.c#L#a.Jab#7.D#c#g.eaw.Tad.h#xaxah#kayaz#W.caAaBaCaDaEaFaG.b.#",
"QtQt.d.c#LaH#.ab#7.T.1#g.eaIacad.haJaKah#kafaz#W.caLaMaNaOaPaQaEaR.b",
"QtQt.d.c#LaS.iab#7.P.h#g.eaK.Wad.h#yaIah#kaTaz#W.caUaUaUaUaLaMaPaVaW",
"QtQt.d.c#LaiaXab#7#C#X#g.e#9aYad.h#Qawah#k#Vaz#W.caUaUaUaUaUaUaLaZaE",
"QtQt.d.c#La0#na1#7a2.s#g.ea3.Vad.ha4a2ah#ka#az#W.caUaUaUaUaUaUaUaOa5",
"QtQt.d.c#L#Ha6.r#7aw.o.w.e#E.2ad.haoaH#5#9a7az#W.caUaUaUaUaUaUaUa8a9",
"QtQt.d.c#Lah.n.Bb.ae.J.3.e#5.B#3.hao#aamb#baazay.caUaUaUaUaUaUaLaAbb",
"QtQt.d.cbc.na2.ibd#E#n#i.e#w.q#4.hbeaa#I#k#Sbf#W.caUaUaUaUaUaMaZbgau",
"QtQt.a.c.J.Mbh#Y.6bib##1.z#A.Rax.hak#laqa3#5##an.caUaUaUaLaMaZbj#z.d",
"QtQt.aQt.ca6bh#Yb..Ma6.z#s.X##ag.G#i#3a0#k#5bf.caUaUaLaMbkblbm#zbn.#",
"QtQt.#QtQtah.cbo.V.n.7#0#s#n#m.H#1#2#D#kbo.cahaLaMa8aZbpbqbr#G.aQtQt",
"QtQtQtQtQtQtQtQtac#k.c.c.c.c.c.c.c.c#ybsaMaMaOaPaAaDbtaFaubn.#QtQtQt",
"QtQtQtQtQtQtQtQtQt.#.baGbubvbwbxaCaCbyaCbybxbzbtbAbBav.d.#QtQtQtQtQt",
"QtQtQtQtQt.#.aQtQtQtQt.#.bbCbDbBaRatataRatbEbFbCbn.p.#QtQtQtQtQtQtQt"};
