/* XPM */
static char *displayreference[]={
"32 32 232 2",
"Qt c None",
".x c #000000",
"bE c #000923",
"bB c #000b25",
"bC c #002175",
"bH c #02277d",
"bm c #022b9f",
"bI c #022d9b",
"bL c #031120",
"bF c #040a13",
".v c #050500",
"bA c #050d1c",
"bn c #06309b",
"br c #06319d",
"bs c #09369a",
".w c #0b0900",
"bl c #0c3697",
"bJ c #1047a3",
".q c #110e02",
"#h c #1671c5",
".k c #171200",
"bv c #1771c4",
".2 c #1791e6",
".1 c #188be3",
"bz c #192e5e",
"bk c #1a3991",
"bf c #1b8bda",
"#z c #1b8cdc",
".r c #1c1603",
"bG c #1c3573",
"#i c #1e67b9",
"ak c #226abb",
"bK c #256bb2",
"bo c #264281",
"by c #26428b",
"bq c #273f6c",
"bD c #29385e",
"av c #2d73ba",
"bt c #2e2e47",
"#g c #2e4a67",
"bu c #334856",
"bg c #337bbe",
"aL c #367cbd",
"b. c #41362c",
"#y c #41372e",
"bc c #433226",
"a4 c #448bc7",
"#Y c #463125",
"#T c #473226",
"#J c #493428",
"ba c #4b3525",
"bp c #4b423c",
".V c #4d3a30",
"a9 c #4f4134",
"#t c #523b2d",
"aU c #543829",
"#b c #574034",
".g c #58470d",
"bd c #594d40",
"b# c #5a3d29",
".l c #5b4c0e",
"aG c #5c4b3f",
"aW c #5d3e2a",
"be c #5d4d3e",
".M c #5e4f00",
"bj c #5e4f41",
"bx c #606267",
"bb c #61412e",
"aF c #624a3f",
"a8 c #635242",
".f c #685705",
"aY c #685749",
"aE c #695044",
".e c #695518",
"a1 c #695848",
"aR c #695f56",
"aT c #6b564c",
"a0 c #6d5e4c",
"aS c #6d5f58",
"aX c #6f5340",
"bw c #6f5e4e",
"aH c #6f5e52",
"aQ c #71665a",
"aZ c #72624f",
"a7 c #726253",
"aI c #736358",
".c c #7e6a00",
".h c #7e6b13",
"a2 c #806c5b",
"bi c #847261",
"#f c #877464",
"au c #887665",
".3 c #928fb0",
"aD c #947359",
".p c #957258",
"af c #95827c",
"aJ c #968373",
"aC c #977668",
"#7 c #997c6e",
"ag c #998884",
"ap c #9a8989",
"#1 c #9b7a5c",
"#c c #9c8173",
"#U c #9d7f66",
"#X c #9e795d",
"#S c #9e7c5d",
"#I c #9f7d5e",
"aq c #9f8c88",
"ao c #a08a83",
"#Z c #a17f64",
"#K c #a1846e",
"aP c #a1917a",
"#s c #a27f5f",
".E c #a2856f",
"#a c #a68267",
"aV c #a68363",
"#u c #a68973",
".W c #a68a77",
"aA c #a79788",
"a6 c #a89483",
"aa c #a8948d",
"aB c #aa9991",
"ar c #ac9895",
".d c #ae981f",
"ah c #ae9c95",
"ae c #af9b98",
"bh c #b09f91",
"a# c #b19f98",
"a3 c #b1a090",
".s c #b29887",
"#5 c #b8a7a1",
".U c #b9997c",
".Y c #b9a6a2",
"as c #b9a9a2",
".o c #bba494",
"#R c #bca291",
"#r c #bda392",
"#3 c #bfaeaa",
".G c #c0b1ab",
".K c #c7b9b0",
"#m c #c8b9b3",
"az c #c8baab",
"#8 c #c9bab4",
".D c #cab099",
"aO c #cabcad",
"a. c #cbbbb4",
"#B c #cdbfb8",
"#w c #cec0b9",
".I c #cfc1ba",
".L c #d0c2bb",
"#C c #d1c4bc",
".T c #d2baa5",
"#v c #d2bcab",
"ai c #d2c6bf",
".X c #d3beae",
"#G c #d3c4be",
"#6 c #d4c8c1",
".N c #d5c8c0",
"aK c #d5c9c2",
".n c #d7cbc8",
".F c #d8c4b3",
"#. c #d8cac3",
"at c #d8cdc5",
"## c #d9c4b2",
"#l c #d9cec6",
".4 c #d9d5da",
"#H c #dac5b3",
"#q c #daccc7",
"#d c #dacec7",
"#2 c #dad1d1",
"#W c #dbc5b4",
".t c #dbcbbc",
".9 c #dbd3d0",
"#O c #dcd2cb",
".C c #ddcdc4",
"#E c #ddd3ce",
"#F c #ddd4d4",
"#4 c #ded3cd",
".8 c #ded5d3",
"#D c #e0d6cf",
"a5 c #e0d7d3",
"#L c #e0d9d9",
".m c #e1d8d0",
".H c #e1dada",
"aM c #e2dad7",
"#n c #e2dcd7",
"aw c #e2dcd9",
".y c #e3dad2",
".7 c #e3dad4",
".S c #e4dad1",
"ay c #e4dbcd",
".Z c #e4dbd3",
"al c #e4dedb",
"#x c #e5ddd4",
"#P c #e6ddd7",
"#e c #e6ded5",
"#0 c #e6dfdd",
"#j c #e6dfdf",
".z c #e7ded6",
"aj c #e7dfd6",
".J c #e7dfd8",
"ab c #e7dfda",
"#V c #e7e0de",
"aN c #e8e1d9",
"#M c #e8e2df",
"am c #ebe7e2",
"#A c #ece4df",
"ax c #ece6df",
".6 c #ece7df",
".i c #ede6de",
".B c #eeeae7",
"an c #efe7e0",
"ad c #f0e7e1",
".0 c #f0ebe7",
"#N c #f0ece7",
"#Q c #f0ede9",
".a c #f1ede8",
".u c #f1eee8",
"#o c #f1eeea",
".O c #f2efe9",
".A c #f3f0ea",
".j c #f3f0ec",
"#p c #f3f0f0",
".5 c #f6f3ef",
"#k c #f6f4f1",
"#9 c #f6f5ef",
".P c #f6f5f1",
".Q c #f7f6f2",
".# c #f8f7f1",
".R c #f9f8f4",
"ac c #fafaf7",
".b c #ffffff",
"QtQtQtQtQtQtQtQtQtQtQtQtQtQtQtQtQtQtQtQtQtQtQtQtQtQtQtQtQtQtQtQt",
"QtQtQtQtQtQtQtQtQtQtQtQtQtQtQtQtQtQtQtQtQtQtQtQtQtQtQtQtQtQtQtQt",
"QtQtQtQtQtQtQtQtQtQtQtQtQtQtQtQtQtQtQtQtQtQtQtQtQtQtQtQtQtQtQtQt",
"QtQtQtQtQtQtQtQtQtQtQtQtQtQtQtQtQtQtQt.#.#.aQtQtQtQtQtQtQtQtQtQt",
"QtQtQtQtQtQtQtQtQtQtQtQtQtQtQtQtQtQt.a.#.b.a.a.cQtQtQtQtQtQtQtQt",
"QtQtQtQtQtQtQtQtQtQt.d.e.f.g.g.hQt.i.j.#.b.a.a.k.cQtQtQtQtQtQtQt",
"QtQtQtQtQtQtQtQt.d.l.m.n.o.p.q.r.s.t.u.#.b.a.a.v.w.xQtQtQtQtQtQt",
"QtQtQtQtQtQt.d.l.y.z.A.B.C.D.p.v.E.F.a.G.H.I.J.K.L.x.xQtQtQtQtQt",
"QtQtQtQt.x.M.N.m.O.P.Q.R.S.T.U.V.W.X.Y.Z.b.a.a.I.0.1.2.x.xQtQtQt",
"QtQtQt.x.3.4.5.6.6.7.8.9#.###a#b.W#c#d.G.H.I.J.I#e#f#g#h.xQtQtQt",
"QtQt.x#i#j#k.6#l#m#n#o#p#q#r#s#t#u#v.Y.Z.b.a.a#w#x#f#y#z.xQtQtQt",
"QtQt.x#i#A#k#B#C.J#D#E#F#G#H#I#J#K#c#d.G#L.I.J#w#x#f#y.2.xQtQtQt",
"QtQt.x#i#M#N#O#l#m#P#Q#p#q#R#S#T#U#v.Y.Z.b.a.a#w#x#f#y.2.xQtQtQt",
"QtQt.x#i#V#k#B#C.J#D#E#F#G#W#X#Y#Z#c#d.G#L.I.J#w#x#f#y.2.xQtQtQt",
"QtQt.x#i#0#N#O#l#m#P#Q#p#q#r#X#Y#Z#v.Y.Z.b.a.a#w#x#f#y.2.xQtQtQt",
"QtQt.x#i#M#k#B#C.J#D#E#F#G###1#Y#Z#c#d.G#2#3#4#w#x#f#y.2.xQtQtQt",
"QtQt.x#i#V#N#O#l#m#P#Q#p#q#r#1#Y#Z#v#5#6.b.a.a#w#x#f#y.2.xQtQtQt",
"QtQt.x#i#V#k#B#C.J#D#E#F#G#W#1#Y#Z#7#8#9.#.a.L#w#x#f#y.2.xQtQtQt",
"QtQt.x#i#0#N#O#l#m#P#Q#p#q#r#1#Y#Z#v.a.#a.a#aa.I#e#f#y.2.xQtQtQt",
"QtQt.x#iab#k#B#C.J#kac.bad#W#1#Y#Z#v.aaeafagahaiaj#f#y.2.xQtQtQt",
"QtQt.xakal#N#O.6am.Pac.ban#W#X#Y#Z#vaoapaqarasat.Jau#y.2.xQtQtQt",
"QtQt.xavaw#k.6axayazaAaBaCaD#1#Y#ZaEaFaGaHaIaJaKaxau#y.2.xQtQtQt",
"QtQt.xaLaM#kaNaOaPaQaRaSaTaU#1#YaVaWaXaYaZa0a1a2a3au#y.2.xQtQtQt",
"QtQt.xa4a5a6a7a8a9#y#y#y#yb.b#babb#y#y#y#y#ybcbdbeau#ybf.xQtQtQt",
"QtQt.xbgbhbibj#y#ybkblbmbmbnbobpbqbrbmbmbsbkbt#y#y#ybubv.xQtQtQt",
"QtQt.x#ibwa0#ybxbybzbA.x.xbBbCbDbmbE.x.xbFbGbybHbIbJbK.2.xQtQtQt",
"QtQt.x#i#i#i#i#ibL.x.x.x.x.x.x.x.x.x.x.x.x.x.x.x.x.x.x.x.xQtQtQt",
"QtQt.x.x.x.x.x.x.x.xQtQtQtQt.x.x.x.xQtQtQtQt.x.x.x.x.x.x.xQtQtQt",
"QtQt.x.x.x.x.xQtQtQtQtQtQtQtQtQtQtQtQtQtQtQtQtQtQtQtQtQtQtQtQtQt",
"QtQtQtQtQtQtQtQtQtQtQtQtQtQtQtQtQtQtQtQtQtQtQtQtQtQtQtQtQtQtQtQt",
"QtQtQtQtQtQtQtQtQtQtQtQtQtQtQtQtQtQtQtQtQtQtQtQtQtQtQtQtQtQtQtQt",
"QtQtQtQtQtQtQtQtQtQtQtQtQtQtQtQtQtQtQtQtQtQtQtQtQtQtQtQtQtQtQtQt"};
