/* XPM */
static char *displayselected[]={
"32 32 9 1",
". c None",
"# c #000000",
"d c #130001",
"b c #1f0003",
"g c #2c0004",
"c c #2e0004",
"e c #400006",
"f c #430006",
"a c #ffffff",
"................................",
"................................",
"................########........",
".......##.....###aaaaaa####.....",
".......########aaaaaaaaaa##.....",
"........##aaaaaaaaaaaaaa###.....",
".........##aaaaaaaaaaaaa##......",
"..........###aaaaaaaaaa###......",
"...........##aaaaaaaaaa##.......",
".........###aaaaaaaaaa###.......",
".......###aaaaa#########........",
"........###aa###....####........",
"..........####.......##.........",
"....................###.........",
"....................##..........",
"...................##b..........",
"...................##...........",
"..................c##...........",
"..................de............",
".................###............",
".................##.............",
"................###.............",
"................##..............",
"...............###..............",
"...............##...............",
"..............###...............",
"..............##................",
".............##f................",
".............##.................",
".............#g.................",
"................................",
"................................"};
