/* XPM */
static char *displaysingle[]={
"32 32 3 1",
"# c #808080",
"a c #ff0000",
". c #ffffff",
"................................",
"............#########...........",
"..##.......###########..........",
".####.....###.......##..........",
".#####...###.......###.....##...",
".##.###.###.......###.....aa##..",
".##..#####.......###.....aaa##..",
".##...###.......###.....aaa.##..",
".##..#####.....###.....aaa..##..",
".##.###.###...###.....aaa...##..",
".#####...###.###.....aaa....##..",
".####.....#####.....aaa.....##..",
"...........###.....aaa......##..",
"..........#####...aaa......###..",
".........###.###.aaa......###...",
"........###...##aaa......###....",
".......###.....aaa......###.....",
"......###.....aaa##....###......",
".....###.....aaa.###..###.......",
"....###.....aaa...######.....##.",
"...###.....aaa.....####.....###.",
"..###.....aaa......####....####.",
"..##.....aaa......######..####..",
".##.....aaa......###..#######...",
".##....aaa......###....#####....",
".##...aaa......###......###.....",
".##..aaa......###......#####....",
".##.aaa......###......###.###...",
".##aaa......###......###...##...",
"..##a......############.........",
"..........############..........",
"................................"};
