/* XPM */
static char *displayfeatureinfo[]={
"32 32 247 2",
".c c None",
"Qt c None",
"a5 c #00060a",
"az c #052337",
".# c #000000",
"aP c #000101",
"bW c #000102",
"bX c #000509",
"bQ c #020b10",
"bt c #020c16",
"a3 c #03192a",
"bM c #04305b",
"bL c #04325d",
"bF c #051e40",
"bs c #052141",
"bO c #052346",
"bG c #052448",
"bV c #052545",
"bN c #052951",
"bD c #052e58",
"bH c #053054",
"bu c #053057",
"bI c #05325b",
"bK c #05335d",
"bP c #06213e",
"bT c #06264b",
"am c #062a43",
"bZ c #062a45",
"bJ c #063660",
"bC c #063763",
"by c #06406e",
"bU c #072949",
"br c #072a4e",
"bE c #072b53",
"aM c #073055",
"ax c #073056",
"bz c #073f6c",
"bc c #082a48",
"bS c #082a49",
"a2 c #083659",
"bb c #08365b",
"aj c #08365e",
"bB c #083c6a",
"bA c #083d6c",
"bx c #08416f",
"#q c #09395e",
"a# c #093961",
"ab c #093d65",
"#S c #093e66",
"#F c #093e67",
"ak c #0a365b",
"aa c #0a3860",
"bf c #0a395e",
"aL c #0a3d66",
"bv c #0a3e69",
".e c #0a3f68",
"ba c #0a416b",
"bw c #0a416e",
"bg c #0a4370",
"#2 c #0b3c65",
"#Q c #0b446c",
"aw c #0b4773",
"aY c #0b5082",
"aX c #0b5183",
"#R c #0c3e68",
"ai c #0c4d7b",
"aG c #0c5689",
"aH c #0c578a",
"aF c #0c5a8c",
"aE c #0c5a8d",
"#j c #0c5b8e",
"#i c #0c5c8e",
".5 c #0c5c8f",
"as c #0c5d90",
"ar c #0c5f91",
"#8 c #0c5f92",
"#M c #0c6295",
"#y c #0c6395",
"#. c #0d4169",
"a1 c #0d456e",
"#D c #0d4671",
"bh c #0d4879",
"a. c #0d5081",
"b. c #0d5382",
"#C c #0d5484",
"aI c #0d578a",
"aV c #0d588a",
"au c #0d5a8c",
".6 c #0d5c8f",
"at c #0d5d90",
"#N c #0d5e90",
"#A c #0d5e91",
"#h c #0d5f91",
".4 c #0d5f92",
"#z c #0d6093",
"#Y c #0d6698",
"aK c #0e507c",
"a9 c #0e5281",
"#1 c #0e5485",
"#P c #0e5587",
"aJ c #0e5787",
"av c #0e5889",
"aU c #0e598a",
"aT c #0e5a8a",
"ah c #0e5b8e",
"#k c #0e5c8f",
"#O c #0e5d90",
"#0 c #0e5e90",
"#B c #0e5e91",
"## c #0f4269",
"a0 c #0f4c7a",
"aZ c #0f5383",
"#l c #0f5c8e",
"ag c #0f6596",
".S c #0f699a",
"#g c #0f6a9a",
"#x c #0f6a9b",
"a6 c #10425c",
"#n c #10446e",
"#m c #105581",
".7 c #105e90",
"bi c #114a7c",
"#L c #116b9b",
"#7 c #126999",
".R c #136e9d",
".8 c #145e8c",
"ay c #15324b",
"#X c #156d9c",
".T c #166a99",
"#9 c #176494",
"bq c #18436b",
".9 c #18547a",
"a8 c #185883",
"#Z c #196595",
"aD c #196693",
"#f c #1a72a1",
"b# c #1b517c",
"bp c #1c4b77",
"aS c #1c628e",
"aN c #1d415a",
"#E c #1d4b72",
".g c #1d4d72",
"bk c #1d5380",
"aq c #1d6c98",
"bo c #1e517e",
"bn c #1e5280",
"bm c #1e5380",
"bl c #1e5481",
"bj c #1e5582",
"aW c #1f6291",
".U c #1f6c99",
"#K c #2176a1",
"a7 c #225a7f",
"#w c #2278a3",
"bd c #234965",
".X c #243a5e",
".W c #24668d",
"aA c #255672",
"af c #25739c",
".V c #2c6f97",
"#6 c #2d78a1",
"aQ c #356786",
".d c #385467",
".H c #3885ad",
".3 c #3a86ad",
"aR c #3b7395",
"#e c #3b88ac",
"#v c #3e87ae",
"#W c #4184a9",
".I c #4187ac",
".K c #427797",
"an c #467490",
"aC c #4780a0",
"ap c #4986a6",
".J c #4c86a6",
".G c #5295b6",
".F c #5495b5",
".Q c #5594b5",
"ae c #5790af",
"ac c #58849e",
"#J c #5a96b6",
"aB c #5b88a1",
"#5 c #619ab6",
"#d c #659ebd",
".2 c #65a1bd",
".y c #668ea4",
"#r c #6a8998",
"#3 c #6d93a8",
"bR c #707b82",
"#V c #72a5c0",
"bY c #788083",
"ao c #789fb6",
"b0 c #7d8487",
"#T c #7da0b1",
".P c #7fafc7",
".n c #800000",
".m c #819ead",
"#G c #82a3b3",
"#u c #82afc7",
".x c #84a7ba",
".E c #84aec6",
"a4 c #85898a",
"ad c #89adc1",
".Y c #8e9ca2",
"#I c #8eb6cb",
".1 c #90b9ce",
"be c #97938c",
"#4 c #98b7c9",
".l c #9ab1c0",
".w c #9cbbcb",
".D c #9cbed1",
"aO c #a29d94",
"#c c #a2c2d3",
"#o c #a39e98",
"al c #a4a19a",
"#U c #a6c1d0",
".O c #a8c8d8",
".v c #adc7d5",
"#a c #aec2cd",
".C c #b3cddb",
"#t c #b4cdda",
".f c #b7c6d1",
"#H c #b7ccd7",
".h c #b9bdbe",
".L c #babfc2",
"#s c #bcced8",
".u c #bcd1dd",
".o c #c00000",
"#p c #c3c3c3",
".0 c #c3d7e0",
".p c #c8caca",
"#b c #c8d8e0",
".N c #c8dae3",
".i c #c9cdcf",
".k c #c9d3d9",
".t c #c9d8e2",
".z c #cfd1d3",
".s c #cfdce3",
".Z c #d2dbe0",
".B c #d2e1e9",
".j c #d6d9db",
".r c #d8e1e6",
".q c #dde1e4",
".M c #e0e8ea",
".A c #e5ebee",
".a c #ff0000",
".b c #ffffff",
"QtQtQtQtQtQtQtQtQtQtQtQtQtQtQt.#QtQtQtQtQtQtQtQtQtQtQtQtQtQtQtQt",
"QtQtQtQtQtQtQtQtQtQtQtQtQtQtQt.#QtQtQtQtQtQtQtQtQtQtQtQtQtQtQtQt",
"QtQtQtQtQtQtQtQtQtQtQtQtQtQtQt.#QtQtQtQtQtQtQtQtQtQtQtQtQtQtQtQt",
"QtQtQtQtQtQtQtQtQtQtQtQt.a.a.a.b.a.a.aQtQtQtQtQtQtQtQtQtQtQtQtQt",
"QtQtQtQtQtQtQtQtQtQt.a.a.b.b.b.a.b.b.b.a.aQtQtQtQtQtQtQtQtQtQtQt",
"QtQtQtQtQtQtQtQt.a.a.b.b.b.b.b.a.b.b.b.b.b.a.aQtQtQtQtQtQtQtQtQt",
"QtQtQtQtQtQtQt.a.a.b.b.b.b.b.b.a.b.b.b.b.b.b.a.aQtQtQtQtQtQtQtQt",
"QtQtQtQtQtQt.a.a.b.b.b.b.b.a.a.b.a.a.b.b.b.b.b.a.aQtQtQtQtQtQtQt",
"QtQtQtQtQt.a.a.b.b.b.b.a.a.a.a.b.a.a.a.a.b.b.b.b.a.aQtQtQtQtQtQt",
"QtQt.c.c.c.a.b.b.b.d.e.e.e.e.e.f.a.a.a.a.a.b.b.b.b.aQtQtQtQtQtQt",
"QtQt.c.c.a.b.b.g.e.h.i.j.k.l.m.e.e.n.o.a.a.a.b.b.b.b.aQtQtQtQtQt",
"QtQt.c.c.a.b.e.p.q.r.s.t.u.v.w.x.y.e.n.o.a.a.a.b.b.b.aQtQtQtQtQt",
"QtQt.c.a.b.e.z.A.B.C.D.E.F.G.H.I.J.K.e.n.o.a.a.b.b.b.b.aQtQtQtQt",
"QtQt.c.a.e.L.M.N.O.P.Q.b.b.R.S.T.U.V.W.e.n.o.a.a.b.b.b.aQtQtQtQt",
"QtQt.c.X.Y.Z.0.1.2.3.b.b.b.b.4.5.6.7.8.9#..n.o.a.b.b.b.aQtQtQtQt",
".#.#.####a#b#c#d#e#f#g.b.b#h#i#j#j#k#l#m#n.n#o#p.a.a.a.b.#.#.#Qt",
"QtQt#q#r#s#t#u#v#w#x#y#z#A.5.5.5.6#B#B#C#D#E.n.o.b.b.b.aQtQtQtQt",
"QtQt#F#G#H#I#J#K#L#M#z#B#N.5.6.6#O#B#B#P#Q#R.n.o.b.b.b.aQtQtQtQt",
"QtQt#S#T#U#V#W#X#Y.b.b.b.b.b#Z#0#B#B#B#1.e#2.n#p.b.b.b.aQtQtQtQt",
"QtQt#F#3#4#5#6#7#y#8#B.b.b.b#9#0#B#B#ka.a#aa.n#p.b.b.aQtQtQtQtQt",
"QtQtabacadaeafag#8#A#B.b.b.b.6#O#B#Bahaiajakal#p.b.b.aQtQtQtQtQt",
"QtQtamanaoapaqar.5asat.b.b.bau.6.6#0avawaxay#o#p.b.aQtQtQtQtQtQt",
"QtQtazaAaBaCaD#i#jaEaF.b.b.baGaHaIaJaKaLaMaNaO#p.a.aQtQtQtQtQtQt",
"QtQt.caPaQaRaSaTaUaVaW.b.b.baXaYaZa0a1a2a3a4#p.a.aQtQtQtQtQtQtQt",
"QtQt.ca5a6a7a8a9b..b.b.b.b.b.b.bb#babbbcbdbe.o.aQtQtQtQtQtQtQtQt",
"QtQt.c.c.#bfbgbhbibjbkblbmbnbobpbqbrbsbt.n.o.oQtQtQtQtQtQtQtQtQt",
"QtQt.c.c.c.#bubvbwbxbybzbAbBbCbDbEbF.#.n.o.c.cQtQtQtQtQtQtQtQtQt",
"QtQt.c.c.c.c.#bGbHbIbJbKbLbMbNbObPbQbR.c.c.c.cQtQtQtQtQtQtQtQtQt",
"QtQt.c.c.c.c.c.#.#.#bSbTbUbVbW.#bXbY.c.c.c.c.cQtQtQtQtQtQtQtQtQt",
"QtQt.c.c.c.c.c.c.c.#.#.#.#.#bZb0.c.c.c.c.c.c.cQtQtQtQtQtQtQtQtQt",
"QtQtQtQtQtQtQtQtQtQtQtQtQtQtQt.#QtQtQtQtQtQtQtQtQtQtQtQtQtQtQtQt",
"QtQtQtQtQtQtQtQtQtQtQtQtQtQtQtQtQtQtQtQtQtQtQtQtQtQtQtQtQtQtQtQt"};
