/* XPM */
static char *edit_rect3D[]={
"32 32 319 2",
"Qt c None",
".o c #000000",
".Z c #010101",
"a5 c #020101",
"aV c #030303",
"aU c #040404",
"#e c #050300",
".5 c #050301",
".Y c #050505",
"a6 c #060605",
".0 c #080808",
"c8 c #0a0a06",
"aH c #0a0a0a",
"#N c #0b0b0b",
"ai c #0d0703",
".X c #0d0d0d",
"#D c #0e0e0e",
"aW c #101010",
"a7 c #13110e",
"#c c #131313",
".6 c #160e07",
"cZ c #161612",
".1 c #161616",
"b. c #191410",
"aj c #1b1b1a",
"au c #1f1814",
"a3 c #1f1a17",
"#Y c #1f1f1f",
"#v c #202020",
"as c #21100e",
"aN c #272625",
"a8 c #29251e",
"c7 c #2a2622",
"aM c #2b211c",
"#m c #2d1501",
"c4 c #2d2921",
"c5 c #2d2925",
"bP c #2e261a",
"cF c #2e261e",
"bt c #2e2a1e",
"c3 c #2e2a22",
"c2 c #2e2a26",
"aX c #2e2d2c",
"bf c #2e2e2f",
".7 c #2f2113",
"#j c #321900",
"c6 c #322a1e",
"c0 c #322a22",
"c1 c #322e2a",
"#w c #323232",
"aQ c #342b1d",
".2 c #343434",
"aT c #382f24",
"aG c #393630",
"ax c #3a3a3a",
"a9 c #3e352a",
"cG c #3f3f3f",
"ay c #464646",
".l c #484848",
"a2 c #4a4533",
".k c #4a4a4a",
"bz c #4f4a37",
".j c #515151",
"aF c #544f47",
"b7 c #545454",
".8 c #55483d",
"bQ c #555555",
"#s c #565656",
".i c #585858",
"b# c #595959",
"ao c #5c3211",
"aY c #5d5a57",
"aE c #5f5951",
".h c #606060",
"#O c #616161",
"aq c #624f30",
"aD c #625c53",
".g c #626262",
".f c #656565",
"aa c #666565",
".e c #676767",
".d c #6a6a6a",
"bj c #6b6359",
"bi c #6b645b",
".P c #6d6d6d",
"aR c #6e4c36",
"at c #6e6454",
".B c #6e6e6e",
".c c #6f6f6f",
"#f c #703a01",
"bk c #70685b",
"bD c #70685d",
".x c #707070",
"bh c #716a60",
"ap c #734629",
".C c #764e2a",
".t c #764f2b",
"#u c #767676",
".b c #777777",
"bl c #786e60",
"bY c #7a7163",
".p c #7a7a7a",
".Q c #7b5128",
"aS c #7b5848",
"ad c #7c3d18",
"ah c #7d3d15",
".a c #7d7d7d",
".I c #805430",
"aP c #807255",
"#n c #808080",
"bm c #817765",
"ar c #843c1c",
".# c #868686",
"aw c #888888",
"a4 c #8a8b8b",
"#H c #8b4a1f",
"bs c #8b775a",
"bn c #8b7f6c",
"bA c #8b8b8b",
"cS c #8c7c66",
"bg c #8c8c8c",
"#S c #8d491d",
"ce c #8d8270",
"#3 c #8e3e1d",
"#x c #8e542f",
".9 c #915a1b",
"#q c #916134",
".n c #939393",
"#8 c #944504",
"bo c #948670",
"#t c #999999",
"bp c #9d8d76",
"bE c #9d9181",
"cw c #9f917e",
"#p c #a1a1a1",
"ag c #a24d0f",
"bq c #a29177",
"br c #a39178",
"bC c #a49989",
"#X c #a54b04",
"bF c #a59986",
"af c #a6550d",
"bX c #a79b8a",
"aZ c #a7a39c",
"av c #a7a7a7",
"#7 c #a84d03",
"aI c #ababab",
".3 c #aeaeae",
"be c #b1aba2",
"#o c #b1b1b1",
"bG c #b2a58f",
"bd c #b2ada4",
"bZ c #b3a591",
"bc c #b3aea8",
"aJ c #b48e6c",
"bb c #b4b0a9",
"ba c #b5b2ad",
"#k c #b65803",
"#1 c #b6b3af",
"a1 c #b79f7c",
"bW c #b7ab99",
"#Q c #b7b5b3",
"#F c #b8b6b6",
"#6 c #b95600",
"#M c #b95804",
".4 c #b9b9b9",
"#W c #ba5904",
".s c #bababa",
"ae c #bb602e",
"bB c #bbb0a0",
"cE c #bc9c6d",
"cl c #bc9f71",
"cd c #bcae98",
"b6 c #be9e75",
"bO c #bea279",
"cX c #bea481",
"cR c #bea98e",
"cQ c #bead92",
"cY c #bfa37c",
"bH c #bfaf97",
"cW c #c0a583",
"b0 c #c0b19a",
"cV c #c1aa86",
"cP c #c1af97",
"cU c #c2ab8b",
"cT c #c2ab8d",
"#d c #c2c2c2",
"cO c #c3b39c",
"aO c #c3bcb3",
"cc c #c5b6a1",
"cN c #c5b7a0",
"cM c #c6b8a3",
"cL c #c6b9a9",
"cK c #c6bbab",
"cH c #c6c2b6",
"aL c #c7825b",
"cJ c #c7bfb4",
"a# c #c7c7c7",
"cI c #c8c1b7",
"#9 c #c8c8c8",
".m c #c9c9c9",
"bI c #cbba9e",
"b1 c #ccbba1",
"cf c #cebea5",
"aC c #d18260",
"bV c #d3c8b4",
"cv c #d4c6ac",
"bJ c #d6c1a3",
"cu c #d6c8b2",
"b2 c #d7c4a6",
"cg c #d8c5ab",
"cb c #d8c9b5",
"aK c #db9770",
"bK c #dcc6a4",
"b3 c #ddc7a9",
"ch c #decaab",
"cx c #e0cdb2",
"bL c #e1c9a5",
"b4 c #e1caa7",
"cy c #e1cdae",
"bN c #e2c69e",
"cD c #e2caa2",
"cC c #e2caa6",
"ci c #e2cbac",
"bM c #e3c8a2",
"b5 c #e3cba6",
"cj c #e3cca8",
"ct c #e3d4c1",
"ck c #e4cca7",
"cz c #e4d0b0",
"#. c #e67300",
"cB c #e6ceaa",
"cA c #e6ceae",
"#5 c #e76d24",
"#r c #e77604",
"cs c #e7dfcf",
"ca c #e8dac6",
"bU c #e8dac8",
"#P c #e9e9e9",
"#V c #ea7a00",
".u c #ea9d53",
"aB c #eaa282",
"#L c #eb7a04",
".J c #eb9d53",
".D c #eb9d54",
"cr c #eee2ce",
"cp c #eee6da",
"co c #eeeade",
"c# c #efe1ce",
"bT c #f0e5d3",
"#T c #f1780a",
"#C c #f17c03",
"c. c #f1e6d4",
"by c #f1e7d8",
"a0 c #f1eade",
"a. c #f1f1f1",
"cq c #f2e2ce",
"b9 c #f2e8d7",
"bS c #f2e8d9",
"cn c #f2eade",
"cm c #f2eee6",
"#4 c #f3712f",
"b8 c #f3eadc",
"bx c #f3ebdc",
"bw c #f4ede1",
"#E c #f4f4f4",
"bR c #f5eee4",
"bv c #f5efe6",
"#g c #f68700",
".L c #f6ddae",
".F c #f6eab7",
"#i c #f6f6f6",
"#I c #f78403",
".S c #f7deb0",
"bu c #f7f1e8",
"al c #f8f3eb",
".z c #f9efbc",
"ab c #f9f5f0",
"ak c #f9f6f0",
"#R c #fab28f",
"#0 c #faf8f5",
"#h c #fb8104",
".y c #fbb168",
"#Z c #fbfaf8",
".E c #fcb269",
"#G c #fcfaf9",
".U c #fd7d00",
"#y c #fd8000",
"## c #fd8300",
".V c #fd8400",
".O c #fd8401",
"#z c #fd8502",
".A c #fda732",
".v c #fdb46a",
"az c #fdb492",
".H c #fe8800",
".R c #feb369",
".K c #feb36a",
".r c #fefefe",
"#l c #ff0000",
"#U c #ff7b16",
".W c #ff8601",
"#A c #ff8604",
"#a c #ff8701",
"#J c #ff8703",
".N c #ff8900",
"#B c #ff8e04",
"#K c #ff9002",
"#b c #ff9101",
".T c #ffa036",
".M c #ffa13a",
".G c #ffa630",
"#2 c #ffd0a8",
"am c #ffd3aa",
"aA c #ffe1c9",
"an c #ffeace",
".w c #fffecc",
"ac c #fffff5",
".q c #ffffff",
"QtQtQt.#.a.b.c.d.e.f.g.h.i.j.k.l.l.j.j.j.j.j.j.j.j.j.j.jQtQtQtQt",
"QtQtQt.b.m.m.m.m.m.m.m.m.m.m.m.n.m.m.m.m.m.m.m.m.m.m.m.jQtQt.o.o",
"QtQtQt.p.m.q.q.q.q.q.q.q.q.r.q.s.q.q.q.q.q.q.q.q.q.q.m.j.t.u.v.w",
"QtQtQt.x.m.q.q.q.q.q.q.q.q.r.q.s.q.q.q.q.q.q.q.q.q.q.m.t.u.y.z.A",
"QtQtQt.B.m.q.q.q.q.q.q.q.q.r.q.s.q.q.q.q.q.q.q.q.q.q.C.D.E.F.G.H",
"QtQtQt.B.m.q.q.q.q.q.q.q.q.r.q.s.q.q.q.q.q.q.q.q.q.I.J.K.L.M.N.O",
"QtQtQt.P.m.q.q.q.q.q.q.q.q.r.q.s.q.q.q.q.q.q.q.q.Q.u.R.S.T.U.V.W",
"Qt.o.o.X.Y.Z.0.1.2.e.3.s.s.4.s.s.s.o.o.o.o.o.Z.5.6.7.8.9#.###a#b",
".o.o.o.o.o.o.o.o.o.o#c#d.q.r.q.s.q.o.o.o.o.o.o.o.o.o.o.o#e#f#g#h",
".o.o.o.o.o.o.o.o.o.o.o.1#i.r.q.s.q.o.o.o.o.o.o.o.o.o.o.o.o.o#j#k",
".o#l#l#l#l#l#l#l#l#l#l#l#l#l#l#l#l#l#l#l#l#l#l#l#l#l#l#l#l.o.o#m",
"Qt#l#l#l#l#l#l#l#l#l#l#l#l#l#l#l#l#l#l#l#l#l#l#l#l#l#l#l#l.o.o.o",
"Qt#l#l.o#n.m.m#o.o.o.o.o#p.m.m#n.m.o.o.o.o#q#r#r#r#r#r#l#l.o.o.o",
"Qt#l#l#s#n#t#u#v.o.o.o#w.s.s.s.s.s.o.o.o.o#x#y#z#A#B#C#l#l.o.o.o",
"Qt#l#l.o.o.o.o.o.o#D.c#E.q.q.q#F#G.o.o.o.o#H#I#J#K#L#M#l#l.o.o.o",
"Qt#l#l.o.o.o.o.o.o#N#O#P.q.q#G#Q#R.o.o.o.o#S#T#U#V#W#X#l#l.o.o.o",
"Qt#l#l.o.o.o.o.o.o.o.o#Y#P#Z#0#1#2.o.o.o.o#3#4#5#6#7#8#l#l.o.o.o",
"Qt#l#l.g#9a.a#.g.o.o.o.oaa#0ab#Rac.o.o.o.oadaeafagahai#l#l.o.o.o",
"Qt#l#l.h.m.q.q.q.h.o.o.oajakalaman.o.o.o.oaoapaqarasat#l#l.o.o.o",
"Qt#l#l#l#l#l#l#l#l#l#l#l#l#l#l#l#l#l#l#l#l#l#l#l#l#l#l#l#l.o.o.o",
"Qt#l#l#l#l#l#l#l#l#l#l#l#l#l#l#l#l#l#l#l#l#l#l#l#l#l#l#l#l.o.o.o",
".o#NQtau.Pavawax.o.o.o.oayazaAaBaC.o.o.o.o.oaDaEaFaG#D.o.o.o.o.o",
".o.o.o.o.o.o.o.o.o.o.oaHaIaJaKaLaM.o.o.o.o.o.o.o.o.o.o.o.o.o.YQt",
".o.o.o.o.o.o.o.o.o.oaNaOaPaQaRaSaT.o.o.o.o.o.o.o.o.o.o.o.o.oQtQt",
"Qt.o.oaUaVaUaWaXaYaZa0a1a2a3aM.oa4.o.o.o.o.oa5a6a7a8a9b.QtQtQtQt",
"QtQtQtb#.n#Qbabbbcbdbebf.o.obgbhbibjbkblbmbnbobpbqbrbsbtQtQtQtQt",
"QtQtQt.i.mabbubvbwbxbybzbAbBbCbDbEbFbGbHbIbJbKbLbMbNbObPQtQtQtQt",
"QtQtQtbQ.malbRbwbxbSbTbUbVbWbXbYbZb0b1b2b3b4b5bMbMbNb6bPQtQtQtQt",
"QtQtQtb7.mbubwb8b9c.c#cacbcccdcecfcgchcicjckbMbMbMbNclbPQtQtQtQt",
"QtQtQt.k.mcmcncocpcqcrcsctcucvcwcxcyczcAcBcCcDbNbNbNcEcFQtQtQtQt",
"QtQtQtcGcHcIcJcKcLcMcNcOcPcQcRcScTcUcVcWcXcYbOb6clcEcEbPQtQtQtQt",
"QtQtQtcZc0c1c0c1c2c0c1c2c3c4c5cFcFc0cFc6bPc7btbtbPbtbPc8QtQtQtQt"};
