/* XPM */
static char *exit_no_save[]={
"32 32 68 2",
"Qt c None",
".# c #000000",
".k c #2b2b2b",
".V c #303030",
".4 c #353535",
".h c #515151",
".D c #535353",
".M c #545454",
".1 c #555555",
".C c #575757",
".Z c #585858",
".t c #5a5a5a",
".B c #5c5c5c",
".Y c #5d5d5d",
".s c #5f5f5f",
".X c #606060",
".o c #626262",
".c c #656565",
".n c #676767",
".m c #6f6f6f",
"#b c #737373",
"#a c #777777",
".j c #797979",
"## c #7b7b7b",
"#. c #7f7f7f",
".3 c #808080",
".i c #818181",
".8 c #838383",
".6 c #878787",
".5 c #898989",
".W c #8c8c8c",
".l c #8d8d8d",
".U c #8f8f8f",
".2 c #919191",
".L c #939393",
".T c #949494",
".K c #979797",
".S c #999999",
".b c #9b9b9b",
".J c #9c9c9c",
".R c #9e9e9e",
".A c #a0a0a0",
".I c #a1a1a1",
".Q c #a3a3a3",
".z c #a4a4a4",
".H c #a6a6a6",
".P c #a8a8a8",
".y c #a9a9a9",
".G c #ababab",
".O c #acacac",
".x c #aeaeae",
".9 c #afafaf",
".F c #b0b0b0",
".N c #b1b1b1",
".w c #b3b3b3",
".E c #b5b5b5",
".r c #b6b6b6",
".v c #b8b8b8",
".q c #bbbbbb",
".u c #bdbdbd",
".p c #c0c0c0",
".g c #c1c1c1",
".d c #c3c3c3",
".7 c #d4d4d4",
".e c #dcdcdc",
".0 c #e6e6e6",
".a c #ff0000",
".f c #ffffff",
"QtQtQtQtQtQtQtQtQt.#.#.#.a.a.a.a.a.a.aQtQtQtQtQtQtQtQtQtQtQtQtQt",
"QtQtQtQtQtQtQtQt.#.a.a.a.a.a.a.a.a.a.a.a.a.aQtQtQtQtQtQtQtQtQtQt",
"QtQtQtQtQtQtQt.a.a.a.a.a.a.a.a.a.a.a.a.a.a.a.a.aQtQtQtQtQtQtQtQt",
"QtQtQtQtQtQt.a.a.a.a.a.a.#.#.b.b.b.b.#.a.a.a.a.a.aQtQtQtQtQtQtQt",
"QtQtQtQtQt.a.a.a.a.c.c.#.d.d.e.b.b.b.b.b.b.#.a.a.a.aQtQtQtQtQtQt",
"QtQtQtQt.a.a.a.a.c.c.#.d.e.f.f.f.f.f.b.b.b.b.b.a.a.a.aQtQtQtQtQt",
"QtQtQt.a.a.a.a.#.c.c.#.e.f.f.f.f.f.f.f.f.f.b.a.a.a.a.a.a.#.#QtQt",
"QtQt.a.a.a.a.#.c.c.g.h.f.f.f.f.f.f.f.f.f.f.a.a.a.a.a.a.a.a.i.#Qt",
"QtQt.a.a.aQt.#.c.g.h.f.f.f.f.f.f.f.f.f.f.a.a.a.a.a.d.a.a.a.j.d.#",
"Qt.a.a.aQtQt.#.g.g.h.f.f.f.f.f.f.f.f.f.a.a.a.a.a.d.d.k.a.a.a.l.#",
"Qt.a.a.aQt.#.g.g.g.h.f.f.f.f.f.f.f.f.a.a.a.a.a.d.d.e.k.a.a.a.#Qt",
"Qt.a.a.aQt.#.g.g.h.f.f.f.f.f.f.f.f.a.a.a.a.a.d.d.e.k.m.a.a.a.#Qt",
".a.a.aQtQt.#.g.g.h.f.f.f.f.f.f.f.a.a.a.a.a.d.d.e.f.k.n.o.a.a.aQt",
".a.a.aQt.#.g.p.q.r.k.k.k.f.f.f.a.a.a.a.a.d.d.e.f.f.k.s.t.a.a.aQt",
".a.a.aQt.#.u.v.w.x.y.z.A.k.k.a.a.a.a.a.d.d.e.f.f.k.B.C.D.a.a.aQt",
".a.a.aQt.#.E.F.G.H.I.J.K.L.a.a.a.a.a.d.d.e.f.f.f.k.M.D.d.a.a.aQt",
".a.a.a.#.N.O.P.Q.R.S.T.U.a.a.a.a.a.V.k.k.k.f.f.f.k.D.D.d.a.a.aQt",
".a.a.a.#.y.z.A.#.#.#.W.a.a.a.a.a.V.V.V.X.B.k.k.k.D.D.D.d.a.a.aQt",
".a.a.a.#.I.J.#.f.f.f.a.a.a.a.a.V.V.V.Y.Z.M.D.D.D.D.D.d.l.a.a.aQt",
"Qt.a.a.a.S.T.#.f.0.a.a.a.a.a.#.#.V.t.1.D.D.D.D.D.D.D.d.a.a.aQtQt",
"Qt.a.a.a.2.W.#.f.a.a.a.a.a.3.d.e.#.4.#.D.D.D.D.D.D.D.d.a.a.aQtQt",
"Qt.a.a.a.5.#.f.a.a.a.a.a.3.3.d.0.0.4.6.#.#.#.D.D.D.d.l.a.a.aQtQt",
"Qt.#.a.a.a.#.a.a.a.a.a.3.3.d.7.7.4.6.6.6.6.#.D.D.D.d.a.a.aQtQtQt",
"Qt.#.a.a.a.a.a.a.a.a.3.3.3.g.g.g.4.8.8.8.8.#.D.D.D.a.a.a.aQtQtQt",
"QtQt.#.a.a.a.a.a.a.3.3.3.9.9.9.9.4#.#.#..#.D.D.D.a.a.a.aQtQtQtQt",
"QtQtQtQt.a.a.a.a.3.3.3.R.R.R.R.4########.#.D.D.a.a.a.aQtQtQtQtQt",
"QtQtQtQtQt.a.a.a.a.#.#.R.R.R.R.4#a#a#a#a.#.D.a.a.a.aQtQtQtQtQtQt",
"QtQtQtQtQtQt.a.a.a.a.a.a.#.#.R.4#b#b#b.a.a.a.a.a.a.#QtQtQtQtQtQt",
"QtQtQtQtQtQtQt.a.a.a.a.a.a.a.a.a.a.a.a.a.a.a.a.a.#QtQtQtQtQtQtQt",
"QtQtQtQtQtQtQtQtQt.a.a.a.a.a.a.a.a.a.a.a.a.a.V.V.#QtQtQtQtQtQtQt",
"QtQtQtQtQtQtQtQtQtQtQtQt.a.a.a.a.a.a.aQt.#.#.#.#.#QtQtQtQtQtQtQt",
"QtQtQtQtQtQtQtQtQtQtQtQtQtQtQtQtQtQtQtQtQtQtQtQtQtQtQtQtQtQtQtQt"};
