/* XPM */
static char *freeze[]={
"34 34 2 1",
". c #000000",
"# c #ffffff",
"..................................",
"..................................",
"..................................",
"..................................",
"..................................",
"..................................",
"..................................",
".################################.",
".################################.",
".##.............##.............##.",
".##.............##.............##.",
".##.............##.............##.",
".##.............##.............##.",
".##............................##.",
".##............................##.",
".############........############.",
".############........############.",
".##............................##.",
".##............................##.",
".##.............##.............##.",
".##.............##.............##.",
".##.............##.............##.",
".##.............##.............##.",
".################################.",
".################################.",
"..................................",
"..................................",
"..................................",
"..................................",
"..................................",
"..................................",
"..................................",
"..................................",
".................................."};
