/* XPM */
static char * hide_user_flag01_xpm[] = {
"32 32 170 2",
"  	c None",
". 	c #A0A0A0",
"+ 	c #C0FFFF",
"@ 	c #181A1E",
"# 	c #1E1F24",
"$ 	c #39383D",
"% 	c #2A2A2E",
"& 	c #1D2026",
"* 	c #222932",
"= 	c #1D242D",
"- 	c #262835",
"; 	c #2A2935",
"> 	c #35343B",
", 	c #2C2E34",
"' 	c #292D36",
") 	c #2D303A",
"! 	c #2B2C35",
"~ 	c #2B2B35",
"{ 	c #272831",
"] 	c #262830",
"^ 	c #1B1E26",
"/ 	c #1D1F2B",
"( 	c #1A1C2B",
"_ 	c #1B1E2C",
": 	c #1C202A",
"< 	c #1C212B",
"[ 	c #1F2731",
"} 	c #21262E",
"| 	c #383B41",
"1 	c #2A2F32",
"2 	c #192023",
"3 	c #1F272C",
"4 	c #1C252B",
"5 	c #1B2329",
"6 	c #1B2229",
"7 	c #192026",
"8 	c #181F26",
"9 	c #191E25",
"0 	c #1C1F28",
"a 	c #1C1E29",
"b 	c #191C28",
"c 	c #1E212A",
"d 	c #24272D",
"e 	c #1C1E25",
"f 	c #22252B",
"g 	c #1E242C",
"h 	c #1C242C",
"i 	c #1F252D",
"j 	c #272B33",
"k 	c #242D2C",
"l 	c #202B2E",
"m 	c #19262B",
"n 	c #162125",
"o 	c #192325",
"p 	c #161F21",
"q 	c #171F22",
"r 	c #1A2124",
"s 	c #1E232A",
"t 	c #1D2029",
"u 	c #21242B",
"v 	c #46494E",
"w 	c #1D2128",
"x 	c #1B2129",
"y 	c #1F272F",
"z 	c #24302E",
"A 	c #182428",
"B 	c #1A232B",
"C 	c #1B2126",
"D 	c #282C2F",
"E 	c #232529",
"F 	c #25272A",
"G 	c #222428",
"H 	c #22242C",
"I 	c #1C1F29",
"J 	c #1B1E24",
"K 	c #2C3033",
"L 	c #1C1D1F",
"M 	c #1B1D23",
"N 	c #19222C",
"O 	c #2F363E",
"P 	c #242729",
"Q 	c #1B2225",
"R 	c #1E2528",
"S 	c #1E2226",
"T 	c #202325",
"U 	c #23262C",
"V 	c #1A1E25",
"W 	c #20242E",
"X 	c #1B1F2B",
"Y 	c #20232C",
"Z 	c #2B2E34",
"` 	c #1C1E28",
" .	c #1C1F2A",
"..	c #171D26",
"+.	c #1D282D",
"@.	c #202225",
"#.	c #1A2024",
"$.	c #1B2125",
"%.	c #1C1F23",
"&.	c #212528",
"*.	c #202328",
"=.	c #23262E",
"-.	c #202329",
";.	c #25282C",
">.	c #1E2128",
",.	c #1C1E2A",
"'.	c #1A1C28",
").	c #1B1E29",
"!.	c #1C2228",
"~.	c #21282C",
"{.	c #26282B",
"].	c #181E21",
"^.	c #1D2024",
"/.	c #1C1F25",
"(.	c #1C1F26",
"_.	c #1B1E28",
":.	c #1D2028",
"<.	c #1F2229",
"[.	c #33363A",
"}.	c #202025",
"|.	c #1E2027",
"1.	c #20222B",
"2.	c #1A1D26",
"3.	c #181B24",
"4.	c #20242B",
"5.	c #27292E",
"6.	c #FFC0C0",
"7.	c #313437",
"8.	c #1A2023",
"9.	c #151C1E",
"0.	c #191D21",
"a.	c #1B1E25",
"b.	c #1B1D28",
"c.	c #1A1D24",
"d.	c #1C1F24",
"e.	c #3B3E40",
"f.	c #202425",
"g.	c #1A1E1F",
"h.	c #1D2125",
"i.	c #2B2F34",
"j.	c #2C2C2D",
"k.	c #1A1C20",
"l.	c #181D24",
"m.	c #181C23",
"n.	c #171C23",
"o.	c #1E2024",
"p.	c #262626",
"q.	c #282B2B",
"r.	c #202524",
"s.	c #292D2D",
"t.	c #252929",
"u.	c #000000",
"v.	c #343434",
"w.	c #808080",
"x.	c #856464",
"y.	c #4F3B3B",
"z.	c #1A1313",
"A.	c #727272",
"B.	c #040303",
"C.	c #A77D7D",
"D.	c #4D4D4D",
"E.	c #0A0707",
"F.	c #E0A8A8",
"G.	c #4A4A4A",
"H.	c #5C5C5C",
"I.	c #333333",
"J.	c #4E4E4E",
"K.	c #6D6D6D",
"L.	c #010101",
"M.	c #7E7E7E",
"                                                                ",
"                                                                ",
"                    . . . . . . . .                             ",
"  . .           . . . + + + + + + . . . .                       ",
"  . . . . . . . . + + + + + + + + + . . @ #                     ",
"    . . + + + + + + + + + + + + $ % & * * = - ; >               ",
"      . . + + + , ' ) ! ~ { ] ^ / ( _ : : < [ [ } |             ",
"        . . 1 2 3 4 5 6 7 8 9 0 a b c d e f g h i j             ",
"          k l m n o p q r r s t ^ u .       v w x y i           ",
"      . . z A B C D + E F G H I J K         L M x N O           ",
"  . . . P Q R S + . . . . T U V W X Y Z & J `  ...+.            ",
"    . . @.#.$.%.&..     *.=.-.;.>.c a ,.,.'.,.).!.~..           ",
"        {.].r ^./.(.0 _.:.<.[.. . }.|.1.2.3.2.4.5.6.. . . .     ",
"        7.8.9.0.a.b. .c.d.e.. . . . 6.6.f.g.h.i.6.6.6.. . .     ",
"          j.k.l.m.n.o.p.. 6.6.6.6.6.6.6.6.6.6.6.6.6.6.. .       ",
"            q.r.s.t.    . . 6.6.6.6.6.6.6.6.6.6.6.6.. . .       ",
"                          . . . 6.6.6.6.6.6.6.6.6.6.. .         ",
"                        . . . . 6.6.6.6.6.6.6.6.6.. . .         ",
"                u.u.u.u.v.w.. 6.6.6.6.x.y.z.u.u.u.A..           ",
"              u.u.u.u.u.u.B.C.6.6.6.. u.u.u.u.u.u.A..           ",
"            u.u.u.u.  D.u.u.E.F.. . . u.u.  u.u.u.A.            ",
"          u.u.u.u.    . u.u.u.G..           u.u.u.A.            ",
"          u.u.u.    . .   u.u.u.            u.u.u.              ",
"          u.u.u.    . .   u.u.u.            u.u.u.              ",
"          u.u.u.  . . .   u.u.u.          . u.u.u.              ",
"          u.u.u.  . .     u.u.u.          . u.u.u.              ",
"          u.u.u.H.. .     u.u.u.        . . u.u.u.              ",
"          u.u.u.I..     u.u.u.u.        . . u.u.u.              ",
"            u.u.u.J.  u.u.u.u.        K.K.K.u.u.u.u.            ",
"              L.u.u.u.u.u.u.          u.u.u.u.u.u.u.u.u.        ",
"              M.v.u.u.u.u.          . u.u.u.u.u.u.u.u.u.        ",
"              . .                   . .                         "};
