/* XPM */
static char *highlight_polygon[]={
"32 32 7 1",
"a c #00ff00",
"e c #00ffff",
". c #303030",
"# c #c0c000",
"b c #ff0000",
"d c #ff00ff",
"c c #ffffff",
"................................",
".###.......................aaa..",
"#####.....................aaaaa.",
"#####.....................aaaaa.",
"#####.....................aaaaa.",
".###bbbbbbbbbbbbbbbbbbbb...aaa..",
"....bbbbbbbbbbbbbbbbbbbb........",
"....bb...c............bb........",
"....bb..ccc...........bb........",
"....bb.ccccc.....c....bb........",
"....bbccccccccc..c....bb........",
"....bb.ccccc.....c....bbbbb.....",
"....bb..ccc.....ccc...bbbbb.....",
"....bb...c.....ccccc.....bb.....",
"....bb...c..ccccccccccc..bb.....",
"....bb...c.....ccccc.....bb.....",
"....bb..........ccc......bb.....",
"....bb...........c.......bb.....",
"....bbbbbbbbbbbbbbbbbbbbbbb.....",
"....bbbbbbbbbbbbbbbbbbbbbbb.....",
"................................",
"................................",
".....................ddd........",
"....eee.............ddddd.......",
"...eeeee............ddddd.......",
"...eeeee............ddddd.......",
"...eeeee.............ddd........",
"....eee.........................",
"................................",
"................................",
"................................",
"................................"};
