/* XPM */
static char *highlight_polygon_cursor[]={
"32 32 4 1",
"b c None",
"# c None",
"a c #000000",
". c #ffffff",
"...#############################",
".aa..###########################",
".aaaa..#########################",
"#.a..aa..#######################",
"#.a....aa.######################",
"##.a.....a.#####################",
"##.a...a..a.####################",
"###.a.aaa..a.###################",
"###.aaaaaa..a.##################",
"####.aaaaaa..a.#################",
"#####.aaaaaa..a.################",
"######.aaaaaa..a.###############",
"#######.aaaaaa..a.##############",
"########.aaaaaa..a.###..a..b####",
"#########.aaaaaa..a.#.aa.aa.b###",
"##########.........#.a.....a.###",
"###################.a....a..a.##",
"##################.a.....aa..a.#",
"##################.a......aa.a.#",
"##################.a......aa.a.#",
"##################.a.....aa..a.#",
"##################.a.....aa..a.#",
"###################.a.......a.##",
"####################.a.....a.###",
"#####################.a.aaa.####",
"#####################.aa..a.####",
"#####################.a..aa.####",
"#####################.aaa.a.####",
"#####################.a...a.####",
"#####################.aaaaa.####",
"######################.....#####",
"################################"};
