/* XPM */
static char *hotkey_poly_cursor[]={
"32 32 3 1",
". c None",
"a c #000000",
"# c #ffffff",
"...........#.....#....#.#.......",
"..........##...###..#a#.##......",
"..........#a...#a#..#a#.#a#.....",
"..........#a#..#a#..#a#.#a#..#..",
".......#..#a#.#a##..#a#.#a#..#..",
".......##.#a#.#a##.#a####a#.##..",
"......###.#a#.#a####a#.#aa#####.",
"......#a#.#a###aa##aa###aa###a#.",
"......#a#.#aa###a##aaa##aaa##a#.",
"......#a####a###aaaaaaaaaaa##a#.",
"......#a###aa###aaaa......aaaa#.",
".....##a###aa##aaa...#####..aaa.",
".....#aaa##aaaaaa..##aaaaa##.aa.",
"..####aaaaaaaaaa..#aa#####aa#.a.",
"..aaaaaaaaaaaaa..#a#########a#..",
"................#a#aaaaaaa###a#.",
"..###############a#a#a#a#####a#.",
".#aaaaaaaaaaaaaaa##a#a#a##aaa#a#",
"#a##############a####a#a#a...aa#",
"a#a#a#a#a#a#a#a#a########a...aa#",
"#a###aaa#aaa####a########a...aa#",
".#aaa###a###aaaaa##a#a##a#aaa#a#",
"..###...#...#####a#a#a##a####a#.",
"................#a#aaaaaaa###a#.",
".................#a#########a#..",
"..................#aa#####aa#...",
"...................##aaaaa##....",
".....................#####......",
"................................",
"................................",
"................................",
"................................"};
