/* XPM */
static char *hotkey_poly[]={
"32 32 6 1",
". c None",
"b c #000000",
"c c #808000",
"d c #c0c000",
"a c #ff0000",
"# c #ffff00",
"...........#.....#....#.#.......",
"..........##...###..#a#.##......",
"..........#a...#a#..#a#.#a#.....",
"..........#a#..#a#..#a#.#a#..#..",
".......#..#a#.#a##..#a#.#a#..#..",
".......##.#a#.#a##.#a####a#.##..",
"......###.#a#.#a####a#.#aa#####.",
"......#a#.#a###aa##aa###aa###a#.",
"......#a#.#aa###a##aaa##aaa##a#.",
"......#a####a###aaaaaaaaaaa##a#.",
"......#a###aa###aaaa......aaaa#.",
".....##a###aa##aaa..........aaa.",
".....#aaa##aaaaaa....bbbbb...aa.",
"..####aaaaaaaaaa...bb#####bb..a.",
"..aaaaaaaaaaaaa...b#########b...",
".................b#ccccccc###b..",
".................b#cdcccc####b..",
"..bbbbbbbbbbbbbbb##cdcdcd#bbb#b.",
".b##############b##cd#dcdb...bb.",
"b#ddddddddddddddb########b...bb.",
".b###bbb#bbb####b##dd#dd#b...bb.",
"..bbb...b...bbbbb##ddcddc#bbb#b.",
".................b#ddcddc####b..",
".................b#ccccccc###b..",
"..................b#########b...",
"...................bb#####bb....",
".....................bbbbb......",
"................................",
"................................",
"................................",
"................................",
"................................"};
