/* XPM */
static char *mask_inside_rect[]={
"32 32 149 2",
"Qt c None",
"#9 c #151c1e",
".Z c #161f21",
".X c #162125",
"am c #171c23",
"#A c #171d26",
".0 c #171f22",
".a c #181a1e",
"#4 c #181b24",
"al c #181c23",
"ak c #181d24",
"#S c #181e21",
".H c #181f26",
"#. c #182428",
".L c #191c28",
"a. c #191d21",
".I c #191e25",
".B c #192023",
".G c #192026",
"#l c #19222c",
".Y c #192325",
".W c #19262b",
"aj c #1a1c20",
"#N c #1a1c28",
".t c #1a1c2b",
"ab c #1a1d24",
"#3 c #1a1d26",
"af c #1a1e1f",
"#t c #1a1e25",
"#8 c #1a2023",
"#D c #1a2024",
".1 c #1a2124",
"## c #1a232b",
"#k c #1b1d23",
"aa c #1b1d28",
"#h c #1b1e24",
"a# c #1b1e25",
".r c #1b1e26",
"#W c #1b1e28",
"#O c #1b1e29",
".u c #1b1e2c",
"#v c #1b1f2b",
"#E c #1b2125",
"#a c #1b2126",
".7 c #1b2129",
"#o c #1b2225",
".F c #1b2229",
".E c #1b2329",
"#j c #1c1d1f",
".O c #1c1e25",
"#y c #1c1e28",
".K c #1c1e29",
"#M c #1c1e2a",
"#F c #1c1f23",
"ac c #1c1f24",
"#U c #1c1f25",
"#V c #1c1f26",
".J c #1c1f28",
"#g c #1c1f29",
"#z c #1c1f2a",
".v c #1c202a",
".w c #1c212b",
"#P c #1c2228",
".R c #1c242c",
".D c #1c252b",
".s c #1d1f2b",
"#T c #1d2024",
".e c #1d2026",
"#X c #1d2028",
".3 c #1d2029",
"ag c #1d2125",
".6 c #1d2128",
".g c #1d242d",
"#B c #1d282d",
".b c #1e1f24",
"an c #1e2024",
"#1 c #1e2027",
"#L c #1e2128",
".M c #1e212a",
"#q c #1e2226",
".2 c #1e232a",
".Q c #1e242c",
"#p c #1e2528",
"#Y c #1f2229",
".S c #1f252d",
".C c #1f272c",
".8 c #1f272f",
".x c #1f2731",
"#0 c #202025",
"#C c #202225",
"#2 c #20222b",
"#r c #202325",
"#H c #202328",
"#J c #202329",
"#w c #20232c",
"ae c #202425",
"#5 c #20242b",
"#u c #20242e",
"aq c #202524",
".V c #202b2e",
".4 c #21242b",
"#G c #212528",
".y c #21262e",
"#Q c #21282c",
"#e c #222428",
"#f c #22242c",
".P c #22252b",
".f c #222932",
"#c c #232529",
"#s c #23262c",
"#I c #23262e",
"#n c #242729",
".N c #24272d",
".U c #242d2c",
".9 c #24302e",
"#d c #25272a",
"#K c #25282c",
"as c #252929",
"ao c #262626",
"#R c #26282b",
".q c #262830",
".h c #262835",
".p c #272831",
"#6 c #27292e",
".T c #272b33",
"ap c #282b2b",
"#b c #282c2f",
"ar c #292d2d",
".l c #292d36",
".i c #2a2935",
".d c #2a2a2e",
".A c #2a2f32",
".o c #2b2b35",
".n c #2b2c35",
"#x c #2b2e34",
"ah c #2b2f34",
"ai c #2c2c2d",
".k c #2c2e34",
"#i c #2c3033",
".m c #2d303a",
"#m c #2f363e",
"#7 c #313437",
"#Z c #33363a",
".j c #35343b",
".z c #383b41",
".c c #39383d",
"ad c #3b3e40",
".5 c #46494e",
".# c #ff0000",
"QtQtQtQtQtQtQtQtQtQtQtQtQtQtQtQtQtQtQtQtQtQtQtQtQtQtQtQtQtQtQtQt",
"QtQtQtQtQtQtQtQtQtQtQtQtQtQtQtQtQtQtQtQtQtQtQtQtQtQtQtQtQtQtQtQt",
"QtQtQtQtQtQtQtQtQtQtQtQtQtQtQtQtQtQtQtQtQtQtQtQtQtQtQtQtQtQtQtQt",
"QtQtQtQtQtQtQtQtQtQtQtQtQtQtQtQtQtQtQtQtQtQtQtQtQtQtQtQtQtQtQtQt",
"Qt.#.#.#.#.#.#.#.#.#.#.#.#.#.#.#.#.#.#.#.#.#.#.#.#.#.#.#.#.#.#Qt",
"Qt.#QtQtQtQtQtQtQtQtQtQtQtQtQtQtQtQtQtQtQtQtQtQtQtQtQtQtQtQt.#Qt",
"Qt.#QtQtQtQtQtQtQtQtQtQtQtQtQtQtQtQtQtQtQtQtQtQtQtQtQtQtQtQt.#Qt",
"Qt.#QtQtQtQtQtQtQtQtQtQtQtQtQtQtQtQtQtQtQtQtQtQtQtQtQtQtQtQt.#Qt",
"Qt.#QtQtQtQtQtQtQtQtQtQtQtQtQtQtQtQtQtQtQtQtQtQtQtQtQtQtQtQt.#Qt",
"Qt.#QtQtQtQtQtQtQtQtQtQtQtQtQtQtQtQtQtQtQtQtQtQtQtQtQtQtQtQt.#Qt",
"Qt.#QtQtQtQtQtQtQtQtQtQtQtQtQtQtQtQtQtQtQt.a.bQtQtQtQtQtQtQt.#Qt",
"Qt.#QtQtQtQtQtQtQtQtQtQtQtQtQtQtQt.c.d.e.f.f.g.h.i.jQtQtQtQt.#Qt",
"Qt.#QtQtQtQtQtQtQt.k.l.m.n.o.p.q.r.s.t.u.v.v.w.x.x.y.zQtQtQt.#Qt",
"Qt.#QtQtQtQtQt.A.B.C.D.E.F.G.H.I.J.K.L.M.N.O.P.Q.R.S.TQtQtQt.#Qt",
"Qt.#QtQtQtQt.U.V.W.X.Y.Z.0.1.1.2.3.r.4QtQtQtQt.5.6.7.8.SQtQt.#Qt",
"Qt.#QtQtQtQt.9#.###a#bQt#c#d#e#f#g#h#iQtQtQtQt#j#k.7#l#mQtQt.#Qt",
"Qt.#QtQtQt#n#o#p#qQtQtQtQtQt#r#s#t#u#v#w#x.e#h#y#z#A#BQtQtQt.#Qt",
"Qt.#QtQtQt#C#D#E#F#GQtQtQt#H#I#J#K#L.M.K#M#M#N#M#O#P#QQtQtQt.#Qt",
"Qt.#QtQtQt#R#S.1#T#U#V.J#W#X#Y#ZQtQt#0#1#2#3#4#3#5#6QtQtQtQt.#Qt",
"Qt.#QtQtQt#7#8#9a.a#aa#zabacadQtQtQtQtQtQtaeafagahQtQtQtQtQt.#Qt",
"Qt.#QtQtQtQtaiajakalamanaoQtQtQtQtQtQtQtQtQtQtQtQtQtQtQtQtQt.#Qt",
"Qt.#QtQtQtQtQtapaqarasQtQtQtQtQtQtQtQtQtQtQtQtQtQtQtQtQtQtQt.#Qt",
"Qt.#QtQtQtQtQtQtQtQtQtQtQtQtQtQtQtQtQtQtQtQtQtQtQtQtQtQtQtQt.#Qt",
"Qt.#QtQtQtQtQtQtQtQtQtQtQtQtQtQtQtQtQtQtQtQtQtQtQtQtQtQtQtQt.#Qt",
"Qt.#QtQtQtQtQtQtQtQtQtQtQtQtQtQtQtQtQtQtQtQtQtQtQtQtQtQtQtQt.#Qt",
"Qt.#QtQtQtQtQtQtQtQtQtQtQtQtQtQtQtQtQtQtQtQtQtQtQtQtQtQtQtQt.#Qt",
"Qt.#QtQtQtQtQtQtQtQtQtQtQtQtQtQtQtQtQtQtQtQtQtQtQtQtQtQtQtQt.#Qt",
"Qt.#.#.#.#.#.#.#.#.#.#.#.#.#.#.#.#.#.#.#.#.#.#.#.#.#.#.#.#.#.#Qt",
"QtQtQtQtQtQtQtQtQtQtQtQtQtQtQtQtQtQtQtQtQtQtQtQtQtQtQtQtQtQtQtQt",
"QtQtQtQtQtQtQtQtQtQtQtQtQtQtQtQtQtQtQtQtQtQtQtQtQtQtQtQtQtQtQtQt",
"QtQtQtQtQtQtQtQtQtQtQtQtQtQtQtQtQtQtQtQtQtQtQtQtQtQtQtQtQtQtQtQt",
"QtQtQtQtQtQtQtQtQtQtQtQtQtQtQtQtQtQtQtQtQtQtQtQtQtQtQtQtQtQtQtQt"};
