/* XPM */
static char *mask_reset_red[]={
"32 32 281 2",
".V c None",
"Qt c #000000",
"#D c #0d0001",
"#a c #0e0506",
".W c #0f0708",
"#m c #130506",
"cb c #151c1e",
"#4 c #160204",
"a3 c #161f21",
"a1 c #162125",
"ab c #170102",
"cq c #171c23",
"bE c #171d26",
"a4 c #171f22",
"ag c #181a1e",
"b8 c #181b24",
"cp c #181c23",
"co c #181d24",
"bW c #181e21",
"aL c #181f26",
"bc c #182428",
"aP c #191c28",
"cc c #191d21",
"aM c #191e25",
"aK c #192026",
"aH c #192126",
"bp c #19222c",
"a2 c #192325",
"a0 c #19262b",
"cn c #1a1c20",
"bR c #1a1c28",
"aA c #1a1c2b",
"cf c #1a1d24",
"b7 c #1a1d26",
"cj c #1a1e1f",
"bx c #1a1e25",
"ca c #1a2023",
"bH c #1a2024",
"a5 c #1a2124",
"bd c #1a232b",
"#v c #1b0103",
"bo c #1b1d23",
"ce c #1b1d28",
"bl c #1b1e24",
"cd c #1b1e25",
"ay c #1b1e26",
"b0 c #1b1e28",
"bS c #1b1e29",
"aB c #1b1e2c",
"bz c #1b1f2b",
"bI c #1b2125",
"be c #1b2126",
"b# c #1b2129",
"bs c #1b2225",
"aJ c #1b2229",
"aI c #1b2329",
".3 c #1c0a0b",
"bn c #1c1d1f",
"at c #1c1e24",
"aS c #1c1e25",
"bC c #1c1e28",
"aO c #1c1e29",
"bQ c #1c1e2a",
"bJ c #1c1f23",
"cg c #1c1f24",
"bY c #1c1f25",
"bZ c #1c1f26",
"aN c #1c1f28",
"bk c #1c1f29",
"bD c #1c1f2a",
"aC c #1c202a",
"aD c #1c212b",
"bT c #1c2228",
"aV c #1c242c",
"az c #1d1f2b",
"bX c #1d2024",
"am c #1d2026",
"b1 c #1d2028",
"a7 c #1d2029",
"ck c #1d2125",
"b. c #1d2128",
"ao c #1d242d",
"bF c #1d282d",
"ah c #1e1f24",
"cr c #1e2024",
"b5 c #1e2027",
"bP c #1e2128",
"aQ c #1e212a",
"bu c #1e2226",
"a6 c #1e232a",
"aU c #1e242c",
"bt c #1e2528",
"b2 c #1f2229",
"aW c #1f252d",
"ba c #1f272f",
"aE c #1f2731",
"b4 c #202025",
"bG c #202225",
"b6 c #20222b",
"bv c #202325",
"bL c #202328",
"bN c #202329",
"bA c #20232c",
"ci c #202425",
"b9 c #20242b",
"by c #20242e",
"cu c #202524",
"aZ c #202b2e",
"a8 c #21242b",
"bK c #212528",
"aF c #21262e",
"bU c #21282c",
".o c #220b0c",
"bi c #222428",
"bj c #22242c",
"aT c #22252b",
"an c #222932",
"bg c #232529",
"bw c #23262c",
"bM c #23262e",
"br c #242729",
"aR c #24272d",
"aY c #242d2c",
"bb c #24302e",
"bh c #25272a",
"bO c #25282c",
"cw c #252929",
"a# c #260003",
".a c #26090a",
"cs c #262626",
"bV c #26282b",
"ax c #262830",
"ap c #262835",
"aw c #272831",
"c. c #27292e",
"aX c #272b33",
"#p c #280609",
"ct c #282b2b",
"bf c #282c2f",
"cv c #292d2d",
"aq c #2a2935",
"al c #2a2a2e",
"av c #2b2b35",
"au c #2b2c35",
"bB c #2b2e34",
"cl c #2b2f34",
"cm c #2c2c2d",
"bm c #2c3033",
".M c #2d1d1e",
"ac c #2e0305",
"bq c #2f363e",
"c# c #313437",
".2 c #330004",
"#i c #330b0d",
"b3 c #33363a",
"#J c #34090b",
"ar c #35343b",
"aG c #383b41",
"ak c #39383d",
"ch c #3b3e40",
".B c #3d282a",
".g c #3e1517",
"aa c #400005",
"#r c #431114",
"a9 c #46494e",
".L c #471c20",
".y c #4c0006",
".C c #4e3b3d",
"#w c #590007",
".x c #5f050b",
"#Q c #600e13",
".I c #63020a",
"#C c #660008",
".f c #6f0c12",
"#7 c #720a11",
".U c #73000a",
"#W c #73010a",
"#x c #762529",
".b c #7c2b2f",
"a. c #80000b",
"#u c #84121b",
"#b c #8b2d35",
"#h c #8c000c",
".4 c #8e3940",
".A c #945056",
".z c #953f45",
".n c #98101a",
"#3 c #99000d",
"ad c #9d0e19",
"#j c #9f1722",
"#o c #a11f2a",
".K c #a6000e",
"#6 c #a9212b",
"#X c #ad343d",
".J c #b10110",
"as c #b2000e",
"#q c #b3000f",
"ai c #ba0513",
".H c #ba101e",
".X c #bc5860",
"#n c #bd2c36",
".e c #bf2f3a",
"## c #c00010",
"#5 c #c22733",
"#B c #c30d1c",
"#E c #c65961",
".c c #c85059",
".d c #c94751",
".D c #c98d92",
"aj c #cc0011",
".S c #cc0112",
".T c #cd0011",
"#P c #cd0112",
"#. c #ce0415",
"#l c #ce0516",
"#g c #ce0717",
"af c #cf0a1a",
".1 c #d00e1e",
".R c #d01625",
"#k c #d11222",
"#8 c #d23845",
"#I c #d31827",
".9 c #d31928",
"#f c #d31b2a",
"#O c #d41d2c",
"ae c #d41f2e",
".w c #d4323f",
"#9 c #d5202f",
".m c #d6434f",
".5 c #d65862",
".0 c #d72937",
"#e c #d82c3a",
".8 c #d9313f",
"#2 c #d93341",
"#s c #d94e59",
".Q c #da3543",
".h c #da757c",
"#d c #db3946",
".G c #db3b48",
"#V c #dc3e4b",
"#c c #dd414e",
".Z c #de4350",
".7 c #de4552",
"#t c #de4653",
".p c #de727b",
"#A c #df4955",
"#Z c #e06972",
".P c #e1515d",
"#1 c #e1525e",
"#K c #e18b91",
".6 c #e25561",
".v c #e35863",
".F c #e35964",
".Y c #e35b66",
"#H c #e45c67",
"#U c #e5616c",
"#z c #e5636e",
"#N c #e6646f",
".l c #e76b75",
".O c #e86c76",
"#0 c #e86e78",
"#y c #ea757f",
".u c #ea7680",
"#G c #eb7b84",
"#T c #ed828b",
".k c #ed838c",
".N c #ee858e",
"#Y c #ee8790",
"#M c #ee8890",
".t c #f1939b",
".E c #f1949c",
"#F c #f2949c",
".j c #f2959d",
".i c #f2989f",
".q c #f49da4",
"#S c #f49fa6",
"#R c #f7a9af",
"#L c #f7aab0",
".s c #f8adb3",
".r c #f9b4ba",
".# c #ffffff",
"QtQtQtQtQtQtQtQtQtQtQtQtQtQtQtQtQtQtQtQtQtQtQtQtQtQtQtQtQtQtQtQt",
"QtQtQtQtQtQtQtQtQtQt.#.#.#.#.#.#.#QtQtQtQtQtQtQtQtQtQtQtQtQtQtQt",
"QtQtQtQtQtQtQtQtQt.#.a.b.c.d.e.f.#.#QtQtQtQtQtQtQtQtQtQtQtQtQtQt",
"QtQtQtQtQtQtQtQt.#.g.h.i.j.k.l.m.n.#.#Qt.#.#QtQtQtQtQtQtQtQtQtQt",
"QtQtQtQtQtQtQt.#.o.p.q.r.s.t.u.v.w.x.#.#.y.#QtQtQtQtQtQtQtQtQtQt",
"QtQtQtQtQtQtQt.#.z.A.B.C.D.E.u.F.G.H.I.J.K.#QtQtQtQtQtQtQtQtQtQt",
"QtQtQtQtQtQtQt.#.L.#.#.#.M.N.O.P.Q.R.S.T.U.#QtQtQtQtQtQtQtQtQtQt",
"QtQtQtQtQtQtQt.#.#.V.#.#.W.X.Y.Z.0.1.T.T.2.#QtQtQtQtQtQtQtQtQtQt",
"QtQtQtQtQtQtQtQtQt.#.3.4.5.6.7.8.9#..T##.#QtQtQtQtQtQtQtQtQtQtQt",
"QtQtQtQt.#.#QtQtQt.##a#b#c#d#e#f#g.T.T#h.#QtQtQtQtQtQtQtQtQtQtQt",
"QtQtQtQt.##i.#.#QtQt.#.#.##j#k#l.T.T.T.y.#QtQtQtQtQtQtQtQtQtQtQt",
"QtQtQt.##m#n#o#p.#.#.V.V.#.#.##q.T.T.T.#.#QtQtQtQtQtQtQtQtQtQtQt",
"QtQtQt.##r#s#t.8#u#v.#.#QtQt.#.##w###q.#QtQtQtQtQtQtQtQtQtQtQtQt",
"QtQtQt.##x#y#z#A#e#B#C.#.#QtQtQt.##D.2.#QtQtQtQtQtQtQtQtQtQtQtQt",
"QtQtQt.##E#F#G#H.G#I.T#q.y.#QtQtQt.#.#.#QtQtQtQtQtQtQtQtQtQtQtQt",
"QtQt.##J#K#L#M#N#c#O#P###C.#QtQtQtQtQtQtQtQtQtQtQtQtQtQtQtQtQtQt",
"QtQt.##Q#R#S#T#U#V#f#W.#.#.#.#.#.#QtQtQtQtQtQtQtQtQtQtQtQtQtQtQt",
"QtQt.##X#Y#Z#0#1#2#k#3.#.#.#.#.2.#QtQtQtQtQtQtQtQtQtQtQtQtQtQtQt",
"Qt.##4#5#6#7#8.G#9#l.Ta.a#aa#3.y.#QtQtQtQtQtQtQt.#.#QtQtQtQtQtQt",
"Qt.#abac.#.#adaeaf.T.T.T.T.T#q.#QtQtQtQt.#.#.#.#agah.#.#.#QtQtQt",
"QtQt.#.#Qt.#.#aiaj.T.T.T.T##.#.#.#.#.#.#akalamananaoapaqar.#QtQt",
"QtQtQtQtQtQt.#.#as.T.T.Ta..#atauavawaxayazaAaBaCaCaDaEaEaFaG.#Qt",
"QtQtQtQtQtQtQt.#.#.#.#.#.#aHaIaJaKaLaMaNaOaPaQaRaSaTaUaVaWaX.#Qt",
"QtQtQtQtQtQtQtQt.#aYaZa0a1a2a3a4a5a5a6a7aya8.#.#.#.#a9b.b#baaWQt",
"QtQtQtQtQtQtQtQt.#bbbcbdbebf.#bgbhbibjbkblbm.#.#.#.#bnbob#bpbqQt",
"QtQtQtQtQtQtQt.#brbsbtbu.#.#.#.#.#bvbwbxbybzbAbBamblbCbDbEbF.#Qt",
"QtQtQtQtQtQtQt.#bGbHbIbJbK.#.#.#bLbMbNbObPaQaObQbQbRbQbSbTbU.#Qt",
"QtQtQtQtQtQtQt.#bVbWa5bXbYbZaNb0b1b2b3.#.#b4b5b6b7b8b7b9c..#QtQt",
"QtQtQtQtQtQtQt.#c#cacbcccdcebDcfcgch.#QtQt.#.#.#cicjckcl.#QtQtQt",
"QtQtQtQtQtQtQtQt.#cmcncocpcqcrcs.#.#QtQtQtQtQtQt.#.#.#.#QtQtQtQt",
"QtQtQtQtQtQtQtQtQt.#ctcucvcw.#.#QtQtQtQtQtQtQtQtQtQtQtQtQtQtQtQt",
"QtQtQtQtQtQtQtQtQtQt.#.#.#.#QtQtQtQtQtQtQtQtQtQtQtQtQtQtQtQtQtQt"};
