/* XPM */
static char *mask_reset[]={
"32 32 291 2",
".X c None",
"Qt c #000000",
"#I c #000d00",
"#H c #000e00",
"#u c #001900",
"ay c #002500",
"ae c #002600",
".4 c #003300",
"af c #004000",
".A c #004c00",
"#A c #005900",
"#G c #006600",
".W c #007300",
"ad c #008000",
"#j c #008c00",
"#8 c #009900",
".M c #00a600",
"az c #00b201",
"#t c #00b300",
"#b c #00c000",
"ap c #00cc00",
".V c #00cd00",
".h c #010c01",
"ag c #011702",
"#z c #011b01",
"an c #012401",
"#1 c #017301",
".L c #01b101",
".U c #01cc01",
"#U c #01cd01",
"aP c #020202",
"#9 c #021602",
".K c #026302",
"aA c #030f03",
"ah c #032e04",
"#a c #04ce04",
"#c c #050e05",
"#p c #051305",
".z c #055f06",
"ao c #05ba06",
"#o c #05ce05",
"#s c #062806",
".Y c #070f07",
".a c #072a07",
"#i c #07ce07",
"#l c #082808",
".b c #09260a",
"#O c #09340a",
".5 c #0a1c0a",
"aa c #0a720b",
"ak c #0acf0a",
".q c #0b220c",
"#k c #0b330c",
"aQ c #0c0f11",
".g c #0c6f0e",
"#F c #0dc30d",
"#V c #0e6010",
"ai c #0e9d0f",
".3 c #0ed00e",
".p c #109811",
".J c #10ba10",
"#v c #114312",
"#y c #128412",
"#n c #12d112",
"cl c #151c1e",
".i c #153e16",
"bb c #161f21",
"b# c #162125",
".T c #16d016",
"cA c #171c23",
"bO c #171d26",
"bc c #171f22",
"#m c #179f17",
"al c #181a1e",
"cg c #181b24",
"cz c #181c23",
"cy c #181d24",
"b6 c #181e21",
"aV c #181f26",
"bm c #182428",
"#N c #18d318",
"aZ c #191c28",
"cm c #191d21",
"aW c #191e25",
"aU c #192026",
"aR c #192126",
"bz c #19222c",
"ba c #192325",
"b. c #19262b",
"## c #19d319",
"cx c #1a1c20",
"b1 c #1a1c28",
"aI c #1a1c2b",
"cp c #1a1d24",
"cf c #1a1d26",
"ct c #1a1e1f",
"bH c #1a1e25",
"ck c #1a2023",
"bR c #1a2024",
"bd c #1a2124",
"bn c #1a232b",
"by c #1b1d23",
"co c #1b1d28",
"bv c #1b1e24",
"cn c #1b1e25",
"aG c #1b1e26",
"c. c #1b1e28",
"b2 c #1b1e29",
"aJ c #1b1e2c",
"bJ c #1b1f2b",
"bS c #1b2125",
"bo c #1b2126",
"bj c #1b2129",
"bC c #1b2225",
"aT c #1b2229",
"aS c #1b2329",
"#h c #1bd31b",
"bx c #1c1d1f",
"aB c #1c1e24",
"a2 c #1c1e25",
"bM c #1c1e28",
"aY c #1c1e29",
"b0 c #1c1e2a",
"bT c #1c1f23",
"cq c #1c1f24",
"b8 c #1c1f25",
"b9 c #1c1f26",
"aX c #1c1f28",
"bu c #1c1f29",
"bN c #1c1f2a",
"aK c #1c202a",
"aL c #1c212b",
"b3 c #1c2228",
"a5 c #1c242c",
".N c #1c471c",
"aH c #1d1f2b",
"b7 c #1d2024",
"as c #1d2026",
"c# c #1d2028",
"bf c #1d2029",
"cu c #1d2125",
"bi c #1d2128",
"au c #1d242d",
"bP c #1d282d",
".O c #1d2d1d",
"#T c #1dd41d",
"am c #1e1f24",
"cB c #1e2024",
"cd c #1e2027",
"bZ c #1e2128",
"a0 c #1e212a",
"bE c #1e2226",
"be c #1e232a",
"a4 c #1e242c",
"bD c #1e2528",
"ca c #1f2229",
"a6 c #1f252d",
"bk c #1f272f",
"aM c #1f2731",
"#r c #1fa11f",
"aj c #1fd41f",
"cc c #202025",
"bQ c #202225",
"ce c #20222b",
"bF c #202325",
"bV c #202328",
"bX c #202329",
"bK c #20232c",
"cs c #202425",
"ch c #20242b",
"bI c #20242e",
"cE c #202524",
"a9 c #202b2e",
"ac c #20d520",
"bg c #21242b",
"bU c #212528",
"aN c #21262e",
"b4 c #21282c",
"a# c #21a922",
"bs c #222428",
"bt c #22242c",
"a3 c #22252b",
"at c #222932",
"bq c #232529",
"bG c #23262c",
"bW c #23262e",
"bB c #242729",
"a1 c #24272d",
"a8 c #242d2c",
"bl c #24302e",
"br c #25272a",
"bY c #25282c",
"cG c #252929",
"#B c #257627",
"cC c #262626",
"b5 c #26282b",
"aF c #262830",
"av c #262835",
"aE c #272831",
"ci c #27292e",
"a7 c #272b33",
"a. c #27c228",
"cD c #282b2b",
"bp c #282c2f",
".D c #283d28",
"cF c #292d2d",
".2 c #29d729",
"aw c #2a2935",
"ar c #2a2a2e",
"aD c #2b2b35",
"aC c #2b2c35",
"bL c #2b2e34",
"cv c #2b2f34",
".c c #2b7c2d",
"cw c #2c2c2d",
"bw c #2c3033",
"#q c #2cbd2e",
"#g c #2cd82c",
"#d c #2d8b2d",
"bA c #2f363e",
".f c #2fbf30",
"cj c #313437",
"#. c #31d931",
".y c #32d432",
"cb c #33363a",
"#7 c #33d933",
"#2 c #34ad35",
"ax c #35343b",
".S c #35da35",
"aO c #383b41",
"ab c #38d238",
"aq c #39383d",
".6 c #398e39",
"#f c #39db39",
"cr c #3b3e40",
".E c #3b4e3b",
".I c #3bdb3b",
"#0 c #3edc3e",
".B c #3f9540",
"#e c #41dd41",
".o c #43d643",
".1 c #43de43",
".9 c #45de45",
"bh c #46494e",
"#x c #46de46",
".e c #47c948",
"#E c #49df49",
"#w c #4ed94e",
".C c #509450",
".d c #50c851",
".R c #51e151",
"#6 c #52e152",
".8 c #55e255",
".Z c #58bc58",
".7 c #58d658",
".x c #58e358",
"#J c #59c65a",
".H c #59e359",
".0 c #5be35b",
"#M c #5ce45c",
"#Z c #61e561",
"#D c #63e563",
"#S c #64e664",
"#4 c #69e06a",
".n c #6be76b",
".Q c #6ce86c",
"#5 c #6ee86e",
".r c #72de72",
".j c #75da76",
"#C c #75ea75",
".w c #76ea76",
"#L c #7beb7b",
"#Y c #82ed82",
".m c #83ed83",
".P c #85ee85",
"#3 c #87ee87",
"#R c #88ee88",
"#P c #8be18c",
".F c #8dc98d",
".v c #93f193",
".G c #94f194",
"#K c #94f294",
".l c #95f295",
".k c #98f298",
".s c #9df49d",
"#X c #9ff49f",
"#W c #a9f7a9",
"#Q c #aaf7aa",
".u c #adf8ad",
".t c #b4f9b4",
".# c #ffffff",
"QtQtQtQtQtQtQtQtQtQtQtQtQtQtQtQtQtQtQtQtQtQtQtQtQtQtQtQtQtQtQtQt",
"Qt.#.#.#.#.#.#.#.#.#QtQtQt.aQtQtQt.#.#.#.#.#.#.#.#.#.#.#.#.#.#Qt",
"Qt.#.#.#.#.#.#.#.#Qt.b.c.d.e.f.g.hQt.#.#.#.#.#.#.#.#.#.#.#.#.#Qt",
"Qt.#.#.#.#.#.#.#Qt.i.j.k.l.m.n.o.pQtQt.#QtQt.#.#.#.#.#.#.#.#.#Qt",
"Qt.#.#.#.#.#.#Qt.q.r.s.t.u.v.w.x.y.zQtQt.AQt.#.#.#.#.#.#.#.#.#Qt",
"Qt.#.#.#.#.#.#Qt.B.C.D.E.F.G.w.H.I.J.K.L.MQt.#.#.#.#.#.#.#.#.#Qt",
"Qt.#.#.#.#.#.#Qt.NQtQtQt.O.P.Q.R.S.T.U.V.WQt.#.#.#.#.#.#.#.#.#Qt",
"Qt.#.#.#.#.#.#QtQt.XQtQt.Y.Z.0.1.2.3.V.V.4Qt.#.#.#.#.#.#.#.#.#Qt",
"Qt.#.#.#.#.#.#.#.#Qt.5.6.7.8.9#.###a.V#bQt.#.#.#.#.#.#.#.#.#.#Qt",
"Qt.#.#.#QtQt.#.#.#Qt#c#d#e#f#g#h#i.V.V#jQt.#.#.#.#.#.#.#.#.#.#Qt",
"Qt.#.#.#Qt#kQtQt.#.#QtQt#l#m#n#o.V.V.V.AQt.#.#.#.#.#.#.#.#.#.#Qt",
"Qt.#.#Qt#p#q#r#sQtQt.X.XQtQt.4#t.V.V.V#uQt.#.#.#.#.#.#.#.#.#.#Qt",
"Qt.#.#Qt#v#w#x#.#y#zQtQt.#.#QtQt#A#b#tQt.#.#.#.#.#.#.#.#.#.#.#Qt",
"Qt.#.#Qt#B#C#D#E#g#F#G#HQt.#.#.#Qt#I.4Qt.#.#.#.#.#.#.#.#.#.#.#Qt",
"Qt.#.#Qt#J#K#L#M.I#N.V#t.AQt.#.#.#QtQtQt.#.#.#.#.#.#.#.#.#.#.#Qt",
"Qt.#Qt#O#P#Q#R#S#e#T#U#b#G#I.#.#.#.#.#.#.#.#.#.#.#.#.#.#.#.#.#Qt",
"Qt.#Qt#V#W#X#Y#Z#0#h#1QtQtQtQtQtQt.#.#.#.#.#.#.#.#.#.#.#.#.#.#Qt",
"Qt.#Qt#2#3#4#5#6#7#n#8QtQtQtQt.4Qt.#.#.#.#.#.#.#.#.#.#.#.#.#.#Qt",
"QtQt#9a.a#aaab.Iac#o.Vadaeaf#8.AQt.#.#.#.#.#.#.#.#.#.#.#.#.#.#Qt",
"QtQtagahQtQtaiajak.V.V.V.V.V#tQt.#.#.#.#.#.#.#.#alam.#.#.#.#.#Qt",
"Qt.#QtQt.#Qtanaoap.V.V.V.V#baeQt.#.#.#.#aqarasatatauavawax.#.#Qt",
"Qt.#.#.#.#.#Qtayaz.V.V.VadaAaBaCaDaEaFaGaHaIaJaKaKaLaMaMaNaO.#Qt",
"Qt.#.#.#.#.#.#QtQtae.4aPaQaRaSaTaUaVaWaXaYaZa0a1a2a3a4a5a6a7.#Qt",
"Qt.#.#.#.#.#.#.#.#a8a9b.b#babbbcbdbdbebfaGbg.#.#.#.#bhbibjbka6Qt",
"Qt.#.#.#.#.#.#.#.#blbmbnbobp.#bqbrbsbtbubvbw.#.#.#.#bxbybjbzbAQt",
"Qt.#.#.#.#.#.#.#bBbCbDbE.#.#.#.#.#bFbGbHbIbJbKbLasbvbMbNbObP.#Qt",
"Qt.#.#.#.#.#.#.#bQbRbSbTbU.#.#.#bVbWbXbYbZa0aYb0b0b1b0b2b3b4.#Qt",
"Qt.#.#.#.#.#.#.#b5b6bdb7b8b9aXc.c#cacb.#.#cccdcecfcgcfchci.#.#Qt",
"Qt.#.#.#.#.#.#.#cjckclcmcncobNcpcqcr.#.#.#.#.#.#csctcucv.#.#.#Qt",
"Qt.#.#.#.#.#.#.#.#cwcxcyczcAcBcC.#.#.#.#.#.#.#.#.#.#.#.#.#.#.#Qt",
"Qt.#.#.#.#.#.#.#.#.#cDcEcFcG.#.#.#.#.#.#.#.#.#.#.#.#.#.#.#.#.#Qt",
"QtQtQtQtQtQtQtQtQtQtQtQtQtQtQtQtQtQtQtQtQtQtQtQtQtQtQtQtQtQtQtQt"};
