/* XPM */
static char *move_feature_cursor[]={
"32 32 3 1",
". c None",
"# c #000000",
"a c #ffffff",
"...............#................",
"...............#................",
"...............#................",
"............###a###.............",
"..........##aaa#aaa##...........",
"........##aa...#...aa##.........",
".......##a.....#.....a##........",
"......##a..#######a...a##.......",
".....##a.##aaaaa####a..a##......",
".....#a.#aaaaaaaaa###a..a#......",
"....#a.#aaaaaaaaaaaa##a.a##.....",
"....#a#aaaaaaaaaaaaaa##a###.....",
"...#a.#aaaaa####aaaaaa##a#a#....",
"...#a#aaaa##a##a##aaaaaaa#a#....",
"...#a#aaa#aa###a###aaaaaa#a#....",
"###a##aaa###aaa#aaa#aaaaa##a###.",
"...#a.#aa#aa###a####aaaaa#a#....",
"...#a.#aa#a.a##a###aaaaaa#a#....",
"...#a..#a##a.a#a##########a#....",
"....#a.#aa##a.a#a.a####a.a#.....",
"....#a..#aa##aa#aa####a..a#.....",
".....#a..#aa###a#####a..a#......",
".....##a..#####a####a..a##......",
"......##a..aa##a##aa..a##.......",
".......##a...aa#aa...a##........",
"........##aa...#...aa##.........",
"..........##aaa#aaa##...........",
"............###a###.............",
"...............#................",
"...............#................",
"...............#................",
"................................"};
