/* XPM */
static char *reset_single[]={
"32 32 91 2",
"#v c None",
"Qt c None",
"#x c #0000ff",
".u c #00e300",
".G c #00ee00",
".h c #00ef00",
".i c #00f600",
".R c #00f700",
".v c #00f900",
".M c #00fb00",
".H c #00fd00",
".# c #00ff00",
".w c #04ff04",
".L c #101800",
".C c #112405",
".D c #121600",
".g c #141400",
".Z c #142908",
".F c #142b0a",
".7 c #161600",
"#g c #16310c",
".Q c #17320c",
".6 c #192c0b",
".f c #1a330d",
".t c #1b3e0f",
".c c #1c3f10",
".d c #1c4110",
".j c #1d4613",
".s c #1e4917",
".E c #212106",
".e c #213b14",
".a c #215017",
".b c #225118",
"#n c #256022",
".0 c #284919",
".V c #296c27",
".S c #2a6f2b",
".k c #2a732f",
".8 c #2c7f39",
"#f c #2c813a",
"#t c #2d823b",
".B c #2f833c",
"#s c #2f8b40",
"#o c #2f8f46",
".2 c #2fa057",
".1 c #305020",
".U c #31843e",
"#k c #319e52",
".5 c #32843f",
"#i c #32a65c",
".x c #32a85d",
".P c #337f3a",
"#p c #33b364",
"#j c #34b464",
"#h c #366d2f",
"#c c #378843",
"#l c #3a924c",
".p c #3d8f4b",
"#r c #407438",
".r c #417036",
"#b c #419652",
".Y c #46914f",
".A c #46b670",
".q c #477d40",
".J c #47b671",
".K c #50854a",
".4 c #55bd7a",
".O c #63c284",
".X c #63c385",
"#m c #64c280",
".l c #65c284",
"#q c #6ac684",
"#a c #6fc386",
"#d c #7dcb8f",
".o c #82cd91",
".T c #a3daae",
".9 c #b0e1b5",
".I c #b2e0b8",
".z c #b8e2be",
".n c #b9e4bd",
".3 c #bee5c1",
".N c #cbe9cb",
"#e c #ceecce",
"## c #d4f4d4",
".m c #d8f0d6",
"#. c #dff3dd",
".W c #e0f3dd",
"#y c #ff0000",
"#u c #ff00ff",
"#w c #ffff00",
".y c #ffffff",
"QtQtQtQtQtQtQtQtQtQtQtQtQtQtQtQtQtQtQtQtQtQtQtQtQtQtQtQtQtQtQtQt",
".#QtQtQtQtQtQtQtQtQtQtQtQtQtQtQtQtQtQtQtQtQtQt.#Qt.#QtQtQtQtQtQt",
".#.#.#QtQtQtQtQtQtQtQtQtQtQtQtQtQtQtQtQtQtQtQtQtQtQt.#QtQtQtQtQt",
"Qt.#.#.#QtQtQtQtQtQtQtQtQtQtQtQtQtQtQtQtQtQt.#Qt.#.#.#.#.#QtQtQt",
"QtQt.#.#QtQt.#QtQtQtQtQtQtQtQtQtQtQtQtQtQtQtQt.#.#.#.#.#.#.#QtQt",
"Qt.#Qt.#Qt.#.#QtQtQtQtQtQt.a.b.c.d.e.f.gQt.h.iQtQt.#Qt.#.#.#QtQt",
"Qt.#Qt.#.#Qt.#QtQtQtQt.j.k.l.m.n.o.p.q.r.s.t.uQt.vQtQtQt.#.#.#.#",
"QtQtQt.#.#.#.#Qt.wQt.j.x.y.z.A.B.j.C.D.E.g.s.FQt.GQtQtQtQt.#.#.#",
"QtQtQtQtQtQt.#.w.H.i.k.y.I.J.K.g.g.#.#.#Qt.g.F.LQtQtQtQtQtQt.#.#",
"QtQtQtQt.#Qt.#.#.M.j.l.N.O.P.Q.#.#.#.#.#QtQtQt.F.gQtQtQtQtQtQt.#",
"QtQtQtQtQtQtQtQt.R.S.y.T.U.g.#.#.#.#QtQtQtQtQtQt.gQtQtQtQtQtQtQt",
"QtQtQtQtQtQtQtQtQt.V.W.X.Y.ZQt.#QtQtQtQtQtQtQtQtQtQtQtQtQtQtQtQt",
"QtQtQtQtQt.g.t.0.1.2.3.4.5.6.7.g.gQtQtQtQtQtQtQtQtQtQtQtQtQtQtQt",
"QtQtQtQtQt.g.8.9#.###a#b#c#d#e#f#gQtQtQtQtQtQtQtQtQtQtQtQtQtQtQt",
"QtQtQtQtQtQt.g#h#i#j#k#l#m#f#n.gQtQtQtQtQtQtQtQtQtQtQtQtQtQtQtQt",
"QtQtQtQtQtQtQt.g#h#o#p#q#f#n.gQtQtQtQtQtQtQtQtQtQtQtQtQtQtQtQtQt",
"QtQtQtQtQtQtQtQt.g#r#s#t#n.gQtQtQtQtQtQtQtQtQtQtQtQtQtQtQtQtQtQt",
"QtQtQtQtQtQtQtQtQt.g#h#n.gQtQtQtQtQtQtQtQtQtQtQtQtQtQtQtQtQtQtQt",
"QtQtQtQtQtQtQtQtQtQt.g.gQtQtQtQtQtQtQtQtQtQtQtQtQtQtQtQtQtQtQtQt",
"QtQtQtQtQtQtQtQtQtQtQtQtQtQtQtQtQtQtQtQtQtQtQtQtQtQtQtQtQtQtQtQt",
"#u#v#v#v#v#v#v#v#v#v#v#v#v#vQtQtQt#vQtQtQtQtQt#v#w#w#v#v#v#v#v#v",
"#v#v#v#v#v#v#vQt#v#v#v#v#vQtQtQtQt#vQtQtQtQtQt#v#x#v#w#y#v#v#v#v",
"#u#u#x#v#v#v#vQtQt#v#v#vQtQtQtQtQtQtQtQt#y#x#x#v#v#x#v#w#x#w#w#v",
"#v#x#v#u#v#v#v#vQtQtQt#vQtQtQtQtQtQtQtQt#y#w#v#y#y#w#y#x#v#x#x#v",
"#y#x#w#w#v#v#v#v#vQtQtQtQtQtQtQtQtQtQt#uQt#w#x#w#x#x#v#y#w#y#x#w",
"#w#y#x#x#w#x#v#v#v#xQtQtQtQtQtQtQtQt#yQt#y#y#x#v#u#y#v#y#v#y#y#x",
"#v#y#y#x#x#v#v#v#v#v#v#v#xQt#w#y#w#x#w#y#y#v#v#u#v#v#v#v#v#w#y#y",
"#v#v#y#y#x#w#x#y#v#x#v#v#v#v#x#w#x#y#y#y#w#u#v#v#y#v#v#v#v#y#v#y",
"#v#y#v#y#x#y#x#x#x#v#y#v#x#x#x#y#y#y#v#x#v#v#v#v#v#v#v#v#v#v#v#w",
"#v#v#v#v#v#y#y#y#v#x#w#x#y#y#w#y#v#v#v#v#v#v#v#v#v#v#v#v#v#v#v#v",
"#v#v#v#y#v#v#x#y#y#y#y#y#y#v#v#x#v#u#v#v#v#v#v#v#v#v#v#v#v#v#v#v",
"#v#v#v#v#v#v#v#v#v#x#v#x#v#v#v#v#v#v#v#v#v#v#v#v#v#v#v#v#v#v#v#v"};
