/* XPM */
static char *reset_view[]={
"32 32 148 2",
".C c None",
"#p c None",
"Qt c None",
".n c #000000",
".9 c #010101",
"#Q c #030303",
".F c #03200d",
".D c #03230f",
".y c #042510",
".s c #042710",
".e c #042712",
".d c #042910",
".c c #042d14",
".T c #042d15",
".1 c #052e13",
".U c #053015",
".b c #053214",
".V c #063919",
".a c #063d18",
".W c #063f1a",
".X c #07421c",
".# c #07441d",
"#R c #090909",
".r c #0a5f28",
".Z c #0b6b2d",
".q c #0c6b2e",
".p c #0d7a33",
".S c #0e612b",
".Q c #10632d",
"#. c #109740",
"#g c #119c42",
".Y c #119e43",
".l c #12a342",
".o c #12a546",
".K c #12a747",
".6 c #12a947",
"## c #12aa48",
"#a c #13ac49",
".P c #14a748",
".I c #16873b",
".O c #1ba84d",
".R c #1ca74d",
".5 c #1cb34e",
"#P c #1e1e1e",
"#7 c #1f1f1f",
"#B c #222222",
".B c #23a04f",
"ad c #242424",
"#C c #262626",
"af c #272727",
"#G c #282828",
"am c #292929",
".H c #29a655",
"aa c #2d2d2d",
".m c #2d583c",
"#K c #2e2e2e",
".E c #2ea558",
"#h c #2ecb69",
"ai c #313131",
".0 c #333333",
"#I c #353535",
"#J c #373737",
"#Z c #3a3a3a",
"#F c #3c3c3c",
"#i c #3cbd60",
"#y c #3d3d3d",
"#5 c #3e3e3e",
"an c #404040",
"#k c #444444",
"#j c #44cf61",
"#v c #464646",
"#d c #484848",
".8 c #494949",
"#f c #4a4a4a",
"#D c #4b4b4b",
".L c #4b7a5c",
"#z c #4c4c4c",
".x c #4cad6c",
".z c #4d8860",
".G c #518a65",
".t c #528d65",
".k c #52bf76",
"ao c #535353",
".N c #548b67",
"#O c #555555",
"#x c #585858",
".f c #58916c",
"#o c #59d473",
"ae c #5a5a5a",
"#E c #5b5b5b",
"#s c #5c5c5c",
"#W c #5d5d5d",
"#t c #5e5e5e",
"#L c #616161",
"#b c #61c481",
"#0 c #626262",
"ak c #636363",
"a# c #646464",
"#3 c #666666",
"a. c #676767",
"aq c #686868",
".w c #6ad78e",
"#1 c #6b6b6b",
"#N c #6d6d6d",
"#6 c #6f6f6f",
"ap c #707070",
"aj c #727272",
"ar c #757575",
"#T c #767676",
"#n c #777777",
"#c c #77da97",
"#M c #797979",
".7 c #7aab8b",
"#Y c #7f7f7f",
"#H c #828282",
"#V c #848484",
".4 c #85c899",
"#u c #8b8b8b",
"#S c #909090",
".2 c #90c5a3",
"#r c #919191",
".A c #94c5a1",
"#m c #959595",
".j c #97d4ab",
"#9 c #9b9b9b",
"ah c #9c9c9c",
".u c #9dcaaa",
"al c #9f9f9f",
".g c #9fd8b2",
".J c #a1caaf",
".v c #a1e2b6",
"ac c #a3a3a3",
"#U c #a5a5a5",
"#e c #a9a9a9",
"#X c #acacac",
"ag c #aeaeae",
"#2 c #b6b6b6",
"#8 c #b8b8b8",
"ab c #bdbdbd",
"#4 c #bfbfbf",
".M c #c2e3cc",
".3 c #c5e4cf",
"#l c #c6c6c6",
".h c #c8e5d1",
"#A c #d0d0d0",
"#w c #d2d2d2",
"#q c #d5d5d5",
".i c #dfeee3",
"QtQtQtQtQtQtQtQtQtQtQtQtQt.#.#.#.a.b.c.d.eQtQtQtQtQtQtQtQtQtQtQt",
"QtQtQtQtQtQtQtQtQtQtQt.#.#.f.g.h.i.j.k.l.m.n.nQtQtQtQtQtQtQtQtQt",
"QtQtQtQtQtQtQtQtQt.#.#.f.h.i.j.k.o.p.q.r.#.#.s.n.nQtQtQtQtQtQtQt",
"QtQtQtQtQtQtQtQt.#.t.u.i.v.w.x.p.r.#.n.n.n.n.n.s.y.nQtQtQtQtQtQt",
"QtQtQtQtQtQtQt.#.z.A.i.v.k.B.q.#.n.n.C.C.C.C.C.n.n.D.nQtQtQtQtQt",
"QtQtQtQtQtQtQt.#.u.i.v.o.E.q.#.n.C.CQtQtQtQtQt.C.C.n.F.nQtQtQtQt",
"QtQtQtQtQtQt.#.G.i.v.k.H.I.#.n.CQtQtQtQtQtQtQtQtQt.C.n.nQtQtQtQt",
"QtQtQtQtQtQt.#.J.i.w.K.I.q.n.CQtQtQtQtQtQtQtQtQtQtQt.C.C.nQtQtQt",
"QtQtQtQtQt.#.L.M.v.k.H.q.#.nQtQtQtQtQtQtQtQtQtQtQtQtQtQt.CQtQtQt",
"QtQtQtQtQt.#.N.i.w.O.P.Q.n.CQtQtQtQtQtQtQtQtQtQtQtQtQtQtQtQtQtQt",
"QtQtQtQtQt.#.N.i.k.R.P.S.nQtQtQtQtQtQtQtQtQtQtQtQtQtQtQtQtQtQtQt",
".T.U.V.W.X.#.N.M.k.P.Y.Z.n.V.#.#.V.TQtQtQtQt.0.nQtQtQtQtQtQtQtQt",
".n.1.2.3.i.i.M.4.5.6.Y.7.2.3.i.2.#.nQtQtQt.0.8.0.9QtQtQtQtQtQtQt",
".C.n.##..k.w.w.k###a.K#b#c.w#..#.n.CQtQt.0#d#e#f.0.9QtQtQtQtQtQt",
"Qt.C.n.#.q#g#h.5#a#a#i#j#..q.#.n.CQtQt.0#k#l#m#n#f.0.9QtQtQtQtQt",
"QtQt.C.n.#.q#.#h#a#i#o#..q.#.n.CQt#p.0#d#q#r#s#t#u#f.0.9QtQtQtQt",
"QtQtQt.C.n.#.q#.#i#j#..q.#.n.CQtQt.0#v#w#r#x#y#z#t#m.8.0.9QtQtQt",
"QtQtQtQt.C.n.#.q#.#..q.#.n.CQtQt.0.8#A#r#x#y#B#C#D#t#m.8.0.nQtQt",
"QtQtQtQtQt.C.n.#.q.q.#.n.CQtQt.0.8#l#r#E#F#B#B#B#G#z#t#H.8.0.nQt",
"QtQtQtQtQtQt.C.n.#.#.n.CQtQt.0.8#e#r#x.8.8#I#G#C#J#K#f#L#n.8.0.n",
"QtQtQtQtQtQtQt.C.n.n.CQtQtQt.n.n.n.n.n.n#M#N#J#C#O#P#Q.n.n.n.n.n",
"QtQtQtQtQtQtQtQt.C.CQtQtQtQtQtQtQtQtQt#R#S#T#k#B#s#P#QQtQtQtQtQt",
"QtQtQtQtQtQtQtQtQtQtQtQtQtQtQtQtQtQtQt.0#U#V#k#B#W#P#QQtQtQtQtQt",
"QtQtQt.CQtQtQtQtQtQtQtQtQtQtQtQtQtQt.C.0#X#Y#F#Z#0#P.nQtQtQtQtQt",
"QtQtQt.n.CQtQtQtQtQtQtQtQtQtQtQtQtQt.0#1#2#N#B#0#k.nQtQtQtQtQtQt",
"QtQtQtQt.n.n.CQtQtQtQtQtQtQtQtQt.C.0#3#4#m#z#5#6#7.nQtQtQtQtQtQt",
"QtQtQtQt.n#Q.n.C.CQtQtQtQtQt.C.C.0#d#8#9a.#Ba#aa.nQtQtQtQtQtQtQt",
"QtQtQtQtQt.n#Q.n.n.C.C.C.C.C.0.0#1abac#Nada#aeaf.nQtQtQtQtQtQtQt",
"QtQtQtQtQtQt.n#I#I.n.n.0.0.0a.ag#4ah#Naiajaeaf.nQtQtQtQtQtQtQtQt",
"QtQtQtQtQtQtQt.n.n#Iak#H#ralag#9#Oama#ajaf.n.nQtQtQtQtQtQtQtQtQt",
"QtQtQtQtQtQtQtQtQt.n.n.0anao#tapaqarae.n.nQtQtQtQtQtQtQtQtQtQtQt",
"QtQtQtQtQtQtQtQtQtQtQt.n.n.n.n.n.n.n.nQtQtQtQtQtQtQtQtQtQtQtQtQt"};
