/* XPM */
static char *reset_shift[]={
"32 32 158 2",
"Qt c None",
"#h c #000000",
"ae c #0000ff",
".u c #00e300",
".G c #00ee00",
".h c #00ef00",
".i c #00f600",
".R c #00f700",
".v c #00f900",
".M c #00fb00",
".H c #00fd00",
".# c #00ff00",
"#5 c #010101",
"#0 c #030303",
".w c #04ff04",
"ak c #070707",
"an c #080808",
"#Z c #0a0a0a",
"ao c #0b0b0b",
"ay c #0d0d0d",
".L c #101800",
".C c #112405",
"az c #121212",
".D c #121600",
".g c #141400",
"am c #141414",
".Z c #142908",
".F c #142b0a",
"#A c #151515",
".7 c #161600",
"#g c #16310c",
"#i c #171717",
".Q c #17320c",
"#s c #191919",
".6 c #192c0b",
"ad c #1a1a1a",
".f c #1a330d",
".t c #1b3e0f",
"ap c #1c1c1c",
".c c #1c3f10",
".d c #1c4110",
"aB c #1d1d1d",
".j c #1d4613",
".s c #1e4917",
"at c #1f1f1f",
".E c #212106",
"aA c #212121",
".e c #213b14",
".a c #215017",
"#N c #222222",
".b c #225118",
"#4 c #242424",
"a. c #252525",
"#p c #256022",
"#R c #282828",
".0 c #284919",
"#O c #292929",
".V c #296c27",
"#U c #2a2a2a",
".S c #2a6f2b",
".k c #2a732f",
"#Y c #2c2c2c",
".8 c #2c7f39",
"#f c #2c813a",
"#D c #2d823b",
"#W c #2e2e2e",
"#V c #2f2f2f",
".B c #2f833c",
"#C c #2f8b40",
"#t c #2f8f46",
".2 c #2fa057",
".1 c #305020",
".U c #31843e",
"#m c #319e52",
".5 c #32843f",
"#k c #32a65c",
".x c #32a85d",
".P c #337f3a",
"#u c #33b364",
"#l c #34b464",
"#M c #353535",
"#j c #366d2f",
"#c c #378843",
"#G c #383838",
"#n c #3a924c",
"ac c #3b3b3b",
"#2 c #3c3c3c",
".p c #3d8f4b",
"aj c #404040",
"#B c #407438",
"#8 c #414141",
".r c #417036",
"#b c #419652",
"al c #424242",
"ai c #434343",
"#z c #454545",
"#Q c #464646",
".Y c #46914f",
".A c #46b670",
"#r c #474747",
".q c #477d40",
".J c #47b671",
"#H c #484848",
"au c #4b4b4b",
"#J c #4c4c4c",
"#P c #4d4d4d",
"as c #505050",
".K c #50854a",
"#3 c #515151",
".4 c #55bd7a",
"#9 c #575757",
"ax c #5e5e5e",
".O c #63c284",
".X c #63c385",
"#o c #64c280",
".l c #65c284",
"#T c #686868",
"ah c #6a6a6a",
"#v c #6ac684",
"#x c #6d6d6d",
"#F c #6e6e6e",
"#L c #6f6f6f",
"#a c #6fc386",
"#X c #717171",
"#1 c #757575",
"aq c #797979",
"#d c #7dcb8f",
"av c #818181",
"ar c #828282",
".o c #82cd91",
"#y c #848484",
"#7 c #898989",
"#I c #8d8d8d",
"#S c #9b9b9b",
"#q c #a0a0a0",
"ab c #a3a3a3",
".T c #a3daae",
"aw c #a5a5a5",
"ag c #afafaf",
".9 c #b0e1b5",
".I c #b2e0b8",
"#K c #b5b5b5",
"#w c #b8b8b8",
".z c #b8e2be",
".n c #b9e4bd",
".3 c #bee5c1",
"#E c #c3c3c3",
".N c #cbe9cb",
"#e c #ceecce",
"## c #d4f4d4",
".m c #d8f0d6",
"#. c #dff3dd",
".W c #e0f3dd",
"af c #ff0000",
"#6 c #ff00ff",
"a# c #ffff00",
"aa c #ffff04",
".y c #ffffff",
"QtQtQtQtQtQtQtQtQtQtQtQtQtQtQtQtQtQtQtQtQtQtQtQtQtQtQtQtQtQtQtQt",
".#QtQtQtQtQtQtQtQtQtQtQtQtQtQtQtQtQtQtQtQtQtQt.#Qt.#QtQtQtQtQtQt",
".#.#.#QtQtQtQtQtQtQtQtQtQtQtQtQtQtQtQtQtQtQtQtQtQtQt.#QtQtQtQtQt",
"Qt.#.#.#QtQtQtQtQtQtQtQtQtQtQtQtQtQtQtQtQtQt.#Qt.#.#.#.#.#QtQtQt",
"QtQt.#.#QtQt.#QtQtQtQtQtQtQtQtQtQtQtQtQtQtQtQt.#.#.#.#.#.#.#QtQt",
"Qt.#Qt.#Qt.#.#QtQtQtQtQtQt.a.b.c.d.e.f.gQt.h.iQtQt.#Qt.#.#.#QtQt",
"Qt.#Qt.#.#Qt.#QtQtQtQt.j.k.l.m.n.o.p.q.r.s.t.uQt.vQtQtQt.#.#.#.#",
"QtQtQt.#.#.#.#Qt.wQt.j.x.y.z.A.B.j.C.D.E.g.s.FQt.GQtQtQtQt.#.#.#",
"QtQtQtQtQtQt.#.w.H.i.k.y.I.J.K.g.g.#.#.#Qt.g.F.LQtQtQtQtQtQt.#.#",
"QtQtQtQt.#Qt.#.#.M.j.l.N.O.P.Q.#.#.#.#.#QtQtQt.F.gQtQtQtQtQtQt.#",
"QtQtQtQtQtQtQtQt.R.S.y.T.U.g.#.#.#.#QtQtQtQtQtQt.gQtQtQtQtQtQtQt",
"QtQtQtQtQtQtQtQtQt.V.W.X.Y.ZQt.#QtQtQtQtQtQtQtQtQtQtQtQtQtQtQtQt",
"QtQtQtQtQt.g.t.0.1.2.3.4.5.6.7.g.gQtQtQtQtQtQtQtQtQtQtQtQtQtQtQt",
"QtQtQtQtQt.g.8.9#.###a#b#c#d#e#f#gQtQtQt#h#iQtQtQtQtQtQtQtQtQtQt",
"QtQtQtQtQtQt.g#j#k#l#m#n#o#f#p.gQtQtQt#h#q#r#sQtQtQtQtQtQtQtQtQt",
"QtQtQtQtQtQtQt.g#j#t#u#v#f#p.gQtQtQt#h#w#x#y#z#AQtQtQtQtQtQtQtQt",
"QtQtQtQtQtQtQtQt.g#B#C#D#p.gQtQtQt#h#E#F#G#H#I#J#sQtQtQtQtQtQtQt",
"QtQtQtQtQtQtQtQtQt.g#j#p.gQtQtQt#h#K#L#M#N#O#P#I#Q#AQtQtQtQtQtQt",
"QtQtQtQtQtQtQtQtQtQt.g.gQtQtQt#R#S#T#z#z#U#V#W#Q#X#Y#ZQtQtQtQtQt",
"QtQtQtQtQtQtQtQtQtQtQtQtQtQtQt#h#h#0#h#1#2#3#4#5#h#h#hQtQtQtQtQt",
"#6QtQtQtQtQtQtQtQtQtQtQtQtQtQtQtQtQt#h#7#8#9a.Qta#aaQtQtQtQtQtQt",
"QtQtQtQtQtQtQt#hQtQtQtQtQtQtQtQtQtQt#habac#3adQtaeQta#afQtQtQtQt",
"#6#6aeQtQtQtQt#h#hQtQtQtQtQtQtQtQt#hagahaiajakQtQtaeQta#aea#a#Qt",
"QtaeQt#6QtQtQtQt#h#h#hQtQtQtQt#h#hag#yal#HamQtafafa#afaeQtaeaeQt",
"afaea#a#QtQtQtQtQtan#Naoap#h#haqagarasas#Yakaea#aeaeQtafa#afaea#",
"a#afaeaea#aeQtQtQtae#hatauahavawaxalasay#hafaeQt#6afQtafQtafafae",
"QtafafaeaeQtQtQtQtQtQtQt#Zaz#sataAaB#hafafQtQt#6QtQtQtQtQta#afaf",
"QtQtafafaea#aeafQtaeQtQtQtQtaea#aeafafafa##6QtQtafQtQtQtQtafQtaf",
"QtafQtafaeafaeaeaeQtafQtaeaeaeafafafQtaeQtQtQtQtQtQtQtQtQtQtQta#",
"QtQtQtQtQtafafafQtaea#aeafafa#afQtQtQtQtQtQtQtQtQtQtQtQtQtQtQtQt",
"QtQtQtafQtQtaeafafafafafafQtQtaeQt#6QtQtQtQtQtQtQtQtQtQtQtQtQtQt",
"QtQtQtQtQtQtQtQtQtaeQtaeQtQtQtQtQtQtQtQtQtQtQtQtQtQtQtQtQtQtQtQt"};
