/* XPM */
static char *restore_rect[]={
"32 32 105 2",
"Qt c None",
".# c #000000",
".z c #00c0c0",
".L c #00ffff",
".K c #1b1b1b",
".i c #1e1e1e",
".h c #282828",
".b c #2b2b2b",
".d c #2e2e2e",
".y c #312a29",
".a c #444444",
"## c #454545",
".m c #4a4a4a",
"#e c #505050",
"#M c #525252",
".x c #595959",
"#v c #5f5f5f",
".A c #666666",
".Q c #696969",
".e c #6d6d6d",
".U c #6f6b6a",
".5 c #706967",
"#j c #717171",
".Z c #787878",
".o c #7d7d7d",
"#u c #7f7f7f",
".0 c #828282",
"#B c #868686",
"#I c #8b8b8b",
".w c #8e8e8e",
".H c #909090",
".t c #929292",
".4 c #939393",
"#p c #999999",
"#L c #9c9c9c",
"#D c #9d9d9d",
"#t c #9e9e9e",
"#K c #9f9f9f",
"#d c #a2a2a2",
".u c #a7a7a7",
"#C c #a9a9a9",
"#i c #acacac",
"#q c #adadad",
".R c #afafaf",
"#l c #b0b0b0",
".P c #b2b2b2",
"#J c #b3b3b3",
"#E c #b6b6b6",
".p c #b9b9b9",
".j c #bababa",
"#b c #bbbbbb",
".f c #bcbcbc",
"#x c #bebebe",
"#G c #bfbfbf",
"#c c #c0c0c0",
".V c #c0ffff",
"#m c #c1c1c1",
"#k c #c3c3c3",
"#s c #c5c5c5",
".Y c #c6c6c6",
".T c #c7c7c7",
"#A c #c8c8c8",
"#r c #c9c9c9",
".v c #cacaca",
".I c #cbcbcb",
"#F c #cccccc",
"#H c #cdcdcd",
".3 c #cecece",
".B c #cfcfcf",
"#o c #d1d1d1",
".6 c #d2d2d2",
".k c #d3d3d3",
".C c #d4d4d4",
"#f c #d5d5d5",
".J c #d7d7d7",
".2 c #d8d8d8",
".O c #d9d9d9",
".D c #dadada",
".q c #dbdbdb",
"#w c #dcdcdc",
"#h c #dddddd",
".S c #dfdfdf",
".M c #e0e0e0",
".7 c #e1e1e1",
".l c #e2e2e2",
".g c #e4e4e4",
".N c #e5e5e5",
".E c #e6e6e6",
"#a c #e7e7e7",
".W c #e8e8e8",
".r c #e9e9e9",
".1 c #eaeaea",
".F c #ebebeb",
".8 c #ececec",
"#y c #ededed",
".c c #eeeeee",
".s c #efefef",
".G c #f0f0f0",
".X c #f2f2f2",
".9 c #f3f3f3",
"#z c #f5f5f5",
"#. c #f6f6f6",
"#n c #f8f8f8",
"#g c #f9f9f9",
".n c #ff00ff",
"QtQtQtQtQtQtQtQtQtQtQt.#.#QtQtQtQtQtQtQtQtQtQtQtQtQtQtQtQtQtQtQt",
"QtQtQtQtQtQtQtQtQtQt.#Qt.#.#QtQtQtQtQtQtQtQtQtQtQtQtQtQtQtQtQtQt",
"QtQtQtQtQtQtQtQtQtQt.#QtQt.#QtQtQtQtQtQtQtQtQtQtQtQtQtQtQtQtQtQt",
"QtQtQtQtQtQtQtQtQtQt.#QtQt.#QtQtQtQtQtQtQtQtQtQtQtQtQtQtQtQtQtQt",
"QtQtQtQtQtQtQtQtQtQt.#QtQt.#QtQtQtQtQtQtQtQtQtQtQtQtQtQtQtQtQtQt",
"QtQtQtQtQtQtQtQtQtQt.#.a.b.#QtQtQtQtQtQtQtQtQtQtQtQtQtQtQtQtQtQt",
"QtQtQtQtQtQtQtQtQtQt.a.a.c.#.dQtQtQtQtQtQtQtQtQtQtQtQtQtQtQtQtQt",
"QtQtQtQtQtQtQtQtQt.e.e.f.g.#.h.iQtQtQtQtQtQtQtQtQtQtQtQtQtQtQtQt",
"QtQtQtQtQtQtQtQtQt.e.j.k.l.#.a.m.aQtQtQtQtQtQtQtQtQtQtQtQtQtQtQt",
"Qt.n.n.n.n.n.n.n.n.n.n.n.n.n.n.n.n.n.n.n.n.n.n.n.n.n.n.n.n.n.nQt",
"Qt.n.n.n.n.n.n.n.n.n.n.n.n.n.n.n.n.n.n.n.n.n.n.n.n.n.n.n.n.n.nQt",
"Qt.n.nQtQt.e.o.p.k.q.g.r.s.#.t.u.v.w.x.y.z.z.z.z.z.z.zQtQt.n.nQt",
"Qt.n.nQt.e.A.B.C.D.E.F.c.G.#.H.B.I.q.J.K.a.z.L.L.L.L.z.zQt.n.nQt",
"Qt.n.n.e.e.I.q.M.N.c.s.O.P.#.Q.R.r.N.S.T.U.a.z.L.L.V.L.L.z.n.nQt",
"Qt.n.n.e.j.q.M.g.W.G.X.Y.Z.#.0.o.1.M.2.3.4.5.a.z.L.V.V.L.L.n.nQt",
"Qt.n.n.6.q.7.g.W.8.9#..P.#.N.####a.D.3#b#c#d.#.#.z.z.V.V.L.n.nQt",
"#e.n.n#f.S.E.8.s.9#g#g#h#i.##j#c.6#k.t#l#b#m#c.#.#.#.z.V.V.n.nQt",
".y.n.n.S.g.W.s.9#.#g#n.r#o#p#q.I#r.t.p#s#l#t#u#v.#.#.z.z.V.n.nQt",
".#.n.n.N.W.F.X#.#n#g#..9.s.E#w.6.t#x.f.B#t.#.#.#.#.#.z.z.V.n.nQt",
"Qt.n.n.T.7.G#y.X#z#z.G.F.E.k#A.t.T.B.3#B.#.#QtQtQtQt.z.z.V.n.nQt",
"Qt.n.n.e#C.O.8.r.W.F.E.M.2#s.t.Y.k#b#D.#.#QtQtQtQtQt.z.z.L.n.nQt",
"Qt.n.n.#.e#E.g.l.7.7#w#f.I.t#s#F.I#D.#.#QtQtQtQtQtQt.z.z.L.n.nQt",
"Qt.n.nQt.#.e#G#w.M.3.v#k.t.Y#H.k#I.#.#QtQtQtQtQtQtQt.z.z.L.n.nQt",
"Qt.n.n.n.n.n.n.n.n.n.n.n.n.n.n.n.n.n.n.n.n.n.n.n.n.n.n.n.n.n.nQt",
"Qt.n.n.n.n.n.n.n.n.n.n.n.n.n.n.n.n.n.n.n.n.n.n.n.n.n.n.n.n.n.nQt",
"QtQtQtQtQtQtQt.#.e#J.6#f#H.4.#.#QtQtQtQtQtQtQtQtQtQt.z.z.L.L.zQt",
"QtQtQtQtQtQtQtQt.#.e#I#K#L.#.#QtQtQtQtQtQtQtQtQtQtQt.z.z.L.L.zQt",
"QtQtQtQtQtQtQtQtQt.##M#v.#.#QtQtQtQtQtQtQtQtQtQtQtQt.z.z.L.L.zQt",
"QtQtQtQtQtQtQtQtQtQt.#.#.#QtQtQtQtQtQtQtQtQtQtQtQtQt.z.z.L.L.zQt",
"QtQtQtQtQtQtQtQtQtQtQtQtQtQtQtQtQtQtQtQtQtQtQtQtQtQt.z.z.L.L.zQt",
"QtQtQtQtQtQtQtQtQtQtQtQtQtQtQtQtQtQtQtQtQtQtQtQtQtQtQt.z.L.z.zQt",
"QtQtQtQtQtQtQtQtQtQtQtQtQtQtQtQtQtQtQtQtQtQtQtQtQtQtQt.z.z.zQtQt"};
