/* XPM */
static char *select_view[]={
"34 34 517 2",
".Q c None",
"Qt c None",
"ao c #000000",
"f2 c #00345b",
".v c #006b41",
".u c #009658",
"f4 c #013253",
"f3 c #013858",
".O c #016131",
"bt c #01943f",
"at c #020202",
"fU c #021c31",
"bz c #02283b",
"f1 c #02385d",
"bu c #02652c",
"fF c #031e33",
"f5 c #032e49",
"fK c #036397",
"fL c #036da6",
".N c #038a58",
".t c #03b173",
"aU c #040b06",
"bX c #040d07",
"fJ c #044570",
"d# c #046a9c",
"dz c #047bb5",
"bE c #051009",
"f6 c #05263b",
"f0 c #053e62",
"cK c #055d89",
"fo c #061824",
"fT c #063a5c",
"e# c #06734d",
"dM c #06804c",
"eu c #068055",
"dW c #0682be",
"es c #068455",
"d9 c #068756",
"cy c #069445",
"cj c #06a34b",
"a7 c #07180d",
"fV c #071827",
"aT c #071c0d",
"cQ c #071d2c",
"fM c #076fa5",
"aC c #077952",
"ap c #077d51",
"e. c #077d53",
"dp c #078151",
"cZ c #078547",
"ab c #078753",
"aq c #07875b",
"et c #07885b",
"ac c #078b5b",
"#V c #078d44",
"#W c #079151",
"c0 c #079251",
".M c #079464",
".K c #079759",
"#F c #079b4d",
"cz c #079c4e",
"cA c #079d51",
"#m c #079e51",
"ck c #07a254",
".3 c #07a255",
"cL c #08577e",
"dO c #086d49",
"dq c #08764d",
"ef c #0886c1",
"c1 c #088951",
"eQ c #088953",
"ar c #088959",
"ae c #088d5b",
"#0 c #088e5c",
"ad c #088e60",
"#q c #089162",
"#Z c #089163",
"#J c #089263",
"#X c #08935a",
"#Y c #08935f",
".7 c #089362",
".6 c #089363",
"#I c #089461",
"#p c #089462",
".L c #089661",
".5 c #089760",
"#H c #08985d",
"#o c #08985f",
"cl c #089954",
".4 c #089a5a",
"#G c #089b58",
"#n c #089c5b",
".2 c #08ae4d",
"f7 c #091826",
"aZ c #092413",
"bl c #092613",
"fn c #092d44",
"fZ c #093c5d",
".w c #095334",
"aD c #097e50",
"cB c #09814c",
"#K c #098e5b",
".J c #09c770",
"cw c #0a190f",
"fI c #0a3e60",
"cx c #0a8538",
"#r c #0a8e5b",
"ci c #0aa444",
"cX c #0b1c11",
"eJ c #0b2f46",
"fq c #0b5786",
"ev c #0b6a4f",
".8 c #0b8c56",
"cY c #0c1f12",
"dm c #0c2112",
"d. c #0c79ab",
"eR c #0c824d",
"fG c #0d1a22",
"cq c #0d1c25",
"e6 c #0d1c26",
"eB c #0d8eca",
"d8 c #0d9b73",
"dL c #0d9e6f",
"dN c #0e1d12",
"do c #0e2314",
"aP c #0e2a3b",
"aa c #0e3d1c",
"dy c #0e89c3",
"fv c #0e89c6",
"dl c #0e8a5a",
"fu c #0e8bc6",
"#l c #0ea244",
"cJ c #0f6a96",
"eP c #0f8265",
"eC c #0f87c1",
"ee c #0f90cd",
"bs c #0f9e35",
"gc c #10191d",
"ce c #102317",
"dF c #102a37",
"fY c #10334c",
"fN c #106fa3",
"e8 c #1070ab",
"eX c #108cc5",
"gb c #111a1f",
"f8 c #111a20",
"fr c #117eb9",
"e5 c #123b54",
"eW c #128fcb",
"dV c #1292cf",
"ga c #131b21",
"aj c #13313e",
"#C c #135628",
"#E c #139b3f",
"aH c #14252f",
"c9 c #1485b8",
"fd c #148ec9",
"eS c #156c4d",
"cI c #1575a1",
"dX c #1580b6",
"bL c #15824f",
"bc c #159256",
"fc c #1593d0",
"eA c #1596d5",
"b2 c #15a641",
"g# c #161e26",
"de c #163340",
"fs c #1681a8",
"ft c #1683af",
"bS c #172c35",
"dn c #173e24",
"fw c #178abe",
"fe c #178ec5",
"ch c #179f3d",
"g. c #182229",
".s c #18cbb1",
"eK c #191e1d",
"bh c #192a2c",
"eM c #198bcc",
"dx c #1997d3",
"ed c #199dda",
"fE c #1a4967",
"fO c #1a72a4",
"er c #1a9592",
"e9 c #1a97d9",
"dU c #1a9edc",
".H c #1ade6d",
"aO c #1b4b5d",
".b c #1b734b",
"eo c #1b89c7",
"f9 c #1c2930",
"fS c #1c547c",
"cH c #1c83b1",
"dg c #1c88b7",
"c8 c #1c94c9",
"#4 c #1d2b26",
"d4 c #1d79ac",
"dA c #1d7aac",
"eg c #1d86b8",
"df c #1e2324",
"bd c #1e926d",
".1 c #1ebc41",
".e c #1f8dba",
"ec c #1fa6e6",
"ew c #207a91",
".f c #2085b9",
"cC c #208c87",
"#u c #213023",
"bb c #218b2e",
"dw c #21a5e1",
"c. c #222a26",
"fb c #227992",
"bM c #22806d",
"fx c #2289bb",
".d c #2291bb",
"dT c #22aae8",
"eY c #238ec3",
"eb c #23a5bc",
"e7 c #245d7d",
".g c #2479b0",
".c c #248ba8",
"c2 c #248e93",
"ff c #248ec2",
"ez c #248fb4",
"cG c #2496c7",
"c7 c #24a0d8",
"eO c #24abe1",
"eN c #24b2f6",
"cm c #258c90",
"aG c #262e2a",
"#. c #26432e",
"cf c #26792d",
"cg c #268e35",
"aY c #276e27",
"fP c #2776a2",
"ea c #27adb9",
"dv c #27b1ef",
".I c #27cbaa",
"fp c #28526e",
".9 c #286c3c",
"dS c #28b3f5",
"bP c #295d74",
"fR c #29688f",
"da c #29749c",
"af c #298953",
"f. c #2998b1",
"dH c #29b6f0",
"fQ c #2a729b",
"ey c #2a8153",
"as c #2a8550",
"#1 c #2a8a53",
"eT c #2a99c6",
"dP c #2aa0bb",
"#k c #2aa23c",
"b1 c #2aa73e",
"b3 c #2ab586",
"d3 c #2b2b21",
"a3 c #2b3028",
"dG c #2b759c",
"eD c #2b8fbd",
"dR c #2bb8f6",
"ep c #2bbeff",
"aw c #2c3023",
"fX c #2c424a",
"eU c #2c90b2",
"ex c #2c95b2",
"c6 c #2cb1ea",
".P c #2d5742",
"a2 c #2d657a",
"eL c #2d6889",
"bv c #2d8794",
"cS c #2da4d1",
"du c #2dbefb",
"#O c #2e3f3d",
"eV c #2e6e67",
"f# c #2e784f",
"#L c #2e8a54",
"d5 c #2ebaf5",
"eq c #2ebfff",
"fy c #2f89b8",
"#D c #2f9839",
"cW c #2fa398",
"cF c #2faddc",
"em c #303f3f",
"d2 c #315a70",
"fa c #316747",
".i c #319765",
"bJ c #319f42",
"fm c #325f7d",
".h c #328487",
"dQ c #32c2f6",
"cM c #336a87",
"bg c #336f8a",
"c# c #338daf",
"fg c #3390be",
"ai c #345553",
"aX c #347625",
".a c #349421",
"dt c #34c6fe",
"#N c #354b33",
"dr c #35b3d2",
"d7 c #35c5f5",
"b4 c #35d0ac",
"el c #366682",
"#s c #368b54",
"c5 c #36c3f5",
"d6 c #36cbff",
"bY c #377b2a",
"bT c #3797ba",
"bA c #389ec6",
"aW c #396137",
"fz c #398bb6",
"b0 c #39a23b",
"b5 c #39bcb9",
"cE c #39c8f0",
"cr c #3a8bab",
".q c #3ad0ff",
"fD c #3b7091",
"dK c #3bc9f3",
".r c #3bcaff",
"c4 c #3bd1fc",
"bi c #3c9ec7",
"ds c #3cd1fd",
"dI c #3cd4ff",
"dh c #3cd7ff",
"en c #3d7495",
"bZ c #3d9133",
"eZ c #3d94c0",
"c3 c #3dd0fe",
"dJ c #3dd3fe",
"aV c #3e6625",
"b7 c #3e6778",
"cD c #3ed0fb",
"bw c #3f483c",
"bF c #3f7826",
"ba c #3f914d",
"bI c #40a637",
"cs c #40c3ec",
"fH c #41535d",
"bK c #41af93",
"by c #436776",
"b. c #437932",
".k c #438619",
"fh c #4393bd",
"dk c #43c2e2",
"di c #43d6ff",
"cP c #445052",
".l c #448921",
"fA c #448ab3",
"bO c #44c0e1",
"dE c #457593",
"bp c #46912a",
"a4 c #469bc1",
"bN c #46b2cb",
"bm c #477421",
"bG c #478d2e",
"bH c #479f37",
"dj c #48d6fb",
"cn c #496a7a",
"bR c #49788e",
"#j c #49aa3a",
"a8 c #4a7520",
"a9 c #4a7e24",
".j c #4a8229",
".p c #4ad5ff",
"#t c #4b7448",
"cT c #4cdbff",
"a1 c #4d6664",
".x c #4d7865",
"bn c #4d8226",
"fB c #4d8aac",
"aQ c #4d98b6",
"cN c #4e778f",
".z c #4e8b55",
"bo c #4e922d",
"fi c #4f94b9",
".m c #4fa484",
"a0 c #50583d",
"fC c #5085a6",
"bC c #50962a",
"e4 c #517d97",
"bD c #519628",
"b6 c #51d3f7",
"eh c #529ac0",
"cU c #52d7fd",
".o c #52d8ff",
"eI c #537d98",
"ag c #538353",
"be c #54573c",
"aM c #546244",
"db c #5485a2",
"dY c #5498be",
"e0 c #549bc0",
"fW c #555351",
"cp c #55686b",
"ak c #559eb8",
".0 c #55d764",
"#2 c #568655",
".Z c #56b43f",
"#M c #578554",
".S c #579e8b",
"cd c #57a9a7",
"#i c #57aa35",
"br c #57bc97",
"cV c #57d1f5",
"bQ c #588a9d",
"cR c #5890a5",
"eE c #589dbf",
"ca c #58d4fd",
"b9 c #597a85",
"bW c #599f84",
"aE c #5a6c48",
"fj c #5a92b5",
".n c #5ad3f6",
"#3 c #5b704c",
"dB c #5b94b5",
"bV c #5bb0a9",
"ct c #5cddff",
".G c #5ce2ec",
"cv c #5ecbe6",
"fl c #5f89a6",
"aN c #606046",
"dc c #6088a1",
"au c #61754e",
"cu c #61d9fa",
"ah c #627650",
"ay c #62b6d3",
"#a c #62bbd6",
"fk c #6394b1",
"e1 c #649abb",
".B c #64a599",
"#w c #64b0ca",
"dd c #658ca4",
"aI c #65a1b5",
"bB c #65c8c1",
".F c #65e0a3",
"#P c #67a2b5",
"d1 c #688da7",
".Y c #68ba35",
"bU c #68dbff",
"eF c #69a0be",
"bq c #6ab5a9",
"dC c #6b98b2",
"cb c #6be1ff",
"av c #6c7555",
".A c #6cbebd",
"aF c #6d704f",
"e2 c #6e9cb7",
"ei c #6ea1bf",
"dD c #6f93ab",
"dZ c #6fa0bd",
"b# c #6faab6",
"cc c #6fdaf5",
"bf c #707869",
".# c #70bc59",
"b8 c #719298",
"e3 c #7298b1",
"bk c #72bb2e",
".X c #73ba51",
"#6 c #73cee6",
"bj c #74d16a",
"eG c #759fb9",
".C c #76cedf",
"d0 c #779db7",
"bx c #786f58",
"ek c #789bb3",
"ej c #78a1b9",
"aJ c #79d1f1",
"eH c #7a9eb5",
"#h c #7acd4b",
"cO c #7b8e92",
".R c #7e997a",
".T c #7ee1ff",
"aB c #808000",
"#Q c #81dcf7",
".E c #81f6a4",
"#5 c #83a9b4",
"a6 c #85ca2b",
".V c #88e8ff",
"co c #89887d",
".y c #89a773",
"#g c #8acd98",
"#b c #8ae7ff",
".D c #8af2f0",
"aR c #8be2ca",
"#x c #8ce6ff",
".U c #8ceaff",
"a5 c #8dea88",
"#f c #8fcf82",
"ax c #93b3bc",
"al c #94ecff",
".W c #94ef97",
"#7 c #9bf1ff",
"#9 c #9db42c",
"#y c #a0f1ff",
"## c #a8bfc9",
"aL c #a9d018",
"#e c #a9e6c0",
"#c c #abefc0",
"aS c #acee2b",
"am c #aff6fd",
"#T c #b0be14",
"az c #b0f8e0",
"#v c #bacfd5",
"#d c #bdf065",
"a# c #c0c000",
"#R c #c1f7b9",
"#8 c #c2ec7f",
"aK c #c4f979",
"#B c #cce931",
"#z c #cef9a3",
"#A c #d4fb22",
"aA c #e8f83f",
"an c #eef83f",
"#S c #f2f928",
"a. c #ffff00",
"#U c #ffffc0",
"QtQtQtQtQtQtQtQtQtQtQtQtQtQtQtQtQtQtQtQtQtQtQtQtQtQtQtQtQtQtQtQtQtQt",
"QtQtQtQtQtQtQtQtQtQtQtQtQtQtQtQtQtQtQtQtQtQtQtQtQtQtQtQtQtQtQtQtQtQt",
"QtQtQtQtQtQtQtQtQtQtQtQtQtQtQtQtQtQtQtQtQtQtQtQtQtQtQtQtQtQtQtQtQtQt",
"QtQtQtQtQtQtQtQtQtQtQtQt.#.a.b.c.d.e.f.g.h.iQtQtQtQtQtQtQtQtQtQtQtQt",
"QtQtQtQtQtQtQtQtQtQt.j.k.l.m.n.o.p.q.r.s.t.u.v.w.xQtQtQtQtQtQtQtQtQt",
"QtQtQtQtQtQtQtQt.y.z.A.B.C.D.E.F.G.H.I.J.K.L.M.N.O.PQtQtQtQtQtQtQtQt",
"QtQtQtQtQtQt.Q.R.S.T.U.V.W.X.Y.Z.0.1.2.3.4.5.6.7.8.9#..QQtQtQtQtQtQt",
"QtQtQtQtQtQt###a#b#c#d#e#f#g#h#i#j#k#l#m#n#o#p#q#r#s#t#uQtQtQtQtQtQt",
"QtQtQtQtQt#v#w#x#y#z#A#B#C#C#C#C#C#D#E#F#G#H#I#J#K#L#M#N#OQtQtQtQtQt",
"QtQtQtQtQt#P#Q#R#S#T#C#C#U#U#U#U#U#C#C#V#W#X#Y#Z#0#1#2#3#4QtQtQtQtQt",
"QtQtQtQt#5#6#7#8#9#C#Ua.a#a.a#a.a.a.#UaaaaabacadaeafagahaiajQtQtQtQt",
"QtQtQtQtakalaman#Ca.a.a#a#a#a#a#a#a#a.a.#UaoapaqarasatauavawQtQtQtQt",
"QtQtQtaxayazaA#Ca.a.a#a#a#aBaBaBaBa#a#a#a.#UaoaCaDaaaoaEaFaGaHQtQtQt",
"QtQtQtaIaJaKaL#Ca.a#aBaBaBaoaoaoaoaBaBa#a#a.#Uaoaa#UaoaMaNaOaPQtQtQt",
"QtQtQtaQaRaSaaa.a#aBaBaTaUaVaWaXaYaZaoaBaBa#a.#U#U#Uaoa0a1a2a3QtQtQt",
"QtQtQta4a5a6aaa#a#aBa7a8a9b.b#babbbcbdaoaBaBa#a.a.#UaobebfbgbhQtQtQt",
"QtQtQtbibjbkaaa#aBblbmbnbobpbqbrbsbtbubvaoaBa#a.a.#UaobwbxbybzQtQtQt",
"QtQtQtbAbBbCbDaaaBbEbFbGbHbIbJbKbLbMbNbOaaaBa#a#a#a.aobPbQbRbSQtQtQt",
"QtQtQtbTbUbVbWaoaBbXbYbZb0b1b2b3b4b5b6aaaBaBaBaBaBa#aob7b8b9c.QtQtQt",
"QtQtQtc#cacbcccdaacecfcgchcicjckclcmataoaoaoaoaoaoaoaocncocpcqQtQtQt",
"QtQtQtcrcsctcucvaUaacwcxcyczcAcBcCcDcEcFcGcHcIcJcKcLcMcNcOcPcQQtQtQt",
"QtQtQtcRcScTcUcVcWcXaacYcZc0c1c2c3c4c5c6c7c8c9d.d#dadbdcdddedfQtQtQt",
"QtQtQtQtdgdhdidjdkdldmdndodpdqdrdsdtdudvdwdxdydzdAdBdCdDdEdFQtQtQtQt",
"QtQtQtQtdGdHdIdJdKdLdMaoaadNdOdPdQdRdSdTdUdVdWdXdYdZd0d1d2d3QtQtQtQt",
"QtQtQtQtQtd4d5d6d7d8d9e.e#aoaoaoeaebecedeeefegeheiejekelemQtQtQtQtQt",
"QtQtQtQtQteneoepeqereseteuevewexeyezeAeBeCeDeEeFeGeHeIeJeKQtQtQtQtQt",
"QtQtQtQtQtQteLeMeNeOePeQeReSeTeUeVeWeXeYeZe0e1e2e3e4e5e6QtQtQtQtQtQt",
"QtQtQtQtQtQt.Qe7e8e9f.f#fafbfcfdfefffgfhfifjfkflfmfnfo.QQtQtQtQtQtQt",
"QtQtQtQtQtQtQtQtfpfqfrfsftfufvfwfxfyfzfAfBfCfDfEfFfGQtQtQtQtQtQtQtQt",
"QtQtQtQtQtQtQtQtQtfHfIfJfKfLfMfNfOfPfQfRfSfTfUfVQtQtQtQtQtQtQtQtQtQt",
"QtQtQtQtQtQtQtQtQtQtfWfXfYfZf0f1f2f3f4f5f6f7f8QtQtQtQtQtQtQtQtQtQtQt",
"QtQtQtQtQtQtQtQtQtQtQtQtQtQtf9g.g#gagbgcQtQtQtQtQtQtQtQtQtQtQtQtQtQt",
"QtQtQtQtQtQtQtQtQtQtQtQtQtQtQtQtQtQtQtQtQtQtQtQtQtQtQtQtQtQtQtQtQtQt",
"QtQtQtQtQtQtQtQtQtQtQtQtQtQtQtQtQtQtQtQtQtQtQtQtQtQtQtQtQtQtQtQtQtQt"};
