/* XPM */
static char * show_user_flag04_xpm[] = {
"32 32 142 2",
"  	c None",
". 	c #000000",
"+ 	c #00FFFF",
"@ 	c #02FDFD",
"# 	c #46C7C5",
"$ 	c #819A94",
"% 	c #888C87",
"& 	c #809993",
"* 	c #45C6C4",
"= 	c #01FFFF",
"- 	c #6FA9A5",
"; 	c #C0C7C5",
"> 	c #FCFCFB",
", 	c #FFFFFF",
"' 	c #F9F9F9",
") 	c #B8C0BD",
"! 	c #6CA6A2",
"~ 	c #30D7D5",
"{ 	c #777874",
"] 	c #898B86",
"^ 	c #888A84",
"/ 	c #8D8F8A",
"( 	c #898986",
"_ 	c #3FCDCB",
": 	c #BDC7C5",
"< 	c #FCFCFC",
"[ 	c #9BA19E",
"} 	c #A6ADA9",
"| 	c #F6F6F6",
"1 	c #EFF0EF",
"2 	c #A1A39E",
"3 	c #898B88",
"4 	c #809A96",
"5 	c #A6BBD4",
"6 	c #547CAF",
"7 	c #587DAD",
"8 	c #F5F8FB",
"9 	c #D5D6D4",
"0 	c #ACADAA",
"a 	c #FBFBFB",
"b 	c #9B9D99",
"c 	c #8A8A86",
"d 	c #888D88",
"e 	c #FAFBFD",
"f 	c #6085B4",
"g 	c #D3D4D5",
"h 	c #294971",
"i 	c #ABBFD9",
"j 	c #A1A29F",
"k 	c #C5D3E5",
"l 	c #5179AD",
"m 	c #416DA4",
"n 	c #C9D6E6",
"o 	c #F0F0EF",
"p 	c #E3E4E3",
"q 	c #8C8F88",
"r 	c #7F9995",
"s 	c #FAFAFA",
"t 	c #4B73A7",
"u 	c #203B5D",
"v 	c #386196",
"w 	c #C8D6E5",
"x 	c #8B8E88",
"y 	c #567CAE",
"z 	c #3A4350",
"A 	c #446EA4",
"B 	c #E7E8E6",
"C 	c #F9FAF9",
"D 	c #8A8C87",
"E 	c #3E3E3C",
"F 	c #B5B6B3",
"G 	c #E4EAF1",
"H 	c #92ABCB",
"I 	c #B4C4D7",
"J 	c #E7E9E7",
"K 	c #8C8E89",
"L 	c #3F6BA4",
"M 	c #3E454E",
"N 	c #0E1825",
"O 	c #426DA4",
"P 	c #E0E2DF",
"Q 	c #F8F9F8",
"R 	c #858782",
"S 	c #8A8D88",
"T 	c #B5B7B3",
"U 	c #F4F4F3",
"V 	c #FDFDFD",
"W 	c #F1F2F1",
"X 	c #969894",
"Y 	c #C0CFE2",
"Z 	c #3D6AA3",
"` 	c #C2D0E1",
" .	c #E7E8E5",
"..	c #E3E4E2",
"+.	c #DFE1DE",
"@.	c #A66E6A",
"#.	c #FF0000",
"$.	c #808080",
"%.	c #454644",
"&.	c #7E807B",
"*.	c #878984",
"=.	c #575855",
"-.	c #999A95",
";.	c #F3F4F3",
">.	c #EBECEA",
",.	c #E2E4E1",
"'.	c #E6E7E5",
").	c #F6F7F6",
"!.	c #9C928F",
"~.	c #E3201F",
"{.	c #BF4D4A",
"].	c #A39A96",
"^.	c #E1E3E0",
"/.	c #9F9692",
"(.	c #C34946",
"_.	c #DA2B2A",
":.	c #A3716D",
"<.	c #8D8883",
"[.	c #8C8782",
"}.	c #A46F6C",
"|.	c #DC2927",
"1.	c #2E0004",
"2.	c #003333",
"3.	c #F00F0F",
"4.	c #1FE0E0",
"5.	c #004848",
"6.	c #00FBFB",
"7.	c #A75858",
"8.	c #00A7A7",
"9.	c #00F5F5",
"0.	c #E01F1F",
"a.	c #00AFAF",
"b.	c #008888",
"c.	c #006C6C",
"d.	c #005252",
"e.	c #004A4A",
"f.	c #00FEFE",
"g.	c #008282",
"h.	c #004242",
"i.	c #007070",
"j.	c #00ACAC",
"k.	c #00E8E8",
"                                                                ",
"                                                                ",
"                    . . . . . . . .                             ",
"  . .           . . . + + + + + + . . . .                       ",
"  . . . . . . . . + + + + + + + + + . . .                       ",
"    . . + + + + + @ # $ % & * @ + + . .                         ",
"      . . + + + = - ; > , ' ) ! ~ { ] ^ / (                     ",
"        . . . + _ : , , , , < [ } | , , 1 2 3                   ",
"          . . + 4 > 5 6 7 8 9 0 , , , , < a b c                 ",
"      . . . + + d e f g h i j | k l m n , o p q                 ",
"  . . . + + + + r s t u v w x , y , z A , B C D                 ",
"    . . . + + . E F G H I J K , L M N O s P Q R . . .           ",
"        . . . . , S T U V W X 1 Y Z Z `  ...+.@.#.#.. . . .     ",
"                  $.%.&.*.&.=.-.> ;.>.,.'.).!.~.#.#.#.. . .     ",
"                      . . #.#.{.].B s Q ^./.(.#.#.#.#.. .       ",
"                        . . #.#._.:.<.[.}.|.#.#.#.#.. . .       ",
"                          . . . #.#.#.#.#.#.#.#.#.#.. .         ",
"                        1.. . . #.#.#.#.#.#.#.#.#.. . .         ",
"              + + + + + 2.. . #.#.#.#.#.#.3.4.+ + + 5.          ",
"            + + + + + + 6.7.#.#.#.#.. . . 8.+ + + + 5.          ",
"          + + + +   + + + 9.0.#.. . .     + + + + +             ",
"        + + + +       a.+ + b.. .       + +   + + +             ",
"        + + +       . c.+ + +         + + + . + + +             ",
"        + + +       . d.+ + +       + + +   . + + +             ",
"        + + +     . . e.+ + +       + +   . . + + +             ",
"        + + +     . .   + + +     + + +   . . + + +             ",
"        + + +   . . .   + + +     + + + + + + + + + + +         ",
"        + + + + . .   + + + +     + + + + + + + + + + +         ",
"          + + f.g.h.+ + + +           i.i.i.  + + + +           ",
"            + + + + + + +             . .     + + +             ",
"              j.k.+ + +             . . .     + + +             ",
"              . .                   . .                         "};
