/* XPM */
static char *show_user_flag[]={
"32 32 124 2",
".h c None",
"Qt c None",
"#s c #ffffff",
"#H c #808080",
".O c #8a8a86",
".v c #898986",
".E c #898b88",
"#t c #8a8d88",
".2 c #8c8f88",
".u c #8d8f8a",
".N c #9b9d99",
".D c #a1a39e",
"#d c #8a8c87",
"#y c #969894",
".# c #000000",
".a c #00ffff",
".i c #01ffff",
".b c #02fdfd",
"#n c #0e1825",
".6 c #203b5d",
".T c #294971",
"#5 c #2e0004",
".q c #30d7d5",
".7 c #386196",
"## c #3a4350",
"#A c #3d6aa3",
"#e c #3e3e3c",
"#m c #3e454e",
"#l c #3f6ba4",
".w c #3fcdcb",
".Y c #416da4",
"#o c #426da4",
"#a c #446ea4",
"#I c #454644",
".g c #45c6c4",
".c c #46c7c5",
".5 c #4b73a7",
".X c #5179ad",
".H c #547caf",
"#. c #567cae",
"#L c #575855",
".I c #587dad",
".R c #6085b4",
".p c #6ca6a2",
".j c #6fa9a5",
".r c #777874",
"#J c #7e807b",
".3 c #7f9995",
".f c #809993",
".F c #809a96",
".d c #819a94",
"#r c #858782",
"#K c #878984",
".t c #888a84",
".e c #888c87",
".P c #888d88",
".s c #898b86",
".9 c #8b8e88",
"#2 c #8c8782",
"#k c #8c8e89",
"#1 c #8d8883",
"#h c #92abcb",
"#M c #999a95",
".z c #9ba19e",
"#S c #9c928f",
"#X c #9f9692",
".V c #a1a29f",
"#0 c #a3716d",
"#V c #a39a96",
"#3 c #a46f6c",
"#F c #a66e6a",
".A c #a6ada9",
".G c #a6bbd4",
".U c #abbfd9",
".L c #acadaa",
"#i c #b4c4d7",
"#f c #b5b6b3",
"#u c #b5b7b3",
".o c #b8c0bd",
".x c #bdc7c5",
"#U c #bf4d4a",
".k c #c0c7c5",
"#z c #c0cfe2",
"#B c #c2d0e1",
"#Y c #c34946",
".W c #c5d3e5",
".8 c #c8d6e5",
".Z c #c9d6e6",
".S c #d3d4d5",
".K c #d5d6d4",
"#Z c #da2b2a",
"#4 c #dc2927",
"#E c #dfe1de",
"#p c #e0e2df",
"#W c #e1e3e0",
"#P c #e2e4e1",
"#T c #e3201f",
"#D c #e3e4e2",
".1 c #e3e4e3",
"#g c #e4eaf1",
"#Q c #e6e7e5",
"#C c #e7e8e5",
"#b c #e7e8e6",
"#j c #e7e9e7",
"#O c #ebecea",
".C c #eff0ef",
".0 c #f0f0ef",
"#x c #f1f2f1",
"#N c #f3f4f3",
"#v c #f4f4f3",
".J c #f5f8fb",
".B c #f6f6f6",
"#R c #f6f7f6",
"#q c #f8f9f8",
".n c #f9f9f9",
"#c c #f9faf9",
".4 c #fafafa",
".Q c #fafbfd",
".M c #fbfbfb",
".l c #fcfcfb",
".y c #fcfcfc",
"#w c #fdfdfd",
"#G c #ff0000",
".m c #ffffff",
"QtQtQtQtQtQtQtQtQtQtQtQtQtQtQtQtQtQtQtQtQtQtQtQtQtQtQtQtQtQtQtQt",
"QtQtQtQtQtQtQtQtQtQtQtQtQtQtQtQtQtQtQtQtQtQtQtQtQtQtQtQtQtQtQtQt",
"QtQtQtQtQtQtQtQtQtQt.#.#.#.#.#.#.#.#QtQtQtQtQtQtQtQtQtQtQtQtQtQt",
"Qt.#.#QtQtQtQtQt.#.#.#.a.a.a.a.a.a.#.#.#.#QtQtQtQtQtQtQtQtQtQtQt",
"Qt.#.#.#.#.#.#.#.#.a.a.a.a.a.a.a.a.a.#.#.#QtQtQtQtQtQtQtQtQtQtQt",
"QtQt.#.#.a.a.a.a.a.b.c.d.e.f.g.b.a.a.#.#.h.h.h.hQtQtQtQtQtQtQtQt",
"QtQtQt.#.#.a.a.a.i.j.k.l.m.n.o.p.q.r.s.t.u.v.h.hQtQtQtQtQtQtQtQt",
"QtQtQtQt.#.#.#.a.w.x.m.m.m.m.y.z.A.B.m.m.C.D.E.hQtQtQtQtQtQtQtQt",
"QtQtQtQtQt.#.#.a.F.l.G.H.I.J.K.L.m.m.m.m.y.M.N.OQtQtQtQtQtQtQtQt",
"QtQtQt.#.#.#.a.a.P.Q.R.S.T.U.V.B.W.X.Y.Z.m.0.1.2QtQtQtQtQtQtQtQt",
"Qt.#.#.#.a.a.a.a.3.4.5.6.7.8.9.m#..m###a.m#b#c#dQtQtQtQtQtQtQtQt",
"QtQt.#.#.#.a.a.##e#f#g#h#i#j#k.m#l#m#n#o.4#p#q#r.#.#.#QtQtQtQtQt",
"QtQtQtQt.#.#.#.##s#t#u#v#w#x#y.C#z#A#A#B#C#D#E#F#G#G.#.#.#.#QtQt",
"QtQtQtQtQtQtQtQt.h#H#I#J#K#J#L#M.l#N#O#P#Q#R#S#T#G#G#G.#.#.#QtQt",
"QtQtQtQtQtQtQtQt.h.h.h.#.##G#G#U#V#b.4#q#W#X#Y#G#G#G#G.#.#QtQtQt",
"QtQtQtQtQtQtQtQt.h.h.h.h.#.##G#G#Z#0#1#2#3#4#G#G#G#G.#.#.#QtQtQt",
"QtQtQtQtQtQtQtQtQtQtQtQtQt.#.#.##G#G#G#G#G#G#G#G#G#G.#.#QtQtQtQt",
"QtQtQtQtQtQtQtQtQtQtQtQt#5.#.#.##G#G#G#G#G#G#G#G#G.#.#.#QtQtQtQt",
"QtQtQtQtQtQtQtQtQtQtQtQt.#.#.##G#G#G#G#G#G#G#G#G#G.#.#QtQtQtQtQt",
"QtQtQtQtQtQtQtQtQtQt.#.#.##G#G#G#G#G.#.#.#.#.#.#.#.#.#QtQtQtQtQt",
"QtQtQtQtQtQtQtQtQtQtQt.#.#.##G#G.#.#.#QtQtQtQt.#.#.#QtQtQtQtQtQt",
"QtQtQtQtQtQtQtQtQtQtQt.#Qt.#.#.#.#QtQtQtQtQtQt.#.#.#QtQtQtQtQtQt",
"QtQtQtQtQtQtQtQtQtQt.#.#QtQtQtQtQtQtQtQtQtQt.#.#.#QtQtQtQtQtQtQt",
"QtQtQtQtQtQtQtQtQtQt.#.#QtQtQtQtQtQtQtQtQtQt.#.#.#QtQtQtQtQtQtQt",
"QtQtQtQtQtQtQtQtQt.#.#.#QtQtQtQtQtQtQtQtQt.#.#.#QtQtQtQtQtQtQtQt",
"QtQtQtQtQtQtQtQtQt.#.#QtQtQtQtQtQtQtQtQtQt.#.#QtQtQtQtQtQtQtQtQt",
"QtQtQtQtQtQtQtQt.#.#.#QtQtQtQtQtQtQtQtQt.#.#.#QtQtQtQtQtQtQtQtQt",
"QtQtQtQtQtQtQtQt.#.#QtQtQtQtQtQtQtQtQtQt.#.#QtQtQtQtQtQtQtQtQtQt",
"QtQtQtQtQtQtQt.#.#.#QtQtQtQtQtQtQtQtQt.#.#.#QtQtQtQtQtQtQtQtQtQt",
"QtQtQtQtQtQtQt.#.#.#QtQtQtQtQtQtQtQtQt.#.#QtQtQtQtQtQtQtQtQtQtQt",
"QtQtQtQtQtQtQt.#.#QtQtQtQtQtQtQtQtQt.#.#.#QtQtQtQtQtQtQtQtQtQtQt",
"QtQtQtQtQtQtQt.#.#QtQtQtQtQtQtQtQtQt.#.#QtQtQtQtQtQtQtQtQtQtQtQt"};
