/* XPM */
static char *south_view[]={
"34 34 479 2",
"Qt c None",
"fq c #00345b",
".v c #006b41",
".u c #009658",
"fs c #013253",
"fr c #013858",
".O c #016131",
"fi c #021c31",
"bO c #02283b",
"fp c #02385d",
"e5 c #031e33",
"ft c #032e49",
"f. c #036397",
"f# c #036da6",
".N c #038a58",
".t c #03b173",
"e9 c #044570",
"dD c #0481bd",
"fu c #05263b",
"fo c #053e62",
"dl c #057db7",
"bn c #058c58",
"eV c #061824",
"fh c #063a5c",
"dT c #0683bf",
"ej c #068857",
"dd c #069e49",
"de c #06a14f",
"fj c #071827",
"c8 c #071d2c",
"fa c #076fa5",
"c2 c #0785c3",
"a4 c #07915e",
"a5 c #079160",
"ek c #079261",
"d6 c #07935d",
".M c #079464",
".K c #079759",
"dQ c #07985b",
"dy c #079c58",
"#j c #079f52",
"cY c #07a151",
"df c #07a152",
".2 c #07a255",
"cX c #07a34c",
"d8 c #0886c1",
"bH c #088855",
"ez c #088b54",
"#V c #088e5c",
"d7 c #088f5f",
"#n c #089162",
"#F c #089263",
".6 c #089362",
".5 c #089363",
"#E c #089461",
"#m c #089462",
"#U c #089561",
".L c #089661",
".4 c #089760",
"#l c #08985f",
"dR c #089861",
"#D c #08995e",
".3 c #089a5a",
"dz c #089a5d",
"dA c #089a60",
"#k c #089c5b",
"#C c #089d59",
"dh c #089e58",
"dg c #089f55",
".1 c #08ae4d",
"fv c #091826",
"eU c #092d44",
"fn c #093c5d",
".w c #095334",
"a3 c #097f54",
"#G c #098e5b",
".J c #09c770",
"e8 c #0a3e60",
"cI c #0a7eb2",
"ax c #0a8d5a",
"#o c #0a8e5b",
"cD c #0aa645",
"es c #0b2f46",
"eX c #0b5786",
"c3 c #0b7bb3",
".7 c #0b8c56",
"aL c #0b8e58",
"bm c #0c7c5b",
"cW c #0ca646",
"e6 c #0d1a22",
"cN c #0d1c25",
"eI c #0d1c26",
"co c #0d7cae",
"el c #0d7e5e",
"eA c #0d8750",
"d5 c #0d9f76",
"aR c #0e2a3b",
"e1 c #0e8bc6",
"dk c #0e8ec9",
"dP c #0eab78",
"ey c #0f8365",
"a6 c #0f8b53",
"dC c #0f8fcc",
"fC c #10191d",
"dJ c #102a37",
"fm c #10334c",
"fb c #106fa3",
"eK c #1070ab",
"fB c #111a1f",
"fw c #111a20",
"eY c #117eb9",
"dx c #11a36a",
"cV c #11a644",
"eH c #123b54",
"dS c #1293d0",
"fA c #131b21",
"ab c #13313e",
"b4 c #1395d3",
"aD c #14252f",
"cU c #14a63d",
"dU c #1581b7",
"c1 c #1597d5",
"fz c #161e26",
"dq c #163340",
"eB c #167453",
"eZ c #1681a8",
"e0 c #1683af",
"b9 c #172c35",
"bo c #177c4c",
"cH c #1785b0",
"cn c #1785b2",
"fy c #182229",
"dj c #189cd8",
"cC c #18a841",
".s c #18cbb1",
"et c #191e1d",
"bu c #192a2c",
"ev c #198bcc",
"bJ c #1993c8",
"e4 c #1a4967",
"fc c #1a72a4",
"b5 c #1a7ca0",
"ei c #1a9693",
"eL c #1a97d9",
"dB c #1a9edc",
".H c #1ade6d",
"aQ c #1b4b5d",
".b c #1b734b",
"ef c #1b89c7",
"fx c #1c2930",
"fg c #1c547c",
"ds c #1c88b7",
"cG c #1ca1e0",
"#Z c #1d2b26",
"d1 c #1d79ac",
"d9 c #1d86b8",
"dr c #1e2324",
"dE c #1e80b4",
"c0 c #1ea5e3",
"bI c #1f674b",
".e c #1f8dba",
".f c #2085b9",
"#r c #213023",
"b2 c #219076",
"di c #21acea",
"cs c #222a26",
".d c #2291bb",
"bG c #229eb7",
"eP c #237b94",
"cF c #23afee",
"eJ c #245d7d",
".g c #2479b0",
".c c #248ba8",
"ex c #24abe1",
"ew c #24b2f6",
"bp c #25727e",
"cJ c #2583b4",
"aC c #262e2a",
".9 c #26432e",
"bK c #2683a0",
"fd c #2776a2",
"cZ c #27b3f3",
".I c #27cbaa",
"eW c #28526e",
".8 c #286c3c",
"ck c #28b5f7",
"ff c #29688f",
"#9 c #298a53",
"eM c #2998b1",
"dL c #29b6f0",
"fe c #2a729b",
"#W c #2a8a53",
"d0 c #2b2b21",
"ba c #2b3028",
"dK c #2b759c",
"ak c #2b8953",
"em c #2b8fbd",
"cl c #2b97a8",
"ci c #2baa3f",
"eg c #2bbeff",
"ao c #2c3023",
"fl c #2c424a",
"cE c #2cbbfb",
".P c #2d5742",
"b# c #2d657a",
"eu c #2d6889",
"d. c #2da4d1",
"bl c #2da9c2",
"cB c #2daa3f",
"b1 c #2dbbf6",
"#K c #2e3f3d",
"eN c #2e784f",
"#H c #2e8a54",
"d2 c #2ebaf5",
"eh c #2ebfff",
"b3 c #2f6c59",
"cT c #2fb36f",
".0 c #303030",
"ed c #303f3f",
"dm c #3088b6",
"dZ c #315a70",
"eO c #316848",
"ay c #318953",
".i c #319765",
"cj c #31c4ff",
"eT c #325f7d",
".h c #328487",
"bt c #336f8a",
"ct c #338daf",
"aa c #345553",
"bq c #347980",
".a c #349421",
"#J c #354b33",
"dc c #35b9ad",
"d4 c #35c7f7",
"ec c #366682",
"#p c #368b54",
"cA c #36ab3f",
"d3 c #36cbff",
"c. c #3797ba",
"b0 c #37caff",
"bP c #389ec6",
"a7 c #397549",
"b6 c #3a84a5",
"aM c #3a8954",
"cO c #3a8bab",
"cy c #3a9d3e",
".q c #3ad0ff",
"cm c #3b664a",
"e3 c #3b7091",
".r c #3bcaff",
"bF c #3bd1ff",
"bv c #3c9ec7",
"dM c #3cd4ff",
"dt c #3cd7ff",
"ee c #3d7495",
"cz c #3dac3d",
"ch c #3dac3f",
"dO c #3dcffa",
"dN c #3dd4ff",
"cP c #40c3ec",
"e7 c #41535d",
"bN c #436776",
".k c #438619",
"bZ c #43ae3a",
"du c #43d6ff",
"c7 c #445052",
".l c #448921",
"dI c #457593",
"c4 c #4690b8",
"bb c #469bc1",
"dw c #48d0f2",
"b8 c #49788e",
"cg c #49ae3d",
"dv c #49d9ff",
".j c #4a8229",
".p c #4ad5ff",
"#q c #4b7448",
"d# c #4cdbff",
"b. c #4d6664",
".x c #4d7865",
"aS c #4d98b6",
".z c #4e8b55",
".m c #4fa484",
"cf c #4fb03c",
"bY c #4fb13d",
"a8 c #50704b",
"e2 c #5085a6",
"bR c #50962a",
"bE c #50a630",
"eG c #517d97",
"e. c #529ac0",
"cc c #52a149",
"cd c #52ae35",
".o c #52d8ff",
"er c #537d98",
"da c #53d9ff",
"a. c #548554",
"eC c #549bc0",
"ce c #54b33b",
"fk c #555351",
"cM c #55686b",
"al c #558354",
"dV c #5599bf",
"ac c #559eb8",
".Z c #55d864",
"#X c #568655",
".Y c #56b53f",
"az c #578354",
"#I c #578554",
".R c #579e8b",
"b7 c #588a9d",
"c9 c #5890a5",
"cp c #5892aa",
"en c #589dbf",
"cu c #58d4fd",
"cr c #597a85",
"bL c #5a6756",
"eQ c #5a92b5",
"bX c #5ab33a",
".n c #5ad3f6",
"#Y c #5b704c",
"aN c #5b8354",
"bk c #5ba344",
"bS c #5ba82d",
"ca c #5bb0a9",
"#h c #5bb137",
"db c #5bdaff",
"cQ c #5cddff",
".G c #5ce2ec",
"eS c #5f89a6",
"dF c #5f9bbd",
"bW c #5fb439",
"aP c #606046",
"cb c #60ac8f",
"c5 c #6195b3",
"dn c #619abb",
"aq c #62b6d3",
"bD c #62b738",
"## c #62bbd6",
"cK c #6390a7",
"eR c #6394b1",
"a2 c #63a33b",
"bT c #63b434",
"cR c #63ddff",
"a# c #647851",
"eD c #649abb",
".B c #64a599",
"#t c #64b0ca",
"bV c #64b739",
"cx c #64c1bf",
"dp c #658ca4",
"aE c #65a1b5",
"bQ c #65c8c1",
".F c #65e0a3",
"bU c #66b937",
"cS c #66dbf8",
"am c #677c53",
"#L c #67a2b5",
"aA c #687d54",
"dY c #688ea8",
".X c #68bb35",
"c# c #68dbff",
"eo c #69a0be",
"do c #6a97b2",
"aO c #6b7d57",
"cv c #6be1ff",
"an c #6c7555",
".A c #6cbebd",
"aB c #6d704f",
"a9 c #6d7954",
"bC c #6db936",
"bj c #6dba35",
"eE c #6e9cb7",
"e# c #6ea1bf",
"dG c #6f9eb9",
"dW c #6fa1be",
"bs c #707869",
".# c #70bc59",
"cq c #719298",
"dH c #7297b0",
"eF c #7298b1",
"bx c #72bb2e",
".W c #73ba51",
"bB c #73bb35",
"#1 c #73cee6",
"bw c #74d16a",
"cw c #74e3ff",
"ep c #759fb9",
"br c #767a55",
".C c #76cedf",
"dX c #779eb8",
"#T c #77af29",
"by c #77bd34",
"bM c #786f58",
"eb c #789bb3",
"ea c #78a1b9",
"bA c #78bc33",
"bi c #78bd33",
"bz c #79be33",
"aF c #79d1f1",
"eq c #7a9eb5",
"a1 c #7abf2c",
"c6 c #7b8e92",
"#B c #7cc934",
".Q c #7e997a",
"#7 c #7ea26d",
"bh c #7ebf31",
"#g c #7ed54e",
".S c #7ee1ff",
"#M c #81dcf7",
".E c #81f6a4",
"be c #82bf2e",
"#0 c #83a9b4",
"bg c #84c12f",
"bd c #85ca2b",
"bf c #86c22e",
"a0 c #87c629",
".U c #88e8ff",
"cL c #89887d",
".y c #89a773",
"#a c #8ae7ff",
".D c #8af2f0",
"aT c #8be2ca",
"#Q c #8ca80a",
"aZ c #8cc528",
"#u c #8ce6ff",
".T c #8ceaff",
"#8 c #8dc12a",
"bc c #8dea88",
"#R c #8eb516",
"#f c #8ed39c",
"aV c #90c425",
"#S c #91c722",
"#e c #91d284",
"ap c #93b3bc",
"aY c #93c726",
"ad c #94ecff",
".V c #94ef97",
"aW c #95c726",
"aX c #95c826",
"#6 c #9bc8af",
"#2 c #9bf1ff",
"#v c #a0f1ff",
"#4 c #a1b92d",
"aI c #a1cc1a",
"aJ c #a3ce1b",
"aK c #a3d640",
"av c #a6ca0e",
"#. c #a8bfc9",
"#5 c #a9dbd9",
"#d c #aae8c2",
"#b c #abefc0",
"aU c #acee2b",
"aw c #aed99f",
"#A c #aeeb44",
"#z c #aeec43",
"au c #afd109",
"aH c #b0d819",
"ae c #b0f7fe",
"ar c #b0f8e0",
"aj c #b3e4e2",
"#P c #b4c314",
"ai c #b9e8d7",
"#s c #bacfd5",
"at c #bcdd06",
"#c c #bdf065",
"#N c #c1f7b9",
"#3 c #c3ed80",
"aG c #c4f979",
"#w c #cffaa4",
"#y c #d4f233",
"ah c #d6ff65",
"#x c #d7ff23",
"as c #ecfc40",
"ag c #eefb21",
"#O c #f3fa28",
"af c #f5ff41",
"#i c #ffff00",
"QtQtQtQtQtQtQtQtQtQtQtQtQtQtQtQtQtQtQtQtQtQtQtQtQtQtQtQtQtQtQtQtQtQt",
"QtQtQtQtQtQtQtQtQtQtQtQtQtQtQtQtQtQtQtQtQtQtQtQtQtQtQtQtQtQtQtQtQtQt",
"QtQtQtQtQtQtQtQtQtQtQtQtQtQtQtQtQtQtQtQtQtQtQtQtQtQtQtQtQtQtQtQtQtQt",
"QtQtQtQtQtQtQtQtQtQtQtQt.#.a.b.c.d.e.f.g.h.iQtQtQtQtQtQtQtQtQtQtQtQt",
"QtQtQtQtQtQtQtQtQtQt.j.k.l.m.n.o.p.q.r.s.t.u.v.w.xQtQtQtQtQtQtQtQtQt",
"QtQtQtQtQtQtQtQt.y.z.A.B.C.D.E.F.G.H.I.J.K.L.M.N.O.PQtQtQtQtQtQtQtQt",
"QtQtQtQtQtQtQt.Q.R.S.T.U.V.W.X.Y.Z.0.1.2.3.4.5.6.7.8.9QtQtQtQtQtQtQt",
"QtQtQtQtQtQt#.###a#b#c#d#e#f#g#h.0#i.0#j#k#l#m#n#o#p#q#rQtQtQtQtQtQt",
"QtQtQtQtQt#s#t#u#v#w#x#y#z#A#B.0#i#i#i.0#C#D#E#F#G#H#I#J#KQtQtQtQtQt",
"QtQtQtQtQt#L#M#N#O#P#Q#R#S#T.0#i#i#i#i#i.0#D#U#F#V#W#X#Y#ZQtQtQtQtQt",
"QtQtQtQt#0#1#2#3#4#5#6#7#8.0#i#i#i#i#i#i#i.0#U#F#V#9a.a#aaabQtQtQtQt",
"QtQtQtQtacadaeafagahaiaj.0#i#i#i#i#i#i#i#i#i.0#F#VakalamanaoQtQtQtQt",
"QtQtQtapaqarasatauavaw.0#i#i#i#i#i#i#i#i#i#i#i.0axayazaAaBaCaDQtQtQt",
"QtQtQtaEaFaGaHaIaJaIaK.0.0.0.0#i#i#i#i#i.0.0.0.0aLaMaNaOaPaQaRQtQtQt",
"QtQtQtaSaTaUaVaWaXaYaZa0a1a2.0#i#i#i#i#i.0a3a4a5a6a7a8a9b.b#baQtQtQt",
"QtQtQtbbbcbdbebfbfbgbhbibjbk.0#i#i#i#i#i.0blbmbnbobpbqbrbsbtbuQtQtQt",
"QtQtQtbvbwbxbybzbibAbBbCbDbE.0#i#i#i#i#i.0bFbGbHbIbJbKbLbMbNbOQtQtQt",
"QtQtQtbPbQbRbSbTbUbVbWbXbYbZ.0#i#i#i#i#i.0b0b1b2b3b4b5b6b7b8b9QtQtQt",
"QtQtQtc.c#cacbcccdcecfcgchci.0#i#i#i#i#i.0cjckclcmcncocpcqcrcsQtQtQt",
"QtQtQtctcucvcwcxcyczcAcBcCcD.0#i#i#i#i#i.0cEcFcGcHcIcJcKcLcMcNQtQtQt",
"QtQtQtcOcPcQcRcScTcUcVcWcXcY.0#i#i#i#i#i.0cZc0c1c2c3c4c5c6c7c8QtQtQt",
"QtQtQtc9d.d#dadbdcdddedfdgdh.0#i#i#i#i#i.0didjdkdldmdndodpdqdrQtQtQt",
"QtQtQtQtdsdtdudvdwdxdy#kdzdA.0#i#i#i#i#i.0dBdCdDdEdFdGdHdIdJQtQtQtQt",
"QtQtQtQtdKdLdMdNdOdPdQ#l.4dR.0#i#i#i#i#i.0dSdTdUdVdWdXdYdZd0QtQtQtQt",
"QtQtQtQtQtd1d2d3d4d5d6#m.6d7.0#i#i#i#i#i.0d8d9e.e#eaebecedQtQtQtQtQt",
"QtQtQtQtQteeefegeheiejeka5el.0#i#i#i#i#i.0emeneoepeqeresetQtQtQtQtQt",
"QtQtQtQtQtQteuevewexeyezeAeB.0#i#i#i#i#i.0eCeDeEeFeGeHeIQtQtQtQtQtQt",
"QtQtQtQtQtQtQteJeKeLeMeNeOeP.0#i#i#i#i#i.0eQeReSeTeUeVQtQtQtQtQtQtQt",
"QtQtQtQtQtQtQtQteWeXeYeZe0e1.0.0.0.0.0.0.0e2e3e4e5e6QtQtQtQtQtQtQtQt",
"QtQtQtQtQtQtQtQtQte7e8e9f.f#fafbfcfdfefffgfhfifjQtQtQtQtQtQtQtQtQtQt",
"QtQtQtQtQtQtQtQtQtQtfkflfmfnfofpfqfrfsftfufvfwQtQtQtQtQtQtQtQtQtQtQt",
"QtQtQtQtQtQtQtQtQtQtQtQtQtQtfxfyfzfAfBfCQtQtQtQtQtQtQtQtQtQtQtQtQtQt",
"QtQtQtQtQtQtQtQtQtQtQtQtQtQtQtQtQtQtQtQtQtQtQtQtQtQtQtQtQtQtQtQtQtQt",
"QtQtQtQtQtQtQtQtQtQtQtQtQtQtQtQtQtQtQtQtQtQtQtQtQtQtQtQtQtQtQtQtQtQt"};
