/* XPM */
static char * unload_xpm[] = {
"32 32 68 1",
" 	c None",
".	c #000000",
"+	c #001ABF",
"@	c #000A4F",
"#	c #00149A",
"$	c #0022FE",
"%	c #000529",
"&	c #001185",
"*	c #001080",
"=	c #00107C",
"-	c #000F78",
";	c #001AC2",
">	c #000F74",
",	c #00128C",
"'	c #000F71",
")	c #000E6B",
"!	c #000E6E",
"~	c #000D68",
"{	c #000D64",
"]	c #000D65",
"^	c #000C60",
"/	c #0019BA",
"(	c #0017B5",
"_	c #000C5E",
":	c #000B58",
"<	c #0019BB",
"[	c #0019B7",
"}	c #0018B1",
"|	c #0016AD",
"1	c #0015A7",
"2	c #0015A3",
"3	c #00149E",
"4	c #000C5B",
"5	c #000B56",
"6	c #000A51",
"7	c #0018B3",
"8	c #0016AE",
"9	c #0016A9",
"0	c #0015A4",
"a	c #00149F",
"b	c #00149B",
"c	c #001396",
"d	c #001392",
"e	c #001188",
"f	c #000B53",
"g	c #0018B0",
"h	c #0016AA",
"i	c #0015A1",
"j	c #00149D",
"k	c #001397",
"l	c #001393",
"m	c #00128D",
"n	c #001289",
"o	c #00107B",
"p	c #000F76",
"q	c #00128A",
"r	c #000F72",
"s	c #000E6F",
"t	c #000E6A",
"u	c #001EE4",
"v	c #000B54",
"w	c #001394",
"x	c #00128F",
"y	c #000733",
"z	c #001CD3",
"A	c #001182",
"B	c #00107D",
"C	c #001079",
"         ...                    ",
"        .+++...                 ",
"        .++@###...              ",
"        .++@######...           ",
"       .+++@$$$######...        ",
"       .++@$$$$$$$######...     ",
"       .++@$$$$$$$$$$######%..  ",
"      .+++@$$$$$$$$$$$$$###%&*. ",
"      .++@$$$$$$$$$$$$$$$$%*=-;.",
"      .++@$$$$$$$$$$$$$$$$%->;,.",
"     .+++@$$$$$$$$$$$$$$$$%');. ",
"     .++@$$$$$$$$$$$$$$$$%!~{;. ",
"     .++@$$$$$$$$$$$$$$$$%]^;,. ",
"    .++/(%%%$$$$$$$$$$$$$%_:;.  ",
"    .<[}|123%%%$$$$$$$$$%456;.  ",
"    .7890abcd,e%%%$$$$$$%f6;,.  ",
"   .gh1ijklmn&*op'%%%$$$%66;.   ",
"   .123...q&*=-r!~{_4%%%666;.   ",
"   .ab.$$$...>st]^45f66666;,.   ",
"  .jkl.$uu$$$..._:v6666666;.    ",
"  .wxq.$uuuuu$$$.y.6666666;.    ",
"  .,e.$uuuuuuuuuuy&...666;,.    ",
" .n&*.$zzzzzzzzzy&&&&.666;.     ",
" .*=-.$+++++++++yAAAA.666;.     ",
"  ...$8888888888yBBB.666;,.     ",
"     ...jjjjjjjyCCCC.666;.      ",
"        ...jjjjypppp.666;.      ",
"           ...jy'''.666;,.      ",
"              ...!!.666;.       ",
"                 ...666;.       ",
"                    .....       ",
"                                "};
