/* XPM */
static char *unreference_poly_cursor[]={
"32 32 4 1",
"# c None",
"a c None",
"b c #000000",
". c #ffffff",
"...############aaaaaaaaaaaaaaaaa",
".bb..##########aaaaaaaaaaaaaaaaa",
".bbbb..########aaaaaaaaaaaaaaaaa",
"#.b..bb..######aaaaaaaaaaaaaaaaa",
"#.b....bb.################aaaaaa",
"##.b.....b.###############aaaaaa",
"##.b...b..b.##############aaaaaa",
"###.b.bbb..b.#############aaaaaa",
"###.bbbbbb..b.############aaaaaa",
"####.bbbbbb..b.###########aaaaaa",
"#####.bbbbbb..############aaaaaa",
"######.bbbbb.########..#########",
"#######.bbb.#######..bb.########",
"########.b.######..bb.bb.#######",
"#########.#####..bbb.b.bb.######",
"aaa##########..bb.b.b.b.bb.#####",
"aaa########..bbb.b.b.b.b.bb.####",
"aaa#######.bb.b.b.b.b.b.b.bb.###",
"aaa######.bb.b.b.b.b.b.b.b.bb.##",
"aaa######.bbb.b.b.b.b.b.b.b.bb.#",
"aaa######.bbbb.b.b.b.b.b.b.b..b.",
"aaa######.bbbbb.b.b.b.b.b.b.bbb.",
"aaa#######.bbbbb.b.b.b.b.b.bb..#",
"aaa########.bbbbb.b.b.b.bbb....#",
"aaa#########.bbbbb.b.b.bb.....b.",
"aaaaaaaaa####.bbbbb.bbb......bb.",
"aaaaaaaaa#####.bbbbbb......bb..#",
"aaaaaaaaa######.bbbb.....bb..###",
"aaaaaaaaa#######.bbb...bb..#####",
"aaaaaaaaa########.bb.bb..#######",
"aaaaaaaaa#########.bb..#########",
"aaaaaaaaa##########..###########"};
