/* XPM */
static char *wave_monitor[]={
"32 32 5 1",
". c None",
"a c #000000",
"b c #c0ffc0",
"c c #c0ffff",
"# c #ffffff",
"................................",
"################################",
"#aabbbaaaaaaaaaaaaaaaaaaaaaaaaa#",
"#aababaaaaaaaaaaaaaaaaaaaaaaaaa#",
"#aababbaaaaaaabbaaaaaaaaaaaaaaa#",
"#abbaabbbaaaabbbbaaaaaaaaaaaaaa#",
"#abaaaaabbbabbaabaaaaaaaaaaaaaa#",
"#abaaaaaaabbbaaaabbbbaaaabaaaaa#",
"#bbaaaaaaaaaaaaaaaaabbbbbbbbbba#",
"#aaaaaaaaaaaaaaaaaaaaaaaaaaaaaa#",
"################################",
"#aaaaaaaaaaaaaaaaaaaaaaaaaaaaaa#",
"#accaaaaaaaaaaaaaacaaaaaaaaaaaa#",
"#accabbbaaaaaaaaaccaaabbaaaaaaa#",
"#aacababaaaaaaaaaacaabbbaaaaaaa#",
"#accabababbaaaaaaccaababbaaaaaa#",
"#aacababbbbbaaaaaacabbaabbbbbaa#",
"#accabaaaaabbbaaaccabaaaaabbbba#",
"#aacaaaaaaaaaaaaaacaaaaaaaaaaaa#",
"#accccccccccccaaaccccccccccccca#",
"#aaaaaaaaaaaaaaaaaaaaaaaaaaaaaa#",
"#aacaaaaaaaaaaaaaacaaaaaaaaaaaa#",
"#accaaaaaaaaaaaaaccaaaaaaaaaaaa#",
"#aacaaaaaaaaaaaaaacaaaabbbaaaaa#",
"#accaabbbaaaaaaaaccaaabbabbaaaa#",
"#aacabbabbbbbaaaaacabbbaaabbbaa#",
"#accaaaaaaaaaaaaaccaaaaaaaaaaaa#",
"#aacccccccccccaaaacccccccccccca#",
"#aaaaaaaaaaaaaaaaaaaaaaaaaaaaaa#",
"################################",
"................................",
"................................"};
