/* XPM */
static char *zoom_rect_cursor[]={
"32 32 3 1",
". c None",
"a c #000000",
"# c #ffffff",
"......#####.....................",
"....##aaaaa##...................",
"...#aa#####aa#..................",
"..#a##.....##a#.................",
".#a#.........#a#................",
".#a#.........#a#................",
"#a#...........#a#...............",
"#a#...........#a#...............",
"#a#...........#a#...............",
"#a#...........#a#...............",
"#a#...........#a#...............",
".#a#.........#a#................",
".#a#.........#a#................",
"..#a##.....##a#a#...............",
"...#aa#####aa#a#a#..............",
"....##aaaaa##aaa#a#.............",
"......#####..#aaa#a#............",
"..............#aaa#a#...........",
"...............#aaa#a#..........",
"................#aaa#a#.........",
".................#aaa#a#........",
"..................#aaaa#........",
"...................#aaa#........",
".................###############",
".................#aaaaaaaaaaaaa#",
".................#a###########a#",
".................#a#.........#a#",
".................#a#.........#a#",
".................#a#.........#a#",
".................#a###########a#",
".................#aaaaaaaaaaaaa#",
".................###############"};
