/* XPM */
static char *zoom_cursor[]={
"32 32 3 1",
". c None",
"a c #000000",
"# c #ffffff",
"........#######.................",
"......##aaaaaaa##...............",
".....#aa#######aa#..............",
"....#a##.......##a#.............",
"...#a#...........#a#............",
"..#a#.....###.....#a#...........",
".#a#......#a#......#a#..........",
".#a#......#a#......#a#..........",
"#a#.......#a#.......#a#.........",
"#a#.......#a#.......#a#.........",
"#a#..######a######..#a#.........",
"#a#..#aaaaaaaaaaa#..#a#.........",
"#a#..######a######..#a#.........",
"#a#.......#a#.......#a#.........",
"#a#.......#a#.......#a#.........",
".#a#......#a#......#a#..........",
".#a#......#a#......#a#..........",
"..#a#.....###.....#a##..........",
"...#a#...........#a##a#.........",
"....#a##.......##a#a##a#........",
".....#aa#######aa#aaa##a#.......",
"......##aaaaaaa###aaaa##a#......",
"........#######...#aaaa##a#.....",
"...................#aaaa##a#....",
"....................#aaaa##a#...",
".....................#aaaa##a#..",
"......................#aaaa##a#.",
".......................#aaaa##a#",
"........................#aaaa#a#",
".........................#aaaaa#",
"..........................#aaa#.",
"...........................###.."};
