/* XPM */
static char *zoom_poly[]={
"32 32 163 2",
"Qt c None",
".a c #000000",
"au c #010101",
"al c #040404",
"ap c #060606",
"aq c #06afb1",
"#c c #090909",
"#r c #0a0a0a",
"aG c #0a0a0b",
"aj c #0ae1df",
"## c #0c0c0c",
"ad c #0cfdfa",
"aF c #0d0d0c",
"aD c #121213",
".h c #131313",
"ai c #2e2e2d",
".b c #2f2f2f",
".1 c #30302f",
"aw c #333333",
"aB c #343434",
"ae c #373736",
"az c #3d3d3c",
"#V c #3e9ea6",
"ax c #404041",
"aC c #424243",
"a. c #42a2aa",
".9 c #44a5ae",
"#9 c #44a7b0",
"#L c #44abb3",
"#U c #46aab3",
"aE c #4a4a4b",
"#K c #4ab6c2",
".q c #4b4b4a",
"#M c #4ba5b1",
".7 c #4c4c4b",
"#C c #4cb7be",
"#8 c #4db8c0",
"#x c #4eb2ba",
"#B c #4ec2ce",
"#T c #4ec6d2",
"#. c #505050",
"am c #515151",
"#W c #52aeb6",
"#D c #52b2ba",
"#J c #52c2ce",
"ar c #535352",
".i c #545552",
"ay c #555554",
"aA c #555653",
"#m c #56b6c2",
"#w c #56bac8",
"#P c #575757",
"#y c #5ab6be",
"a# c #5abac6",
".c c #5d5d5d",
"#N c #5eb6c0",
"#l c #5ebeca",
"#7 c #5ebece",
"#n c #62bec6",
"#b c #62cad6",
"#I c #62ceda",
".g c #666666",
"#S c #66cad8",
"#6 c #6ac6d2",
"#5 c #76cad6",
"#k c #76ced6",
"#R c #76cede",
"#v c #76d2df",
".C c #797979",
"#X c #7acad6",
"#4 c #7ecad6",
"#Q c #7ed6de",
"ac c #7f7f80",
".d c #818181",
"#j c #82d6e2",
"#0 c #848484",
"av c #858585",
"#E c #86d6de",
"#u c #86dae2",
".# c #878787",
"af c #898989",
"#H c #8adae2",
"ah c #8b8b8b",
"as c #8c8c8c",
".f c #8e8e8e",
"#t c #8edae5",
"#i c #8edee6",
"ab c #929292",
"#z c #96dae2",
"an c #989898",
".e c #9a9a9a",
".X c #9ad6e2",
".Y c #9adae2",
"#3 c #9adee6",
"#h c #9adeea",
"#o c #9edee6",
".j c #9fa0a0",
".W c #a2dee6",
"#G c #a6a6a6",
"#g c #a6e2ea",
".p c #a9a9a9",
"#s c #aae6ee",
"ag c #aeb7b9",
"#F c #b1e6ee",
".r c #b2b8b9",
".L c #b2e2ea",
".K c #b2e6ee",
"#Y c #b2eaf0",
".P c #b3b7b8",
".D c #b4bab9",
"#f c #baeaee",
"#p c #bdedf1",
".V c #beeaf2",
"#2 c #beeef2",
".J c #beeef6",
"ao c #c2c2c2",
"#e c #c2eaf2",
".M c #c2eef3",
"#q c #c3c3c3",
"#O c #c4e6ec",
".8 c #c8d0d0",
".o c #c9d5d5",
".I c #caeef2",
".U c #caf2f6",
".k c #cbd7d7",
".n c #cbd8d9",
".l c #cedade",
".T c #cef2f2",
"#1 c #d0e9ed",
".m c #d1e1e5",
".N c #d1eef2",
".z c #d2eef2",
".y c #d2f2f6",
".x c #d2f6f8",
"#A c #d3d3d3",
".B c #d4dada",
"#a c #d5e2e5",
".Z c #d5f1f5",
"#Z c #d7e3e5",
".s c #d8e4e4",
".2 c #d9e5e4",
".E c #d9e5e5",
"aa c #d9f9f9",
".w c #daf6fa",
".O c #deebec",
".t c #deeeee",
".u c #def2f2",
".H c #def6f9",
"ak c #e0e0e0",
"#d c #e1e9ed",
".0 c #e2eff0",
".S c #e2f6fa",
".A c #e4fbfb",
".v c #e6f2f6",
".F c #e6f6fa",
".G c #e6fafa",
"at c #e8e8e8",
".3 c #eaf6fa",
".Q c #eafafa",
".6 c #eefafa",
".R c #eefafe",
".4 c #eefefa",
".5 c #ff0000",
"QtQtQtQtQtQtQt.#.a.a.a.a.a.a.#QtQtQtQtQtQtQtQtQtQtQtQtQtQtQtQtQt",
"QtQtQtQtQt.a.a.b.c.d.e.e.f.g.h.a.aQtQtQtQtQtQtQtQtQtQtQtQtQtQtQt",
"QtQtQtQt.a.i.d.j.k.l.m.m.l.n.o.p.q.aQtQtQtQtQtQtQtQtQtQtQtQtQtQt",
"QtQtQt.a.i.r.s.t.u.v.w.x.y.z.x.A.B.C.aQtQtQtQtQtQtQtQtQtQtQtQtQt",
"QtQt.a.i.D.E.F.G.H.x.y.I.J.K.L.M.N.O.c.aQtQtQtQtQtQtQtQtQtQtQtQt",
"Qt.a.i.P.E.Q.R.Q.S.T.U.V.K.W.X.Y.M.Z.0.1.aQtQtQtQtQtQtQtQtQtQtQt",
"Qt.a.d.2.3.4.5.5.5.5.5.5.5.5.5.5.5.5.5.5.5.5.5.5.5QtQtQtQtQtQtQt",
".#.b.j.t.3.6.5.5.5.5.5.5.5.5.5.5.5.5.5.5.5.5.5.5.5.5QtQtQtQtQtQt",
".a.7.8.v.H.S.5.5.9.9.9.9.9.9.9.9.9.9.9.9#.##QtQtQt.5.5QtQtQtQtQt",
".a.d#a.Q.x.T.5.5#b#b#b#b#b#b#b.9.9.9#b#b.d#cQtQtQtQt.5.5QtQtQtQt",
".a.e#d.G.z#e.5.5.9#f#g#h#i#j#k#l#m#n#o#p#q#rQtQtQtQtQt.5.5QtQtQt",
".5.5.5.5.5.5.5.5.9#s#o#t#u#v#b#w#x#y#z#p#A#rQtQtQtQtQtQt.5.5QtQt",
".5.5.5.5.5.5.5.5.9.Y#t#j#v#b#B#C.9#D#E#F#G#rQtQtQtQtQtQtQt.5.5Qt",
".5.5.d.9.9.9.9.9.9#H#u#v#I#J#K#L#M#N#h#O#P#cQtQtQtQtQtQtQtQt.5.5",
".5.5.d#b#b#b#b#b#b#Q#R#S#T#K#U#V#W#X#Y#Z.a#0QtQtQtQtQtQtQtQt.5.5",
".5.5.d#1#2#3#4#4#5#6#7#w#8#9#Va.a##iaaab.aQtQtQtQtQtQtQtQtQt.5.5",
".5.5.5.5.5.5.5.5.5.5.5.5.5.5.5.5.5.5.5.5.5.5.5.5.5.5.5.5.5.5.5.5",
".5.5.5.5.5.5.5.5.5.5.5.5.5.5.5.5.5.5.5.5.5.5.5.5.5.5.5.5.5.5.5.5",
"QtQtQt.a.a.d.9.9.9.9.9.9.9.9.9.9.d.a.aacad.aQtQtQtQtQtQtQtQtQtQt",
"QtQtQtQt.aaeafag#z#z#z#z#z#z#zahai.a.qajajak.aQtQtQtQtQtQtQtQtQt",
"QtQtQtQtQt.a.aalamanao#A#G#P.a.a#0apaqaqarasatauQtQtQtQtQtQtQtQt",
"QtQtQtQtQtQtQtav.a.a.a.a.a.a#0QtQtQt.aaw.qarasat.aQtQtQtQtQtQtQt",
"QtQtQtQtQtQtQtQtQtQtQtQtQtQtQtQtQtQtQt.aawaxayasat.aQtQtQtQtQtQt",
"QtQtQtQt.a.aQtQtQtQtQtQtQtQtQtQtQtQtQtQt.aawaxarasat.aQtQtQtQtQt",
"QtQtQtQt.a.aQtQtQtQtQtQtQtQtQtQtQtQtQtQtQt.aawaxarasat.aQtQtQtQt",
"QtQtQtQt.a.aQtQtQtQtQtQtQtQtQtQtQtQtQtQtQtQt.aawazaAasat.aQtQtQt",
"Qt.a.a.a.a.a.a.a.aQtQtQtQtQtQtQtQtQtQtQtQtQtQt.aaBazaAasat.aQtQt",
"Qt.a.a.a.a.a.a.a.aQtQtQtQtQtQtQtQtQtQtQtQtQtQtQt.aaBaCaAasak.aQt",
"QtQtQtQt.a.aQtQtQtQtQtQtQtQtQtQtQtQtQtQtQtQtQtQtQt.aaBaCaAasaDQt",
"QtQtQtQt.a.aQtQtQtQtQtQtQtQtQtQtQtQtQtQtQtQtQtQtQtQt.aaBaCaEaFQt",
"QtQtQtQt.a.aQtQtQtQtQtQtQtQtQtQtQtQtQtQtQtQtQtQtQtQtQt.aaGaGQtQt",
"QtQtQtQtQtQtQtQtQtQtQtQtQtQtQtQtQtQtQtQtQtQtQtQtQtQtQtQtQtQtQtQt"};
